solid FoldaRapX
facet normal 1.06240462770227e-007 6.09133481967274e-007 -0.999999999999809
outer loop
vertex -358.906028841018 17.8252984119139 1.03071617644224e-006
vertex -354.835709591627 17.4752966861407 1.24995098338687e-006
vertex -358.15911172752 16.8518962236521 5.17137131755829e-007
endloop
endfacet
facet normal 1.06240462770227e-007 6.09133481967274e-007 -0.999999999999809
outer loop
vertex -354.835709591627 17.4752966861407 1.24995098338687e-006
vertex -358.906028841018 17.8252984119139 1.03071617644224e-006
vertex -355.534520974397 17.567297251449 1.23174956348088e-006
endloop
endfacet
facet normal 1.06240462770227e-007 6.09133481967274e-007 -0.999999999999809
outer loop
vertex -355.534520974397 17.567297251449 1.23174956348088e-006
vertex -358.906028841018 17.8252984119139 1.03071617644224e-006
vertex -356.185709438257 17.8370286683086 1.32686944013111e-006
endloop
endfacet
facet normal 1.06240462770227e-007 6.09133481967274e-007 -0.999999999999809
outer loop
vertex -356.185709438257 17.8370286683086 1.32686944013111e-006
vertex -358.906028841018 17.8252984119139 1.03071617644224e-006
vertex -359.375560346176 18.9588490990085 1.67131660945008e-006
endloop
endfacet
facet normal 1.06240462770227e-007 6.09133481967274e-007 -0.999999999999809
outer loop
vertex -356.185709438257 17.8370286683086 1.32686944013111e-006
vertex -359.375560346176 18.9588490990085 1.67131660945008e-006
vertex -356.744897565535 18.2661091864129 1.52882834810047e-006
endloop
endfacet
facet normal 1.06240462770227e-007 6.09133481967274e-007 -0.999999999999809
outer loop
vertex -356.744897565535 18.2661091864129 1.52882834810047e-006
vertex -359.375560346176 18.9588490990085 1.67131660945008e-006
vertex -357.173977609459 18.825297677542 1.82386312337218e-006
endloop
endfacet
facet normal 1.06240462770227e-007 6.09133481967274e-007 -0.999999999999809
outer loop
vertex -357.173977609459 18.825297677542 1.82386312337218e-006
vertex -359.375560346176 18.9588490990085 1.67131660945008e-006
vertex -357.443708474125 19.4764863701282 2.19186763369544e-006
endloop
endfacet
facet normal 1.06240462770227e-007 6.09133481967274e-007 -0.999999999999809
outer loop
vertex -357.443708474125 19.4764863701282 2.19186763369544e-006
vertex -359.375560346176 18.9588490990085 1.67131660945008e-006
vertex -359.535708446855 20.1752986788913 2.39528256879007e-006
endloop
endfacet
facet normal 1.06240462770227e-007 6.09133481967274e-007 -0.999999999999809
outer loop
vertex -357.443708474125 19.4764863701282 2.19186763369544e-006
vertex -359.535708446855 20.1752986788913 2.39528256879007e-006
vertex -357.535708446855 20.175297830912 2.60776297844462e-006
endloop
endfacet
facet normal 1.06240462770227e-007 6.09133481967274e-007 -0.999999999999809
outer loop
vertex -357.535708446855 20.175297830912 2.60776297844462e-006
vertex -359.535708446855 20.1752986788913 2.39528256879007e-006
vertex -357.443707881547 20.8741092136815 3.04320657777413e-006
endloop
endfacet
facet normal 1.06240462770227e-007 6.09133481967274e-007 -0.999999999999809
outer loop
vertex -357.443707881547 20.8741092136815 3.04320657777413e-006
vertex -359.535708446855 20.1752986788913 2.39528256879007e-006
vertex -359.375559314652 21.3917481229715 3.15327697290729e-006
endloop
endfacet
facet normal 1.06240462770227e-007 6.09133481967274e-007 -0.999999999999809
outer loop
vertex -357.443707881547 20.8741092136815 3.04320657777413e-006
vertex -359.375559314652 21.3917481229715 3.15327697290729e-006
vertex -357.173976464687 21.5252976775413 3.46852367111988e-006
endloop
endfacet
facet normal 1.06240462770227e-007 6.09133481967274e-007 -0.999999999999809
outer loop
vertex -357.173976464687 21.5252976775413 3.46852367111988e-006
vertex -359.375559314652 21.3917481229715 3.15327697290729e-006
vertex -358.906026848266 22.5252984119126 3.89364375332352e-006
endloop
endfacet
facet normal 1.06240462770227e-007 6.09133481967274e-007 -0.999999999999809
outer loop
vertex -357.173976464687 21.5252976775413 3.46852367111988e-006
vertex -358.906026848266 22.5252984119126 3.89364375332352e-006
vertex -356.744895946583 22.0844858048192 3.85472959993915e-006
endloop
endfacet
facet normal 1.06240462770227e-007 6.09133481967274e-007 -0.999999999999809
outer loop
vertex -356.744895946583 22.0844858048192 3.85472959993915e-006
vertex -358.906026848266 22.5252984119126 3.89364375332352e-006
vertex -356.185707455454 22.5135658487433 4.17550506874309e-006
endloop
endfacet
facet normal 1.06240462770227e-007 6.09133481967274e-007 -0.999999999999809
outer loop
vertex -356.185707455454 22.5135658487433 4.17550506874309e-006
vertex -358.906026848266 22.5252984119126 3.89364375332352e-006
vertex -355.534518762868 22.7832967134085 4.40898975992698e-006
endloop
endfacet
facet normal 1.06240462770227e-007 6.09133481967274e-007 -0.999999999999809
outer loop
vertex -355.534518762868 22.7832967134085 4.40898975992698e-006
vertex -358.906026848266 22.5252984119126 3.89364375332352e-006
vertex -358.159108909344 23.4986999668038 4.56592813970341e-006
endloop
endfacet
facet normal 1.06240462770227e-007 6.09133481967274e-007 -0.999999999999809
outer loop
vertex -355.534518762868 22.7832967134085 4.40898975992698e-006
vertex -358.159108909344 23.4986999668038 4.56592813970341e-006
vertex -354.835707302084 22.8752966861392 4.53927207817728e-006
endloop
endfacet
facet normal 1.06240462770227e-007 6.09133481967274e-007 -0.999999999999809
outer loop
vertex -354.835707302084 22.8752966861392 4.53927207817728e-006
vertex -358.159108909344 23.4986999668038 4.56592813970341e-006
vertex -351.512305166191 23.4986971486278 5.27208592892708e-006
endloop
endfacet
facet normal 1.06240462770227e-007 6.09133481967274e-007 -0.999999999999809
outer loop
vertex -351.512305166191 23.4986971486278 5.27208592892708e-006
vertex -358.159108909344 23.4986999668038 4.56592813970341e-006
vertex -352.485706721083 24.24561508755 5.62364402160731e-006
endloop
endfacet
facet normal 1.06240462770227e-007 6.09133481967274e-007 -0.999999999999809
outer loop
vertex -352.485706721083 24.24561508755 5.62364402160731e-006
vertex -358.159108909344 23.4986999668038 4.56592813970341e-006
vertex -357.185706721082 24.2456170803014 5.12431506084904e-006
endloop
endfacet
facet normal 1.06240462770227e-007 6.09133481967274e-007 -0.999999999999809
outer loop
vertex -352.485706721083 24.24561508755 5.62364402160731e-006
vertex -357.185706721082 24.2456170803014 5.12431506084904e-006
vertex -353.619257010024 24.7151475539353 5.78922306068291e-006
endloop
endfacet
facet normal 1.06240462770227e-007 6.09133481967274e-007 -0.999999999999809
outer loop
vertex -353.619257010024 24.7151475539353 5.78922306068291e-006
vertex -357.185706721082 24.2456170803014 5.12431506084904e-006
vertex -356.052156033988 24.7151485854593 5.5307513706998e-006
endloop
endfacet
facet normal 1.06240462770227e-007 6.09133481967274e-007 -0.999999999999809
outer loop
vertex -353.619257010024 24.7151475539353 5.78922306068291e-006
vertex -356.052156033988 24.7151485854593 5.5307513706998e-006
vertex -354.835706454104 24.8752966861386 5.75753910713461e-006
endloop
endfacet
facet normal 1.06240462770227e-007 6.09133481967274e-007 -0.999999999999809
outer loop
vertex -356.052159883687 15.6354458183446 0.0
vertex -353.619260859724 15.6354447868206 2.58471689983109e-007
vertex -354.835710439607 15.4752966861412 3.16839535483004e-008
endloop
endfacet
facet normal 1.06240462770227e-007 6.09133481967274e-007 -0.999999999999809
outer loop
vertex -353.619260859724 15.6354447868206 2.58471689983109e-007
vertex -356.052159883687 15.6354458183446 0.0
vertex -352.485710172629 16.1049762919785 6.64908000010123e-007
endloop
endfacet
facet normal 1.06240462770227e-007 6.09133481967274e-007 -0.999999999999809
outer loop
vertex -352.485710172629 16.1049762919785 6.64908000010123e-007
vertex -356.052159883687 15.6354458183446 0.0
vertex -357.185710172628 16.1049782847299 1.65579039075603e-007
endloop
endfacet
facet normal 1.06240462770227e-007 6.09133481967274e-007 -0.999999999999809
outer loop
vertex -352.485710172629 16.1049762919785 6.64908000010123e-007
vertex -357.185710172628 16.1049782847299 1.65579039075603e-007
vertex -351.512307984367 16.8518934054761 1.2232949209795e-006
endloop
endfacet
facet normal 1.06240462770227e-007 6.09133481967274e-007 -0.999999999999809
outer loop
vertex -351.512307984367 16.8518934054761 1.2232949209795e-006
vertex -357.185710172628 16.1049782847299 1.65579039075603e-007
vertex -358.15911172752 16.8518962236521 5.17137131755829e-007
endloop
endfacet
facet normal 1.06240462770227e-007 6.09133481967274e-007 -0.999999999999809
outer loop
vertex -351.512307984367 16.8518934054761 1.2232949209795e-006
vertex -358.15911172752 16.8518962236521 5.17137131755829e-007
vertex -350.765390045445 17.8252949603672 1.89557930753564e-006
endloop
endfacet
facet normal 1.06240462770227e-007 6.09133481967274e-007 -0.999999999999809
outer loop
vertex -350.765390045445 17.8252949603672 1.89557930753564e-006
vertex -358.15911172752 16.8518962236521 5.17137131755829e-007
vertex -354.835709591627 17.4752966861407 1.24995098338687e-006
endloop
endfacet
facet normal 1.06240462770227e-007 6.09133481967274e-007 -0.999999999999809
outer loop
vertex -350.765390045445 17.8252949603672 1.89557930753564e-006
vertex -354.835709591627 17.4752966861407 1.24995098338687e-006
vertex -354.136898130844 17.5672966588713 1.38023330075593e-006
endloop
endfacet
facet normal 1.06240462770227e-007 6.09133481967274e-007 -0.999999999999809
outer loop
vertex -350.765390045445 17.8252949603672 1.89557930753564e-006
vertex -354.136898130844 17.5672966588713 1.38023330075593e-006
vertex -353.485709438257 17.8370275235366 1.61371799211607e-006
endloop
endfacet
facet normal 1.06240462770227e-007 6.09133481967274e-007 -0.999999999999809
outer loop
vertex -350.765390045445 17.8252949603672 1.89557930753564e-006
vertex -353.485709438257 17.8370275235366 1.61371799211607e-006
vertex -350.295857579059 18.9588452493084 2.63594608795187e-006
endloop
endfacet
facet normal 1.06240462770227e-007 6.09133481967274e-007 -0.999999999999809
outer loop
vertex -350.295857579059 18.9588452493084 2.63594608795187e-006
vertex -353.485709438257 17.8370275235366 1.61371799211607e-006
vertex -352.926520947128 18.2661075674607 1.93449346092001e-006
endloop
endfacet
facet normal 1.06240462770227e-007 6.09133481967274e-007 -0.999999999999809
outer loop
vertex -350.295857579059 18.9588452493084 2.63594608795187e-006
vertex -352.926520947128 18.2661075674607 1.93449346092001e-006
vertex -352.497440429024 18.8252956947386 2.32069938973928e-006
endloop
endfacet
facet normal 1.06240462770227e-007 6.09133481967274e-007 -0.999999999999809
outer loop
vertex -350.295857579059 18.9588452493084 2.63594608795187e-006
vertex -352.497440429024 18.8252956947386 2.32069938973928e-006
vertex -352.227709012164 19.4764841585984 2.74601648308503e-006
endloop
endfacet
facet normal 1.06240462770227e-007 6.09133481967274e-007 -0.999999999999809
outer loop
vertex -350.295857579059 18.9588452493084 2.63594608795187e-006
vertex -352.227709012164 19.4764841585984 2.74601648308503e-006
vertex -350.135708446856 20.1752946933885 3.39394049189284e-006
endloop
endfacet
facet normal 1.06240462770227e-007 6.09133481967274e-007 -0.999999999999809
outer loop
vertex -350.135708446856 20.1752946933885 3.39394049189284e-006
vertex -352.227709012164 19.4764841585984 2.74601648308503e-006
vertex -352.135708446856 20.1752955413679 3.18146008241454e-006
endloop
endfacet
facet normal 1.06240462770227e-007 6.09133481967274e-007 -0.999999999999809
outer loop
vertex -350.135708446856 20.1752946933885 3.39394049189284e-006
vertex -352.135708446856 20.1752955413679 3.18146008241454e-006
vertex -350.295856547535 21.3917442732714 4.11790645123283e-006
endloop
endfacet
facet normal 1.06240462770227e-007 6.09133481967274e-007 -0.999999999999809
outer loop
vertex -350.295856547535 21.3917442732714 4.11790645123283e-006
vertex -352.135708446856 20.1752955413679 3.18146008241454e-006
vertex -352.227708419587 20.8741070021516 3.59735542786871e-006
endloop
endfacet
facet normal 1.06240462770227e-007 6.09133481967274e-007 -0.999999999999809
outer loop
vertex -350.295856547535 21.3917442732714 4.11790645123283e-006
vertex -352.227708419587 20.8741070021516 3.59735542786871e-006
vertex -352.497439284252 21.5252956947379 3.96535993748698e-006
endloop
endfacet
facet normal 1.06240462770227e-007 6.09133481967274e-007 -0.999999999999809
outer loop
vertex -350.295856547535 21.3917442732714 4.11790645123283e-006
vertex -352.497439284252 21.5252956947379 3.96535993748698e-006
vertex -350.765388052693 22.525294960366 4.75850688424068e-006
endloop
endfacet
facet normal 1.06240462770227e-007 6.09133481967274e-007 -0.999999999999809
outer loop
vertex -350.765388052693 22.525294960366 4.75850688424068e-006
vertex -352.497439284252 21.5252956947379 3.96535993748698e-006
vertex -352.926519328176 22.084484185867 4.26039471275869e-006
endloop
endfacet
facet normal 1.06240462770227e-007 6.09133481967274e-007 -0.999999999999809
outer loop
vertex -350.765388052693 22.525294960366 4.75850688424068e-006
vertex -352.926519328176 22.084484185867 4.26039471275869e-006
vertex -353.485707455454 22.5135647039712 4.46235362072805e-006
endloop
endfacet
facet normal 1.06240462770227e-007 6.09133481967274e-007 -0.999999999999809
outer loop
vertex -350.765388052693 22.525294960366 4.75850688424068e-006
vertex -353.485707455454 22.5135647039712 4.46235362072805e-006
vertex -354.136895919314 22.7832961208309 4.55747349720204e-006
endloop
endfacet
facet normal 1.06240462770227e-007 6.09133481967274e-007 -0.999999999999809
outer loop
vertex -350.765388052693 22.525294960366 4.75850688424068e-006
vertex -354.136895919314 22.7832961208309 4.55747349720204e-006
vertex -351.512305166191 23.4986971486278 5.27208592892708e-006
endloop
endfacet
facet normal 1.06240462770227e-007 6.09133481967274e-007 -0.999999999999809
outer loop
vertex -351.512305166191 23.4986971486278 5.27208592892708e-006
vertex -354.136895919314 22.7832961208309 4.55747349720204e-006
vertex -354.835707302084 22.8752966861392 4.53927207817728e-006
endloop
endfacet
facet normal 0.866025615779152 0.499999632814048 3.96573489401128e-007
outer loop
vertex -350.765388158934 22.5252943512324 1.00000475850671
vertex -351.512305166191 23.4986971486278 5.27208592892708e-006
vertex -351.512305272432 23.4986965394943 1.00000527208576
endloop
endfacet
facet normal 0.707107080992392 0.707106481380395 5.05845634640719e-007
outer loop
vertex -351.512305166191 23.4986971486278 5.27208592892708e-006
vertex -350.765388158934 22.5252943512324 1.00000475850671
vertex -350.765388052693 22.525294960366 4.75850688424068e-006
endloop
endfacet
facet normal 0.965925716552393 -0.258819454645017 -5.50352165777854e-008
outer loop
vertex -350.2958576853 18.9588446401749 1.00000263594591
vertex -350.135708446856 20.1752946933885 3.39394049189284e-006
vertex -350.135708553096 20.175294084255 1.00000339394031
endloop
endfacet
facet normal 0.999999999999905 -4.23989663790789e-007 1.06240196743148e-007
outer loop
vertex -350.135708446856 20.1752946933885 3.39394049189284e-006
vertex -350.2958576853 18.9588446401749 1.00000263594591
vertex -350.295857579059 18.9588452493084 2.63594608795187e-006
endloop
endfacet
facet normal 0.258818635559994 -0.965925936025402 -5.60880834674992e-007
outer loop
vertex -353.619260859724 15.6354447868206 2.58471689983109e-007
vertex -352.485710278869 16.104975682845 1.0000006649078
vertex -353.619260965964 15.6354441776871 1.00000025847149
endloop
endfacet
facet normal 0.499999632814189 -0.866025615779032 -4.74405022374966e-007
outer loop
vertex -352.485710278869 16.104975682845 1.0000006649078
vertex -353.619260859724 15.6354447868206 2.58471689983109e-007
vertex -352.485710172629 16.1049762919785 6.64908000010123e-007
endloop
endfacet
facet normal -0.707107080992393 -0.707106481380394 -5.05845602720217e-007
outer loop
vertex -358.15911172752 16.8518962236521 5.17137131755829e-007
vertex -357.185710278869 16.1049776755964 1.00000016557883
vertex -358.15911183376 16.8518956145186 1.00000051713692
endloop
endfacet
facet normal -0.500000367185712 -0.866025191789371 -5.80645202016155e-007
outer loop
vertex -357.185710278869 16.1049776755964 1.00000016557883
vertex -358.15911172752 16.8518962236521 5.17137131755829e-007
vertex -357.185710172628 16.1049782847299 1.65579039075603e-007
endloop
endfacet
facet normal -0.866025615779151 -0.499999632814051 -3.96573466835336e-007
outer loop
vertex -358.906028841018 17.8252984119139 1.03071617644224e-006
vertex -358.15911183376 16.8518956145186 1.00000051713692
vertex -358.906028947258 17.8252978027805 1.00000103071597
endloop
endfacet
facet normal -0.707107080992394 -0.707106481380393 -5.05845602720217e-007
outer loop
vertex -358.15911183376 16.8518956145186 1.00000051713692
vertex -358.906028841018 17.8252984119139 1.03071617644224e-006
vertex -358.15911172752 16.8518962236521 5.17137131755829e-007
endloop
endfacet
facet normal -0.258818635559994 0.965925936025402 5.60880824174667e-007
outer loop
vertex -356.052156140228 24.7151479763258 1.00000553075119
vertex -357.185706721082 24.2456170803014 5.12431506084904e-006
vertex -357.185706827323 24.2456164711679 1.00000512431487
endloop
endfacet
facet normal -0.49999963281419 0.866025615779031 4.74405016708875e-007
outer loop
vertex -357.185706721082 24.2456170803014 5.12431506084904e-006
vertex -356.052156140228 24.7151479763258 1.00000553075119
vertex -356.052156033988 24.7151485854593 5.5307513706998e-006
endloop
endfacet
facet normal 0.258819454645 0.965925716552203 6.1587480722779e-007
outer loop
vertex -353.619257116265 24.7151469448018 1.00000578922288
vertex -354.835706454104 24.8752966861386 5.75753910713461e-006
vertex -354.835706560345 24.8752960770052 1.00000575753893
endloop
endfacet
facet normal 4.23989593253508e-007 0.999999999999725 6.09133537673299e-007
outer loop
vertex -354.835706454104 24.8752966861386 5.75753910713461e-006
vertex -353.619257116265 24.7151469448018 1.00000578922288
vertex -353.619257010024 24.7151475539353 5.78922306068291e-006
endloop
endfacet
facet normal 0.500000367185713 0.86602519178937 5.80645230581791e-007
outer loop
vertex -352.485706827323 24.2456144784165 1.00000562364385
vertex -353.619257010024 24.7151475539353 5.78922306068291e-006
vertex -353.619257116265 24.7151469448018 1.00000578922288
endloop
endfacet
facet normal 0.258819454644998 0.965925716552203 6.1587480722779e-007
outer loop
vertex -353.619257010024 24.7151475539353 5.78922306068291e-006
vertex -352.485706827323 24.2456144784165 1.00000562364385
vertex -352.485706721083 24.24561508755 5.62364402160731e-006
endloop
endfacet
facet normal 0.965925936025559 0.258818635559882 2.60275516225224e-007
outer loop
vertex -350.295856653776 21.3917436641379 1.00000411790628
vertex -350.765388052693 22.525294960366 4.75850688424068e-006
vertex -350.765388158934 22.5252943512324 1.00000475850671
endloop
endfacet
facet normal 0.866025615779149 0.499999632814053 3.9657348940113e-007
outer loop
vertex -350.765388052693 22.525294960366 4.75850688424068e-006
vertex -350.295856653776 21.3917436641379 1.00000411790628
vertex -350.295856547535 21.3917442732714 4.11790645123283e-006
endloop
endfacet
facet normal 0.866025191789558 -0.50000036718568 -2.12560058349869e-007
outer loop
vertex -350.765390151685 17.8252943512337 1.00000189557912
vertex -350.295857579059 18.9588452493084 2.63594608795187e-006
vertex -350.2958576853 18.9588446401749 1.00000263594591
endloop
endfacet
facet normal 0.965925716552394 -0.258819454645013 -5.50352165777827e-008
outer loop
vertex -350.295857579059 18.9588452493084 2.63594608795187e-006
vertex -350.765390151685 17.8252943512337 1.00000189557912
vertex -350.765390045445 17.8252949603672 1.89557930753564e-006
endloop
endfacet
facet normal -0.258819454644999 -0.965925716552203 -6.15874796726362e-007
outer loop
vertex -356.052159883687 15.6354458183446 0.0
vertex -354.835710545847 15.4752960770077 1.00000003168375
vertex -356.052159989927 15.6354452092111 0.999999999999793
endloop
endfacet
facet normal -4.23989593021819e-007 -0.999999999999725 -6.09133537673562e-007
outer loop
vertex -354.835710545847 15.4752960770077 1.00000003168375
vertex -356.052159883687 15.6354458183446 0.0
vertex -354.835710439607 15.4752966861412 3.16839535483004e-008
endloop
endfacet
facet normal 0.707106481380562 -0.707107080992317 -3.55599283595299e-007
outer loop
vertex -351.512308090607 16.8518927963426 1.00000122329473
vertex -350.765390045445 17.8252949603672 1.89557930753564e-006
vertex -350.765390151685 17.8252943512337 1.00000189557912
endloop
endfacet
facet normal 0.86602519178956 -0.500000367185677 -2.12560058349867e-007
outer loop
vertex -350.765390045445 17.8252949603672 1.89557930753564e-006
vertex -351.512308090607 16.8518927963426 1.00000122329473
vertex -351.512307984367 16.8518934054761 1.2232949209795e-006
endloop
endfacet
facet normal -0.965925936025559 -0.258818635559886 -2.60275504548197e-007
outer loop
vertex -359.375560346176 18.9588490990085 1.67131660945008e-006
vertex -358.906028947258 17.8252978027805 1.00000103071597
vertex -359.375560452416 18.958848489875 1.0000016713164
endloop
endfacet
facet normal -0.866025615779151 -0.49999963281405 -3.96573466835336e-007
outer loop
vertex -358.906028947258 17.8252978027805 1.00000103071597
vertex -359.375560346176 18.9588490990085 1.67131660945008e-006
vertex -358.906028841018 17.8252984119139 1.03071617644224e-006
endloop
endfacet
facet normal -0.999999999999905 4.23989665287856e-007 -1.06240196747544e-007
outer loop
vertex -359.535708446855 20.1752986788913 2.39528256879007e-006
vertex -359.375560452416 18.958848489875 1.0000016713164
vertex -359.535708553096 20.1752980697579 1.00000239528236
endloop
endfacet
facet normal -0.965925936025559 -0.258818635559884 -2.60275504548196e-007
outer loop
vertex -359.375560452416 18.958848489875 1.0000016713164
vertex -359.535708446855 20.1752986788913 2.39528256879007e-006
vertex -359.375560346176 18.9588490990085 1.67131660945008e-006
endloop
endfacet
facet normal 0.999999999999905 -4.23989668816655e-007 1.06240196743145e-007
outer loop
vertex -350.135708553096 20.175294084255 1.00000339394031
vertex -350.295856547535 21.3917442732714 4.11790645123283e-006
vertex -350.295856653776 21.3917436641379 1.00000411790628
endloop
endfacet
facet normal 0.965925936025558 0.258818635559887 2.60275516225227e-007
outer loop
vertex -350.295856547535 21.3917442732714 4.11790645123283e-006
vertex -350.135708553096 20.175294084255 1.00000339394031
vertex -350.135708446856 20.1752946933885 3.39394049189284e-006
endloop
endfacet
facet normal 0.499999632814192 -0.86602561577903 -4.74405022374964e-007
outer loop
vertex -352.485710172629 16.1049762919785 6.64908000010123e-007
vertex -351.512308090607 16.8518927963426 1.00000122329473
vertex -352.485710278869 16.104975682845 1.0000006649078
endloop
endfacet
facet normal 0.707106481380562 -0.707107080992317 -3.55599283595299e-007
outer loop
vertex -351.512308090607 16.8518927963426 1.00000122329473
vertex -352.485710172629 16.1049762919785 6.64908000010123e-007
vertex -351.512307984367 16.8518934054761 1.2232949209795e-006
endloop
endfacet
facet normal -4.23989594536707e-007 -0.999999999999725 -6.09133537673563e-007
outer loop
vertex -354.835710439607 15.4752966861412 3.16839535483004e-008
vertex -353.619260965964 15.6354441776871 1.00000025847149
vertex -354.835710545847 15.4752960770077 1.00000003168375
endloop
endfacet
facet normal 0.258818635559995 -0.965925936025401 -5.60880834674991e-007
outer loop
vertex -353.619260965964 15.6354441776871 1.00000025847149
vertex -354.835710439607 15.4752966861412 3.16839535483004e-008
vertex -353.619260859724 15.6354447868206 2.58471689983109e-007
endloop
endfacet
facet normal -0.965925716552394 0.258819454645014 5.5035204888183e-008
outer loop
vertex -359.375559314652 21.3917481229715 3.15327697290729e-006
vertex -359.535708553096 20.1752980697579 1.00000239528236
vertex -359.375559420892 21.391747513838 1.00000315327677
endloop
endfacet
facet normal -0.999999999999905 4.23989667774055e-007 -1.06240196747542e-007
outer loop
vertex -359.535708553096 20.1752980697579 1.00000239528236
vertex -359.375559314652 21.3917481229715 3.15327697290729e-006
vertex -359.535708446855 20.1752986788913 2.39528256879007e-006
endloop
endfacet
facet normal -4.2398960066755e-007 -0.999999999999725 -6.09133537665778e-007
outer loop
vertex -354.835707302084 22.8752966861392 4.53927207817728e-006
vertex -354.136896025554 22.7832955116974 1.00000455747331
vertex -354.835707408324 22.8752960770057 1.00000453927189
endloop
endfacet
facet normal -0.258819454644994 -0.965925716552204 -6.15874801971311e-007
outer loop
vertex -354.136896025554 22.7832955116974 1.00000455747331
vertex -354.835707302084 22.8752966861392 4.53927207817728e-006
vertex -354.136895919314 22.7832961208309 4.55747349720204e-006
endloop
endfacet
facet normal 0.258818635559991 -0.965925936025403 -5.60880829415578e-007
outer loop
vertex -355.534518762868 22.7832967134085 4.40898975992698e-006
vertex -354.835707408324 22.8752960770057 1.00000453927189
vertex -355.534518869108 22.783296104275 1.00000440898957
endloop
endfacet
facet normal -4.23989601986395e-007 -0.999999999999725 -6.09133537665778e-007
outer loop
vertex -354.835707408324 22.8752960770057 1.00000453927189
vertex -355.534518762868 22.7832967134085 4.40898975992698e-006
vertex -354.835707302084 22.8752966861392 4.53927207817728e-006
endloop
endfacet
facet normal 0.499999632814201 -0.866025615779025 -4.74405019554416e-007
outer loop
vertex -356.185707455454 22.5135658487433 4.17550506874309e-006
vertex -355.534518869108 22.783296104275 1.00000440898957
vertex -356.185707561694 22.5135652396098 1.00000417550488
endloop
endfacet
facet normal 0.25881863555999 -0.965925936025403 -5.60880829415578e-007
outer loop
vertex -355.534518869108 22.783296104275 1.00000440898957
vertex -356.185707455454 22.5135658487433 4.17550506874309e-006
vertex -355.534518762868 22.7832967134085 4.40898975992698e-006
endloop
endfacet
facet normal -0.500000367185712 -0.866025191789371 -5.80645202016154e-007
outer loop
vertex -357.185710172628 16.1049782847299 1.65579039075603e-007
vertex -356.052159989927 15.6354452092111 0.999999999999793
vertex -357.185710278869 16.1049776755964 1.00000016557883
endloop
endfacet
facet normal -0.258819454644997 -0.965925716552203 -6.15874796726362e-007
outer loop
vertex -356.052159989927 15.6354452092111 0.999999999999793
vertex -357.185710172628 16.1049782847299 1.65579039075603e-007
vertex -356.052159883687 15.6354458183446 0.0
endloop
endfacet
facet normal 0.707106481380582 -0.707107080992296 -3.55599291597722e-007
outer loop
vertex -356.744895946583 22.0844858048192 3.85472959993915e-006
vertex -356.185707561694 22.5135652396098 1.00000417550488
vertex -356.744896052823 22.0844851956857 1.00000385472941
endloop
endfacet
facet normal 0.499999632814201 -0.866025615779025 -4.74405019554417e-007
outer loop
vertex -356.185707561694 22.5135652396098 1.00000417550488
vertex -356.744895946583 22.0844858048192 3.85472959993915e-006
vertex -356.185707455454 22.5135658487433 4.17550506874309e-006
endloop
endfacet
facet normal 0.866025191789567 -0.500000367185665 -2.12560059558598e-007
outer loop
vertex -357.173976570928 21.5252970684078 1.00000346852348
vertex -356.744895946583 22.0844858048192 3.85472959993915e-006
vertex -356.744896052823 22.0844851956857 1.00000385472941
endloop
endfacet
facet normal 0.707106481380582 -0.707107080992296 -3.55599291597722e-007
outer loop
vertex -356.744895946583 22.0844858048192 3.85472959993915e-006
vertex -357.173976570928 21.5252970684078 1.00000346852348
vertex -357.173976464687 21.5252976775413 3.46852367111988e-006
endloop
endfacet
facet normal 0.965925716552388 -0.258819454645036 -5.50352107341333e-008
outer loop
vertex -357.443707987787 20.874108604548 1.00000304320639
vertex -357.173976464687 21.5252976775413 3.46852367111988e-006
vertex -357.173976570928 21.5252970684078 1.00000346852348
endloop
endfacet
facet normal 0.866025191789567 -0.500000367185664 -2.12560059558597e-007
outer loop
vertex -357.173976464687 21.5252976775413 3.46852367111988e-006
vertex -357.443707987787 20.874108604548 1.00000304320639
vertex -357.443707881547 20.8741092136815 3.04320657777413e-006
endloop
endfacet
facet normal -1.06240465472529e-007 -6.09133484671236e-007 0.999999999999809
outer loop
vertex -353.619260965964 15.6354441776871 1.00000025847149
vertex -356.052159989927 15.6354452092111 0.999999999999793
vertex -354.835710545847 15.4752960770077 1.00000003168375
endloop
endfacet
facet normal -1.06240465472529e-007 -6.09133484671236e-007 0.999999999999809
outer loop
vertex -356.052159989927 15.6354452092111 0.999999999999793
vertex -353.619260965964 15.6354441776871 1.00000025847149
vertex -352.485710278869 16.104975682845 1.0000006649078
endloop
endfacet
facet normal -1.06240465472529e-007 -6.09133484671236e-007 0.999999999999809
outer loop
vertex -356.052159989927 15.6354452092111 0.999999999999793
vertex -352.485710278869 16.104975682845 1.0000006649078
vertex -357.185710278869 16.1049776755964 1.00000016557883
endloop
endfacet
facet normal -1.06240465472529e-007 -6.09133484671236e-007 0.999999999999809
outer loop
vertex -357.185710278869 16.1049776755964 1.00000016557883
vertex -352.485710278869 16.104975682845 1.0000006649078
vertex -351.512308090607 16.8518927963426 1.00000122329473
endloop
endfacet
facet normal -1.06240465472529e-007 -6.09133484671236e-007 0.999999999999809
outer loop
vertex -357.185710278869 16.1049776755964 1.00000016557883
vertex -351.512308090607 16.8518927963426 1.00000122329473
vertex -358.15911183376 16.8518956145186 1.00000051713692
endloop
endfacet
facet normal -1.06240465472529e-007 -6.09133484671236e-007 0.999999999999809
outer loop
vertex -358.15911183376 16.8518956145186 1.00000051713692
vertex -351.512308090607 16.8518927963426 1.00000122329473
vertex -350.765390151685 17.8252943512337 1.00000189557912
endloop
endfacet
facet normal -1.06240465472529e-007 -6.09133484671236e-007 0.999999999999809
outer loop
vertex -358.15911183376 16.8518956145186 1.00000051713692
vertex -350.765390151685 17.8252943512337 1.00000189557912
vertex -354.835709697868 17.4752960770072 1.00000124995079
endloop
endfacet
facet normal -1.06240465472529e-007 -6.09133484671236e-007 0.999999999999809
outer loop
vertex -354.835709697868 17.4752960770072 1.00000124995079
vertex -350.765390151685 17.8252943512337 1.00000189557912
vertex -354.136898237084 17.5672960497379 1.00000138023311
endloop
endfacet
facet normal -1.06240465472529e-007 -6.09133484671236e-007 0.999999999999809
outer loop
vertex -354.136898237084 17.5672960497379 1.00000138023311
vertex -350.765390151685 17.8252943512337 1.00000189557912
vertex -353.485709544498 17.8370269144031 1.0000016137178
endloop
endfacet
facet normal -1.06240465472529e-007 -6.09133484671236e-007 0.999999999999809
outer loop
vertex -353.485709544498 17.8370269144031 1.0000016137178
vertex -350.765390151685 17.8252943512337 1.00000189557912
vertex -350.2958576853 18.9588446401749 1.00000263594591
endloop
endfacet
facet normal -1.06240465472529e-007 -6.09133484671236e-007 0.999999999999809
outer loop
vertex -353.485709544498 17.8370269144031 1.0000016137178
vertex -350.2958576853 18.9588446401749 1.00000263594591
vertex -352.926521053368 18.2661069583272 1.00000193449327
endloop
endfacet
facet normal -1.06240465472529e-007 -6.09133484671236e-007 0.999999999999809
outer loop
vertex -352.926521053368 18.2661069583272 1.00000193449327
vertex -350.2958576853 18.9588446401749 1.00000263594591
vertex -352.497440535264 18.8252950856051 1.0000023206992
endloop
endfacet
facet normal -1.06240465472529e-007 -6.09133484671236e-007 0.999999999999809
outer loop
vertex -352.497440535264 18.8252950856051 1.0000023206992
vertex -350.2958576853 18.9588446401749 1.00000263594591
vertex -352.227709118405 19.4764835494649 1.00000274601629
endloop
endfacet
facet normal -1.06240465472529e-007 -6.09133484671236e-007 0.999999999999809
outer loop
vertex -352.227709118405 19.4764835494649 1.00000274601629
vertex -350.2958576853 18.9588446401749 1.00000263594591
vertex -350.135708553096 20.175294084255 1.00000339394031
endloop
endfacet
facet normal -1.06240465472529e-007 -6.09133484671236e-007 0.999999999999809
outer loop
vertex -352.227709118405 19.4764835494649 1.00000274601629
vertex -350.135708553096 20.175294084255 1.00000339394031
vertex -352.135708553096 20.1752949322344 1.00000318145989
endloop
endfacet
facet normal -1.06240465472529e-007 -6.09133484671236e-007 0.999999999999809
outer loop
vertex -352.135708553096 20.1752949322344 1.00000318145989
vertex -350.135708553096 20.175294084255 1.00000339394031
vertex -350.295856653776 21.3917436641379 1.00000411790628
endloop
endfacet
facet normal -1.06240465472529e-007 -6.09133484671236e-007 0.999999999999809
outer loop
vertex -352.135708553096 20.1752949322344 1.00000318145989
vertex -350.295856653776 21.3917436641379 1.00000411790628
vertex -352.227708525827 20.8741063930181 1.00000359735524
endloop
endfacet
facet normal -1.06240465472529e-007 -6.09133484671236e-007 0.999999999999809
outer loop
vertex -352.227708525827 20.8741063930181 1.00000359735524
vertex -350.295856653776 21.3917436641379 1.00000411790628
vertex -352.497439390492 21.5252950856044 1.00000396535975
endloop
endfacet
facet normal -1.06240465472529e-007 -6.09133484671236e-007 0.999999999999809
outer loop
vertex -352.497439390492 21.5252950856044 1.00000396535975
vertex -350.295856653776 21.3917436641379 1.00000411790628
vertex -350.765388158934 22.5252943512324 1.00000475850671
endloop
endfacet
facet normal -1.06240465472529e-007 -6.09133484671236e-007 0.999999999999809
outer loop
vertex -352.497439390492 21.5252950856044 1.00000396535975
vertex -350.765388158934 22.5252943512324 1.00000475850671
vertex -352.926519434416 22.0844835767335 1.00000426039452
endloop
endfacet
facet normal -1.06240465472529e-007 -6.09133484671236e-007 0.999999999999809
outer loop
vertex -352.926519434416 22.0844835767335 1.00000426039452
vertex -350.765388158934 22.5252943512324 1.00000475850671
vertex -353.485707561695 22.5135640948378 1.00000446235343
endloop
endfacet
facet normal -1.06240465472529e-007 -6.09133484671236e-007 0.999999999999809
outer loop
vertex -353.485707561695 22.5135640948378 1.00000446235343
vertex -350.765388158934 22.5252943512324 1.00000475850671
vertex -354.136896025554 22.7832955116974 1.00000455747331
endloop
endfacet
facet normal -1.06240465472529e-007 -6.09133484671236e-007 0.999999999999809
outer loop
vertex -354.136896025554 22.7832955116974 1.00000455747331
vertex -350.765388158934 22.5252943512324 1.00000475850671
vertex -351.512305272432 23.4986965394943 1.00000527208576
endloop
endfacet
facet normal -1.06240465472529e-007 -6.09133484671236e-007 0.999999999999809
outer loop
vertex -354.136896025554 22.7832955116974 1.00000455747331
vertex -351.512305272432 23.4986965394943 1.00000527208576
vertex -354.835707408324 22.8752960770057 1.00000453927189
endloop
endfacet
facet normal -1.06240465472529e-007 -6.09133484671236e-007 0.999999999999809
outer loop
vertex -354.835709697868 17.4752960770072 1.00000124995079
vertex -358.906028947258 17.8252978027805 1.00000103071597
vertex -358.15911183376 16.8518956145186 1.00000051713692
endloop
endfacet
facet normal -1.06240465472529e-007 -6.09133484671236e-007 0.999999999999809
outer loop
vertex -358.906028947258 17.8252978027805 1.00000103071597
vertex -354.835709697868 17.4752960770072 1.00000124995079
vertex -355.534521080637 17.5672966423155 1.00000123174937
endloop
endfacet
facet normal -1.06240465472529e-007 -6.09133484671236e-007 0.999999999999809
outer loop
vertex -358.906028947258 17.8252978027805 1.00000103071597
vertex -355.534521080637 17.5672966423155 1.00000123174937
vertex -356.185709544497 17.8370280591751 1.00000132686925
endloop
endfacet
facet normal -1.06240465472529e-007 -6.09133484671236e-007 0.999999999999809
outer loop
vertex -358.906028947258 17.8252978027805 1.00000103071597
vertex -356.185709544497 17.8370280591751 1.00000132686925
vertex -359.375560452416 18.958848489875 1.0000016713164
endloop
endfacet
facet normal -1.06240465472529e-007 -6.09133484671236e-007 0.999999999999809
outer loop
vertex -359.375560452416 18.958848489875 1.0000016713164
vertex -356.185709544497 17.8370280591751 1.00000132686925
vertex -356.744897671776 18.2661085772794 1.00000152882816
endloop
endfacet
facet normal -1.06240465472529e-007 -6.09133484671236e-007 0.999999999999809
outer loop
vertex -359.375560452416 18.958848489875 1.0000016713164
vertex -356.744897671776 18.2661085772794 1.00000152882816
vertex -357.1739777157 18.8252970684085 1.00000182386293
endloop
endfacet
facet normal -1.06240465472529e-007 -6.09133484671236e-007 0.999999999999809
outer loop
vertex -359.375560452416 18.958848489875 1.0000016713164
vertex -357.1739777157 18.8252970684085 1.00000182386293
vertex -357.443708580365 19.4764857609947 1.00000219186744
endloop
endfacet
facet normal -1.06240465472529e-007 -6.09133484671236e-007 0.999999999999809
outer loop
vertex -359.375560452416 18.958848489875 1.0000016713164
vertex -357.443708580365 19.4764857609947 1.00000219186744
vertex -359.535708553096 20.1752980697579 1.00000239528236
endloop
endfacet
facet normal -1.06240465472529e-007 -6.09133484671236e-007 0.999999999999809
outer loop
vertex -359.535708553096 20.1752980697579 1.00000239528236
vertex -357.443708580365 19.4764857609947 1.00000219186744
vertex -357.535708553096 20.1752972217785 1.00000260776279
endloop
endfacet
facet normal -1.06240465472529e-007 -6.09133484671236e-007 0.999999999999809
outer loop
vertex -359.535708553096 20.1752980697579 1.00000239528236
vertex -357.535708553096 20.1752972217785 1.00000260776279
vertex -357.443707987787 20.874108604548 1.00000304320639
endloop
endfacet
facet normal -1.06240465472529e-007 -6.09133484671236e-007 0.999999999999809
outer loop
vertex -359.535708553096 20.1752980697579 1.00000239528236
vertex -357.443707987787 20.874108604548 1.00000304320639
vertex -359.375559420892 21.391747513838 1.00000315327677
endloop
endfacet
facet normal -1.06240465472529e-007 -6.09133484671236e-007 0.999999999999809
outer loop
vertex -359.375559420892 21.391747513838 1.00000315327677
vertex -357.443707987787 20.874108604548 1.00000304320639
vertex -357.173976570928 21.5252970684078 1.00000346852348
endloop
endfacet
facet normal -1.06240465472529e-007 -6.09133484671236e-007 0.999999999999809
outer loop
vertex -359.375559420892 21.391747513838 1.00000315327677
vertex -357.173976570928 21.5252970684078 1.00000346852348
vertex -358.906026954507 22.5252978027792 1.00000389364356
endloop
endfacet
facet normal -1.06240465472529e-007 -6.09133484671236e-007 0.999999999999809
outer loop
vertex -358.906026954507 22.5252978027792 1.00000389364356
vertex -357.173976570928 21.5252970684078 1.00000346852348
vertex -356.744896052823 22.0844851956857 1.00000385472941
endloop
endfacet
facet normal -1.06240465472529e-007 -6.09133484671236e-007 0.999999999999809
outer loop
vertex -358.906026954507 22.5252978027792 1.00000389364356
vertex -356.744896052823 22.0844851956857 1.00000385472941
vertex -356.185707561694 22.5135652396098 1.00000417550488
endloop
endfacet
facet normal -1.06240465472529e-007 -6.09133484671236e-007 0.999999999999809
outer loop
vertex -358.906026954507 22.5252978027792 1.00000389364356
vertex -356.185707561694 22.5135652396098 1.00000417550488
vertex -355.534518869108 22.783296104275 1.00000440898957
endloop
endfacet
facet normal -1.06240465472529e-007 -6.09133484671236e-007 0.999999999999809
outer loop
vertex -358.906026954507 22.5252978027792 1.00000389364356
vertex -355.534518869108 22.783296104275 1.00000440898957
vertex -358.159109015585 23.4986993576703 1.00000456592795
endloop
endfacet
facet normal -1.06240465472529e-007 -6.09133484671236e-007 0.999999999999809
outer loop
vertex -358.159109015585 23.4986993576703 1.00000456592795
vertex -355.534518869108 22.783296104275 1.00000440898957
vertex -354.835707408324 22.8752960770057 1.00000453927189
endloop
endfacet
facet normal -1.06240465472529e-007 -6.09133484671236e-007 0.999999999999809
outer loop
vertex -358.159109015585 23.4986993576703 1.00000456592795
vertex -354.835707408324 22.8752960770057 1.00000453927189
vertex -351.512305272432 23.4986965394943 1.00000527208576
endloop
endfacet
facet normal -1.06240465472529e-007 -6.09133484671236e-007 0.999999999999809
outer loop
vertex -358.159109015585 23.4986993576703 1.00000456592795
vertex -351.512305272432 23.4986965394943 1.00000527208576
vertex -352.485706827323 24.2456144784165 1.00000562364385
endloop
endfacet
facet normal -1.06240465472529e-007 -6.09133484671236e-007 0.999999999999809
outer loop
vertex -358.159109015585 23.4986993576703 1.00000456592795
vertex -352.485706827323 24.2456144784165 1.00000562364385
vertex -357.185706827323 24.2456164711679 1.00000512431487
endloop
endfacet
facet normal -1.06240465472529e-007 -6.09133484671236e-007 0.999999999999809
outer loop
vertex -357.185706827323 24.2456164711679 1.00000512431487
vertex -352.485706827323 24.2456144784165 1.00000562364385
vertex -353.619257116265 24.7151469448018 1.00000578922288
endloop
endfacet
facet normal -1.06240465472529e-007 -6.09133484671236e-007 0.999999999999809
outer loop
vertex -357.185706827323 24.2456164711679 1.00000512431487
vertex -353.619257116265 24.7151469448018 1.00000578922288
vertex -356.052156140228 24.7151479763258 1.00000553075119
endloop
endfacet
facet normal -1.06240465472529e-007 -6.09133484671236e-007 0.999999999999809
outer loop
vertex -356.052156140228 24.7151479763258 1.00000553075119
vertex -353.619257116265 24.7151469448018 1.00000578922288
vertex -354.835706560345 24.8752960770052 1.00000575753893
endloop
endfacet
facet normal -0.866025191789559 0.500000367185677 2.12560060749366e-007
outer loop
vertex -358.906026848266 22.5252984119126 3.89364375332352e-006
vertex -359.375559420892 21.391747513838 1.00000315327677
vertex -358.906026954507 22.5252978027792 1.00000389364356
endloop
endfacet
facet normal -0.965925716552393 0.258819454645016 5.50352048881847e-008
outer loop
vertex -359.375559420892 21.391747513838 1.00000315327677
vertex -358.906026848266 22.5252984119126 3.89364375332352e-006
vertex -359.375559314652 21.3917481229715 3.15327697290729e-006
endloop
endfacet
facet normal 0.999999999999905 -4.23989669217657e-007 1.06240196743858e-007
outer loop
vertex -357.535708553096 20.1752972217785 1.00000260776279
vertex -357.443707881547 20.8741092136815 3.04320657777413e-006
vertex -357.443707987787 20.874108604548 1.00000304320639
endloop
endfacet
facet normal 0.965925716552388 -0.258819454645035 -5.5035210734133e-008
outer loop
vertex -357.443707881547 20.8741092136815 3.04320657777413e-006
vertex -357.535708553096 20.1752972217785 1.00000260776279
vertex -357.535708446855 20.175297830912 2.60776297844462e-006
endloop
endfacet
facet normal -0.49999963281419 0.866025615779031 4.74405016708875e-007
outer loop
vertex -357.185706827323 24.2456164711679 1.00000512431487
vertex -358.159108909344 23.4986999668038 4.56592813970341e-006
vertex -358.159109015585 23.4986993576703 1.00000456592795
endloop
endfacet
facet normal -0.707106481380565 0.707107080992313 3.55599299546442e-007
outer loop
vertex -358.159108909344 23.4986999668038 4.56592813970341e-006
vertex -357.185706827323 24.2456164711679 1.00000512431487
vertex -357.185706721082 24.2456170803014 5.12431506084904e-006
endloop
endfacet
facet normal 4.23989594759485e-007 0.999999999999725 6.09133537673299e-007
outer loop
vertex -354.835706560345 24.8752960770052 1.00000575753893
vertex -356.052156033988 24.7151485854593 5.5307513706998e-006
vertex -356.052156140228 24.7151479763258 1.00000553075119
endloop
endfacet
facet normal -0.258818635559995 0.965925936025402 5.60880824174667e-007
outer loop
vertex -356.052156033988 24.7151485854593 5.5307513706998e-006
vertex -354.835706560345 24.8752960770052 1.00000575753893
vertex -354.835706454104 24.8752966861386 5.75753910713461e-006
endloop
endfacet
facet normal -0.707106481380565 0.707107080992313 3.55599299546442e-007
outer loop
vertex -358.159108909344 23.4986999668038 4.56592813970341e-006
vertex -358.906026954507 22.5252978027792 1.00000389364356
vertex -358.159109015585 23.4986993576703 1.00000456592795
endloop
endfacet
facet normal -0.866025191789558 0.50000036718568 2.12560060749368e-007
outer loop
vertex -358.906026954507 22.5252978027792 1.00000389364356
vertex -358.159108909344 23.4986999668038 4.56592813970341e-006
vertex -358.906026848266 22.5252984119126 3.89364375332352e-006
endloop
endfacet
facet normal 0.707107080992395 0.707106481380392 5.05845634640717e-007
outer loop
vertex -351.512305272432 23.4986965394943 1.00000527208576
vertex -352.485706721083 24.24561508755 5.62364402160731e-006
vertex -352.485706827323 24.2456144784165 1.00000562364385
endloop
endfacet
facet normal 0.50000036718571 0.866025191789372 5.80645230581792e-007
outer loop
vertex -352.485706721083 24.24561508755 5.62364402160731e-006
vertex -351.512305272432 23.4986965394943 1.00000527208576
vertex -351.512305166191 23.4986971486278 5.27208592892708e-006
endloop
endfacet
facet normal -0.707107080992396 -0.707106481380391 -5.05845618690223e-007
outer loop
vertex -352.926519328176 22.084484185867 4.26039471275869e-006
vertex -352.497439390492 21.5252950856044 1.00000396535975
vertex -352.926519434416 22.0844835767335 1.00000426039452
endloop
endfacet
facet normal -0.866025615779162 -0.499999632814032 -3.96573478119433e-007
outer loop
vertex -352.497439390492 21.5252950856044 1.00000396535975
vertex -352.926519328176 22.084484185867 4.26039471275869e-006
vertex -352.497439284252 21.5252956947379 3.96535993748698e-006
endloop
endfacet
facet normal 0.258819454644992 0.965925716552204 6.15874801971311e-007
outer loop
vertex -355.534521080637 17.5672966423155 1.00000123174937
vertex -356.185709438257 17.8370286683086 1.32686944013111e-006
vertex -356.185709544497 17.8370280591751 1.00000132686925
endloop
endfacet
facet normal 0.500000367185704 0.866025191789376 5.80645216301163e-007
outer loop
vertex -356.185709438257 17.8370286683086 1.32686944013111e-006
vertex -355.534521080637 17.5672966423155 1.00000123174937
vertex -355.534520974397 17.567297251449 1.23174956348088e-006
endloop
endfacet
facet normal 0.500000367185703 0.866025191789376 5.80645216301163e-007
outer loop
vertex -356.185709544497 17.8370280591751 1.00000132686925
vertex -356.744897565535 18.2661091864129 1.52882834810047e-006
vertex -356.744897671776 18.2661085772794 1.00000152882816
endloop
endfacet
facet normal 0.707107080992397 0.707106481380391 5.05845618690223e-007
outer loop
vertex -356.744897565535 18.2661091864129 1.52882834810047e-006
vertex -356.185709544497 17.8370280591751 1.00000132686925
vertex -356.185709438257 17.8370286683086 1.32686944013111e-006
endloop
endfacet
facet normal -0.499999632814202 0.866025615779025 4.74405019559785e-007
outer loop
vertex -353.485709544498 17.8370269144031 1.0000016137178
vertex -354.136898130844 17.5672966588713 1.38023330075593e-006
vertex -354.136898237084 17.5672960497379 1.00000138023311
endloop
endfacet
facet normal -0.25881863555999 0.965925936025403 5.60880829415578e-007
outer loop
vertex -354.136898130844 17.5672966588713 1.38023330075593e-006
vertex -353.485709544498 17.8370269144031 1.0000016137178
vertex -353.485709438257 17.8370275235366 1.61371799211607e-006
endloop
endfacet
facet normal -0.707106481380582 0.707107080992296 3.55599291597722e-007
outer loop
vertex -352.926521053368 18.2661069583272 1.00000193449327
vertex -353.485709438257 17.8370275235366 1.61371799211607e-006
vertex -353.485709544498 17.8370269144031 1.0000016137178
endloop
endfacet
facet normal -0.499999632814201 0.866025615779025 4.74405019559785e-007
outer loop
vertex -353.485709438257 17.8370275235366 1.61371799211607e-006
vertex -352.926521053368 18.2661069583272 1.00000193449327
vertex -352.926520947128 18.2661075674607 1.93449346092001e-006
endloop
endfacet
facet normal 4.2398960066755e-007 0.999999999999725 6.09133537665778e-007
outer loop
vertex -354.835709697868 17.4752960770072 1.00000124995079
vertex -355.534520974397 17.567297251449 1.23174956348088e-006
vertex -355.534521080637 17.5672966423155 1.00000123174937
endloop
endfacet
facet normal 0.258819454644994 0.965925716552204 6.15874801971311e-007
outer loop
vertex -355.534520974397 17.567297251449 1.23174956348088e-006
vertex -354.835709697868 17.4752960770072 1.00000124995079
vertex -354.835709591627 17.4752966861407 1.24995098338687e-006
endloop
endfacet
facet normal -0.866025615779162 -0.499999632814032 -3.96573478119434e-007
outer loop
vertex -352.497439284252 21.5252956947379 3.96535993748698e-006
vertex -352.227708525827 20.8741063930181 1.00000359735524
vertex -352.497439390492 21.5252950856044 1.00000396535975
endloop
endfacet
facet normal -0.965925936025558 -0.258818635559889 -2.60275510384442e-007
outer loop
vertex -352.227708525827 20.8741063930181 1.00000359735524
vertex -352.497439284252 21.5252956947379 3.96535993748698e-006
vertex -352.227708419587 20.8741070021516 3.59735542786871e-006
endloop
endfacet
facet normal -0.965925716552388 0.258819454645036 5.50352107346639e-008
outer loop
vertex -352.227709012164 19.4764841585984 2.74601648308503e-006
vertex -352.497440535264 18.8252950856051 1.0000023206992
vertex -352.227709118405 19.4764835494649 1.00000274601629
endloop
endfacet
facet normal -0.866025191789567 0.500000367185664 2.12560059549155e-007
outer loop
vertex -352.497440535264 18.8252950856051 1.0000023206992
vertex -352.227709012164 19.4764841585984 2.74601648308503e-006
vertex -352.497440429024 18.8252956947386 2.32069938973928e-006
endloop
endfacet
facet normal -0.258819454644992 -0.965925716552204 -6.15874801971311e-007
outer loop
vertex -354.136895919314 22.7832961208309 4.55747349720204e-006
vertex -353.485707561695 22.5135640948378 1.00000446235343
vertex -354.136896025554 22.7832955116974 1.00000455747331
endloop
endfacet
facet normal -0.500000367185704 -0.866025191789376 -5.80645216301163e-007
outer loop
vertex -353.485707561695 22.5135640948378 1.00000446235343
vertex -354.136895919314 22.7832961208309 4.55747349720204e-006
vertex -353.485707455454 22.5135647039712 4.46235362072805e-006
endloop
endfacet
facet normal -0.999999999999905 4.23989669235479e-007 -1.06240196739254e-007
outer loop
vertex -352.135708446856 20.1752955413679 3.18146008241454e-006
vertex -352.227709118405 19.4764835494649 1.00000274601629
vertex -352.135708553096 20.1752949322344 1.00000318145989
endloop
endfacet
facet normal -0.965925716552388 0.258819454645035 5.50352107346637e-008
outer loop
vertex -352.227709118405 19.4764835494649 1.00000274601629
vertex -352.135708446856 20.1752955413679 3.18146008241454e-006
vertex -352.227709012164 19.4764841585984 2.74601648308503e-006
endloop
endfacet
facet normal -0.258818635559991 0.965925936025402 5.60880829415578e-007
outer loop
vertex -354.136898237084 17.5672960497379 1.00000138023311
vertex -354.835709591627 17.4752966861407 1.24995098338687e-006
vertex -354.835709697868 17.4752960770072 1.00000124995079
endloop
endfacet
facet normal 4.23989601977483e-007 0.999999999999725 6.09133537665778e-007
outer loop
vertex -354.835709591627 17.4752966861407 1.24995098338687e-006
vertex -354.136898237084 17.5672960497379 1.00000138023311
vertex -354.136898130844 17.5672966588713 1.38023330075593e-006
endloop
endfacet
facet normal -0.965925936025558 -0.258818635559889 -2.60275510384442e-007
outer loop
vertex -352.227708419587 20.8741070021516 3.59735542786871e-006
vertex -352.135708553096 20.1752949322344 1.00000318145989
vertex -352.227708525827 20.8741063930181 1.00000359735524
endloop
endfacet
facet normal -0.999999999999905 4.23989669235479e-007 -1.06240196739254e-007
outer loop
vertex -352.135708553096 20.1752949322344 1.00000318145989
vertex -352.227708419587 20.8741070021516 3.59735542786871e-006
vertex -352.135708446856 20.1752955413679 3.18146008241454e-006
endloop
endfacet
facet normal -0.500000367185703 -0.866025191789376 -5.80645216301163e-007
outer loop
vertex -353.485707455454 22.5135647039712 4.46235362072805e-006
vertex -352.926519434416 22.0844835767335 1.00000426039452
vertex -353.485707561695 22.5135640948378 1.00000446235343
endloop
endfacet
facet normal -0.707107080992397 -0.707106481380391 -5.05845618690223e-007
outer loop
vertex -352.926519434416 22.0844835767335 1.00000426039452
vertex -353.485707455454 22.5135647039712 4.46235362072805e-006
vertex -352.926519328176 22.084484185867 4.26039471275869e-006
endloop
endfacet
facet normal 0.707107080992396 0.707106481380391 5.05845618690223e-007
outer loop
vertex -356.744897671776 18.2661085772794 1.00000152882816
vertex -357.173977609459 18.825297677542 1.82386312337218e-006
vertex -357.1739777157 18.8252970684085 1.00000182386293
endloop
endfacet
facet normal 0.866025615779162 0.499999632814032 3.96573478112683e-007
outer loop
vertex -357.173977609459 18.825297677542 1.82386312337218e-006
vertex -356.744897671776 18.2661085772794 1.00000152882816
vertex -356.744897565535 18.2661091864129 1.52882834810047e-006
endloop
endfacet
facet normal -0.866025191789567 0.500000367185665 2.12560059549155e-007
outer loop
vertex -352.497440429024 18.8252956947386 2.32069938973928e-006
vertex -352.926521053368 18.2661069583272 1.00000193449327
vertex -352.497440535264 18.8252950856051 1.0000023206992
endloop
endfacet
facet normal -0.707106481380582 0.707107080992296 3.55599291597722e-007
outer loop
vertex -352.926521053368 18.2661069583272 1.00000193449327
vertex -352.497440429024 18.8252956947386 2.32069938973928e-006
vertex -352.926520947128 18.2661075674607 1.93449346092001e-006
endloop
endfacet
facet normal 0.965925936025557 0.258818635559891 2.60275510377693e-007
outer loop
vertex -357.443708580365 19.4764857609947 1.00000219186744
vertex -357.535708446855 20.175297830912 2.60776297844462e-006
vertex -357.535708553096 20.1752972217785 1.00000260776279
endloop
endfacet
facet normal 0.999999999999905 -4.23989669262213e-007 1.06240196743858e-007
outer loop
vertex -357.535708446855 20.175297830912 2.60776297844462e-006
vertex -357.443708580365 19.4764857609947 1.00000219186744
vertex -357.443708474125 19.4764863701282 2.19186763369544e-006
endloop
endfacet
facet normal 0.866025615779162 0.499999632814032 3.96573478112684e-007
outer loop
vertex -357.1739777157 18.8252970684085 1.00000182386293
vertex -357.443708474125 19.4764863701282 2.19186763369544e-006
vertex -357.443708580365 19.4764857609947 1.00000219186744
endloop
endfacet
facet normal 0.965925936025558 0.258818635559887 2.60275510377691e-007
outer loop
vertex -357.443708474125 19.4764863701282 2.19186763369544e-006
vertex -357.1739777157 18.8252970684085 1.00000182386293
vertex -357.173977609459 18.825297677542 1.82386312337218e-006
endloop
endfacet
endsolid FoldaRapX
