<?xml version="1.0" encoding="UTF-8" standalone="no"?>
<!-- Created with Inkscape (http://www.inkscape.org/) -->

<svg
   xmlns:dc="http://purl.org/dc/elements/1.1/"
   xmlns:cc="http://creativecommons.org/ns#"
   xmlns:rdf="http://www.w3.org/1999/02/22-rdf-syntax-ns#"
   xmlns:svg="http://www.w3.org/2000/svg"
   xmlns="http://www.w3.org/2000/svg"
   xmlns:sodipodi="http://sodipodi.sourceforge.net/DTD/sodipodi-0.dtd"
   xmlns:inkscape="http://www.inkscape.org/namespaces/inkscape"
   width="210mm"
   height="297mm"
   viewBox="0 0 210 297"
   version="1.1"
   id="svg8"
   inkscape:version="0.92.2 (5c3e80d, 2017-08-06)"
   sodipodi:docname="ciseau_604zz.svg">
  <defs
     id="defs2" />
  <sodipodi:namedview
     id="base"
     pagecolor="#ffffff"
     bordercolor="#666666"
     borderopacity="1.0"
     inkscape:pageopacity="0.0"
     inkscape:pageshadow="2"
     inkscape:zoom="0.7"
     inkscape:cx="249.64419"
     inkscape:cy="569.86922"
     inkscape:document-units="mm"
     inkscape:current-layer="layer1"
     showgrid="false"
     inkscape:window-width="1920"
     inkscape:window-height="1001"
     inkscape:window-x="-9"
     inkscape:window-y="-9"
     inkscape:window-maximized="1" />
  <metadata
     id="metadata5">
    <rdf:RDF>
      <cc:Work
         rdf:about="">
        <dc:format>image/svg+xml</dc:format>
        <dc:type
           rdf:resource="http://purl.org/dc/dcmitype/StillImage" />
        <dc:title></dc:title>
      </cc:Work>
    </rdf:RDF>
  </metadata>
  <g
     inkscape:label="Calque 1"
     inkscape:groupmode="layer"
     id="layer1">
    <path
       style="opacity:1;fill:none;fill-opacity:1;stroke:#000000;stroke-width:0.09999999;stroke-linejoin:miter;stroke-miterlimit:4;stroke-dasharray:none;stroke-dashoffset:0;stroke-opacity:1"
       d="M 20.925,282 A 5.9250002,5.9250002 0 0 1 15.000001,287.925 5.9250002,5.9250002 0 0 1 9.075,282 5.9250002,5.9250002 0 0 1 15.000001,276.075 5.9250002,5.9250002 0 0 1 20.925,282 Z"
       id="path817"
       inkscape:connector-curvature="0" />
    <path
       inkscape:connector-curvature="0"
       style="opacity:1;vector-effect:none;fill:none;fill-opacity:1;fill-rule:evenodd;stroke:#000000;stroke-width:0.1;stroke-linecap:butt;stroke-linejoin:miter;stroke-miterlimit:4;stroke-dasharray:none;stroke-dashoffset:0;stroke-opacity:1"
       d="M 15,292 C 9.46,292 5,287.54 5,282 V 52 c 0,-5.54 4.46,-10 10,-10 5.54,0 10,4.46 10,10 v 230 c 0,5.54 -4.46,10 -10,10 z"
       id="rect815" />
    <path
       inkscape:connector-curvature="0"
       id="path832"
       d="M 9.075,52 A 5.9250002,5.9250002 0 0 1 14.999999,46.075 5.9250002,5.9250002 0 0 1 20.925,52 5.9250002,5.9250002 0 0 1 14.999999,57.925 5.9250002,5.9250002 0 0 1 9.075,52 Z"
       style="opacity:1;fill:none;fill-opacity:1;stroke:#000000;stroke-width:0.09999999;stroke-linejoin:miter;stroke-miterlimit:4;stroke-dasharray:none;stroke-dashoffset:0;stroke-opacity:1" />
    <path
       inkscape:connector-curvature="0"
       id="path849"
       d="M 20.925,167 A 5.9250002,5.9250002 0 0 1 15.000001,172.925 5.9250002,5.9250002 0 0 1 9.075,167 5.9250002,5.9250002 0 0 1 15.000001,161.075 5.9250002,5.9250002 0 0 1 20.925,167 Z"
       style="opacity:1;fill:none;fill-opacity:1;stroke:#000000;stroke-width:0.09999999;stroke-linejoin:miter;stroke-miterlimit:4;stroke-dasharray:none;stroke-dashoffset:0;stroke-opacity:1" />
    <path
       inkscape:connector-curvature="0"
       id="path831"
       d="M 45.925,282 A 5.9250002,5.9250002 0 0 1 40.000001,287.925 5.9250002,5.9250002 0 0 1 34.075,282 5.9250002,5.9250002 0 0 1 40.000001,276.075 5.9250002,5.9250002 0 0 1 45.925,282 Z"
       style="opacity:1;fill:none;fill-opacity:1;stroke:#000000;stroke-width:0.09999999;stroke-linejoin:miter;stroke-miterlimit:4;stroke-dasharray:none;stroke-dashoffset:0;stroke-opacity:1" />
    <path
       id="path833"
       d="m 40,292 c -5.54,0 -10,-4.46 -10,-10 V 52 c 0,-5.54 4.46,-10 10,-10 5.54,0 10,4.46 10,10 v 230 c 0,5.54 -4.46,10 -10,10 z"
       style="opacity:1;vector-effect:none;fill:none;fill-opacity:1;fill-rule:evenodd;stroke:#000000;stroke-width:0.1;stroke-linecap:butt;stroke-linejoin:miter;stroke-miterlimit:4;stroke-dasharray:none;stroke-dashoffset:0;stroke-opacity:1"
       inkscape:connector-curvature="0" />
    <path
       style="opacity:1;fill:none;fill-opacity:1;stroke:#000000;stroke-width:0.09999999;stroke-linejoin:miter;stroke-miterlimit:4;stroke-dasharray:none;stroke-dashoffset:0;stroke-opacity:1"
       d="M 34.075,52 A 5.9250002,5.9250002 0 0 1 39.999999,46.075 5.9250002,5.9250002 0 0 1 45.925,52 5.9250002,5.9250002 0 0 1 39.999999,57.925 5.9250002,5.9250002 0 0 1 34.075,52 Z"
       id="path835"
       inkscape:connector-curvature="0" />
    <path
       style="opacity:1;fill:none;fill-opacity:1;stroke:#000000;stroke-width:0.09999999;stroke-linejoin:miter;stroke-miterlimit:4;stroke-dasharray:none;stroke-dashoffset:0;stroke-opacity:1"
       d="M 45.925,167 A 5.9250002,5.9250002 0 0 1 40.000001,172.925 5.9250002,5.9250002 0 0 1 34.075,167 5.9250002,5.9250002 0 0 1 40.000001,161.075 5.9250002,5.9250002 0 0 1 45.925,167 Z"
       id="path837"
       inkscape:connector-curvature="0" />
    <path
       inkscape:connector-curvature="0"
       id="path855"
       d="M 70.925,282 A 5.9250002,5.9250002 0 0 1 65.000001,287.925 5.9250002,5.9250002 0 0 1 59.075,282 5.9250002,5.9250002 0 0 1 65.000001,276.075 5.9250002,5.9250002 0 0 1 70.925,282 Z"
       style="opacity:1;fill:none;fill-opacity:1;stroke:#000000;stroke-width:0.09999999;stroke-linejoin:miter;stroke-miterlimit:4;stroke-dasharray:none;stroke-dashoffset:0;stroke-opacity:1" />
    <path
       id="path857"
       d="m 65,292 c -5.54,0 -10,-4.46 -10,-10 V 52 c 0,-5.54 4.46,-10 10,-10 5.54,0 10,4.46 10,10 v 230 c 0,5.54 -4.46,10 -10,10 z"
       style="opacity:1;vector-effect:none;fill:none;fill-opacity:1;fill-rule:evenodd;stroke:#000000;stroke-width:0.1;stroke-linecap:butt;stroke-linejoin:miter;stroke-miterlimit:4;stroke-dasharray:none;stroke-dashoffset:0;stroke-opacity:1"
       inkscape:connector-curvature="0" />
    <path
       style="opacity:1;fill:none;fill-opacity:1;stroke:#000000;stroke-width:0.09999999;stroke-linejoin:miter;stroke-miterlimit:4;stroke-dasharray:none;stroke-dashoffset:0;stroke-opacity:1"
       d="M 59.075,52 A 5.9250002,5.9250002 0 0 1 64.999999,46.075 5.9250002,5.9250002 0 0 1 70.925,52 5.9250002,5.9250002 0 0 1 64.999999,57.925 5.9250002,5.9250002 0 0 1 59.075,52 Z"
       id="path859"
       inkscape:connector-curvature="0" />
    <path
       style="opacity:1;fill:none;fill-opacity:1;stroke:#000000;stroke-width:0.09999999;stroke-linejoin:miter;stroke-miterlimit:4;stroke-dasharray:none;stroke-dashoffset:0;stroke-opacity:1"
       d="M 70.925,167 A 5.9250002,5.9250002 0 0 1 65.000001,172.925 5.9250002,5.9250002 0 0 1 59.075,167 5.9250002,5.9250002 0 0 1 65.000001,161.075 5.9250002,5.9250002 0 0 1 70.925,167 Z"
       id="path861"
       inkscape:connector-curvature="0" />
    <path
       style="opacity:1;fill:none;fill-opacity:1;stroke:#000000;stroke-width:0.09999999;stroke-linejoin:miter;stroke-miterlimit:4;stroke-dasharray:none;stroke-dashoffset:0;stroke-opacity:1"
       d="M 95.925,282 A 5.9250002,5.9250002 0 0 1 90.000001,287.925 5.9250002,5.9250002 0 0 1 84.075,282 5.9250002,5.9250002 0 0 1 90.000001,276.075 5.9250002,5.9250002 0 0 1 95.925,282 Z"
       id="path863"
       inkscape:connector-curvature="0" />
    <path
       inkscape:connector-curvature="0"
       style="opacity:1;vector-effect:none;fill:none;fill-opacity:1;fill-rule:evenodd;stroke:#000000;stroke-width:0.1;stroke-linecap:butt;stroke-linejoin:miter;stroke-miterlimit:4;stroke-dasharray:none;stroke-dashoffset:0;stroke-opacity:1"
       d="m 90,292 c -5.54,0 -10,-4.46 -10,-10 V 52 c 0,-5.54 4.46,-10 10,-10 5.54,0 10,4.46 10,10 v 230 c 0,5.54 -4.46,10 -10,10 z"
       id="path865" />
    <path
       inkscape:connector-curvature="0"
       id="path867"
       d="M 84.075,52 A 5.9250002,5.9250002 0 0 1 89.999999,46.075 5.9250002,5.9250002 0 0 1 95.925,52 5.9250002,5.9250002 0 0 1 89.999999,57.925 5.9250002,5.9250002 0 0 1 84.075,52 Z"
       style="opacity:1;fill:none;fill-opacity:1;stroke:#000000;stroke-width:0.09999999;stroke-linejoin:miter;stroke-miterlimit:4;stroke-dasharray:none;stroke-dashoffset:0;stroke-opacity:1" />
    <path
       inkscape:connector-curvature="0"
       id="path869"
       d="M 95.925,167 A 5.9250002,5.9250002 0 0 1 90.000001,172.925 5.9250002,5.9250002 0 0 1 84.075,167 5.9250002,5.9250002 0 0 1 90.000001,161.075 5.9250002,5.9250002 0 0 1 95.925,167 Z"
       style="opacity:1;fill:none;fill-opacity:1;stroke:#000000;stroke-width:0.09999999;stroke-linejoin:miter;stroke-miterlimit:4;stroke-dasharray:none;stroke-dashoffset:0;stroke-opacity:1" />
    <path
       inkscape:connector-curvature="0"
       id="path895"
       d="M 120.925,282 A 5.9250002,5.9250002 0 0 1 115,287.925 5.9250002,5.9250002 0 0 1 109.075,282 5.9250002,5.9250002 0 0 1 115,276.075 5.9250002,5.9250002 0 0 1 120.925,282 Z"
       style="opacity:1;fill:none;fill-opacity:1;stroke:#000000;stroke-width:0.09999999;stroke-linejoin:miter;stroke-miterlimit:4;stroke-dasharray:none;stroke-dashoffset:0;stroke-opacity:1" />
    <path
       id="path897"
       d="m 115,292 c -5.54,0 -10,-4.46 -10,-10 V 52 c 0,-5.54 4.46,-10 10,-10 5.54,0 10,4.46 10,10 v 230 c 0,5.54 -4.46,10 -10,10 z"
       style="opacity:1;vector-effect:none;fill:none;fill-opacity:1;fill-rule:evenodd;stroke:#000000;stroke-width:0.1;stroke-linecap:butt;stroke-linejoin:miter;stroke-miterlimit:4;stroke-dasharray:none;stroke-dashoffset:0;stroke-opacity:1"
       inkscape:connector-curvature="0" />
    <path
       style="opacity:1;fill:none;fill-opacity:1;stroke:#000000;stroke-width:0.09999999;stroke-linejoin:miter;stroke-miterlimit:4;stroke-dasharray:none;stroke-dashoffset:0;stroke-opacity:1"
       d="M 109.075,52 A 5.9250002,5.9250002 0 0 1 115,46.075 5.9250002,5.9250002 0 0 1 120.925,52 5.9250002,5.9250002 0 0 1 115,57.925 5.9250002,5.9250002 0 0 1 109.075,52 Z"
       id="path899"
       inkscape:connector-curvature="0" />
    <path
       style="opacity:1;fill:none;fill-opacity:1;stroke:#000000;stroke-width:0.09999999;stroke-linejoin:miter;stroke-miterlimit:4;stroke-dasharray:none;stroke-dashoffset:0;stroke-opacity:1"
       d="M 120.925,167 A 5.9250002,5.9250002 0 0 1 115,172.925 5.9250002,5.9250002 0 0 1 109.075,167 5.9250002,5.9250002 0 0 1 115,161.075 5.9250002,5.9250002 0 0 1 120.925,167 Z"
       id="path901"
       inkscape:connector-curvature="0" />
    <path
       style="opacity:1;fill:none;fill-opacity:1;stroke:#000000;stroke-width:0.09999999;stroke-linejoin:miter;stroke-miterlimit:4;stroke-dasharray:none;stroke-dashoffset:0;stroke-opacity:1"
       d="M 145.925,282 A 5.9250002,5.9250002 0 0 1 140,287.925 5.9250002,5.9250002 0 0 1 134.075,282 5.9250002,5.9250002 0 0 1 140,276.075 5.9250002,5.9250002 0 0 1 145.925,282 Z"
       id="path903"
       inkscape:connector-curvature="0" />
    <path
       inkscape:connector-curvature="0"
       style="opacity:1;vector-effect:none;fill:none;fill-opacity:1;fill-rule:evenodd;stroke:#000000;stroke-width:0.1;stroke-linecap:butt;stroke-linejoin:miter;stroke-miterlimit:4;stroke-dasharray:none;stroke-dashoffset:0;stroke-opacity:1"
       d="m 140,292 c -5.54,0 -10,-4.46 -10,-10 V 52 c 0,-5.54 4.46,-10 10,-10 5.54,0 10,4.46 10,10 v 230 c 0,5.54 -4.46,10 -10,10 z"
       id="path905" />
    <path
       inkscape:connector-curvature="0"
       id="path907"
       d="M 134.075,52 A 5.9250002,5.9250002 0 0 1 140,46.075 5.9250002,5.9250002 0 0 1 145.925,52 5.9250002,5.9250002 0 0 1 140,57.925 5.9250002,5.9250002 0 0 1 134.075,52 Z"
       style="opacity:1;fill:none;fill-opacity:1;stroke:#000000;stroke-width:0.09999999;stroke-linejoin:miter;stroke-miterlimit:4;stroke-dasharray:none;stroke-dashoffset:0;stroke-opacity:1" />
    <path
       inkscape:connector-curvature="0"
       id="path909"
       d="M 145.925,167 A 5.9250002,5.9250002 0 0 1 140,172.925 5.9250002,5.9250002 0 0 1 134.075,167 5.9250002,5.9250002 0 0 1 140,161.075 5.9250002,5.9250002 0 0 1 145.925,167 Z"
       style="opacity:1;fill:none;fill-opacity:1;stroke:#000000;stroke-width:0.09999999;stroke-linejoin:miter;stroke-miterlimit:4;stroke-dasharray:none;stroke-dashoffset:0;stroke-opacity:1" />
    <path
       style="opacity:1;fill:none;fill-opacity:1;stroke:#000000;stroke-width:0.09999999;stroke-linejoin:miter;stroke-miterlimit:4;stroke-dasharray:none;stroke-dashoffset:0;stroke-opacity:1"
       d="M 170.925,282 A 5.9250002,5.9250002 0 0 1 165,287.925 5.9250002,5.9250002 0 0 1 159.075,282 5.9250002,5.9250002 0 0 1 165,276.075 5.9250002,5.9250002 0 0 1 170.925,282 Z"
       id="path911"
       inkscape:connector-curvature="0" />
    <path
       inkscape:connector-curvature="0"
       style="opacity:1;vector-effect:none;fill:none;fill-opacity:1;fill-rule:evenodd;stroke:#000000;stroke-width:0.1;stroke-linecap:butt;stroke-linejoin:miter;stroke-miterlimit:4;stroke-dasharray:none;stroke-dashoffset:0;stroke-opacity:1"
       d="m 165,292 c -5.54,0 -10,-4.46 -10,-10 V 52 c 0,-5.54 4.46,-10 10,-10 5.54,0 10,4.46 10,10 v 230 c 0,5.54 -4.46,10 -10,10 z"
       id="path913" />
    <path
       inkscape:connector-curvature="0"
       id="path915"
       d="M 159.075,52 A 5.9250002,5.9250002 0 0 1 165,46.075 5.9250002,5.9250002 0 0 1 170.925,52 5.9250002,5.9250002 0 0 1 165,57.925 5.9250002,5.9250002 0 0 1 159.075,52 Z"
       style="opacity:1;fill:none;fill-opacity:1;stroke:#000000;stroke-width:0.09999999;stroke-linejoin:miter;stroke-miterlimit:4;stroke-dasharray:none;stroke-dashoffset:0;stroke-opacity:1" />
    <path
       inkscape:connector-curvature="0"
       id="path917"
       d="M 170.925,167 A 5.9250002,5.9250002 0 0 1 165,172.925 5.9250002,5.9250002 0 0 1 159.075,167 5.9250002,5.9250002 0 0 1 165,161.075 5.9250002,5.9250002 0 0 1 170.925,167 Z"
       style="opacity:1;fill:none;fill-opacity:1;stroke:#000000;stroke-width:0.09999999;stroke-linejoin:miter;stroke-miterlimit:4;stroke-dasharray:none;stroke-dashoffset:0;stroke-opacity:1" />
    <path
       inkscape:connector-curvature="0"
       id="path919"
       d="M 195.925,282 A 5.9250002,5.9250002 0 0 1 190,287.925 5.9250002,5.9250002 0 0 1 184.075,282 5.9250002,5.9250002 0 0 1 190,276.075 5.9250002,5.9250002 0 0 1 195.925,282 Z"
       style="opacity:1;fill:none;fill-opacity:1;stroke:#000000;stroke-width:0.09999999;stroke-linejoin:miter;stroke-miterlimit:4;stroke-dasharray:none;stroke-dashoffset:0;stroke-opacity:1" />
    <path
       id="path921"
       d="m 190,292 c -5.54,0 -10,-4.46 -10,-10 V 52 c 0,-5.54 4.46,-10 10,-10 5.54,0 10,4.46 10,10 v 230 c 0,5.54 -4.46,10 -10,10 z"
       style="opacity:1;vector-effect:none;fill:none;fill-opacity:1;fill-rule:evenodd;stroke:#000000;stroke-width:0.1;stroke-linecap:butt;stroke-linejoin:miter;stroke-miterlimit:4;stroke-dasharray:none;stroke-dashoffset:0;stroke-opacity:1"
       inkscape:connector-curvature="0" />
    <path
       style="opacity:1;fill:none;fill-opacity:1;stroke:#000000;stroke-width:0.09999999;stroke-linejoin:miter;stroke-miterlimit:4;stroke-dasharray:none;stroke-dashoffset:0;stroke-opacity:1"
       d="M 184.075,52 A 5.9250002,5.9250002 0 0 1 190,46.075 5.9250002,5.9250002 0 0 1 195.925,52 5.9250002,5.9250002 0 0 1 190,57.925 5.9250002,5.9250002 0 0 1 184.075,52 Z"
       id="path923"
       inkscape:connector-curvature="0" />
    <path
       style="opacity:1;fill:none;fill-opacity:1;stroke:#000000;stroke-width:0.09999999;stroke-linejoin:miter;stroke-miterlimit:4;stroke-dasharray:none;stroke-dashoffset:0;stroke-opacity:1"
       d="M 195.925,167 A 5.9250002,5.9250002 0 0 1 190,172.925 5.9250002,5.9250002 0 0 1 184.075,167 5.9250002,5.9250002 0 0 1 190,161.075 5.9250002,5.9250002 0 0 1 195.925,167 Z"
       id="path925"
       inkscape:connector-curvature="0" />
  </g>
</svg>
