  0
SECTION
  2
HEADER
  9
$ACADVER
  1
AC1014
  9
$HANDSEED
  5
FFFF
  9
$MEASUREMENT
 70
     1
  0
ENDSEC
  0
SECTION
  2
TABLES
  0
TABLE
  2
VPORT
  5
8
330
0
100
AcDbSymbolTable
 70
     4
  0
VPORT
  5
2E
330
8
100
AcDbSymbolTableRecord
100
AcDbViewportTableRecord
  2
*ACTIVE
 70
     0
 10
0.0
 20
0.0
 11
1.0
 21
1.0
 12
210.0
 22
148.5
 13
0.0
 23
0.0
 14
10.0
 24
10.0
 15
10.0
 25
10.0
 16
0.0
 26
0.0
 36
1.0
 17
0.0
 27
0.0
 37
0.0
 40
341.0
 41
1.24
 42
50.0
 43
0.0
 44
0.0
 50
0.0
 51
0.0
 71
     0
 72
   100
 73
     1
 74
     3
 75
     0
 76
     0
 77
     0
 78
     0
  0
ENDTAB
  0
TABLE
  2
LTYPE
  5
5
330
0
100
AcDbSymbolTable
 70
     1
  0
LTYPE
  5
14
330
5
100
AcDbSymbolTableRecord
100
AcDbLinetypeTableRecord
  2
BYBLOCK
 70
     0
  3

 72
    65
 73
     0
 40
0.0
  0
LTYPE
  5
15
330
5
100
AcDbSymbolTableRecord
100
AcDbLinetypeTableRecord
  2
BYLAYER
 70
     0
  3

 72
    65
 73
     0
 40
0.0
  0
LTYPE
  5
16
330
5
100
AcDbSymbolTableRecord
100
AcDbLinetypeTableRecord
  2
CONTINUOUS
 70
     0
  3
Solid line
 72
    65
 73
     0
 40
0.0
  0
ENDTAB
  0
TABLE
  2
LAYER
  5
2
100
AcDbSymbolTable
 70
2
  0
LAYER
  5
50
100
AcDbSymbolTableRecord
100
AcDbLayerTableRecord
  2
0
 70
0
  6
CONTINUOUS
  0
LAYER
  5
51
100
AcDbSymbolTableRecord
100
AcDbLayerTableRecord
  2
Calque_1
 70
0
  6
CONTINUOUS
  0
ENDTAB
  0
TABLE
  2
STYLE
  5
3
330
0
100
AcDbSymbolTable
 70
     1
  0
STYLE
  5
11
330
3
100
AcDbSymbolTableRecord
100
AcDbTextStyleTableRecord
  2
STANDARD
 70
     0
 40
0.0
 41
1.0
 50
0.0
 71
     0
 42
2.5
  3
txt
  4

  0
ENDTAB
  0
TABLE
  2
VIEW
  5
6
330
0
100
AcDbSymbolTable
 70
     0
  0
ENDTAB
  0
TABLE
  2
UCS
  5
7
330
0
100
AcDbSymbolTable
 70
     0
  0
ENDTAB
  0
TABLE
  2
APPID
  5
9
330
0
100
AcDbSymbolTable
 70
     2
  0
APPID
  5
12
330
9
100
AcDbSymbolTableRecord
100
AcDbRegAppTableRecord
  2
ACAD
 70
     0
  0
ENDTAB
  0
TABLE
  2
DIMSTYLE
  5
A
330
0
100
AcDbSymbolTable
 70
     1
  0
DIMSTYLE
105
27
330
A
100
AcDbSymbolTableRecord
100
AcDbDimStyleTableRecord
  2
ISO-25
 70
     0
  3

  4

  5

  6

  7

 40
1.0
 41
2.5
 42
0.625
 43
3.75
 44
1.25
 45
0.0
 46
0.0
 47
0.0
 48
0.0
140
2.5
141
2.5
142
0.0
143
0.03937007874016
144
1.0
145
0.0
146
1.0
147
0.625
 71
     0
 72
     0
 73
     0
 74
     0
 75
     0
 76
     0
 77
     1
 78
     8
170
     0
171
     3
172
     1
173
     0
174
     0
175
     0
176
     0
177
     0
178
     0
270
     2
271
     2
272
     2
273
     2
274
     3
340
11
275
     0
280
     0
281
     0
282
     0
283
     0
284
     8
285
     0
286
     0
287
     3
288
     0
  0
ENDTAB
  0
TABLE
  2
BLOCK_RECORD
  5
1
330
0
100
AcDbSymbolTable
 70
     1
  0
BLOCK_RECORD
  5
1F
330
1
100
AcDbSymbolTableRecord
100
AcDbBlockTableRecord
  2
*MODEL_SPACE
  0
BLOCK_RECORD
  5
1B
330
1
100
AcDbSymbolTableRecord
100
AcDbBlockTableRecord
  2
*PAPER_SPACE
  0
ENDTAB
  0
ENDSEC
  0
SECTION
  2
BLOCKS
  0
BLOCK
  5
20
330
1F
100
AcDbEntity
  8
0
100
AcDbBlockBegin
  2
*MODEL_SPACE
 70
     0
 10
0.0
 20
0.0
 30
0.0
  3
*MODEL_SPACE
  1

  0
ENDBLK
  5
21
330
1F
100
AcDbEntity
  8
0
100
AcDbBlockEnd
  0
BLOCK
  5
1C
330
1B
100
AcDbEntity
 67
     1
  8
0
100
AcDbBlockBegin
  2
*PAPER_SPACE
  1

  0
ENDBLK
  5
1D
330
1B
100
AcDbEntity
 67
     1
  8
0
100
AcDbBlockEnd
  0
ENDSEC
  0
SECTION
  2
ENTITIES
  0
SPLINE
  5
100
100
AcDbEntity
  8
Calque_1
 62
7
100
AcDbSpline
 70
8
 71
3
 72
8
 73
4
 74
0
 40
0
 40
0
 40
0
 40
0
 40
1
 40
1
 40
1
 40
1
 10
20.925000
 20
15.000000
 30
0.0
 10
20.925000
 20
11.727713
 30
0.0
 10
18.272288
 20
9.075001
 30
0.0
 10
15.000001
 20
9.075000
 30
0.0
  0
SPLINE
  5
101
100
AcDbEntity
  8
Calque_1
 62
7
100
AcDbSpline
 70
8
 71
3
 72
8
 73
4
 74
0
 40
0
 40
0
 40
0
 40
0
 40
1
 40
1
 40
1
 40
1
 10
15.000001
 20
9.075000
 30
0.0
 10
13.428593
 20
9.075000
 30
0.0
 10
11.921546
 20
9.699239
 30
0.0
 10
10.810393
 20
10.810392
 30
0.0
  0
SPLINE
  5
102
100
AcDbEntity
  8
Calque_1
 62
7
100
AcDbSpline
 70
8
 71
3
 72
8
 73
4
 74
0
 40
0
 40
0
 40
0
 40
0
 40
1
 40
1
 40
1
 40
1
 10
10.810393
 20
10.810392
 30
0.0
 10
9.699239
 20
11.921545
 30
0.0
 10
9.075000
 20
13.428592
 30
0.0
 10
9.075000
 20
15.000000
 30
0.0
  0
SPLINE
  5
103
100
AcDbEntity
  8
Calque_1
 62
7
100
AcDbSpline
 70
8
 71
3
 72
8
 73
4
 74
0
 40
0
 40
0
 40
0
 40
0
 40
1
 40
1
 40
1
 40
1
 10
9.075000
 20
15.000000
 30
0.0
 10
9.075000
 20
16.571408
 30
0.0
 10
9.699239
 20
18.078455
 30
0.0
 10
10.810393
 20
19.189608
 30
0.0
  0
SPLINE
  5
104
100
AcDbEntity
  8
Calque_1
 62
7
100
AcDbSpline
 70
8
 71
3
 72
8
 73
4
 74
0
 40
0
 40
0
 40
0
 40
0
 40
1
 40
1
 40
1
 40
1
 10
10.810393
 20
19.189608
 30
0.0
 10
11.921546
 20
20.300761
 30
0.0
 10
13.428593
 20
20.925000
 30
0.0
 10
15.000001
 20
20.925000
 30
0.0
  0
SPLINE
  5
105
100
AcDbEntity
  8
Calque_1
 62
7
100
AcDbSpline
 70
8
 71
3
 72
8
 73
4
 74
0
 40
0
 40
0
 40
0
 40
0
 40
1
 40
1
 40
1
 40
1
 10
15.000001
 20
20.925000
 30
0.0
 10
18.272288
 20
20.924999
 30
0.0
 10
20.925000
 20
18.272287
 30
0.0
 10
20.925000
 20
15.000000
 30
0.0
  0
LINE
  5
106
100
AcDbEntity
  8
Calque_1
 62
7
100
AcDbLine
 10
20.925000
 20
15.000000
 30
0.0
 11
20.925000
 21
15.000000
 31
0.0
  0
SPLINE
  5
107
100
AcDbEntity
  8
Calque_1
 62
7
100
AcDbSpline
 70
8
 71
3
 72
8
 73
4
 74
0
 40
0
 40
0
 40
0
 40
0
 40
1
 40
1
 40
1
 40
1
 10
15.000000
 20
5.000000
 30
0.0
 10
9.460000
 20
5.000000
 30
0.0
 10
5.000000
 20
9.460000
 30
0.0
 10
5.000000
 20
15.000000
 30
0.0
  0
LINE
  5
108
100
AcDbEntity
  8
Calque_1
 62
7
100
AcDbLine
 10
5.000000
 20
15.000000
 30
0.0
 11
5.000000
 21
245.000000
 31
0.0
  0
SPLINE
  5
109
100
AcDbEntity
  8
Calque_1
 62
7
100
AcDbSpline
 70
8
 71
3
 72
8
 73
4
 74
0
 40
0
 40
0
 40
0
 40
0
 40
1
 40
1
 40
1
 40
1
 10
5.000000
 20
245.000000
 30
0.0
 10
5.000000
 20
250.540000
 30
0.0
 10
9.460000
 20
255.000000
 30
0.0
 10
15.000000
 20
255.000000
 30
0.0
  0
SPLINE
  5
10a
100
AcDbEntity
  8
Calque_1
 62
7
100
AcDbSpline
 70
8
 71
3
 72
8
 73
4
 74
0
 40
0
 40
0
 40
0
 40
0
 40
1
 40
1
 40
1
 40
1
 10
15.000000
 20
255.000000
 30
0.0
 10
20.540000
 20
255.000000
 30
0.0
 10
25.000000
 20
250.540000
 30
0.0
 10
25.000000
 20
245.000000
 30
0.0
  0
LINE
  5
10b
100
AcDbEntity
  8
Calque_1
 62
7
100
AcDbLine
 10
25.000000
 20
245.000000
 30
0.0
 11
25.000000
 21
15.000000
 31
0.0
  0
SPLINE
  5
10c
100
AcDbEntity
  8
Calque_1
 62
7
100
AcDbSpline
 70
8
 71
3
 72
8
 73
4
 74
0
 40
0
 40
0
 40
0
 40
0
 40
1
 40
1
 40
1
 40
1
 10
25.000000
 20
15.000000
 30
0.0
 10
25.000000
 20
9.460000
 30
0.0
 10
20.540000
 20
5.000000
 30
0.0
 10
15.000000
 20
5.000000
 30
0.0
  0
LINE
  5
10d
100
AcDbEntity
  8
Calque_1
 62
7
100
AcDbLine
 10
15.000000
 20
5.000000
 30
0.0
 11
15.000000
 21
5.000000
 31
0.0
  0
SPLINE
  5
10e
100
AcDbEntity
  8
Calque_1
 62
7
100
AcDbSpline
 70
8
 71
3
 72
8
 73
4
 74
0
 40
0
 40
0
 40
0
 40
0
 40
1
 40
1
 40
1
 40
1
 10
9.075000
 20
245.000000
 30
0.0
 10
9.075000
 20
248.272287
 30
0.0
 10
11.727712
 20
250.924999
 30
0.0
 10
14.999999
 20
250.925000
 30
0.0
  0
SPLINE
  5
10f
100
AcDbEntity
  8
Calque_1
 62
7
100
AcDbSpline
 70
8
 71
3
 72
8
 73
4
 74
0
 40
0
 40
0
 40
0
 40
0
 40
1
 40
1
 40
1
 40
1
 10
14.999999
 20
250.925000
 30
0.0
 10
16.571407
 20
250.925000
 30
0.0
 10
18.078454
 20
250.300761
 30
0.0
 10
19.189607
 20
249.189608
 30
0.0
  0
SPLINE
  5
110
100
AcDbEntity
  8
Calque_1
 62
7
100
AcDbSpline
 70
8
 71
3
 72
8
 73
4
 74
0
 40
0
 40
0
 40
0
 40
0
 40
1
 40
1
 40
1
 40
1
 10
19.189607
 20
249.189608
 30
0.0
 10
20.300761
 20
248.078455
 30
0.0
 10
20.925000
 20
246.571408
 30
0.0
 10
20.925000
 20
245.000000
 30
0.0
  0
SPLINE
  5
111
100
AcDbEntity
  8
Calque_1
 62
7
100
AcDbSpline
 70
8
 71
3
 72
8
 73
4
 74
0
 40
0
 40
0
 40
0
 40
0
 40
1
 40
1
 40
1
 40
1
 10
20.925000
 20
245.000000
 30
0.0
 10
20.925000
 20
243.428592
 30
0.0
 10
20.300761
 20
241.921545
 30
0.0
 10
19.189607
 20
240.810392
 30
0.0
  0
SPLINE
  5
112
100
AcDbEntity
  8
Calque_1
 62
7
100
AcDbSpline
 70
8
 71
3
 72
8
 73
4
 74
0
 40
0
 40
0
 40
0
 40
0
 40
1
 40
1
 40
1
 40
1
 10
19.189607
 20
240.810392
 30
0.0
 10
18.078454
 20
239.699239
 30
0.0
 10
16.571407
 20
239.075000
 30
0.0
 10
14.999999
 20
239.075000
 30
0.0
  0
SPLINE
  5
113
100
AcDbEntity
  8
Calque_1
 62
7
100
AcDbSpline
 70
8
 71
3
 72
8
 73
4
 74
0
 40
0
 40
0
 40
0
 40
0
 40
1
 40
1
 40
1
 40
1
 10
14.999999
 20
239.075000
 30
0.0
 10
11.727712
 20
239.075001
 30
0.0
 10
9.075000
 20
241.727713
 30
0.0
 10
9.075000
 20
245.000000
 30
0.0
  0
LINE
  5
114
100
AcDbEntity
  8
Calque_1
 62
7
100
AcDbLine
 10
9.075000
 20
245.000000
 30
0.0
 11
9.075000
 21
245.000000
 31
0.0
  0
SPLINE
  5
115
100
AcDbEntity
  8
Calque_1
 62
7
100
AcDbSpline
 70
8
 71
3
 72
8
 73
4
 74
0
 40
0
 40
0
 40
0
 40
0
 40
1
 40
1
 40
1
 40
1
 10
20.925000
 20
130.000000
 30
0.0
 10
20.925000
 20
126.727713
 30
0.0
 10
18.272288
 20
124.075001
 30
0.0
 10
15.000001
 20
124.075000
 30
0.0
  0
SPLINE
  5
116
100
AcDbEntity
  8
Calque_1
 62
7
100
AcDbSpline
 70
8
 71
3
 72
8
 73
4
 74
0
 40
0
 40
0
 40
0
 40
0
 40
1
 40
1
 40
1
 40
1
 10
15.000001
 20
124.075000
 30
0.0
 10
13.428593
 20
124.075000
 30
0.0
 10
11.921546
 20
124.699239
 30
0.0
 10
10.810393
 20
125.810392
 30
0.0
  0
SPLINE
  5
117
100
AcDbEntity
  8
Calque_1
 62
7
100
AcDbSpline
 70
8
 71
3
 72
8
 73
4
 74
0
 40
0
 40
0
 40
0
 40
0
 40
1
 40
1
 40
1
 40
1
 10
10.810393
 20
125.810392
 30
0.0
 10
9.699239
 20
126.921545
 30
0.0
 10
9.075000
 20
128.428592
 30
0.0
 10
9.075000
 20
130.000000
 30
0.0
  0
SPLINE
  5
118
100
AcDbEntity
  8
Calque_1
 62
7
100
AcDbSpline
 70
8
 71
3
 72
8
 73
4
 74
0
 40
0
 40
0
 40
0
 40
0
 40
1
 40
1
 40
1
 40
1
 10
9.075000
 20
130.000000
 30
0.0
 10
9.075000
 20
131.571408
 30
0.0
 10
9.699239
 20
133.078455
 30
0.0
 10
10.810393
 20
134.189608
 30
0.0
  0
SPLINE
  5
119
100
AcDbEntity
  8
Calque_1
 62
7
100
AcDbSpline
 70
8
 71
3
 72
8
 73
4
 74
0
 40
0
 40
0
 40
0
 40
0
 40
1
 40
1
 40
1
 40
1
 10
10.810393
 20
134.189608
 30
0.0
 10
11.921546
 20
135.300761
 30
0.0
 10
13.428593
 20
135.925000
 30
0.0
 10
15.000001
 20
135.925000
 30
0.0
  0
SPLINE
  5
11a
100
AcDbEntity
  8
Calque_1
 62
7
100
AcDbSpline
 70
8
 71
3
 72
8
 73
4
 74
0
 40
0
 40
0
 40
0
 40
0
 40
1
 40
1
 40
1
 40
1
 10
15.000001
 20
135.925000
 30
0.0
 10
18.272288
 20
135.924999
 30
0.0
 10
20.925000
 20
133.272287
 30
0.0
 10
20.925000
 20
130.000000
 30
0.0
  0
LINE
  5
11b
100
AcDbEntity
  8
Calque_1
 62
7
100
AcDbLine
 10
20.925000
 20
130.000000
 30
0.0
 11
20.925000
 21
130.000000
 31
0.0
  0
SPLINE
  5
11c
100
AcDbEntity
  8
Calque_1
 62
7
100
AcDbSpline
 70
8
 71
3
 72
8
 73
4
 74
0
 40
0
 40
0
 40
0
 40
0
 40
1
 40
1
 40
1
 40
1
 10
45.925000
 20
15.000000
 30
0.0
 10
45.925000
 20
11.727713
 30
0.0
 10
43.272288
 20
9.075001
 30
0.0
 10
40.000001
 20
9.075000
 30
0.0
  0
SPLINE
  5
11d
100
AcDbEntity
  8
Calque_1
 62
7
100
AcDbSpline
 70
8
 71
3
 72
8
 73
4
 74
0
 40
0
 40
0
 40
0
 40
0
 40
1
 40
1
 40
1
 40
1
 10
40.000001
 20
9.075000
 30
0.0
 10
38.428593
 20
9.075000
 30
0.0
 10
36.921546
 20
9.699239
 30
0.0
 10
35.810393
 20
10.810392
 30
0.0
  0
SPLINE
  5
11e
100
AcDbEntity
  8
Calque_1
 62
7
100
AcDbSpline
 70
8
 71
3
 72
8
 73
4
 74
0
 40
0
 40
0
 40
0
 40
0
 40
1
 40
1
 40
1
 40
1
 10
35.810393
 20
10.810392
 30
0.0
 10
34.699239
 20
11.921545
 30
0.0
 10
34.075000
 20
13.428592
 30
0.0
 10
34.075000
 20
15.000000
 30
0.0
  0
SPLINE
  5
11f
100
AcDbEntity
  8
Calque_1
 62
7
100
AcDbSpline
 70
8
 71
3
 72
8
 73
4
 74
0
 40
0
 40
0
 40
0
 40
0
 40
1
 40
1
 40
1
 40
1
 10
34.075000
 20
15.000000
 30
0.0
 10
34.075000
 20
16.571408
 30
0.0
 10
34.699239
 20
18.078455
 30
0.0
 10
35.810393
 20
19.189608
 30
0.0
  0
SPLINE
  5
120
100
AcDbEntity
  8
Calque_1
 62
7
100
AcDbSpline
 70
8
 71
3
 72
8
 73
4
 74
0
 40
0
 40
0
 40
0
 40
0
 40
1
 40
1
 40
1
 40
1
 10
35.810393
 20
19.189608
 30
0.0
 10
36.921546
 20
20.300761
 30
0.0
 10
38.428593
 20
20.925000
 30
0.0
 10
40.000001
 20
20.925000
 30
0.0
  0
SPLINE
  5
121
100
AcDbEntity
  8
Calque_1
 62
7
100
AcDbSpline
 70
8
 71
3
 72
8
 73
4
 74
0
 40
0
 40
0
 40
0
 40
0
 40
1
 40
1
 40
1
 40
1
 10
40.000001
 20
20.925000
 30
0.0
 10
43.272288
 20
20.924999
 30
0.0
 10
45.925000
 20
18.272287
 30
0.0
 10
45.925000
 20
15.000000
 30
0.0
  0
LINE
  5
122
100
AcDbEntity
  8
Calque_1
 62
7
100
AcDbLine
 10
45.925000
 20
15.000000
 30
0.0
 11
45.925000
 21
15.000000
 31
0.0
  0
SPLINE
  5
123
100
AcDbEntity
  8
Calque_1
 62
7
100
AcDbSpline
 70
8
 71
3
 72
8
 73
4
 74
0
 40
0
 40
0
 40
0
 40
0
 40
1
 40
1
 40
1
 40
1
 10
40.000000
 20
5.000000
 30
0.0
 10
34.460000
 20
5.000000
 30
0.0
 10
30.000000
 20
9.460000
 30
0.0
 10
30.000000
 20
15.000000
 30
0.0
  0
LINE
  5
124
100
AcDbEntity
  8
Calque_1
 62
7
100
AcDbLine
 10
30.000000
 20
15.000000
 30
0.0
 11
30.000000
 21
245.000000
 31
0.0
  0
SPLINE
  5
125
100
AcDbEntity
  8
Calque_1
 62
7
100
AcDbSpline
 70
8
 71
3
 72
8
 73
4
 74
0
 40
0
 40
0
 40
0
 40
0
 40
1
 40
1
 40
1
 40
1
 10
30.000000
 20
245.000000
 30
0.0
 10
30.000000
 20
250.540000
 30
0.0
 10
34.460000
 20
255.000000
 30
0.0
 10
40.000000
 20
255.000000
 30
0.0
  0
SPLINE
  5
126
100
AcDbEntity
  8
Calque_1
 62
7
100
AcDbSpline
 70
8
 71
3
 72
8
 73
4
 74
0
 40
0
 40
0
 40
0
 40
0
 40
1
 40
1
 40
1
 40
1
 10
40.000000
 20
255.000000
 30
0.0
 10
45.540000
 20
255.000000
 30
0.0
 10
50.000000
 20
250.540000
 30
0.0
 10
50.000000
 20
245.000000
 30
0.0
  0
LINE
  5
127
100
AcDbEntity
  8
Calque_1
 62
7
100
AcDbLine
 10
50.000000
 20
245.000000
 30
0.0
 11
50.000000
 21
15.000000
 31
0.0
  0
SPLINE
  5
128
100
AcDbEntity
  8
Calque_1
 62
7
100
AcDbSpline
 70
8
 71
3
 72
8
 73
4
 74
0
 40
0
 40
0
 40
0
 40
0
 40
1
 40
1
 40
1
 40
1
 10
50.000000
 20
15.000000
 30
0.0
 10
50.000000
 20
9.460000
 30
0.0
 10
45.540000
 20
5.000000
 30
0.0
 10
40.000000
 20
5.000000
 30
0.0
  0
LINE
  5
129
100
AcDbEntity
  8
Calque_1
 62
7
100
AcDbLine
 10
40.000000
 20
5.000000
 30
0.0
 11
40.000000
 21
5.000000
 31
0.0
  0
SPLINE
  5
12a
100
AcDbEntity
  8
Calque_1
 62
7
100
AcDbSpline
 70
8
 71
3
 72
8
 73
4
 74
0
 40
0
 40
0
 40
0
 40
0
 40
1
 40
1
 40
1
 40
1
 10
34.075000
 20
245.000000
 30
0.0
 10
34.075000
 20
248.272287
 30
0.0
 10
36.727712
 20
250.924999
 30
0.0
 10
39.999999
 20
250.925000
 30
0.0
  0
SPLINE
  5
12b
100
AcDbEntity
  8
Calque_1
 62
7
100
AcDbSpline
 70
8
 71
3
 72
8
 73
4
 74
0
 40
0
 40
0
 40
0
 40
0
 40
1
 40
1
 40
1
 40
1
 10
39.999999
 20
250.925000
 30
0.0
 10
41.571407
 20
250.925000
 30
0.0
 10
43.078454
 20
250.300761
 30
0.0
 10
44.189607
 20
249.189608
 30
0.0
  0
SPLINE
  5
12c
100
AcDbEntity
  8
Calque_1
 62
7
100
AcDbSpline
 70
8
 71
3
 72
8
 73
4
 74
0
 40
0
 40
0
 40
0
 40
0
 40
1
 40
1
 40
1
 40
1
 10
44.189607
 20
249.189608
 30
0.0
 10
45.300761
 20
248.078455
 30
0.0
 10
45.925000
 20
246.571408
 30
0.0
 10
45.925000
 20
245.000000
 30
0.0
  0
SPLINE
  5
12d
100
AcDbEntity
  8
Calque_1
 62
7
100
AcDbSpline
 70
8
 71
3
 72
8
 73
4
 74
0
 40
0
 40
0
 40
0
 40
0
 40
1
 40
1
 40
1
 40
1
 10
45.925000
 20
245.000000
 30
0.0
 10
45.925000
 20
243.428592
 30
0.0
 10
45.300761
 20
241.921545
 30
0.0
 10
44.189607
 20
240.810392
 30
0.0
  0
SPLINE
  5
12e
100
AcDbEntity
  8
Calque_1
 62
7
100
AcDbSpline
 70
8
 71
3
 72
8
 73
4
 74
0
 40
0
 40
0
 40
0
 40
0
 40
1
 40
1
 40
1
 40
1
 10
44.189607
 20
240.810392
 30
0.0
 10
43.078454
 20
239.699239
 30
0.0
 10
41.571407
 20
239.075000
 30
0.0
 10
39.999999
 20
239.075000
 30
0.0
  0
SPLINE
  5
12f
100
AcDbEntity
  8
Calque_1
 62
7
100
AcDbSpline
 70
8
 71
3
 72
8
 73
4
 74
0
 40
0
 40
0
 40
0
 40
0
 40
1
 40
1
 40
1
 40
1
 10
39.999999
 20
239.075000
 30
0.0
 10
36.727712
 20
239.075001
 30
0.0
 10
34.075000
 20
241.727713
 30
0.0
 10
34.075000
 20
245.000000
 30
0.0
  0
LINE
  5
130
100
AcDbEntity
  8
Calque_1
 62
7
100
AcDbLine
 10
34.075000
 20
245.000000
 30
0.0
 11
34.075000
 21
245.000000
 31
0.0
  0
SPLINE
  5
131
100
AcDbEntity
  8
Calque_1
 62
7
100
AcDbSpline
 70
8
 71
3
 72
8
 73
4
 74
0
 40
0
 40
0
 40
0
 40
0
 40
1
 40
1
 40
1
 40
1
 10
45.925000
 20
130.000000
 30
0.0
 10
45.925000
 20
126.727713
 30
0.0
 10
43.272288
 20
124.075001
 30
0.0
 10
40.000001
 20
124.075000
 30
0.0
  0
SPLINE
  5
132
100
AcDbEntity
  8
Calque_1
 62
7
100
AcDbSpline
 70
8
 71
3
 72
8
 73
4
 74
0
 40
0
 40
0
 40
0
 40
0
 40
1
 40
1
 40
1
 40
1
 10
40.000001
 20
124.075000
 30
0.0
 10
38.428593
 20
124.075000
 30
0.0
 10
36.921546
 20
124.699239
 30
0.0
 10
35.810393
 20
125.810392
 30
0.0
  0
SPLINE
  5
133
100
AcDbEntity
  8
Calque_1
 62
7
100
AcDbSpline
 70
8
 71
3
 72
8
 73
4
 74
0
 40
0
 40
0
 40
0
 40
0
 40
1
 40
1
 40
1
 40
1
 10
35.810393
 20
125.810392
 30
0.0
 10
34.699239
 20
126.921545
 30
0.0
 10
34.075000
 20
128.428592
 30
0.0
 10
34.075000
 20
130.000000
 30
0.0
  0
SPLINE
  5
134
100
AcDbEntity
  8
Calque_1
 62
7
100
AcDbSpline
 70
8
 71
3
 72
8
 73
4
 74
0
 40
0
 40
0
 40
0
 40
0
 40
1
 40
1
 40
1
 40
1
 10
34.075000
 20
130.000000
 30
0.0
 10
34.075000
 20
131.571408
 30
0.0
 10
34.699239
 20
133.078455
 30
0.0
 10
35.810393
 20
134.189608
 30
0.0
  0
SPLINE
  5
135
100
AcDbEntity
  8
Calque_1
 62
7
100
AcDbSpline
 70
8
 71
3
 72
8
 73
4
 74
0
 40
0
 40
0
 40
0
 40
0
 40
1
 40
1
 40
1
 40
1
 10
35.810393
 20
134.189608
 30
0.0
 10
36.921546
 20
135.300761
 30
0.0
 10
38.428593
 20
135.925000
 30
0.0
 10
40.000001
 20
135.925000
 30
0.0
  0
SPLINE
  5
136
100
AcDbEntity
  8
Calque_1
 62
7
100
AcDbSpline
 70
8
 71
3
 72
8
 73
4
 74
0
 40
0
 40
0
 40
0
 40
0
 40
1
 40
1
 40
1
 40
1
 10
40.000001
 20
135.925000
 30
0.0
 10
43.272288
 20
135.924999
 30
0.0
 10
45.925000
 20
133.272287
 30
0.0
 10
45.925000
 20
130.000000
 30
0.0
  0
LINE
  5
137
100
AcDbEntity
  8
Calque_1
 62
7
100
AcDbLine
 10
45.925000
 20
130.000000
 30
0.0
 11
45.925000
 21
130.000000
 31
0.0
  0
SPLINE
  5
138
100
AcDbEntity
  8
Calque_1
 62
7
100
AcDbSpline
 70
8
 71
3
 72
8
 73
4
 74
0
 40
0
 40
0
 40
0
 40
0
 40
1
 40
1
 40
1
 40
1
 10
70.925000
 20
15.000000
 30
0.0
 10
70.925000
 20
11.727713
 30
0.0
 10
68.272288
 20
9.075001
 30
0.0
 10
65.000001
 20
9.075000
 30
0.0
  0
SPLINE
  5
139
100
AcDbEntity
  8
Calque_1
 62
7
100
AcDbSpline
 70
8
 71
3
 72
8
 73
4
 74
0
 40
0
 40
0
 40
0
 40
0
 40
1
 40
1
 40
1
 40
1
 10
65.000001
 20
9.075000
 30
0.0
 10
63.428593
 20
9.075000
 30
0.0
 10
61.921546
 20
9.699239
 30
0.0
 10
60.810393
 20
10.810392
 30
0.0
  0
SPLINE
  5
13a
100
AcDbEntity
  8
Calque_1
 62
7
100
AcDbSpline
 70
8
 71
3
 72
8
 73
4
 74
0
 40
0
 40
0
 40
0
 40
0
 40
1
 40
1
 40
1
 40
1
 10
60.810393
 20
10.810392
 30
0.0
 10
59.699239
 20
11.921545
 30
0.0
 10
59.075000
 20
13.428592
 30
0.0
 10
59.075000
 20
15.000000
 30
0.0
  0
SPLINE
  5
13b
100
AcDbEntity
  8
Calque_1
 62
7
100
AcDbSpline
 70
8
 71
3
 72
8
 73
4
 74
0
 40
0
 40
0
 40
0
 40
0
 40
1
 40
1
 40
1
 40
1
 10
59.075000
 20
15.000000
 30
0.0
 10
59.075000
 20
16.571408
 30
0.0
 10
59.699239
 20
18.078455
 30
0.0
 10
60.810393
 20
19.189608
 30
0.0
  0
SPLINE
  5
13c
100
AcDbEntity
  8
Calque_1
 62
7
100
AcDbSpline
 70
8
 71
3
 72
8
 73
4
 74
0
 40
0
 40
0
 40
0
 40
0
 40
1
 40
1
 40
1
 40
1
 10
60.810393
 20
19.189608
 30
0.0
 10
61.921546
 20
20.300761
 30
0.0
 10
63.428593
 20
20.925000
 30
0.0
 10
65.000001
 20
20.925000
 30
0.0
  0
SPLINE
  5
13d
100
AcDbEntity
  8
Calque_1
 62
7
100
AcDbSpline
 70
8
 71
3
 72
8
 73
4
 74
0
 40
0
 40
0
 40
0
 40
0
 40
1
 40
1
 40
1
 40
1
 10
65.000001
 20
20.925000
 30
0.0
 10
68.272288
 20
20.924999
 30
0.0
 10
70.925000
 20
18.272287
 30
0.0
 10
70.925000
 20
15.000000
 30
0.0
  0
LINE
  5
13e
100
AcDbEntity
  8
Calque_1
 62
7
100
AcDbLine
 10
70.925000
 20
15.000000
 30
0.0
 11
70.925000
 21
15.000000
 31
0.0
  0
SPLINE
  5
13f
100
AcDbEntity
  8
Calque_1
 62
7
100
AcDbSpline
 70
8
 71
3
 72
8
 73
4
 74
0
 40
0
 40
0
 40
0
 40
0
 40
1
 40
1
 40
1
 40
1
 10
65.000000
 20
5.000000
 30
0.0
 10
59.460000
 20
5.000000
 30
0.0
 10
55.000000
 20
9.460000
 30
0.0
 10
55.000000
 20
15.000000
 30
0.0
  0
LINE
  5
140
100
AcDbEntity
  8
Calque_1
 62
7
100
AcDbLine
 10
55.000000
 20
15.000000
 30
0.0
 11
55.000000
 21
245.000000
 31
0.0
  0
SPLINE
  5
141
100
AcDbEntity
  8
Calque_1
 62
7
100
AcDbSpline
 70
8
 71
3
 72
8
 73
4
 74
0
 40
0
 40
0
 40
0
 40
0
 40
1
 40
1
 40
1
 40
1
 10
55.000000
 20
245.000000
 30
0.0
 10
55.000000
 20
250.540000
 30
0.0
 10
59.460000
 20
255.000000
 30
0.0
 10
65.000000
 20
255.000000
 30
0.0
  0
SPLINE
  5
142
100
AcDbEntity
  8
Calque_1
 62
7
100
AcDbSpline
 70
8
 71
3
 72
8
 73
4
 74
0
 40
0
 40
0
 40
0
 40
0
 40
1
 40
1
 40
1
 40
1
 10
65.000000
 20
255.000000
 30
0.0
 10
70.540000
 20
255.000000
 30
0.0
 10
75.000000
 20
250.540000
 30
0.0
 10
75.000000
 20
245.000000
 30
0.0
  0
LINE
  5
143
100
AcDbEntity
  8
Calque_1
 62
7
100
AcDbLine
 10
75.000000
 20
245.000000
 30
0.0
 11
75.000000
 21
15.000000
 31
0.0
  0
SPLINE
  5
144
100
AcDbEntity
  8
Calque_1
 62
7
100
AcDbSpline
 70
8
 71
3
 72
8
 73
4
 74
0
 40
0
 40
0
 40
0
 40
0
 40
1
 40
1
 40
1
 40
1
 10
75.000000
 20
15.000000
 30
0.0
 10
75.000000
 20
9.460000
 30
0.0
 10
70.540000
 20
5.000000
 30
0.0
 10
65.000000
 20
5.000000
 30
0.0
  0
LINE
  5
145
100
AcDbEntity
  8
Calque_1
 62
7
100
AcDbLine
 10
65.000000
 20
5.000000
 30
0.0
 11
65.000000
 21
5.000000
 31
0.0
  0
SPLINE
  5
146
100
AcDbEntity
  8
Calque_1
 62
7
100
AcDbSpline
 70
8
 71
3
 72
8
 73
4
 74
0
 40
0
 40
0
 40
0
 40
0
 40
1
 40
1
 40
1
 40
1
 10
59.075000
 20
245.000000
 30
0.0
 10
59.075000
 20
248.272287
 30
0.0
 10
61.727712
 20
250.924999
 30
0.0
 10
64.999999
 20
250.925000
 30
0.0
  0
SPLINE
  5
147
100
AcDbEntity
  8
Calque_1
 62
7
100
AcDbSpline
 70
8
 71
3
 72
8
 73
4
 74
0
 40
0
 40
0
 40
0
 40
0
 40
1
 40
1
 40
1
 40
1
 10
64.999999
 20
250.925000
 30
0.0
 10
66.571407
 20
250.925000
 30
0.0
 10
68.078454
 20
250.300761
 30
0.0
 10
69.189607
 20
249.189608
 30
0.0
  0
SPLINE
  5
148
100
AcDbEntity
  8
Calque_1
 62
7
100
AcDbSpline
 70
8
 71
3
 72
8
 73
4
 74
0
 40
0
 40
0
 40
0
 40
0
 40
1
 40
1
 40
1
 40
1
 10
69.189607
 20
249.189608
 30
0.0
 10
70.300761
 20
248.078455
 30
0.0
 10
70.925000
 20
246.571408
 30
0.0
 10
70.925000
 20
245.000000
 30
0.0
  0
SPLINE
  5
149
100
AcDbEntity
  8
Calque_1
 62
7
100
AcDbSpline
 70
8
 71
3
 72
8
 73
4
 74
0
 40
0
 40
0
 40
0
 40
0
 40
1
 40
1
 40
1
 40
1
 10
70.925000
 20
245.000000
 30
0.0
 10
70.925000
 20
243.428592
 30
0.0
 10
70.300761
 20
241.921545
 30
0.0
 10
69.189607
 20
240.810392
 30
0.0
  0
SPLINE
  5
14a
100
AcDbEntity
  8
Calque_1
 62
7
100
AcDbSpline
 70
8
 71
3
 72
8
 73
4
 74
0
 40
0
 40
0
 40
0
 40
0
 40
1
 40
1
 40
1
 40
1
 10
69.189607
 20
240.810392
 30
0.0
 10
68.078454
 20
239.699239
 30
0.0
 10
66.571407
 20
239.075000
 30
0.0
 10
64.999999
 20
239.075000
 30
0.0
  0
SPLINE
  5
14b
100
AcDbEntity
  8
Calque_1
 62
7
100
AcDbSpline
 70
8
 71
3
 72
8
 73
4
 74
0
 40
0
 40
0
 40
0
 40
0
 40
1
 40
1
 40
1
 40
1
 10
64.999999
 20
239.075000
 30
0.0
 10
61.727712
 20
239.075001
 30
0.0
 10
59.075000
 20
241.727713
 30
0.0
 10
59.075000
 20
245.000000
 30
0.0
  0
LINE
  5
14c
100
AcDbEntity
  8
Calque_1
 62
7
100
AcDbLine
 10
59.075000
 20
245.000000
 30
0.0
 11
59.075000
 21
245.000000
 31
0.0
  0
SPLINE
  5
14d
100
AcDbEntity
  8
Calque_1
 62
7
100
AcDbSpline
 70
8
 71
3
 72
8
 73
4
 74
0
 40
0
 40
0
 40
0
 40
0
 40
1
 40
1
 40
1
 40
1
 10
70.925000
 20
130.000000
 30
0.0
 10
70.925000
 20
126.727713
 30
0.0
 10
68.272288
 20
124.075001
 30
0.0
 10
65.000001
 20
124.075000
 30
0.0
  0
SPLINE
  5
14e
100
AcDbEntity
  8
Calque_1
 62
7
100
AcDbSpline
 70
8
 71
3
 72
8
 73
4
 74
0
 40
0
 40
0
 40
0
 40
0
 40
1
 40
1
 40
1
 40
1
 10
65.000001
 20
124.075000
 30
0.0
 10
63.428593
 20
124.075000
 30
0.0
 10
61.921546
 20
124.699239
 30
0.0
 10
60.810393
 20
125.810392
 30
0.0
  0
SPLINE
  5
14f
100
AcDbEntity
  8
Calque_1
 62
7
100
AcDbSpline
 70
8
 71
3
 72
8
 73
4
 74
0
 40
0
 40
0
 40
0
 40
0
 40
1
 40
1
 40
1
 40
1
 10
60.810393
 20
125.810392
 30
0.0
 10
59.699239
 20
126.921545
 30
0.0
 10
59.075000
 20
128.428592
 30
0.0
 10
59.075000
 20
130.000000
 30
0.0
  0
SPLINE
  5
150
100
AcDbEntity
  8
Calque_1
 62
7
100
AcDbSpline
 70
8
 71
3
 72
8
 73
4
 74
0
 40
0
 40
0
 40
0
 40
0
 40
1
 40
1
 40
1
 40
1
 10
59.075000
 20
130.000000
 30
0.0
 10
59.075000
 20
131.571408
 30
0.0
 10
59.699239
 20
133.078455
 30
0.0
 10
60.810393
 20
134.189608
 30
0.0
  0
SPLINE
  5
151
100
AcDbEntity
  8
Calque_1
 62
7
100
AcDbSpline
 70
8
 71
3
 72
8
 73
4
 74
0
 40
0
 40
0
 40
0
 40
0
 40
1
 40
1
 40
1
 40
1
 10
60.810393
 20
134.189608
 30
0.0
 10
61.921546
 20
135.300761
 30
0.0
 10
63.428593
 20
135.925000
 30
0.0
 10
65.000001
 20
135.925000
 30
0.0
  0
SPLINE
  5
152
100
AcDbEntity
  8
Calque_1
 62
7
100
AcDbSpline
 70
8
 71
3
 72
8
 73
4
 74
0
 40
0
 40
0
 40
0
 40
0
 40
1
 40
1
 40
1
 40
1
 10
65.000001
 20
135.925000
 30
0.0
 10
68.272288
 20
135.924999
 30
0.0
 10
70.925000
 20
133.272287
 30
0.0
 10
70.925000
 20
130.000000
 30
0.0
  0
LINE
  5
153
100
AcDbEntity
  8
Calque_1
 62
7
100
AcDbLine
 10
70.925000
 20
130.000000
 30
0.0
 11
70.925000
 21
130.000000
 31
0.0
  0
SPLINE
  5
154
100
AcDbEntity
  8
Calque_1
 62
7
100
AcDbSpline
 70
8
 71
3
 72
8
 73
4
 74
0
 40
0
 40
0
 40
0
 40
0
 40
1
 40
1
 40
1
 40
1
 10
95.925000
 20
15.000000
 30
0.0
 10
95.925000
 20
11.727713
 30
0.0
 10
93.272288
 20
9.075001
 30
0.0
 10
90.000001
 20
9.075000
 30
0.0
  0
SPLINE
  5
155
100
AcDbEntity
  8
Calque_1
 62
7
100
AcDbSpline
 70
8
 71
3
 72
8
 73
4
 74
0
 40
0
 40
0
 40
0
 40
0
 40
1
 40
1
 40
1
 40
1
 10
90.000001
 20
9.075000
 30
0.0
 10
88.428593
 20
9.075000
 30
0.0
 10
86.921546
 20
9.699239
 30
0.0
 10
85.810393
 20
10.810392
 30
0.0
  0
SPLINE
  5
156
100
AcDbEntity
  8
Calque_1
 62
7
100
AcDbSpline
 70
8
 71
3
 72
8
 73
4
 74
0
 40
0
 40
0
 40
0
 40
0
 40
1
 40
1
 40
1
 40
1
 10
85.810393
 20
10.810392
 30
0.0
 10
84.699239
 20
11.921545
 30
0.0
 10
84.075000
 20
13.428592
 30
0.0
 10
84.075000
 20
15.000000
 30
0.0
  0
SPLINE
  5
157
100
AcDbEntity
  8
Calque_1
 62
7
100
AcDbSpline
 70
8
 71
3
 72
8
 73
4
 74
0
 40
0
 40
0
 40
0
 40
0
 40
1
 40
1
 40
1
 40
1
 10
84.075000
 20
15.000000
 30
0.0
 10
84.075000
 20
16.571408
 30
0.0
 10
84.699239
 20
18.078455
 30
0.0
 10
85.810393
 20
19.189608
 30
0.0
  0
SPLINE
  5
158
100
AcDbEntity
  8
Calque_1
 62
7
100
AcDbSpline
 70
8
 71
3
 72
8
 73
4
 74
0
 40
0
 40
0
 40
0
 40
0
 40
1
 40
1
 40
1
 40
1
 10
85.810393
 20
19.189608
 30
0.0
 10
86.921546
 20
20.300761
 30
0.0
 10
88.428593
 20
20.925000
 30
0.0
 10
90.000001
 20
20.925000
 30
0.0
  0
SPLINE
  5
159
100
AcDbEntity
  8
Calque_1
 62
7
100
AcDbSpline
 70
8
 71
3
 72
8
 73
4
 74
0
 40
0
 40
0
 40
0
 40
0
 40
1
 40
1
 40
1
 40
1
 10
90.000001
 20
20.925000
 30
0.0
 10
93.272288
 20
20.924999
 30
0.0
 10
95.925000
 20
18.272287
 30
0.0
 10
95.925000
 20
15.000000
 30
0.0
  0
LINE
  5
15a
100
AcDbEntity
  8
Calque_1
 62
7
100
AcDbLine
 10
95.925000
 20
15.000000
 30
0.0
 11
95.925000
 21
15.000000
 31
0.0
  0
SPLINE
  5
15b
100
AcDbEntity
  8
Calque_1
 62
7
100
AcDbSpline
 70
8
 71
3
 72
8
 73
4
 74
0
 40
0
 40
0
 40
0
 40
0
 40
1
 40
1
 40
1
 40
1
 10
90.000000
 20
5.000000
 30
0.0
 10
84.460000
 20
5.000000
 30
0.0
 10
80.000000
 20
9.460000
 30
0.0
 10
80.000000
 20
15.000000
 30
0.0
  0
LINE
  5
15c
100
AcDbEntity
  8
Calque_1
 62
7
100
AcDbLine
 10
80.000000
 20
15.000000
 30
0.0
 11
80.000000
 21
245.000000
 31
0.0
  0
SPLINE
  5
15d
100
AcDbEntity
  8
Calque_1
 62
7
100
AcDbSpline
 70
8
 71
3
 72
8
 73
4
 74
0
 40
0
 40
0
 40
0
 40
0
 40
1
 40
1
 40
1
 40
1
 10
80.000000
 20
245.000000
 30
0.0
 10
80.000000
 20
250.540000
 30
0.0
 10
84.460000
 20
255.000000
 30
0.0
 10
90.000000
 20
255.000000
 30
0.0
  0
SPLINE
  5
15e
100
AcDbEntity
  8
Calque_1
 62
7
100
AcDbSpline
 70
8
 71
3
 72
8
 73
4
 74
0
 40
0
 40
0
 40
0
 40
0
 40
1
 40
1
 40
1
 40
1
 10
90.000000
 20
255.000000
 30
0.0
 10
95.540000
 20
255.000000
 30
0.0
 10
100.000000
 20
250.540000
 30
0.0
 10
100.000000
 20
245.000000
 30
0.0
  0
LINE
  5
15f
100
AcDbEntity
  8
Calque_1
 62
7
100
AcDbLine
 10
100.000000
 20
245.000000
 30
0.0
 11
100.000000
 21
15.000000
 31
0.0
  0
SPLINE
  5
160
100
AcDbEntity
  8
Calque_1
 62
7
100
AcDbSpline
 70
8
 71
3
 72
8
 73
4
 74
0
 40
0
 40
0
 40
0
 40
0
 40
1
 40
1
 40
1
 40
1
 10
100.000000
 20
15.000000
 30
0.0
 10
100.000000
 20
9.460000
 30
0.0
 10
95.540000
 20
5.000000
 30
0.0
 10
90.000000
 20
5.000000
 30
0.0
  0
LINE
  5
161
100
AcDbEntity
  8
Calque_1
 62
7
100
AcDbLine
 10
90.000000
 20
5.000000
 30
0.0
 11
90.000000
 21
5.000000
 31
0.0
  0
SPLINE
  5
162
100
AcDbEntity
  8
Calque_1
 62
7
100
AcDbSpline
 70
8
 71
3
 72
8
 73
4
 74
0
 40
0
 40
0
 40
0
 40
0
 40
1
 40
1
 40
1
 40
1
 10
84.075000
 20
245.000000
 30
0.0
 10
84.075000
 20
248.272287
 30
0.0
 10
86.727712
 20
250.924999
 30
0.0
 10
89.999999
 20
250.925000
 30
0.0
  0
SPLINE
  5
163
100
AcDbEntity
  8
Calque_1
 62
7
100
AcDbSpline
 70
8
 71
3
 72
8
 73
4
 74
0
 40
0
 40
0
 40
0
 40
0
 40
1
 40
1
 40
1
 40
1
 10
89.999999
 20
250.925000
 30
0.0
 10
91.571407
 20
250.925000
 30
0.0
 10
93.078454
 20
250.300761
 30
0.0
 10
94.189607
 20
249.189608
 30
0.0
  0
SPLINE
  5
164
100
AcDbEntity
  8
Calque_1
 62
7
100
AcDbSpline
 70
8
 71
3
 72
8
 73
4
 74
0
 40
0
 40
0
 40
0
 40
0
 40
1
 40
1
 40
1
 40
1
 10
94.189607
 20
249.189608
 30
0.0
 10
95.300761
 20
248.078455
 30
0.0
 10
95.925000
 20
246.571408
 30
0.0
 10
95.925000
 20
245.000000
 30
0.0
  0
SPLINE
  5
165
100
AcDbEntity
  8
Calque_1
 62
7
100
AcDbSpline
 70
8
 71
3
 72
8
 73
4
 74
0
 40
0
 40
0
 40
0
 40
0
 40
1
 40
1
 40
1
 40
1
 10
95.925000
 20
245.000000
 30
0.0
 10
95.925000
 20
243.428592
 30
0.0
 10
95.300761
 20
241.921545
 30
0.0
 10
94.189607
 20
240.810392
 30
0.0
  0
SPLINE
  5
166
100
AcDbEntity
  8
Calque_1
 62
7
100
AcDbSpline
 70
8
 71
3
 72
8
 73
4
 74
0
 40
0
 40
0
 40
0
 40
0
 40
1
 40
1
 40
1
 40
1
 10
94.189607
 20
240.810392
 30
0.0
 10
93.078454
 20
239.699239
 30
0.0
 10
91.571407
 20
239.075000
 30
0.0
 10
89.999999
 20
239.075000
 30
0.0
  0
SPLINE
  5
167
100
AcDbEntity
  8
Calque_1
 62
7
100
AcDbSpline
 70
8
 71
3
 72
8
 73
4
 74
0
 40
0
 40
0
 40
0
 40
0
 40
1
 40
1
 40
1
 40
1
 10
89.999999
 20
239.075000
 30
0.0
 10
86.727712
 20
239.075001
 30
0.0
 10
84.075000
 20
241.727713
 30
0.0
 10
84.075000
 20
245.000000
 30
0.0
  0
LINE
  5
168
100
AcDbEntity
  8
Calque_1
 62
7
100
AcDbLine
 10
84.075000
 20
245.000000
 30
0.0
 11
84.075000
 21
245.000000
 31
0.0
  0
SPLINE
  5
169
100
AcDbEntity
  8
Calque_1
 62
7
100
AcDbSpline
 70
8
 71
3
 72
8
 73
4
 74
0
 40
0
 40
0
 40
0
 40
0
 40
1
 40
1
 40
1
 40
1
 10
95.925000
 20
130.000000
 30
0.0
 10
95.925000
 20
126.727713
 30
0.0
 10
93.272288
 20
124.075001
 30
0.0
 10
90.000001
 20
124.075000
 30
0.0
  0
SPLINE
  5
16a
100
AcDbEntity
  8
Calque_1
 62
7
100
AcDbSpline
 70
8
 71
3
 72
8
 73
4
 74
0
 40
0
 40
0
 40
0
 40
0
 40
1
 40
1
 40
1
 40
1
 10
90.000001
 20
124.075000
 30
0.0
 10
88.428593
 20
124.075000
 30
0.0
 10
86.921546
 20
124.699239
 30
0.0
 10
85.810393
 20
125.810392
 30
0.0
  0
SPLINE
  5
16b
100
AcDbEntity
  8
Calque_1
 62
7
100
AcDbSpline
 70
8
 71
3
 72
8
 73
4
 74
0
 40
0
 40
0
 40
0
 40
0
 40
1
 40
1
 40
1
 40
1
 10
85.810393
 20
125.810392
 30
0.0
 10
84.699239
 20
126.921545
 30
0.0
 10
84.075000
 20
128.428592
 30
0.0
 10
84.075000
 20
130.000000
 30
0.0
  0
SPLINE
  5
16c
100
AcDbEntity
  8
Calque_1
 62
7
100
AcDbSpline
 70
8
 71
3
 72
8
 73
4
 74
0
 40
0
 40
0
 40
0
 40
0
 40
1
 40
1
 40
1
 40
1
 10
84.075000
 20
130.000000
 30
0.0
 10
84.075000
 20
131.571408
 30
0.0
 10
84.699239
 20
133.078455
 30
0.0
 10
85.810393
 20
134.189608
 30
0.0
  0
SPLINE
  5
16d
100
AcDbEntity
  8
Calque_1
 62
7
100
AcDbSpline
 70
8
 71
3
 72
8
 73
4
 74
0
 40
0
 40
0
 40
0
 40
0
 40
1
 40
1
 40
1
 40
1
 10
85.810393
 20
134.189608
 30
0.0
 10
86.921546
 20
135.300761
 30
0.0
 10
88.428593
 20
135.925000
 30
0.0
 10
90.000001
 20
135.925000
 30
0.0
  0
SPLINE
  5
16e
100
AcDbEntity
  8
Calque_1
 62
7
100
AcDbSpline
 70
8
 71
3
 72
8
 73
4
 74
0
 40
0
 40
0
 40
0
 40
0
 40
1
 40
1
 40
1
 40
1
 10
90.000001
 20
135.925000
 30
0.0
 10
93.272288
 20
135.924999
 30
0.0
 10
95.925000
 20
133.272287
 30
0.0
 10
95.925000
 20
130.000000
 30
0.0
  0
LINE
  5
16f
100
AcDbEntity
  8
Calque_1
 62
7
100
AcDbLine
 10
95.925000
 20
130.000000
 30
0.0
 11
95.925000
 21
130.000000
 31
0.0
  0
SPLINE
  5
170
100
AcDbEntity
  8
Calque_1
 62
7
100
AcDbSpline
 70
8
 71
3
 72
8
 73
4
 74
0
 40
0
 40
0
 40
0
 40
0
 40
1
 40
1
 40
1
 40
1
 10
120.925000
 20
15.000000
 30
0.0
 10
120.925000
 20
11.727713
 30
0.0
 10
118.272287
 20
9.075000
 30
0.0
 10
115.000000
 20
9.075000
 30
0.0
  0
SPLINE
  5
171
100
AcDbEntity
  8
Calque_1
 62
7
100
AcDbSpline
 70
8
 71
3
 72
8
 73
4
 74
0
 40
0
 40
0
 40
0
 40
0
 40
1
 40
1
 40
1
 40
1
 10
115.000000
 20
9.075000
 30
0.0
 10
111.727713
 20
9.075000
 30
0.0
 10
109.075000
 20
11.727713
 30
0.0
 10
109.075000
 20
15.000000
 30
0.0
  0
SPLINE
  5
172
100
AcDbEntity
  8
Calque_1
 62
7
100
AcDbSpline
 70
8
 71
3
 72
8
 73
4
 74
0
 40
0
 40
0
 40
0
 40
0
 40
1
 40
1
 40
1
 40
1
 10
109.075000
 20
15.000000
 30
0.0
 10
109.075000
 20
18.272287
 30
0.0
 10
111.727713
 20
20.925000
 30
0.0
 10
115.000000
 20
20.925000
 30
0.0
  0
SPLINE
  5
173
100
AcDbEntity
  8
Calque_1
 62
7
100
AcDbSpline
 70
8
 71
3
 72
8
 73
4
 74
0
 40
0
 40
0
 40
0
 40
0
 40
1
 40
1
 40
1
 40
1
 10
115.000000
 20
20.925000
 30
0.0
 10
118.272287
 20
20.925000
 30
0.0
 10
120.925000
 20
18.272287
 30
0.0
 10
120.925000
 20
15.000000
 30
0.0
  0
LINE
  5
174
100
AcDbEntity
  8
Calque_1
 62
7
100
AcDbLine
 10
120.925000
 20
15.000000
 30
0.0
 11
120.925000
 21
15.000000
 31
0.0
  0
SPLINE
  5
175
100
AcDbEntity
  8
Calque_1
 62
7
100
AcDbSpline
 70
8
 71
3
 72
8
 73
4
 74
0
 40
0
 40
0
 40
0
 40
0
 40
1
 40
1
 40
1
 40
1
 10
115.000000
 20
5.000000
 30
0.0
 10
109.460000
 20
5.000000
 30
0.0
 10
105.000000
 20
9.460000
 30
0.0
 10
105.000000
 20
15.000000
 30
0.0
  0
LINE
  5
176
100
AcDbEntity
  8
Calque_1
 62
7
100
AcDbLine
 10
105.000000
 20
15.000000
 30
0.0
 11
105.000000
 21
245.000000
 31
0.0
  0
SPLINE
  5
177
100
AcDbEntity
  8
Calque_1
 62
7
100
AcDbSpline
 70
8
 71
3
 72
8
 73
4
 74
0
 40
0
 40
0
 40
0
 40
0
 40
1
 40
1
 40
1
 40
1
 10
105.000000
 20
245.000000
 30
0.0
 10
105.000000
 20
250.540000
 30
0.0
 10
109.460000
 20
255.000000
 30
0.0
 10
115.000000
 20
255.000000
 30
0.0
  0
SPLINE
  5
178
100
AcDbEntity
  8
Calque_1
 62
7
100
AcDbSpline
 70
8
 71
3
 72
8
 73
4
 74
0
 40
0
 40
0
 40
0
 40
0
 40
1
 40
1
 40
1
 40
1
 10
115.000000
 20
255.000000
 30
0.0
 10
120.540000
 20
255.000000
 30
0.0
 10
125.000000
 20
250.540000
 30
0.0
 10
125.000000
 20
245.000000
 30
0.0
  0
LINE
  5
179
100
AcDbEntity
  8
Calque_1
 62
7
100
AcDbLine
 10
125.000000
 20
245.000000
 30
0.0
 11
125.000000
 21
15.000000
 31
0.0
  0
SPLINE
  5
17a
100
AcDbEntity
  8
Calque_1
 62
7
100
AcDbSpline
 70
8
 71
3
 72
8
 73
4
 74
0
 40
0
 40
0
 40
0
 40
0
 40
1
 40
1
 40
1
 40
1
 10
125.000000
 20
15.000000
 30
0.0
 10
125.000000
 20
9.460000
 30
0.0
 10
120.540000
 20
5.000000
 30
0.0
 10
115.000000
 20
5.000000
 30
0.0
  0
LINE
  5
17b
100
AcDbEntity
  8
Calque_1
 62
7
100
AcDbLine
 10
115.000000
 20
5.000000
 30
0.0
 11
115.000000
 21
5.000000
 31
0.0
  0
SPLINE
  5
17c
100
AcDbEntity
  8
Calque_1
 62
7
100
AcDbSpline
 70
8
 71
3
 72
8
 73
4
 74
0
 40
0
 40
0
 40
0
 40
0
 40
1
 40
1
 40
1
 40
1
 10
109.075000
 20
245.000000
 30
0.0
 10
109.075000
 20
248.272287
 30
0.0
 10
111.727713
 20
250.925000
 30
0.0
 10
115.000000
 20
250.925000
 30
0.0
  0
SPLINE
  5
17d
100
AcDbEntity
  8
Calque_1
 62
7
100
AcDbSpline
 70
8
 71
3
 72
8
 73
4
 74
0
 40
0
 40
0
 40
0
 40
0
 40
1
 40
1
 40
1
 40
1
 10
115.000000
 20
250.925000
 30
0.0
 10
118.272287
 20
250.925000
 30
0.0
 10
120.925000
 20
248.272287
 30
0.0
 10
120.925000
 20
245.000000
 30
0.0
  0
SPLINE
  5
17e
100
AcDbEntity
  8
Calque_1
 62
7
100
AcDbSpline
 70
8
 71
3
 72
8
 73
4
 74
0
 40
0
 40
0
 40
0
 40
0
 40
1
 40
1
 40
1
 40
1
 10
120.925000
 20
245.000000
 30
0.0
 10
120.925000
 20
241.727713
 30
0.0
 10
118.272287
 20
239.075000
 30
0.0
 10
115.000000
 20
239.075000
 30
0.0
  0
SPLINE
  5
17f
100
AcDbEntity
  8
Calque_1
 62
7
100
AcDbSpline
 70
8
 71
3
 72
8
 73
4
 74
0
 40
0
 40
0
 40
0
 40
0
 40
1
 40
1
 40
1
 40
1
 10
115.000000
 20
239.075000
 30
0.0
 10
111.727713
 20
239.075000
 30
0.0
 10
109.075000
 20
241.727713
 30
0.0
 10
109.075000
 20
245.000000
 30
0.0
  0
LINE
  5
180
100
AcDbEntity
  8
Calque_1
 62
7
100
AcDbLine
 10
109.075000
 20
245.000000
 30
0.0
 11
109.075000
 21
245.000000
 31
0.0
  0
SPLINE
  5
181
100
AcDbEntity
  8
Calque_1
 62
7
100
AcDbSpline
 70
8
 71
3
 72
8
 73
4
 74
0
 40
0
 40
0
 40
0
 40
0
 40
1
 40
1
 40
1
 40
1
 10
120.925000
 20
130.000000
 30
0.0
 10
120.925000
 20
126.727713
 30
0.0
 10
118.272287
 20
124.075000
 30
0.0
 10
115.000000
 20
124.075000
 30
0.0
  0
SPLINE
  5
182
100
AcDbEntity
  8
Calque_1
 62
7
100
AcDbSpline
 70
8
 71
3
 72
8
 73
4
 74
0
 40
0
 40
0
 40
0
 40
0
 40
1
 40
1
 40
1
 40
1
 10
115.000000
 20
124.075000
 30
0.0
 10
111.727713
 20
124.075000
 30
0.0
 10
109.075000
 20
126.727713
 30
0.0
 10
109.075000
 20
130.000000
 30
0.0
  0
SPLINE
  5
183
100
AcDbEntity
  8
Calque_1
 62
7
100
AcDbSpline
 70
8
 71
3
 72
8
 73
4
 74
0
 40
0
 40
0
 40
0
 40
0
 40
1
 40
1
 40
1
 40
1
 10
109.075000
 20
130.000000
 30
0.0
 10
109.075000
 20
133.272287
 30
0.0
 10
111.727713
 20
135.925000
 30
0.0
 10
115.000000
 20
135.925000
 30
0.0
  0
SPLINE
  5
184
100
AcDbEntity
  8
Calque_1
 62
7
100
AcDbSpline
 70
8
 71
3
 72
8
 73
4
 74
0
 40
0
 40
0
 40
0
 40
0
 40
1
 40
1
 40
1
 40
1
 10
115.000000
 20
135.925000
 30
0.0
 10
118.272287
 20
135.925000
 30
0.0
 10
120.925000
 20
133.272287
 30
0.0
 10
120.925000
 20
130.000000
 30
0.0
  0
LINE
  5
185
100
AcDbEntity
  8
Calque_1
 62
7
100
AcDbLine
 10
120.925000
 20
130.000000
 30
0.0
 11
120.925000
 21
130.000000
 31
0.0
  0
SPLINE
  5
186
100
AcDbEntity
  8
Calque_1
 62
7
100
AcDbSpline
 70
8
 71
3
 72
8
 73
4
 74
0
 40
0
 40
0
 40
0
 40
0
 40
1
 40
1
 40
1
 40
1
 10
145.925000
 20
15.000000
 30
0.0
 10
145.925000
 20
11.727713
 30
0.0
 10
143.272287
 20
9.075000
 30
0.0
 10
140.000000
 20
9.075000
 30
0.0
  0
SPLINE
  5
187
100
AcDbEntity
  8
Calque_1
 62
7
100
AcDbSpline
 70
8
 71
3
 72
8
 73
4
 74
0
 40
0
 40
0
 40
0
 40
0
 40
1
 40
1
 40
1
 40
1
 10
140.000000
 20
9.075000
 30
0.0
 10
136.727713
 20
9.075000
 30
0.0
 10
134.075000
 20
11.727713
 30
0.0
 10
134.075000
 20
15.000000
 30
0.0
  0
SPLINE
  5
188
100
AcDbEntity
  8
Calque_1
 62
7
100
AcDbSpline
 70
8
 71
3
 72
8
 73
4
 74
0
 40
0
 40
0
 40
0
 40
0
 40
1
 40
1
 40
1
 40
1
 10
134.075000
 20
15.000000
 30
0.0
 10
134.075000
 20
18.272287
 30
0.0
 10
136.727713
 20
20.925000
 30
0.0
 10
140.000000
 20
20.925000
 30
0.0
  0
SPLINE
  5
189
100
AcDbEntity
  8
Calque_1
 62
7
100
AcDbSpline
 70
8
 71
3
 72
8
 73
4
 74
0
 40
0
 40
0
 40
0
 40
0
 40
1
 40
1
 40
1
 40
1
 10
140.000000
 20
20.925000
 30
0.0
 10
143.272287
 20
20.925000
 30
0.0
 10
145.925000
 20
18.272287
 30
0.0
 10
145.925000
 20
15.000000
 30
0.0
  0
LINE
  5
18a
100
AcDbEntity
  8
Calque_1
 62
7
100
AcDbLine
 10
145.925000
 20
15.000000
 30
0.0
 11
145.925000
 21
15.000000
 31
0.0
  0
SPLINE
  5
18b
100
AcDbEntity
  8
Calque_1
 62
7
100
AcDbSpline
 70
8
 71
3
 72
8
 73
4
 74
0
 40
0
 40
0
 40
0
 40
0
 40
1
 40
1
 40
1
 40
1
 10
140.000000
 20
5.000000
 30
0.0
 10
134.460000
 20
5.000000
 30
0.0
 10
130.000000
 20
9.460000
 30
0.0
 10
130.000000
 20
15.000000
 30
0.0
  0
LINE
  5
18c
100
AcDbEntity
  8
Calque_1
 62
7
100
AcDbLine
 10
130.000000
 20
15.000000
 30
0.0
 11
130.000000
 21
245.000000
 31
0.0
  0
SPLINE
  5
18d
100
AcDbEntity
  8
Calque_1
 62
7
100
AcDbSpline
 70
8
 71
3
 72
8
 73
4
 74
0
 40
0
 40
0
 40
0
 40
0
 40
1
 40
1
 40
1
 40
1
 10
130.000000
 20
245.000000
 30
0.0
 10
130.000000
 20
250.540000
 30
0.0
 10
134.460000
 20
255.000000
 30
0.0
 10
140.000000
 20
255.000000
 30
0.0
  0
SPLINE
  5
18e
100
AcDbEntity
  8
Calque_1
 62
7
100
AcDbSpline
 70
8
 71
3
 72
8
 73
4
 74
0
 40
0
 40
0
 40
0
 40
0
 40
1
 40
1
 40
1
 40
1
 10
140.000000
 20
255.000000
 30
0.0
 10
145.540000
 20
255.000000
 30
0.0
 10
150.000000
 20
250.540000
 30
0.0
 10
150.000000
 20
245.000000
 30
0.0
  0
LINE
  5
18f
100
AcDbEntity
  8
Calque_1
 62
7
100
AcDbLine
 10
150.000000
 20
245.000000
 30
0.0
 11
150.000000
 21
15.000000
 31
0.0
  0
SPLINE
  5
190
100
AcDbEntity
  8
Calque_1
 62
7
100
AcDbSpline
 70
8
 71
3
 72
8
 73
4
 74
0
 40
0
 40
0
 40
0
 40
0
 40
1
 40
1
 40
1
 40
1
 10
150.000000
 20
15.000000
 30
0.0
 10
150.000000
 20
9.460000
 30
0.0
 10
145.540000
 20
5.000000
 30
0.0
 10
140.000000
 20
5.000000
 30
0.0
  0
LINE
  5
191
100
AcDbEntity
  8
Calque_1
 62
7
100
AcDbLine
 10
140.000000
 20
5.000000
 30
0.0
 11
140.000000
 21
5.000000
 31
0.0
  0
SPLINE
  5
192
100
AcDbEntity
  8
Calque_1
 62
7
100
AcDbSpline
 70
8
 71
3
 72
8
 73
4
 74
0
 40
0
 40
0
 40
0
 40
0
 40
1
 40
1
 40
1
 40
1
 10
134.075000
 20
245.000000
 30
0.0
 10
134.075000
 20
248.272287
 30
0.0
 10
136.727713
 20
250.925000
 30
0.0
 10
140.000000
 20
250.925000
 30
0.0
  0
SPLINE
  5
193
100
AcDbEntity
  8
Calque_1
 62
7
100
AcDbSpline
 70
8
 71
3
 72
8
 73
4
 74
0
 40
0
 40
0
 40
0
 40
0
 40
1
 40
1
 40
1
 40
1
 10
140.000000
 20
250.925000
 30
0.0
 10
143.272287
 20
250.925000
 30
0.0
 10
145.925000
 20
248.272287
 30
0.0
 10
145.925000
 20
245.000000
 30
0.0
  0
SPLINE
  5
194
100
AcDbEntity
  8
Calque_1
 62
7
100
AcDbSpline
 70
8
 71
3
 72
8
 73
4
 74
0
 40
0
 40
0
 40
0
 40
0
 40
1
 40
1
 40
1
 40
1
 10
145.925000
 20
245.000000
 30
0.0
 10
145.925000
 20
241.727713
 30
0.0
 10
143.272287
 20
239.075000
 30
0.0
 10
140.000000
 20
239.075000
 30
0.0
  0
SPLINE
  5
195
100
AcDbEntity
  8
Calque_1
 62
7
100
AcDbSpline
 70
8
 71
3
 72
8
 73
4
 74
0
 40
0
 40
0
 40
0
 40
0
 40
1
 40
1
 40
1
 40
1
 10
140.000000
 20
239.075000
 30
0.0
 10
136.727713
 20
239.075000
 30
0.0
 10
134.075000
 20
241.727713
 30
0.0
 10
134.075000
 20
245.000000
 30
0.0
  0
LINE
  5
196
100
AcDbEntity
  8
Calque_1
 62
7
100
AcDbLine
 10
134.075000
 20
245.000000
 30
0.0
 11
134.075000
 21
245.000000
 31
0.0
  0
SPLINE
  5
197
100
AcDbEntity
  8
Calque_1
 62
7
100
AcDbSpline
 70
8
 71
3
 72
8
 73
4
 74
0
 40
0
 40
0
 40
0
 40
0
 40
1
 40
1
 40
1
 40
1
 10
145.925000
 20
130.000000
 30
0.0
 10
145.925000
 20
126.727713
 30
0.0
 10
143.272287
 20
124.075000
 30
0.0
 10
140.000000
 20
124.075000
 30
0.0
  0
SPLINE
  5
198
100
AcDbEntity
  8
Calque_1
 62
7
100
AcDbSpline
 70
8
 71
3
 72
8
 73
4
 74
0
 40
0
 40
0
 40
0
 40
0
 40
1
 40
1
 40
1
 40
1
 10
140.000000
 20
124.075000
 30
0.0
 10
136.727713
 20
124.075000
 30
0.0
 10
134.075000
 20
126.727713
 30
0.0
 10
134.075000
 20
130.000000
 30
0.0
  0
SPLINE
  5
199
100
AcDbEntity
  8
Calque_1
 62
7
100
AcDbSpline
 70
8
 71
3
 72
8
 73
4
 74
0
 40
0
 40
0
 40
0
 40
0
 40
1
 40
1
 40
1
 40
1
 10
134.075000
 20
130.000000
 30
0.0
 10
134.075000
 20
133.272287
 30
0.0
 10
136.727713
 20
135.925000
 30
0.0
 10
140.000000
 20
135.925000
 30
0.0
  0
SPLINE
  5
19a
100
AcDbEntity
  8
Calque_1
 62
7
100
AcDbSpline
 70
8
 71
3
 72
8
 73
4
 74
0
 40
0
 40
0
 40
0
 40
0
 40
1
 40
1
 40
1
 40
1
 10
140.000000
 20
135.925000
 30
0.0
 10
143.272287
 20
135.925000
 30
0.0
 10
145.925000
 20
133.272287
 30
0.0
 10
145.925000
 20
130.000000
 30
0.0
  0
LINE
  5
19b
100
AcDbEntity
  8
Calque_1
 62
7
100
AcDbLine
 10
145.925000
 20
130.000000
 30
0.0
 11
145.925000
 21
130.000000
 31
0.0
  0
SPLINE
  5
19c
100
AcDbEntity
  8
Calque_1
 62
7
100
AcDbSpline
 70
8
 71
3
 72
8
 73
4
 74
0
 40
0
 40
0
 40
0
 40
0
 40
1
 40
1
 40
1
 40
1
 10
170.925000
 20
15.000000
 30
0.0
 10
170.925000
 20
11.727713
 30
0.0
 10
168.272287
 20
9.075000
 30
0.0
 10
165.000000
 20
9.075000
 30
0.0
  0
SPLINE
  5
19d
100
AcDbEntity
  8
Calque_1
 62
7
100
AcDbSpline
 70
8
 71
3
 72
8
 73
4
 74
0
 40
0
 40
0
 40
0
 40
0
 40
1
 40
1
 40
1
 40
1
 10
165.000000
 20
9.075000
 30
0.0
 10
161.727713
 20
9.075000
 30
0.0
 10
159.075000
 20
11.727713
 30
0.0
 10
159.075000
 20
15.000000
 30
0.0
  0
SPLINE
  5
19e
100
AcDbEntity
  8
Calque_1
 62
7
100
AcDbSpline
 70
8
 71
3
 72
8
 73
4
 74
0
 40
0
 40
0
 40
0
 40
0
 40
1
 40
1
 40
1
 40
1
 10
159.075000
 20
15.000000
 30
0.0
 10
159.075000
 20
18.272287
 30
0.0
 10
161.727713
 20
20.925000
 30
0.0
 10
165.000000
 20
20.925000
 30
0.0
  0
SPLINE
  5
19f
100
AcDbEntity
  8
Calque_1
 62
7
100
AcDbSpline
 70
8
 71
3
 72
8
 73
4
 74
0
 40
0
 40
0
 40
0
 40
0
 40
1
 40
1
 40
1
 40
1
 10
165.000000
 20
20.925000
 30
0.0
 10
168.272287
 20
20.925000
 30
0.0
 10
170.925000
 20
18.272287
 30
0.0
 10
170.925000
 20
15.000000
 30
0.0
  0
LINE
  5
1a0
100
AcDbEntity
  8
Calque_1
 62
7
100
AcDbLine
 10
170.925000
 20
15.000000
 30
0.0
 11
170.925000
 21
15.000000
 31
0.0
  0
SPLINE
  5
1a1
100
AcDbEntity
  8
Calque_1
 62
7
100
AcDbSpline
 70
8
 71
3
 72
8
 73
4
 74
0
 40
0
 40
0
 40
0
 40
0
 40
1
 40
1
 40
1
 40
1
 10
165.000000
 20
5.000000
 30
0.0
 10
159.460000
 20
5.000000
 30
0.0
 10
155.000000
 20
9.460000
 30
0.0
 10
155.000000
 20
15.000000
 30
0.0
  0
LINE
  5
1a2
100
AcDbEntity
  8
Calque_1
 62
7
100
AcDbLine
 10
155.000000
 20
15.000000
 30
0.0
 11
155.000000
 21
245.000000
 31
0.0
  0
SPLINE
  5
1a3
100
AcDbEntity
  8
Calque_1
 62
7
100
AcDbSpline
 70
8
 71
3
 72
8
 73
4
 74
0
 40
0
 40
0
 40
0
 40
0
 40
1
 40
1
 40
1
 40
1
 10
155.000000
 20
245.000000
 30
0.0
 10
155.000000
 20
250.540000
 30
0.0
 10
159.460000
 20
255.000000
 30
0.0
 10
165.000000
 20
255.000000
 30
0.0
  0
SPLINE
  5
1a4
100
AcDbEntity
  8
Calque_1
 62
7
100
AcDbSpline
 70
8
 71
3
 72
8
 73
4
 74
0
 40
0
 40
0
 40
0
 40
0
 40
1
 40
1
 40
1
 40
1
 10
165.000000
 20
255.000000
 30
0.0
 10
170.540000
 20
255.000000
 30
0.0
 10
175.000000
 20
250.540000
 30
0.0
 10
175.000000
 20
245.000000
 30
0.0
  0
LINE
  5
1a5
100
AcDbEntity
  8
Calque_1
 62
7
100
AcDbLine
 10
175.000000
 20
245.000000
 30
0.0
 11
175.000000
 21
15.000000
 31
0.0
  0
SPLINE
  5
1a6
100
AcDbEntity
  8
Calque_1
 62
7
100
AcDbSpline
 70
8
 71
3
 72
8
 73
4
 74
0
 40
0
 40
0
 40
0
 40
0
 40
1
 40
1
 40
1
 40
1
 10
175.000000
 20
15.000000
 30
0.0
 10
175.000000
 20
9.460000
 30
0.0
 10
170.540000
 20
5.000000
 30
0.0
 10
165.000000
 20
5.000000
 30
0.0
  0
LINE
  5
1a7
100
AcDbEntity
  8
Calque_1
 62
7
100
AcDbLine
 10
165.000000
 20
5.000000
 30
0.0
 11
165.000000
 21
5.000000
 31
0.0
  0
SPLINE
  5
1a8
100
AcDbEntity
  8
Calque_1
 62
7
100
AcDbSpline
 70
8
 71
3
 72
8
 73
4
 74
0
 40
0
 40
0
 40
0
 40
0
 40
1
 40
1
 40
1
 40
1
 10
159.075000
 20
245.000000
 30
0.0
 10
159.075000
 20
248.272287
 30
0.0
 10
161.727713
 20
250.925000
 30
0.0
 10
165.000000
 20
250.925000
 30
0.0
  0
SPLINE
  5
1a9
100
AcDbEntity
  8
Calque_1
 62
7
100
AcDbSpline
 70
8
 71
3
 72
8
 73
4
 74
0
 40
0
 40
0
 40
0
 40
0
 40
1
 40
1
 40
1
 40
1
 10
165.000000
 20
250.925000
 30
0.0
 10
168.272287
 20
250.925000
 30
0.0
 10
170.925000
 20
248.272287
 30
0.0
 10
170.925000
 20
245.000000
 30
0.0
  0
SPLINE
  5
1aa
100
AcDbEntity
  8
Calque_1
 62
7
100
AcDbSpline
 70
8
 71
3
 72
8
 73
4
 74
0
 40
0
 40
0
 40
0
 40
0
 40
1
 40
1
 40
1
 40
1
 10
170.925000
 20
245.000000
 30
0.0
 10
170.925000
 20
241.727713
 30
0.0
 10
168.272287
 20
239.075000
 30
0.0
 10
165.000000
 20
239.075000
 30
0.0
  0
SPLINE
  5
1ab
100
AcDbEntity
  8
Calque_1
 62
7
100
AcDbSpline
 70
8
 71
3
 72
8
 73
4
 74
0
 40
0
 40
0
 40
0
 40
0
 40
1
 40
1
 40
1
 40
1
 10
165.000000
 20
239.075000
 30
0.0
 10
161.727713
 20
239.075000
 30
0.0
 10
159.075000
 20
241.727713
 30
0.0
 10
159.075000
 20
245.000000
 30
0.0
  0
LINE
  5
1ac
100
AcDbEntity
  8
Calque_1
 62
7
100
AcDbLine
 10
159.075000
 20
245.000000
 30
0.0
 11
159.075000
 21
245.000000
 31
0.0
  0
SPLINE
  5
1ad
100
AcDbEntity
  8
Calque_1
 62
7
100
AcDbSpline
 70
8
 71
3
 72
8
 73
4
 74
0
 40
0
 40
0
 40
0
 40
0
 40
1
 40
1
 40
1
 40
1
 10
170.925000
 20
130.000000
 30
0.0
 10
170.925000
 20
126.727713
 30
0.0
 10
168.272287
 20
124.075000
 30
0.0
 10
165.000000
 20
124.075000
 30
0.0
  0
SPLINE
  5
1ae
100
AcDbEntity
  8
Calque_1
 62
7
100
AcDbSpline
 70
8
 71
3
 72
8
 73
4
 74
0
 40
0
 40
0
 40
0
 40
0
 40
1
 40
1
 40
1
 40
1
 10
165.000000
 20
124.075000
 30
0.0
 10
161.727713
 20
124.075000
 30
0.0
 10
159.075000
 20
126.727713
 30
0.0
 10
159.075000
 20
130.000000
 30
0.0
  0
SPLINE
  5
1af
100
AcDbEntity
  8
Calque_1
 62
7
100
AcDbSpline
 70
8
 71
3
 72
8
 73
4
 74
0
 40
0
 40
0
 40
0
 40
0
 40
1
 40
1
 40
1
 40
1
 10
159.075000
 20
130.000000
 30
0.0
 10
159.075000
 20
133.272287
 30
0.0
 10
161.727713
 20
135.925000
 30
0.0
 10
165.000000
 20
135.925000
 30
0.0
  0
SPLINE
  5
1b0
100
AcDbEntity
  8
Calque_1
 62
7
100
AcDbSpline
 70
8
 71
3
 72
8
 73
4
 74
0
 40
0
 40
0
 40
0
 40
0
 40
1
 40
1
 40
1
 40
1
 10
165.000000
 20
135.925000
 30
0.0
 10
168.272287
 20
135.925000
 30
0.0
 10
170.925000
 20
133.272287
 30
0.0
 10
170.925000
 20
130.000000
 30
0.0
  0
LINE
  5
1b1
100
AcDbEntity
  8
Calque_1
 62
7
100
AcDbLine
 10
170.925000
 20
130.000000
 30
0.0
 11
170.925000
 21
130.000000
 31
0.0
  0
SPLINE
  5
1b2
100
AcDbEntity
  8
Calque_1
 62
7
100
AcDbSpline
 70
8
 71
3
 72
8
 73
4
 74
0
 40
0
 40
0
 40
0
 40
0
 40
1
 40
1
 40
1
 40
1
 10
195.925000
 20
15.000000
 30
0.0
 10
195.925000
 20
11.727713
 30
0.0
 10
193.272287
 20
9.075000
 30
0.0
 10
190.000000
 20
9.075000
 30
0.0
  0
SPLINE
  5
1b3
100
AcDbEntity
  8
Calque_1
 62
7
100
AcDbSpline
 70
8
 71
3
 72
8
 73
4
 74
0
 40
0
 40
0
 40
0
 40
0
 40
1
 40
1
 40
1
 40
1
 10
190.000000
 20
9.075000
 30
0.0
 10
186.727713
 20
9.075000
 30
0.0
 10
184.075000
 20
11.727713
 30
0.0
 10
184.075000
 20
15.000000
 30
0.0
  0
SPLINE
  5
1b4
100
AcDbEntity
  8
Calque_1
 62
7
100
AcDbSpline
 70
8
 71
3
 72
8
 73
4
 74
0
 40
0
 40
0
 40
0
 40
0
 40
1
 40
1
 40
1
 40
1
 10
184.075000
 20
15.000000
 30
0.0
 10
184.075000
 20
18.272287
 30
0.0
 10
186.727713
 20
20.925000
 30
0.0
 10
190.000000
 20
20.925000
 30
0.0
  0
SPLINE
  5
1b5
100
AcDbEntity
  8
Calque_1
 62
7
100
AcDbSpline
 70
8
 71
3
 72
8
 73
4
 74
0
 40
0
 40
0
 40
0
 40
0
 40
1
 40
1
 40
1
 40
1
 10
190.000000
 20
20.925000
 30
0.0
 10
193.272287
 20
20.925000
 30
0.0
 10
195.925000
 20
18.272287
 30
0.0
 10
195.925000
 20
15.000000
 30
0.0
  0
LINE
  5
1b6
100
AcDbEntity
  8
Calque_1
 62
7
100
AcDbLine
 10
195.925000
 20
15.000000
 30
0.0
 11
195.925000
 21
15.000000
 31
0.0
  0
SPLINE
  5
1b7
100
AcDbEntity
  8
Calque_1
 62
7
100
AcDbSpline
 70
8
 71
3
 72
8
 73
4
 74
0
 40
0
 40
0
 40
0
 40
0
 40
1
 40
1
 40
1
 40
1
 10
190.000000
 20
5.000000
 30
0.0
 10
184.460000
 20
5.000000
 30
0.0
 10
180.000000
 20
9.460000
 30
0.0
 10
180.000000
 20
15.000000
 30
0.0
  0
LINE
  5
1b8
100
AcDbEntity
  8
Calque_1
 62
7
100
AcDbLine
 10
180.000000
 20
15.000000
 30
0.0
 11
180.000000
 21
245.000000
 31
0.0
  0
SPLINE
  5
1b9
100
AcDbEntity
  8
Calque_1
 62
7
100
AcDbSpline
 70
8
 71
3
 72
8
 73
4
 74
0
 40
0
 40
0
 40
0
 40
0
 40
1
 40
1
 40
1
 40
1
 10
180.000000
 20
245.000000
 30
0.0
 10
180.000000
 20
250.540000
 30
0.0
 10
184.460000
 20
255.000000
 30
0.0
 10
190.000000
 20
255.000000
 30
0.0
  0
SPLINE
  5
1ba
100
AcDbEntity
  8
Calque_1
 62
7
100
AcDbSpline
 70
8
 71
3
 72
8
 73
4
 74
0
 40
0
 40
0
 40
0
 40
0
 40
1
 40
1
 40
1
 40
1
 10
190.000000
 20
255.000000
 30
0.0
 10
195.540000
 20
255.000000
 30
0.0
 10
200.000000
 20
250.540000
 30
0.0
 10
200.000000
 20
245.000000
 30
0.0
  0
LINE
  5
1bb
100
AcDbEntity
  8
Calque_1
 62
7
100
AcDbLine
 10
200.000000
 20
245.000000
 30
0.0
 11
200.000000
 21
15.000000
 31
0.0
  0
SPLINE
  5
1bc
100
AcDbEntity
  8
Calque_1
 62
7
100
AcDbSpline
 70
8
 71
3
 72
8
 73
4
 74
0
 40
0
 40
0
 40
0
 40
0
 40
1
 40
1
 40
1
 40
1
 10
200.000000
 20
15.000000
 30
0.0
 10
200.000000
 20
9.460000
 30
0.0
 10
195.540000
 20
5.000000
 30
0.0
 10
190.000000
 20
5.000000
 30
0.0
  0
LINE
  5
1bd
100
AcDbEntity
  8
Calque_1
 62
7
100
AcDbLine
 10
190.000000
 20
5.000000
 30
0.0
 11
190.000000
 21
5.000000
 31
0.0
  0
SPLINE
  5
1be
100
AcDbEntity
  8
Calque_1
 62
7
100
AcDbSpline
 70
8
 71
3
 72
8
 73
4
 74
0
 40
0
 40
0
 40
0
 40
0
 40
1
 40
1
 40
1
 40
1
 10
184.075000
 20
245.000000
 30
0.0
 10
184.075000
 20
248.272287
 30
0.0
 10
186.727713
 20
250.925000
 30
0.0
 10
190.000000
 20
250.925000
 30
0.0
  0
SPLINE
  5
1bf
100
AcDbEntity
  8
Calque_1
 62
7
100
AcDbSpline
 70
8
 71
3
 72
8
 73
4
 74
0
 40
0
 40
0
 40
0
 40
0
 40
1
 40
1
 40
1
 40
1
 10
190.000000
 20
250.925000
 30
0.0
 10
193.272287
 20
250.925000
 30
0.0
 10
195.925000
 20
248.272287
 30
0.0
 10
195.925000
 20
245.000000
 30
0.0
  0
SPLINE
  5
1c0
100
AcDbEntity
  8
Calque_1
 62
7
100
AcDbSpline
 70
8
 71
3
 72
8
 73
4
 74
0
 40
0
 40
0
 40
0
 40
0
 40
1
 40
1
 40
1
 40
1
 10
195.925000
 20
245.000000
 30
0.0
 10
195.925000
 20
241.727713
 30
0.0
 10
193.272287
 20
239.075000
 30
0.0
 10
190.000000
 20
239.075000
 30
0.0
  0
SPLINE
  5
1c1
100
AcDbEntity
  8
Calque_1
 62
7
100
AcDbSpline
 70
8
 71
3
 72
8
 73
4
 74
0
 40
0
 40
0
 40
0
 40
0
 40
1
 40
1
 40
1
 40
1
 10
190.000000
 20
239.075000
 30
0.0
 10
186.727713
 20
239.075000
 30
0.0
 10
184.075000
 20
241.727713
 30
0.0
 10
184.075000
 20
245.000000
 30
0.0
  0
LINE
  5
1c2
100
AcDbEntity
  8
Calque_1
 62
7
100
AcDbLine
 10
184.075000
 20
245.000000
 30
0.0
 11
184.075000
 21
245.000000
 31
0.0
  0
SPLINE
  5
1c3
100
AcDbEntity
  8
Calque_1
 62
7
100
AcDbSpline
 70
8
 71
3
 72
8
 73
4
 74
0
 40
0
 40
0
 40
0
 40
0
 40
1
 40
1
 40
1
 40
1
 10
195.925000
 20
130.000000
 30
0.0
 10
195.925000
 20
126.727713
 30
0.0
 10
193.272287
 20
124.075000
 30
0.0
 10
190.000000
 20
124.075000
 30
0.0
  0
SPLINE
  5
1c4
100
AcDbEntity
  8
Calque_1
 62
7
100
AcDbSpline
 70
8
 71
3
 72
8
 73
4
 74
0
 40
0
 40
0
 40
0
 40
0
 40
1
 40
1
 40
1
 40
1
 10
190.000000
 20
124.075000
 30
0.0
 10
186.727713
 20
124.075000
 30
0.0
 10
184.075000
 20
126.727713
 30
0.0
 10
184.075000
 20
130.000000
 30
0.0
  0
SPLINE
  5
1c5
100
AcDbEntity
  8
Calque_1
 62
7
100
AcDbSpline
 70
8
 71
3
 72
8
 73
4
 74
0
 40
0
 40
0
 40
0
 40
0
 40
1
 40
1
 40
1
 40
1
 10
184.075000
 20
130.000000
 30
0.0
 10
184.075000
 20
133.272287
 30
0.0
 10
186.727713
 20
135.925000
 30
0.0
 10
190.000000
 20
135.925000
 30
0.0
  0
SPLINE
  5
1c6
100
AcDbEntity
  8
Calque_1
 62
7
100
AcDbSpline
 70
8
 71
3
 72
8
 73
4
 74
0
 40
0
 40
0
 40
0
 40
0
 40
1
 40
1
 40
1
 40
1
 10
190.000000
 20
135.925000
 30
0.0
 10
193.272287
 20
135.925000
 30
0.0
 10
195.925000
 20
133.272287
 30
0.0
 10
195.925000
 20
130.000000
 30
0.0
  0
LINE
  5
1c7
100
AcDbEntity
  8
Calque_1
 62
7
100
AcDbLine
 10
195.925000
 20
130.000000
 30
0.0
 11
195.925000
 21
130.000000
 31
0.0
  0
ENDSEC
  0
SECTION
  2
OBJECTS
  0
DICTIONARY
  5
C
330
0
100
AcDbDictionary
  3
ACAD_GROUP
350
D
  3
ACAD_MLINESTYLE
350
17
  0
DICTIONARY
  5
D
330
C
100
AcDbDictionary
  0
DICTIONARY
  5
1A
330
C
100
AcDbDictionary
  0
DICTIONARY
  5
17
330
C
100
AcDbDictionary
  3
STANDARD
350
18
  0
DICTIONARY
  5
19
330
C
100
AcDbDictionary
  0
ENDSEC
  0
EOF
