solid FoldaRapX
facet normal -0.447213595499955 -0.894427190999918 0.0
outer loop
vertex -271.254219060246 -151.274327287303 5.99999994563336
vertex -281.254219060246 -146.274327287303 0.500000000394402
vertex -271.254219060246 -151.274327287303 0.500000000394402
endloop
endfacet
facet normal -0.447213595499955 -0.894427190999918 0.0
outer loop
vertex -281.254219060246 -146.274327287303 0.500000000394402
vertex -271.254219060246 -151.274327287303 5.99999994563336
vertex -281.254219060246 -146.274327287303 5.99999994563336
endloop
endfacet
facet normal 1.0 0.0 0.0
outer loop
vertex -271.254219060246 -131.274327287303 0.500000000394402
vertex -271.254219060246 -151.274327287303 5.99999994563336
vertex -271.254219060246 -151.274327287303 0.500000000394402
endloop
endfacet
facet normal 1.0 0.0 0.0
outer loop
vertex -271.254219060246 -151.274327287303 5.99999994563336
vertex -271.254219060246 -131.274327287303 0.500000000394402
vertex -271.254219060246 -131.274327287303 5.99999994563336
endloop
endfacet
facet normal -1.0 0.0 0.0
outer loop
vertex -281.254219060246 -136.274327287303 5.99999994563336
vertex -281.254219060246 -146.274327287303 0.500000000394402
vertex -281.254219060246 -146.274327287303 5.99999994563336
endloop
endfacet
facet normal -1.0 0.0 0.0
outer loop
vertex -281.254219060246 -146.274327287303 0.500000000394402
vertex -281.254219060246 -136.274327287303 5.99999994563336
vertex -281.254219060246 -136.274327287303 0.500000000394402
endloop
endfacet
facet normal -0.447213595499955 0.894427190999918 0.0
outer loop
vertex -281.254219060246 -136.274327287303 5.99999994563336
vertex -271.254219060246 -131.274327287303 0.500000000394402
vertex -281.254219060246 -136.274327287303 0.500000000394402
endloop
endfacet
facet normal -0.447213595499955 0.894427190999918 0.0
outer loop
vertex -271.254219060246 -131.274327287303 0.500000000394402
vertex -281.254219060246 -136.274327287303 5.99999994563336
vertex -271.254219060246 -131.274327287303 5.99999994563336
endloop
endfacet
facet normal 0.0 0.0 1.0
outer loop
vertex -279.15199653911 -142.050784422612 2.49999994562476
vertex -279.15199653911 -140.497870151997 2.49999994562476
vertex -279.254219060243 -141.274327287304 2.49999994562476
endloop
endfacet
facet normal 0.0 0.0 1.0
outer loop
vertex -279.15199653911 -140.497870151997 2.49999994562476
vertex -279.15199653911 -142.050784422612 2.49999994562476
vertex -278.852295271597 -142.774327287304 2.49999994562476
endloop
endfacet
facet normal 0.0 0.0 1.0
outer loop
vertex -279.15199653911 -140.497870151997 2.49999994562476
vertex -278.852295271597 -142.774327287304 2.49999994562476
vertex -278.852295271597 -139.774327287304 2.49999994562476
endloop
endfacet
facet normal 0.0 0.0 1.0
outer loop
vertex -278.852295271597 -139.774327287304 2.49999994562476
vertex -278.852295271597 -142.774327287304 2.49999994562476
vertex -278.375539403803 -143.395647630864 2.49999994562476
endloop
endfacet
facet normal 0.0 0.0 1.0
outer loop
vertex -278.852295271597 -139.774327287304 2.49999994562476
vertex -278.375539403803 -143.395647630864 2.49999994562476
vertex -278.375539403803 -139.153006943745 2.49999994562476
endloop
endfacet
facet normal 0.0 0.0 1.0
outer loop
vertex -278.375539403803 -139.153006943745 2.49999994562476
vertex -278.375539403803 -143.395647630864 2.49999994562476
vertex -277.754219060243 -143.872403498658 2.49999994562476
endloop
endfacet
facet normal 0.0 0.0 1.0
outer loop
vertex -278.375539403803 -139.153006943745 2.49999994562476
vertex -277.754219060243 -143.872403498658 2.49999994562476
vertex -277.954219060243 -141.274327287304 2.49999994562476
endloop
endfacet
facet normal 0.0 0.0 1.0
outer loop
vertex -277.954219060243 -141.274327287304 2.49999994562476
vertex -277.754219060243 -143.872403498658 2.49999994562476
vertex -277.896292964935 -141.714319663979 2.49999994552491
endloop
endfacet
facet normal 0.0 0.0 1.0
outer loop
vertex -277.896292964935 -141.714319663979 2.49999994552491
vertex -277.754219060243 -143.872403498658 2.49999994562476
vertex -277.726462246677 -142.124327287304 2.49999994543186
endloop
endfacet
facet normal 0.0 0.0 1.0
outer loop
vertex -277.726462246677 -142.124327287304 2.49999994543186
vertex -277.754219060243 -143.872403498658 2.49999994562476
vertex -277.030676195551 -144.172104766172 2.49999994562476
endloop
endfacet
facet normal 0.0 0.0 1.0
outer loop
vertex -277.726462246677 -142.124327287304 2.49999994543186
vertex -277.030676195551 -144.172104766172 2.49999994562476
vertex -277.45630058826 -142.476408815321 2.49999994535195
endloop
endfacet
facet normal 0.0 0.0 1.0
outer loop
vertex -277.45630058826 -142.476408815321 2.49999994535195
vertex -277.030676195551 -144.172104766172 2.49999994562476
vertex -277.104219060243 -142.746570473738 2.49999994529064
endloop
endfacet
facet normal 0.0 0.0 1.0
outer loop
vertex -277.104219060243 -142.746570473738 2.49999994529064
vertex -277.030676195551 -144.172104766172 2.49999994562476
vertex -276.694211436918 -142.916401191996 2.4999999452521
endloop
endfacet
facet normal 0.0 0.0 1.0
outer loop
vertex -276.694211436918 -142.916401191996 2.4999999452521
vertex -277.030676195551 -144.172104766172 2.49999994562476
vertex -276.254219060243 -144.274327287304 2.49999994562476
endloop
endfacet
facet normal 0.0 0.0 1.0
outer loop
vertex -276.694211436918 -142.916401191996 2.4999999452521
vertex -276.254219060243 -144.274327287304 2.49999994562476
vertex -276.254219060243 -142.974327287304 2.49999994523895
endloop
endfacet
facet normal 0.0 0.0 1.0
outer loop
vertex -276.254219060243 -142.974327287304 2.49999994523895
vertex -276.254219060243 -144.274327287304 2.49999994562476
vertex -275.477761924936 -144.172104766172 2.49999994562476
endloop
endfacet
facet normal 0.0 0.0 1.0
outer loop
vertex -276.254219060243 -142.974327287304 2.49999994523895
vertex -275.477761924936 -144.172104766172 2.49999994562476
vertex -275.814226683569 -142.916401191996 2.4999999452521
endloop
endfacet
facet normal 0.0 0.0 1.0
outer loop
vertex -275.814226683569 -142.916401191996 2.4999999452521
vertex -275.477761924936 -144.172104766172 2.49999994562476
vertex -275.404219060243 -142.746570473738 2.49999994529064
endloop
endfacet
facet normal 0.0 0.0 1.0
outer loop
vertex -275.404219060243 -142.746570473738 2.49999994529064
vertex -275.477761924936 -144.172104766172 2.49999994562476
vertex -274.754219060243 -143.872403498658 2.49999994562476
endloop
endfacet
facet normal 0.0 0.0 1.0
outer loop
vertex -275.404219060243 -142.746570473738 2.49999994529064
vertex -274.754219060243 -143.872403498658 2.49999994562476
vertex -275.052137532226 -142.476408815321 2.49999994535195
endloop
endfacet
facet normal 0.0 0.0 1.0
outer loop
vertex -275.052137532226 -142.476408815321 2.49999994535195
vertex -274.754219060243 -143.872403498658 2.49999994562476
vertex -274.78197587381 -142.124327287304 2.49999994543186
endloop
endfacet
facet normal 0.0 0.0 1.0
outer loop
vertex -274.78197587381 -142.124327287304 2.49999994543186
vertex -274.754219060243 -143.872403498658 2.49999994562476
vertex -274.612145155552 -141.714319663979 2.49999994552491
endloop
endfacet
facet normal 0.0 0.0 1.0
outer loop
vertex -274.612145155552 -141.714319663979 2.49999994552491
vertex -274.754219060243 -143.872403498658 2.49999994562476
vertex -274.132898716683 -143.395647630864 2.49999994562476
endloop
endfacet
facet normal 0.0 0.0 1.0
outer loop
vertex -274.612145155552 -141.714319663979 2.49999994552491
vertex -274.132898716683 -143.395647630864 2.49999994562476
vertex -274.554219060243 -141.274327287304 2.49999994562476
endloop
endfacet
facet normal 0.0 0.0 1.0
outer loop
vertex -277.954219060243 -141.274327287304 2.49999994562476
vertex -277.754219060243 -138.676251075951 2.49999994562476
vertex -278.375539403803 -139.153006943745 2.49999994562476
endloop
endfacet
facet normal 0.0 0.0 1.0
outer loop
vertex -277.754219060243 -138.676251075951 2.49999994562476
vertex -277.954219060243 -141.274327287304 2.49999994562476
vertex -277.896292964935 -140.83433491063 2.49999994572462
endloop
endfacet
facet normal 0.0 0.0 1.0
outer loop
vertex -277.754219060243 -138.676251075951 2.49999994562476
vertex -277.896292964935 -140.83433491063 2.49999994572462
vertex -277.726462246677 -140.424327287304 2.49999994581767
endloop
endfacet
facet normal 0.0 0.0 1.0
outer loop
vertex -277.754219060243 -138.676251075951 2.49999994562476
vertex -277.726462246677 -140.424327287304 2.49999994581767
vertex -277.030676195551 -138.376549808437 2.49999994562476
endloop
endfacet
facet normal 0.0 0.0 1.0
outer loop
vertex -277.030676195551 -138.376549808437 2.49999994562476
vertex -277.726462246677 -140.424327287304 2.49999994581767
vertex -277.45630058826 -140.072245759287 2.49999994589757
endloop
endfacet
facet normal 0.0 0.0 1.0
outer loop
vertex -277.030676195551 -138.376549808437 2.49999994562476
vertex -277.45630058826 -140.072245759287 2.49999994589757
vertex -277.104219060243 -139.802084100871 2.49999994595888
endloop
endfacet
facet normal 0.0 0.0 1.0
outer loop
vertex -277.030676195551 -138.376549808437 2.49999994562476
vertex -277.104219060243 -139.802084100871 2.49999994595888
vertex -276.694211436918 -139.632253382613 2.49999994599743
endloop
endfacet
facet normal 0.0 0.0 1.0
outer loop
vertex -277.030676195551 -138.376549808437 2.49999994562476
vertex -276.694211436918 -139.632253382613 2.49999994599743
vertex -276.254219060243 -138.274327287304 2.49999994562476
endloop
endfacet
facet normal 0.0 0.0 1.0
outer loop
vertex -276.254219060243 -138.274327287304 2.49999994562476
vertex -276.694211436918 -139.632253382613 2.49999994599743
vertex -276.254219060243 -139.574327287304 2.49999994601057
endloop
endfacet
facet normal 0.0 0.0 1.0
outer loop
vertex -276.254219060243 -138.274327287304 2.49999994562476
vertex -276.254219060243 -139.574327287304 2.49999994601057
vertex -275.814226683569 -139.632253382613 2.49999994599743
endloop
endfacet
facet normal 0.0 0.0 1.0
outer loop
vertex -276.254219060243 -138.274327287304 2.49999994562476
vertex -275.814226683569 -139.632253382613 2.49999994599743
vertex -275.477761924936 -138.376549808437 2.49999994562476
endloop
endfacet
facet normal 0.0 0.0 1.0
outer loop
vertex -275.477761924936 -138.376549808437 2.49999994562476
vertex -275.814226683569 -139.632253382613 2.49999994599743
vertex -275.404219060243 -139.802084100871 2.49999994595888
endloop
endfacet
facet normal 0.0 0.0 1.0
outer loop
vertex -275.477761924936 -138.376549808437 2.49999994562476
vertex -275.404219060243 -139.802084100871 2.49999994595888
vertex -274.754219060243 -138.676251075951 2.49999994562476
endloop
endfacet
facet normal 0.0 0.0 1.0
outer loop
vertex -274.754219060243 -138.676251075951 2.49999994562476
vertex -275.404219060243 -139.802084100871 2.49999994595888
vertex -275.052137532226 -140.072245759287 2.49999994589757
endloop
endfacet
facet normal 0.0 0.0 1.0
outer loop
vertex -274.754219060243 -138.676251075951 2.49999994562476
vertex -275.052137532226 -140.072245759287 2.49999994589757
vertex -274.78197587381 -140.424327287304 2.49999994581767
endloop
endfacet
facet normal 0.0 0.0 1.0
outer loop
vertex -274.754219060243 -138.676251075951 2.49999994562476
vertex -274.78197587381 -140.424327287304 2.49999994581767
vertex -274.612145155552 -140.83433491063 2.49999994572462
endloop
endfacet
facet normal 0.0 0.0 1.0
outer loop
vertex -274.754219060243 -138.676251075951 2.49999994562476
vertex -274.612145155552 -140.83433491063 2.49999994572462
vertex -274.132898716683 -139.153006943745 2.49999994562476
endloop
endfacet
facet normal 0.0 0.0 1.0
outer loop
vertex -274.132898716683 -139.153006943745 2.49999994562476
vertex -274.612145155552 -140.83433491063 2.49999994572462
vertex -274.554219060243 -141.274327287304 2.49999994562476
endloop
endfacet
facet normal 0.0 0.0 1.0
outer loop
vertex -274.132898716683 -139.153006943745 2.49999994562476
vertex -274.554219060243 -141.274327287304 2.49999994562476
vertex -274.132898716683 -143.395647630864 2.49999994562476
endloop
endfacet
facet normal 0.0 0.0 1.0
outer loop
vertex -274.132898716683 -139.153006943745 2.49999994562476
vertex -274.132898716683 -143.395647630864 2.49999994562476
vertex -273.65614284889 -142.774327287304 2.49999994562476
endloop
endfacet
facet normal 0.0 0.0 1.0
outer loop
vertex -274.132898716683 -139.153006943745 2.49999994562476
vertex -273.65614284889 -142.774327287304 2.49999994562476
vertex -273.65614284889 -139.774327287304 2.49999994562476
endloop
endfacet
facet normal 0.0 0.0 1.0
outer loop
vertex -273.65614284889 -139.774327287304 2.49999994562476
vertex -273.65614284889 -142.774327287304 2.49999994562476
vertex -273.356441581376 -142.050784422612 2.49999994562476
endloop
endfacet
facet normal 0.0 0.0 1.0
outer loop
vertex -273.65614284889 -139.774327287304 2.49999994562476
vertex -273.356441581376 -142.050784422612 2.49999994562476
vertex -273.356441581376 -140.497870151997 2.49999994562476
endloop
endfacet
facet normal 0.0 0.0 1.0
outer loop
vertex -273.356441581376 -140.497870151997 2.49999994562476
vertex -273.356441581376 -142.050784422612 2.49999994562476
vertex -273.254219060243 -141.274327287304 2.49999994562476
endloop
endfacet
facet normal -0.258819045102526 0.965925826289067 0.0
outer loop
vertex -275.477761924936 -144.172104766172 5.99999994562476
vertex -274.754219060243 -143.872403498658 2.49999994562476
vertex -275.477761924936 -144.172104766172 2.49999994562476
endloop
endfacet
facet normal -0.499999999999999 0.86602540378444 0.0
outer loop
vertex -274.754219060243 -143.872403498658 2.49999994562476
vertex -275.477761924936 -144.172104766172 5.99999994562476
vertex -274.754219060243 -143.872403498658 5.99999994562476
endloop
endfacet
facet normal -0.499999999999999 0.86602540378444 0.0
outer loop
vertex -274.754219060243 -143.872403498658 5.99999994562476
vertex -274.132898716683 -143.395647630864 2.49999994562476
vertex -274.754219060243 -143.872403498658 2.49999994562476
endloop
endfacet
facet normal -0.707106781186551 0.707106781186544 0.0
outer loop
vertex -274.132898716683 -143.395647630864 2.49999994562476
vertex -274.754219060243 -143.872403498658 5.99999994562476
vertex -274.132898716683 -143.395647630864 5.99999994562476
endloop
endfacet
facet normal -0.866025403784455 0.499999999999971 0.0
outer loop
vertex -273.65614284889 -142.774327287304 5.99999994562476
vertex -274.132898716683 -143.395647630864 2.49999994562476
vertex -274.132898716683 -143.395647630864 5.99999994562476
endloop
endfacet
facet normal -0.707106781186551 0.707106781186544 0.0
outer loop
vertex -274.132898716683 -143.395647630864 2.49999994562476
vertex -273.65614284889 -142.774327287304 5.99999994562476
vertex -273.65614284889 -142.774327287304 2.49999994562476
endloop
endfacet
facet normal -0.965925826289067 0.258819045102525 0.0
outer loop
vertex -273.356441581376 -142.050784422612 5.99999994562476
vertex -273.65614284889 -142.774327287304 2.49999994562476
vertex -273.65614284889 -142.774327287304 5.99999994562476
endloop
endfacet
facet normal -0.866025403784455 0.499999999999971 0.0
outer loop
vertex -273.65614284889 -142.774327287304 2.49999994562476
vertex -273.356441581376 -142.050784422612 5.99999994562476
vertex -273.356441581376 -142.050784422612 2.49999994562476
endloop
endfacet
facet normal -1.0 2.40599967182468e-016 0.0
outer loop
vertex -273.254219060243 -141.274327287304 5.99999994562476
vertex -273.356441581376 -142.050784422612 2.49999994562476
vertex -273.356441581376 -142.050784422612 5.99999994562476
endloop
endfacet
facet normal -0.965925826289067 0.258819045102525 0.0
outer loop
vertex -273.356441581376 -142.050784422612 2.49999994562476
vertex -273.254219060243 -141.274327287304 5.99999994562476
vertex -273.254219060243 -141.274327287304 2.49999994562476
endloop
endfacet
facet normal -0.965925826289067 -0.258819045102525 0.0
outer loop
vertex -273.356441581376 -140.497870151997 5.99999994562476
vertex -273.254219060243 -141.274327287304 2.49999994562476
vertex -273.254219060243 -141.274327287304 5.99999994562476
endloop
endfacet
facet normal -1.0 2.40599967182468e-016 0.0
outer loop
vertex -273.254219060243 -141.274327287304 2.49999994562476
vertex -273.356441581376 -140.497870151997 5.99999994562476
vertex -273.356441581376 -140.497870151997 2.49999994562476
endloop
endfacet
facet normal -0.866025403784455 -0.499999999999972 0.0
outer loop
vertex -273.65614284889 -139.774327287304 5.99999994562476
vertex -273.356441581376 -140.497870151997 2.49999994562476
vertex -273.356441581376 -140.497870151997 5.99999994562476
endloop
endfacet
facet normal -0.965925826289067 -0.258819045102525 0.0
outer loop
vertex -273.356441581376 -140.497870151997 2.49999994562476
vertex -273.65614284889 -139.774327287304 5.99999994562476
vertex -273.65614284889 -139.774327287304 2.49999994562476
endloop
endfacet
facet normal -0.707106781186551 -0.707106781186544 0.0
outer loop
vertex -274.132898716683 -139.153006943745 5.99999994562476
vertex -273.65614284889 -139.774327287304 2.49999994562476
vertex -273.65614284889 -139.774327287304 5.99999994562476
endloop
endfacet
facet normal -0.866025403784455 -0.499999999999972 0.0
outer loop
vertex -273.65614284889 -139.774327287304 2.49999994562476
vertex -274.132898716683 -139.153006943745 5.99999994562476
vertex -274.132898716683 -139.153006943745 2.49999994562476
endloop
endfacet
facet normal -0.707106781186551 -0.707106781186544 0.0
outer loop
vertex -274.132898716683 -139.153006943745 5.99999994562476
vertex -274.754219060243 -138.676251075951 2.49999994562476
vertex -274.132898716683 -139.153006943745 2.49999994562476
endloop
endfacet
facet normal -0.499999999999999 -0.866025403784439 0.0
outer loop
vertex -274.754219060243 -138.676251075951 2.49999994562476
vertex -274.132898716683 -139.153006943745 5.99999994562476
vertex -274.754219060243 -138.676251075951 5.99999994562476
endloop
endfacet
facet normal -0.499999999999999 -0.866025403784439 0.0
outer loop
vertex -274.754219060243 -138.676251075951 5.99999994562476
vertex -275.477761924936 -138.376549808437 2.49999994562476
vertex -274.754219060243 -138.676251075951 2.49999994562476
endloop
endfacet
facet normal -0.258819045102525 -0.965925826289067 0.0
outer loop
vertex -275.477761924936 -138.376549808437 2.49999994562476
vertex -274.754219060243 -138.676251075951 5.99999994562476
vertex -275.477761924936 -138.376549808437 5.99999994562476
endloop
endfacet
facet normal -0.258819045102525 -0.965925826289067 0.0
outer loop
vertex -275.477761924936 -138.376549808437 5.99999994562476
vertex -276.254219060243 -138.274327287304 2.49999994562476
vertex -275.477761924936 -138.376549808437 2.49999994562476
endloop
endfacet
facet normal 1.79113308902503e-015 -1.0 0.0
outer loop
vertex -276.254219060243 -138.274327287304 2.49999994562476
vertex -275.477761924936 -138.376549808437 5.99999994562476
vertex -276.254219060243 -138.274327287304 5.99999994562476
endloop
endfacet
facet normal 1.79113308902503e-015 -1.0 0.0
outer loop
vertex -276.254219060243 -138.274327287304 5.99999994562476
vertex -277.030676195551 -138.376549808437 2.49999994562476
vertex -276.254219060243 -138.274327287304 2.49999994562476
endloop
endfacet
facet normal 0.258819045102526 -0.965925826289067 0.0
outer loop
vertex -277.030676195551 -138.376549808437 2.49999994562476
vertex -276.254219060243 -138.274327287304 5.99999994562476
vertex -277.030676195551 -138.376549808437 5.99999994562476
endloop
endfacet
facet normal 0.258819045102526 -0.965925826289067 0.0
outer loop
vertex -277.030676195551 -138.376549808437 5.99999994562476
vertex -277.754219060243 -138.676251075951 2.49999994562476
vertex -277.030676195551 -138.376549808437 2.49999994562476
endloop
endfacet
facet normal 0.499999999999999 -0.86602540378444 0.0
outer loop
vertex -277.754219060243 -138.676251075951 2.49999994562476
vertex -277.030676195551 -138.376549808437 5.99999994562476
vertex -277.754219060243 -138.676251075951 5.99999994562476
endloop
endfacet
facet normal 0.499999999999999 -0.86602540378444 0.0
outer loop
vertex -277.754219060243 -138.676251075951 5.99999994562476
vertex -278.375539403803 -139.153006943745 2.49999994562476
vertex -277.754219060243 -138.676251075951 2.49999994562476
endloop
endfacet
facet normal 0.707106781186551 -0.707106781186544 0.0
outer loop
vertex -278.375539403803 -139.153006943745 2.49999994562476
vertex -277.754219060243 -138.676251075951 5.99999994562476
vertex -278.375539403803 -139.153006943745 5.99999994562476
endloop
endfacet
facet normal 0.707106781186551 -0.707106781186544 0.0
outer loop
vertex -278.375539403803 -139.153006943745 2.49999994562476
vertex -278.852295271597 -139.774327287304 5.99999994562476
vertex -278.852295271597 -139.774327287304 2.49999994562476
endloop
endfacet
facet normal 0.866025403784455 -0.499999999999971 0.0
outer loop
vertex -278.852295271597 -139.774327287304 5.99999994562476
vertex -278.375539403803 -139.153006943745 2.49999994562476
vertex -278.375539403803 -139.153006943745 5.99999994562476
endloop
endfacet
facet normal 0.866025403784455 -0.499999999999971 0.0
outer loop
vertex -278.852295271597 -139.774327287304 2.49999994562476
vertex -279.15199653911 -140.497870151997 5.99999994562476
vertex -279.15199653911 -140.497870151997 2.49999994562476
endloop
endfacet
facet normal 0.965925826289067 -0.258819045102525 0.0
outer loop
vertex -279.15199653911 -140.497870151997 5.99999994562476
vertex -278.852295271597 -139.774327287304 2.49999994562476
vertex -278.852295271597 -139.774327287304 5.99999994562476
endloop
endfacet
facet normal 0.965925826289067 -0.258819045102525 0.0
outer loop
vertex -279.15199653911 -140.497870151997 2.49999994562476
vertex -279.254219060243 -141.274327287304 5.99999994562476
vertex -279.254219060243 -141.274327287304 2.49999994562476
endloop
endfacet
facet normal 1.0 -2.40599967182468e-016 0.0
outer loop
vertex -279.254219060243 -141.274327287304 5.99999994562476
vertex -279.15199653911 -140.497870151997 2.49999994562476
vertex -279.15199653911 -140.497870151997 5.99999994562476
endloop
endfacet
facet normal 1.0 -2.40599967182468e-016 0.0
outer loop
vertex -279.254219060243 -141.274327287304 2.49999994562476
vertex -279.15199653911 -142.050784422612 5.99999994562476
vertex -279.15199653911 -142.050784422612 2.49999994562476
endloop
endfacet
facet normal 0.965925826289067 0.258819045102525 0.0
outer loop
vertex -279.15199653911 -142.050784422612 5.99999994562476
vertex -279.254219060243 -141.274327287304 2.49999994562476
vertex -279.254219060243 -141.274327287304 5.99999994562476
endloop
endfacet
facet normal 0.965925826289067 0.258819045102525 0.0
outer loop
vertex -279.15199653911 -142.050784422612 2.49999994562476
vertex -278.852295271597 -142.774327287304 5.99999994562476
vertex -278.852295271597 -142.774327287304 2.49999994562476
endloop
endfacet
facet normal 0.866025403784455 0.499999999999971 0.0
outer loop
vertex -278.852295271597 -142.774327287304 5.99999994562476
vertex -279.15199653911 -142.050784422612 2.49999994562476
vertex -279.15199653911 -142.050784422612 5.99999994562476
endloop
endfacet
facet normal 0.866025403784455 0.499999999999971 0.0
outer loop
vertex -278.852295271597 -142.774327287304 2.49999994562476
vertex -278.375539403803 -143.395647630864 5.99999994562476
vertex -278.375539403803 -143.395647630864 2.49999994562476
endloop
endfacet
facet normal 0.707106781186551 0.707106781186544 0.0
outer loop
vertex -278.375539403803 -143.395647630864 5.99999994562476
vertex -278.852295271597 -142.774327287304 2.49999994562476
vertex -278.852295271597 -142.774327287304 5.99999994562476
endloop
endfacet
facet normal 0.707106781186551 0.707106781186544 0.0
outer loop
vertex -278.375539403803 -143.395647630864 5.99999994562476
vertex -277.754219060243 -143.872403498658 2.49999994562476
vertex -278.375539403803 -143.395647630864 2.49999994562476
endloop
endfacet
facet normal 0.499999999999999 0.86602540378444 0.0
outer loop
vertex -277.754219060243 -143.872403498658 2.49999994562476
vertex -278.375539403803 -143.395647630864 5.99999994562476
vertex -277.754219060243 -143.872403498658 5.99999994562476
endloop
endfacet
facet normal 0.499999999999999 0.86602540378444 0.0
outer loop
vertex -277.754219060243 -143.872403498658 5.99999994562476
vertex -277.030676195551 -144.172104766172 2.49999994562476
vertex -277.754219060243 -143.872403498658 2.49999994562476
endloop
endfacet
facet normal 0.258819045102526 0.965925826289067 0.0
outer loop
vertex -277.030676195551 -144.172104766172 2.49999994562476
vertex -277.754219060243 -143.872403498658 5.99999994562476
vertex -277.030676195551 -144.172104766172 5.99999994562476
endloop
endfacet
facet normal 0.258819045102526 0.965925826289067 0.0
outer loop
vertex -277.030676195551 -144.172104766172 5.99999994562476
vertex -276.254219060243 -144.274327287304 2.49999994562476
vertex -277.030676195551 -144.172104766172 2.49999994562476
endloop
endfacet
facet normal 0.0 1.0 0.0
outer loop
vertex -276.254219060243 -144.274327287304 2.49999994562476
vertex -277.030676195551 -144.172104766172 5.99999994562476
vertex -276.254219060243 -144.274327287304 5.99999994562476
endloop
endfacet
facet normal 0.0 1.0 0.0
outer loop
vertex -276.254219060243 -144.274327287304 5.99999994562476
vertex -275.477761924936 -144.172104766172 2.49999994562476
vertex -276.254219060243 -144.274327287304 2.49999994562476
endloop
endfacet
facet normal -0.258819045102526 0.965925826289067 0.0
outer loop
vertex -275.477761924936 -144.172104766172 2.49999994562476
vertex -276.254219060243 -144.274327287304 5.99999994562476
vertex -275.477761924936 -144.172104766172 5.99999994562476
endloop
endfacet
facet normal 0.0 0.0 1.0
outer loop
vertex -281.254219060246 -146.274327287303 5.99999994563336
vertex -279.15199653911 -142.050784422612 5.99999994562476
vertex -281.254219060246 -136.274327287303 5.99999994563336
endloop
endfacet
facet normal 0.0 0.0 1.0
outer loop
vertex -279.15199653911 -142.050784422612 5.99999994562476
vertex -281.254219060246 -146.274327287303 5.99999994563336
vertex -278.852295271597 -142.774327287304 5.99999994562476
endloop
endfacet
facet normal 0.0 0.0 1.0
outer loop
vertex -278.852295271597 -142.774327287304 5.99999994562476
vertex -281.254219060246 -146.274327287303 5.99999994563336
vertex -278.375539403803 -143.395647630864 5.99999994562476
endloop
endfacet
facet normal 0.0 0.0 1.0
outer loop
vertex -278.375539403803 -143.395647630864 5.99999994562476
vertex -281.254219060246 -146.274327287303 5.99999994563336
vertex -271.254219060246 -151.274327287303 5.99999994563336
endloop
endfacet
facet normal 0.0 0.0 1.0
outer loop
vertex -281.254219060246 -136.274327287303 5.99999994563336
vertex -279.15199653911 -142.050784422612 5.99999994562476
vertex -279.254219060243 -141.274327287304 5.99999994562476
endloop
endfacet
facet normal 0.0 0.0 1.0
outer loop
vertex -278.375539403803 -143.395647630864 5.99999994562476
vertex -271.254219060246 -151.274327287303 5.99999994563336
vertex -277.754219060243 -143.872403498658 5.99999994562476
endloop
endfacet
facet normal 0.0 0.0 1.0
outer loop
vertex -277.754219060243 -143.872403498658 5.99999994562476
vertex -271.254219060246 -151.274327287303 5.99999994563336
vertex -277.030676195551 -144.172104766172 5.99999994562476
endloop
endfacet
facet normal 0.0 0.0 1.0
outer loop
vertex -277.030676195551 -144.172104766172 5.99999994562476
vertex -271.254219060246 -151.274327287303 5.99999994563336
vertex -276.254219060243 -144.274327287304 5.99999994562476
endloop
endfacet
facet normal 0.0 0.0 1.0
outer loop
vertex -276.254219060243 -144.274327287304 5.99999994562476
vertex -271.254219060246 -151.274327287303 5.99999994563336
vertex -275.477761924936 -144.172104766172 5.99999994562476
endloop
endfacet
facet normal 0.0 0.0 1.0
outer loop
vertex -275.477761924936 -144.172104766172 5.99999994562476
vertex -271.254219060246 -151.274327287303 5.99999994563336
vertex -274.754219060243 -143.872403498658 5.99999994562476
endloop
endfacet
facet normal 0.0 0.0 1.0
outer loop
vertex -274.754219060243 -143.872403498658 5.99999994562476
vertex -271.254219060246 -151.274327287303 5.99999994563336
vertex -274.132898716683 -143.395647630864 5.99999994562476
endloop
endfacet
facet normal 0.0 0.0 1.0
outer loop
vertex -274.132898716683 -143.395647630864 5.99999994562476
vertex -271.254219060246 -151.274327287303 5.99999994563336
vertex -273.65614284889 -142.774327287304 5.99999994562476
endloop
endfacet
facet normal 0.0 0.0 1.0
outer loop
vertex -273.65614284889 -142.774327287304 5.99999994562476
vertex -271.254219060246 -151.274327287303 5.99999994563336
vertex -273.356441581376 -142.050784422612 5.99999994562476
endloop
endfacet
facet normal 0.0 0.0 1.0
outer loop
vertex -273.356441581376 -142.050784422612 5.99999994562476
vertex -271.254219060246 -151.274327287303 5.99999994563336
vertex -273.254219060243 -141.274327287304 5.99999994562476
endloop
endfacet
facet normal 0.0 0.0 1.0
outer loop
vertex -281.254219060246 -136.274327287303 5.99999994563336
vertex -278.375539403803 -139.153006943745 5.99999994562476
vertex -271.254219060246 -131.274327287303 5.99999994563336
endloop
endfacet
facet normal 0.0 0.0 1.0
outer loop
vertex -278.375539403803 -139.153006943745 5.99999994562476
vertex -281.254219060246 -136.274327287303 5.99999994563336
vertex -278.852295271597 -139.774327287304 5.99999994562476
endloop
endfacet
facet normal 0.0 0.0 1.0
outer loop
vertex -278.852295271597 -139.774327287304 5.99999994562476
vertex -281.254219060246 -136.274327287303 5.99999994563336
vertex -279.15199653911 -140.497870151997 5.99999994562476
endloop
endfacet
facet normal 0.0 0.0 1.0
outer loop
vertex -279.15199653911 -140.497870151997 5.99999994562476
vertex -281.254219060246 -136.274327287303 5.99999994563336
vertex -279.254219060243 -141.274327287304 5.99999994562476
endloop
endfacet
facet normal 0.0 0.0 1.0
outer loop
vertex -271.254219060246 -131.274327287303 5.99999994563336
vertex -278.375539403803 -139.153006943745 5.99999994562476
vertex -277.754219060243 -138.676251075951 5.99999994562476
endloop
endfacet
facet normal 0.0 0.0 1.0
outer loop
vertex -271.254219060246 -131.274327287303 5.99999994563336
vertex -277.754219060243 -138.676251075951 5.99999994562476
vertex -277.030676195551 -138.376549808437 5.99999994562476
endloop
endfacet
facet normal 0.0 0.0 1.0
outer loop
vertex -271.254219060246 -131.274327287303 5.99999994563336
vertex -277.030676195551 -138.376549808437 5.99999994562476
vertex -276.254219060243 -138.274327287304 5.99999994562476
endloop
endfacet
facet normal 0.0 0.0 1.0
outer loop
vertex -271.254219060246 -131.274327287303 5.99999994563336
vertex -276.254219060243 -138.274327287304 5.99999994562476
vertex -275.477761924936 -138.376549808437 5.99999994562476
endloop
endfacet
facet normal 0.0 0.0 1.0
outer loop
vertex -271.254219060246 -131.274327287303 5.99999994563336
vertex -275.477761924936 -138.376549808437 5.99999994562476
vertex -274.754219060243 -138.676251075951 5.99999994562476
endloop
endfacet
facet normal 0.0 0.0 1.0
outer loop
vertex -271.254219060246 -131.274327287303 5.99999994563336
vertex -274.754219060243 -138.676251075951 5.99999994562476
vertex -274.132898716683 -139.153006943745 5.99999994562476
endloop
endfacet
facet normal 0.0 0.0 1.0
outer loop
vertex -271.254219060246 -131.274327287303 5.99999994563336
vertex -274.132898716683 -139.153006943745 5.99999994562476
vertex -273.65614284889 -139.774327287304 5.99999994562476
endloop
endfacet
facet normal 0.0 0.0 1.0
outer loop
vertex -271.254219060246 -131.274327287303 5.99999994563336
vertex -273.65614284889 -139.774327287304 5.99999994562476
vertex -273.356441581376 -140.497870151997 5.99999994562476
endloop
endfacet
facet normal 0.0 0.0 1.0
outer loop
vertex -271.254219060246 -131.274327287303 5.99999994563336
vertex -273.356441581376 -140.497870151997 5.99999994562476
vertex -273.254219060243 -141.274327287304 5.99999994562476
endloop
endfacet
facet normal 0.0 0.0 1.0
outer loop
vertex -271.254219060246 -131.274327287303 5.99999994563336
vertex -273.254219060243 -141.274327287304 5.99999994562476
vertex -271.254219060246 -151.274327287303 5.99999994563336
endloop
endfacet
facet normal 0.0 0.0 -1.0
outer loop
vertex -280.754219060246 -136.583344281678 3.94403332215632e-010
vertex -278.159474948569 -140.174327287304 3.85810189351687e-010
vertex -280.754219060246 -145.965310292928 3.94403332215632e-010
endloop
endfacet
facet normal 0.0 0.0 -1.0
outer loop
vertex -278.159474948569 -140.174327287304 3.85810189351687e-010
vertex -280.754219060246 -136.583344281678 3.94403332215632e-010
vertex -277.809853978854 -139.718692368694 3.85810189351687e-010
endloop
endfacet
facet normal 0.0 0.0 -1.0
outer loop
vertex -277.809853978854 -139.718692368694 3.85810189351687e-010
vertex -280.754219060246 -136.583344281678 3.94403332215632e-010
vertex -271.754219060246 -132.083344281678 3.94403332215632e-010
endloop
endfacet
facet normal 0.0 0.0 -1.0
outer loop
vertex -280.754219060246 -145.965310292928 3.94403332215632e-010
vertex -278.159474948569 -140.174327287304 3.85810189351687e-010
vertex -278.379255878079 -140.704925388079 3.85810189351687e-010
endloop
endfacet
facet normal 0.0 0.0 -1.0
outer loop
vertex -280.754219060246 -145.965310292928 3.94403332215632e-010
vertex -278.379255878079 -140.704925388079 3.85810189351687e-010
vertex -278.454219060243 -141.274327287304 3.85810189351687e-010
endloop
endfacet
facet normal 0.0 0.0 -1.0
outer loop
vertex -277.809853978854 -139.718692368694 3.85810189351687e-010
vertex -271.754219060246 -132.083344281678 3.94403332215632e-010
vertex -277.354219060243 -139.369071398979 3.85810189351687e-010
endloop
endfacet
facet normal 0.0 0.0 -1.0
outer loop
vertex -277.354219060243 -139.369071398979 3.85810189351687e-010
vertex -271.754219060246 -132.083344281678 3.94403332215632e-010
vertex -276.823620959469 -139.149290469468 3.85810189351687e-010
endloop
endfacet
facet normal 0.0 0.0 -1.0
outer loop
vertex -276.823620959469 -139.149290469468 3.85810189351687e-010
vertex -271.754219060246 -132.083344281678 3.94403332215632e-010
vertex -276.254219060243 -139.074327287304 3.85810189351687e-010
endloop
endfacet
facet normal 0.0 0.0 -1.0
outer loop
vertex -276.254219060243 -139.074327287304 3.85810189351687e-010
vertex -271.754219060246 -132.083344281678 3.94403332215632e-010
vertex -275.684817161018 -139.149290469468 3.85810189351687e-010
endloop
endfacet
facet normal 0.0 0.0 -1.0
outer loop
vertex -275.684817161018 -139.149290469468 3.85810189351687e-010
vertex -271.754219060246 -132.083344281678 3.94403332215632e-010
vertex -275.154219060243 -139.369071398979 3.85810189351687e-010
endloop
endfacet
facet normal 0.0 0.0 -1.0
outer loop
vertex -275.154219060243 -139.369071398979 3.85810189351687e-010
vertex -271.754219060246 -132.083344281678 3.94403332215632e-010
vertex -274.698584141633 -139.718692368694 3.85810189351687e-010
endloop
endfacet
facet normal 0.0 0.0 -1.0
outer loop
vertex -274.698584141633 -139.718692368694 3.85810189351687e-010
vertex -271.754219060246 -132.083344281678 3.94403332215632e-010
vertex -274.348963171917 -140.174327287304 3.85810189351687e-010
endloop
endfacet
facet normal 0.0 0.0 -1.0
outer loop
vertex -274.348963171917 -140.174327287304 3.85810189351687e-010
vertex -271.754219060246 -132.083344281678 3.94403332215632e-010
vertex -274.129182242407 -140.704925388079 3.85810189351687e-010
endloop
endfacet
facet normal 0.0 0.0 -1.0
outer loop
vertex -274.129182242407 -140.704925388079 3.85810189351687e-010
vertex -271.754219060246 -132.083344281678 3.94403332215632e-010
vertex -274.054219060243 -141.274327287304 3.85810189351687e-010
endloop
endfacet
facet normal 0.0 0.0 -1.0
outer loop
vertex -280.754219060246 -145.965310292928 3.94403332215632e-010
vertex -277.809853978854 -142.829962205915 3.85810189351687e-010
vertex -271.754219060246 -150.465310292928 3.94403332215632e-010
endloop
endfacet
facet normal 0.0 0.0 -1.0
outer loop
vertex -277.809853978854 -142.829962205915 3.85810189351687e-010
vertex -280.754219060246 -145.965310292928 3.94403332215632e-010
vertex -278.159474948569 -142.374327287304 3.85810189351687e-010
endloop
endfacet
facet normal 0.0 0.0 -1.0
outer loop
vertex -278.159474948569 -142.374327287304 3.85810189351687e-010
vertex -280.754219060246 -145.965310292928 3.94403332215632e-010
vertex -278.379255878079 -141.84372918653 3.85810189351687e-010
endloop
endfacet
facet normal 0.0 0.0 -1.0
outer loop
vertex -278.379255878079 -141.84372918653 3.85810189351687e-010
vertex -280.754219060246 -145.965310292928 3.94403332215632e-010
vertex -278.454219060243 -141.274327287304 3.85810189351687e-010
endloop
endfacet
facet normal 0.0 0.0 -1.0
outer loop
vertex -271.754219060246 -150.465310292928 3.94403332215632e-010
vertex -277.809853978854 -142.829962205915 3.85810189351687e-010
vertex -277.354219060243 -143.17958317563 3.85810189351687e-010
endloop
endfacet
facet normal 0.0 0.0 -1.0
outer loop
vertex -271.754219060246 -150.465310292928 3.94403332215632e-010
vertex -277.354219060243 -143.17958317563 3.85810189351687e-010
vertex -276.823620959469 -143.39936410514 3.85810189351687e-010
endloop
endfacet
facet normal 0.0 0.0 -1.0
outer loop
vertex -271.754219060246 -150.465310292928 3.94403332215632e-010
vertex -276.823620959469 -143.39936410514 3.85810189351687e-010
vertex -276.254219060243 -143.474327287304 3.85810189351687e-010
endloop
endfacet
facet normal 0.0 0.0 -1.0
outer loop
vertex -271.754219060246 -150.465310292928 3.94403332215632e-010
vertex -276.254219060243 -143.474327287304 3.85810189351687e-010
vertex -275.684817161018 -143.39936410514 3.85810189351687e-010
endloop
endfacet
facet normal 0.0 0.0 -1.0
outer loop
vertex -271.754219060246 -150.465310292928 3.94403332215632e-010
vertex -275.684817161018 -143.39936410514 3.85810189351687e-010
vertex -275.154219060243 -143.17958317563 3.85810189351687e-010
endloop
endfacet
facet normal 0.0 0.0 -1.0
outer loop
vertex -271.754219060246 -150.465310292928 3.94403332215632e-010
vertex -275.154219060243 -143.17958317563 3.85810189351687e-010
vertex -274.698584141633 -142.829962205915 3.85810189351687e-010
endloop
endfacet
facet normal 0.0 0.0 -1.0
outer loop
vertex -271.754219060246 -150.465310292928 3.94403332215632e-010
vertex -274.698584141633 -142.829962205915 3.85810189351687e-010
vertex -274.348963171917 -142.374327287304 3.85810189351687e-010
endloop
endfacet
facet normal 0.0 0.0 -1.0
outer loop
vertex -271.754219060246 -150.465310292928 3.94403332215632e-010
vertex -274.348963171917 -142.374327287304 3.85810189351687e-010
vertex -274.129182242407 -141.84372918653 3.85810189351687e-010
endloop
endfacet
facet normal 0.0 0.0 -1.0
outer loop
vertex -271.754219060246 -150.465310292928 3.94403332215632e-010
vertex -274.129182242407 -141.84372918653 3.85810189351687e-010
vertex -274.054219060243 -141.274327287304 3.85810189351687e-010
endloop
endfacet
facet normal 0.0 0.0 -1.0
outer loop
vertex -271.754219060246 -150.465310292928 3.94403332215632e-010
vertex -274.054219060243 -141.274327287304 3.85810189351687e-010
vertex -271.754219060246 -132.083344281678 3.94403332215632e-010
endloop
endfacet
facet normal -0.707106781186563 0.0 -0.707106781186532
outer loop
vertex -281.254219060246 -136.274327287303 0.500000000394402
vertex -280.754219060246 -145.965310292928 3.94403332215632e-010
vertex -281.254219060246 -146.274327287303 0.500000000394402
endloop
endfacet
facet normal -0.707106781186563 0.0 -0.707106781186532
outer loop
vertex -280.754219060246 -145.965310292928 3.94403332215632e-010
vertex -281.254219060246 -136.274327287303 0.500000000394402
vertex -280.754219060246 -136.583344281678 3.94403332215632e-010
endloop
endfacet
facet normal -0.316227766016839 -0.632455532033684 -0.70710678118654
outer loop
vertex -280.754219060246 -145.965310292928 3.94403332215632e-010
vertex -271.254219060246 -151.274327287303 0.500000000394402
vertex -281.254219060246 -146.274327287303 0.500000000394402
endloop
endfacet
facet normal -0.316227766016839 -0.632455532033684 -0.70710678118654
outer loop
vertex -271.254219060246 -151.274327287303 0.500000000394402
vertex -280.754219060246 -145.965310292928 3.94403332215632e-010
vertex -271.754219060246 -150.465310292928 3.94403332215632e-010
endloop
endfacet
facet normal -0.316227766016839 0.632455532033684 -0.70710678118654
outer loop
vertex -271.254219060246 -131.274327287303 0.500000000394402
vertex -280.754219060246 -136.583344281678 3.94403332215632e-010
vertex -281.254219060246 -136.274327287303 0.500000000394402
endloop
endfacet
facet normal -0.316227766016839 0.632455532033684 -0.70710678118654
outer loop
vertex -280.754219060246 -136.583344281678 3.94403332215632e-010
vertex -271.254219060246 -131.274327287303 0.500000000394402
vertex -271.754219060246 -132.083344281678 3.94403332215632e-010
endloop
endfacet
facet normal 0.707106781186563 0.0 -0.707106781186532
outer loop
vertex -271.754219060246 -150.465310292928 3.94403332215632e-010
vertex -271.254219060246 -131.274327287303 0.500000000394402
vertex -271.254219060246 -151.274327287303 0.500000000394402
endloop
endfacet
facet normal 0.707106781186563 0.0 -0.707106781186532
outer loop
vertex -271.254219060246 -131.274327287303 0.500000000394402
vertex -271.754219060246 -150.465310292928 3.94403332215632e-010
vertex -271.754219060246 -132.083344281678 3.94403332215632e-010
endloop
endfacet
facet normal -0.707106781186512 4.54242571508727e-011 -0.707106781186583
outer loop
vertex -274.554219060243 -141.274327287304 0.50000000038581
vertex -274.129182242407 -141.84372918653 3.85810189351687e-010
vertex -274.612145155552 -141.714319663979 0.500000000285955
endloop
endfacet
facet normal -0.683012701811673 0.183012701925004 -0.707106781255864
outer loop
vertex -274.129182242407 -141.84372918653 3.85810189351687e-010
vertex -274.554219060243 -141.274327287304 0.50000000038581
vertex -274.054219060243 -141.274327287304 3.85810189351687e-010
endloop
endfacet
facet normal -0.683012701813909 0.183012701916659 -0.707106781255864
outer loop
vertex -274.612145155552 -141.714319663979 0.500000000285955
vertex -274.348963171917 -142.374327287304 3.85810189351687e-010
vertex -274.78197587381 -142.124327287304 0.500000000192905
endloop
endfacet
facet normal -0.612372435556327 0.353553390567112 -0.707106781320411
outer loop
vertex -274.348963171917 -142.374327287304 3.85810189351687e-010
vertex -274.612145155552 -141.714319663979 0.500000000285955
vertex -274.129182242407 -141.84372918653 3.85810189351687e-010
endloop
endfacet
facet normal -0.612372435560199 0.353553390560406 -0.707106781320411
outer loop
vertex -274.78197587381 -142.124327287304 0.500000000192905
vertex -274.698584141633 -142.829962205915 3.85810189351687e-010
vertex -275.052137532226 -142.476408815321 0.500000000113001
endloop
endfacet
facet normal -0.499999999838972 0.499999999893352 -0.707106781375823
outer loop
vertex -274.698584141633 -142.829962205915 3.85810189351687e-010
vertex -274.78197587381 -142.124327287304 0.500000000192905
vertex -274.348963171917 -142.374327287304 3.85810189351687e-010
endloop
endfacet
facet normal -0.499999999843449 0.499999999888875 -0.707106781375823
outer loop
vertex -275.052137532226 -142.476408815321 0.500000000113001
vertex -275.154219060243 -143.17958317563 3.85810189351687e-010
vertex -275.404219060243 -142.746570473738 0.500000000051689
endloop
endfacet
facet normal -0.353553390453825 0.612372435508644 -0.707106781418349
outer loop
vertex -275.154219060243 -143.17958317563 3.85810189351687e-010
vertex -275.052137532226 -142.476408815321 0.500000000113001
vertex -274.698584141633 -142.829962205915 3.85810189351687e-010
endloop
endfacet
facet normal -0.3535533904577 0.612372435506407 -0.707106781418349
outer loop
vertex -275.404219060243 -142.746570473738 0.500000000051689
vertex -275.684817161018 -143.39936410514 3.85810189351687e-010
vertex -275.814226683569 -142.916401191996 0.500000000013146
endloop
endfacet
facet normal -0.183012701811715 0.683012701646127 -0.70710678144509
outer loop
vertex -275.684817161018 -143.39936410514 3.85810189351687e-010
vertex -275.404219060243 -142.746570473738 0.500000000051689
vertex -275.154219060243 -143.17958317563 3.85810189351687e-010
endloop
endfacet
facet normal -0.183012701813959 0.683012701645526 -0.707106781445091
outer loop
vertex -275.814226683569 -142.916401191996 0.500000000013146
vertex -276.254219060243 -143.474327287304 3.85810189351687e-010
vertex -276.254219060243 -142.974327287304 0.5
endloop
endfacet
facet normal 0.0 0.70710678091888 -0.707106781454215
outer loop
vertex -276.254219060243 -143.474327287304 3.85810189351687e-010
vertex -275.814226683569 -142.916401191996 0.500000000013146
vertex -275.684817161018 -143.39936410514 3.85810189351687e-010
endloop
endfacet
facet normal 0.183012701813951 0.683012701645525 -0.707106781445093
outer loop
vertex -276.694211436918 -142.916401191996 0.500000000013146
vertex -276.254219060243 -143.474327287304 3.85810189351687e-010
vertex -276.823620959469 -143.39936410514 3.85810189351687e-010
endloop
endfacet
facet normal 0.0 0.70710678091888 -0.707106781454215
outer loop
vertex -276.254219060243 -143.474327287304 3.85810189351687e-010
vertex -276.694211436918 -142.916401191996 0.500000000013146
vertex -276.254219060243 -142.974327287304 0.5
endloop
endfacet
facet normal 0.353553390457704 0.612372435506397 -0.707106781418355
outer loop
vertex -277.104219060243 -142.746570473738 0.500000000051689
vertex -276.823620959469 -143.39936410514 3.85810189351687e-010
vertex -277.354219060243 -143.17958317563 3.85810189351687e-010
endloop
endfacet
facet normal 0.183012701811708 0.683012701646126 -0.707106781445093
outer loop
vertex -276.823620959469 -143.39936410514 3.85810189351687e-010
vertex -277.104219060243 -142.746570473738 0.500000000051689
vertex -276.694211436918 -142.916401191996 0.500000000013146
endloop
endfacet
facet normal 0.499999999843459 0.499999999888868 -0.707106781375821
outer loop
vertex -277.45630058826 -142.476408815321 0.500000000113001
vertex -277.354219060243 -143.17958317563 3.85810189351687e-010
vertex -277.809853978854 -142.829962205915 3.85810189351687e-010
endloop
endfacet
facet normal 0.353553390453834 0.612372435508632 -0.707106781418355
outer loop
vertex -277.354219060243 -143.17958317563 3.85810189351687e-010
vertex -277.45630058826 -142.476408815321 0.500000000113001
vertex -277.104219060243 -142.746570473738 0.500000000051689
endloop
endfacet
facet normal 0.612372435560198 0.353553390560413 -0.707106781320409
outer loop
vertex -277.726462246677 -142.124327287304 0.500000000192905
vertex -277.809853978854 -142.829962205915 3.85810189351687e-010
vertex -278.159474948569 -142.374327287304 3.85810189351687e-010
endloop
endfacet
facet normal 0.499999999838982 0.499999999893344 -0.707106781375821
outer loop
vertex -277.809853978854 -142.829962205915 3.85810189351687e-010
vertex -277.726462246677 -142.124327287304 0.500000000192905
vertex -277.45630058826 -142.476408815321 0.500000000113001
endloop
endfacet
facet normal 0.683012701813909 0.183012701916659 -0.707106781255864
outer loop
vertex -277.896292964935 -141.714319663979 0.500000000285955
vertex -278.159474948569 -142.374327287304 3.85810189351687e-010
vertex -278.379255878079 -141.84372918653 3.85810189351687e-010
endloop
endfacet
facet normal 0.612372435556326 0.353553390567117 -0.707106781320409
outer loop
vertex -278.159474948569 -142.374327287304 3.85810189351687e-010
vertex -277.896292964935 -141.714319663979 0.500000000285955
vertex -277.726462246677 -142.124327287304 0.500000000192905
endloop
endfacet
facet normal 0.707106781186512 4.54242822908298e-011 -0.707106781186583
outer loop
vertex -277.954219060243 -141.274327287304 0.50000000038581
vertex -278.379255878079 -141.84372918653 3.85810189351687e-010
vertex -278.454219060243 -141.274327287304 3.85810189351687e-010
endloop
endfacet
facet normal 0.683012701811673 0.183012701925005 -0.707106781255864
outer loop
vertex -278.379255878079 -141.84372918653 3.85810189351687e-010
vertex -277.954219060243 -141.274327287304 0.50000000038581
vertex -277.896292964935 -141.714319663979 0.500000000285955
endloop
endfacet
facet normal 0.683012701972683 -0.183012701859414 -0.707106781117316
outer loop
vertex -278.379255878079 -140.704925388079 3.85810189351687e-010
vertex -277.954219060243 -141.274327287304 0.50000000038581
vertex -278.454219060243 -141.274327287304 3.85810189351687e-010
endloop
endfacet
facet normal 0.707106781186512 4.54242822908298e-011 -0.707106781186583
outer loop
vertex -277.954219060243 -141.274327287304 0.50000000038581
vertex -278.379255878079 -140.704925388079 3.85810189351687e-010
vertex -277.896292964935 -140.83433491063 0.500000000485665
endloop
endfacet
facet normal 0.612372435835206 -0.353553390619388 -0.707106781052756
outer loop
vertex -278.159474948569 -140.174327287304 3.85810189351687e-010
vertex -277.896292964935 -140.83433491063 0.500000000485665
vertex -278.379255878079 -140.704925388079 3.85810189351687e-010
endloop
endfacet
facet normal 0.683012701970447 -0.183012701867761 -0.707106781117316
outer loop
vertex -277.896292964935 -140.83433491063 0.500000000485665
vertex -278.159474948569 -140.174327287304 3.85810189351687e-010
vertex -277.726462246677 -140.424327287304 0.500000000578715
endloop
endfacet
facet normal 0.500000000160998 -0.500000000106638 -0.707106780997301
outer loop
vertex -277.809853978854 -139.718692368694 3.85810189351687e-010
vertex -277.726462246677 -140.424327287304 0.500000000578715
vertex -278.159474948569 -140.174327287304 3.85810189351687e-010
endloop
endfacet
facet normal 0.612372435831333 -0.353553390626097 -0.707106781052756
outer loop
vertex -277.726462246677 -140.424327287304 0.500000000578715
vertex -277.809853978854 -139.718692368694 3.85810189351687e-010
vertex -277.45630058826 -140.072245759287 0.500000000658619
endloop
endfacet
facet normal 0.353553390732707 -0.612372435882947 -0.707106780954752
outer loop
vertex -277.354219060243 -139.369071398979 3.85810189351687e-010
vertex -277.45630058826 -140.072245759287 0.500000000658619
vertex -277.809853978854 -139.718692368694 3.85810189351687e-010
endloop
endfacet
facet normal 0.50000000015653 -0.500000000111106 -0.707106780997301
outer loop
vertex -277.45630058826 -140.072245759287 0.500000000658619
vertex -277.354219060243 -139.369071398979 3.85810189351687e-010
vertex -277.104219060243 -139.802084100871 0.500000000719931
endloop
endfacet
facet normal 0.18301270197272 -0.683012702138297 -0.70710678092802
outer loop
vertex -276.823620959469 -139.149290469468 3.85810189351687e-010
vertex -277.104219060243 -139.802084100871 0.500000000719931
vertex -277.354219060243 -139.369071398979 3.85810189351687e-010
endloop
endfacet
facet normal 0.353553390728835 -0.612372435885182 -0.707106780954752
outer loop
vertex -277.104219060243 -139.802084100871 0.500000000719931
vertex -276.823620959469 -139.149290469468 3.85810189351687e-010
vertex -276.694211436918 -139.632253382613 0.500000000758474
endloop
endfacet
facet normal -1.67599713877084e-017 -0.707106781454189 -0.707106780918906
outer loop
vertex -276.254219060243 -139.574327287304 0.50000000077162
vertex -276.823620959469 -139.149290469468 3.85810189351687e-010
vertex -276.254219060243 -139.074327287304 3.85810189351687e-010
endloop
endfacet
facet normal 0.18301270197272 -0.683012702138297 -0.70710678092802
outer loop
vertex -276.823620959469 -139.149290469468 3.85810189351687e-010
vertex -276.254219060243 -139.574327287304 0.50000000077162
vertex -276.694211436918 -139.632253382613 0.500000000758474
endloop
endfacet
facet normal -0.183012701970483 -0.683012702138894 -0.707106780928022
outer loop
vertex -275.814226683569 -139.632253382613 0.500000000758474
vertex -276.254219060243 -139.074327287304 3.85810189351687e-010
vertex -275.684817161018 -139.149290469468 3.85810189351687e-010
endloop
endfacet
facet normal -1.88556354702768e-017 -0.707106781454189 -0.707106780918906
outer loop
vertex -276.254219060243 -139.074327287304 3.85810189351687e-010
vertex -275.814226683569 -139.632253382613 0.500000000758474
vertex -276.254219060243 -139.574327287304 0.50000000077162
endloop
endfacet
facet normal -0.183012701972714 -0.683012702138296 -0.707106780928022
outer loop
vertex -275.684817161018 -139.149290469468 3.85810189351687e-010
vertex -275.404219060243 -139.802084100871 0.500000000719931
vertex -275.814226683569 -139.632253382613 0.500000000758474
endloop
endfacet
facet normal -0.353553390728839 -0.612372435885173 -0.707106780954759
outer loop
vertex -275.404219060243 -139.802084100871 0.500000000719931
vertex -275.684817161018 -139.149290469468 3.85810189351687e-010
vertex -275.154219060243 -139.369071398979 3.85810189351687e-010
endloop
endfacet
facet normal -0.353553390732716 -0.612372435882935 -0.707106780954758
outer loop
vertex -275.154219060243 -139.369071398979 3.85810189351687e-010
vertex -275.052137532226 -140.072245759287 0.500000000658619
vertex -275.404219060243 -139.802084100871 0.500000000719931
endloop
endfacet
facet normal -0.50000000015654 -0.500000000111099 -0.707106780997298
outer loop
vertex -275.052137532226 -140.072245759287 0.500000000658619
vertex -275.154219060243 -139.369071398979 3.85810189351687e-010
vertex -274.698584141633 -139.718692368694 3.85810189351687e-010
endloop
endfacet
facet normal -0.500000000161008 -0.50000000010663 -0.707106780997298
outer loop
vertex -274.698584141633 -139.718692368694 3.85810189351687e-010
vertex -274.78197587381 -140.424327287304 0.500000000578715
vertex -275.052137532226 -140.072245759287 0.500000000658619
endloop
endfacet
facet normal -0.612372435831332 -0.353553390626103 -0.707106781052754
outer loop
vertex -274.78197587381 -140.424327287304 0.500000000578715
vertex -274.698584141633 -139.718692368694 3.85810189351687e-010
vertex -274.348963171917 -140.174327287304 3.85810189351687e-010
endloop
endfacet
facet normal -0.612372435835206 -0.353553390619393 -0.707106781052754
outer loop
vertex -274.348963171917 -140.174327287304 3.85810189351687e-010
vertex -274.612145155552 -140.83433491063 0.500000000485665
vertex -274.78197587381 -140.424327287304 0.500000000578715
endloop
endfacet
facet normal -0.683012701970447 -0.183012701867761 -0.707106781117316
outer loop
vertex -274.612145155552 -140.83433491063 0.500000000485665
vertex -274.348963171917 -140.174327287304 3.85810189351687e-010
vertex -274.129182242407 -140.704925388079 3.85810189351687e-010
endloop
endfacet
facet normal -0.683012701970447 -0.183012701867761 -0.707106781117316
outer loop
vertex -274.612145155552 -140.83433491063 0.500000000485665
vertex -274.054219060243 -141.274327287304 3.85810189351687e-010
vertex -274.554219060243 -141.274327287304 0.50000000038581
endloop
endfacet
facet normal -0.707106781186512 5.43674531012268e-011 -0.707106781186583
outer loop
vertex -274.054219060243 -141.274327287304 3.85810189351687e-010
vertex -274.612145155552 -140.83433491063 0.500000000485665
vertex -274.129182242407 -140.704925388079 3.85810189351687e-010
endloop
endfacet
facet normal 0.707106781196008 -0.707106781177087 -1.81194585247023e-019
outer loop
vertex -277.45630058826 -140.072245759287 0.500000000658619
vertex -277.726462246677 -140.424327287304 2.49999994581767
vertex -277.726462246677 -140.424327287304 0.500000000578715
endloop
endfacet
facet normal 0.8660254037763 -0.500000000014096 -7.64201782481995e-019
outer loop
vertex -277.726462246677 -140.424327287304 2.49999994581767
vertex -277.45630058826 -140.072245759287 0.500000000658619
vertex -277.45630058826 -140.072245759287 2.49999994589757
endloop
endfacet
facet normal 0.25881904509782 0.965925826290328 1.40988507760071e-019
outer loop
vertex -276.694211436918 -142.916401191996 0.500000000013146
vertex -276.254219060243 -142.974327287304 2.49999994523895
vertex -276.254219060243 -142.974327287304 0.5
endloop
endfacet
facet normal -1.78222197909577e-017 1.0 3.8654030488343e-019
outer loop
vertex -276.254219060243 -142.974327287304 2.49999994523895
vertex -276.694211436918 -142.916401191996 0.500000000013146
vertex -276.694211436918 -142.916401191996 2.4999999452521
endloop
endfacet
facet normal 0.0 -1.0 -1.81850453683058e-020
outer loop
vertex -276.254219060243 -139.574327287304 0.50000000077162
vertex -276.694211436918 -139.632253382613 2.49999994599743
vertex -276.694211436918 -139.632253382613 0.500000000758474
endloop
endfacet
facet normal 0.258819045097795 -0.965925826290335 -2.30091415836347e-018
outer loop
vertex -276.694211436918 -139.632253382613 2.49999994599743
vertex -276.254219060243 -139.574327287304 0.50000000077162
vertex -276.254219060243 -139.574327287304 2.49999994601057
endloop
endfacet
facet normal -0.258819045107249 0.965925826287801 1.95117223011168e-018
outer loop
vertex -275.814226683569 -142.916401191996 2.4999999452521
vertex -275.404219060243 -142.746570473738 0.500000000051689
vertex -275.814226683569 -142.916401191996 0.500000000013146
endloop
endfacet
facet normal -0.499999999991834 0.866025403789153 -8.63295678919445e-020
outer loop
vertex -275.404219060243 -142.746570473738 0.500000000051689
vertex -275.814226683569 -142.916401191996 2.4999999452521
vertex -275.404219060243 -142.746570473738 2.49999994529064
endloop
endfacet
facet normal 0.866025403776298 0.500000000014101 -5.85415810138202e-019
outer loop
vertex -277.726462246677 -142.124327287304 0.500000000192905
vertex -277.45630058826 -142.476408815321 2.49999994535195
vertex -277.45630058826 -142.476408815321 0.500000000113001
endloop
endfacet
facet normal 0.707106781195997 0.707106781177098 -1.53677828408712e-018
outer loop
vertex -277.45630058826 -142.476408815321 2.49999994535195
vertex -277.726462246677 -142.124327287304 0.500000000192905
vertex -277.726462246677 -142.124327287304 2.49999994543186
endloop
endfacet
facet normal 0.500000000008166 -0.866025403779724 8.63295684580232e-020
outer loop
vertex -277.104219060243 -139.802084100871 0.500000000719931
vertex -277.45630058826 -140.072245759287 2.49999994589757
vertex -277.45630058826 -140.072245759287 0.500000000658619
endloop
endfacet
facet normal 0.70710678117715 -0.707106781195945 -1.81194584392276e-019
outer loop
vertex -277.45630058826 -140.072245759287 2.49999994589757
vertex -277.104219060243 -139.802084100871 0.500000000719931
vertex -277.104219060243 -139.802084100871 2.49999994595888
endloop
endfacet
facet normal -0.258819045097795 -0.965925826290335 5.77108680162438e-019
outer loop
vertex -275.814226683569 -139.632253382613 2.49999994599743
vertex -276.254219060243 -139.574327287304 0.50000000077162
vertex -275.814226683569 -139.632253382613 0.500000000758474
endloop
endfacet
facet normal 0.0 -1.0 -1.81850453683058e-020
outer loop
vertex -276.254219060243 -139.574327287304 0.50000000077162
vertex -275.814226683569 -139.632253382613 2.49999994599743
vertex -276.254219060243 -139.574327287304 2.49999994601057
endloop
endfacet
facet normal -0.70710678117715 -0.707106781195945 -1.81194584392276e-019
outer loop
vertex -275.052137532226 -140.072245759287 2.49999994589757
vertex -275.404219060243 -139.802084100871 0.500000000719931
vertex -275.052137532226 -140.072245759287 0.500000000658619
endloop
endfacet
facet normal -0.500000000008166 -0.866025403779724 2.24625524270534e-018
outer loop
vertex -275.404219060243 -139.802084100871 0.500000000719931
vertex -275.052137532226 -140.072245759287 2.49999994589757
vertex -275.404219060243 -139.802084100871 2.49999994595888
endloop
endfacet
facet normal -0.70710678117715 -0.707106781195945 -1.81194584392276e-019
outer loop
vertex -275.052137532226 -140.072245759287 2.49999994589757
vertex -274.78197587381 -140.424327287304 0.500000000578715
vertex -274.78197587381 -140.424327287304 2.49999994581767
endloop
endfacet
facet normal -0.866025403792632 -0.499999999985809 -7.64201781579791e-019
outer loop
vertex -274.78197587381 -140.424327287304 0.500000000578715
vertex -275.052137532226 -140.072245759287 2.49999994589757
vertex -275.052137532226 -140.072245759287 0.500000000658619
endloop
endfacet
facet normal 0.707106781177139 0.707106781195956 -1.53677828368675e-018
outer loop
vertex -277.45630058826 -142.476408815321 0.500000000113001
vertex -277.104219060243 -142.746570473738 2.49999994529064
vertex -277.104219060243 -142.746570473738 0.500000000051689
endloop
endfacet
facet normal 0.500000000008166 0.866025403779724 -7.34952611450109e-021
outer loop
vertex -277.104219060243 -142.746570473738 2.49999994529064
vertex -277.45630058826 -142.476408815321 0.500000000113001
vertex -277.45630058826 -142.476408815321 2.49999994535195
endloop
endfacet
facet normal -0.965925826284345 -0.258819045120147 8.12517631419025e-019
outer loop
vertex -274.612145155552 -140.83433491063 2.49999994572462
vertex -274.554219060243 -141.274327287304 0.50000000038581
vertex -274.554219060243 -141.274327287304 2.49999994562476
endloop
endfacet
facet normal -1.0 1.88616027384124e-011 -7.18097187894718e-019
outer loop
vertex -274.554219060243 -141.274327287304 0.50000000038581
vertex -274.612145155552 -140.83433491063 2.49999994572462
vertex -274.612145155552 -140.83433491063 0.500000000485665
endloop
endfacet
facet normal 0.866025403792632 -0.499999999985809 -7.64201781579791e-019
outer loop
vertex -277.726462246677 -140.424327287304 0.500000000578715
vertex -277.896292964935 -140.83433491063 2.49999994572462
vertex -277.896292964935 -140.83433491063 0.500000000485665
endloop
endfacet
facet normal 0.965925826284345 -0.258819045120147 8.12517631419025e-019
outer loop
vertex -277.896292964935 -140.83433491063 2.49999994572462
vertex -277.726462246677 -140.424327287304 0.500000000578715
vertex -277.726462246677 -140.424327287304 2.49999994581767
endloop
endfacet
facet normal -0.8660254037763 -0.500000000014096 -7.64201782481995e-019
outer loop
vertex -274.78197587381 -140.424327287304 2.49999994581767
vertex -274.612145155552 -140.83433491063 0.500000000485665
vertex -274.612145155552 -140.83433491063 2.49999994572462
endloop
endfacet
facet normal -0.965925826293774 -0.258819045084957 8.12517630849063e-019
outer loop
vertex -274.612145155552 -140.83433491063 0.500000000485665
vertex -274.78197587381 -140.424327287304 2.49999994581767
vertex -274.78197587381 -140.424327287304 0.500000000578715
endloop
endfacet
facet normal -0.499999999991834 -0.866025403789153 2.24625524244865e-018
outer loop
vertex -275.404219060243 -139.802084100871 2.49999994595888
vertex -275.814226683569 -139.632253382613 0.500000000758474
vertex -275.404219060243 -139.802084100871 0.500000000719931
endloop
endfacet
facet normal -0.258819045107225 -0.965925826287808 5.77108680153332e-019
outer loop
vertex -275.814226683569 -139.632253382613 0.500000000758474
vertex -275.404219060243 -139.802084100871 2.49999994595888
vertex -275.814226683569 -139.632253382613 2.49999994599743
endloop
endfacet
facet normal 1.0 1.88616027384124e-011 -7.18097187894718e-019
outer loop
vertex -277.954219060243 -141.274327287304 0.50000000038581
vertex -277.896292964935 -141.714319663979 2.49999994552491
vertex -277.896292964935 -141.714319663979 0.500000000285955
endloop
endfacet
facet normal 0.965925826293776 0.258819045084951 1.07664617405148e-018
outer loop
vertex -277.896292964935 -141.714319663979 2.49999994552491
vertex -277.954219060243 -141.274327287304 0.50000000038581
vertex -277.954219060243 -141.274327287304 2.49999994562476
endloop
endfacet
facet normal -1.78222197909577e-017 1.0 3.8654030488343e-019
outer loop
vertex -276.254219060243 -142.974327287304 2.49999994523895
vertex -275.814226683569 -142.916401191996 0.500000000013146
vertex -276.254219060243 -142.974327287304 0.5
endloop
endfacet
facet normal -0.25881904509782 0.965925826290328 1.95117222996974e-018
outer loop
vertex -275.814226683569 -142.916401191996 0.500000000013146
vertex -276.254219060243 -142.974327287304 2.49999994523895
vertex -275.814226683569 -142.916401191996 2.4999999452521
endloop
endfacet
facet normal 0.965925826284347 0.258819045120141 1.07664617440172e-018
outer loop
vertex -277.896292964935 -141.714319663979 0.500000000285955
vertex -277.726462246677 -142.124327287304 2.49999994543186
vertex -277.726462246677 -142.124327287304 0.500000000192905
endloop
endfacet
facet normal 0.866025403792629 0.499999999985814 -5.85415809411816e-019
outer loop
vertex -277.726462246677 -142.124327287304 2.49999994543186
vertex -277.896292964935 -141.714319663979 0.500000000285955
vertex -277.896292964935 -141.714319663979 2.49999994552491
endloop
endfacet
facet normal 0.965925826293774 -0.258819045084957 8.12517630849063e-019
outer loop
vertex -277.896292964935 -140.83433491063 0.500000000485665
vertex -277.954219060243 -141.274327287304 2.49999994562476
vertex -277.954219060243 -141.274327287304 0.50000000038581
endloop
endfacet
facet normal 1.0 -1.88549906948698e-011 -7.18097188046286e-019
outer loop
vertex -277.954219060243 -141.274327287304 2.49999994562476
vertex -277.896292964935 -140.83433491063 0.500000000485665
vertex -277.896292964935 -140.83433491063 2.49999994572462
endloop
endfacet
facet normal 0.258819045107225 -0.965925826287808 -2.30091415847949e-018
outer loop
vertex -276.694211436918 -139.632253382613 0.500000000758474
vertex -277.104219060243 -139.802084100871 2.49999994595888
vertex -277.104219060243 -139.802084100871 0.500000000719931
endloop
endfacet
facet normal 0.499999999991834 -0.866025403789153 8.63295678919444e-020
outer loop
vertex -277.104219060243 -139.802084100871 2.49999994595888
vertex -276.694211436918 -139.632253382613 0.500000000758474
vertex -276.694211436918 -139.632253382613 2.49999994599743
endloop
endfacet
facet normal 0.499999999991834 0.866025403789153 -7.34952617852433e-021
outer loop
vertex -277.104219060243 -142.746570473738 0.500000000051689
vertex -276.694211436918 -142.916401191996 2.4999999452521
vertex -276.694211436918 -142.916401191996 0.500000000013146
endloop
endfacet
facet normal 0.258819045107249 0.965925826287801 1.4098850771593e-019
outer loop
vertex -276.694211436918 -142.916401191996 2.4999999452521
vertex -277.104219060243 -142.746570473738 0.500000000051689
vertex -277.104219060243 -142.746570473738 2.49999994529064
endloop
endfacet
facet normal -0.965925826293776 0.258819045084951 1.07664617405148e-018
outer loop
vertex -274.612145155552 -141.714319663979 2.49999994552491
vertex -274.78197587381 -142.124327287304 0.500000000192905
vertex -274.78197587381 -142.124327287304 2.49999994543186
endloop
endfacet
facet normal -0.866025403776298 0.500000000014101 1.6534899065707e-018
outer loop
vertex -274.78197587381 -142.124327287304 0.500000000192905
vertex -274.612145155552 -141.714319663979 2.49999994552491
vertex -274.612145155552 -141.714319663979 0.500000000285955
endloop
endfacet
facet normal -1.0 -1.88549906948698e-011 -7.18097188046286e-019
outer loop
vertex -274.554219060243 -141.274327287304 2.49999994562476
vertex -274.612145155552 -141.714319663979 0.500000000285955
vertex -274.612145155552 -141.714319663979 2.49999994552491
endloop
endfacet
facet normal -0.965925826284347 0.258819045120141 1.07664617440172e-018
outer loop
vertex -274.612145155552 -141.714319663979 0.500000000285955
vertex -274.554219060243 -141.274327287304 2.49999994562476
vertex -274.554219060243 -141.274327287304 0.50000000038581
endloop
endfacet
facet normal -0.500000000008166 0.866025403779724 -8.6329568458023e-020
outer loop
vertex -275.404219060243 -142.746570473738 2.49999994529064
vertex -275.052137532226 -142.476408815321 0.500000000113001
vertex -275.404219060243 -142.746570473738 0.500000000051689
endloop
endfacet
facet normal -0.707106781177139 0.707106781195956 -1.53677828413962e-018
outer loop
vertex -275.052137532226 -142.476408815321 0.500000000113001
vertex -275.404219060243 -142.746570473738 2.49999994529064
vertex -275.052137532226 -142.476408815321 2.49999994535195
endloop
endfacet
facet normal -0.866025403792629 0.499999999985814 1.6534899067416e-018
outer loop
vertex -274.78197587381 -142.124327287304 2.49999994543186
vertex -275.052137532226 -142.476408815321 0.500000000113001
vertex -275.052137532226 -142.476408815321 2.49999994535195
endloop
endfacet
facet normal -0.707106781177139 0.707106781195956 -1.53677828413962e-018
outer loop
vertex -275.052137532226 -142.476408815321 0.500000000113001
vertex -274.78197587381 -142.124327287304 2.49999994543186
vertex -274.78197587381 -142.124327287304 0.500000000192905
endloop
endfacet
endsolid FoldaRapX
