  0
SECTION
  2
HEADER
  9
$ACADVER
  1
AC1009
  9
$DWGCODEPAGE
  3
ansi_1252
  9
$INSBASE
 10
0.0
 20
0.0
 30
0.0
  9
$EXTMIN
 10
0.0
 20
0.0
 30
0.0
  9
$EXTMAX
 10
188.00001612142
 20
250.0000000000019
 30
0.0
  9
$LIMMIN
 10
0.0
 20
0.0
  9
$LIMMAX
 10
12.0
 20
9.0
  9
$ORTHOMODE
 70
     0
  9
$REGENMODE
 70
     1
  9
$FILLMODE
 70
     1
  9
$QTEXTMODE
 70
     0
  9
$MIRRTEXT
 70
     1
  9
$DRAGMODE
 70
     2
  9
$LTSCALE
 40
1.0
  9
$OSMODE
 70
    37
  9
$ATTMODE
 70
     1
  9
$TEXTSIZE
 40
0.2
  9
$TRACEWID
 40
0.05
  9
$TEXTSTYLE
  7
STANDARD
  9
$CLAYER
  8
0
  9
$CELTYPE
  6
BYLAYER
  9
$CECOLOR
 62
   256
  9
$DIMSCALE
 40
1.0
  9
$DIMASZ
 40
0.18
  9
$DIMEXO
 40
0.0625
  9
$DIMDLI
 40
0.38
  9
$DIMRND
 40
0.0
  9
$DIMDLE
 40
0.0
  9
$DIMEXE
 40
0.18
  9
$DIMTP
 40
0.0
  9
$DIMTM
 40
0.0
  9
$DIMTXT
 40
0.18
  9
$DIMCEN
 40
0.09
  9
$DIMTSZ
 40
0.0
  9
$DIMTOL
 70
     0
  9
$DIMLIM
 70
     0
  9
$DIMTIH
 70
     1
  9
$DIMTOH
 70
     1
  9
$DIMSE1
 70
     0
  9
$DIMSE2
 70
     0
  9
$DIMTAD
 70
     0
  9
$DIMZIN
 70
     0
  9
$DIMBLK
  1

  9
$DIMASO
 70
     1
  9
$DIMSHO
 70
     1
  9
$DIMPOST
  1

  9
$DIMAPOST
  1

  9
$DIMALT
 70
     0
  9
$DIMALTD
 70
     2
  9
$DIMALTF
 40
25.4
  9
$DIMLFAC
 40
1.0
  9
$DIMTOFL
 70
     0
  9
$DIMTVP
 40
0.0
  9
$DIMTIX
 70
     0
  9
$DIMSOXD
 70
     0
  9
$DIMSAH
 70
     0
  9
$DIMBLK1
  1

  9
$DIMBLK2
  1

  9
$DIMSTYLE
  2
STANDARD
  9
$DIMCLRD
 70
     0
  9
$DIMCLRE
 70
     0
  9
$DIMCLRT
 70
     0
  9
$DIMTFAC
 40
1.0
  9
$DIMGAP
 40
0.09
  9
$LUNITS
 70
     2
  9
$LUPREC
 70
     4
  9
$SKETCHINC
 40
0.1
  9
$FILLETRAD
 40
0.5
  9
$AUNITS
 70
     0
  9
$AUPREC
 70
     0
  9
$MENU
  1
.
  9
$ELEVATION
 40
0.0
  9
$PELEVATION
 40
0.0
  9
$THICKNESS
 40
0.0
  9
$LIMCHECK
 70
     0
  9
$CHAMFERA
 40
0.0
  9
$CHAMFERB
 40
0.0
  9
$SKPOLY
 70
     0
  9
$TDCREATE
 40
2454910.5
  9
$TDUPDATE
 40
2458513.786000984
  9
$TDINDWG
 40
0.0000000116
  9
$TDUSRTIMER
 40
0.0000000116
  9
$USRTIMER
 70
     1
  9
$ANGBASE
 50
0.0
  9
$ANGDIR
 70
     0
  9
$PDMODE
 70
     0
  9
$PDSIZE
 40
0.0
  9
$PLINEWID
 40
0.0
  9
$COORDS
 70
     1
  9
$SPLFRAME
 70
     0
  9
$SPLINETYPE
 70
     6
  9
$SPLINESEGS
 70
     8
  9
$ATTDIA
 70
     0
  9
$ATTREQ
 70
     1
  9
$HANDLING
 70
     1
  9
$HANDSEED
  5
3C7
  9
$SURFTAB1
 70
     6
  9
$SURFTAB2
 70
     6
  9
$SURFTYPE
 70
     6
  9
$SURFU
 70
     6
  9
$SURFV
 70
     6
  9
$UCSNAME
  2

  9
$UCSORG
 10
0.0
 20
0.0
 30
0.0
  9
$UCSXDIR
 10
1.0
 20
0.0
 30
0.0
  9
$UCSYDIR
 10
0.0
 20
1.0
 30
0.0
  9
$PUCSNAME
  2

  9
$PUCSORG
 10
0.0
 20
0.0
 30
0.0
  9
$PUCSXDIR
 10
1.0
 20
0.0
 30
0.0
  9
$PUCSYDIR
 10
0.0
 20
1.0
 30
0.0
  9
$USERI1
 70
     0
  9
$USERI2
 70
     0
  9
$USERI3
 70
     0
  9
$USERI4
 70
     0
  9
$USERI5
 70
     0
  9
$USERR1
 40
0.0
  9
$USERR2
 40
0.0
  9
$USERR3
 40
0.0
  9
$USERR4
 40
0.0
  9
$USERR5
 40
0.0
  9
$WORLDVIEW
 70
     1
  9
$SHADEDGE
 70
     3
  9
$SHADEDIF
 70
    70
  9
$TILEMODE
 70
     1
  9
$MAXACTVP
 70
    64
  9
$PLIMCHECK
 70
     0
  9
$PEXTMIN
 10
1.000000000000000E+20
 20
1.000000000000000E+20
 30
1.000000000000000E+20
  9
$PEXTMAX
 10
-1.000000000000000E+20
 20
-1.000000000000000E+20
 30
-1.000000000000000E+20
  9
$PLIMMIN
 10
0.0
 20
0.0
  9
$PLIMMAX
 10
12.0
 20
9.0
  9
$UNITMODE
 70
     0
  9
$VISRETAIN
 70
     1
  9
$PLINEGEN
 70
     0
  9
$PSLTSCALE
 70
     1
  0
ENDSEC
  0
SECTION
  2
TABLES
  0
TABLE
  2
VPORT
 70
     1
  0
VPORT
  2
*ACTIVE
 70
     0
 10
0.0
 20
0.0
 11
1.0
 21
1.0
 12
10.42990654205607
 22
4.5
 13
0.0
 23
0.0
 14
0.5
 24
0.5
 15
0.5
 25
0.5
 16
0.0
 26
0.0
 36
1.0
 17
0.0
 27
0.0
 37
0.0
 40
9.0
 41
1.972972972850329
 42
50.0
 43
0.0
 44
0.0
 50
0.0
 51
0.0
 71
     0
 72
   100
 73
     1
 74
     3
 75
     0
 76
     0
 77
     0
 78
     0
  0
ENDTAB
  0
TABLE
  2
LTYPE
 70
     2
  0
LTYPE
  2
CONTINUOUS
 70
     0
  3
Solid line
 72
    65
 73
     0
 40
0.0
  0
LTYPE
  2
CONTINUOUS2
 70
     0
  3
Solid Line
 72
    65
 73
     0
 40
0.0
  0
ENDTAB
  0
TABLE
  2
LAYER
 70
     2
  0
LAYER
  2
0
 70
     0
 62
     7
  6
CONTINUOUS
  0
LAYER
  2
GROUP0
 70
     0
 62
    18
  6
CONTINUOUS
  0
ENDTAB
  0
TABLE
  2
STYLE
 70
     1
  0
STYLE
  2
STANDARD
 70
     0
 40
0.0
 41
1.0
 50
0.0
 71
     0
 42
0.2
  3
txt
  4

  0
ENDTAB
  0
TABLE
  2
VIEW
 70
     0
  0
ENDTAB
  0
TABLE
  2
UCS
 70
     0
  0
ENDTAB
  0
TABLE
  2
APPID
 70
     1
  0
APPID
  2
ACAD
 70
     0
  0
ENDTAB
  0
TABLE
  2
DIMSTYLE
 70
     1
  0
DIMSTYLE
  2
STANDARD
 70
     0
  3

  4

  5

  6

  7

 40
1.0
 41
0.18
 42
0.0625
 43
0.38
 44
0.18
 45
0.0
 46
0.0
 47
0.0
 48
0.0
140
0.18
141
0.09
142
0.0
143
25.4
144
1.0
145
0.0
146
1.0
147
0.09
 71
     0
 72
     0
 73
     1
 74
     1
 75
     0
 76
     0
 77
     0
 78
     0
170
     0
171
     2
172
     0
173
     0
174
     0
175
     0
176
     0
177
     0
178
     0
  0
ENDTAB
  0
ENDSEC
  0
SECTION
  2
BLOCKS
  0
BLOCK
  8
0
  2
$MODEL_SPACE
 70
     0
 10
0.0
 20
0.0
 30
0.0
  3
$MODEL_SPACE
  1

  0
ENDBLK
  5
21
  8
0
  0
BLOCK
 67
     1
  8
0
  2
$PAPER_SPACE
 70
     0
 10
0.0
 20
0.0
 30
0.0
  3
$PAPER_SPACE
  1

  0
ENDBLK
  5
1D
 67
     1
  8
0
  0
ENDSEC
  0
SECTION
  2
ENTITIES
  0
POLYLINE
  5
70
  8
GROUP0
 66
     1
 10
0.0
 20
0.0
 30
0.0
 70
     1
  0
VERTEX
  5
97
  8
GROUP0
 10
172.3708526720002
 20
236.7499995861019
 30
0.0
  0
VERTEX
  5
98
  8
GROUP0
 10
171.72149981045
 20
238.3176757451899
 30
0.0
  0
VERTEX
  5
99
  8
GROUP0
 10
171.5000175576301
 20
239.999999522071
 30
0.0
  0
VERTEX
  5
9A
  8
GROUP0
 10
171.72149956306
 20
241.682323331523
 30
0.0
  0
VERTEX
  5
9B
  8
GROUP0
 10
172.37085219407
 20
243.2499995861019
 30
0.0
  0
VERTEX
  5
9C
  8
GROUP0
 10
173.4038231419702
 20
244.5961937397659
 30
0.0
  0
VERTEX
  5
9D
  8
GROUP0
 10
174.75001714373
 20
245.629164885635
 30
0.0
  0
VERTEX
  5
9E
  8
GROUP0
 10
176.3176933028201
 20
246.2785177471829
 30
0.0
  0
VERTEX
  5
9F
  8
GROUP0
 10
178.0000170797
 20
246.5000000000019
 30
0.0
  0
VERTEX
  5
A0
  8
GROUP0
 10
179.6823408891501
 20
246.2785179945789
 30
0.0
  0
VERTEX
  5
A1
  8
GROUP0
 10
181.25001714373
 20
245.6291653635669
 30
0.0
  0
VERTEX
  5
A2
  8
GROUP0
 10
182.59621129739
 20
244.5961944156629
 30
0.0
  0
VERTEX
  5
A3
  8
GROUP0
 10
183.6291824432601
 20
243.250000413903
 30
0.0
  0
VERTEX
  5
A4
  8
GROUP0
 10
184.27853530481
 20
241.6823242548149
 30
0.0
  0
VERTEX
  5
A5
  8
GROUP0
 10
184.5000175576301
 20
240.0000004779339
 30
0.0
  0
VERTEX
  5
A6
  8
GROUP0
 10
184.2785355522101
 20
238.3176766684819
 30
0.0
  0
VERTEX
  5
A7
  8
GROUP0
 10
183.6291829212
 20
236.750000413903
 30
0.0
  0
VERTEX
  5
A8
  8
GROUP0
 10
182.5962119732901
 20
235.403806260239
 30
0.0
  0
VERTEX
  5
A9
  8
GROUP0
 10
181.25001797153
 20
234.3708351143699
 30
0.0
  0
VERTEX
  5
AA
  8
GROUP0
 10
179.68234181245
 20
233.7214822528209
 30
0.0
  0
VERTEX
  5
AB
  8
GROUP0
 10
178.0000180355601
 20
233.500000000003
 30
0.0
  0
VERTEX
  5
AC
  8
GROUP0
 10
176.31769422611
 20
233.721482005426
 30
0.0
  0
VERTEX
  5
AD
  8
GROUP0
 10
174.75001797153
 20
234.370834636438
 30
0.0
  0
VERTEX
  5
AE
  8
GROUP0
 10
173.40382381787
 20
235.403805584342
 30
0.0
  0
SEQEND
  5
3A7
  8
GROUP0
  0
POLYLINE
  5
71
  8
GROUP0
 66
     1
 10
0.0
 20
0.0
 30
0.0
 70
     1
  0
VERTEX
  5
AF
  8
GROUP0
 10
148.3708526720002
 20
236.7499995861019
 30
0.0
  0
VERTEX
  5
B0
  8
GROUP0
 10
147.72149981045
 20
238.3176757451899
 30
0.0
  0
VERTEX
  5
B1
  8
GROUP0
 10
147.5000175576301
 20
239.999999522071
 30
0.0
  0
VERTEX
  5
B2
  8
GROUP0
 10
147.72149956306
 20
241.682323331523
 30
0.0
  0
VERTEX
  5
B3
  8
GROUP0
 10
148.37085219407
 20
243.2499995861019
 30
0.0
  0
VERTEX
  5
B4
  8
GROUP0
 10
149.4038231419702
 20
244.5961937397659
 30
0.0
  0
VERTEX
  5
B5
  8
GROUP0
 10
150.75001714373
 20
245.629164885635
 30
0.0
  0
VERTEX
  5
B6
  8
GROUP0
 10
152.3176933028201
 20
246.2785177471829
 30
0.0
  0
VERTEX
  5
B7
  8
GROUP0
 10
154.0000170797
 20
246.5000000000019
 30
0.0
  0
VERTEX
  5
B8
  8
GROUP0
 10
155.6823408891501
 20
246.2785179945789
 30
0.0
  0
VERTEX
  5
B9
  8
GROUP0
 10
157.25001714373
 20
245.6291653635669
 30
0.0
  0
VERTEX
  5
BA
  8
GROUP0
 10
158.59621129739
 20
244.5961944156629
 30
0.0
  0
VERTEX
  5
BB
  8
GROUP0
 10
159.6291824432601
 20
243.250000413903
 30
0.0
  0
VERTEX
  5
BC
  8
GROUP0
 10
160.27853530481
 20
241.6823242548149
 30
0.0
  0
VERTEX
  5
BD
  8
GROUP0
 10
160.5000175576301
 20
240.0000004779339
 30
0.0
  0
VERTEX
  5
BE
  8
GROUP0
 10
160.2785355522101
 20
238.3176766684819
 30
0.0
  0
VERTEX
  5
BF
  8
GROUP0
 10
159.6291829212
 20
236.750000413903
 30
0.0
  0
VERTEX
  5
C0
  8
GROUP0
 10
158.5962119732901
 20
235.403806260239
 30
0.0
  0
VERTEX
  5
C1
  8
GROUP0
 10
157.25001797153
 20
234.3708351143699
 30
0.0
  0
VERTEX
  5
C2
  8
GROUP0
 10
155.68234181245
 20
233.7214822528209
 30
0.0
  0
VERTEX
  5
C3
  8
GROUP0
 10
154.0000180355601
 20
233.500000000003
 30
0.0
  0
VERTEX
  5
C4
  8
GROUP0
 10
152.31769422611
 20
233.721482005426
 30
0.0
  0
VERTEX
  5
C5
  8
GROUP0
 10
150.75001797153
 20
234.370834636438
 30
0.0
  0
VERTEX
  5
C6
  8
GROUP0
 10
149.40382381787
 20
235.403805584342
 30
0.0
  0
SEQEND
  5
3A8
  8
GROUP0
  0
POLYLINE
  5
72
  8
GROUP0
 66
     1
 10
0.0
 20
0.0
 30
0.0
 70
     1
  0
VERTEX
  5
C7
  8
GROUP0
 10
124.3708526720002
 20
236.7499995861019
 30
0.0
  0
VERTEX
  5
C8
  8
GROUP0
 10
123.72149981045
 20
238.3176757451899
 30
0.0
  0
VERTEX
  5
C9
  8
GROUP0
 10
123.5000175576301
 20
239.999999522071
 30
0.0
  0
VERTEX
  5
CA
  8
GROUP0
 10
123.72149956306
 20
241.682323331523
 30
0.0
  0
VERTEX
  5
CB
  8
GROUP0
 10
124.37085219407
 20
243.2499995861019
 30
0.0
  0
VERTEX
  5
CC
  8
GROUP0
 10
125.4038231419702
 20
244.5961937397659
 30
0.0
  0
VERTEX
  5
CD
  8
GROUP0
 10
126.75001714373
 20
245.629164885635
 30
0.0
  0
VERTEX
  5
CE
  8
GROUP0
 10
128.3176933028201
 20
246.2785177471829
 30
0.0
  0
VERTEX
  5
CF
  8
GROUP0
 10
130.0000170797
 20
246.5000000000019
 30
0.0
  0
VERTEX
  5
D0
  8
GROUP0
 10
131.6823408891501
 20
246.2785179945789
 30
0.0
  0
VERTEX
  5
D1
  8
GROUP0
 10
133.25001714373
 20
245.6291653635669
 30
0.0
  0
VERTEX
  5
D2
  8
GROUP0
 10
134.59621129739
 20
244.5961944156629
 30
0.0
  0
VERTEX
  5
D3
  8
GROUP0
 10
135.6291824432601
 20
243.250000413903
 30
0.0
  0
VERTEX
  5
D4
  8
GROUP0
 10
136.27853530481
 20
241.6823242548149
 30
0.0
  0
VERTEX
  5
D5
  8
GROUP0
 10
136.5000175576301
 20
240.0000004779339
 30
0.0
  0
VERTEX
  5
D6
  8
GROUP0
 10
136.2785355522101
 20
238.3176766684819
 30
0.0
  0
VERTEX
  5
D7
  8
GROUP0
 10
135.6291829212
 20
236.750000413903
 30
0.0
  0
VERTEX
  5
D8
  8
GROUP0
 10
134.5962119732901
 20
235.403806260239
 30
0.0
  0
VERTEX
  5
D9
  8
GROUP0
 10
133.25001797153
 20
234.3708351143699
 30
0.0
  0
VERTEX
  5
DA
  8
GROUP0
 10
131.68234181245
 20
233.7214822528209
 30
0.0
  0
VERTEX
  5
DB
  8
GROUP0
 10
130.0000180355601
 20
233.500000000003
 30
0.0
  0
VERTEX
  5
DC
  8
GROUP0
 10
128.31769422611
 20
233.721482005426
 30
0.0
  0
VERTEX
  5
DD
  8
GROUP0
 10
126.75001797153
 20
234.370834636438
 30
0.0
  0
VERTEX
  5
DE
  8
GROUP0
 10
125.40382381787
 20
235.403805584342
 30
0.0
  0
SEQEND
  5
3A9
  8
GROUP0
  0
POLYLINE
  5
73
  8
GROUP0
 66
     1
 10
0.0
 20
0.0
 30
0.0
 70
     1
  0
VERTEX
  5
DF
  8
GROUP0
 10
100.3708526720002
 20
236.7499995861019
 30
0.0
  0
VERTEX
  5
E0
  8
GROUP0
 10
99.72149981045004
 20
238.3176757451899
 30
0.0
  0
VERTEX
  5
E1
  8
GROUP0
 10
99.50001755763014
 20
239.999999522071
 30
0.0
  0
VERTEX
  5
E2
  8
GROUP0
 10
99.72149956305998
 20
241.682323331523
 30
0.0
  0
VERTEX
  5
E3
  8
GROUP0
 10
100.37085219407
 20
243.2499995861019
 30
0.0
  0
VERTEX
  5
E4
  8
GROUP0
 10
101.4038231419702
 20
244.5961937397659
 30
0.0
  0
VERTEX
  5
E5
  8
GROUP0
 10
102.75001714373
 20
245.629164885635
 30
0.0
  0
VERTEX
  5
E6
  8
GROUP0
 10
104.3176933028201
 20
246.2785177471829
 30
0.0
  0
VERTEX
  5
E7
  8
GROUP0
 10
106.0000170797
 20
246.5000000000019
 30
0.0
  0
VERTEX
  5
E8
  8
GROUP0
 10
107.6823408891501
 20
246.2785179945789
 30
0.0
  0
VERTEX
  5
E9
  8
GROUP0
 10
109.25001714373
 20
245.6291653635669
 30
0.0
  0
VERTEX
  5
EA
  8
GROUP0
 10
110.59621129739
 20
244.5961944156629
 30
0.0
  0
VERTEX
  5
EB
  8
GROUP0
 10
111.6291824432601
 20
243.250000413903
 30
0.0
  0
VERTEX
  5
EC
  8
GROUP0
 10
112.27853530481
 20
241.6823242548149
 30
0.0
  0
VERTEX
  5
ED
  8
GROUP0
 10
112.5000175576301
 20
240.0000004779339
 30
0.0
  0
VERTEX
  5
EE
  8
GROUP0
 10
112.2785355522101
 20
238.3176766684819
 30
0.0
  0
VERTEX
  5
EF
  8
GROUP0
 10
111.6291829212
 20
236.750000413903
 30
0.0
  0
VERTEX
  5
F0
  8
GROUP0
 10
110.5962119732901
 20
235.403806260239
 30
0.0
  0
VERTEX
  5
F1
  8
GROUP0
 10
109.25001797153
 20
234.3708351143699
 30
0.0
  0
VERTEX
  5
F2
  8
GROUP0
 10
107.68234181245
 20
233.7214822528209
 30
0.0
  0
VERTEX
  5
F3
  8
GROUP0
 10
106.0000180355601
 20
233.500000000003
 30
0.0
  0
VERTEX
  5
F4
  8
GROUP0
 10
104.31769422611
 20
233.721482005426
 30
0.0
  0
VERTEX
  5
F5
  8
GROUP0
 10
102.75001797153
 20
234.370834636438
 30
0.0
  0
VERTEX
  5
F6
  8
GROUP0
 10
101.40382381787
 20
235.403805584342
 30
0.0
  0
SEQEND
  5
3AA
  8
GROUP0
  0
POLYLINE
  5
74
  8
GROUP0
 66
     1
 10
0.0
 20
0.0
 30
0.0
 70
     1
  0
VERTEX
  5
F7
  8
GROUP0
 10
173.40381432095
 20
120.4038055843399
 30
0.0
  0
VERTEX
  5
F8
  8
GROUP0
 10
174.75000847461
 20
119.3708346364369
 30
0.0
  0
VERTEX
  5
F9
  8
GROUP0
 10
176.31768472919
 20
118.7214820054249
 30
0.0
  0
VERTEX
  5
FA
  8
GROUP0
 10
178.00000853864
 20
118.5000000000019
 30
0.0
  0
VERTEX
  5
FB
  8
GROUP0
 10
179.6823323155202
 20
118.7214822528209
 30
0.0
  0
VERTEX
  5
FC
  8
GROUP0
 10
181.25000847461
 20
119.3708351143689
 30
0.0
  0
VERTEX
  5
FD
  8
GROUP0
 10
182.5962024763701
 20
120.403806260238
 30
0.0
  0
VERTEX
  5
FE
  8
GROUP0
 10
183.62917342427
 20
121.750000413903
 30
0.0
  0
VERTEX
  5
FF
  8
GROUP0
 10
184.2785260552901
 20
123.3176766684819
 30
0.0
  0
VERTEX
  5
100
  8
GROUP0
 10
184.5000080607101
 20
125.000000477933
 30
0.0
  0
VERTEX
  5
101
  8
GROUP0
 10
184.27852580789
 20
126.6823242548139
 30
0.0
  0
VERTEX
  5
102
  8
GROUP0
 10
183.6291729463401
 20
128.2500004139019
 30
0.0
  0
VERTEX
  5
103
  8
GROUP0
 10
182.59620180047
 20
129.5961944156619
 30
0.0
  0
VERTEX
  5
104
  8
GROUP0
 10
181.25000764681
 20
130.6291653635659
 30
0.0
  0
VERTEX
  5
105
  8
GROUP0
 10
179.68233139223
 20
131.2785179945779
 30
0.0
  0
VERTEX
  5
106
  8
GROUP0
 10
178.0000075827802
 20
131.5000000000009
 30
0.0
  0
VERTEX
  5
107
  8
GROUP0
 10
176.3176838059001
 20
131.2785177471819
 30
0.0
  0
VERTEX
  5
108
  8
GROUP0
 10
174.75000764681
 20
130.6291648856339
 30
0.0
  0
VERTEX
  5
109
  8
GROUP0
 10
173.4038136450501
 20
129.596193739764
 30
0.0
  0
VERTEX
  5
10A
  8
GROUP0
 10
172.37084269715
 20
128.2499995861
 30
0.0
  0
VERTEX
  5
10B
  8
GROUP0
 10
171.7214900661302
 20
126.6823233315199
 30
0.0
  0
VERTEX
  5
10C
  8
GROUP0
 10
171.5000080607101
 20
124.9999995220689
 30
0.0
  0
VERTEX
  5
10D
  8
GROUP0
 10
171.72149031353
 20
123.3176757451879
 30
0.0
  0
VERTEX
  5
10E
  8
GROUP0
 10
172.3708431750802
 20
121.7499995861
 30
0.0
  0
SEQEND
  5
3AB
  8
GROUP0
  0
POLYLINE
  5
75
  8
GROUP0
 66
     1
 10
0.0
 20
0.0
 30
0.0
 70
     1
  0
VERTEX
  5
10F
  8
GROUP0
 10
76.37085267200018
 20
236.7499995861019
 30
0.0
  0
VERTEX
  5
110
  8
GROUP0
 10
75.72149981045004
 20
238.3176757451899
 30
0.0
  0
VERTEX
  5
111
  8
GROUP0
 10
75.50001755763014
 20
239.999999522071
 30
0.0
  0
VERTEX
  5
112
  8
GROUP0
 10
75.72149956305998
 20
241.682323331523
 30
0.0
  0
VERTEX
  5
113
  8
GROUP0
 10
76.37085219407004
 20
243.2499995861019
 30
0.0
  0
VERTEX
  5
114
  8
GROUP0
 10
77.40382314197018
 20
244.5961937397659
 30
0.0
  0
VERTEX
  5
115
  8
GROUP0
 10
78.75001714373002
 20
245.629164885635
 30
0.0
  0
VERTEX
  5
116
  8
GROUP0
 10
80.31769330282009
 20
246.2785177471829
 30
0.0
  0
VERTEX
  5
117
  8
GROUP0
 10
82.0000170797
 20
246.5000000000019
 30
0.0
  0
VERTEX
  5
118
  8
GROUP0
 10
83.68234088915005
 20
246.2785179945789
 30
0.0
  0
VERTEX
  5
119
  8
GROUP0
 10
85.25001714373002
 20
245.6291653635669
 30
0.0
  0
VERTEX
  5
11A
  8
GROUP0
 10
86.59621129739003
 20
244.5961944156629
 30
0.0
  0
VERTEX
  5
11B
  8
GROUP0
 10
87.6291824432601
 20
243.250000413903
 30
0.0
  0
VERTEX
  5
11C
  8
GROUP0
 10
88.27853530481002
 20
241.6823242548149
 30
0.0
  0
VERTEX
  5
11D
  8
GROUP0
 10
88.50001755763014
 20
240.0000004779339
 30
0.0
  0
VERTEX
  5
11E
  8
GROUP0
 10
88.27853555221009
 20
238.3176766684819
 30
0.0
  0
VERTEX
  5
11F
  8
GROUP0
 10
87.62918292120003
 20
236.750000413903
 30
0.0
  0
VERTEX
  5
120
  8
GROUP0
 10
86.59621197329011
 20
235.403806260239
 30
0.0
  0
VERTEX
  5
121
  8
GROUP0
 10
85.25001797153004
 20
234.3708351143699
 30
0.0
  0
VERTEX
  5
122
  8
GROUP0
 10
83.68234181244998
 20
233.7214822528209
 30
0.0
  0
VERTEX
  5
123
  8
GROUP0
 10
82.00001803556006
 20
233.500000000003
 30
0.0
  0
VERTEX
  5
124
  8
GROUP0
 10
80.31769422611
 20
233.721482005426
 30
0.0
  0
VERTEX
  5
125
  8
GROUP0
 10
78.75001797153004
 20
234.370834636438
 30
0.0
  0
VERTEX
  5
126
  8
GROUP0
 10
77.40382381787003
 20
235.403805584342
 30
0.0
  0
SEQEND
  5
3AC
  8
GROUP0
  0
POLYLINE
  5
76
  8
GROUP0
 66
     1
 10
0.0
 20
0.0
 30
0.0
 70
     1
  0
VERTEX
  5
127
  8
GROUP0
 10
149.40381432095
 20
120.4038055843399
 30
0.0
  0
VERTEX
  5
128
  8
GROUP0
 10
150.75000847461
 20
119.3708346364369
 30
0.0
  0
VERTEX
  5
129
  8
GROUP0
 10
152.31768472919
 20
118.7214820054249
 30
0.0
  0
VERTEX
  5
12A
  8
GROUP0
 10
154.00000853864
 20
118.5000000000019
 30
0.0
  0
VERTEX
  5
12B
  8
GROUP0
 10
155.6823323155202
 20
118.7214822528209
 30
0.0
  0
VERTEX
  5
12C
  8
GROUP0
 10
157.25000847461
 20
119.3708351143689
 30
0.0
  0
VERTEX
  5
12D
  8
GROUP0
 10
158.5962024763701
 20
120.403806260238
 30
0.0
  0
VERTEX
  5
12E
  8
GROUP0
 10
159.62917342427
 20
121.750000413903
 30
0.0
  0
VERTEX
  5
12F
  8
GROUP0
 10
160.2785260552901
 20
123.3176766684819
 30
0.0
  0
VERTEX
  5
130
  8
GROUP0
 10
160.5000080607101
 20
125.000000477933
 30
0.0
  0
VERTEX
  5
131
  8
GROUP0
 10
160.27852580789
 20
126.6823242548139
 30
0.0
  0
VERTEX
  5
132
  8
GROUP0
 10
159.6291729463401
 20
128.2500004139019
 30
0.0
  0
VERTEX
  5
133
  8
GROUP0
 10
158.59620180047
 20
129.5961944156619
 30
0.0
  0
VERTEX
  5
134
  8
GROUP0
 10
157.25000764681
 20
130.6291653635659
 30
0.0
  0
VERTEX
  5
135
  8
GROUP0
 10
155.68233139223
 20
131.2785179945779
 30
0.0
  0
VERTEX
  5
136
  8
GROUP0
 10
154.0000075827802
 20
131.5000000000009
 30
0.0
  0
VERTEX
  5
137
  8
GROUP0
 10
152.3176838059001
 20
131.2785177471819
 30
0.0
  0
VERTEX
  5
138
  8
GROUP0
 10
150.75000764681
 20
130.6291648856339
 30
0.0
  0
VERTEX
  5
139
  8
GROUP0
 10
149.4038136450501
 20
129.596193739764
 30
0.0
  0
VERTEX
  5
13A
  8
GROUP0
 10
148.37084269715
 20
128.2499995861
 30
0.0
  0
VERTEX
  5
13B
  8
GROUP0
 10
147.7214900661302
 20
126.6823233315199
 30
0.0
  0
VERTEX
  5
13C
  8
GROUP0
 10
147.5000080607101
 20
124.9999995220689
 30
0.0
  0
VERTEX
  5
13D
  8
GROUP0
 10
147.72149031353
 20
123.3176757451879
 30
0.0
  0
VERTEX
  5
13E
  8
GROUP0
 10
148.3708431750802
 20
121.7499995861
 30
0.0
  0
SEQEND
  5
3AD
  8
GROUP0
  0
POLYLINE
  5
77
  8
GROUP0
 66
     1
 10
0.0
 20
0.0
 30
0.0
 70
     1
  0
VERTEX
  5
13F
  8
GROUP0
 10
52.37085267200018
 20
236.7499995861019
 30
0.0
  0
VERTEX
  5
140
  8
GROUP0
 10
51.72149981045004
 20
238.3176757451899
 30
0.0
  0
VERTEX
  5
141
  8
GROUP0
 10
51.50001755763014
 20
239.999999522071
 30
0.0
  0
VERTEX
  5
142
  8
GROUP0
 10
51.72149956305998
 20
241.682323331523
 30
0.0
  0
VERTEX
  5
143
  8
GROUP0
 10
52.37085219407004
 20
243.2499995861019
 30
0.0
  0
VERTEX
  5
144
  8
GROUP0
 10
53.40382314197018
 20
244.5961937397659
 30
0.0
  0
VERTEX
  5
145
  8
GROUP0
 10
54.75001714373002
 20
245.629164885635
 30
0.0
  0
VERTEX
  5
146
  8
GROUP0
 10
56.31769330282009
 20
246.2785177471829
 30
0.0
  0
VERTEX
  5
147
  8
GROUP0
 10
58.0000170797
 20
246.5000000000019
 30
0.0
  0
VERTEX
  5
148
  8
GROUP0
 10
59.68234088915005
 20
246.2785179945789
 30
0.0
  0
VERTEX
  5
149
  8
GROUP0
 10
61.25001714373002
 20
245.6291653635669
 30
0.0
  0
VERTEX
  5
14A
  8
GROUP0
 10
62.59621129739003
 20
244.5961944156629
 30
0.0
  0
VERTEX
  5
14B
  8
GROUP0
 10
63.62918244326011
 20
243.250000413903
 30
0.0
  0
VERTEX
  5
14C
  8
GROUP0
 10
64.27853530481002
 20
241.6823242548149
 30
0.0
  0
VERTEX
  5
14D
  8
GROUP0
 10
64.50001755763014
 20
240.0000004779339
 30
0.0
  0
VERTEX
  5
14E
  8
GROUP0
 10
64.27853555221009
 20
238.3176766684819
 30
0.0
  0
VERTEX
  5
14F
  8
GROUP0
 10
63.62918292120003
 20
236.750000413903
 30
0.0
  0
VERTEX
  5
150
  8
GROUP0
 10
62.59621197329011
 20
235.403806260239
 30
0.0
  0
VERTEX
  5
151
  8
GROUP0
 10
61.25001797153004
 20
234.3708351143699
 30
0.0
  0
VERTEX
  5
152
  8
GROUP0
 10
59.68234181244998
 20
233.7214822528209
 30
0.0
  0
VERTEX
  5
153
  8
GROUP0
 10
58.00001803556006
 20
233.500000000003
 30
0.0
  0
VERTEX
  5
154
  8
GROUP0
 10
56.31769422611001
 20
233.721482005426
 30
0.0
  0
VERTEX
  5
155
  8
GROUP0
 10
54.75001797153004
 20
234.370834636438
 30
0.0
  0
VERTEX
  5
156
  8
GROUP0
 10
53.40382381787003
 20
235.403805584342
 30
0.0
  0
SEQEND
  5
3AE
  8
GROUP0
  0
POLYLINE
  5
78
  8
GROUP0
 66
     1
 10
0.0
 20
0.0
 30
0.0
 70
     1
  0
VERTEX
  5
157
  8
GROUP0
 10
125.40381432095
 20
120.4038055843399
 30
0.0
  0
VERTEX
  5
158
  8
GROUP0
 10
126.75000847461
 20
119.3708346364369
 30
0.0
  0
VERTEX
  5
159
  8
GROUP0
 10
128.31768472919
 20
118.7214820054249
 30
0.0
  0
VERTEX
  5
15A
  8
GROUP0
 10
130.00000853864
 20
118.5000000000019
 30
0.0
  0
VERTEX
  5
15B
  8
GROUP0
 10
131.6823323155202
 20
118.7214822528209
 30
0.0
  0
VERTEX
  5
15C
  8
GROUP0
 10
133.25000847461
 20
119.3708351143689
 30
0.0
  0
VERTEX
  5
15D
  8
GROUP0
 10
134.5962024763701
 20
120.403806260238
 30
0.0
  0
VERTEX
  5
15E
  8
GROUP0
 10
135.62917342427
 20
121.750000413903
 30
0.0
  0
VERTEX
  5
15F
  8
GROUP0
 10
136.2785260552901
 20
123.3176766684819
 30
0.0
  0
VERTEX
  5
160
  8
GROUP0
 10
136.5000080607101
 20
125.000000477933
 30
0.0
  0
VERTEX
  5
161
  8
GROUP0
 10
136.27852580789
 20
126.6823242548139
 30
0.0
  0
VERTEX
  5
162
  8
GROUP0
 10
135.6291729463401
 20
128.2500004139019
 30
0.0
  0
VERTEX
  5
163
  8
GROUP0
 10
134.59620180047
 20
129.5961944156619
 30
0.0
  0
VERTEX
  5
164
  8
GROUP0
 10
133.25000764681
 20
130.6291653635659
 30
0.0
  0
VERTEX
  5
165
  8
GROUP0
 10
131.68233139223
 20
131.2785179945779
 30
0.0
  0
VERTEX
  5
166
  8
GROUP0
 10
130.0000075827802
 20
131.5000000000009
 30
0.0
  0
VERTEX
  5
167
  8
GROUP0
 10
128.3176838059001
 20
131.2785177471819
 30
0.0
  0
VERTEX
  5
168
  8
GROUP0
 10
126.75000764681
 20
130.6291648856339
 30
0.0
  0
VERTEX
  5
169
  8
GROUP0
 10
125.4038136450501
 20
129.596193739764
 30
0.0
  0
VERTEX
  5
16A
  8
GROUP0
 10
124.37084269715
 20
128.2499995861
 30
0.0
  0
VERTEX
  5
16B
  8
GROUP0
 10
123.7214900661302
 20
126.6823233315199
 30
0.0
  0
VERTEX
  5
16C
  8
GROUP0
 10
123.5000080607101
 20
124.9999995220689
 30
0.0
  0
VERTEX
  5
16D
  8
GROUP0
 10
123.72149031353
 20
123.3176757451879
 30
0.0
  0
VERTEX
  5
16E
  8
GROUP0
 10
124.3708431750802
 20
121.7499995861
 30
0.0
  0
SEQEND
  5
3AF
  8
GROUP0
  0
POLYLINE
  5
79
  8
GROUP0
 66
     1
 10
0.0
 20
0.0
 30
0.0
 70
     1
  0
VERTEX
  5
16F
  8
GROUP0
 10
27.72149981045004
 20
238.3176757451899
 30
0.0
  0
VERTEX
  5
170
  8
GROUP0
 10
27.50001755763014
 20
239.999999522071
 30
0.0
  0
VERTEX
  5
171
  8
GROUP0
 10
27.72149956305998
 20
241.682323331523
 30
0.0
  0
VERTEX
  5
172
  8
GROUP0
 10
28.37085219407004
 20
243.2499995861019
 30
0.0
  0
VERTEX
  5
173
  8
GROUP0
 10
29.40382314197018
 20
244.5961937397659
 30
0.0
  0
VERTEX
  5
174
  8
GROUP0
 10
30.75001714373002
 20
245.629164885635
 30
0.0
  0
VERTEX
  5
175
  8
GROUP0
 10
32.31769330282009
 20
246.2785177471829
 30
0.0
  0
VERTEX
  5
176
  8
GROUP0
 10
34.0000170797
 20
246.5000000000019
 30
0.0
  0
VERTEX
  5
177
  8
GROUP0
 10
35.68234088915005
 20
246.2785179945789
 30
0.0
  0
VERTEX
  5
178
  8
GROUP0
 10
37.25001714373002
 20
245.6291653635669
 30
0.0
  0
VERTEX
  5
179
  8
GROUP0
 10
38.59621129739003
 20
244.5961944156629
 30
0.0
  0
VERTEX
  5
17A
  8
GROUP0
 10
39.62918244326011
 20
243.250000413903
 30
0.0
  0
VERTEX
  5
17B
  8
GROUP0
 10
40.27853530481002
 20
241.6823242548149
 30
0.0
  0
VERTEX
  5
17C
  8
GROUP0
 10
40.50001755763014
 20
240.0000004779339
 30
0.0
  0
VERTEX
  5
17D
  8
GROUP0
 10
40.27853555221009
 20
238.3176766684819
 30
0.0
  0
VERTEX
  5
17E
  8
GROUP0
 10
39.62918292120003
 20
236.750000413903
 30
0.0
  0
VERTEX
  5
17F
  8
GROUP0
 10
38.59621197329011
 20
235.403806260239
 30
0.0
  0
VERTEX
  5
180
  8
GROUP0
 10
37.25001797153004
 20
234.3708351143699
 30
0.0
  0
VERTEX
  5
181
  8
GROUP0
 10
35.68234181244998
 20
233.7214822528209
 30
0.0
  0
VERTEX
  5
182
  8
GROUP0
 10
34.00001803556006
 20
233.500000000003
 30
0.0
  0
VERTEX
  5
183
  8
GROUP0
 10
32.31769422611001
 20
233.721482005426
 30
0.0
  0
VERTEX
  5
184
  8
GROUP0
 10
30.75001797153004
 20
234.370834636438
 30
0.0
  0
VERTEX
  5
185
  8
GROUP0
 10
29.40382381787003
 20
235.403805584342
 30
0.0
  0
VERTEX
  5
186
  8
GROUP0
 10
28.37085267200018
 20
236.7499995861019
 30
0.0
  0
SEQEND
  5
3B0
  8
GROUP0
  0
POLYLINE
  5
7A
  8
GROUP0
 66
     1
 10
0.0
 20
0.0
 30
0.0
 70
     1
  0
VERTEX
  5
187
  8
GROUP0
 10
101.40381432095
 20
120.4038055843399
 30
0.0
  0
VERTEX
  5
188
  8
GROUP0
 10
102.75000847461
 20
119.3708346364369
 30
0.0
  0
VERTEX
  5
189
  8
GROUP0
 10
104.31768472919
 20
118.7214820054249
 30
0.0
  0
VERTEX
  5
18A
  8
GROUP0
 10
106.00000853864
 20
118.5000000000019
 30
0.0
  0
VERTEX
  5
18B
  8
GROUP0
 10
107.6823323155202
 20
118.7214822528209
 30
0.0
  0
VERTEX
  5
18C
  8
GROUP0
 10
109.25000847461
 20
119.3708351143689
 30
0.0
  0
VERTEX
  5
18D
  8
GROUP0
 10
110.5962024763701
 20
120.403806260238
 30
0.0
  0
VERTEX
  5
18E
  8
GROUP0
 10
111.62917342427
 20
121.750000413903
 30
0.0
  0
VERTEX
  5
18F
  8
GROUP0
 10
112.2785260552901
 20
123.3176766684819
 30
0.0
  0
VERTEX
  5
190
  8
GROUP0
 10
112.5000080607101
 20
125.000000477933
 30
0.0
  0
VERTEX
  5
191
  8
GROUP0
 10
112.27852580789
 20
126.6823242548139
 30
0.0
  0
VERTEX
  5
192
  8
GROUP0
 10
111.6291729463401
 20
128.2500004139019
 30
0.0
  0
VERTEX
  5
193
  8
GROUP0
 10
110.59620180047
 20
129.5961944156619
 30
0.0
  0
VERTEX
  5
194
  8
GROUP0
 10
109.25000764681
 20
130.6291653635659
 30
0.0
  0
VERTEX
  5
195
  8
GROUP0
 10
107.68233139223
 20
131.2785179945779
 30
0.0
  0
VERTEX
  5
196
  8
GROUP0
 10
106.0000075827802
 20
131.5000000000009
 30
0.0
  0
VERTEX
  5
197
  8
GROUP0
 10
104.3176838059001
 20
131.2785177471819
 30
0.0
  0
VERTEX
  5
198
  8
GROUP0
 10
102.75000764681
 20
130.6291648856339
 30
0.0
  0
VERTEX
  5
199
  8
GROUP0
 10
101.4038136450501
 20
129.596193739764
 30
0.0
  0
VERTEX
  5
19A
  8
GROUP0
 10
100.37084269715
 20
128.2499995861
 30
0.0
  0
VERTEX
  5
19B
  8
GROUP0
 10
99.72149006613017
 20
126.6823233315199
 30
0.0
  0
VERTEX
  5
19C
  8
GROUP0
 10
99.50000806071012
 20
124.9999995220689
 30
0.0
  0
VERTEX
  5
19D
  8
GROUP0
 10
99.72149031353001
 20
123.3176757451879
 30
0.0
  0
VERTEX
  5
19E
  8
GROUP0
 10
100.3708431750802
 20
121.7499995861
 30
0.0
  0
SEQEND
  5
3B1
  8
GROUP0
  0
POLYLINE
  5
7B
  8
GROUP0
 66
     1
 10
0.0
 20
0.0
 30
0.0
 70
     1
  0
VERTEX
  5
19F
  8
GROUP0
 10
77.40381432095
 20
120.4038055843399
 30
0.0
  0
VERTEX
  5
1A0
  8
GROUP0
 10
78.75000847461001
 20
119.3708346364369
 30
0.0
  0
VERTEX
  5
1A1
  8
GROUP0
 10
80.31768472918998
 20
118.7214820054249
 30
0.0
  0
VERTEX
  5
1A2
  8
GROUP0
 10
82.00000853864003
 20
118.5000000000019
 30
0.0
  0
VERTEX
  5
1A3
  8
GROUP0
 10
83.68233231552017
 20
118.7214822528209
 30
0.0
  0
VERTEX
  5
1A4
  8
GROUP0
 10
85.25000847461001
 20
119.3708351143689
 30
0.0
  0
VERTEX
  5
1A5
  8
GROUP0
 10
86.59620247637008
 20
120.403806260238
 30
0.0
  0
VERTEX
  5
1A6
  8
GROUP0
 10
87.62917342427
 20
121.750000413903
 30
0.0
  0
VERTEX
  5
1A7
  8
GROUP0
 10
88.27852605529006
 20
123.3176766684819
 30
0.0
  0
VERTEX
  5
1A8
  8
GROUP0
 10
88.50000806071012
 20
125.000000477933
 30
0.0
  0
VERTEX
  5
1A9
  8
GROUP0
 10
88.27852580788999
 20
126.6823242548139
 30
0.0
  0
VERTEX
  5
1AA
  8
GROUP0
 10
87.62917294634008
 20
128.2500004139019
 30
0.0
  0
VERTEX
  5
1AB
  8
GROUP0
 10
86.59620180047
 20
129.5961944156619
 30
0.0
  0
VERTEX
  5
1AC
  8
GROUP0
 10
85.25000764680999
 20
130.6291653635659
 30
0.0
  0
VERTEX
  5
1AD
  8
GROUP0
 10
83.68233139223003
 20
131.2785179945779
 30
0.0
  0
VERTEX
  5
1AE
  8
GROUP0
 10
82.0000075827802
 20
131.5000000000009
 30
0.0
  0
VERTEX
  5
1AF
  8
GROUP0
 10
80.31768380590006
 20
131.2785177471819
 30
0.0
  0
VERTEX
  5
1B0
  8
GROUP0
 10
78.75000764680999
 20
130.6291648856339
 30
0.0
  0
VERTEX
  5
1B1
  8
GROUP0
 10
77.40381364505015
 20
129.596193739764
 30
0.0
  0
VERTEX
  5
1B2
  8
GROUP0
 10
76.37084269715001
 20
128.2499995861
 30
0.0
  0
VERTEX
  5
1B3
  8
GROUP0
 10
75.72149006613017
 20
126.6823233315199
 30
0.0
  0
VERTEX
  5
1B4
  8
GROUP0
 10
75.50000806071012
 20
124.9999995220689
 30
0.0
  0
VERTEX
  5
1B5
  8
GROUP0
 10
75.72149031353001
 20
123.3176757451879
 30
0.0
  0
VERTEX
  5
1B6
  8
GROUP0
 10
76.37084317508015
 20
121.7499995861
 30
0.0
  0
SEQEND
  5
3B2
  8
GROUP0
  0
POLYLINE
  5
7C
  8
GROUP0
 66
     1
 10
0.0
 20
0.0
 30
0.0
 70
     1
  0
VERTEX
  5
1B7
  8
GROUP0
 10
3.721499810450041
 20
238.3176757451899
 30
0.0
  0
VERTEX
  5
1B8
  8
GROUP0
 10
3.500017557630144
 20
239.999999522071
 30
0.0
  0
VERTEX
  5
1B9
  8
GROUP0
 10
3.721499563059979
 20
241.682323331523
 30
0.0
  0
VERTEX
  5
1BA
  8
GROUP0
 10
4.370852194070039
 20
243.2499995861019
 30
0.0
  0
VERTEX
  5
1BB
  8
GROUP0
 10
5.403823141970179
 20
244.5961937397659
 30
0.0
  0
VERTEX
  5
1BC
  8
GROUP0
 10
6.75001714373002
 20
245.629164885635
 30
0.0
  0
VERTEX
  5
1BD
  8
GROUP0
 10
8.31769330282009
 20
246.2785177471829
 30
0.0
  0
VERTEX
  5
1BE
  8
GROUP0
 10
10.0000170797
 20
246.5000000000019
 30
0.0
  0
VERTEX
  5
1BF
  8
GROUP0
 10
11.68234088915005
 20
246.2785179945789
 30
0.0
  0
VERTEX
  5
1C0
  8
GROUP0
 10
13.25001714373002
 20
245.6291653635669
 30
0.0
  0
VERTEX
  5
1C1
  8
GROUP0
 10
14.59621129739003
 20
244.5961944156629
 30
0.0
  0
VERTEX
  5
1C2
  8
GROUP0
 10
15.62918244326011
 20
243.250000413903
 30
0.0
  0
VERTEX
  5
1C3
  8
GROUP0
 10
16.27853530481002
 20
241.6823242548149
 30
0.0
  0
VERTEX
  5
1C4
  8
GROUP0
 10
16.50001755763014
 20
240.0000004779339
 30
0.0
  0
VERTEX
  5
1C5
  8
GROUP0
 10
16.27853555221009
 20
238.3176766684819
 30
0.0
  0
VERTEX
  5
1C6
  8
GROUP0
 10
15.62918292120003
 20
236.750000413903
 30
0.0
  0
VERTEX
  5
1C7
  8
GROUP0
 10
14.59621197329011
 20
235.403806260239
 30
0.0
  0
VERTEX
  5
1C8
  8
GROUP0
 10
13.25001797153004
 20
234.3708351143699
 30
0.0
  0
VERTEX
  5
1C9
  8
GROUP0
 10
11.68234181244998
 20
233.7214822528209
 30
0.0
  0
VERTEX
  5
1CA
  8
GROUP0
 10
10.00001803556006
 20
233.500000000003
 30
0.0
  0
VERTEX
  5
1CB
  8
GROUP0
 10
8.317694226110007
 20
233.721482005426
 30
0.0
  0
VERTEX
  5
1CC
  8
GROUP0
 10
6.750017971530042
 20
234.370834636438
 30
0.0
  0
VERTEX
  5
1CD
  8
GROUP0
 10
5.403823817870034
 20
235.403805584342
 30
0.0
  0
VERTEX
  5
1CE
  8
GROUP0
 10
4.370852672000183
 20
236.7499995861019
 30
0.0
  0
SEQEND
  5
3B3
  8
GROUP0
  0
POLYLINE
  5
7D
  8
GROUP0
 66
     1
 10
0.0
 20
0.0
 30
0.0
 70
     1
  0
VERTEX
  5
1CF
  8
GROUP0
 10
53.40381432095
 20
120.4038055843399
 30
0.0
  0
VERTEX
  5
1D0
  8
GROUP0
 10
54.75000847461001
 20
119.3708346364369
 30
0.0
  0
VERTEX
  5
1D1
  8
GROUP0
 10
56.31768472918998
 20
118.7214820054249
 30
0.0
  0
VERTEX
  5
1D2
  8
GROUP0
 10
58.00000853864003
 20
118.5000000000019
 30
0.0
  0
VERTEX
  5
1D3
  8
GROUP0
 10
59.68233231552017
 20
118.7214822528209
 30
0.0
  0
VERTEX
  5
1D4
  8
GROUP0
 10
61.25000847461001
 20
119.3708351143689
 30
0.0
  0
VERTEX
  5
1D5
  8
GROUP0
 10
62.59620247637008
 20
120.403806260238
 30
0.0
  0
VERTEX
  5
1D6
  8
GROUP0
 10
63.62917342426999
 20
121.750000413903
 30
0.0
  0
VERTEX
  5
1D7
  8
GROUP0
 10
64.27852605529006
 20
123.3176766684819
 30
0.0
  0
VERTEX
  5
1D8
  8
GROUP0
 10
64.50000806071012
 20
125.000000477933
 30
0.0
  0
VERTEX
  5
1D9
  8
GROUP0
 10
64.27852580788999
 20
126.6823242548139
 30
0.0
  0
VERTEX
  5
1DA
  8
GROUP0
 10
63.62917294634008
 20
128.2500004139019
 30
0.0
  0
VERTEX
  5
1DB
  8
GROUP0
 10
62.59620180047
 20
129.5961944156619
 30
0.0
  0
VERTEX
  5
1DC
  8
GROUP0
 10
61.25000764680999
 20
130.6291653635659
 30
0.0
  0
VERTEX
  5
1DD
  8
GROUP0
 10
59.68233139223003
 20
131.2785179945779
 30
0.0
  0
VERTEX
  5
1DE
  8
GROUP0
 10
58.0000075827802
 20
131.5000000000009
 30
0.0
  0
VERTEX
  5
1DF
  8
GROUP0
 10
56.31768380590006
 20
131.2785177471819
 30
0.0
  0
VERTEX
  5
1E0
  8
GROUP0
 10
54.75000764680999
 20
130.6291648856339
 30
0.0
  0
VERTEX
  5
1E1
  8
GROUP0
 10
53.40381364505015
 20
129.596193739764
 30
0.0
  0
VERTEX
  5
1E2
  8
GROUP0
 10
52.37084269715001
 20
128.2499995861
 30
0.0
  0
VERTEX
  5
1E3
  8
GROUP0
 10
51.72149006613017
 20
126.6823233315199
 30
0.0
  0
VERTEX
  5
1E4
  8
GROUP0
 10
51.50000806071012
 20
124.9999995220689
 30
0.0
  0
VERTEX
  5
1E5
  8
GROUP0
 10
51.72149031353001
 20
123.3176757451879
 30
0.0
  0
VERTEX
  5
1E6
  8
GROUP0
 10
52.37084317508015
 20
121.7499995861
 30
0.0
  0
SEQEND
  5
3B4
  8
GROUP0
  0
POLYLINE
  5
7E
  8
GROUP0
 66
     1
 10
0.0
 20
0.0
 30
0.0
 70
     1
  0
VERTEX
  5
1E7
  8
GROUP0
 10
174.7499938322301
 20
4.370838436369922
 30
0.0
  0
VERTEX
  5
1E8
  8
GROUP0
 10
173.4038008863301
 20
5.40381095826001
 30
0.0
  0
VERTEX
  5
1E9
  8
GROUP0
 10
172.37083131444
 20
6.750006167779929
 30
0.0
  0
VERTEX
  5
1EA
  8
GROUP0
 10
171.72148028584
 20
8.317683086090028
 30
0.0
  0
VERTEX
  5
1EB
  8
GROUP0
 10
171.50000000001
 20
10.00000712192991
 30
0.0
  0
VERTEX
  5
1EC
  8
GROUP0
 10
171.7214839724202
 20
11.68233067241999
 30
0.0
  0
VERTEX
  5
1ED
  8
GROUP0
 10
172.3708384363701
 20
13.25000616776993
 30
0.0
  0
VERTEX
  5
1EE
  8
GROUP0
 10
173.40381095826
 20
14.59619911366985
 30
0.0
  0
VERTEX
  5
1EF
  8
GROUP0
 10
174.7500061677802
 20
15.62916868555999
 30
0.0
  0
VERTEX
  5
1F0
  8
GROUP0
 10
176.31768308609
 20
16.27851971415998
 30
0.0
  0
VERTEX
  5
1F1
  8
GROUP0
 10
178.0000071219301
 20
16.49999999999
 30
0.0
  0
VERTEX
  5
1F2
  8
GROUP0
 10
179.68233067242
 20
16.27851602758005
 30
0.0
  0
VERTEX
  5
1F3
  8
GROUP0
 10
181.2500061677702
 20
15.62916156362985
 30
0.0
  0
VERTEX
  5
1F4
  8
GROUP0
 10
182.5961991136701
 20
14.59618904173999
 30
0.0
  0
VERTEX
  5
1F5
  8
GROUP0
 10
183.62916868556
 20
13.24999383221984
 30
0.0
  0
VERTEX
  5
1F6
  8
GROUP0
 10
184.27851971416
 20
11.68231691390997
 30
0.0
  0
VERTEX
  5
1F7
  8
GROUP0
 10
184.49999999999
 20
9.999992878069861
 30
0.0
  0
VERTEX
  5
1F8
  8
GROUP0
 10
184.2785160275801
 20
8.317669327580006
 30
0.0
  0
VERTEX
  5
1F9
  8
GROUP0
 10
183.6291615636301
 20
6.749993832229848
 30
0.0
  0
VERTEX
  5
1FA
  8
GROUP0
 10
182.59618904174
 20
5.403800886329918
 30
0.0
  0
VERTEX
  5
1FB
  8
GROUP0
 10
181.2499938322201
 20
4.370831314440011
 30
0.0
  0
VERTEX
  5
1FC
  8
GROUP0
 10
179.6823169139102
 20
3.721480285840016
 30
0.0
  0
VERTEX
  5
1FD
  8
GROUP0
 10
177.9999928780701
 20
3.500000000010004
 30
0.0
  0
VERTEX
  5
1FE
  8
GROUP0
 10
176.31766932758
 20
3.721483972419946
 30
0.0
  0
SEQEND
  5
3B5
  8
GROUP0
  0
POLYLINE
  5
7F
  8
GROUP0
 66
     1
 10
0.0
 20
0.0
 30
0.0
 70
     1
  0
VERTEX
  5
1FF
  8
GROUP0
 10
173.00000063677
 20
1.339745594519854
 30
0.0
  0
VERTEX
  5
200
  8
GROUP0
 10
170.9289327080601
 20
2.928931668209998
 30
0.0
  0
VERTEX
  5
201
  8
GROUP0
 10
169.3397463298002
 20
4.999999363230017
 30
0.0
  0
VERTEX
  5
202
  8
GROUP0
 10
168.3407419274101
 20
7.411808838749948
 30
0.0
  0
VERTEX
  5
203
  8
GROUP0
 10
168.0
 20
9.999999264719918
 30
0.0
  0
VERTEX
  5
204
  8
GROUP0
 10
168.00001612142
 20
239.999999264723
 30
0.0
  0
VERTEX
  5
205
  8
GROUP0
 10
168.34075766823
 20
242.5881897408019
 30
0.0
  0
VERTEX
  5
206
  8
GROUP0
 10
169.3397617159401
 20
244.999999363232
 30
0.0
  0
VERTEX
  5
207
  8
GROUP0
 10
170.92894778963
 20
247.071067291947
 30
0.0
  0
VERTEX
  5
208
  8
GROUP0
 10
173.00001548465
 20
248.660253670206
 30
0.0
  0
VERTEX
  5
209
  8
GROUP0
 10
175.4118249601702
 20
249.659258072589
 30
0.0
  0
VERTEX
  5
20A
  8
GROUP0
 10
178.0000153861401
 20
250.0000000000019
 30
0.0
  0
VERTEX
  5
20B
  8
GROUP0
 10
180.5882058622201
 20
249.6592584531979
 30
0.0
  0
VERTEX
  5
20C
  8
GROUP0
 10
183.00001548465
 20
248.6602544054859
 30
0.0
  0
VERTEX
  5
20D
  8
GROUP0
 10
185.0710834133702
 20
247.071068331789
 30
0.0
  0
VERTEX
  5
20E
  8
GROUP0
 10
186.6602697916201
 20
245.0000006367719
 30
0.0
  0
VERTEX
  5
20F
  8
GROUP0
 10
187.6592741940101
 20
242.5881911612529
 30
0.0
  0
VERTEX
  5
210
  8
GROUP0
 10
188.00001612142
 20
240.000000735281
 30
0.0
  0
VERTEX
  5
211
  8
GROUP0
 10
188.0
 20
10.00000073527985
 30
0.0
  0
VERTEX
  5
212
  8
GROUP0
 10
187.65925845319
 20
7.41181025919991
 30
0.0
  0
VERTEX
  5
213
  8
GROUP0
 10
186.6602544054801
 20
5.000000636769983
 30
0.0
  0
VERTEX
  5
214
  8
GROUP0
 10
185.07106833179
 20
2.928932708059847
 30
0.0
  0
VERTEX
  5
215
  8
GROUP0
 10
183.00000063677
 20
1.339746329799937
 30
0.0
  0
VERTEX
  5
216
  8
GROUP0
 10
180.5881911612501
 20
0.3407419274099084
 30
0.0
  0
VERTEX
  5
217
  8
GROUP0
 10
178.0000007352801
 20
0.0
 30
0.0
  0
VERTEX
  5
218
  8
GROUP0
 10
175.4118102592001
 20
0.3407415468100226
 30
0.0
  0
SEQEND
  5
3B6
  8
GROUP0
  0
POLYLINE
  5
80
  8
GROUP0
 66
     1
 10
0.0
 20
0.0
 30
0.0
 70
     1
  0
VERTEX
  5
219
  8
GROUP0
 10
28.37084317508015
 20
121.7499995861
 30
0.0
  0
VERTEX
  5
21A
  8
GROUP0
 10
29.40381432095
 20
120.4038055843399
 30
0.0
  0
VERTEX
  5
21B
  8
GROUP0
 10
30.75000847461001
 20
119.3708346364369
 30
0.0
  0
VERTEX
  5
21C
  8
GROUP0
 10
32.31768472918998
 20
118.7214820054249
 30
0.0
  0
VERTEX
  5
21D
  8
GROUP0
 10
34.00000853864003
 20
118.5000000000019
 30
0.0
  0
VERTEX
  5
21E
  8
GROUP0
 10
35.68233231552017
 20
118.7214822528209
 30
0.0
  0
VERTEX
  5
21F
  8
GROUP0
 10
37.25000847461001
 20
119.3708351143689
 30
0.0
  0
VERTEX
  5
220
  8
GROUP0
 10
38.59620247637008
 20
120.403806260238
 30
0.0
  0
VERTEX
  5
221
  8
GROUP0
 10
39.62917342426999
 20
121.750000413903
 30
0.0
  0
VERTEX
  5
222
  8
GROUP0
 10
40.27852605529006
 20
123.3176766684819
 30
0.0
  0
VERTEX
  5
223
  8
GROUP0
 10
40.50000806071012
 20
125.000000477933
 30
0.0
  0
VERTEX
  5
224
  8
GROUP0
 10
40.27852580788999
 20
126.6823242548139
 30
0.0
  0
VERTEX
  5
225
  8
GROUP0
 10
39.62917294634008
 20
128.2500004139019
 30
0.0
  0
VERTEX
  5
226
  8
GROUP0
 10
38.59620180047
 20
129.5961944156619
 30
0.0
  0
VERTEX
  5
227
  8
GROUP0
 10
37.25000764680999
 20
130.6291653635659
 30
0.0
  0
VERTEX
  5
228
  8
GROUP0
 10
35.68233139223003
 20
131.2785179945779
 30
0.0
  0
VERTEX
  5
229
  8
GROUP0
 10
34.0000075827802
 20
131.5000000000009
 30
0.0
  0
VERTEX
  5
22A
  8
GROUP0
 10
32.31768380590006
 20
131.2785177471819
 30
0.0
  0
VERTEX
  5
22B
  8
GROUP0
 10
30.75000764680999
 20
130.6291648856339
 30
0.0
  0
VERTEX
  5
22C
  8
GROUP0
 10
29.40381364505015
 20
129.596193739764
 30
0.0
  0
VERTEX
  5
22D
  8
GROUP0
 10
28.37084269715001
 20
128.2499995861
 30
0.0
  0
VERTEX
  5
22E
  8
GROUP0
 10
27.72149006613017
 20
126.6823233315199
 30
0.0
  0
VERTEX
  5
22F
  8
GROUP0
 10
27.50000806071012
 20
124.9999995220689
 30
0.0
  0
VERTEX
  5
230
  8
GROUP0
 10
27.72149031353001
 20
123.3176757451879
 30
0.0
  0
SEQEND
  5
3B7
  8
GROUP0
  0
POLYLINE
  5
81
  8
GROUP0
 66
     1
 10
0.0
 20
0.0
 30
0.0
 70
     1
  0
VERTEX
  5
231
  8
GROUP0
 10
150.7499938322301
 20
4.370838436369922
 30
0.0
  0
VERTEX
  5
232
  8
GROUP0
 10
149.4038008863301
 20
5.40381095826001
 30
0.0
  0
VERTEX
  5
233
  8
GROUP0
 10
148.37083131444
 20
6.750006167779929
 30
0.0
  0
VERTEX
  5
234
  8
GROUP0
 10
147.72148028584
 20
8.317683086090028
 30
0.0
  0
VERTEX
  5
235
  8
GROUP0
 10
147.50000000001
 20
10.00000712192991
 30
0.0
  0
VERTEX
  5
236
  8
GROUP0
 10
147.7214839724202
 20
11.68233067241999
 30
0.0
  0
VERTEX
  5
237
  8
GROUP0
 10
148.3708384363701
 20
13.25000616776993
 30
0.0
  0
VERTEX
  5
238
  8
GROUP0
 10
149.40381095826
 20
14.59619911366985
 30
0.0
  0
VERTEX
  5
239
  8
GROUP0
 10
150.7500061677802
 20
15.62916868555999
 30
0.0
  0
VERTEX
  5
23A
  8
GROUP0
 10
152.31768308609
 20
16.27851971415998
 30
0.0
  0
VERTEX
  5
23B
  8
GROUP0
 10
154.0000071219301
 20
16.49999999999
 30
0.0
  0
VERTEX
  5
23C
  8
GROUP0
 10
155.68233067242
 20
16.27851602758005
 30
0.0
  0
VERTEX
  5
23D
  8
GROUP0
 10
157.2500061677702
 20
15.62916156362985
 30
0.0
  0
VERTEX
  5
23E
  8
GROUP0
 10
158.5961991136701
 20
14.59618904173999
 30
0.0
  0
VERTEX
  5
23F
  8
GROUP0
 10
159.62916868556
 20
13.24999383221984
 30
0.0
  0
VERTEX
  5
240
  8
GROUP0
 10
160.27851971416
 20
11.68231691390997
 30
0.0
  0
VERTEX
  5
241
  8
GROUP0
 10
160.49999999999
 20
9.999992878069861
 30
0.0
  0
VERTEX
  5
242
  8
GROUP0
 10
160.2785160275801
 20
8.317669327580006
 30
0.0
  0
VERTEX
  5
243
  8
GROUP0
 10
159.6291615636301
 20
6.749993832229848
 30
0.0
  0
VERTEX
  5
244
  8
GROUP0
 10
158.59618904174
 20
5.403800886329918
 30
0.0
  0
VERTEX
  5
245
  8
GROUP0
 10
157.2499938322201
 20
4.370831314440011
 30
0.0
  0
VERTEX
  5
246
  8
GROUP0
 10
155.6823169139102
 20
3.721480285840016
 30
0.0
  0
VERTEX
  5
247
  8
GROUP0
 10
153.9999928780701
 20
3.500000000010004
 30
0.0
  0
VERTEX
  5
248
  8
GROUP0
 10
152.31766932758
 20
3.721483972419946
 30
0.0
  0
SEQEND
  5
3B8
  8
GROUP0
  0
POLYLINE
  5
82
  8
GROUP0
 66
     1
 10
0.0
 20
0.0
 30
0.0
 70
     1
  0
VERTEX
  5
249
  8
GROUP0
 10
149.00000063677
 20
1.339745594519854
 30
0.0
  0
VERTEX
  5
24A
  8
GROUP0
 10
146.9289327080601
 20
2.928931668209998
 30
0.0
  0
VERTEX
  5
24B
  8
GROUP0
 10
145.3397463298002
 20
4.999999363230017
 30
0.0
  0
VERTEX
  5
24C
  8
GROUP0
 10
144.3407419274101
 20
7.411808838749948
 30
0.0
  0
VERTEX
  5
24D
  8
GROUP0
 10
144.0
 20
9.999999264719918
 30
0.0
  0
VERTEX
  5
24E
  8
GROUP0
 10
144.00001612142
 20
239.999999264723
 30
0.0
  0
VERTEX
  5
24F
  8
GROUP0
 10
144.34075766823
 20
242.5881897408019
 30
0.0
  0
VERTEX
  5
250
  8
GROUP0
 10
145.3397617159401
 20
244.999999363232
 30
0.0
  0
VERTEX
  5
251
  8
GROUP0
 10
146.92894778963
 20
247.071067291947
 30
0.0
  0
VERTEX
  5
252
  8
GROUP0
 10
149.00001548465
 20
248.660253670206
 30
0.0
  0
VERTEX
  5
253
  8
GROUP0
 10
151.4118249601702
 20
249.659258072589
 30
0.0
  0
VERTEX
  5
254
  8
GROUP0
 10
154.0000153861401
 20
250.0000000000019
 30
0.0
  0
VERTEX
  5
255
  8
GROUP0
 10
156.5882058622201
 20
249.6592584531979
 30
0.0
  0
VERTEX
  5
256
  8
GROUP0
 10
159.00001548465
 20
248.6602544054859
 30
0.0
  0
VERTEX
  5
257
  8
GROUP0
 10
161.0710834133702
 20
247.071068331789
 30
0.0
  0
VERTEX
  5
258
  8
GROUP0
 10
162.6602697916201
 20
245.0000006367719
 30
0.0
  0
VERTEX
  5
259
  8
GROUP0
 10
163.6592741940101
 20
242.5881911612529
 30
0.0
  0
VERTEX
  5
25A
  8
GROUP0
 10
164.00001612142
 20
240.000000735281
 30
0.0
  0
VERTEX
  5
25B
  8
GROUP0
 10
164.0
 20
10.00000073527985
 30
0.0
  0
VERTEX
  5
25C
  8
GROUP0
 10
163.65925845319
 20
7.41181025919991
 30
0.0
  0
VERTEX
  5
25D
  8
GROUP0
 10
162.6602544054801
 20
5.000000636769983
 30
0.0
  0
VERTEX
  5
25E
  8
GROUP0
 10
161.07106833179
 20
2.928932708059847
 30
0.0
  0
VERTEX
  5
25F
  8
GROUP0
 10
159.00000063677
 20
1.339746329799937
 30
0.0
  0
VERTEX
  5
260
  8
GROUP0
 10
156.5881911612501
 20
0.3407419274099084
 30
0.0
  0
VERTEX
  5
261
  8
GROUP0
 10
154.0000007352801
 20
0.0
 30
0.0
  0
VERTEX
  5
262
  8
GROUP0
 10
151.4118102592001
 20
0.3407415468100226
 30
0.0
  0
SEQEND
  5
3B9
  8
GROUP0
  0
POLYLINE
  5
83
  8
GROUP0
 66
     1
 10
0.0
 20
0.0
 30
0.0
 70
     1
  0
VERTEX
  5
263
  8
GROUP0
 10
126.7499938322301
 20
4.370838436369922
 30
0.0
  0
VERTEX
  5
264
  8
GROUP0
 10
125.4038008863301
 20
5.40381095826001
 30
0.0
  0
VERTEX
  5
265
  8
GROUP0
 10
124.37083131444
 20
6.750006167779929
 30
0.0
  0
VERTEX
  5
266
  8
GROUP0
 10
123.72148028584
 20
8.317683086090028
 30
0.0
  0
VERTEX
  5
267
  8
GROUP0
 10
123.50000000001
 20
10.00000712192991
 30
0.0
  0
VERTEX
  5
268
  8
GROUP0
 10
123.7214839724202
 20
11.68233067241999
 30
0.0
  0
VERTEX
  5
269
  8
GROUP0
 10
124.3708384363701
 20
13.25000616776993
 30
0.0
  0
VERTEX
  5
26A
  8
GROUP0
 10
125.40381095826
 20
14.59619911366985
 30
0.0
  0
VERTEX
  5
26B
  8
GROUP0
 10
126.7500061677802
 20
15.62916868555999
 30
0.0
  0
VERTEX
  5
26C
  8
GROUP0
 10
128.31768308609
 20
16.27851971415998
 30
0.0
  0
VERTEX
  5
26D
  8
GROUP0
 10
130.0000071219301
 20
16.49999999999
 30
0.0
  0
VERTEX
  5
26E
  8
GROUP0
 10
131.68233067242
 20
16.27851602758005
 30
0.0
  0
VERTEX
  5
26F
  8
GROUP0
 10
133.2500061677702
 20
15.62916156362985
 30
0.0
  0
VERTEX
  5
270
  8
GROUP0
 10
134.5961991136701
 20
14.59618904173999
 30
0.0
  0
VERTEX
  5
271
  8
GROUP0
 10
135.62916868556
 20
13.24999383221984
 30
0.0
  0
VERTEX
  5
272
  8
GROUP0
 10
136.27851971416
 20
11.68231691390997
 30
0.0
  0
VERTEX
  5
273
  8
GROUP0
 10
136.49999999999
 20
9.999992878069861
 30
0.0
  0
VERTEX
  5
274
  8
GROUP0
 10
136.2785160275801
 20
8.317669327580006
 30
0.0
  0
VERTEX
  5
275
  8
GROUP0
 10
135.6291615636301
 20
6.749993832229848
 30
0.0
  0
VERTEX
  5
276
  8
GROUP0
 10
134.59618904174
 20
5.403800886329918
 30
0.0
  0
VERTEX
  5
277
  8
GROUP0
 10
133.2499938322201
 20
4.370831314440011
 30
0.0
  0
VERTEX
  5
278
  8
GROUP0
 10
131.6823169139102
 20
3.721480285840016
 30
0.0
  0
VERTEX
  5
279
  8
GROUP0
 10
129.9999928780701
 20
3.500000000010004
 30
0.0
  0
VERTEX
  5
27A
  8
GROUP0
 10
128.31766932758
 20
3.721483972419946
 30
0.0
  0
SEQEND
  5
3BA
  8
GROUP0
  0
POLYLINE
  5
84
  8
GROUP0
 66
     1
 10
0.0
 20
0.0
 30
0.0
 70
     1
  0
VERTEX
  5
27B
  8
GROUP0
 10
5.403814320950005
 20
120.4038055843399
 30
0.0
  0
VERTEX
  5
27C
  8
GROUP0
 10
6.750008474610013
 20
119.3708346364369
 30
0.0
  0
VERTEX
  5
27D
  8
GROUP0
 10
8.317684729189978
 20
118.7214820054249
 30
0.0
  0
VERTEX
  5
27E
  8
GROUP0
 10
10.00000853864003
 20
118.5000000000019
 30
0.0
  0
VERTEX
  5
27F
  8
GROUP0
 10
11.68233231552017
 20
118.7214822528209
 30
0.0
  0
VERTEX
  5
280
  8
GROUP0
 10
13.25000847461001
 20
119.3708351143689
 30
0.0
  0
VERTEX
  5
281
  8
GROUP0
 10
14.59620247637008
 20
120.403806260238
 30
0.0
  0
VERTEX
  5
282
  8
GROUP0
 10
15.62917342426999
 20
121.750000413903
 30
0.0
  0
VERTEX
  5
283
  8
GROUP0
 10
16.27852605529006
 20
123.3176766684819
 30
0.0
  0
VERTEX
  5
284
  8
GROUP0
 10
16.50000806071012
 20
125.000000477933
 30
0.0
  0
VERTEX
  5
285
  8
GROUP0
 10
16.27852580788999
 20
126.6823242548139
 30
0.0
  0
VERTEX
  5
286
  8
GROUP0
 10
15.62917294634008
 20
128.2500004139019
 30
0.0
  0
VERTEX
  5
287
  8
GROUP0
 10
14.59620180047
 20
129.5961944156619
 30
0.0
  0
VERTEX
  5
288
  8
GROUP0
 10
13.25000764680999
 20
130.6291653635659
 30
0.0
  0
VERTEX
  5
289
  8
GROUP0
 10
11.68233139223003
 20
131.2785179945779
 30
0.0
  0
VERTEX
  5
28A
  8
GROUP0
 10
10.0000075827802
 20
131.5000000000009
 30
0.0
  0
VERTEX
  5
28B
  8
GROUP0
 10
8.31768380590006
 20
131.2785177471819
 30
0.0
  0
VERTEX
  5
28C
  8
GROUP0
 10
6.750007646809991
 20
130.6291648856339
 30
0.0
  0
VERTEX
  5
28D
  8
GROUP0
 10
5.40381364505015
 20
129.596193739764
 30
0.0
  0
VERTEX
  5
28E
  8
GROUP0
 10
4.37084269715001
 20
128.2499995861
 30
0.0
  0
VERTEX
  5
28F
  8
GROUP0
 10
3.721490066130173
 20
126.6823233315199
 30
0.0
  0
VERTEX
  5
290
  8
GROUP0
 10
3.500008060710115
 20
124.9999995220689
 30
0.0
  0
VERTEX
  5
291
  8
GROUP0
 10
3.721490313530012
 20
123.3176757451879
 30
0.0
  0
VERTEX
  5
292
  8
GROUP0
 10
4.370843175080154
 20
121.7499995861
 30
0.0
  0
SEQEND
  5
3BB
  8
GROUP0
  0
POLYLINE
  5
85
  8
GROUP0
 66
     1
 10
0.0
 20
0.0
 30
0.0
 70
     1
  0
VERTEX
  5
293
  8
GROUP0
 10
125.00000063677
 20
1.339745594519854
 30
0.0
  0
VERTEX
  5
294
  8
GROUP0
 10
122.9289327080601
 20
2.928931668209998
 30
0.0
  0
VERTEX
  5
295
  8
GROUP0
 10
121.3397463298002
 20
4.999999363230017
 30
0.0
  0
VERTEX
  5
296
  8
GROUP0
 10
120.3407419274101
 20
7.411808838749948
 30
0.0
  0
VERTEX
  5
297
  8
GROUP0
 10
120.0
 20
9.999999264719918
 30
0.0
  0
VERTEX
  5
298
  8
GROUP0
 10
120.00001612142
 20
239.999999264723
 30
0.0
  0
VERTEX
  5
299
  8
GROUP0
 10
120.34075766823
 20
242.5881897408019
 30
0.0
  0
VERTEX
  5
29A
  8
GROUP0
 10
121.3397617159401
 20
244.999999363232
 30
0.0
  0
VERTEX
  5
29B
  8
GROUP0
 10
122.92894778963
 20
247.071067291947
 30
0.0
  0
VERTEX
  5
29C
  8
GROUP0
 10
125.00001548465
 20
248.660253670206
 30
0.0
  0
VERTEX
  5
29D
  8
GROUP0
 10
127.4118249601702
 20
249.659258072589
 30
0.0
  0
VERTEX
  5
29E
  8
GROUP0
 10
130.0000153861401
 20
250.0000000000019
 30
0.0
  0
VERTEX
  5
29F
  8
GROUP0
 10
132.5882058622201
 20
249.6592584531979
 30
0.0
  0
VERTEX
  5
2A0
  8
GROUP0
 10
135.00001548465
 20
248.6602544054859
 30
0.0
  0
VERTEX
  5
2A1
  8
GROUP0
 10
137.0710834133702
 20
247.071068331789
 30
0.0
  0
VERTEX
  5
2A2
  8
GROUP0
 10
138.6602697916201
 20
245.0000006367719
 30
0.0
  0
VERTEX
  5
2A3
  8
GROUP0
 10
139.6592741940101
 20
242.5881911612529
 30
0.0
  0
VERTEX
  5
2A4
  8
GROUP0
 10
140.00001612142
 20
240.000000735281
 30
0.0
  0
VERTEX
  5
2A5
  8
GROUP0
 10
140.0
 20
10.00000073527985
 30
0.0
  0
VERTEX
  5
2A6
  8
GROUP0
 10
139.65925845319
 20
7.41181025919991
 30
0.0
  0
VERTEX
  5
2A7
  8
GROUP0
 10
138.6602544054801
 20
5.000000636769983
 30
0.0
  0
VERTEX
  5
2A8
  8
GROUP0
 10
137.07106833179
 20
2.928932708059847
 30
0.0
  0
VERTEX
  5
2A9
  8
GROUP0
 10
135.00000063677
 20
1.339746329799937
 30
0.0
  0
VERTEX
  5
2AA
  8
GROUP0
 10
132.5881911612501
 20
0.3407419274099084
 30
0.0
  0
VERTEX
  5
2AB
  8
GROUP0
 10
130.0000007352801
 20
0.0
 30
0.0
  0
VERTEX
  5
2AC
  8
GROUP0
 10
127.4118102592001
 20
0.3407415468100226
 30
0.0
  0
SEQEND
  5
3BC
  8
GROUP0
  0
POLYLINE
  5
86
  8
GROUP0
 66
     1
 10
0.0
 20
0.0
 30
0.0
 70
     1
  0
VERTEX
  5
2AD
  8
GROUP0
 10
102.7499938322301
 20
4.370838436369922
 30
0.0
  0
VERTEX
  5
2AE
  8
GROUP0
 10
101.4038008863301
 20
5.40381095826001
 30
0.0
  0
VERTEX
  5
2AF
  8
GROUP0
 10
100.37083131444
 20
6.750006167779929
 30
0.0
  0
VERTEX
  5
2B0
  8
GROUP0
 10
99.72148028584002
 20
8.317683086090028
 30
0.0
  0
VERTEX
  5
2B1
  8
GROUP0
 10
99.50000000001
 20
10.00000712192991
 30
0.0
  0
VERTEX
  5
2B2
  8
GROUP0
 10
99.72148397242017
 20
11.68233067241999
 30
0.0
  0
VERTEX
  5
2B3
  8
GROUP0
 10
100.3708384363701
 20
13.25000616776993
 30
0.0
  0
VERTEX
  5
2B4
  8
GROUP0
 10
101.40381095826
 20
14.59619911366985
 30
0.0
  0
VERTEX
  5
2B5
  8
GROUP0
 10
102.7500061677802
 20
15.62916868555999
 30
0.0
  0
VERTEX
  5
2B6
  8
GROUP0
 10
104.31768308609
 20
16.27851971415998
 30
0.0
  0
VERTEX
  5
2B7
  8
GROUP0
 10
106.0000071219301
 20
16.49999999999
 30
0.0
  0
VERTEX
  5
2B8
  8
GROUP0
 10
107.68233067242
 20
16.27851602758005
 30
0.0
  0
VERTEX
  5
2B9
  8
GROUP0
 10
109.2500061677702
 20
15.62916156362985
 30
0.0
  0
VERTEX
  5
2BA
  8
GROUP0
 10
110.5961991136701
 20
14.59618904173999
 30
0.0
  0
VERTEX
  5
2BB
  8
GROUP0
 10
111.62916868556
 20
13.24999383221984
 30
0.0
  0
VERTEX
  5
2BC
  8
GROUP0
 10
112.27851971416
 20
11.68231691390997
 30
0.0
  0
VERTEX
  5
2BD
  8
GROUP0
 10
112.49999999999
 20
9.999992878069861
 30
0.0
  0
VERTEX
  5
2BE
  8
GROUP0
 10
112.2785160275801
 20
8.317669327580006
 30
0.0
  0
VERTEX
  5
2BF
  8
GROUP0
 10
111.6291615636301
 20
6.749993832229848
 30
0.0
  0
VERTEX
  5
2C0
  8
GROUP0
 10
110.59618904174
 20
5.403800886329918
 30
0.0
  0
VERTEX
  5
2C1
  8
GROUP0
 10
109.2499938322201
 20
4.370831314440011
 30
0.0
  0
VERTEX
  5
2C2
  8
GROUP0
 10
107.6823169139102
 20
3.721480285840016
 30
0.0
  0
VERTEX
  5
2C3
  8
GROUP0
 10
105.9999928780701
 20
3.500000000010004
 30
0.0
  0
VERTEX
  5
2C4
  8
GROUP0
 10
104.31766932758
 20
3.721483972419946
 30
0.0
  0
SEQEND
  5
3BD
  8
GROUP0
  0
POLYLINE
  5
87
  8
GROUP0
 66
     1
 10
0.0
 20
0.0
 30
0.0
 70
     1
  0
VERTEX
  5
2C5
  8
GROUP0
 10
101.00000063677
 20
1.339745594519854
 30
0.0
  0
VERTEX
  5
2C6
  8
GROUP0
 10
98.92893270806007
 20
2.928931668209998
 30
0.0
  0
VERTEX
  5
2C7
  8
GROUP0
 10
97.33974632980016
 20
4.999999363230017
 30
0.0
  0
VERTEX
  5
2C8
  8
GROUP0
 10
96.34074192742014
 20
7.411808838749948
 30
0.0
  0
VERTEX
  5
2C9
  8
GROUP0
 10
96.0
 20
9.999999264719918
 30
0.0
  0
VERTEX
  5
2CA
  8
GROUP0
 10
96.00001612142
 20
239.999999264723
 30
0.0
  0
VERTEX
  5
2CB
  8
GROUP0
 10
96.34075766823003
 20
242.5881897408019
 30
0.0
  0
VERTEX
  5
2CC
  8
GROUP0
 10
97.33976171594009
 20
244.999999363232
 30
0.0
  0
VERTEX
  5
2CD
  8
GROUP0
 10
98.92894778963
 20
247.071067291947
 30
0.0
  0
VERTEX
  5
2CE
  8
GROUP0
 10
101.00001548465
 20
248.660253670206
 30
0.0
  0
VERTEX
  5
2CF
  8
GROUP0
 10
103.4118249601702
 20
249.659258072589
 30
0.0
  0
VERTEX
  5
2D0
  8
GROUP0
 10
106.0000153861401
 20
250.0000000000019
 30
0.0
  0
VERTEX
  5
2D1
  8
GROUP0
 10
108.5882058622201
 20
249.6592584531979
 30
0.0
  0
VERTEX
  5
2D2
  8
GROUP0
 10
111.00001548465
 20
248.6602544054859
 30
0.0
  0
VERTEX
  5
2D3
  8
GROUP0
 10
113.0710834133702
 20
247.071068331789
 30
0.0
  0
VERTEX
  5
2D4
  8
GROUP0
 10
114.6602697916201
 20
245.0000006367719
 30
0.0
  0
VERTEX
  5
2D5
  8
GROUP0
 10
115.6592741940101
 20
242.5881911612529
 30
0.0
  0
VERTEX
  5
2D6
  8
GROUP0
 10
116.00001612142
 20
240.000000735281
 30
0.0
  0
VERTEX
  5
2D7
  8
GROUP0
 10
116.0
 20
10.00000073527985
 30
0.0
  0
VERTEX
  5
2D8
  8
GROUP0
 10
115.65925845319
 20
7.41181025919991
 30
0.0
  0
VERTEX
  5
2D9
  8
GROUP0
 10
114.6602544054801
 20
5.000000636769983
 30
0.0
  0
VERTEX
  5
2DA
  8
GROUP0
 10
113.07106833179
 20
2.928932708059847
 30
0.0
  0
VERTEX
  5
2DB
  8
GROUP0
 10
111.00000063677
 20
1.339746329799937
 30
0.0
  0
VERTEX
  5
2DC
  8
GROUP0
 10
108.5881911612501
 20
0.3407419274099084
 30
0.0
  0
VERTEX
  5
2DD
  8
GROUP0
 10
106.0000007352801
 20
0.0
 30
0.0
  0
VERTEX
  5
2DE
  8
GROUP0
 10
103.4118102592001
 20
0.3407415468100226
 30
0.0
  0
SEQEND
  5
3BE
  8
GROUP0
  0
POLYLINE
  5
88
  8
GROUP0
 66
     1
 10
0.0
 20
0.0
 30
0.0
 70
     1
  0
VERTEX
  5
2DF
  8
GROUP0
 10
77.40380088633015
 20
5.40381095826001
 30
0.0
  0
VERTEX
  5
2E0
  8
GROUP0
 10
76.37083131444001
 20
6.750006167779929
 30
0.0
  0
VERTEX
  5
2E1
  8
GROUP0
 10
75.72148028584002
 20
8.317683086090028
 30
0.0
  0
VERTEX
  5
2E2
  8
GROUP0
 10
75.50000000001
 20
10.00000712192991
 30
0.0
  0
VERTEX
  5
2E3
  8
GROUP0
 10
75.72148397242017
 20
11.68233067241999
 30
0.0
  0
VERTEX
  5
2E4
  8
GROUP0
 10
76.37083843637015
 20
13.25000616776993
 30
0.0
  0
VERTEX
  5
2E5
  8
GROUP0
 10
77.40381095826001
 20
14.59619911366985
 30
0.0
  0
VERTEX
  5
2E6
  8
GROUP0
 10
78.75000616778016
 20
15.62916868555999
 30
0.0
  0
VERTEX
  5
2E7
  8
GROUP0
 10
80.31768308609003
 20
16.27851971415998
 30
0.0
  0
VERTEX
  5
2E8
  8
GROUP0
 10
82.00000712193014
 20
16.49999999999
 30
0.0
  0
VERTEX
  5
2E9
  8
GROUP0
 10
83.68233067242
 20
16.27851602758005
 30
0.0
  0
VERTEX
  5
2EA
  8
GROUP0
 10
85.25000616777015
 20
15.62916156362985
 30
0.0
  0
VERTEX
  5
2EB
  8
GROUP0
 10
86.59619911367008
 20
14.59618904173999
 30
0.0
  0
VERTEX
  5
2EC
  8
GROUP0
 10
87.62916868555999
 20
13.24999383221984
 30
0.0
  0
VERTEX
  5
2ED
  8
GROUP0
 10
88.27851971415998
 20
11.68231691390997
 30
0.0
  0
VERTEX
  5
2EE
  8
GROUP0
 10
88.49999999999
 20
9.999992878069861
 30
0.0
  0
VERTEX
  5
2EF
  8
GROUP0
 10
88.27851602758005
 20
8.317669327580006
 30
0.0
  0
VERTEX
  5
2F0
  8
GROUP0
 10
87.62916156363008
 20
6.749993832229848
 30
0.0
  0
VERTEX
  5
2F1
  8
GROUP0
 10
86.59618904173999
 20
5.403800886329918
 30
0.0
  0
VERTEX
  5
2F2
  8
GROUP0
 10
85.24999383222007
 20
4.370831314440011
 30
0.0
  0
VERTEX
  5
2F3
  8
GROUP0
 10
83.6823169139102
 20
3.721480285840016
 30
0.0
  0
VERTEX
  5
2F4
  8
GROUP0
 10
81.99999287807009
 20
3.500000000010004
 30
0.0
  0
VERTEX
  5
2F5
  8
GROUP0
 10
80.31766932758
 20
3.721483972419946
 30
0.0
  0
VERTEX
  5
2F6
  8
GROUP0
 10
78.74999383223007
 20
4.370838436369922
 30
0.0
  0
SEQEND
  5
3BF
  8
GROUP0
  0
POLYLINE
  5
89
  8
GROUP0
 66
     1
 10
0.0
 20
0.0
 30
0.0
 70
     1
  0
VERTEX
  5
2F7
  8
GROUP0
 10
74.92893270806007
 20
2.928931668209998
 30
0.0
  0
VERTEX
  5
2F8
  8
GROUP0
 10
73.33974632980016
 20
4.999999363230017
 30
0.0
  0
VERTEX
  5
2F9
  8
GROUP0
 10
72.34074192741014
 20
7.411808838749948
 30
0.0
  0
VERTEX
  5
2FA
  8
GROUP0
 10
72.0
 20
9.999999264719918
 30
0.0
  0
VERTEX
  5
2FB
  8
GROUP0
 10
72.00001612142
 20
239.999999264723
 30
0.0
  0
VERTEX
  5
2FC
  8
GROUP0
 10
72.34075766823003
 20
242.5881897408019
 30
0.0
  0
VERTEX
  5
2FD
  8
GROUP0
 10
73.33976171594009
 20
244.999999363232
 30
0.0
  0
VERTEX
  5
2FE
  8
GROUP0
 10
74.92894778963
 20
247.071067291947
 30
0.0
  0
VERTEX
  5
2FF
  8
GROUP0
 10
77.00001548465002
 20
248.660253670206
 30
0.0
  0
VERTEX
  5
300
  8
GROUP0
 10
79.41182496017018
 20
249.659258072589
 30
0.0
  0
VERTEX
  5
301
  8
GROUP0
 10
82.00001538614015
 20
250.0000000000019
 30
0.0
  0
VERTEX
  5
302
  8
GROUP0
 10
84.5882058622201
 20
249.6592584531979
 30
0.0
  0
VERTEX
  5
303
  8
GROUP0
 10
87.00001548465002
 20
248.6602544054859
 30
0.0
  0
VERTEX
  5
304
  8
GROUP0
 10
89.07108341337016
 20
247.071068331789
 30
0.0
  0
VERTEX
  5
305
  8
GROUP0
 10
90.66026979162007
 20
245.0000006367719
 30
0.0
  0
VERTEX
  5
306
  8
GROUP0
 10
91.6592741940101
 20
242.5881911612529
 30
0.0
  0
VERTEX
  5
307
  8
GROUP0
 10
92.00001612142
 20
240.000000735281
 30
0.0
  0
VERTEX
  5
308
  8
GROUP0
 10
92.0
 20
10.00000073527985
 30
0.0
  0
VERTEX
  5
309
  8
GROUP0
 10
91.65925845318998
 20
7.41181025919991
 30
0.0
  0
VERTEX
  5
30A
  8
GROUP0
 10
90.66025440548015
 20
5.000000636769983
 30
0.0
  0
VERTEX
  5
30B
  8
GROUP0
 10
89.07106833179
 20
2.928932708059847
 30
0.0
  0
VERTEX
  5
30C
  8
GROUP0
 10
87.00000063676998
 20
1.339746329799937
 30
0.0
  0
VERTEX
  5
30D
  8
GROUP0
 10
84.58819116125005
 20
0.3407419274099084
 30
0.0
  0
VERTEX
  5
30E
  8
GROUP0
 10
82.00000073528008
 20
0.0
 30
0.0
  0
VERTEX
  5
30F
  8
GROUP0
 10
79.41181025920014
 20
0.3407415468100226
 30
0.0
  0
VERTEX
  5
310
  8
GROUP0
 10
77.00000063676998
 20
1.339745594519854
 30
0.0
  0
SEQEND
  5
3C0
  8
GROUP0
  0
POLYLINE
  5
8A
  8
GROUP0
 66
     1
 10
0.0
 20
0.0
 30
0.0
 70
     1
  0
VERTEX
  5
311
  8
GROUP0
 10
53.40380088633015
 20
5.40381095826001
 30
0.0
  0
VERTEX
  5
312
  8
GROUP0
 10
52.37083131444001
 20
6.750006167779929
 30
0.0
  0
VERTEX
  5
313
  8
GROUP0
 10
51.72148028584002
 20
8.317683086090028
 30
0.0
  0
VERTEX
  5
314
  8
GROUP0
 10
51.50000000001
 20
10.00000712192991
 30
0.0
  0
VERTEX
  5
315
  8
GROUP0
 10
51.72148397242017
 20
11.68233067241999
 30
0.0
  0
VERTEX
  5
316
  8
GROUP0
 10
52.37083843637015
 20
13.25000616776993
 30
0.0
  0
VERTEX
  5
317
  8
GROUP0
 10
53.40381095826001
 20
14.59619911366985
 30
0.0
  0
VERTEX
  5
318
  8
GROUP0
 10
54.75000616778016
 20
15.62916868555999
 30
0.0
  0
VERTEX
  5
319
  8
GROUP0
 10
56.31768308609003
 20
16.27851971415998
 30
0.0
  0
VERTEX
  5
31A
  8
GROUP0
 10
58.00000712193014
 20
16.49999999999
 30
0.0
  0
VERTEX
  5
31B
  8
GROUP0
 10
59.68233067241999
 20
16.27851602758005
 30
0.0
  0
VERTEX
  5
31C
  8
GROUP0
 10
61.25000616777015
 20
15.62916156362985
 30
0.0
  0
VERTEX
  5
31D
  8
GROUP0
 10
62.59619911367008
 20
14.59618904173999
 30
0.0
  0
VERTEX
  5
31E
  8
GROUP0
 10
63.62916868555999
 20
13.24999383221984
 30
0.0
  0
VERTEX
  5
31F
  8
GROUP0
 10
64.27851971415998
 20
11.68231691390997
 30
0.0
  0
VERTEX
  5
320
  8
GROUP0
 10
64.49999999999
 20
9.999992878069861
 30
0.0
  0
VERTEX
  5
321
  8
GROUP0
 10
64.27851602758005
 20
8.317669327580006
 30
0.0
  0
VERTEX
  5
322
  8
GROUP0
 10
63.62916156363008
 20
6.749993832229848
 30
0.0
  0
VERTEX
  5
323
  8
GROUP0
 10
62.59618904173999
 20
5.403800886329918
 30
0.0
  0
VERTEX
  5
324
  8
GROUP0
 10
61.24999383222007
 20
4.370831314440011
 30
0.0
  0
VERTEX
  5
325
  8
GROUP0
 10
59.6823169139102
 20
3.721480285840016
 30
0.0
  0
VERTEX
  5
326
  8
GROUP0
 10
57.99999287807009
 20
3.500000000010004
 30
0.0
  0
VERTEX
  5
327
  8
GROUP0
 10
56.31766932758001
 20
3.721483972419946
 30
0.0
  0
VERTEX
  5
328
  8
GROUP0
 10
54.74999383223007
 20
4.370838436369922
 30
0.0
  0
SEQEND
  5
3C1
  8
GROUP0
  0
POLYLINE
  5
8B
  8
GROUP0
 66
     1
 10
0.0
 20
0.0
 30
0.0
 70
     1
  0
VERTEX
  5
329
  8
GROUP0
 10
50.92893270806007
 20
2.928931668209998
 30
0.0
  0
VERTEX
  5
32A
  8
GROUP0
 10
49.33974632980016
 20
4.999999363230017
 30
0.0
  0
VERTEX
  5
32B
  8
GROUP0
 10
48.34074192741014
 20
7.411808838749948
 30
0.0
  0
VERTEX
  5
32C
  8
GROUP0
 10
48.0
 20
9.999999264719918
 30
0.0
  0
VERTEX
  5
32D
  8
GROUP0
 10
48.00001612142
 20
239.999999264723
 30
0.0
  0
VERTEX
  5
32E
  8
GROUP0
 10
48.34075766823003
 20
242.5881897408019
 30
0.0
  0
VERTEX
  5
32F
  8
GROUP0
 10
49.33976171594009
 20
244.999999363232
 30
0.0
  0
VERTEX
  5
330
  8
GROUP0
 10
50.92894778963
 20
247.071067291947
 30
0.0
  0
VERTEX
  5
331
  8
GROUP0
 10
53.00001548465002
 20
248.660253670206
 30
0.0
  0
VERTEX
  5
332
  8
GROUP0
 10
55.41182496017018
 20
249.659258072589
 30
0.0
  0
VERTEX
  5
333
  8
GROUP0
 10
58.00001538614015
 20
250.0000000000019
 30
0.0
  0
VERTEX
  5
334
  8
GROUP0
 10
60.58820586222009
 20
249.6592584531979
 30
0.0
  0
VERTEX
  5
335
  8
GROUP0
 10
63.00001548465002
 20
248.6602544054859
 30
0.0
  0
VERTEX
  5
336
  8
GROUP0
 10
65.07108341337016
 20
247.071068331789
 30
0.0
  0
VERTEX
  5
337
  8
GROUP0
 10
66.66026979162007
 20
245.0000006367719
 30
0.0
  0
VERTEX
  5
338
  8
GROUP0
 10
67.6592741940101
 20
242.5881911612529
 30
0.0
  0
VERTEX
  5
339
  8
GROUP0
 10
68.00001612142
 20
240.000000735281
 30
0.0
  0
VERTEX
  5
33A
  8
GROUP0
 10
68.0
 20
10.00000073527985
 30
0.0
  0
VERTEX
  5
33B
  8
GROUP0
 10
67.65925845318998
 20
7.41181025919991
 30
0.0
  0
VERTEX
  5
33C
  8
GROUP0
 10
66.66025440548015
 20
5.000000636769983
 30
0.0
  0
VERTEX
  5
33D
  8
GROUP0
 10
65.07106833179
 20
2.928932708059847
 30
0.0
  0
VERTEX
  5
33E
  8
GROUP0
 10
63.00000063676998
 20
1.339746329799937
 30
0.0
  0
VERTEX
  5
33F
  8
GROUP0
 10
60.58819116125005
 20
0.3407419274099084
 30
0.0
  0
VERTEX
  5
340
  8
GROUP0
 10
58.00000073528008
 20
0.0
 30
0.0
  0
VERTEX
  5
341
  8
GROUP0
 10
55.41181025920014
 20
0.3407415468100226
 30
0.0
  0
VERTEX
  5
342
  8
GROUP0
 10
53.00000063676998
 20
1.339745594519854
 30
0.0
  0
SEQEND
  5
3C2
  8
GROUP0
  0
POLYLINE
  5
8C
  8
GROUP0
 66
     1
 10
0.0
 20
0.0
 30
0.0
 70
     1
  0
VERTEX
  5
343
  8
GROUP0
 10
29.40380088633015
 20
5.40381095826001
 30
0.0
  0
VERTEX
  5
344
  8
GROUP0
 10
28.37083131444001
 20
6.750006167779929
 30
0.0
  0
VERTEX
  5
345
  8
GROUP0
 10
27.72148028584002
 20
8.317683086090028
 30
0.0
  0
VERTEX
  5
346
  8
GROUP0
 10
27.50000000001
 20
10.00000712192991
 30
0.0
  0
VERTEX
  5
347
  8
GROUP0
 10
27.72148397242017
 20
11.68233067241999
 30
0.0
  0
VERTEX
  5
348
  8
GROUP0
 10
28.37083843637015
 20
13.25000616776993
 30
0.0
  0
VERTEX
  5
349
  8
GROUP0
 10
29.40381095826001
 20
14.59619911366985
 30
0.0
  0
VERTEX
  5
34A
  8
GROUP0
 10
30.75000616778016
 20
15.62916868555999
 30
0.0
  0
VERTEX
  5
34B
  8
GROUP0
 10
32.31768308609003
 20
16.27851971415998
 30
0.0
  0
VERTEX
  5
34C
  8
GROUP0
 10
34.00000712193014
 20
16.49999999999
 30
0.0
  0
VERTEX
  5
34D
  8
GROUP0
 10
35.68233067241999
 20
16.27851602758005
 30
0.0
  0
VERTEX
  5
34E
  8
GROUP0
 10
37.25000616777015
 20
15.62916156362985
 30
0.0
  0
VERTEX
  5
34F
  8
GROUP0
 10
38.59619911367008
 20
14.59618904173999
 30
0.0
  0
VERTEX
  5
350
  8
GROUP0
 10
39.62916868555999
 20
13.24999383221984
 30
0.0
  0
VERTEX
  5
351
  8
GROUP0
 10
40.27851971415998
 20
11.68231691390997
 30
0.0
  0
VERTEX
  5
352
  8
GROUP0
 10
40.49999999999
 20
9.999992878069861
 30
0.0
  0
VERTEX
  5
353
  8
GROUP0
 10
40.27851602758005
 20
8.317669327580006
 30
0.0
  0
VERTEX
  5
354
  8
GROUP0
 10
39.62916156363008
 20
6.749993832229848
 30
0.0
  0
VERTEX
  5
355
  8
GROUP0
 10
38.59618904173999
 20
5.403800886329918
 30
0.0
  0
VERTEX
  5
356
  8
GROUP0
 10
37.24999383222007
 20
4.370831314440011
 30
0.0
  0
VERTEX
  5
357
  8
GROUP0
 10
35.6823169139102
 20
3.721480285840016
 30
0.0
  0
VERTEX
  5
358
  8
GROUP0
 10
33.99999287807009
 20
3.500000000010004
 30
0.0
  0
VERTEX
  5
359
  8
GROUP0
 10
32.31766932758001
 20
3.721483972419946
 30
0.0
  0
VERTEX
  5
35A
  8
GROUP0
 10
30.74999383223007
 20
4.370838436369922
 30
0.0
  0
SEQEND
  5
3C3
  8
GROUP0
  0
POLYLINE
  5
8D
  8
GROUP0
 66
     1
 10
0.0
 20
0.0
 30
0.0
 70
     1
  0
VERTEX
  5
35B
  8
GROUP0
 10
26.92893270806007
 20
2.928931668209998
 30
0.0
  0
VERTEX
  5
35C
  8
GROUP0
 10
25.33974632980016
 20
4.999999363230017
 30
0.0
  0
VERTEX
  5
35D
  8
GROUP0
 10
24.34074192741014
 20
7.411808838749948
 30
0.0
  0
VERTEX
  5
35E
  8
GROUP0
 10
24.0
 20
9.999999264719918
 30
0.0
  0
VERTEX
  5
35F
  8
GROUP0
 10
24.00001612142
 20
239.999999264723
 30
0.0
  0
VERTEX
  5
360
  8
GROUP0
 10
24.34075766823003
 20
242.5881897408019
 30
0.0
  0
VERTEX
  5
361
  8
GROUP0
 10
25.33976171594009
 20
244.999999363232
 30
0.0
  0
VERTEX
  5
362
  8
GROUP0
 10
26.92894778963
 20
247.071067291947
 30
0.0
  0
VERTEX
  5
363
  8
GROUP0
 10
29.00001548465002
 20
248.660253670206
 30
0.0
  0
VERTEX
  5
364
  8
GROUP0
 10
31.41182496017018
 20
249.659258072589
 30
0.0
  0
VERTEX
  5
365
  8
GROUP0
 10
34.00001538614015
 20
250.0000000000019
 30
0.0
  0
VERTEX
  5
366
  8
GROUP0
 10
36.58820586222009
 20
249.6592584531979
 30
0.0
  0
VERTEX
  5
367
  8
GROUP0
 10
39.00001548465002
 20
248.6602544054859
 30
0.0
  0
VERTEX
  5
368
  8
GROUP0
 10
41.07108341337016
 20
247.071068331789
 30
0.0
  0
VERTEX
  5
369
  8
GROUP0
 10
42.66026979162007
 20
245.0000006367719
 30
0.0
  0
VERTEX
  5
36A
  8
GROUP0
 10
43.6592741940101
 20
242.5881911612529
 30
0.0
  0
VERTEX
  5
36B
  8
GROUP0
 10
44.00001612142
 20
240.000000735281
 30
0.0
  0
VERTEX
  5
36C
  8
GROUP0
 10
44.0
 20
10.00000073527985
 30
0.0
  0
VERTEX
  5
36D
  8
GROUP0
 10
43.65925845318998
 20
7.41181025919991
 30
0.0
  0
VERTEX
  5
36E
  8
GROUP0
 10
42.66025440548015
 20
5.000000636769983
 30
0.0
  0
VERTEX
  5
36F
  8
GROUP0
 10
41.07106833179
 20
2.928932708059847
 30
0.0
  0
VERTEX
  5
370
  8
GROUP0
 10
39.00000063676998
 20
1.339746329799937
 30
0.0
  0
VERTEX
  5
371
  8
GROUP0
 10
36.58819116125005
 20
0.3407419274099084
 30
0.0
  0
VERTEX
  5
372
  8
GROUP0
 10
34.00000073528008
 20
0.0
 30
0.0
  0
VERTEX
  5
373
  8
GROUP0
 10
31.41181025920014
 20
0.3407415468100226
 30
0.0
  0
VERTEX
  5
374
  8
GROUP0
 10
29.00000063676998
 20
1.339745594519854
 30
0.0
  0
SEQEND
  5
3C4
  8
GROUP0
  0
POLYLINE
  5
8E
  8
GROUP0
 66
     1
 10
0.0
 20
0.0
 30
0.0
 70
     1
  0
VERTEX
  5
375
  8
GROUP0
 10
5.403800886330146
 20
5.40381095826001
 30
0.0
  0
VERTEX
  5
376
  8
GROUP0
 10
4.370831314440011
 20
6.750006167779929
 30
0.0
  0
VERTEX
  5
377
  8
GROUP0
 10
3.721480285840016
 20
8.317683086090028
 30
0.0
  0
VERTEX
  5
378
  8
GROUP0
 10
3.500000000010004
 20
10.00000712192991
 30
0.0
  0
VERTEX
  5
379
  8
GROUP0
 10
3.721483972420174
 20
11.68233067241999
 30
0.0
  0
VERTEX
  5
37A
  8
GROUP0
 10
4.37083843637015
 20
13.25000616776993
 30
0.0
  0
VERTEX
  5
37B
  8
GROUP0
 10
5.40381095826001
 20
14.59619911366985
 30
0.0
  0
VERTEX
  5
37C
  8
GROUP0
 10
6.750006167780157
 20
15.62916868555999
 30
0.0
  0
VERTEX
  5
37D
  8
GROUP0
 10
8.317683086090028
 20
16.27851971415998
 30
0.0
  0
VERTEX
  5
37E
  8
GROUP0
 10
10.00000712193014
 20
16.49999999999
 30
0.0
  0
VERTEX
  5
37F
  8
GROUP0
 10
11.68233067241999
 20
16.27851602758005
 30
0.0
  0
VERTEX
  5
380
  8
GROUP0
 10
13.25000616777015
 20
15.62916156362985
 30
0.0
  0
VERTEX
  5
381
  8
GROUP0
 10
14.59619911367008
 20
14.59618904173999
 30
0.0
  0
VERTEX
  5
382
  8
GROUP0
 10
15.62916868555999
 20
13.24999383221984
 30
0.0
  0
VERTEX
  5
383
  8
GROUP0
 10
16.27851971415998
 20
11.68231691390997
 30
0.0
  0
VERTEX
  5
384
  8
GROUP0
 10
16.49999999999
 20
9.999992878069861
 30
0.0
  0
VERTEX
  5
385
  8
GROUP0
 10
16.27851602758005
 20
8.317669327580006
 30
0.0
  0
VERTEX
  5
386
  8
GROUP0
 10
15.62916156363008
 20
6.749993832229848
 30
0.0
  0
VERTEX
  5
387
  8
GROUP0
 10
14.59618904173999
 20
5.403800886329918
 30
0.0
  0
VERTEX
  5
388
  8
GROUP0
 10
13.24999383222007
 20
4.370831314440011
 30
0.0
  0
VERTEX
  5
389
  8
GROUP0
 10
11.6823169139102
 20
3.721480285840016
 30
0.0
  0
VERTEX
  5
38A
  8
GROUP0
 10
9.999992878070088
 20
3.500000000010004
 30
0.0
  0
VERTEX
  5
38B
  8
GROUP0
 10
8.317669327580006
 20
3.721483972419946
 30
0.0
  0
VERTEX
  5
38C
  8
GROUP0
 10
6.749993832230075
 20
4.370838436369922
 30
0.0
  0
SEQEND
  5
3C5
  8
GROUP0
  0
POLYLINE
  5
8F
  8
GROUP0
 66
     1
 10
0.0
 20
0.0
 30
0.0
 70
     1
  0
VERTEX
  5
38D
  8
GROUP0
 10
2.928932708060074
 20
2.928931668209998
 30
0.0
  0
VERTEX
  5
38E
  8
GROUP0
 10
1.339746329800164
 20
4.999999363230017
 30
0.0
  0
VERTEX
  5
38F
  8
GROUP0
 10
0.3407419274101358
 20
7.411808838749948
 30
0.0
  0
VERTEX
  5
390
  8
GROUP0
 10
0.0
 20
9.999999264719918
 30
0.0
  0
VERTEX
  5
391
  8
GROUP0
 10
0.0000161214200034
 20
239.999999264723
 30
0.0
  0
VERTEX
  5
392
  8
GROUP0
 10
0.340757668230026
 20
242.5881897408019
 30
0.0
  0
VERTEX
  5
393
  8
GROUP0
 10
1.339761715940085
 20
244.999999363232
 30
0.0
  0
VERTEX
  5
394
  8
GROUP0
 10
2.928947789630001
 20
247.071067291947
 30
0.0
  0
VERTEX
  5
395
  8
GROUP0
 10
5.000015484650021
 20
248.660253670206
 30
0.0
  0
VERTEX
  5
396
  8
GROUP0
 10
7.411824960170179
 20
249.659258072589
 30
0.0
  0
VERTEX
  5
397
  8
GROUP0
 10
10.00001538614015
 20
250.0000000000019
 30
0.0
  0
VERTEX
  5
398
  8
GROUP0
 10
12.58820586222009
 20
249.6592584531979
 30
0.0
  0
VERTEX
  5
399
  8
GROUP0
 10
15.00001548465002
 20
248.6602544054859
 30
0.0
  0
VERTEX
  5
39A
  8
GROUP0
 10
17.07108341337016
 20
247.071068331789
 30
0.0
  0
VERTEX
  5
39B
  8
GROUP0
 10
18.66026979162007
 20
245.0000006367719
 30
0.0
  0
VERTEX
  5
39C
  8
GROUP0
 10
19.6592741940101
 20
242.5881911612529
 30
0.0
  0
VERTEX
  5
39D
  8
GROUP0
 10
20.00001612142
 20
240.000000735281
 30
0.0
  0
VERTEX
  5
39E
  8
GROUP0
 10
20.0
 20
10.00000073527985
 30
0.0
  0
VERTEX
  5
39F
  8
GROUP0
 10
19.65925845318998
 20
7.41181025919991
 30
0.0
  0
VERTEX
  5
3A0
  8
GROUP0
 10
18.66025440548015
 20
5.000000636769983
 30
0.0
  0
VERTEX
  5
3A1
  8
GROUP0
 10
17.07106833179
 20
2.928932708059847
 30
0.0
  0
VERTEX
  5
3A2
  8
GROUP0
 10
15.00000063676998
 20
1.339746329799937
 30
0.0
  0
VERTEX
  5
3A3
  8
GROUP0
 10
12.58819116125005
 20
0.3407419274099084
 30
0.0
  0
VERTEX
  5
3A4
  8
GROUP0
 10
10.00000073528008
 20
0.0
 30
0.0
  0
VERTEX
  5
3A5
  8
GROUP0
 10
7.411810259200138
 20
0.3407415468100226
 30
0.0
  0
VERTEX
  5
3A6
  8
GROUP0
 10
5.000000636769983
 20
1.339745594519854
 30
0.0
  0
SEQEND
  5
3C6
  8
GROUP0
  0
ENDSEC
  0
EOF
