 0
SECTION
 2
ENTITIES
  0
LINE
 8
GROUP0
10
1371.65927269598
20
-866.911804903607
30
9.15235984074336e-005
11
1372.00001462339
21
-869.499995329579
31
9.07980169368827e-005
  0
LINE
 8
GROUP0
10
1368.27851452955
20
-1101.18232673728
30
8.89646469939276e-006
11
1367.6291600656
21
-1102.75000223263
31
8.03312042850779e-006
  0
LINE
 8
GROUP0
10
1370.66025290745
20
-1104.49999542809
30
8.9297357038165e-006
11
1369.07106683376
21
-1106.5710633568
31
7.42693618513979e-006
  0
LINE
 8
GROUP0
10
1359.41180876117
20
-1109.15925451805
30
1.74826077917745e-006
11
1356.99999913874
21
-1108.16025047034
31
8.98876743199439e-007
  0
LINE
 8
GROUP0
10
1351.99999850197
20
-1099.49999680014
30
1.41489696378061e-006
11
1352.00001462339
21
-869.499996800137
31
8.08918304161188e-005
  0
LINE
 8
GROUP0
10
1352.00001462339
20
-869.499996800137
30
8.08918304161188e-005
11
1352.3407561702
21
-866.911806324058
31
8.19549576094314e-005
  0
LINE
 8
GROUP0
10
1367.00001398662
20
-860.839741659374
30
9.13140368867471e-005
11
1369.07108191534
21
-862.428927733071
31
9.17907099345194e-005
  0
LINE
 8
GROUP0
10
1356.99999913874
20
-1108.16025047034
30
8.98876743199439e-007
11
1354.92893121003
21
-1106.57106439665
31
4.22204507577462e-007
  0
LINE
 8
GROUP0
10
1370.66026829359
20
-864.499995428088
30
9.18621872752767e-005
11
1371.65927269598
21
-866.911804903607
31
9.15235984074336e-005
  0
LINE
 8
GROUP0
10
1372.00001462339
20
-869.499995329579
30
9.07980169368827e-005
11
1371.99999850197
21
-1099.49999532958
31
1.13210839357392e-005
  0
LINE
 8
GROUP0
10
1371.65925695516
20
-1102.08818580566
30
1.02579570131434e-005
11
1370.66025290745
21
-1104.49999542809
31
8.9297357038165e-006
  0
LINE
 8
GROUP0
10
1369.07106683376
20
-1106.5710633568
30
7.42693618513979e-006
11
1366.99999913874
21
-1108.16024973506
31
5.85197013717731e-006
  0
LINE
 8
GROUP0
10
1364.58820436419
20
-859.840737611662
30
9.04646525800523e-005
11
1367.00001398662
21
-860.839741659374
31
9.13140368867471e-005
  0
LINE
 8
GROUP0
10
1369.07108191534
20
-862.428927733071
30
9.17907099345194e-005
11
1370.66026829359
21
-864.499995428088
31
9.18621872752767e-005
  0
LINE
 8
GROUP0
10
1361.99999923725
20
-1109.49999606486
30
2.91247215121748e-006
11
1359.41180876117
21
-1109.15925451805
31
1.74826077917745e-006
  0
LINE
 8
GROUP0
10
1371.99999850197
20
-1099.49999532958
30
1.13210839357392e-005
11
1371.65925695516
21
-1102.08818580566
31
1.02579570131434e-005
  0
LINE
 8
GROUP0
10
1360.31766782955
20
-1105.77851209244
30
3.36516303162115e-006
11
1358.7499923342
21
-1105.12915762849
31
2.81306429099071e-006
  0
LINE
 8
GROUP0
10
1362.00001388811
20
-859.499996064858
30
8.93004412954312e-005
11
1364.58820436419
21
-859.840737611662
31
9.04646525800523e-005
  0
LINE
 8
GROUP0
10
1363.68231541588
20
-1105.77851577902
30
5.03170297210809e-006
11
1361.99999138004
21
-1105.99999606485
31
4.12189949962616e-006
  0
LINE
 8
GROUP0
10
1358.7499923342
20
-1105.12915762849
30
2.81306429099071e-006
11
1357.4037993883
21
-1104.0961851066
31
2.50322800514624e-006
  0
LINE
 8
GROUP0
10
1366.99999913874
20
-1108.16024973506
30
5.85197013717731e-006
11
1364.58818966322
21
-1109.15925413745
31
4.31217124967631e-006
  0
LINE
 8
GROUP0
10
1357.00001398662
20
-860.839742394654
30
8.63609434927692e-005
11
1359.41182346214
21
-859.840737992271
31
8.79007428286449e-005
  0
LINE
 8
GROUP0
10
1353.33974483177
20
-1104.49999670163
30
3.50726535147672e-007
11
1352.34074042938
21
-1102.08818722611
31
6.89316038188226e-007
  0
LINE
 8
GROUP0
10
1365.24999233419
20
-1105.12916475042
30
6.03257231874266e-006
11
1363.68231541588
21
-1105.77851577902
31
5.03170297210809e-006
  0
LINE
 8
GROUP0
10
1354.92893121003
20
-1106.57106439665
30
4.22204507577462e-007
11
1353.33974483177
21
-1104.49999670163
31
3.50726535147672e-007
  0
LINE
 8
GROUP0
10
1366.59618754371
20
-1104.09619517853
30
7.05629986037515e-006
11
1365.24999233419
21
-1105.12916475042
31
6.03257231874266e-006
  0
LINE
 8
GROUP0
10
1357.4037993883
20
-1104.0961851066
30
2.50322800514624e-006
11
1356.37082981641
21
-1102.74998989708
31
2.45676916168502e-006
  0
LINE
 8
GROUP0
10
1352.34074042938
20
-1102.08818722611
30
6.89316038188226e-007
11
1351.99999850197
21
-1099.49999680014
31
1.41489696378061e-006
  0
LINE
 8
GROUP0
10
1364.58818966322
20
-1109.15925413745
30
4.31217124967631e-006
11
1361.99999923725
21
-1109.49999606486
31
2.91247215121748e-006
  0
LINE
 8
GROUP0
10
1367.6291600656
20
-1102.75000223263
30
8.03312042850779e-006
11
1366.59618754371
21
-1104.09619517853
31
7.05629986037515e-006
  0
LINE
 8
GROUP0
10
1352.3407561702
20
-866.911806324058
30
8.19549576094314e-005
11
1353.33976021791
21
-864.499996701628
31
8.32831781975518e-005
  0
LINE
 8
GROUP0
10
1359.41182346214
20
-859.840737992271
30
8.79007428286449e-005
11
1362.00001388811
21
-859.499996064858
31
8.93004412954312e-005
  0
LINE
 8
GROUP0
10
1356.37084119912
20
-981.24999647876
30
4.44413230476004e-005
11
1355.7214885681
21
-982.81767273334
31
4.35779794958069e-005
  0
LINE
 8
GROUP0
10
1365.25000697658
20
-990.129160950491
30
4.5771045000681e-005
11
1366.59620097834
21
-989.096189804622
31
4.67947720925288e-005
  0
LINE
 8
GROUP0
10
1355.72148247439
20
-1097.81766539244
30
3.83951484724809e-006
11
1356.37083693834
21
-1096.24998989709
31
4.70285939096482e-006
  0
LINE
 8
GROUP0
10
1353.33976021791
20
-864.499996701628
30
8.32831781975518e-005
11
1354.9289462916
21
-862.428928772913
31
8.47859776252846e-005
  0
LINE
 8
GROUP0
10
1363.68232917439
20
-1093.22148003728
30
9.37081669549755e-006
11
1365.25000466974
21
-1093.87083450123
31
9.92291534800405e-006
  0
LINE
 8
GROUP0
10
1355.49999850198
20
-1099.49998894293
30
3.14848179280291e-006
11
1355.72148247439
21
-1097.81766539244
31
3.83951484724809e-006
  0
LINE
 8
GROUP0
10
1368.27852455726
20
-986.182319396378
30
4.86349353079507e-005
11
1368.50000656268
21
-984.499995586927
31
4.93259671018709e-005
  0
LINE
 8
GROUP0
10
1355.7214888155
20
-986.182320319672
30
4.24153198949229e-005
11
1356.37084167705
21
-987.74999647876
31
4.21952372393231e-005
  0
LINE
 8
GROUP0
10
1367.62917192624
20
-987.749995650957
30
4.77715918492161e-005
11
1368.27852455726
21
-986.182319396378
31
4.86349353079507e-005
  0
LINE
 8
GROUP0
10
1361.99999138004
20
-1105.99999606485
30
4.12189949962616e-006
11
1360.31766782955
21
-1105.77851209244
31
3.36516303162115e-006
  0
LINE
 8
GROUP0
10
1355.50000656268
20
-984.499996542791
30
4.28869477040017e-005
11
1355.7214888155
21
-986.182320319672
31
4.24153198949229e-005
  0
LINE
 8
GROUP0
10
1366.59620097834
20
-989.096189804622
30
4.67947720925288e-005
11
1367.62917192624
21
-987.749995650957
31
4.77715918492161e-005
  0
LINE
 8
GROUP0
10
1362.00000704061
20
-990.999996064858
30
4.38603719122577e-005
11
1363.68233081749
21
-990.778513812039
31
4.47701755631025e-005
  0
LINE
 8
GROUP0
10
1368.49999850196
20
-1099.50000318679
30
9.5874977566579e-006
11
1368.27851452955
21
-1101.18232673728
31
8.89646469939276e-006
  0
LINE
 8
GROUP0
10
1358.75000466975
20
-1093.8708273793
30
6.70340750143494e-006
11
1360.31768158806
21
-1093.2214763507
31
7.70427693830844e-006
  0
LINE
 8
GROUP0
10
1368.27851821613
20
-1097.81767915095
30
1.00591267395478e-005
11
1368.49999850196
21
-1099.50000318679
31
9.5874977566579e-006
  0
LINE
 8
GROUP0
10
1356.37083693834
20
-1096.24998989709
30
4.70285939096482e-006
11
1357.40380946023
21
-1094.90379695119
31
5.67967977861961e-006
  0
LINE
 8
GROUP0
10
1366.59619761564
20
-1094.90380702312
30
1.02327517304324e-005
11
1367.62916718753
21
-1096.25000223264
31
1.02792108382654e-005
  0
LINE
 8
GROUP0
10
1358.75000697658
20
-990.129161428423
30
4.25515352555694e-005
11
1360.31768323116
21
-990.778514059435
31
4.31036348111702e-005
  0
LINE
 8
GROUP0
10
1356.37084167705
20
-987.74999647876
30
4.21952372393231e-005
11
1357.40381282292
21
-989.09619048052
31
4.22416976090911e-005
  0
LINE
 8
GROUP0
10
1360.31768230787
20
-978.221478317678
30
4.74427390594723e-005
11
1358.75000614878
21
-978.870831179226
31
4.64418696218938e-005
  0
LINE
 8
GROUP0
10
1358.75000614878
20
-978.870831179226
30
4.64418696218938e-005
11
1357.40381214702
21
-979.903802325096
31
4.5418142439807e-005
  0
LINE
 8
GROUP0
10
1356.37082981641
20
-1102.74998989708
30
2.45676916168502e-006
11
1355.72147878781
21
-1101.18231297877
31
2.67685317368871e-006
  0
LINE
 8
GROUP0
10
1354.9289462916
20
-862.428928772913
30
8.47859776252846e-005
11
1357.00001398662
21
-860.839742394654
31
8.63609434927692e-005
  0
LINE
 8
GROUP0
10
1362.0000056239
20
-1092.99999606487
30
8.61408041290534e-006
11
1363.68232917439
21
-1093.22148003728
31
9.37081669549755e-006
  0
LINE
 8
GROUP0
10
1360.31768158806
20
-1093.2214763507
30
7.70427693830844e-006
11
1362.0000056239
21
-1092.99999606487
31
8.61408041290534e-006
  0
LINE
 8
GROUP0
10
1355.72147878781
20
-1101.18231297877
30
2.67685317368871e-006
11
1355.49999850198
21
-1099.49998894293
31
3.14848179280291e-006
  0
LINE
 8
GROUP0
10
1367.62916718753
20
-1096.25000223264
30
1.02792108382654e-005
11
1368.27851821613
21
-1097.81767915095
31
1.00591267395478e-005
  0
LINE
 8
GROUP0
10
1365.25000466974
20
-1093.87083450123
30
9.92291534800405e-006
11
1366.59619761564
21
-1094.90380702312
31
1.02327517304324e-005
  0
LINE
 8
GROUP0
10
1363.68233081749
20
-990.778513812039
30
4.47701755631025e-005
11
1365.25000697658
21
-990.129160950491
31
4.5771045000681e-005
  0
LINE
 8
GROUP0
10
1357.40380946023
20
-1094.90379695119
30
5.67967977861961e-006
11
1358.75000466975
21
-1093.8708273793
31
6.70340750143494e-006
  0
LINE
 8
GROUP0
10
1362.00001558167
20
-862.999996064858
30
8.80910111524358e-005
11
1363.68233939112
21
-863.221478070281
31
8.88477481604644e-005
  0
LINE
 8
GROUP0
10
1357.40382164394
20
-864.903802325094
30
8.51566098864776e-005
11
1358.7500156457
21
-863.870831179225
31
8.61803372490422e-005
  0
LINE
 8
GROUP0
10
1368.27853405418
20
-871.182319396378
30
8.83734026643823e-005
11
1367.62918142317
21
-872.749995650957
31
8.7510058843987e-005
  0
LINE
 8
GROUP0
10
1357.40381282292
20
-989.09619048052
30
4.22416976090911e-005
11
1358.75000697658
21
-990.129161428423
31
4.25515352555694e-005
  0
LINE
 8
GROUP0
10
1360.31768323116
20
-990.778514059435
30
4.31036348111702e-005
11
1362.00000704061
21
-990.999996064858
31
4.38603719122577e-005
  0
LINE
 8
GROUP0
10
1357.40382231984
20
-874.096190480518
30
8.19801634342809e-005
11
1356.37085117397
21
-872.749996478758
31
8.19337030588729e-005
  0
LINE
 8
GROUP0
10
1368.5000160596
20
-869.499995586926
30
8.90644348164382e-005
11
1368.27853405418
21
-871.182319396378
31
8.83734026643823e-005
  0
LINE
 8
GROUP0
10
1358.7500156457
20
-863.870831179225
30
8.61803372490422e-005
11
1360.31769180479
21
-863.221478317677
31
8.71812070475764e-005
  0
LINE
 8
GROUP0
10
1360.31769180479
20
-863.221478317677
30
8.71812070475764e-005
11
1362.00001558167
21
-862.999996064858
31
8.80910111524358e-005
  0
LINE
 8
GROUP0
10
1355.72149831242
20
-871.18232031967
30
8.21537858047117e-005
11
1355.5000160596
21
-869.499996542789
31
8.26254137970883e-005
  0
LINE
 8
GROUP0
10
1367.62918094523
20
-866.249995650957
30
8.97561457379514e-005
11
1368.27853380678
21
-867.817671810045
31
8.95360626255171e-005
  0
LINE
 8
GROUP0
10
1355.72149806503
20
-867.817672733337
30
8.33164459491442e-005
11
1356.37085069604
21
-866.249996478758
31
8.41797896814156e-005
  0
LINE
 8
GROUP0
10
1368.27852430986
20
-982.817671810046
30
4.97975949116547e-005
11
1367.62917144831
21
-981.249995650958
31
5.00176775665495e-005
  0
LINE
 8
GROUP0
10
1363.68233939112
20
-863.221478070281
30
8.88477481604644e-005
11
1365.2500156457
21
-863.870830701293
31
8.93998477160651e-005
  0
LINE
 8
GROUP0
10
1365.25000614878
20
-978.870830701294
30
4.96613796377221e-005
11
1363.6823298942
21
-978.221478070282
31
4.91092799918824e-005
  0
LINE
 8
GROUP0
10
1362.00001653753
20
-875.999996064857
30
8.35988375541496e-005
11
1360.31769272808
21
-875.778514059434
31
8.28421004558821e-005
  0
LINE
 8
GROUP0
10
1367.62918142317
20
-872.749995650957
30
8.7510058843987e-005
11
1366.59621047526
21
-874.096189804621
31
8.65332388172879e-005
  0
LINE
 8
GROUP0
10
1355.7214885681
20
-982.81767273334
30
4.35779794958069e-005
11
1355.50000656268
21
-984.499996542791
31
4.28869477040017e-005
  0
LINE
 8
GROUP0
10
1360.31769272808
20
-875.778514059434
30
8.28421004558821e-005
11
1358.7500164735
21
-875.129161428422
31
8.22900008072225e-005
  0
LINE
 8
GROUP0
10
1363.6823298942
20
-978.221478070282
30
4.91092799918824e-005
11
1362.00000608475
21
-977.999996064859
31
4.83525430740928e-005
  0
LINE
 8
GROUP0
10
1366.59620030244
20
-979.903801649198
30
4.99712170106636e-005
11
1365.25000614878
21
-978.870830701294
31
4.96613796377221e-005
  0
LINE
 8
GROUP0
10
1367.62917144831
20
-981.249995650958
30
5.00176775665495e-005
11
1366.59620030244
21
-979.903801649198
31
4.99712170106636e-005
  0
LINE
 8
GROUP0
10
1365.2500164735
20
-875.12916095049
30
8.55095112770654e-005
11
1363.68234031442
21
-875.778513812039
31
8.45086416561891e-005
  0
LINE
 8
GROUP0
10
1363.68234031442
20
-875.778513812039
30
8.45086416561891e-005
11
1362.00001653753
21
-875.999996064857
31
8.35988375541496e-005
  0
LINE
 8
GROUP0
10
1358.7500164735
20
-875.129161428422
30
8.22900008072225e-005
11
1357.40382231984
21
-874.096190480518
31
8.19801634342809e-005
  0
LINE
 8
GROUP0
10
1362.00000608475
20
-977.999996064859
30
4.83525430740928e-005
11
1360.31768230787
21
-978.221478317678
31
4.74427390594723e-005
  0
LINE
 8
GROUP0
10
1357.40381214702
20
-979.903802325096
30
4.5418142439807e-005
11
1356.37084119912
21
-981.24999647876
31
4.44413230476004e-005
  0
LINE
 8
GROUP0
10
1368.50000656268
20
-984.499995586927
30
4.93259671018709e-005
11
1368.27852430986
21
-982.817671810046
31
4.97975949116547e-005
  0
LINE
 8
GROUP0
10
1356.37085117397
20
-872.749996478758
30
8.19337030588729e-005
11
1355.72149831242
21
-871.18232031967
31
8.21537858047117e-005
  0
LINE
 8
GROUP0
10
1366.59620979936
20
-864.903801649197
30
8.97096851792456e-005
11
1367.62918094523
21
-866.249995650957
31
8.97561457379514e-005
  0
LINE
 8
GROUP0
10
1368.27853380678
20
-867.817671810045
30
8.95360626255171e-005
11
1368.5000160596
21
-869.499995586926
31
8.90644348164382e-005
  0
LINE
 8
GROUP0
10
1366.59621047526
20
-874.096189804621
30
8.65332388172879e-005
11
1365.2500164735
21
-875.12916095049
31
8.55095112770654e-005
  0
LINE
 8
GROUP0
10
1497.33974483177
20
-1104.49999670163
30
3.50726535147672e-007
11
1496.34074042938
21
-1102.08818722611
31
6.89316038188226e-007
  0
LINE
 8
GROUP0
10
1503.41180876117
20
-1109.15925451805
30
1.74826077917745e-006
11
1500.99999913874
21
-1108.16025047034
31
8.98876743199439e-007
  0
LINE
 8
GROUP0
10
1513.07106683376
20
-1106.5710633568
30
7.42693618513979e-006
11
1510.99999913874
21
-1108.16024973506
31
5.85197013717731e-006
  0
LINE
 8
GROUP0
10
1508.58818966322
20
-1109.15925413745
30
4.31217124967631e-006
11
1505.99999923725
21
-1109.49999606486
31
2.91247215121748e-006
  0
LINE
 8
GROUP0
10
1505.99999923725
20
-1109.49999606486
30
2.91247215121748e-006
11
1503.41180876117
21
-1109.15925451805
31
1.74826077917745e-006
  0
LINE
 8
GROUP0
10
1344.5000160596
20
-869.499995586926
30
8.90644348164382e-005
11
1344.27853405418
21
-871.182319396378
31
8.83734026643823e-005
  0
LINE
 8
GROUP0
10
1510.99999913874
20
-1108.16024973506
30
5.85197013717731e-006
11
1508.58818966322
21
-1109.15925413745
31
4.31217124967631e-006
  0
LINE
 8
GROUP0
10
1514.66025290745
20
-1104.49999542809
30
8.9297357038165e-006
11
1513.07106683376
21
-1106.5710633568
31
7.42693618513979e-006
  0
LINE
 8
GROUP0
10
1334.7500156457
20
-863.870831179225
30
8.61803372490422e-005
11
1336.31769180479
21
-863.221478317677
31
8.71812070475764e-005
  0
LINE
 8
GROUP0
10
1500.99999913874
20
-1108.16025047034
30
8.98876743199439e-007
11
1498.92893121003
21
-1106.57106439665
31
4.22204507577462e-007
  0
LINE
 8
GROUP0
10
1495.99999850197
20
-1099.49999680014
30
1.41489696378061e-006
11
1496.00001462339
21
-869.499996800137
31
8.08918304161188e-005
  0
LINE
 8
GROUP0
10
1342.59620979936
20
-864.903801649197
30
8.97096851792456e-005
11
1343.62918094523
21
-866.249995650957
31
8.97561457379514e-005
  0
LINE
 8
GROUP0
10
1496.00001462339
20
-869.499996800137
30
8.08918304161188e-005
11
1496.3407561702
21
-866.911806324058
31
8.19549576094314e-005
  0
LINE
 8
GROUP0
10
1498.9289462916
20
-862.428928772913
30
8.47859776252846e-005
11
1501.00001398662
21
-860.839742394654
31
8.63609434927692e-005
  0
LINE
 8
GROUP0
10
1332.37085069604
20
-866.249996478758
30
8.41797896814156e-005
11
1333.40382164394
21
-864.903802325094
31
8.51566098864776e-005
  0
LINE
 8
GROUP0
10
1496.34074042938
20
-1102.08818722611
30
6.89316038188226e-007
11
1495.99999850197
21
-1099.49999680014
31
1.41489696378061e-006
  0
LINE
 8
GROUP0
10
1365.2500156457
20
-863.870830701293
30
8.93998477160651e-005
11
1366.59620979936
21
-864.903801649197
31
8.97096851792456e-005
  0
LINE
 8
GROUP0
10
1341.2500156457
20
-863.870830701293
30
8.93998477160651e-005
11
1342.59620979936
21
-864.903801649197
31
8.97096851792456e-005
  0
LINE
 8
GROUP0
10
1338.00001558167
20
-862.999996064858
30
8.80910111524358e-005
11
1339.68233939112
21
-863.221478070281
31
8.88477481604644e-005
  0
LINE
 8
GROUP0
10
1336.31769180479
20
-863.221478317677
30
8.71812070475764e-005
11
1338.00001558167
21
-862.999996064858
31
8.80910111524358e-005
  0
LINE
 8
GROUP0
10
1506.00001388811
20
-859.499996064858
30
8.93004412954312e-005
11
1508.58820436419
21
-859.840737611662
31
9.04646525800523e-005
  0
LINE
 8
GROUP0
10
1503.41182346214
20
-859.840737992271
30
8.79007428286449e-005
11
1506.00001388811
21
-859.499996064858
31
8.93004412954312e-005
  0
LINE
 8
GROUP0
10
1343.62918094523
20
-866.249995650957
30
8.97561457379514e-005
11
1344.27853380678
21
-867.817671810045
31
8.95360626255171e-005
  0
LINE
 8
GROUP0
10
1511.00001398662
20
-860.839741659374
30
9.13140368867471e-005
11
1513.07108191534
21
-862.428927733071
31
9.17907099345194e-005
  0
LINE
 8
GROUP0
10
1344.27853380678
20
-867.817671810045
30
8.95360626255171e-005
11
1344.5000160596
21
-869.499995586926
31
8.90644348164382e-005
  0
LINE
 8
GROUP0
10
1333.40382164394
20
-864.903802325094
30
8.51566098864776e-005
11
1334.7500156457
21
-863.870831179225
31
8.61803372490422e-005
  0
LINE
 8
GROUP0
10
1355.5000160596
20
-869.499996542789
30
8.26254137970883e-005
11
1355.72149806503
21
-867.817672733337
31
8.33164459491442e-005
  0
LINE
 8
GROUP0
10
1339.68233939112
20
-863.221478070281
30
8.88477481604644e-005
11
1341.2500156457
21
-863.870830701293
31
8.93998477160651e-005
  0
LINE
 8
GROUP0
10
1515.65925695516
20
-1102.08818580566
30
1.02579570131434e-005
11
1514.66025290745
21
-1104.49999542809
31
8.9297357038165e-006
  0
LINE
 8
GROUP0
10
1331.72149806503
20
-867.817672733337
30
8.33164459491442e-005
11
1332.37085069604
21
-866.249996478758
31
8.41797896814156e-005
  0
LINE
 8
GROUP0
10
1498.92893121003
20
-1106.57106439665
30
4.22204507577462e-007
11
1497.33974483177
21
-1104.49999670163
31
3.50726535147672e-007
  0
LINE
 8
GROUP0
10
1356.37085069604
20
-866.249996478758
30
8.41797896814156e-005
11
1357.40382164394
21
-864.903802325094
31
8.51566098864776e-005
  0
LINE
 8
GROUP0
10
1501.4037993883
20
-1104.0961851066
30
2.50322800514624e-006
11
1500.37082981641
21
-1102.74998989708
31
2.45676916168502e-006
  0
LINE
 8
GROUP0
10
1504.31768158806
20
-1093.2214763507
30
7.70427693830844e-006
11
1506.0000056239
21
-1092.99999606487
31
8.61408041290534e-006
  0
LINE
 8
GROUP0
10
1512.27851452955
20
-1101.18232673728
30
8.89646469939276e-006
11
1511.6291600656
21
-1102.75000223263
31
8.03312042850779e-006
  0
LINE
 8
GROUP0
10
1496.3407561702
20
-866.911806324058
30
8.19549576094314e-005
11
1497.33976021791
21
-864.499996701628
31
8.32831781975518e-005
  0
LINE
 8
GROUP0
10
1497.33976021791
20
-864.499996701628
30
8.32831781975518e-005
11
1498.9289462916
21
-862.428928772913
31
8.47859776252846e-005
  0
LINE
 8
GROUP0
10
1512.49999850196
20
-1099.50000318679
30
9.5874977566579e-006
11
1512.27851452955
21
-1101.18232673728
31
8.89646469939276e-006
  0
LINE
 8
GROUP0
10
1515.65927269598
20
-866.911804903607
30
9.15235984074336e-005
11
1516.00001462339
21
-869.499995329579
31
9.07980169368827e-005
  0
LINE
 8
GROUP0
10
1509.24999233419
20
-1105.12916475042
30
6.03257231874266e-006
11
1507.68231541588
21
-1105.77851577902
31
5.03170297210809e-006
  0
LINE
 8
GROUP0
10
1499.49999850198
20
-1099.49998894293
30
3.14848179280291e-006
11
1499.72148247439
21
-1097.81766539244
31
3.83951484724809e-006
  0
LINE
 8
GROUP0
10
1510.59618754371
20
-1104.09619517853
30
7.05629986037515e-006
11
1509.24999233419
21
-1105.12916475042
31
6.03257231874266e-006
  0
LINE
 8
GROUP0
10
1499.72148247439
20
-1097.81766539244
30
3.83951484724809e-006
11
1500.37083693834
21
-1096.24998989709
31
4.70285939096482e-006
  0
LINE
 8
GROUP0
10
1511.6291600656
20
-1102.75000223263
30
8.03312042850779e-006
11
1510.59618754371
21
-1104.09619517853
31
7.05629986037515e-006
  0
LINE
 8
GROUP0
10
1505.99999138004
20
-1105.99999606485
30
4.12189949962616e-006
11
1504.31766782955
21
-1105.77851209244
31
3.36516303162115e-006
  0
LINE
 8
GROUP0
10
1501.40380946023
20
-1094.90379695119
30
5.67967977861961e-006
11
1502.75000466975
21
-1093.8708273793
31
6.70340750143494e-006
  0
LINE
 8
GROUP0
10
1507.68231541588
20
-1105.77851577902
30
5.03170297210809e-006
11
1505.99999138004
21
-1105.99999606485
31
4.12189949962616e-006
  0
LINE
 8
GROUP0
10
1514.66026829359
20
-864.499995428088
30
9.18621872752767e-005
11
1515.65927269598
21
-866.911804903607
31
9.15235984074336e-005
  0
LINE
 8
GROUP0
10
1504.31766782955
20
-1105.77851209244
30
3.36516303162115e-006
11
1502.7499923342
21
-1105.12915762849
31
2.81306429099071e-006
  0
LINE
 8
GROUP0
10
1501.00001398662
20
-860.839742394654
30
8.63609434927692e-005
11
1503.41182346214
21
-859.840737992271
31
8.79007428286449e-005
  0
LINE
 8
GROUP0
10
1516.00001462339
20
-869.499995329579
30
9.07980169368827e-005
11
1515.99999850197
21
-1099.49999532958
31
1.13210839357392e-005
  0
LINE
 8
GROUP0
10
1513.07108191534
20
-862.428927733071
30
9.17907099345194e-005
11
1514.66026829359
21
-864.499995428088
31
9.18621872752767e-005
  0
LINE
 8
GROUP0
10
1502.7499923342
20
-1105.12915762849
30
2.81306429099071e-006
11
1501.4037993883
21
-1104.0961851066
31
2.50322800514624e-006
  0
LINE
 8
GROUP0
10
1499.72147878781
20
-1101.18231297877
30
2.67685317368871e-006
11
1499.49999850198
21
-1099.49998894293
31
3.14848179280291e-006
  0
LINE
 8
GROUP0
10
1509.25000466974
20
-1093.87083450123
30
9.92291534800405e-006
11
1510.59619761564
21
-1094.90380702312
31
1.02327517304324e-005
  0
LINE
 8
GROUP0
10
1506.0000056239
20
-1092.99999606487
30
8.61408041290534e-006
11
1507.68232917439
21
-1093.22148003728
31
9.37081669549755e-006
  0
LINE
 8
GROUP0
10
1502.75000466975
20
-1093.8708273793
30
6.70340750143494e-006
11
1504.31768158806
21
-1093.2214763507
31
7.70427693830844e-006
  0
LINE
 8
GROUP0
10
1500.37082981641
20
-1102.74998989708
30
2.45676916168502e-006
11
1499.72147878781
21
-1101.18231297877
31
2.67685317368871e-006
  0
LINE
 8
GROUP0
10
1507.68232917439
20
-1093.22148003728
30
9.37081669549755e-006
11
1509.25000466974
21
-1093.87083450123
31
9.92291534800405e-006
  0
LINE
 8
GROUP0
10
1515.99999850197
20
-1099.49999532958
30
1.13210839357392e-005
11
1515.65925695516
21
-1102.08818580566
31
1.02579570131434e-005
  0
LINE
 8
GROUP0
10
1511.62916718753
20
-1096.25000223264
30
1.02792108382654e-005
11
1512.27851821613
21
-1097.81767915095
31
1.00591267395478e-005
  0
LINE
 8
GROUP0
10
1512.27852455726
20
-986.182319396378
30
4.86349353079507e-005
11
1512.50000656268
21
-984.499995586927
31
4.93259671018709e-005
  0
LINE
 8
GROUP0
10
1508.58820436419
20
-859.840737611662
30
9.04646525800523e-005
11
1511.00001398662
21
-860.839741659374
31
9.13140368867471e-005
  0
LINE
 8
GROUP0
10
1500.37083693834
20
-1096.24998989709
30
4.70285939096482e-006
11
1501.40380946023
21
-1094.90379695119
31
5.67967977861961e-006
  0
LINE
 8
GROUP0
10
1506.00000704061
20
-990.999996064858
30
4.38603719122577e-005
11
1507.68233081749
21
-990.778513812039
31
4.47701755631025e-005
  0
LINE
 8
GROUP0
10
1510.59621047526
20
-874.096189804621
30
8.65332388172879e-005
11
1509.2500164735
21
-875.12916095049
31
8.55095112770654e-005
  0
LINE
 8
GROUP0
10
1511.62917144831
20
-981.249995650958
30
5.00176775665495e-005
11
1510.59620030244
21
-979.903801649198
31
4.99712170106636e-005
  0
LINE
 8
GROUP0
10
1501.40381214702
20
-979.903802325096
30
4.5418142439807e-005
11
1500.37084119912
21
-981.24999647876
31
4.44413230476004e-005
  0
LINE
 8
GROUP0
10
1502.75000614878
20
-978.870831179226
30
4.64418696218938e-005
11
1501.40381214702
21
-979.903802325096
31
4.5418142439807e-005
  0
LINE
 8
GROUP0
10
1509.25000697658
20
-990.129160950491
30
4.5771045000681e-005
11
1510.59620097834
21
-989.096189804622
31
4.67947720925288e-005
  0
LINE
 8
GROUP0
10
1499.7214888155
20
-986.182320319672
30
4.24153198949229e-005
11
1500.37084167705
21
-987.74999647876
31
4.21952372393231e-005
  0
LINE
 8
GROUP0
10
1502.75000697658
20
-990.129161428423
30
4.25515352555694e-005
11
1504.31768323116
21
-990.778514059435
31
4.31036348111702e-005
  0
LINE
 8
GROUP0
10
1500.37085117397
20
-872.749996478758
30
8.19337030588729e-005
11
1499.72149831242
21
-871.18232031967
31
8.21537858047117e-005
  0
LINE
 8
GROUP0
10
1512.27851821613
20
-1097.81767915095
30
1.00591267395478e-005
11
1512.49999850196
21
-1099.50000318679
31
9.5874977566579e-006
  0
LINE
 8
GROUP0
10
1504.31768323116
20
-990.778514059435
30
4.31036348111702e-005
11
1506.00000704061
21
-990.999996064858
31
4.38603719122577e-005
  0
LINE
 8
GROUP0
10
1499.72149831242
20
-871.18232031967
30
8.21537858047117e-005
11
1499.5000160596
21
-869.499996542789
31
8.26254137970883e-005
  0
LINE
 8
GROUP0
10
1504.31769272808
20
-875.778514059434
30
8.28421004558821e-005
11
1502.7500164735
21
-875.129161428422
31
8.22900008072225e-005
  0
LINE
 8
GROUP0
10
1499.5000160596
20
-869.499996542789
30
8.26254137970883e-005
11
1499.72149806503
21
-867.817672733337
31
8.33164459491442e-005
  0
LINE
 8
GROUP0
10
1510.59619761564
20
-1094.90380702312
30
1.02327517304324e-005
11
1511.62916718753
21
-1096.25000223264
31
1.02792108382654e-005
  0
LINE
 8
GROUP0
10
1499.7214885681
20
-982.81767273334
30
4.35779794958069e-005
11
1499.50000656268
21
-984.499996542791
31
4.28869477040017e-005
  0
LINE
 8
GROUP0
10
1512.27852430986
20
-982.817671810046
30
4.97975949116547e-005
11
1511.62917144831
21
-981.249995650958
31
5.00176775665495e-005
  0
LINE
 8
GROUP0
10
1501.40381282292
20
-989.09619048052
30
4.22416976090911e-005
11
1502.75000697658
21
-990.129161428423
31
4.25515352555694e-005
  0
LINE
 8
GROUP0
10
1510.59620097834
20
-989.096189804622
30
4.67947720925288e-005
11
1511.62917192624
21
-987.749995650957
31
4.77715918492161e-005
  0
LINE
 8
GROUP0
10
1504.31768230787
20
-978.221478317678
30
4.74427390594723e-005
11
1502.75000614878
21
-978.870831179226
31
4.64418696218938e-005
  0
LINE
 8
GROUP0
10
1509.25000614878
20
-978.870830701294
30
4.96613796377221e-005
11
1507.6823298942
21
-978.221478070282
31
4.91092799918824e-005
  0
LINE
 8
GROUP0
10
1512.50000656268
20
-984.499995586927
30
4.93259671018709e-005
11
1512.27852430986
21
-982.817671810046
31
4.97975949116547e-005
  0
LINE
 8
GROUP0
10
1511.62917192624
20
-987.749995650957
30
4.77715918492161e-005
11
1512.27852455726
21
-986.182319396378
31
4.86349353079507e-005
  0
LINE
 8
GROUP0
10
1500.37084167705
20
-987.74999647876
30
4.21952372393231e-005
11
1501.40381282292
21
-989.09619048052
31
4.22416976090911e-005
  0
LINE
 8
GROUP0
10
1507.68233081749
20
-990.778513812039
30
4.47701755631025e-005
11
1509.25000697658
21
-990.129160950491
31
4.5771045000681e-005
  0
LINE
 8
GROUP0
10
1511.62918142317
20
-872.749995650957
30
8.7510058843987e-005
11
1510.59621047526
21
-874.096189804621
31
8.65332388172879e-005
  0
LINE
 8
GROUP0
10
1506.00000608475
20
-977.999996064859
30
4.83525430740928e-005
11
1504.31768230787
21
-978.221478317678
31
4.74427390594723e-005
  0
LINE
 8
GROUP0
10
1510.59620030244
20
-979.903801649198
30
4.99712170106636e-005
11
1509.25000614878
21
-978.870830701294
31
4.96613796377221e-005
  0
LINE
 8
GROUP0
10
1500.37084119912
20
-981.24999647876
30
4.44413230476004e-005
11
1499.7214885681
21
-982.81767273334
31
4.35779794958069e-005
  0
LINE
 8
GROUP0
10
1507.6823298942
20
-978.221478070282
30
4.91092799918824e-005
11
1506.00000608475
21
-977.999996064859
31
4.83525430740928e-005
  0
LINE
 8
GROUP0
10
1499.50000656268
20
-984.499996542791
30
4.28869477040017e-005
11
1499.7214888155
21
-986.182320319672
31
4.24153198949229e-005
  0
LINE
 8
GROUP0
10
1512.27853405418
20
-871.182319396378
30
8.83734026643823e-005
11
1511.62918142317
21
-872.749995650957
31
8.7510058843987e-005
  0
LINE
 8
GROUP0
10
1348.00001462339
20
-869.499995329579
30
9.07980169368827e-005
11
1347.99999850197
21
-1099.49999532958
31
1.13210839357392e-005
  0
LINE
 8
GROUP0
10
1328.00001462339
20
-869.499996800137
30
8.08918304161188e-005
11
1328.3407561702
21
-866.911806324058
31
8.19549576094314e-005
  0
LINE
 8
GROUP0
10
1345.07106683376
20
-1106.5710633568
30
7.42693618513979e-006
11
1342.99999913874
21
-1108.16024973506
31
5.85197013717731e-006
  0
LINE
 8
GROUP0
10
1509.2500156457
20
-863.870830701293
30
8.93998477160651e-005
11
1510.59620979936
21
-864.903801649197
31
8.97096851792456e-005
  0
LINE
 8
GROUP0
10
1347.99999850197
20
-1099.49999532958
30
1.13210839357392e-005
11
1347.65925695516
21
-1102.08818580566
31
1.02579570131434e-005
  0
LINE
 8
GROUP0
10
1507.68234031442
20
-875.778513812039
30
8.45086416561891e-005
11
1506.00001653753
21
-875.999996064857
31
8.35988375541496e-005
  0
LINE
 8
GROUP0
10
1502.7500164735
20
-875.129161428422
30
8.22900008072225e-005
11
1501.40382231984
21
-874.096190480518
31
8.19801634342809e-005
  0
LINE
 8
GROUP0
10
1506.00001558167
20
-862.999996064858
30
8.80910111524358e-005
11
1507.68233939112
21
-863.221478070281
31
8.88477481604644e-005
  0
LINE
 8
GROUP0
10
1502.7500156457
20
-863.870831179225
30
8.61803372490422e-005
11
1504.31769180479
21
-863.221478317677
31
8.71812070475764e-005
  0
LINE
 8
GROUP0
10
1512.5000160596
20
-869.499995586926
30
8.90644348164382e-005
11
1512.27853405418
21
-871.182319396378
31
8.83734026643823e-005
  0
LINE
 8
GROUP0
10
1506.00001653753
20
-875.999996064857
30
8.35988375541496e-005
11
1504.31769272808
21
-875.778514059434
31
8.28421004558821e-005
  0
LINE
 8
GROUP0
10
1346.66025290745
20
-1104.49999542809
30
8.9297357038165e-006
11
1345.07106683376
21
-1106.5710633568
31
7.42693618513979e-006
  0
LINE
 8
GROUP0
10
1347.65925695516
20
-1102.08818580566
30
1.02579570131434e-005
11
1346.66025290745
21
-1104.49999542809
31
8.9297357038165e-006
  0
LINE
 8
GROUP0
10
1511.62918094523
20
-866.249995650957
30
8.97561457379514e-005
11
1512.27853380678
21
-867.817671810045
31
8.95360626255171e-005
  0
LINE
 8
GROUP0
10
1499.72149806503
20
-867.817672733337
30
8.33164459491442e-005
11
1500.37085069604
21
-866.249996478758
31
8.41797896814156e-005
  0
LINE
 8
GROUP0
10
1509.2500164735
20
-875.12916095049
30
8.55095112770654e-005
11
1507.68234031442
21
-875.778513812039
31
8.45086416561891e-005
  0
LINE
 8
GROUP0
10
1507.68233939112
20
-863.221478070281
30
8.88477481604644e-005
11
1509.2500156457
21
-863.870830701293
31
8.93998477160651e-005
  0
LINE
 8
GROUP0
10
1329.33974483177
20
-1104.49999670163
30
3.50726535147672e-007
11
1328.34074042938
21
-1102.08818722611
31
6.89316038188226e-007
  0
LINE
 8
GROUP0
10
1328.34074042938
20
-1102.08818722611
30
6.89316038188226e-007
11
1327.99999850197
21
-1099.49999680014
31
1.41489696378061e-006
  0
LINE
 8
GROUP0
10
1501.40382231984
20
-874.096190480518
30
8.19801634342809e-005
11
1500.37085117397
21
-872.749996478758
31
8.19337030588729e-005
  0
LINE
 8
GROUP0
10
1500.37085069604
20
-866.249996478758
30
8.41797896814156e-005
11
1501.40382164394
21
-864.903802325094
31
8.51566098864776e-005
  0
LINE
 8
GROUP0
10
1512.27853380678
20
-867.817671810045
30
8.95360626255171e-005
11
1512.5000160596
21
-869.499995586926
31
8.90644348164382e-005
  0
LINE
 8
GROUP0
10
1510.59620979936
20
-864.903801649197
30
8.97096851792456e-005
11
1511.62918094523
21
-866.249995650957
31
8.97561457379514e-005
  0
LINE
 8
GROUP0
10
1504.31769180479
20
-863.221478317677
30
8.71812070475764e-005
11
1506.00001558167
21
-862.999996064858
31
8.80910111524358e-005
  0
LINE
 8
GROUP0
10
1330.92893121003
20
-1106.57106439665
30
4.22204507577462e-007
11
1329.33974483177
21
-1104.49999670163
31
3.50726535147672e-007
  0
LINE
 8
GROUP0
10
1340.58818966322
20
-1109.15925413745
30
4.31217124967631e-006
11
1337.99999923725
21
-1109.49999606486
31
2.91247215121748e-006
  0
LINE
 8
GROUP0
10
1327.99999850197
20
-1099.49999680014
30
1.41489696378061e-006
11
1328.00001462339
21
-869.499996800137
31
8.08918304161188e-005
  0
LINE
 8
GROUP0
10
1501.40382164394
20
-864.903802325094
30
8.51566098864776e-005
11
1502.7500156457
21
-863.870831179225
31
8.61803372490422e-005
  0
LINE
 8
GROUP0
10
1340.58820436419
20
-859.840737611662
30
9.04646525800523e-005
11
1343.00001398662
21
-860.839741659374
31
9.13140368867471e-005
  0
LINE
 8
GROUP0
10
1342.99999913874
20
-1108.16024973506
30
5.85197013717731e-006
11
1340.58818966322
21
-1109.15925413745
31
4.31217124967631e-006
  0
LINE
 8
GROUP0
10
1346.66026829359
20
-864.499995428088
30
9.18621872752767e-005
11
1347.65927269598
21
-866.911804903607
31
9.15235984074336e-005
  0
LINE
 8
GROUP0
10
1345.07108191534
20
-862.428927733071
30
9.17907099345194e-005
11
1346.66026829359
21
-864.499995428088
31
9.18621872752767e-005
  0
LINE
 8
GROUP0
10
1337.99999138004
20
-1105.99999606485
30
4.12189949962616e-006
11
1336.31766782955
21
-1105.77851209244
31
3.36516303162115e-006
  0
LINE
 8
GROUP0
10
1333.4037993883
20
-1104.0961851066
30
2.50322800514624e-006
11
1332.37082981641
21
-1102.74998989708
31
2.45676916168502e-006
  0
LINE
 8
GROUP0
10
1342.59618754371
20
-1104.09619517853
30
7.05629986037515e-006
11
1341.24999233419
21
-1105.12916475042
31
6.03257231874266e-006
  0
LINE
 8
GROUP0
10
1343.62917192624
20
-987.749995650957
30
4.77715918492161e-005
11
1344.27852455726
21
-986.182319396378
31
4.86349353079507e-005
  0
LINE
 8
GROUP0
10
1332.37082981641
20
-1102.74998989708
30
2.45676916168502e-006
11
1331.72147878781
21
-1101.18231297877
31
2.67685317368871e-006
  0
LINE
 8
GROUP0
10
1336.31766782955
20
-1105.77851209244
30
3.36516303162115e-006
11
1334.7499923342
21
-1105.12915762849
31
2.81306429099071e-006
  0
LINE
 8
GROUP0
10
1329.33976021791
20
-864.499996701628
30
8.32831781975518e-005
11
1330.9289462916
21
-862.428928772913
31
8.47859776252846e-005
  0
LINE
 8
GROUP0
10
1330.9289462916
20
-862.428928772913
30
8.47859776252846e-005
11
1333.00001398662
21
-860.839742394654
31
8.63609434927692e-005
  0
LINE
 8
GROUP0
10
1336.31768158806
20
-1093.2214763507
30
7.70427693830844e-006
11
1338.0000056239
21
-1092.99999606487
31
8.61408041290534e-006
  0
LINE
 8
GROUP0
10
1343.62916718753
20
-1096.25000223264
30
1.02792108382654e-005
11
1344.27851821613
21
-1097.81767915095
31
1.00591267395478e-005
  0
LINE
 8
GROUP0
10
1328.3407561702
20
-866.911806324058
30
8.19549576094314e-005
11
1329.33976021791
21
-864.499996701628
31
8.32831781975518e-005
  0
LINE
 8
GROUP0
10
1337.99999923725
20
-1109.49999606486
30
2.91247215121748e-006
11
1335.41180876117
21
-1109.15925451805
31
1.74826077917745e-006
  0
LINE
 8
GROUP0
10
1343.00001398662
20
-860.839741659374
30
9.13140368867471e-005
11
1345.07108191534
21
-862.428927733071
31
9.17907099345194e-005
  0
LINE
 8
GROUP0
10
1344.27851452955
20
-1101.18232673728
30
8.89646469939276e-006
11
1343.6291600656
21
-1102.75000223263
31
8.03312042850779e-006
  0
LINE
 8
GROUP0
10
1339.68231541588
20
-1105.77851577902
30
5.03170297210809e-006
11
1337.99999138004
21
-1105.99999606485
31
4.12189949962616e-006
  0
LINE
 8
GROUP0
10
1343.6291600656
20
-1102.75000223263
30
8.03312042850779e-006
11
1342.59618754371
21
-1104.09619517853
31
7.05629986037515e-006
  0
LINE
 8
GROUP0
10
1333.00001398662
20
-860.839742394654
30
8.63609434927692e-005
11
1335.41182346214
21
-859.840737992271
31
8.79007428286449e-005
  0
LINE
 8
GROUP0
10
1341.24999233419
20
-1105.12916475042
30
6.03257231874266e-006
11
1339.68231541588
21
-1105.77851577902
31
5.03170297210809e-006
  0
LINE
 8
GROUP0
10
1331.49999850198
20
-1099.49998894293
30
3.14848179280291e-006
11
1331.72148247439
21
-1097.81766539244
31
3.83951484724809e-006
  0
LINE
 8
GROUP0
10
1332.37083693834
20
-1096.24998989709
30
4.70285939096482e-006
11
1333.40380946023
21
-1094.90379695119
31
5.67967977861961e-006
  0
LINE
 8
GROUP0
10
1334.75000466975
20
-1093.8708273793
30
6.70340750143494e-006
11
1336.31768158806
21
-1093.2214763507
31
7.70427693830844e-006
  0
LINE
 8
GROUP0
10
1338.0000056239
20
-1092.99999606487
30
8.61408041290534e-006
11
1339.68232917439
21
-1093.22148003728
31
9.37081669549755e-006
  0
LINE
 8
GROUP0
10
1334.7499923342
20
-1105.12915762849
30
2.81306429099071e-006
11
1333.4037993883
21
-1104.0961851066
31
2.50322800514624e-006
  0
LINE
 8
GROUP0
10
1338.00001388811
20
-859.499996064858
30
8.93004412954312e-005
11
1340.58820436419
21
-859.840737611662
31
9.04646525800523e-005
  0
LINE
 8
GROUP0
10
1335.41182346214
20
-859.840737992271
30
8.79007428286449e-005
11
1338.00001388811
21
-859.499996064858
31
8.93004412954312e-005
  0
LINE
 8
GROUP0
10
1331.72147878781
20
-1101.18231297877
30
2.67685317368871e-006
11
1331.49999850198
21
-1099.49998894293
31
3.14848179280291e-006
  0
LINE
 8
GROUP0
10
1333.40380946023
20
-1094.90379695119
30
5.67967977861961e-006
11
1334.75000466975
21
-1093.8708273793
31
6.70340750143494e-006
  0
LINE
 8
GROUP0
10
1341.25000466974
20
-1093.87083450123
30
9.92291534800405e-006
11
1342.59619761564
21
-1094.90380702312
31
1.02327517304324e-005
  0
LINE
 8
GROUP0
10
1344.49999850196
20
-1099.50000318679
30
9.5874977566579e-006
11
1344.27851452955
21
-1101.18232673728
31
8.89646469939276e-006
  0
LINE
 8
GROUP0
10
1347.65927269598
20
-866.911804903607
30
9.15235984074336e-005
11
1348.00001462339
21
-869.499995329579
31
9.07980169368827e-005
  0
LINE
 8
GROUP0
10
1332.99999913874
20
-1108.16025047034
30
8.98876743199439e-007
11
1330.92893121003
21
-1106.57106439665
31
4.22204507577462e-007
  0
LINE
 8
GROUP0
10
1335.41180876117
20
-1109.15925451805
30
1.74826077917745e-006
11
1332.99999913874
21
-1108.16025047034
31
8.98876743199439e-007
  0
LINE
 8
GROUP0
10
1331.7214888155
20
-986.182320319672
30
4.24153198949229e-005
11
1332.37084167705
21
-987.74999647876
31
4.21952372393231e-005
  0
LINE
 8
GROUP0
10
1332.37084167705
20
-987.74999647876
30
4.21952372393231e-005
11
1333.40381282292
21
-989.09619048052
31
4.22416976090911e-005
  0
LINE
 8
GROUP0
10
1334.75000697658
20
-990.129161428423
30
4.25515352555694e-005
11
1336.31768323116
21
-990.778514059435
31
4.31036348111702e-005
  0
LINE
 8
GROUP0
10
1331.50000656268
20
-984.499996542791
30
4.28869477040017e-005
11
1331.7214888155
21
-986.182320319672
31
4.24153198949229e-005
  0
LINE
 8
GROUP0
10
1333.40381214702
20
-979.903802325096
30
4.5418142439807e-005
11
1332.37084119912
21
-981.24999647876
31
4.44413230476004e-005
  0
LINE
 8
GROUP0
10
1339.68232917439
20
-1093.22148003728
30
9.37081669549755e-006
11
1341.25000466974
21
-1093.87083450123
31
9.92291534800405e-006
  0
LINE
 8
GROUP0
10
1338.00000608475
20
-977.999996064859
30
4.83525430740928e-005
11
1336.31768230787
21
-978.221478317678
31
4.74427390594723e-005
  0
LINE
 8
GROUP0
10
1344.27852455726
20
-986.182319396378
30
4.86349353079507e-005
11
1344.50000656268
21
-984.499995586927
31
4.93259671018709e-005
  0
LINE
 8
GROUP0
10
1334.75000614878
20
-978.870831179226
30
4.64418696218938e-005
11
1333.40381214702
21
-979.903802325096
31
4.5418142439807e-005
  0
LINE
 8
GROUP0
10
1334.7500164735
20
-875.129161428422
30
8.22900008072225e-005
11
1333.40382231984
21
-874.096190480518
31
8.19801634342809e-005
  0
LINE
 8
GROUP0
10
1344.27851821613
20
-1097.81767915095
30
1.00591267395478e-005
11
1344.49999850196
21
-1099.50000318679
31
9.5874977566579e-006
  0
LINE
 8
GROUP0
10
1338.00000704061
20
-990.999996064858
30
4.38603719122577e-005
11
1339.68233081749
21
-990.778513812039
31
4.47701755631025e-005
  0
LINE
 8
GROUP0
10
1339.68233081749
20
-990.778513812039
30
4.47701755631025e-005
11
1341.25000697658
21
-990.129160950491
31
4.5771045000681e-005
  0
LINE
 8
GROUP0
10
1333.40381282292
20
-989.09619048052
30
4.22416976090911e-005
11
1334.75000697658
21
-990.129161428423
31
4.25515352555694e-005
  0
LINE
 8
GROUP0
10
1336.31768323116
20
-990.778514059435
30
4.31036348111702e-005
11
1338.00000704061
21
-990.999996064858
31
4.38603719122577e-005
  0
LINE
 8
GROUP0
10
1332.37084119912
20
-981.24999647876
30
4.44413230476004e-005
11
1331.7214885681
21
-982.81767273334
31
4.35779794958069e-005
  0
LINE
 8
GROUP0
10
1341.2500164735
20
-875.12916095049
30
8.55095112770654e-005
11
1339.68234031442
21
-875.778513812039
31
8.45086416561891e-005
  0
LINE
 8
GROUP0
10
1336.31769272808
20
-875.778514059434
30
8.28421004558821e-005
11
1334.7500164735
21
-875.129161428422
31
8.22900008072225e-005
  0
LINE
 8
GROUP0
10
1333.40382231984
20
-874.096190480518
30
8.19801634342809e-005
11
1332.37085117397
21
-872.749996478758
31
8.19337030588729e-005
  0
LINE
 8
GROUP0
10
1331.72148247439
20
-1097.81766539244
30
3.83951484724809e-006
11
1332.37083693834
21
-1096.24998989709
31
4.70285939096482e-006
  0
LINE
 8
GROUP0
10
1341.25000614878
20
-978.870830701294
30
4.96613796377221e-005
11
1339.6823298942
21
-978.221478070282
31
4.91092799918824e-005
  0
LINE
 8
GROUP0
10
1331.7214885681
20
-982.81767273334
30
4.35779794958069e-005
11
1331.50000656268
21
-984.499996542791
31
4.28869477040017e-005
  0
LINE
 8
GROUP0
10
1342.59620097834
20
-989.096189804622
30
4.67947720925288e-005
11
1343.62917192624
21
-987.749995650957
31
4.77715918492161e-005
  0
LINE
 8
GROUP0
10
1332.37085117397
20
-872.749996478758
30
8.19337030588729e-005
11
1331.72149831242
21
-871.18232031967
31
8.21537858047117e-005
  0
LINE
 8
GROUP0
10
1336.31768230787
20
-978.221478317678
30
4.74427390594723e-005
11
1334.75000614878
21
-978.870831179226
31
4.64418696218938e-005
  0
LINE
 8
GROUP0
10
1339.6823298942
20
-978.221478070282
30
4.91092799918824e-005
11
1338.00000608475
21
-977.999996064859
31
4.83525430740928e-005
  0
LINE
 8
GROUP0
10
1339.68234031442
20
-875.778513812039
30
8.45086416561891e-005
11
1338.00001653753
21
-875.999996064857
31
8.35988375541496e-005
  0
LINE
 8
GROUP0
10
1342.59620030244
20
-979.903801649198
30
4.99712170106636e-005
11
1341.25000614878
21
-978.870830701294
31
4.96613796377221e-005
  0
LINE
 8
GROUP0
10
1343.62917144831
20
-981.249995650958
30
5.00176775665495e-005
11
1342.59620030244
21
-979.903801649198
31
4.99712170106636e-005
  0
LINE
 8
GROUP0
10
1341.25000697658
20
-990.129160950491
30
4.5771045000681e-005
11
1342.59620097834
21
-989.096189804622
31
4.67947720925288e-005
  0
LINE
 8
GROUP0
10
1344.50000656268
20
-984.499995586927
30
4.93259671018709e-005
11
1344.27852430986
21
-982.817671810046
31
4.97975949116547e-005
  0
LINE
 8
GROUP0
10
1342.59619761564
20
-1094.90380702312
30
1.02327517304324e-005
11
1343.62916718753
21
-1096.25000223264
31
1.02792108382654e-005
  0
LINE
 8
GROUP0
10
1331.5000160596
20
-869.499996542789
30
8.26254137970883e-005
11
1331.72149806503
21
-867.817672733337
31
8.33164459491442e-005
  0
LINE
 8
GROUP0
10
1424.34074042939
20
-1102.08818722611
30
6.89316038188226e-007
11
1423.99999850197
21
-1099.49999680014
31
1.41489696378061e-006
  0
LINE
 8
GROUP0
10
1338.00001653753
20
-875.999996064857
30
8.35988375541496e-005
11
1336.31769272808
21
-875.778514059434
31
8.28421004558821e-005
  0
LINE
 8
GROUP0
10
1343.62918142317
20
-872.749995650957
30
8.7510058843987e-005
11
1342.59621047526
21
-874.096189804621
31
8.65332388172879e-005
  0
LINE
 8
GROUP0
10
1344.27853405418
20
-871.182319396378
30
8.83734026643823e-005
11
1343.62918142317
21
-872.749995650957
31
8.7510058843987e-005
  0
LINE
 8
GROUP0
10
1431.41182346214
20
-859.840737992271
30
8.79007428286449e-005
11
1434.00001388811
21
-859.499996064858
31
8.93004412954312e-005
  0
LINE
 8
GROUP0
10
1439.00001398662
20
-860.839741659374
30
9.13140368867471e-005
11
1441.07108191534
21
-862.428927733071
31
9.17907099345194e-005
  0
LINE
 8
GROUP0
10
1438.99999913874
20
-1108.16024973506
30
5.85197013717731e-006
11
1436.58818966322
21
-1109.15925413745
31
4.31217124967631e-006
  0
LINE
 8
GROUP0
10
1443.65925695516
20
-1102.08818580566
30
1.02579570131434e-005
11
1442.66025290745
21
-1104.49999542809
31
8.9297357038165e-006
  0
LINE
 8
GROUP0
10
1431.41180876117
20
-1109.15925451805
30
1.74826077917745e-006
11
1428.99999913874
21
-1108.16025047034
31
8.98876743199439e-007
  0
LINE
 8
GROUP0
10
1441.07108191534
20
-862.428927733071
30
9.17907099345194e-005
11
1442.66026829359
21
-864.499995428088
31
9.18621872752767e-005
  0
LINE
 8
GROUP0
10
1425.33976021791
20
-864.499996701628
30
8.32831781975518e-005
11
1426.9289462916
21
-862.428928772913
31
8.47859776252846e-005
  0
LINE
 8
GROUP0
10
1426.92893121003
20
-1106.57106439665
30
4.22204507577462e-007
11
1425.33974483177
21
-1104.49999670163
31
3.50726535147672e-007
  0
LINE
 8
GROUP0
10
1424.3407561702
20
-866.911806324058
30
8.19549576094314e-005
11
1425.33976021791
21
-864.499996701628
31
8.32831781975518e-005
  0
LINE
 8
GROUP0
10
1342.59621047526
20
-874.096189804621
30
8.65332388172879e-005
11
1341.2500164735
21
-875.12916095049
31
8.55095112770654e-005
  0
LINE
 8
GROUP0
10
1442.66025290745
20
-1104.49999542809
30
8.9297357038165e-006
11
1441.07106683376
21
-1106.5710633568
31
7.42693618513979e-006
  0
LINE
 8
GROUP0
10
1424.00001462339
20
-869.499996800137
30
8.08918304161188e-005
11
1424.3407561702
21
-866.911806324058
31
8.19549576094314e-005
  0
LINE
 8
GROUP0
10
1436.58818966322
20
-1109.15925413745
30
4.31217124967631e-006
11
1433.99999923725
21
-1109.49999606486
31
2.91247215121748e-006
  0
LINE
 8
GROUP0
10
1433.99999923725
20
-1109.49999606486
30
2.91247215121748e-006
11
1431.41180876117
21
-1109.15925451805
31
1.74826077917745e-006
  0
LINE
 8
GROUP0
10
1443.65927269598
20
-866.911804903607
30
9.15235984074336e-005
11
1444.00001462339
21
-869.499995329579
31
9.07980169368827e-005
  0
LINE
 8
GROUP0
10
1434.00001388811
20
-859.499996064858
30
8.93004412954312e-005
11
1436.58820436419
21
-859.840737611662
31
9.04646525800523e-005
  0
LINE
 8
GROUP0
10
1441.07106683376
20
-1106.5710633568
30
7.42693618513979e-006
11
1438.99999913874
21
-1108.16024973506
31
5.85197013717731e-006
  0
LINE
 8
GROUP0
10
1423.99999850197
20
-1099.49999680014
30
1.41489696378061e-006
11
1424.00001462339
21
-869.499996800137
31
8.08918304161188e-005
  0
LINE
 8
GROUP0
10
1443.99999850197
20
-1099.49999532958
30
1.13210839357392e-005
11
1443.65925695516
21
-1102.08818580566
31
1.02579570131434e-005
  0
LINE
 8
GROUP0
10
1444.00001462339
20
-869.499995329579
30
9.07980169368827e-005
11
1443.99999850197
21
-1099.49999532958
31
1.13210839357392e-005
  0
LINE
 8
GROUP0
10
1440.49999850196
20
-1099.50000318679
30
9.5874977566579e-006
11
1440.27851452955
21
-1101.18232673728
31
8.89646469939276e-006
  0
LINE
 8
GROUP0
10
1331.72149831242
20
-871.18232031967
30
8.21537858047117e-005
11
1331.5000160596
21
-869.499996542789
31
8.26254137970883e-005
  0
LINE
 8
GROUP0
10
1425.33974483177
20
-1104.49999670163
30
3.50726535147672e-007
11
1424.34074042939
21
-1102.08818722611
31
6.89316038188226e-007
  0
LINE
 8
GROUP0
10
1426.9289462916
20
-862.428928772913
30
8.47859776252846e-005
11
1429.00001398662
21
-860.839742394654
31
8.63609434927692e-005
  0
LINE
 8
GROUP0
10
1344.27852430986
20
-982.817671810046
30
4.97975949116547e-005
11
1343.62917144831
21
-981.249995650958
31
5.00176775665495e-005
  0
LINE
 8
GROUP0
10
1442.66026829359
20
-864.499995428088
30
9.18621872752767e-005
11
1443.65927269598
21
-866.911804903607
31
9.15235984074336e-005
  0
LINE
 8
GROUP0
10
1428.99999913874
20
-1108.16025047034
30
8.98876743199439e-007
11
1426.92893121003
21
-1106.57106439665
31
4.22204507577462e-007
  0
LINE
 8
GROUP0
10
1433.99999138004
20
-1105.99999606485
30
4.12189949962616e-006
11
1432.31766782955
21
-1105.77851209244
31
3.36516303162115e-006
  0
LINE
 8
GROUP0
10
1439.6291600656
20
-1102.75000223263
30
8.03312042850779e-006
11
1438.59618754371
21
-1104.09619517853
31
7.05629986037515e-006
  0
LINE
 8
GROUP0
10
1430.75000466975
20
-1093.8708273793
30
6.70340750143494e-006
11
1432.31768158806
21
-1093.2214763507
31
7.70427693830844e-006
  0
LINE
 8
GROUP0
10
1434.0000056239
20
-1092.99999606487
30
8.61408041290534e-006
11
1435.68232917439
21
-1093.22148003728
31
9.37081669549755e-006
  0
LINE
 8
GROUP0
10
1439.62917192624
20
-987.749995650957
30
4.77715918492161e-005
11
1440.27852455726
21
-986.182319396378
31
4.86349353079507e-005
  0
LINE
 8
GROUP0
10
1437.24999233419
20
-1105.12916475042
30
6.03257231874266e-006
11
1435.68231541588
21
-1105.77851577902
31
5.03170297210809e-006
  0
LINE
 8
GROUP0
10
1427.49999850198
20
-1099.49998894293
30
3.14848179280291e-006
11
1427.72148247439
21
-1097.81766539244
31
3.83951484724809e-006
  0
LINE
 8
GROUP0
10
1432.31766782955
20
-1105.77851209244
30
3.36516303162115e-006
11
1430.7499923342
21
-1105.12915762849
31
2.81306429099071e-006
  0
LINE
 8
GROUP0
10
1428.37083693834
20
-1096.24998989709
30
4.70285939096482e-006
11
1429.40380946023
21
-1094.90379695119
31
5.67967977861961e-006
  0
LINE
 8
GROUP0
10
1437.25000697658
20
-990.129160950491
30
4.5771045000681e-005
11
1438.59620097834
21
-989.096189804622
31
4.67947720925288e-005
  0
LINE
 8
GROUP0
10
1429.00001398662
20
-860.839742394654
30
8.63609434927692e-005
11
1431.41182346214
21
-859.840737992271
31
8.79007428286449e-005
  0
LINE
 8
GROUP0
10
1440.27852455726
20
-986.182319396378
30
4.86349353079507e-005
11
1440.50000656268
21
-984.499995586927
31
4.93259671018709e-005
  0
LINE
 8
GROUP0
10
1439.62916718753
20
-1096.25000223264
30
1.02792108382654e-005
11
1440.27851821613
21
-1097.81767915095
31
1.00591267395478e-005
  0
LINE
 8
GROUP0
10
1435.68231541588
20
-1105.77851577902
30
5.03170297210809e-006
11
1433.99999138004
21
-1105.99999606485
31
4.12189949962616e-006
  0
LINE
 8
GROUP0
10
1430.7499923342
20
-1105.12915762849
30
2.81306429099071e-006
11
1429.4037993883
21
-1104.0961851066
31
2.50322800514624e-006
  0
LINE
 8
GROUP0
10
1435.68233081749
20
-990.778513812039
30
4.47701755631025e-005
11
1437.25000697658
21
-990.129160950491
31
4.5771045000681e-005
  0
LINE
 8
GROUP0
10
1435.68232917439
20
-1093.22148003728
30
9.37081669549755e-006
11
1437.25000466974
21
-1093.87083450123
31
9.92291534800405e-006
  0
LINE
 8
GROUP0
10
1427.72147878781
20
-1101.18231297877
30
2.67685317368871e-006
11
1427.49999850198
21
-1099.49998894293
31
3.14848179280291e-006
  0
LINE
 8
GROUP0
10
1438.59618754371
20
-1104.09619517853
30
7.05629986037515e-006
11
1437.24999233419
21
-1105.12916475042
31
6.03257231874266e-006
  0
LINE
 8
GROUP0
10
1436.58820436419
20
-859.840737611662
30
9.04646525800523e-005
11
1439.00001398662
21
-860.839741659374
31
9.13140368867471e-005
  0
LINE
 8
GROUP0
10
1429.40380946023
20
-1094.90379695119
30
5.67967977861961e-006
11
1430.75000466975
21
-1093.8708273793
31
6.70340750143494e-006
  0
LINE
 8
GROUP0
10
1429.4037993883
20
-1104.0961851066
30
2.50322800514624e-006
11
1428.37082981641
21
-1102.74998989708
31
2.45676916168502e-006
  0
LINE
 8
GROUP0
10
1440.27851452955
20
-1101.18232673728
30
8.89646469939276e-006
11
1439.6291600656
21
-1102.75000223263
31
8.03312042850779e-006
  0
LINE
 8
GROUP0
10
1427.72148247439
20
-1097.81766539244
30
3.83951484724809e-006
11
1428.37083693834
21
-1096.24998989709
31
4.70285939096482e-006
  0
LINE
 8
GROUP0
10
1434.00000704061
20
-990.999996064858
30
4.38603719122577e-005
11
1435.68233081749
21
-990.778513812039
31
4.47701755631025e-005
  0
LINE
 8
GROUP0
10
1437.25000466974
20
-1093.87083450123
30
9.92291534800405e-006
11
1438.59619761564
21
-1094.90380702312
31
1.02327517304324e-005
  0
LINE
 8
GROUP0
10
1428.37082981641
20
-1102.74998989708
30
2.45676916168502e-006
11
1427.72147878781
21
-1101.18231297877
31
2.67685317368871e-006
  0
LINE
 8
GROUP0
10
1432.31768158806
20
-1093.2214763507
30
7.70427693830844e-006
11
1434.0000056239
21
-1092.99999606487
31
8.61408041290534e-006
  0
LINE
 8
GROUP0
10
1438.59620097834
20
-989.096189804622
30
4.67947720925288e-005
11
1439.62917192624
21
-987.749995650957
31
4.77715918492161e-005
  0
LINE
 8
GROUP0
10
1440.27851821613
20
-1097.81767915095
30
1.00591267395478e-005
11
1440.49999850196
21
-1099.50000318679
31
9.5874977566579e-006
  0
LINE
 8
GROUP0
10
1432.31768323116
20
-990.778514059435
30
4.31036348111702e-005
11
1434.00000704061
21
-990.999996064858
31
4.38603719122577e-005
  0
LINE
 8
GROUP0
10
1430.75000697658
20
-990.129161428423
30
4.25515352555694e-005
11
1432.31768323116
21
-990.778514059435
31
4.31036348111702e-005
  0
LINE
 8
GROUP0
10
1434.00000608475
20
-977.999996064859
30
4.83525430740928e-005
11
1432.31768230787
21
-978.221478317678
31
4.74427390594723e-005
  0
LINE
 8
GROUP0
10
1430.7500156457
20
-863.870831179225
30
8.61803372490422e-005
11
1432.31769180479
21
-863.221478317677
31
8.71812070475764e-005
  0
LINE
 8
GROUP0
10
1438.59620030244
20
-979.903801649198
30
4.99712170106636e-005
11
1437.25000614878
21
-978.870830701294
31
4.96613796377221e-005
  0
LINE
 8
GROUP0
10
1440.27852430986
20
-982.817671810046
30
4.97975949116547e-005
11
1439.62917144831
21
-981.249995650958
31
5.00176775665495e-005
  0
LINE
 8
GROUP0
10
1429.40381282292
20
-989.09619048052
30
4.22416976090911e-005
11
1430.75000697658
21
-990.129161428423
31
4.25515352555694e-005
  0
LINE
 8
GROUP0
10
1428.37084119912
20
-981.24999647876
30
4.44413230476004e-005
11
1427.7214885681
21
-982.81767273334
31
4.35779794958069e-005
  0
LINE
 8
GROUP0
10
1437.25000614878
20
-978.870830701294
30
4.96613796377221e-005
11
1435.6823298942
21
-978.221478070282
31
4.91092799918824e-005
  0
LINE
 8
GROUP0
10
1432.31769272808
20
-875.778514059434
30
8.28421004558821e-005
11
1430.7500164735
21
-875.129161428422
31
8.22900008072225e-005
  0
LINE
 8
GROUP0
10
1430.7500164735
20
-875.129161428422
30
8.22900008072225e-005
11
1429.40382231984
21
-874.096190480518
31
8.19801634342809e-005
  0
LINE
 8
GROUP0
10
1429.40382231984
20
-874.096190480518
30
8.19801634342809e-005
11
1428.37085117397
21
-872.749996478758
31
8.19337030588729e-005
  0
LINE
 8
GROUP0
10
1427.72149831242
20
-871.18232031967
30
8.21537858047117e-005
11
1427.5000160596
21
-869.499996542789
31
8.26254137970883e-005
  0
LINE
 8
GROUP0
10
1432.31769180479
20
-863.221478317677
30
8.71812070475764e-005
11
1434.00001558167
21
-862.999996064858
31
8.80910111524358e-005
  0
LINE
 8
GROUP0
10
1434.00001653753
20
-875.999996064857
30
8.35988375541496e-005
11
1432.31769272808
21
-875.778514059434
31
8.28421004558821e-005
  0
LINE
 8
GROUP0
10
1427.72149806503
20
-867.817672733337
30
8.33164459491442e-005
11
1428.37085069604
21
-866.249996478758
31
8.41797896814156e-005
  0
LINE
 8
GROUP0
10
1440.50000656268
20
-984.499995586927
30
4.93259671018709e-005
11
1440.27852430986
21
-982.817671810046
31
4.97975949116547e-005
  0
LINE
 8
GROUP0
10
1427.50000656268
20
-984.499996542791
30
4.28869477040017e-005
11
1427.7214888155
21
-986.182320319672
31
4.24153198949229e-005
  0
LINE
 8
GROUP0
10
1428.37084167705
20
-987.74999647876
30
4.21952372393231e-005
11
1429.40381282292
21
-989.09619048052
31
4.22416976090911e-005
  0
LINE
 8
GROUP0
10
1439.62917144831
20
-981.249995650958
30
5.00176775665495e-005
11
1438.59620030244
21
-979.903801649198
31
4.99712170106636e-005
  0
LINE
 8
GROUP0
10
1428.37085117397
20
-872.749996478758
30
8.19337030588729e-005
11
1427.72149831242
21
-871.18232031967
31
8.21537858047117e-005
  0
LINE
 8
GROUP0
10
1427.5000160596
20
-869.499996542789
30
8.26254137970883e-005
11
1427.72149806503
21
-867.817672733337
31
8.33164459491442e-005
  0
LINE
 8
GROUP0
10
1437.2500164735
20
-875.12916095049
30
8.55095112770654e-005
11
1435.68234031442
21
-875.778513812039
31
8.45086416561891e-005
  0
LINE
 8
GROUP0
10
1438.59621047526
20
-874.096189804621
30
8.65332388172879e-005
11
1437.2500164735
21
-875.12916095049
31
8.55095112770654e-005
  0
LINE
 8
GROUP0
10
1430.75000614878
20
-978.870831179226
30
4.64418696218938e-005
11
1429.40381214702
21
-979.903802325096
31
4.5418142439807e-005
  0
LINE
 8
GROUP0
10
1429.40381214702
20
-979.903802325096
30
4.5418142439807e-005
11
1428.37084119912
21
-981.24999647876
31
4.44413230476004e-005
  0
LINE
 8
GROUP0
10
1429.40382164394
20
-864.903802325094
30
8.51566098864776e-005
11
1430.7500156457
21
-863.870831179225
31
8.61803372490422e-005
  0
LINE
 8
GROUP0
10
1427.7214885681
20
-982.81767273334
30
4.35779794958069e-005
11
1427.50000656268
21
-984.499996542791
31
4.28869477040017e-005
  0
LINE
 8
GROUP0
10
1427.7214888155
20
-986.182320319672
30
4.24153198949229e-005
11
1428.37084167705
21
-987.74999647876
31
4.21952372393231e-005
  0
LINE
 8
GROUP0
10
1438.59619761564
20
-1094.90380702312
30
1.02327517304324e-005
11
1439.62916718753
21
-1096.25000223264
31
1.02792108382654e-005
  0
LINE
 8
GROUP0
10
1435.6823298942
20
-978.221478070282
30
4.91092799918824e-005
11
1434.00000608475
21
-977.999996064859
31
4.83525430740928e-005
  0
LINE
 8
GROUP0
10
1435.68234031442
20
-875.778513812039
30
8.45086416561891e-005
11
1434.00001653753
21
-875.999996064857
31
8.35988375541496e-005
  0
LINE
 8
GROUP0
10
1432.31768230787
20
-978.221478317678
30
4.74427390594723e-005
11
1430.75000614878
21
-978.870831179226
31
4.64418696218938e-005
  0
LINE
 8
GROUP0
10
1440.27853405418
20
-871.182319396378
30
8.83734026643823e-005
11
1439.62918142317
21
-872.749995650957
31
8.7510058843987e-005
  0
LINE
 8
GROUP0
10
1477.4037993883
20
-1104.0961851066
30
2.50322800514624e-006
11
1476.37082981641
21
-1102.74998989708
31
2.45676916168502e-006
  0
LINE
 8
GROUP0
10
1472.00001462339
20
-869.499996800137
30
8.08918304161188e-005
11
1472.3407561702
21
-866.911806324058
31
8.19549576094314e-005
  0
LINE
 8
GROUP0
10
1428.37085069604
20
-866.249996478758
30
8.41797896814156e-005
11
1429.40382164394
21
-864.903802325094
31
8.51566098864776e-005
  0
LINE
 8
GROUP0
10
1434.00001558167
20
-862.999996064858
30
8.80910111524358e-005
11
1435.68233939112
21
-863.221478070281
31
8.88477481604644e-005
  0
LINE
 8
GROUP0
10
1439.62918142317
20
-872.749995650957
30
8.7510058843987e-005
11
1438.59621047526
21
-874.096189804621
31
8.65332388172879e-005
  0
LINE
 8
GROUP0
10
1438.59620979936
20
-864.903801649197
30
8.97096851792456e-005
11
1439.62918094523
21
-866.249995650957
31
8.97561457379514e-005
  0
LINE
 8
GROUP0
10
1440.27853380678
20
-867.817671810045
30
8.95360626255171e-005
11
1440.5000160596
21
-869.499995586926
31
8.90644348164382e-005
  0
LINE
 8
GROUP0
10
1492.00001462339
20
-869.499995329579
30
9.07980169368827e-005
11
1491.99999850197
21
-1099.49999532958
31
1.13210839357392e-005
  0
LINE
 8
GROUP0
10
1489.07106683376
20
-1106.5710633568
30
7.42693618513979e-006
11
1486.99999913874
21
-1108.16024973506
31
5.85197013717731e-006
  0
LINE
 8
GROUP0
10
1476.99999913874
20
-1108.16025047034
30
8.98876743199439e-007
11
1474.92893121003
21
-1106.57106439665
31
4.22204507577462e-007
  0
LINE
 8
GROUP0
10
1486.99999913874
20
-1108.16024973506
30
5.85197013717731e-006
11
1484.58818966322
21
-1109.15925413745
31
4.31217124967631e-006
  0
LINE
 8
GROUP0
10
1440.5000160596
20
-869.499995586926
30
8.90644348164382e-005
11
1440.27853405418
21
-871.182319396378
31
8.83734026643823e-005
  0
LINE
 8
GROUP0
10
1481.99999923725
20
-1109.49999606486
30
2.91247215121748e-006
11
1479.41180876117
21
-1109.15925451805
31
1.74826077917745e-006
  0
LINE
 8
GROUP0
10
1491.65925695516
20
-1102.08818580566
30
1.02579570131434e-005
11
1490.66025290745
21
-1104.49999542809
31
8.9297357038165e-006
  0
LINE
 8
GROUP0
10
1473.33974483177
20
-1104.49999670163
30
3.50726535147672e-007
11
1472.34074042938
21
-1102.08818722611
31
6.89316038188226e-007
  0
LINE
 8
GROUP0
10
1484.58818966322
20
-1109.15925413745
30
4.31217124967631e-006
11
1481.99999923725
21
-1109.49999606486
31
2.91247215121748e-006
  0
LINE
 8
GROUP0
10
1487.00001398662
20
-860.839741659374
30
9.13140368867471e-005
11
1489.07108191534
21
-862.428927733071
31
9.17907099345194e-005
  0
LINE
 8
GROUP0
10
1484.58820436419
20
-859.840737611662
30
9.04646525800523e-005
11
1487.00001398662
21
-860.839741659374
31
9.13140368867471e-005
  0
LINE
 8
GROUP0
10
1490.66025290745
20
-1104.49999542809
30
8.9297357038165e-006
11
1489.07106683376
21
-1106.5710633568
31
7.42693618513979e-006
  0
LINE
 8
GROUP0
10
1491.99999850197
20
-1099.49999532958
30
1.13210839357392e-005
11
1491.65925695516
21
-1102.08818580566
31
1.02579570131434e-005
  0
LINE
 8
GROUP0
10
1479.41180876117
20
-1109.15925451805
30
1.74826077917745e-006
11
1476.99999913874
21
-1108.16025047034
31
8.98876743199439e-007
  0
LINE
 8
GROUP0
10
1490.66026829359
20
-864.499995428088
30
9.18621872752767e-005
11
1491.65927269598
21
-866.911804903607
31
9.15235984074336e-005
  0
LINE
 8
GROUP0
10
1472.34074042938
20
-1102.08818722611
30
6.89316038188226e-007
11
1471.99999850197
21
-1099.49999680014
31
1.41489696378061e-006
  0
LINE
 8
GROUP0
10
1439.62918094523
20
-866.249995650957
30
8.97561457379514e-005
11
1440.27853380678
21
-867.817671810045
31
8.95360626255171e-005
  0
LINE
 8
GROUP0
10
1482.00001388811
20
-859.499996064858
30
8.93004412954312e-005
11
1484.58820436419
21
-859.840737611662
31
9.04646525800523e-005
  0
LINE
 8
GROUP0
10
1435.68233939112
20
-863.221478070281
30
8.88477481604644e-005
11
1437.2500156457
21
-863.870830701293
31
8.93998477160651e-005
  0
LINE
 8
GROUP0
10
1474.92893121003
20
-1106.57106439665
30
4.22204507577462e-007
11
1473.33974483177
21
-1104.49999670163
31
3.50726535147672e-007
  0
LINE
 8
GROUP0
10
1489.07108191534
20
-862.428927733071
30
9.17907099345194e-005
11
1490.66026829359
21
-864.499995428088
31
9.18621872752767e-005
  0
LINE
 8
GROUP0
10
1471.99999850197
20
-1099.49999680014
30
1.41489696378061e-006
11
1472.00001462339
21
-869.499996800137
31
8.08918304161188e-005
  0
LINE
 8
GROUP0
10
1491.65927269598
20
-866.911804903607
30
9.15235984074336e-005
11
1492.00001462339
21
-869.499995329579
31
9.07980169368827e-005
  0
LINE
 8
GROUP0
10
1483.68231541588
20
-1105.77851577902
30
5.03170297210809e-006
11
1481.99999138004
21
-1105.99999606485
31
4.12189949962616e-006
  0
LINE
 8
GROUP0
10
1437.2500156457
20
-863.870830701293
30
8.93998477160651e-005
11
1438.59620979936
21
-864.903801649197
31
8.97096851792456e-005
  0
LINE
 8
GROUP0
10
1478.75000466975
20
-1093.8708273793
30
6.70340750143494e-006
11
1480.31768158806
21
-1093.2214763507
31
7.70427693830844e-006
  0
LINE
 8
GROUP0
10
1476.37082981641
20
-1102.74998989708
30
2.45676916168502e-006
11
1475.72147878781
21
-1101.18231297877
31
2.67685317368871e-006
  0
LINE
 8
GROUP0
10
1480.31768158806
20
-1093.2214763507
30
7.70427693830844e-006
11
1482.0000056239
21
-1092.99999606487
31
8.61408041290534e-006
  0
LINE
 8
GROUP0
10
1482.0000056239
20
-1092.99999606487
30
8.61408041290534e-006
11
1483.68232917439
21
-1093.22148003728
31
9.37081669549755e-006
  0
LINE
 8
GROUP0
10
1478.7499923342
20
-1105.12915762849
30
2.81306429099071e-006
11
1477.4037993883
21
-1104.0961851066
31
2.50322800514624e-006
  0
LINE
 8
GROUP0
10
1483.68232917439
20
-1093.22148003728
30
9.37081669549755e-006
11
1485.25000466974
21
-1093.87083450123
31
9.92291534800405e-006
  0
LINE
 8
GROUP0
10
1475.7214888155
20
-986.182320319672
30
4.24153198949229e-005
11
1476.37084167705
21
-987.74999647876
31
4.21952372393231e-005
  0
LINE
 8
GROUP0
10
1472.3407561702
20
-866.911806324058
30
8.19549576094314e-005
11
1473.33976021791
21
-864.499996701628
31
8.32831781975518e-005
  0
LINE
 8
GROUP0
10
1487.6291600656
20
-1102.75000223263
30
8.03312042850779e-006
11
1486.59618754371
21
-1104.09619517853
31
7.05629986037515e-006
  0
LINE
 8
GROUP0
10
1487.62917192624
20
-987.749995650957
30
4.77715918492161e-005
11
1488.27852455726
21
-986.182319396378
31
4.86349353079507e-005
  0
LINE
 8
GROUP0
10
1485.25000466974
20
-1093.87083450123
30
9.92291534800405e-006
11
1486.59619761564
21
-1094.90380702312
31
1.02327517304324e-005
  0
LINE
 8
GROUP0
10
1481.99999138004
20
-1105.99999606485
30
4.12189949962616e-006
11
1480.31766782955
21
-1105.77851209244
31
3.36516303162115e-006
  0
LINE
 8
GROUP0
10
1487.62916718753
20
-1096.25000223264
30
1.02792108382654e-005
11
1488.27851821613
21
-1097.81767915095
31
1.00591267395478e-005
  0
LINE
 8
GROUP0
10
1486.59619761564
20
-1094.90380702312
30
1.02327517304324e-005
11
1487.62916718753
21
-1096.25000223264
31
1.02792108382654e-005
  0
LINE
 8
GROUP0
10
1475.49999850198
20
-1099.49998894293
30
3.14848179280291e-006
11
1475.72148247439
21
-1097.81766539244
31
3.83951484724809e-006
  0
LINE
 8
GROUP0
10
1488.27852455726
20
-986.182319396378
30
4.86349353079507e-005
11
1488.50000656268
21
-984.499995586927
31
4.93259671018709e-005
  0
LINE
 8
GROUP0
10
1476.37083693834
20
-1096.24998989709
30
4.70285939096482e-006
11
1477.40380946023
21
-1094.90379695119
31
5.67967977861961e-006
  0
LINE
 8
GROUP0
10
1482.00000704061
20
-990.999996064858
30
4.38603719122577e-005
11
1483.68233081749
21
-990.778513812039
31
4.47701755631025e-005
  0
LINE
 8
GROUP0
10
1477.40380946023
20
-1094.90379695119
30
5.67967977861961e-006
11
1478.75000466975
21
-1093.8708273793
31
6.70340750143494e-006
  0
LINE
 8
GROUP0
10
1486.59618754371
20
-1104.09619517853
30
7.05629986037515e-006
11
1485.24999233419
21
-1105.12916475042
31
6.03257231874266e-006
  0
LINE
 8
GROUP0
10
1488.49999850196
20
-1099.50000318679
30
9.5874977566579e-006
11
1488.27851452955
21
-1101.18232673728
31
8.89646469939276e-006
  0
LINE
 8
GROUP0
10
1477.00001398662
20
-860.839742394654
30
8.63609434927692e-005
11
1479.41182346214
21
-859.840737992271
31
8.79007428286449e-005
  0
LINE
 8
GROUP0
10
1480.31766782955
20
-1105.77851209244
30
3.36516303162115e-006
11
1478.7499923342
21
-1105.12915762849
31
2.81306429099071e-006
  0
LINE
 8
GROUP0
10
1488.27851452955
20
-1101.18232673728
30
8.89646469939276e-006
11
1487.6291600656
21
-1102.75000223263
31
8.03312042850779e-006
  0
LINE
 8
GROUP0
10
1473.33976021791
20
-864.499996701628
30
8.32831781975518e-005
11
1474.9289462916
21
-862.428928772913
31
8.47859776252846e-005
  0
LINE
 8
GROUP0
10
1485.24999233419
20
-1105.12916475042
30
6.03257231874266e-006
11
1483.68231541588
21
-1105.77851577902
31
5.03170297210809e-006
  0
LINE
 8
GROUP0
10
1486.59620097834
20
-989.096189804622
30
4.67947720925288e-005
11
1487.62917192624
21
-987.749995650957
31
4.77715918492161e-005
  0
LINE
 8
GROUP0
10
1479.41182346214
20
-859.840737992271
30
8.79007428286449e-005
11
1482.00001388811
21
-859.499996064858
31
8.93004412954312e-005
  0
LINE
 8
GROUP0
10
1474.9289462916
20
-862.428928772913
30
8.47859776252846e-005
11
1477.00001398662
21
-860.839742394654
31
8.63609434927692e-005
  0
LINE
 8
GROUP0
10
1475.72148247439
20
-1097.81766539244
30
3.83951484724809e-006
11
1476.37083693834
21
-1096.24998989709
31
4.70285939096482e-006
  0
LINE
 8
GROUP0
10
1475.72147878781
20
-1101.18231297877
30
2.67685317368871e-006
11
1475.49999850198
21
-1099.49998894293
31
3.14848179280291e-006
  0
LINE
 8
GROUP0
10
1488.27851821613
20
-1097.81767915095
30
1.00591267395478e-005
11
1488.49999850196
21
-1099.50000318679
31
9.5874977566579e-006
  0
LINE
 8
GROUP0
10
1486.59621047526
20
-874.096189804621
30
8.65332388172879e-005
11
1485.2500164735
21
-875.12916095049
31
8.55095112770654e-005
  0
LINE
 8
GROUP0
10
1485.2500156457
20
-863.870830701293
30
8.93998477160651e-005
11
1486.59620979936
21
-864.903801649197
31
8.97096851792456e-005
  0
LINE
 8
GROUP0
10
1488.5000160596
20
-869.499995586926
30
8.90644348164382e-005
11
1488.27853405418
21
-871.182319396378
31
8.83734026643823e-005
  0
LINE
 8
GROUP0
10
1482.00000608475
20
-977.999996064859
30
4.83525430740928e-005
11
1480.31768230787
21
-978.221478317678
31
4.74427390594723e-005
  0
LINE
 8
GROUP0
10
1480.31768323116
20
-990.778514059435
30
4.31036348111702e-005
11
1482.00000704061
21
-990.999996064858
31
4.38603719122577e-005
  0
LINE
 8
GROUP0
10
1477.40381214702
20
-979.903802325096
30
4.5418142439807e-005
11
1476.37084119912
21
-981.24999647876
31
4.44413230476004e-005
  0
LINE
 8
GROUP0
10
1483.6823298942
20
-978.221478070282
30
4.91092799918824e-005
11
1482.00000608475
21
-977.999996064859
31
4.83525430740928e-005
  0
LINE
 8
GROUP0
10
1485.25000697658
20
-990.129160950491
30
4.5771045000681e-005
11
1486.59620097834
21
-989.096189804622
31
4.67947720925288e-005
  0
LINE
 8
GROUP0
10
1476.37085117397
20
-872.749996478758
30
8.19337030588729e-005
11
1475.72149831242
21
-871.18232031967
31
8.21537858047117e-005
  0
LINE
 8
GROUP0
10
1485.25000614878
20
-978.870830701294
30
4.96613796377221e-005
11
1483.6823298942
21
-978.221478070282
31
4.91092799918824e-005
  0
LINE
 8
GROUP0
10
1476.37084167705
20
-987.74999647876
30
4.21952372393231e-005
11
1477.40381282292
21
-989.09619048052
31
4.22416976090911e-005
  0
LINE
 8
GROUP0
10
1486.59620030244
20
-979.903801649198
30
4.99712170106636e-005
11
1485.25000614878
21
-978.870830701294
31
4.96613796377221e-005
  0
LINE
 8
GROUP0
10
1488.50000656268
20
-984.499995586927
30
4.93259671018709e-005
11
1488.27852430986
21
-982.817671810046
31
4.97975949116547e-005
  0
LINE
 8
GROUP0
10
1478.75000614878
20
-978.870831179226
30
4.64418696218938e-005
11
1477.40381214702
21
-979.903802325096
31
4.5418142439807e-005
  0
LINE
 8
GROUP0
10
1478.75000697658
20
-990.129161428423
30
4.25515352555694e-005
11
1480.31768323116
21
-990.778514059435
31
4.31036348111702e-005
  0
LINE
 8
GROUP0
10
1483.68234031442
20
-875.778513812039
30
8.45086416561891e-005
11
1482.00001653753
21
-875.999996064857
31
8.35988375541496e-005
  0
LINE
 8
GROUP0
10
1483.68233081749
20
-990.778513812039
30
4.47701755631025e-005
11
1485.25000697658
21
-990.129160950491
31
4.5771045000681e-005
  0
LINE
 8
GROUP0
10
1477.40381282292
20
-989.09619048052
30
4.22416976090911e-005
11
1478.75000697658
21
-990.129161428423
31
4.25515352555694e-005
  0
LINE
 8
GROUP0
10
1485.2500164735
20
-875.12916095049
30
8.55095112770654e-005
11
1483.68234031442
21
-875.778513812039
31
8.45086416561891e-005
  0
LINE
 8
GROUP0
10
1480.31768230787
20
-978.221478317678
30
4.74427390594723e-005
11
1478.75000614878
21
-978.870831179226
31
4.64418696218938e-005
  0
LINE
 8
GROUP0
10
1487.62917144831
20
-981.249995650958
30
5.00176775665495e-005
11
1486.59620030244
21
-979.903801649198
31
4.99712170106636e-005
  0
LINE
 8
GROUP0
10
1480.31769272808
20
-875.778514059434
30
8.28421004558821e-005
11
1478.7500164735
21
-875.129161428422
31
8.22900008072225e-005
  0
LINE
 8
GROUP0
10
1478.7500164735
20
-875.129161428422
30
8.22900008072225e-005
11
1477.40382231984
21
-874.096190480518
31
8.19801634342809e-005
  0
LINE
 8
GROUP0
10
1482.00001653753
20
-875.999996064857
30
8.35988375541496e-005
11
1480.31769272808
21
-875.778514059434
31
8.28421004558821e-005
  0
LINE
 8
GROUP0
10
1475.7214885681
20
-982.81767273334
30
4.35779794958069e-005
11
1475.50000656268
21
-984.499996542791
31
4.28869477040017e-005
  0
LINE
 8
GROUP0
10
1475.50000656268
20
-984.499996542791
30
4.28869477040017e-005
11
1475.7214888155
21
-986.182320319672
31
4.24153198949229e-005
  0
LINE
 8
GROUP0
10
1477.40382231984
20
-874.096190480518
30
8.19801634342809e-005
11
1476.37085117397
21
-872.749996478758
31
8.19337030588729e-005
  0
LINE
 8
GROUP0
10
1487.62918142317
20
-872.749995650957
30
8.7510058843987e-005
11
1486.59621047526
21
-874.096189804621
31
8.65332388172879e-005
  0
LINE
 8
GROUP0
10
1488.27853405418
20
-871.182319396378
30
8.83734026643823e-005
11
1487.62918142317
21
-872.749995650957
31
8.7510058843987e-005
  0
LINE
 8
GROUP0
10
1475.72149831242
20
-871.18232031967
30
8.21537858047117e-005
11
1475.5000160596
21
-869.499996542789
31
8.26254137970883e-005
  0
LINE
 8
GROUP0
10
1488.27852430986
20
-982.817671810046
30
4.97975949116547e-005
11
1487.62917144831
21
-981.249995650958
31
5.00176775665495e-005
  0
LINE
 8
GROUP0
10
1476.37084119912
20
-981.24999647876
30
4.44413230476004e-005
11
1475.7214885681
21
-982.81767273334
31
4.35779794958069e-005
  0
LINE
 8
GROUP0
10
1376.34074042938
20
-1102.08818722611
30
6.89316038188226e-007
11
1375.99999850197
21
-1099.49999680014
31
1.41489696378061e-006
  0
LINE
 8
GROUP0
10
1389.24999233419
20
-1105.12916475042
30
6.03257231874266e-006
11
1387.68231541588
21
-1105.77851577902
31
5.03170297210809e-006
  0
LINE
 8
GROUP0
10
1488.27853380678
20
-867.817671810045
30
8.95360626255171e-005
11
1488.5000160596
21
-869.499995586926
31
8.90644348164382e-005
  0
LINE
 8
GROUP0
10
1476.37085069604
20
-866.249996478758
30
8.41797896814156e-005
11
1477.40382164394
21
-864.903802325094
31
8.51566098864776e-005
  0
LINE
 8
GROUP0
10
1475.5000160596
20
-869.499996542789
30
8.26254137970883e-005
11
1475.72149806503
21
-867.817672733337
31
8.33164459491442e-005
  0
LINE
 8
GROUP0
10
1482.00001558167
20
-862.999996064858
30
8.80910111524358e-005
11
1483.68233939112
21
-863.221478070281
31
8.88477481604644e-005
  0
LINE
 8
GROUP0
10
1477.40382164394
20
-864.903802325094
30
8.51566098864776e-005
11
1478.7500156457
21
-863.870831179225
31
8.61803372490422e-005
  0
LINE
 8
GROUP0
10
1483.68233939112
20
-863.221478070281
30
8.88477481604644e-005
11
1485.2500156457
21
-863.870830701293
31
8.93998477160651e-005
  0
LINE
 8
GROUP0
10
1487.62918094523
20
-866.249995650957
30
8.97561457379514e-005
11
1488.27853380678
21
-867.817671810045
31
8.95360626255171e-005
  0
LINE
 8
GROUP0
10
1376.00001462339
20
-869.499996800137
30
8.08918304161188e-005
11
1376.3407561702
21
-866.911806324058
31
8.19549576094314e-005
  0
LINE
 8
GROUP0
10
1480.31769180479
20
-863.221478317677
30
8.71812070475764e-005
11
1482.00001558167
21
-862.999996064858
31
8.80910111524358e-005
  0
LINE
 8
GROUP0
10
1486.59620979936
20
-864.903801649197
30
8.97096851792456e-005
11
1487.62918094523
21
-866.249995650957
31
8.97561457379514e-005
  0
LINE
 8
GROUP0
10
1375.99999850197
20
-1099.49999680014
30
1.41489696378061e-006
11
1376.00001462339
21
-869.499996800137
31
8.08918304161188e-005
  0
LINE
 8
GROUP0
10
1394.66026829359
20
-864.499995428088
30
9.18621872752767e-005
11
1395.65927269598
21
-866.911804903607
31
9.15235984074336e-005
  0
LINE
 8
GROUP0
10
1475.72149806503
20
-867.817672733337
30
8.33164459491442e-005
11
1476.37085069604
21
-866.249996478758
31
8.41797896814156e-005
  0
LINE
 8
GROUP0
10
1396.00001462339
20
-869.499995329579
30
9.07980169368827e-005
11
1395.99999850197
21
-1099.49999532958
31
1.13210839357392e-005
  0
LINE
 8
GROUP0
10
1378.92893121003
20
-1106.57106439665
30
4.22204507577462e-007
11
1377.33974483177
21
-1104.49999670163
31
3.50726535147672e-007
  0
LINE
 8
GROUP0
10
1390.99999913874
20
-1108.16024973506
30
5.85197013717731e-006
11
1388.58818966322
21
-1109.15925413745
31
4.31217124967631e-006
  0
LINE
 8
GROUP0
10
1478.7500156457
20
-863.870831179225
30
8.61803372490422e-005
11
1480.31769180479
21
-863.221478317677
31
8.71812070475764e-005
  0
LINE
 8
GROUP0
10
1380.99999913874
20
-1108.16025047034
30
8.98876743199439e-007
11
1378.92893121003
21
-1106.57106439665
31
4.22204507577462e-007
  0
LINE
 8
GROUP0
10
1395.65925695516
20
-1102.08818580566
30
1.02579570131434e-005
11
1394.66025290745
21
-1104.49999542809
31
8.9297357038165e-006
  0
LINE
 8
GROUP0
10
1388.58818966322
20
-1109.15925413745
30
4.31217124967631e-006
11
1385.99999923725
21
-1109.49999606486
31
2.91247215121748e-006
  0
LINE
 8
GROUP0
10
1394.66025290745
20
-1104.49999542809
30
8.9297357038165e-006
11
1393.07106683376
21
-1106.5710633568
31
7.42693618513979e-006
  0
LINE
 8
GROUP0
10
1395.99999850197
20
-1099.49999532958
30
1.13210839357392e-005
11
1395.65925695516
21
-1102.08818580566
31
1.02579570131434e-005
  0
LINE
 8
GROUP0
10
1385.99999923725
20
-1109.49999606486
30
2.91247215121748e-006
11
1383.41180876117
21
-1109.15925451805
31
1.74826077917745e-006
  0
LINE
 8
GROUP0
10
1383.41180876117
20
-1109.15925451805
30
1.74826077917745e-006
11
1380.99999913874
21
-1108.16025047034
31
8.98876743199439e-007
  0
LINE
 8
GROUP0
10
1387.68231541588
20
-1105.77851577902
30
5.03170297210809e-006
11
1385.99999138004
21
-1105.99999606485
31
4.12189949962616e-006
  0
LINE
 8
GROUP0
10
1393.07108191534
20
-862.428927733071
30
9.17907099345194e-005
11
1394.66026829359
21
-864.499995428088
31
9.18621872752767e-005
  0
LINE
 8
GROUP0
10
1393.07106683376
20
-1106.5710633568
30
7.42693618513979e-006
11
1390.99999913874
21
-1108.16024973506
31
5.85197013717731e-006
  0
LINE
 8
GROUP0
10
1381.00001398662
20
-860.839742394654
30
8.63609434927692e-005
11
1383.41182346214
21
-859.840737992271
31
8.79007428286449e-005
  0
LINE
 8
GROUP0
10
1395.65927269598
20
-866.911804903607
30
9.15235984074336e-005
11
1396.00001462339
21
-869.499995329579
31
9.07980169368827e-005
  0
LINE
 8
GROUP0
10
1377.33974483177
20
-1104.49999670163
30
3.50726535147672e-007
11
1376.34074042938
21
-1102.08818722611
31
6.89316038188226e-007
  0
LINE
 8
GROUP0
10
1381.40381282292
20
-989.09619048052
30
4.22416976090911e-005
11
1382.75000697658
21
-990.129161428423
31
4.25515352555694e-005
  0
LINE
 8
GROUP0
10
1384.31768158806
20
-1093.2214763507
30
7.70427693830844e-006
11
1386.0000056239
21
-1092.99999606487
31
8.61408041290534e-006
  0
LINE
 8
GROUP0
10
1382.7499923342
20
-1105.12915762849
30
2.81306429099071e-006
11
1381.4037993883
21
-1104.0961851066
31
2.50322800514624e-006
  0
LINE
 8
GROUP0
10
1380.37083693834
20
-1096.24998989709
30
4.70285939096482e-006
11
1381.40380946023
21
-1094.90379695119
31
5.67967977861961e-006
  0
LINE
 8
GROUP0
10
1379.7214885681
20
-982.81767273334
30
4.35779794958069e-005
11
1379.50000656268
21
-984.499996542791
31
4.28869477040017e-005
  0
LINE
 8
GROUP0
10
1378.9289462916
20
-862.428928772913
30
8.47859776252846e-005
11
1381.00001398662
21
-860.839742394654
31
8.63609434927692e-005
  0
LINE
 8
GROUP0
10
1376.3407561702
20
-866.911806324058
30
8.19549576094314e-005
11
1377.33976021791
21
-864.499996701628
31
8.32831781975518e-005
  0
LINE
 8
GROUP0
10
1385.99999138004
20
-1105.99999606485
30
4.12189949962616e-006
11
1384.31766782955
21
-1105.77851209244
31
3.36516303162115e-006
  0
LINE
 8
GROUP0
10
1391.6291600656
20
-1102.75000223263
30
8.03312042850779e-006
11
1390.59618754371
21
-1104.09619517853
31
7.05629986037515e-006
  0
LINE
 8
GROUP0
10
1377.33976021791
20
-864.499996701628
30
8.32831781975518e-005
11
1378.9289462916
21
-862.428928772913
31
8.47859776252846e-005
  0
LINE
 8
GROUP0
10
1389.25000466974
20
-1093.87083450123
30
9.92291534800405e-006
11
1390.59619761564
21
-1094.90380702312
31
1.02327517304324e-005
  0
LINE
 8
GROUP0
10
1379.49999850198
20
-1099.49998894293
30
3.14848179280291e-006
11
1379.72148247439
21
-1097.81766539244
31
3.83951484724809e-006
  0
LINE
 8
GROUP0
10
1392.27851452955
20
-1101.18232673728
30
8.89646469939276e-006
11
1391.6291600656
21
-1102.75000223263
31
8.03312042850779e-006
  0
LINE
 8
GROUP0
10
1380.37082981641
20
-1102.74998989708
30
2.45676916168502e-006
11
1379.72147878781
21
-1101.18231297877
31
2.67685317368871e-006
  0
LINE
 8
GROUP0
10
1387.68232917439
20
-1093.22148003728
30
9.37081669549755e-006
11
1389.25000466974
21
-1093.87083450123
31
9.92291534800405e-006
  0
LINE
 8
GROUP0
10
1381.40380946023
20
-1094.90379695119
30
5.67967977861961e-006
11
1382.75000466975
21
-1093.8708273793
31
6.70340750143494e-006
  0
LINE
 8
GROUP0
10
1388.58820436419
20
-859.840737611662
30
9.04646525800523e-005
11
1391.00001398662
21
-860.839741659374
31
9.13140368867471e-005
  0
LINE
 8
GROUP0
10
1382.75000466975
20
-1093.8708273793
30
6.70340750143494e-006
11
1384.31768158806
21
-1093.2214763507
31
7.70427693830844e-006
  0
LINE
 8
GROUP0
10
1391.62916718753
20
-1096.25000223264
30
1.02792108382654e-005
11
1392.27851821613
21
-1097.81767915095
31
1.00591267395478e-005
  0
LINE
 8
GROUP0
10
1386.00001388811
20
-859.499996064858
30
8.93004412954312e-005
11
1388.58820436419
21
-859.840737611662
31
9.04646525800523e-005
  0
LINE
 8
GROUP0
10
1379.72148247439
20
-1097.81766539244
30
3.83951484724809e-006
11
1380.37083693834
21
-1096.24998989709
31
4.70285939096482e-006
  0
LINE
 8
GROUP0
10
1391.00001398662
20
-860.839741659374
30
9.13140368867471e-005
11
1393.07108191534
21
-862.428927733071
31
9.17907099345194e-005
  0
LINE
 8
GROUP0
10
1392.49999850196
20
-1099.50000318679
30
9.5874977566579e-006
11
1392.27851452955
21
-1101.18232673728
31
8.89646469939276e-006
  0
LINE
 8
GROUP0
10
1390.59618754371
20
-1104.09619517853
30
7.05629986037515e-006
11
1389.24999233419
21
-1105.12916475042
31
6.03257231874266e-006
  0
LINE
 8
GROUP0
10
1381.4037993883
20
-1104.0961851066
30
2.50322800514624e-006
11
1380.37082981641
21
-1102.74998989708
31
2.45676916168502e-006
  0
LINE
 8
GROUP0
10
1384.31766782955
20
-1105.77851209244
30
3.36516303162115e-006
11
1382.7499923342
21
-1105.12915762849
31
2.81306429099071e-006
  0
LINE
 8
GROUP0
10
1390.59619761564
20
-1094.90380702312
30
1.02327517304324e-005
11
1391.62916718753
21
-1096.25000223264
31
1.02792108382654e-005
  0
LINE
 8
GROUP0
10
1386.0000056239
20
-1092.99999606487
30
8.61408041290534e-006
11
1387.68232917439
21
-1093.22148003728
31
9.37081669549755e-006
  0
LINE
 8
GROUP0
10
1379.72147878781
20
-1101.18231297877
30
2.67685317368871e-006
11
1379.49999850198
21
-1099.49998894293
31
3.14848179280291e-006
  0
LINE
 8
GROUP0
10
1383.41182346214
20
-859.840737992271
30
8.79007428286449e-005
11
1386.00001388811
21
-859.499996064858
31
8.93004412954312e-005
  0
LINE
 8
GROUP0
10
1382.75000697658
20
-990.129161428423
30
4.25515352555694e-005
11
1384.31768323116
21
-990.778514059435
31
4.31036348111702e-005
  0
LINE
 8
GROUP0
10
1390.59620097834
20
-989.096189804622
30
4.67947720925288e-005
11
1391.62917192624
21
-987.749995650957
31
4.77715918492161e-005
  0
LINE
 8
GROUP0
10
1392.50000656268
20
-984.499995586927
30
4.93259671018709e-005
11
1392.27852430986
21
-982.817671810046
31
4.97975949116547e-005
  0
LINE
 8
GROUP0
10
1382.7500156457
20
-863.870831179225
30
8.61803372490422e-005
11
1384.31769180479
21
-863.221478317677
31
8.71812070475764e-005
  0
LINE
 8
GROUP0
10
1390.59620979936
20
-864.903801649197
30
8.97096851792456e-005
11
1391.62918094523
21
-866.249995650957
31
8.97561457379514e-005
  0
LINE
 8
GROUP0
10
1379.72149806503
20
-867.817672733337
30
8.33164459491442e-005
11
1380.37085069604
21
-866.249996478758
31
8.41797896814156e-005
  0
LINE
 8
GROUP0
10
1381.40382231984
20
-874.096190480518
30
8.19801634342809e-005
11
1380.37085117397
21
-872.749996478758
31
8.19337030588729e-005
  0
LINE
 8
GROUP0
10
1391.62917192624
20
-987.749995650957
30
4.77715918492161e-005
11
1392.27852455726
21
-986.182319396378
31
4.86349353079507e-005
  0
LINE
 8
GROUP0
10
1380.37084167705
20
-987.74999647876
30
4.21952372393231e-005
11
1381.40381282292
21
-989.09619048052
31
4.22416976090911e-005
  0
LINE
 8
GROUP0
10
1392.27852455726
20
-986.182319396378
30
4.86349353079507e-005
11
1392.50000656268
21
-984.499995586927
31
4.93259671018709e-005
  0
LINE
 8
GROUP0
10
1379.50000656268
20
-984.499996542791
30
4.28869477040017e-005
11
1379.7214888155
21
-986.182320319672
31
4.24153198949229e-005
  0
LINE
 8
GROUP0
10
1387.68233081749
20
-990.778513812039
30
4.47701755631025e-005
11
1389.25000697658
21
-990.129160950491
31
4.5771045000681e-005
  0
LINE
 8
GROUP0
10
1390.59621047526
20
-874.096189804621
30
8.65332388172879e-005
11
1389.2500164735
21
-875.12916095049
31
8.55095112770654e-005
  0
LINE
 8
GROUP0
10
1379.7214888155
20
-986.182320319672
30
4.24153198949229e-005
11
1380.37084167705
21
-987.74999647876
31
4.21952372393231e-005
  0
LINE
 8
GROUP0
10
1384.31769272808
20
-875.778514059434
30
8.28421004558821e-005
11
1382.7500164735
21
-875.129161428422
31
8.22900008072225e-005
  0
LINE
 8
GROUP0
10
1391.62918142317
20
-872.749995650957
30
8.7510058843987e-005
11
1390.59621047526
21
-874.096189804621
31
8.65332388172879e-005
  0
LINE
 8
GROUP0
10
1389.25000697658
20
-990.129160950491
30
4.5771045000681e-005
11
1390.59620097834
21
-989.096189804622
31
4.67947720925288e-005
  0
LINE
 8
GROUP0
10
1384.31768323116
20
-990.778514059435
30
4.31036348111702e-005
11
1386.00000704061
21
-990.999996064858
31
4.38603719122577e-005
  0
LINE
 8
GROUP0
10
1389.2500164735
20
-875.12916095049
30
8.55095112770654e-005
11
1387.68234031442
21
-875.778513812039
31
8.45086416561891e-005
  0
LINE
 8
GROUP0
10
1384.31768230787
20
-978.221478317678
30
4.74427390594723e-005
11
1382.75000614878
21
-978.870831179226
31
4.64418696218938e-005
  0
LINE
 8
GROUP0
10
1391.62917144831
20
-981.249995650958
30
5.00176775665495e-005
11
1390.59620030244
21
-979.903801649198
31
4.99712170106636e-005
  0
LINE
 8
GROUP0
10
1386.00001653753
20
-875.999996064857
30
8.35988375541496e-005
11
1384.31769272808
21
-875.778514059434
31
8.28421004558821e-005
  0
LINE
 8
GROUP0
10
1387.68234031442
20
-875.778513812039
30
8.45086416561891e-005
11
1386.00001653753
21
-875.999996064857
31
8.35988375541496e-005
  0
LINE
 8
GROUP0
10
1386.00000704061
20
-990.999996064858
30
4.38603719122577e-005
11
1387.68233081749
21
-990.778513812039
31
4.47701755631025e-005
  0
LINE
 8
GROUP0
10
1392.27851821613
20
-1097.81767915095
30
1.00591267395478e-005
11
1392.49999850196
21
-1099.50000318679
31
9.5874977566579e-006
  0
LINE
 8
GROUP0
10
1392.27852430986
20
-982.817671810046
30
4.97975949116547e-005
11
1391.62917144831
21
-981.249995650958
31
5.00176775665495e-005
  0
LINE
 8
GROUP0
10
1386.00000608475
20
-977.999996064859
30
4.83525430740928e-005
11
1384.31768230787
21
-978.221478317678
31
4.74427390594723e-005
  0
LINE
 8
GROUP0
10
1380.37084119912
20
-981.24999647876
30
4.44413230476004e-005
11
1379.7214885681
21
-982.81767273334
31
4.35779794958069e-005
  0
LINE
 8
GROUP0
10
1387.6823298942
20
-978.221478070282
30
4.91092799918824e-005
11
1386.00000608475
21
-977.999996064859
31
4.83525430740928e-005
  0
LINE
 8
GROUP0
10
1389.25000614878
20
-978.870830701294
30
4.96613796377221e-005
11
1387.6823298942
21
-978.221478070282
31
4.91092799918824e-005
  0
LINE
 8
GROUP0
10
1381.40381214702
20
-979.903802325096
30
4.5418142439807e-005
11
1380.37084119912
21
-981.24999647876
31
4.44413230476004e-005
  0
LINE
 8
GROUP0
10
1382.75000614878
20
-978.870831179226
30
4.64418696218938e-005
11
1381.40381214702
21
-979.903802325096
31
4.5418142439807e-005
  0
LINE
 8
GROUP0
10
1392.27853405418
20
-871.182319396378
30
8.83734026643823e-005
11
1391.62918142317
21
-872.749995650957
31
8.7510058843987e-005
  0
LINE
 8
GROUP0
10
1390.59620030244
20
-979.903801649198
30
4.99712170106636e-005
11
1389.25000614878
21
-978.870830701294
31
4.96613796377221e-005
  0
LINE
 8
GROUP0
10
1387.68233939112
20
-863.221478070281
30
8.88477481604644e-005
11
1389.2500156457
21
-863.870830701293
31
8.93998477160651e-005
  0
LINE
 8
GROUP0
10
1410.00001388811
20
-859.499996064858
30
8.93004412954312e-005
11
1412.58820436419
21
-859.840737611662
31
9.04646525800523e-005
  0
LINE
 8
GROUP0
10
1407.41182346214
20
-859.840737992271
30
8.79007428286449e-005
11
1410.00001388811
21
-859.499996064858
31
8.93004412954312e-005
  0
LINE
 8
GROUP0
10
1412.58818966322
20
-1109.15925413745
30
4.31217124967631e-006
11
1409.99999923725
21
-1109.49999606486
31
2.91247215121748e-006
  0
LINE
 8
GROUP0
10
1407.41180876117
20
-1109.15925451805
30
1.74826077917745e-006
11
1404.99999913874
21
-1108.16025047034
31
8.98876743199439e-007
  0
LINE
 8
GROUP0
10
1391.62918094523
20
-866.249995650957
30
8.97561457379514e-005
11
1392.27853380678
21
-867.817671810045
31
8.95360626255171e-005
  0
LINE
 8
GROUP0
10
1404.99999913874
20
-1108.16025047034
30
8.98876743199439e-007
11
1402.92893121003
21
-1106.57106439665
31
4.22204507577462e-007
  0
LINE
 8
GROUP0
10
1414.99999913874
20
-1108.16024973506
30
5.85197013717731e-006
11
1412.58818966322
21
-1109.15925413745
31
4.31217124967631e-006
  0
LINE
 8
GROUP0
10
1380.37085069604
20
-866.249996478758
30
8.41797896814156e-005
11
1381.40382164394
21
-864.903802325094
31
8.51566098864776e-005
  0
LINE
 8
GROUP0
10
1380.37085117397
20
-872.749996478758
30
8.19337030588729e-005
11
1379.72149831242
21
-871.18232031967
31
8.21537858047117e-005
  0
LINE
 8
GROUP0
10
1381.40382164394
20
-864.903802325094
30
8.51566098864776e-005
11
1382.7500156457
21
-863.870831179225
31
8.61803372490422e-005
  0
LINE
 8
GROUP0
10
1392.5000160596
20
-869.499995586926
30
8.90644348164382e-005
11
1392.27853405418
21
-871.182319396378
31
8.83734026643823e-005
  0
LINE
 8
GROUP0
10
1419.65925695516
20
-1102.08818580566
30
1.02579570131434e-005
11
1418.66025290745
21
-1104.49999542809
31
8.9297357038165e-006
  0
LINE
 8
GROUP0
10
1379.5000160596
20
-869.499996542789
30
8.26254137970883e-005
11
1379.72149806503
21
-867.817672733337
31
8.33164459491442e-005
  0
LINE
 8
GROUP0
10
1386.00001558167
20
-862.999996064858
30
8.80910111524358e-005
11
1387.68233939112
21
-863.221478070281
31
8.88477481604644e-005
  0
LINE
 8
GROUP0
10
1382.7500164735
20
-875.129161428422
30
8.22900008072225e-005
11
1381.40382231984
21
-874.096190480518
31
8.19801634342809e-005
  0
LINE
 8
GROUP0
10
1419.99999850197
20
-1099.49999532958
30
1.13210839357392e-005
11
1419.65925695516
21
-1102.08818580566
31
1.02579570131434e-005
  0
LINE
 8
GROUP0
10
1389.2500156457
20
-863.870830701293
30
8.93998477160651e-005
11
1390.59620979936
21
-864.903801649197
31
8.97096851792456e-005
  0
LINE
 8
GROUP0
10
1417.07106683376
20
-1106.5710633568
30
7.42693618513979e-006
11
1414.99999913874
21
-1108.16024973506
31
5.85197013717731e-006
  0
LINE
 8
GROUP0
10
1392.27853380678
20
-867.817671810045
30
8.95360626255171e-005
11
1392.5000160596
21
-869.499995586926
31
8.90644348164382e-005
  0
LINE
 8
GROUP0
10
1402.92893121003
20
-1106.57106439665
30
4.22204507577462e-007
11
1401.33974483177
21
-1104.49999670163
31
3.50726535147672e-007
  0
LINE
 8
GROUP0
10
1420.00001462339
20
-869.499995329579
30
9.07980169368827e-005
11
1419.99999850197
21
-1099.49999532958
31
1.13210839357392e-005
  0
LINE
 8
GROUP0
10
1419.65927269598
20
-866.911804903607
30
9.15235984074336e-005
11
1420.00001462339
21
-869.499995329579
31
9.07980169368827e-005
  0
LINE
 8
GROUP0
10
1415.00001398662
20
-860.839741659374
30
9.13140368867471e-005
11
1417.07108191534
21
-862.428927733071
31
9.17907099345194e-005
  0
LINE
 8
GROUP0
10
1412.58820436419
20
-859.840737611662
30
9.04646525800523e-005
11
1415.00001398662
21
-860.839741659374
31
9.13140368867471e-005
  0
LINE
 8
GROUP0
10
1418.66026829359
20
-864.499995428088
30
9.18621872752767e-005
11
1419.65927269598
21
-866.911804903607
31
9.15235984074336e-005
  0
LINE
 8
GROUP0
10
1405.00001398662
20
-860.839742394654
30
8.63609434927692e-005
11
1407.41182346214
21
-859.840737992271
31
8.79007428286449e-005
  0
LINE
 8
GROUP0
10
1384.31769180479
20
-863.221478317677
30
8.71812070475764e-005
11
1386.00001558167
21
-862.999996064858
31
8.80910111524358e-005
  0
LINE
 8
GROUP0
10
1379.72149831242
20
-871.18232031967
30
8.21537858047117e-005
11
1379.5000160596
21
-869.499996542789
31
8.26254137970883e-005
  0
LINE
 8
GROUP0
10
1418.66025290745
20
-1104.49999542809
30
8.9297357038165e-006
11
1417.07106683376
21
-1106.5710633568
31
7.42693618513979e-006
  0
LINE
 8
GROUP0
10
1409.99999923725
20
-1109.49999606486
30
2.91247215121748e-006
11
1407.41180876117
21
-1109.15925451805
31
1.74826077917745e-006
  0
LINE
 8
GROUP0
10
1417.07108191534
20
-862.428927733071
30
9.17907099345194e-005
11
1418.66026829359
21
-864.499995428088
31
9.18621872752767e-005
  0
LINE
 8
GROUP0
10
1405.4037993883
20
-1104.0961851066
30
2.50322800514624e-006
11
1404.37082981641
21
-1102.74998989708
31
2.45676916168502e-006
  0
LINE
 8
GROUP0
10
1403.72148247439
20
-1097.81766539244
30
3.83951484724809e-006
11
1404.37083693834
21
-1096.24998989709
31
4.70285939096482e-006
  0
LINE
 8
GROUP0
10
1410.00000704061
20
-990.999996064858
30
4.38603719122577e-005
11
1411.68233081749
21
-990.778513812039
31
4.47701755631025e-005
  0
LINE
 8
GROUP0
10
1413.24999233419
20
-1105.12916475042
30
6.03257231874266e-006
11
1411.68231541588
21
-1105.77851577902
31
5.03170297210809e-006
  0
LINE
 8
GROUP0
10
1411.68232917439
20
-1093.22148003728
30
9.37081669549755e-006
11
1413.25000466974
21
-1093.87083450123
31
9.92291534800405e-006
  0
LINE
 8
GROUP0
10
1401.33976021791
20
-864.499996701628
30
8.32831781975518e-005
11
1402.9289462916
21
-862.428928772913
31
8.47859776252846e-005
  0
LINE
 8
GROUP0
10
1411.68231541588
20
-1105.77851577902
30
5.03170297210809e-006
11
1409.99999138004
21
-1105.99999606485
31
4.12189949962616e-006
  0
LINE
 8
GROUP0
10
1406.75000466975
20
-1093.8708273793
30
6.70340750143494e-006
11
1408.31768158806
21
-1093.2214763507
31
7.70427693830844e-006
  0
LINE
 8
GROUP0
10
1413.25000466974
20
-1093.87083450123
30
9.92291534800405e-006
11
1414.59619761564
21
-1094.90380702312
31
1.02327517304324e-005
  0
LINE
 8
GROUP0
10
1406.7499923342
20
-1105.12915762849
30
2.81306429099071e-006
11
1405.4037993883
21
-1104.0961851066
31
2.50322800514624e-006
  0
LINE
 8
GROUP0
10
1403.72147878781
20
-1101.18231297877
30
2.67685317368871e-006
11
1403.49999850198
21
-1099.49998894293
31
3.14848179280291e-006
  0
LINE
 8
GROUP0
10
1403.49999850198
20
-1099.49998894293
30
3.14848179280291e-006
11
1403.72148247439
21
-1097.81766539244
31
3.83951484724809e-006
  0
LINE
 8
GROUP0
10
1415.6291600656
20
-1102.75000223263
30
8.03312042850779e-006
11
1414.59618754371
21
-1104.09619517853
31
7.05629986037515e-006
  0
LINE
 8
GROUP0
10
1414.59619761564
20
-1094.90380702312
30
1.02327517304324e-005
11
1415.62916718753
21
-1096.25000223264
31
1.02792108382654e-005
  0
LINE
 8
GROUP0
10
1402.9289462916
20
-862.428928772913
30
8.47859776252846e-005
11
1405.00001398662
21
-860.839742394654
31
8.63609434927692e-005
  0
LINE
 8
GROUP0
10
1416.49999850196
20
-1099.50000318679
30
9.5874977566579e-006
11
1416.27851452955
21
-1101.18232673728
31
8.89646469939276e-006
  0
LINE
 8
GROUP0
10
1408.31766782955
20
-1105.77851209244
30
3.36516303162115e-006
11
1406.7499923342
21
-1105.12915762849
31
2.81306429099071e-006
  0
LINE
 8
GROUP0
10
1410.0000056239
20
-1092.99999606487
30
8.61408041290534e-006
11
1411.68232917439
21
-1093.22148003728
31
9.37081669549755e-006
  0
LINE
 8
GROUP0
10
1404.37083693834
20
-1096.24998989709
30
4.70285939096482e-006
11
1405.40380946023
21
-1094.90379695119
31
5.67967977861961e-006
  0
LINE
 8
GROUP0
10
1416.27851452955
20
-1101.18232673728
30
8.89646469939276e-006
11
1415.6291600656
21
-1102.75000223263
31
8.03312042850779e-006
  0
LINE
 8
GROUP0
10
1409.99999138004
20
-1105.99999606485
30
4.12189949962616e-006
11
1408.31766782955
21
-1105.77851209244
31
3.36516303162115e-006
  0
LINE
 8
GROUP0
10
1405.40380946023
20
-1094.90379695119
30
5.67967977861961e-006
11
1406.75000466975
21
-1093.8708273793
31
6.70340750143494e-006
  0
LINE
 8
GROUP0
10
1415.62916718753
20
-1096.25000223264
30
1.02792108382654e-005
11
1416.27851821613
21
-1097.81767915095
31
1.00591267395478e-005
  0
LINE
 8
GROUP0
10
1415.62917192624
20
-987.749995650957
30
4.77715918492161e-005
11
1416.27852455726
21
-986.182319396378
31
4.86349353079507e-005
  0
LINE
 8
GROUP0
10
1413.25000697658
20
-990.129160950491
30
4.5771045000681e-005
11
1414.59620097834
21
-989.096189804622
31
4.67947720925288e-005
  0
LINE
 8
GROUP0
10
1411.68233081749
20
-990.778513812039
30
4.47701755631025e-005
11
1413.25000697658
21
-990.129160950491
31
4.5771045000681e-005
  0
LINE
 8
GROUP0
10
1408.31768158806
20
-1093.2214763507
30
7.70427693830844e-006
11
1410.0000056239
21
-1092.99999606487
31
8.61408041290534e-006
  0
LINE
 8
GROUP0
10
1400.3407561702
20
-866.911806324058
30
8.19549576094314e-005
11
1401.33976021791
21
-864.499996701628
31
8.32831781975518e-005
  0
LINE
 8
GROUP0
10
1414.59620097834
20
-989.096189804622
30
4.67947720925288e-005
11
1415.62917192624
21
-987.749995650957
31
4.77715918492161e-005
  0
LINE
 8
GROUP0
10
1416.27851821613
20
-1097.81767915095
30
1.00591267395478e-005
11
1416.49999850196
21
-1099.50000318679
31
9.5874977566579e-006
  0
LINE
 8
GROUP0
10
1414.59618754371
20
-1104.09619517853
30
7.05629986037515e-006
11
1413.24999233419
21
-1105.12916475042
31
6.03257231874266e-006
  0
LINE
 8
GROUP0
10
1404.37082981641
20
-1102.74998989708
30
2.45676916168502e-006
11
1403.72147878781
21
-1101.18231297877
31
2.67685317368871e-006
  0
LINE
 8
GROUP0
10
1405.40382231984
20
-874.096190480518
30
8.19801634342809e-005
11
1404.37085117397
21
-872.749996478758
31
8.19337030588729e-005
  0
LINE
 8
GROUP0
10
1404.37085069604
20
-866.249996478758
30
8.41797896814156e-005
11
1405.40382164394
21
-864.903802325094
31
8.51566098864776e-005
  0
LINE
 8
GROUP0
10
1405.40382164394
20
-864.903802325094
30
8.51566098864776e-005
11
1406.7500156457
21
-863.870831179225
31
8.61803372490422e-005
  0
LINE
 8
GROUP0
10
1403.7214885681
20
-982.81767273334
30
4.35779794958069e-005
11
1403.50000656268
21
-984.499996542791
31
4.28869477040017e-005
  0
LINE
 8
GROUP0
10
1416.27852455726
20
-986.182319396378
30
4.86349353079507e-005
11
1416.50000656268
21
-984.499995586927
31
4.93259671018709e-005
  0
LINE
 8
GROUP0
10
1404.37085117397
20
-872.749996478758
30
8.19337030588729e-005
11
1403.72149831242
21
-871.18232031967
31
8.21537858047117e-005
  0
LINE
 8
GROUP0
10
1408.31769272808
20
-875.778514059434
30
8.28421004558821e-005
11
1406.7500164735
21
-875.129161428422
31
8.22900008072225e-005
  0
LINE
 8
GROUP0
10
1405.40381282292
20
-989.09619048052
30
4.22416976090911e-005
11
1406.75000697658
21
-990.129161428423
31
4.25515352555694e-005
  0
LINE
 8
GROUP0
10
1408.31768323116
20
-990.778514059435
30
4.31036348111702e-005
11
1410.00000704061
21
-990.999996064858
31
4.38603719122577e-005
  0
LINE
 8
GROUP0
10
1404.37084167705
20
-987.74999647876
30
4.21952372393231e-005
11
1405.40381282292
21
-989.09619048052
31
4.22416976090911e-005
  0
LINE
 8
GROUP0
10
1406.75000614878
20
-978.870831179226
30
4.64418696218938e-005
11
1405.40381214702
21
-979.903802325096
31
4.5418142439807e-005
  0
LINE
 8
GROUP0
10
1403.7214888155
20
-986.182320319672
30
4.24153198949229e-005
11
1404.37084167705
21
-987.74999647876
31
4.21952372393231e-005
  0
LINE
 8
GROUP0
10
1405.40381214702
20
-979.903802325096
30
4.5418142439807e-005
11
1404.37084119912
21
-981.24999647876
31
4.44413230476004e-005
  0
LINE
 8
GROUP0
10
1406.75000697658
20
-990.129161428423
30
4.25515352555694e-005
11
1408.31768323116
21
-990.778514059435
31
4.31036348111702e-005
  0
LINE
 8
GROUP0
10
1416.27852430986
20
-982.817671810046
30
4.97975949116547e-005
11
1415.62917144831
21
-981.249995650958
31
5.00176775665495e-005
  0
LINE
 8
GROUP0
10
1413.2500164735
20
-875.12916095049
30
8.55095112770654e-005
11
1411.68234031442
21
-875.778513812039
31
8.45086416561891e-005
  0
LINE
 8
GROUP0
10
1414.59620030244
20
-979.903801649198
30
4.99712170106636e-005
11
1413.25000614878
21
-978.870830701294
31
4.96613796377221e-005
  0
LINE
 8
GROUP0
10
1415.62917144831
20
-981.249995650958
30
5.00176775665495e-005
11
1414.59620030244
21
-979.903801649198
31
4.99712170106636e-005
  0
LINE
 8
GROUP0
10
1416.50000656268
20
-984.499995586927
30
4.93259671018709e-005
11
1416.27852430986
21
-982.817671810046
31
4.97975949116547e-005
  0
LINE
 8
GROUP0
10
1410.00000608475
20
-977.999996064859
30
4.83525430740928e-005
11
1408.31768230787
21
-978.221478317678
31
4.74427390594723e-005
  0
LINE
 8
GROUP0
10
1403.50000656268
20
-984.499996542791
30
4.28869477040017e-005
11
1403.7214888155
21
-986.182320319672
31
4.24153198949229e-005
  0
LINE
 8
GROUP0
10
1416.27853405418
20
-871.182319396378
30
8.83734026643823e-005
11
1415.62918142317
21
-872.749995650957
31
8.7510058843987e-005
  0
LINE
 8
GROUP0
10
1415.62918142317
20
-872.749995650957
30
8.7510058843987e-005
11
1414.59621047526
21
-874.096189804621
31
8.65332388172879e-005
  0
LINE
 8
GROUP0
10
1403.72149831242
20
-871.18232031967
30
8.21537858047117e-005
11
1403.5000160596
21
-869.499996542789
31
8.26254137970883e-005
  0
LINE
 8
GROUP0
10
1413.25000614878
20
-978.870830701294
30
4.96613796377221e-005
11
1411.6823298942
21
-978.221478070282
31
4.91092799918824e-005
  0
LINE
 8
GROUP0
10
1414.59621047526
20
-874.096189804621
30
8.65332388172879e-005
11
1413.2500164735
21
-875.12916095049
31
8.55095112770654e-005
  0
LINE
 8
GROUP0
10
1410.00001653753
20
-875.999996064857
30
8.35988375541496e-005
11
1408.31769272808
21
-875.778514059434
31
8.28421004558821e-005
  0
LINE
 8
GROUP0
10
1406.7500164735
20
-875.129161428422
30
8.22900008072225e-005
11
1405.40382231984
21
-874.096190480518
31
8.19801634342809e-005
  0
LINE
 8
GROUP0
10
1404.37084119912
20
-981.24999647876
30
4.44413230476004e-005
11
1403.7214885681
21
-982.81767273334
31
4.35779794958069e-005
  0
LINE
 8
GROUP0
10
1411.68234031442
20
-875.778513812039
30
8.45086416561891e-005
11
1410.00001653753
21
-875.999996064857
31
8.35988375541496e-005
  0
LINE
 8
GROUP0
10
1408.31768230787
20
-978.221478317678
30
4.74427390594723e-005
11
1406.75000614878
21
-978.870831179226
31
4.64418696218938e-005
  0
LINE
 8
GROUP0
10
1411.6823298942
20
-978.221478070282
30
4.91092799918824e-005
11
1410.00000608475
21
-977.999996064859
31
4.83525430740928e-005
  0
LINE
 8
GROUP0
10
1467.65925695516
20
-1102.08818580566
30
1.02579570131434e-005
11
1466.66025290745
21
-1104.49999542809
31
8.9297357038165e-006
  0
LINE
 8
GROUP0
10
1448.34074042938
20
-1102.08818722611
30
6.89316038188226e-007
11
1447.99999850197
21
-1099.49999680014
31
1.41489696378061e-006
  0
LINE
 8
GROUP0
10
1466.66026829359
20
-864.499995428088
30
9.18621872752767e-005
11
1467.65927269598
21
-866.911804903607
31
9.15235984074336e-005
  0
LINE
 8
GROUP0
10
1415.62918094523
20
-866.249995650957
30
8.97561457379514e-005
11
1416.27853380678
21
-867.817671810045
31
8.95360626255171e-005
  0
LINE
 8
GROUP0
10
1460.58818966322
20
-1109.15925413745
30
4.31217124967631e-006
11
1457.99999923725
21
-1109.49999606486
31
2.91247215121748e-006
  0
LINE
 8
GROUP0
10
1448.00001462339
20
-869.499996800137
30
8.08918304161188e-005
11
1448.3407561702
21
-866.911806324058
31
8.19549576094314e-005
  0
LINE
 8
GROUP0
10
1403.72149806503
20
-867.817672733337
30
8.33164459491442e-005
11
1404.37085069604
21
-866.249996478758
31
8.41797896814156e-005
  0
LINE
 8
GROUP0
10
1408.31769180479
20
-863.221478317677
30
8.71812070475764e-005
11
1410.00001558167
21
-862.999996064858
31
8.80910111524358e-005
  0
LINE
 8
GROUP0
10
1447.99999850197
20
-1099.49999680014
30
1.41489696378061e-006
11
1448.00001462339
21
-869.499996800137
31
8.08918304161188e-005
  0
LINE
 8
GROUP0
10
1414.59620979936
20
-864.903801649197
30
8.97096851792456e-005
11
1415.62918094523
21
-866.249995650957
31
8.97561457379514e-005
  0
LINE
 8
GROUP0
10
1450.92893121003
20
-1106.57106439665
30
4.22204507577462e-007
11
1449.33974483177
21
-1104.49999670163
31
3.50726535147672e-007
  0
LINE
 8
GROUP0
10
1403.5000160596
20
-869.499996542789
30
8.26254137970883e-005
11
1403.72149806503
21
-867.817672733337
31
8.33164459491442e-005
  0
LINE
 8
GROUP0
10
1406.7500156457
20
-863.870831179225
30
8.61803372490422e-005
11
1408.31769180479
21
-863.221478317677
31
8.71812070475764e-005
  0
LINE
 8
GROUP0
10
1455.41180876117
20
-1109.15925451805
30
1.74826077917745e-006
11
1452.99999913874
21
-1108.16025047034
31
8.98876743199439e-007
  0
LINE
 8
GROUP0
10
1468.00001462339
20
-869.499995329579
30
9.07980169368827e-005
11
1467.99999850197
21
-1099.49999532958
31
1.13210839357392e-005
  0
LINE
 8
GROUP0
10
1467.65927269598
20
-866.911804903607
30
9.15235984074336e-005
11
1468.00001462339
21
-869.499995329579
31
9.07980169368827e-005
  0
LINE
 8
GROUP0
10
1452.99999913874
20
-1108.16025047034
30
8.98876743199439e-007
11
1450.92893121003
21
-1106.57106439665
31
4.22204507577462e-007
  0
LINE
 8
GROUP0
10
1467.99999850197
20
-1099.49999532958
30
1.13210839357392e-005
11
1467.65925695516
21
-1102.08818580566
31
1.02579570131434e-005
  0
LINE
 8
GROUP0
10
1465.07108191534
20
-862.428927733071
30
9.17907099345194e-005
11
1466.66026829359
21
-864.499995428088
31
9.18621872752767e-005
  0
LINE
 8
GROUP0
10
1416.5000160596
20
-869.499995586926
30
8.90644348164382e-005
11
1416.27853405418
21
-871.182319396378
31
8.83734026643823e-005
  0
LINE
 8
GROUP0
10
1465.07106683376
20
-1106.5710633568
30
7.42693618513979e-006
11
1462.99999913874
21
-1108.16024973506
31
5.85197013717731e-006
  0
LINE
 8
GROUP0
10
1416.27853380678
20
-867.817671810045
30
8.95360626255171e-005
11
1416.5000160596
21
-869.499995586926
31
8.90644348164382e-005
  0
LINE
 8
GROUP0
10
1411.68233939112
20
-863.221478070281
30
8.88477481604644e-005
11
1413.2500156457
21
-863.870830701293
31
8.93998477160651e-005
  0
LINE
 8
GROUP0
10
1466.66025290745
20
-1104.49999542809
30
8.9297357038165e-006
11
1465.07106683376
21
-1106.5710633568
31
7.42693618513979e-006
  0
LINE
 8
GROUP0
10
1459.68231541588
20
-1105.77851577902
30
5.03170297210809e-006
11
1457.99999138004
21
-1105.99999606485
31
4.12189949962616e-006
  0
LINE
 8
GROUP0
10
1457.99999138004
20
-1105.99999606485
30
4.12189949962616e-006
11
1456.31766782955
21
-1105.77851209244
31
3.36516303162115e-006
  0
LINE
 8
GROUP0
10
1457.99999923725
20
-1109.49999606486
30
2.91247215121748e-006
11
1455.41180876117
21
-1109.15925451805
31
1.74826077917745e-006
  0
LINE
 8
GROUP0
10
1449.33974483177
20
-1104.49999670163
30
3.50726535147672e-007
11
1448.34074042938
21
-1102.08818722611
31
6.89316038188226e-007
  0
LINE
 8
GROUP0
10
1413.2500156457
20
-863.870830701293
30
8.93998477160651e-005
11
1414.59620979936
21
-864.903801649197
31
8.97096851792456e-005
  0
LINE
 8
GROUP0
10
1410.00001558167
20
-862.999996064858
30
8.80910111524358e-005
11
1411.68233939112
21
-863.221478070281
31
8.88477481604644e-005
  0
LINE
 8
GROUP0
10
1462.99999913874
20
-1108.16024973506
30
5.85197013717731e-006
11
1460.58818966322
21
-1109.15925413745
31
4.31217124967631e-006
  0
LINE
 8
GROUP0
10
1463.00001398662
20
-860.839741659374
30
9.13140368867471e-005
11
1465.07108191534
21
-862.428927733071
31
9.17907099345194e-005
  0
LINE
 8
GROUP0
10
1461.25000466974
20
-1093.87083450123
30
9.92291534800405e-006
11
1462.59619761564
21
-1094.90380702312
31
1.02327517304324e-005
  0
LINE
 8
GROUP0
10
1461.24999233419
20
-1105.12916475042
30
6.03257231874266e-006
11
1459.68231541588
21
-1105.77851577902
31
5.03170297210809e-006
  0
LINE
 8
GROUP0
10
1455.41182346214
20
-859.840737992271
30
8.79007428286449e-005
11
1458.00001388811
21
-859.499996064858
31
8.93004412954312e-005
  0
LINE
 8
GROUP0
10
1464.49999850196
20
-1099.50000318679
30
9.5874977566579e-006
11
1464.27851452955
21
-1101.18232673728
31
8.89646469939276e-006
  0
LINE
 8
GROUP0
10
1458.00001388811
20
-859.499996064858
30
8.93004412954312e-005
11
1460.58820436419
21
-859.840737611662
31
9.04646525800523e-005
  0
LINE
 8
GROUP0
10
1449.33976021791
20
-864.499996701628
30
8.32831781975518e-005
11
1450.9289462916
21
-862.428928772913
31
8.47859776252846e-005
  0
LINE
 8
GROUP0
10
1464.27851452955
20
-1101.18232673728
30
8.89646469939276e-006
11
1463.6291600656
21
-1102.75000223263
31
8.03312042850779e-006
  0
LINE
 8
GROUP0
10
1453.00001398662
20
-860.839742394654
30
8.63609434927692e-005
11
1455.41182346214
21
-859.840737992271
31
8.79007428286449e-005
  0
LINE
 8
GROUP0
10
1452.37083693834
20
-1096.24998989709
30
4.70285939096482e-006
11
1453.40380946023
21
-1094.90379695119
31
5.67967977861961e-006
  0
LINE
 8
GROUP0
10
1453.40380946023
20
-1094.90379695119
30
5.67967977861961e-006
11
1454.75000466975
21
-1093.8708273793
31
6.70340750143494e-006
  0
LINE
 8
GROUP0
10
1451.72148247439
20
-1097.81766539244
30
3.83951484724809e-006
11
1452.37083693834
21
-1096.24998989709
31
4.70285939096482e-006
  0
LINE
 8
GROUP0
10
1464.27851821613
20
-1097.81767915095
30
1.00591267395478e-005
11
1464.49999850196
21
-1099.50000318679
31
9.5874977566579e-006
  0
LINE
 8
GROUP0
10
1464.27852455726
20
-986.182319396378
30
4.86349353079507e-005
11
1464.50000656268
21
-984.499995586927
31
4.93259671018709e-005
  0
LINE
 8
GROUP0
10
1450.9289462916
20
-862.428928772913
30
8.47859776252846e-005
11
1453.00001398662
21
-860.839742394654
31
8.63609434927692e-005
  0
LINE
 8
GROUP0
10
1451.49999850198
20
-1099.49998894293
30
3.14848179280291e-006
11
1451.72148247439
21
-1097.81766539244
31
3.83951484724809e-006
  0
LINE
 8
GROUP0
10
1454.75000466975
20
-1093.8708273793
30
6.70340750143494e-006
11
1456.31768158806
21
-1093.2214763507
31
7.70427693830844e-006
  0
LINE
 8
GROUP0
10
1458.0000056239
20
-1092.99999606487
30
8.61408041290534e-006
11
1459.68232917439
21
-1093.22148003728
31
9.37081669549755e-006
  0
LINE
 8
GROUP0
10
1463.62916718753
20
-1096.25000223264
30
1.02792108382654e-005
11
1464.27851821613
21
-1097.81767915095
31
1.00591267395478e-005
  0
LINE
 8
GROUP0
10
1448.3407561702
20
-866.911806324058
30
8.19549576094314e-005
11
1449.33976021791
21
-864.499996701628
31
8.32831781975518e-005
  0
LINE
 8
GROUP0
10
1454.7499923342
20
-1105.12915762849
30
2.81306429099071e-006
11
1453.4037993883
21
-1104.0961851066
31
2.50322800514624e-006
  0
LINE
 8
GROUP0
10
1462.59618754371
20
-1104.09619517853
30
7.05629986037515e-006
11
1461.24999233419
21
-1105.12916475042
31
6.03257231874266e-006
  0
LINE
 8
GROUP0
10
1456.31768158806
20
-1093.2214763507
30
7.70427693830844e-006
11
1458.0000056239
21
-1092.99999606487
31
8.61408041290534e-006
  0
LINE
 8
GROUP0
10
1453.4037993883
20
-1104.0961851066
30
2.50322800514624e-006
11
1452.37082981641
21
-1102.74998989708
31
2.45676916168502e-006
  0
LINE
 8
GROUP0
10
1451.72147878781
20
-1101.18231297877
30
2.67685317368871e-006
11
1451.49999850198
21
-1099.49998894293
31
3.14848179280291e-006
  0
LINE
 8
GROUP0
10
1462.59619761564
20
-1094.90380702312
30
1.02327517304324e-005
11
1463.62916718753
21
-1096.25000223264
31
1.02792108382654e-005
  0
LINE
 8
GROUP0
10
1458.00000704061
20
-990.999996064858
30
4.38603719122577e-005
11
1459.68233081749
21
-990.778513812039
31
4.47701755631025e-005
  0
LINE
 8
GROUP0
10
1459.68232917439
20
-1093.22148003728
30
9.37081669549755e-006
11
1461.25000466974
21
-1093.87083450123
31
9.92291534800405e-006
  0
LINE
 8
GROUP0
10
1454.75000614878
20
-978.870831179226
30
4.64418696218938e-005
11
1453.40381214702
21
-979.903802325096
31
4.5418142439807e-005
  0
LINE
 8
GROUP0
10
1456.31766782955
20
-1105.77851209244
30
3.36516303162115e-006
11
1454.7499923342
21
-1105.12915762849
31
2.81306429099071e-006
  0
LINE
 8
GROUP0
10
1460.58820436419
20
-859.840737611662
30
9.04646525800523e-005
11
1463.00001398662
21
-860.839741659374
31
9.13140368867471e-005
  0
LINE
 8
GROUP0
10
1463.6291600656
20
-1102.75000223263
30
8.03312042850779e-006
11
1462.59618754371
21
-1104.09619517853
31
7.05629986037515e-006
  0
LINE
 8
GROUP0
10
1452.37082981641
20
-1102.74998989708
30
2.45676916168502e-006
11
1451.72147878781
21
-1101.18231297877
31
2.67685317368871e-006
  0
LINE
 8
GROUP0
10
1400.00001462339
20
-869.499996800137
30
8.08918304161188e-005
11
1400.3407561702
21
-866.911806324058
31
8.19549576094314e-005
  0
LINE
 8
GROUP0
10
1458.00001653753
20
-875.999996064857
30
8.35988375541496e-005
11
1456.31769272808
21
-875.778514059434
31
8.28421004558821e-005
  0
LINE
 8
GROUP0
10
1451.7214885681
20
-982.81767273334
30
4.35779794958069e-005
11
1451.50000656268
21
-984.499996542791
31
4.28869477040017e-005
  0
LINE
 8
GROUP0
10
1461.25000697658
20
-990.129160950491
30
4.5771045000681e-005
11
1462.59620097834
21
-989.096189804622
31
4.67947720925288e-005
  0
LINE
 8
GROUP0
10
1451.7214888155
20
-986.182320319672
30
4.24153198949229e-005
11
1452.37084167705
21
-987.74999647876
31
4.21952372393231e-005
  0
LINE
 8
GROUP0
10
1454.75000697658
20
-990.129161428423
30
4.25515352555694e-005
11
1456.31768323116
21
-990.778514059435
31
4.31036348111702e-005
  0
LINE
 8
GROUP0
10
1462.59620097834
20
-989.096189804622
30
4.67947720925288e-005
11
1463.62917192624
21
-987.749995650957
31
4.77715918492161e-005
  0
LINE
 8
GROUP0
10
1452.37084167705
20
-987.74999647876
30
4.21952372393231e-005
11
1453.40381282292
21
-989.09619048052
31
4.22416976090911e-005
  0
LINE
 8
GROUP0
10
1451.50000656268
20
-984.499996542791
30
4.28869477040017e-005
11
1451.7214888155
21
-986.182320319672
31
4.24153198949229e-005
  0
LINE
 8
GROUP0
10
1453.40381282292
20
-989.09619048052
30
4.22416976090911e-005
11
1454.75000697658
21
-990.129161428423
31
4.25515352555694e-005
  0
LINE
 8
GROUP0
10
1456.31768323116
20
-990.778514059435
30
4.31036348111702e-005
11
1458.00000704061
21
-990.999996064858
31
4.38603719122577e-005
  0
LINE
 8
GROUP0
10
1461.25000614878
20
-978.870830701294
30
4.96613796377221e-005
11
1459.6823298942
21
-978.221478070282
31
4.91092799918824e-005
  0
LINE
 8
GROUP0
10
1462.59620030244
20
-979.903801649198
30
4.99712170106636e-005
11
1461.25000614878
21
-978.870830701294
31
4.96613796377221e-005
  0
LINE
 8
GROUP0
10
1459.6823298942
20
-978.221478070282
30
4.91092799918824e-005
11
1458.00000608475
21
-977.999996064859
31
4.83525430740928e-005
  0
LINE
 8
GROUP0
10
1453.40381214702
20
-979.903802325096
30
4.5418142439807e-005
11
1452.37084119912
21
-981.24999647876
31
4.44413230476004e-005
  0
LINE
 8
GROUP0
10
1463.62917144831
20
-981.249995650958
30
5.00176775665495e-005
11
1462.59620030244
21
-979.903801649198
31
4.99712170106636e-005
  0
LINE
 8
GROUP0
10
1463.62918142317
20
-872.749995650957
30
8.7510058843987e-005
11
1462.59621047526
21
-874.096189804621
31
8.65332388172879e-005
  0
LINE
 8
GROUP0
10
1456.31768230787
20
-978.221478317678
30
4.74427390594723e-005
11
1454.75000614878
21
-978.870831179226
31
4.64418696218938e-005
  0
LINE
 8
GROUP0
10
1461.2500164735
20
-875.12916095049
30
8.55095112770654e-005
11
1459.68234031442
21
-875.778513812039
31
8.45086416561891e-005
  0
LINE
 8
GROUP0
10
1454.7500164735
20
-875.129161428422
30
8.22900008072225e-005
11
1453.40382231984
21
-874.096190480518
31
8.19801634342809e-005
  0
LINE
 8
GROUP0
10
1464.27852430986
20
-982.817671810046
30
4.97975949116547e-005
11
1463.62917144831
21
-981.249995650958
31
5.00176775665495e-005
  0
LINE
 8
GROUP0
10
1453.40382231984
20
-874.096190480518
30
8.19801634342809e-005
11
1452.37085117397
21
-872.749996478758
31
8.19337030588729e-005
  0
LINE
 8
GROUP0
10
1459.68233081749
20
-990.778513812039
30
4.47701755631025e-005
11
1461.25000697658
21
-990.129160950491
31
4.5771045000681e-005
  0
LINE
 8
GROUP0
10
1463.62917192624
20
-987.749995650957
30
4.77715918492161e-005
11
1464.27852455726
21
-986.182319396378
31
4.86349353079507e-005
  0
LINE
 8
GROUP0
10
1456.31769272808
20
-875.778514059434
30
8.28421004558821e-005
11
1454.7500164735
21
-875.129161428422
31
8.22900008072225e-005
  0
LINE
 8
GROUP0
10
1464.50000656268
20
-984.499995586927
30
4.93259671018709e-005
11
1464.27852430986
21
-982.817671810046
31
4.97975949116547e-005
  0
LINE
 8
GROUP0
10
1452.37084119912
20
-981.24999647876
30
4.44413230476004e-005
11
1451.7214885681
21
-982.81767273334
31
4.35779794958069e-005
  0
LINE
 8
GROUP0
10
1458.00000608475
20
-977.999996064859
30
4.83525430740928e-005
11
1456.31768230787
21
-978.221478317678
31
4.74427390594723e-005
  0
LINE
 8
GROUP0
10
1464.27853405418
20
-871.182319396378
30
8.83734026643823e-005
11
1463.62918142317
21
-872.749995650957
31
8.7510058843987e-005
  0
LINE
 8
GROUP0
10
1462.59621047526
20
-874.096189804621
30
8.65332388172879e-005
11
1461.2500164735
21
-875.12916095049
31
8.55095112770654e-005
  0
LINE
 8
GROUP0
10
1400.34074042938
20
-1102.08818722611
30
6.89316038188226e-007
11
1399.99999850197
21
-1099.49999680014
31
1.41489696378061e-006
  0
LINE
 8
GROUP0
10
1459.68234031442
20
-875.778513812039
30
8.45086416561891e-005
11
1458.00001653753
21
-875.999996064857
31
8.35988375541496e-005
  0
LINE
 8
GROUP0
10
1401.33974483177
20
-1104.49999670163
30
3.50726535147672e-007
11
1400.34074042938
21
-1102.08818722611
31
6.89316038188226e-007
  0
LINE
 8
GROUP0
10
1464.5000160596
20
-869.499995586926
30
8.90644348164382e-005
11
1464.27853405418
21
-871.182319396378
31
8.83734026643823e-005
  0
LINE
 8
GROUP0
10
1451.72149831242
20
-871.18232031967
30
8.21537858047117e-005
11
1451.5000160596
21
-869.499996542789
31
8.26254137970883e-005
  0
LINE
 8
GROUP0
10
1461.2500156457
20
-863.870830701293
30
8.93998477160651e-005
11
1462.59620979936
21
-864.903801649197
31
8.97096851792456e-005
  0
LINE
 8
GROUP0
10
1451.5000160596
20
-869.499996542789
30
8.26254137970883e-005
11
1451.72149806503
21
-867.817672733337
31
8.33164459491442e-005
  0
LINE
 8
GROUP0
10
1453.40382164394
20
-864.903802325094
30
8.51566098864776e-005
11
1454.7500156457
21
-863.870831179225
31
8.61803372490422e-005
  0
LINE
 8
GROUP0
10
1459.68233939112
20
-863.221478070281
30
8.88477481604644e-005
11
1461.2500156457
21
-863.870830701293
31
8.93998477160651e-005
  0
LINE
 8
GROUP0
10
1464.27853380678
20
-867.817671810045
30
8.95360626255171e-005
11
1464.5000160596
21
-869.499995586926
31
8.90644348164382e-005
  0
LINE
 8
GROUP0
10
1452.37085069604
20
-866.249996478758
30
8.41797896814156e-005
11
1453.40382164394
21
-864.903802325094
31
8.51566098864776e-005
  0
LINE
 8
GROUP0
10
1462.59620979936
20
-864.903801649197
30
8.97096851792456e-005
11
1463.62918094523
21
-866.249995650957
31
8.97561457379514e-005
  0
LINE
 8
GROUP0
10
1399.99999850197
20
-1099.49999680014
30
1.41489696378061e-006
11
1400.00001462339
21
-869.499996800137
31
8.08918304161188e-005
  0
LINE
 8
GROUP0
10
1456.31769180479
20
-863.221478317677
30
8.71812070475764e-005
11
1458.00001558167
21
-862.999996064858
31
8.80910111524358e-005
  0
LINE
 8
GROUP0
10
1451.72149806503
20
-867.817672733337
30
8.33164459491442e-005
11
1452.37085069604
21
-866.249996478758
31
8.41797896814156e-005
  0
LINE
 8
GROUP0
10
1458.00001558167
20
-862.999996064858
30
8.80910111524358e-005
11
1459.68233939112
21
-863.221478070281
31
8.88477481604644e-005
  0
LINE
 8
GROUP0
10
1454.7500156457
20
-863.870831179225
30
8.61803372490422e-005
11
1456.31769180479
21
-863.221478317677
31
8.71812070475764e-005
  0
LINE
 8
GROUP0
10
1463.62918094523
20
-866.249995650957
30
8.97561457379514e-005
11
1464.27853380678
21
-867.817671810045
31
8.95360626255171e-005
  0
LINE
 8
GROUP0
10
1452.37085117397
20
-872.749996478758
30
8.19337030588729e-005
11
1451.72149831242
21
-871.18232031967
31
8.21537858047117e-005
 0
ENDSEC
 0
EOF
