<?xml version="1.0" encoding="UTF-8"?>
<!-- Created by Vectric (http://www.vectric.com/) -->
<svg width="300.00000000mm" height="300.00000000mm" viewBox="0.00000000 0.00000000 300.00000000 300.00000000" id="svg2" version="1.1" xmlns="http://www.w3.org/2000/svg" xmlns:xlink="http://www.w3.org/1999/xlink" xmlns:inkscape="http://www.inkscape.org/namespaces/inkscape">
    <g inkscape:groupmode="layer" id="fa906546-3548-464c-848b-fc56ec38fbfc" inkscape:label="GROUP0" style="stroke:#000000;">
        <path style="fill:none;stroke-width:0.280000;stroke-linecap:round;stroke-linejoin:round;stroke-opacity:1;stroke:#000000;" d="M 172.370853,63.250000 L 171.721500,61.682324 L 171.500018,60.000000 L 171.721500,58.317677 L 172.370852,56.750000 L 173.403823,55.403806 L 174.750017,54.370835 L 176.317693,53.721482 L 178.000017,53.500000 L 179.682341,53.721482 L 181.250017,54.370835 L 182.596211,55.403806 L 183.629182,56.750000 L 184.278535,58.317676 L 184.500018,60.000000 L 184.278536,61.682323 L 183.629183,63.250000 L 182.596212,64.596194 L 181.250018,65.629165 L 179.682342,66.278518 L 178.000018,66.500000 L 176.317694,66.278518 L 174.750018,65.629165 L 173.403824,64.596194 L 172.370853,63.250000 "/>
        <path style="fill:none;stroke-width:0.280000;stroke-linecap:round;stroke-linejoin:round;stroke-opacity:1;stroke:#000000;" d="M 148.370853,63.250000 L 147.721500,61.682324 L 147.500018,60.000000 L 147.721500,58.317677 L 148.370852,56.750000 L 149.403823,55.403806 L 150.750017,54.370835 L 152.317693,53.721482 L 154.000017,53.500000 L 155.682341,53.721482 L 157.250017,54.370835 L 158.596211,55.403806 L 159.629182,56.750000 L 160.278535,58.317676 L 160.500018,60.000000 L 160.278536,61.682323 L 159.629183,63.250000 L 158.596212,64.596194 L 157.250018,65.629165 L 155.682342,66.278518 L 154.000018,66.500000 L 152.317694,66.278518 L 150.750018,65.629165 L 149.403824,64.596194 L 148.370853,63.250000 "/>
        <path style="fill:none;stroke-width:0.280000;stroke-linecap:round;stroke-linejoin:round;stroke-opacity:1;stroke:#000000;" d="M 124.370853,63.250000 L 123.721500,61.682324 L 123.500018,60.000000 L 123.721500,58.317677 L 124.370852,56.750000 L 125.403823,55.403806 L 126.750017,54.370835 L 128.317693,53.721482 L 130.000017,53.500000 L 131.682341,53.721482 L 133.250017,54.370835 L 134.596211,55.403806 L 135.629182,56.750000 L 136.278535,58.317676 L 136.500018,60.000000 L 136.278536,61.682323 L 135.629183,63.250000 L 134.596212,64.596194 L 133.250018,65.629165 L 131.682342,66.278518 L 130.000018,66.500000 L 128.317694,66.278518 L 126.750018,65.629165 L 125.403824,64.596194 L 124.370853,63.250000 "/>
        <path style="fill:none;stroke-width:0.280000;stroke-linecap:round;stroke-linejoin:round;stroke-opacity:1;stroke:#000000;" d="M 100.370853,63.250000 L 99.721500,61.682324 L 99.500018,60.000000 L 99.721500,58.317677 L 100.370852,56.750000 L 101.403823,55.403806 L 102.750017,54.370835 L 104.317693,53.721482 L 106.000017,53.500000 L 107.682341,53.721482 L 109.250017,54.370835 L 110.596211,55.403806 L 111.629182,56.750000 L 112.278535,58.317676 L 112.500018,60.000000 L 112.278536,61.682323 L 111.629183,63.250000 L 110.596212,64.596194 L 109.250018,65.629165 L 107.682342,66.278518 L 106.000018,66.500000 L 104.317694,66.278518 L 102.750018,65.629165 L 101.403824,64.596194 L 100.370853,63.250000 "/>
        <path style="fill:none;stroke-width:0.280000;stroke-linecap:round;stroke-linejoin:round;stroke-opacity:1;stroke:#000000;" d="M 173.403814,179.596194 L 174.750008,180.629165 L 176.317685,181.278518 L 178.000009,181.500000 L 179.682332,181.278518 L 181.250008,180.629165 L 182.596202,179.596194 L 183.629173,178.250000 L 184.278526,176.682323 L 184.500008,175.000000 L 184.278526,173.317676 L 183.629173,171.750000 L 182.596202,170.403806 L 181.250008,169.370835 L 179.682331,168.721482 L 178.000008,168.500000 L 176.317684,168.721482 L 174.750008,169.370835 L 173.403814,170.403806 L 172.370843,171.750000 L 171.721490,173.317677 L 171.500008,175.000000 L 171.721490,176.682324 L 172.370843,178.250000 L 173.403814,179.596194 "/>
        <path style="fill:none;stroke-width:0.280000;stroke-linecap:round;stroke-linejoin:round;stroke-opacity:1;stroke:#000000;" d="M 76.370853,63.250000 L 75.721500,61.682324 L 75.500018,60.000000 L 75.721500,58.317677 L 76.370852,56.750000 L 77.403823,55.403806 L 78.750017,54.370835 L 80.317693,53.721482 L 82.000017,53.500000 L 83.682341,53.721482 L 85.250017,54.370835 L 86.596211,55.403806 L 87.629182,56.750000 L 88.278535,58.317676 L 88.500018,60.000000 L 88.278536,61.682323 L 87.629183,63.250000 L 86.596212,64.596194 L 85.250018,65.629165 L 83.682342,66.278518 L 82.000018,66.500000 L 80.317694,66.278518 L 78.750018,65.629165 L 77.403824,64.596194 L 76.370853,63.250000 "/>
        <path style="fill:none;stroke-width:0.280000;stroke-linecap:round;stroke-linejoin:round;stroke-opacity:1;stroke:#000000;" d="M 149.403814,179.596194 L 150.750008,180.629165 L 152.317685,181.278518 L 154.000009,181.500000 L 155.682332,181.278518 L 157.250008,180.629165 L 158.596202,179.596194 L 159.629173,178.250000 L 160.278526,176.682323 L 160.500008,175.000000 L 160.278526,173.317676 L 159.629173,171.750000 L 158.596202,170.403806 L 157.250008,169.370835 L 155.682331,168.721482 L 154.000008,168.500000 L 152.317684,168.721482 L 150.750008,169.370835 L 149.403814,170.403806 L 148.370843,171.750000 L 147.721490,173.317677 L 147.500008,175.000000 L 147.721490,176.682324 L 148.370843,178.250000 L 149.403814,179.596194 "/>
        <path style="fill:none;stroke-width:0.280000;stroke-linecap:round;stroke-linejoin:round;stroke-opacity:1;stroke:#000000;" d="M 52.370853,63.250000 L 51.721500,61.682324 L 51.500018,60.000000 L 51.721500,58.317677 L 52.370852,56.750000 L 53.403823,55.403806 L 54.750017,54.370835 L 56.317693,53.721482 L 58.000017,53.500000 L 59.682341,53.721482 L 61.250017,54.370835 L 62.596211,55.403806 L 63.629182,56.750000 L 64.278535,58.317676 L 64.500018,60.000000 L 64.278536,61.682323 L 63.629183,63.250000 L 62.596212,64.596194 L 61.250018,65.629165 L 59.682342,66.278518 L 58.000018,66.500000 L 56.317694,66.278518 L 54.750018,65.629165 L 53.403824,64.596194 L 52.370853,63.250000 "/>
        <path style="fill:none;stroke-width:0.280000;stroke-linecap:round;stroke-linejoin:round;stroke-opacity:1;stroke:#000000;" d="M 125.403814,179.596194 L 126.750008,180.629165 L 128.317685,181.278518 L 130.000009,181.500000 L 131.682332,181.278518 L 133.250008,180.629165 L 134.596202,179.596194 L 135.629173,178.250000 L 136.278526,176.682323 L 136.500008,175.000000 L 136.278526,173.317676 L 135.629173,171.750000 L 134.596202,170.403806 L 133.250008,169.370835 L 131.682331,168.721482 L 130.000008,168.500000 L 128.317684,168.721482 L 126.750008,169.370835 L 125.403814,170.403806 L 124.370843,171.750000 L 123.721490,173.317677 L 123.500008,175.000000 L 123.721490,176.682324 L 124.370843,178.250000 L 125.403814,179.596194 "/>
        <path style="fill:none;stroke-width:0.280000;stroke-linecap:round;stroke-linejoin:round;stroke-opacity:1;stroke:#000000;" d="M 27.721500,61.682324 L 27.500018,60.000000 L 27.721500,58.317677 L 28.370852,56.750000 L 29.403823,55.403806 L 30.750017,54.370835 L 32.317693,53.721482 L 34.000017,53.500000 L 35.682341,53.721482 L 37.250017,54.370835 L 38.596211,55.403806 L 39.629182,56.750000 L 40.278535,58.317676 L 40.500018,60.000000 L 40.278536,61.682323 L 39.629183,63.250000 L 38.596212,64.596194 L 37.250018,65.629165 L 35.682342,66.278518 L 34.000018,66.500000 L 32.317694,66.278518 L 30.750018,65.629165 L 29.403824,64.596194 L 28.370853,63.250000 L 27.721500,61.682324 "/>
        <path style="fill:none;stroke-width:0.280000;stroke-linecap:round;stroke-linejoin:round;stroke-opacity:1;stroke:#000000;" d="M 101.403814,179.596194 L 102.750008,180.629165 L 104.317685,181.278518 L 106.000009,181.500000 L 107.682332,181.278518 L 109.250008,180.629165 L 110.596202,179.596194 L 111.629173,178.250000 L 112.278526,176.682323 L 112.500008,175.000000 L 112.278526,173.317676 L 111.629173,171.750000 L 110.596202,170.403806 L 109.250008,169.370835 L 107.682331,168.721482 L 106.000008,168.500000 L 104.317684,168.721482 L 102.750008,169.370835 L 101.403814,170.403806 L 100.370843,171.750000 L 99.721490,173.317677 L 99.500008,175.000000 L 99.721490,176.682324 L 100.370843,178.250000 L 101.403814,179.596194 "/>
        <path style="fill:none;stroke-width:0.280000;stroke-linecap:round;stroke-linejoin:round;stroke-opacity:1;stroke:#000000;" d="M 77.403814,179.596194 L 78.750008,180.629165 L 80.317685,181.278518 L 82.000009,181.500000 L 83.682332,181.278518 L 85.250008,180.629165 L 86.596202,179.596194 L 87.629173,178.250000 L 88.278526,176.682323 L 88.500008,175.000000 L 88.278526,173.317676 L 87.629173,171.750000 L 86.596202,170.403806 L 85.250008,169.370835 L 83.682331,168.721482 L 82.000008,168.500000 L 80.317684,168.721482 L 78.750008,169.370835 L 77.403814,170.403806 L 76.370843,171.750000 L 75.721490,173.317677 L 75.500008,175.000000 L 75.721490,176.682324 L 76.370843,178.250000 L 77.403814,179.596194 "/>
        <path style="fill:none;stroke-width:0.280000;stroke-linecap:round;stroke-linejoin:round;stroke-opacity:1;stroke:#000000;" d="M 3.721500,61.682324 L 3.500018,60.000000 L 3.721500,58.317677 L 4.370852,56.750000 L 5.403823,55.403806 L 6.750017,54.370835 L 8.317693,53.721482 L 10.000017,53.500000 L 11.682341,53.721482 L 13.250017,54.370835 L 14.596211,55.403806 L 15.629182,56.750000 L 16.278535,58.317676 L 16.500018,60.000000 L 16.278536,61.682323 L 15.629183,63.250000 L 14.596212,64.596194 L 13.250018,65.629165 L 11.682342,66.278518 L 10.000018,66.500000 L 8.317694,66.278518 L 6.750018,65.629165 L 5.403824,64.596194 L 4.370853,63.250000 L 3.721500,61.682324 "/>
        <path style="fill:none;stroke-width:0.280000;stroke-linecap:round;stroke-linejoin:round;stroke-opacity:1;stroke:#000000;" d="M 53.403814,179.596194 L 54.750008,180.629165 L 56.317685,181.278518 L 58.000009,181.500000 L 59.682332,181.278518 L 61.250008,180.629165 L 62.596202,179.596194 L 63.629173,178.250000 L 64.278526,176.682323 L 64.500008,175.000000 L 64.278526,173.317676 L 63.629173,171.750000 L 62.596202,170.403806 L 61.250008,169.370835 L 59.682331,168.721482 L 58.000008,168.500000 L 56.317684,168.721482 L 54.750008,169.370835 L 53.403814,170.403806 L 52.370843,171.750000 L 51.721490,173.317677 L 51.500008,175.000000 L 51.721490,176.682324 L 52.370843,178.250000 L 53.403814,179.596194 "/>
        <path style="fill:none;stroke-width:0.280000;stroke-linecap:round;stroke-linejoin:round;stroke-opacity:1;stroke:#000000;" d="M 174.749994,295.629162 L 173.403801,294.596189 L 172.370831,293.249994 L 171.721480,291.682317 L 171.500000,289.999993 L 171.721484,288.317669 L 172.370838,286.749994 L 173.403811,285.403801 L 174.750006,284.370831 L 176.317683,283.721480 L 178.000007,283.500000 L 179.682331,283.721484 L 181.250006,284.370838 L 182.596199,285.403811 L 183.629169,286.750006 L 184.278520,288.317683 L 184.500000,290.000007 L 184.278516,291.682331 L 183.629162,293.250006 L 182.596189,294.596199 L 181.249994,295.629169 L 179.682317,296.278520 L 177.999993,296.500000 L 176.317669,296.278516 L 174.749994,295.629162 "/>
        <path style="fill:none;stroke-width:0.280000;stroke-linecap:round;stroke-linejoin:round;stroke-opacity:1;stroke:#000000;" d="M 173.000001,298.660254 L 170.928933,297.071068 L 169.339746,295.000001 L 168.340742,292.588191 L 168.000000,290.000001 L 168.000016,60.000001 L 168.340758,57.411810 L 169.339762,55.000001 L 170.928948,52.928933 L 173.000015,51.339746 L 175.411825,50.340742 L 178.000015,50.000000 L 180.588206,50.340742 L 183.000015,51.339746 L 185.071083,52.928932 L 186.660270,54.999999 L 187.659274,57.411809 L 188.000016,59.999999 L 188.000000,289.999999 L 187.659258,292.588190 L 186.660254,294.999999 L 185.071068,297.071067 L 183.000001,298.660254 L 180.588191,299.659258 L 178.000001,300.000000 L 175.411810,299.659258 L 173.000001,298.660254 "/>
        <path style="fill:none;stroke-width:0.280000;stroke-linecap:round;stroke-linejoin:round;stroke-opacity:1;stroke:#000000;" d="M 28.370843,178.250000 L 29.403814,179.596194 L 30.750008,180.629165 L 32.317685,181.278518 L 34.000009,181.500000 L 35.682332,181.278518 L 37.250008,180.629165 L 38.596202,179.596194 L 39.629173,178.250000 L 40.278526,176.682323 L 40.500008,175.000000 L 40.278526,173.317676 L 39.629173,171.750000 L 38.596202,170.403806 L 37.250008,169.370835 L 35.682331,168.721482 L 34.000008,168.500000 L 32.317684,168.721482 L 30.750008,169.370835 L 29.403814,170.403806 L 28.370843,171.750000 L 27.721490,173.317677 L 27.500008,175.000000 L 27.721490,176.682324 L 28.370843,178.250000 "/>
        <path style="fill:none;stroke-width:0.280000;stroke-linecap:round;stroke-linejoin:round;stroke-opacity:1;stroke:#000000;" d="M 150.749994,295.629162 L 149.403801,294.596189 L 148.370831,293.249994 L 147.721480,291.682317 L 147.500000,289.999993 L 147.721484,288.317669 L 148.370838,286.749994 L 149.403811,285.403801 L 150.750006,284.370831 L 152.317683,283.721480 L 154.000007,283.500000 L 155.682331,283.721484 L 157.250006,284.370838 L 158.596199,285.403811 L 159.629169,286.750006 L 160.278520,288.317683 L 160.500000,290.000007 L 160.278516,291.682331 L 159.629162,293.250006 L 158.596189,294.596199 L 157.249994,295.629169 L 155.682317,296.278520 L 153.999993,296.500000 L 152.317669,296.278516 L 150.749994,295.629162 "/>
        <path style="fill:none;stroke-width:0.280000;stroke-linecap:round;stroke-linejoin:round;stroke-opacity:1;stroke:#000000;" d="M 149.000001,298.660254 L 146.928933,297.071068 L 145.339746,295.000001 L 144.340742,292.588191 L 144.000000,290.000001 L 144.000016,60.000001 L 144.340758,57.411810 L 145.339762,55.000001 L 146.928948,52.928933 L 149.000015,51.339746 L 151.411825,50.340742 L 154.000015,50.000000 L 156.588206,50.340742 L 159.000015,51.339746 L 161.071083,52.928932 L 162.660270,54.999999 L 163.659274,57.411809 L 164.000016,59.999999 L 164.000000,289.999999 L 163.659258,292.588190 L 162.660254,294.999999 L 161.071068,297.071067 L 159.000001,298.660254 L 156.588191,299.659258 L 154.000001,300.000000 L 151.411810,299.659258 L 149.000001,298.660254 "/>
        <path style="fill:none;stroke-width:0.280000;stroke-linecap:round;stroke-linejoin:round;stroke-opacity:1;stroke:#000000;" d="M 126.749994,295.629162 L 125.403801,294.596189 L 124.370831,293.249994 L 123.721480,291.682317 L 123.500000,289.999993 L 123.721484,288.317669 L 124.370838,286.749994 L 125.403811,285.403801 L 126.750006,284.370831 L 128.317683,283.721480 L 130.000007,283.500000 L 131.682331,283.721484 L 133.250006,284.370838 L 134.596199,285.403811 L 135.629169,286.750006 L 136.278520,288.317683 L 136.500000,290.000007 L 136.278516,291.682331 L 135.629162,293.250006 L 134.596189,294.596199 L 133.249994,295.629169 L 131.682317,296.278520 L 129.999993,296.500000 L 128.317669,296.278516 L 126.749994,295.629162 "/>
        <path style="fill:none;stroke-width:0.280000;stroke-linecap:round;stroke-linejoin:round;stroke-opacity:1;stroke:#000000;" d="M 5.403814,179.596194 L 6.750008,180.629165 L 8.317685,181.278518 L 10.000009,181.500000 L 11.682332,181.278518 L 13.250008,180.629165 L 14.596202,179.596194 L 15.629173,178.250000 L 16.278526,176.682323 L 16.500008,175.000000 L 16.278526,173.317676 L 15.629173,171.750000 L 14.596202,170.403806 L 13.250008,169.370835 L 11.682331,168.721482 L 10.000008,168.500000 L 8.317684,168.721482 L 6.750008,169.370835 L 5.403814,170.403806 L 4.370843,171.750000 L 3.721490,173.317677 L 3.500008,175.000000 L 3.721490,176.682324 L 4.370843,178.250000 L 5.403814,179.596194 "/>
        <path style="fill:none;stroke-width:0.280000;stroke-linecap:round;stroke-linejoin:round;stroke-opacity:1;stroke:#000000;" d="M 125.000001,298.660254 L 122.928933,297.071068 L 121.339746,295.000001 L 120.340742,292.588191 L 120.000000,290.000001 L 120.000016,60.000001 L 120.340758,57.411810 L 121.339762,55.000001 L 122.928948,52.928933 L 125.000015,51.339746 L 127.411825,50.340742 L 130.000015,50.000000 L 132.588206,50.340742 L 135.000015,51.339746 L 137.071083,52.928932 L 138.660270,54.999999 L 139.659274,57.411809 L 140.000016,59.999999 L 140.000000,289.999999 L 139.659258,292.588190 L 138.660254,294.999999 L 137.071068,297.071067 L 135.000001,298.660254 L 132.588191,299.659258 L 130.000001,300.000000 L 127.411810,299.659258 L 125.000001,298.660254 "/>
        <path style="fill:none;stroke-width:0.280000;stroke-linecap:round;stroke-linejoin:round;stroke-opacity:1;stroke:#000000;" d="M 102.749994,295.629162 L 101.403801,294.596189 L 100.370831,293.249994 L 99.721480,291.682317 L 99.500000,289.999993 L 99.721484,288.317669 L 100.370838,286.749994 L 101.403811,285.403801 L 102.750006,284.370831 L 104.317683,283.721480 L 106.000007,283.500000 L 107.682331,283.721484 L 109.250006,284.370838 L 110.596199,285.403811 L 111.629169,286.750006 L 112.278520,288.317683 L 112.500000,290.000007 L 112.278516,291.682331 L 111.629162,293.250006 L 110.596189,294.596199 L 109.249994,295.629169 L 107.682317,296.278520 L 105.999993,296.500000 L 104.317669,296.278516 L 102.749994,295.629162 "/>
        <path style="fill:none;stroke-width:0.280000;stroke-linecap:round;stroke-linejoin:round;stroke-opacity:1;stroke:#000000;" d="M 101.000001,298.660254 L 98.928933,297.071068 L 97.339746,295.000001 L 96.340742,292.588191 L 96.000000,290.000001 L 96.000016,60.000001 L 96.340758,57.411810 L 97.339762,55.000001 L 98.928948,52.928933 L 101.000015,51.339746 L 103.411825,50.340742 L 106.000015,50.000000 L 108.588206,50.340742 L 111.000015,51.339746 L 113.071083,52.928932 L 114.660270,54.999999 L 115.659274,57.411809 L 116.000016,59.999999 L 116.000000,289.999999 L 115.659258,292.588190 L 114.660254,294.999999 L 113.071068,297.071067 L 111.000001,298.660254 L 108.588191,299.659258 L 106.000001,300.000000 L 103.411810,299.659258 L 101.000001,298.660254 "/>
        <path style="fill:none;stroke-width:0.280000;stroke-linecap:round;stroke-linejoin:round;stroke-opacity:1;stroke:#000000;" d="M 77.403801,294.596189 L 76.370831,293.249994 L 75.721480,291.682317 L 75.500000,289.999993 L 75.721484,288.317669 L 76.370838,286.749994 L 77.403811,285.403801 L 78.750006,284.370831 L 80.317683,283.721480 L 82.000007,283.500000 L 83.682331,283.721484 L 85.250006,284.370838 L 86.596199,285.403811 L 87.629169,286.750006 L 88.278520,288.317683 L 88.500000,290.000007 L 88.278516,291.682331 L 87.629162,293.250006 L 86.596189,294.596199 L 85.249994,295.629169 L 83.682317,296.278520 L 81.999993,296.500000 L 80.317669,296.278516 L 78.749994,295.629162 L 77.403801,294.596189 "/>
        <path style="fill:none;stroke-width:0.280000;stroke-linecap:round;stroke-linejoin:round;stroke-opacity:1;stroke:#000000;" d="M 74.928933,297.071068 L 73.339746,295.000001 L 72.340742,292.588191 L 72.000000,290.000001 L 72.000016,60.000001 L 72.340758,57.411810 L 73.339762,55.000001 L 74.928948,52.928933 L 77.000015,51.339746 L 79.411825,50.340742 L 82.000015,50.000000 L 84.588206,50.340742 L 87.000015,51.339746 L 89.071083,52.928932 L 90.660270,54.999999 L 91.659274,57.411809 L 92.000016,59.999999 L 92.000000,289.999999 L 91.659258,292.588190 L 90.660254,294.999999 L 89.071068,297.071067 L 87.000001,298.660254 L 84.588191,299.659258 L 82.000001,300.000000 L 79.411810,299.659258 L 77.000001,298.660254 L 74.928933,297.071068 "/>
        <path style="fill:none;stroke-width:0.280000;stroke-linecap:round;stroke-linejoin:round;stroke-opacity:1;stroke:#000000;" d="M 53.403801,294.596189 L 52.370831,293.249994 L 51.721480,291.682317 L 51.500000,289.999993 L 51.721484,288.317669 L 52.370838,286.749994 L 53.403811,285.403801 L 54.750006,284.370831 L 56.317683,283.721480 L 58.000007,283.500000 L 59.682331,283.721484 L 61.250006,284.370838 L 62.596199,285.403811 L 63.629169,286.750006 L 64.278520,288.317683 L 64.500000,290.000007 L 64.278516,291.682331 L 63.629162,293.250006 L 62.596189,294.596199 L 61.249994,295.629169 L 59.682317,296.278520 L 57.999993,296.500000 L 56.317669,296.278516 L 54.749994,295.629162 L 53.403801,294.596189 "/>
        <path style="fill:none;stroke-width:0.280000;stroke-linecap:round;stroke-linejoin:round;stroke-opacity:1;stroke:#000000;" d="M 50.928933,297.071068 L 49.339746,295.000001 L 48.340742,292.588191 L 48.000000,290.000001 L 48.000016,60.000001 L 48.340758,57.411810 L 49.339762,55.000001 L 50.928948,52.928933 L 53.000015,51.339746 L 55.411825,50.340742 L 58.000015,50.000000 L 60.588206,50.340742 L 63.000015,51.339746 L 65.071083,52.928932 L 66.660270,54.999999 L 67.659274,57.411809 L 68.000016,59.999999 L 68.000000,289.999999 L 67.659258,292.588190 L 66.660254,294.999999 L 65.071068,297.071067 L 63.000001,298.660254 L 60.588191,299.659258 L 58.000001,300.000000 L 55.411810,299.659258 L 53.000001,298.660254 L 50.928933,297.071068 "/>
        <path style="fill:none;stroke-width:0.280000;stroke-linecap:round;stroke-linejoin:round;stroke-opacity:1;stroke:#000000;" d="M 29.403801,294.596189 L 28.370831,293.249994 L 27.721480,291.682317 L 27.500000,289.999993 L 27.721484,288.317669 L 28.370838,286.749994 L 29.403811,285.403801 L 30.750006,284.370831 L 32.317683,283.721480 L 34.000007,283.500000 L 35.682331,283.721484 L 37.250006,284.370838 L 38.596199,285.403811 L 39.629169,286.750006 L 40.278520,288.317683 L 40.500000,290.000007 L 40.278516,291.682331 L 39.629162,293.250006 L 38.596189,294.596199 L 37.249994,295.629169 L 35.682317,296.278520 L 33.999993,296.500000 L 32.317669,296.278516 L 30.749994,295.629162 L 29.403801,294.596189 "/>
        <path style="fill:none;stroke-width:0.280000;stroke-linecap:round;stroke-linejoin:round;stroke-opacity:1;stroke:#000000;" d="M 26.928933,297.071068 L 25.339746,295.000001 L 24.340742,292.588191 L 24.000000,290.000001 L 24.000016,60.000001 L 24.340758,57.411810 L 25.339762,55.000001 L 26.928948,52.928933 L 29.000015,51.339746 L 31.411825,50.340742 L 34.000015,50.000000 L 36.588206,50.340742 L 39.000015,51.339746 L 41.071083,52.928932 L 42.660270,54.999999 L 43.659274,57.411809 L 44.000016,59.999999 L 44.000000,289.999999 L 43.659258,292.588190 L 42.660254,294.999999 L 41.071068,297.071067 L 39.000001,298.660254 L 36.588191,299.659258 L 34.000001,300.000000 L 31.411810,299.659258 L 29.000001,298.660254 L 26.928933,297.071068 "/>
        <path style="fill:none;stroke-width:0.280000;stroke-linecap:round;stroke-linejoin:round;stroke-opacity:1;stroke:#000000;" d="M 5.403801,294.596189 L 4.370831,293.249994 L 3.721480,291.682317 L 3.500000,289.999993 L 3.721484,288.317669 L 4.370838,286.749994 L 5.403811,285.403801 L 6.750006,284.370831 L 8.317683,283.721480 L 10.000007,283.500000 L 11.682331,283.721484 L 13.250006,284.370838 L 14.596199,285.403811 L 15.629169,286.750006 L 16.278520,288.317683 L 16.500000,290.000007 L 16.278516,291.682331 L 15.629162,293.250006 L 14.596189,294.596199 L 13.249994,295.629169 L 11.682317,296.278520 L 9.999993,296.500000 L 8.317669,296.278516 L 6.749994,295.629162 L 5.403801,294.596189 "/>
        <path style="fill:none;stroke-width:0.280000;stroke-linecap:round;stroke-linejoin:round;stroke-opacity:1;stroke:#000000;" d="M 2.928933,297.071068 L 1.339746,295.000001 L 0.340742,292.588191 L 0.000000,290.000001 L 0.000016,60.000001 L 0.340758,57.411810 L 1.339762,55.000001 L 2.928948,52.928933 L 5.000015,51.339746 L 7.411825,50.340742 L 10.000015,50.000000 L 12.588206,50.340742 L 15.000015,51.339746 L 17.071083,52.928932 L 18.660270,54.999999 L 19.659274,57.411809 L 20.000016,59.999999 L 20.000000,289.999999 L 19.659258,292.588190 L 18.660254,294.999999 L 17.071068,297.071067 L 15.000001,298.660254 L 12.588191,299.659258 L 10.000001,300.000000 L 7.411810,299.659258 L 5.000001,298.660254 L 2.928933,297.071068 "/>
    </g>
</svg>
