solid FoldaRapX
facet normal 0.0 0.0 -1.0
outer loop
vertex 216.573994426985 -21.1139292150715 3.00000012814167
vertex 206.323994426986 -25.1139292150715 3.00000012814167
vertex 206.323994426986 -21.1139292150715 3.00000012814167
endloop
endfacet
facet normal 0.0 0.0 -1.0
outer loop
vertex 206.323994426986 -25.1139292150715 3.00000012814167
vertex 216.573994426985 -21.1139292150715 3.00000012814167
vertex 212.573994426985 -25.1139292150715 3.00000012814167
endloop
endfacet
facet normal 0.0 0.0 -1.0
outer loop
vertex 212.573994426985 -25.1139292150715 3.00000012814167
vertex 216.573994426985 -21.1139292150715 3.00000012814167
vertex 212.573994426985 -34.6139292150715 3.00000012814167
endloop
endfacet
facet normal 0.0 0.0 -1.0
outer loop
vertex 212.573994426985 -34.6139292150715 3.00000012814167
vertex 206.323994426986 -38.6139292150715 3.00000012814167
vertex 206.323994426986 -34.6139292150715 3.00000012814167
endloop
endfacet
facet normal 0.0 0.0 -1.0
outer loop
vertex 206.323994426986 -38.6139292150715 3.00000012814167
vertex 212.573994426985 -34.6139292150715 3.00000012814167
vertex 216.573994426985 -38.6139292150715 3.00000012814167
endloop
endfacet
facet normal 0.0 0.0 -1.0
outer loop
vertex 216.573994426985 -38.6139292150715 3.00000012814167
vertex 212.573994426985 -34.6139292150715 3.00000012814167
vertex 216.573994426985 -21.1139292150715 3.00000012814167
endloop
endfacet
facet normal 0.0 1.0 0.0
outer loop
vertex 206.323994426986 -34.6139292150715 23.0000001281417
vertex 212.573994426985 -34.6139292150715 3.00000012814167
vertex 206.323994426986 -34.6139292150715 3.00000012814167
endloop
endfacet
facet normal 0.0 1.0 0.0
outer loop
vertex 212.573994426985 -34.6139292150715 3.00000012814167
vertex 206.323994426986 -34.6139292150715 23.0000001281417
vertex 212.573994426985 -34.6139292150715 23.0000001281417
endloop
endfacet
facet normal 0.0 -1.0 0.0
outer loop
vertex 216.573994426985 -38.6139292150715 23.0000001281417
vertex 206.323994426986 -38.6139292150715 3.00000012814167
vertex 216.573994426985 -38.6139292150715 3.00000012814167
endloop
endfacet
facet normal 0.0 -1.0 0.0
outer loop
vertex 206.323994426986 -38.6139292150715 3.00000012814167
vertex 216.573994426985 -38.6139292150715 23.0000001281417
vertex 206.323994426986 -38.6139292150715 23.0000001281417
endloop
endfacet
facet normal -1.0 -0.0 -0.0
outer loop
vertex 212.573994426985 -25.1139292150715 23.0000001281417
vertex 212.573994426985 -34.6139292150715 3.00000012814167
vertex 212.573994426985 -34.6139292150715 23.0000001281417
endloop
endfacet
facet normal -1.0 -0.0 -0.0
outer loop
vertex 212.573994426985 -34.6139292150715 3.00000012814167
vertex 212.573994426985 -25.1139292150715 23.0000001281417
vertex 212.573994426985 -25.1139292150715 3.00000012814167
endloop
endfacet
facet normal 0.0 1.0 0.0
outer loop
vertex 206.323994426986 -21.1139292150715 23.0000001281417
vertex 216.573994426985 -21.1139292150715 3.00000012814167
vertex 206.323994426986 -21.1139292150715 3.00000012814167
endloop
endfacet
facet normal 0.0 1.0 0.0
outer loop
vertex 216.573994426985 -21.1139292150715 3.00000012814167
vertex 206.323994426986 -21.1139292150715 23.0000001281417
vertex 216.573994426985 -21.1139292150715 23.0000001281417
endloop
endfacet
facet normal -1.0 -0.0 -0.0
outer loop
vertex 206.323994426986 -21.1139292150715 23.0000001281417
vertex 206.323994426986 -25.1139292150715 3.00000012814167
vertex 206.323994426986 -25.1139292150715 23.0000001281417
endloop
endfacet
facet normal -1.0 -0.0 -0.0
outer loop
vertex 206.323994426986 -25.1139292150715 3.00000012814167
vertex 206.323994426986 -21.1139292150715 23.0000001281417
vertex 206.323994426986 -21.1139292150715 3.00000012814167
endloop
endfacet
facet normal 1.0 0.0 0.0
outer loop
vertex 216.573994426985 -21.1139292150715 3.00000012814167
vertex 216.573994426985 -38.6139292150715 23.0000001281417
vertex 216.573994426985 -38.6139292150715 3.00000012814167
endloop
endfacet
facet normal 1.0 0.0 0.0
outer loop
vertex 216.573994426985 -38.6139292150715 23.0000001281417
vertex 216.573994426985 -21.1139292150715 3.00000012814167
vertex 216.573994426985 -21.1139292150715 23.0000001281417
endloop
endfacet
facet normal 0.0 0.0 1.0
outer loop
vertex 216.573994426985 -38.6139292150715 23.0000001281417
vertex 206.323994426986 -34.6139292150715 23.0000001281417
vertex 206.323994426986 -38.6139292150715 23.0000001281417
endloop
endfacet
facet normal 0.0 0.0 1.0
outer loop
vertex 206.323994426986 -34.6139292150715 23.0000001281417
vertex 216.573994426985 -38.6139292150715 23.0000001281417
vertex 212.573994426985 -34.6139292150715 23.0000001281417
endloop
endfacet
facet normal 0.0 0.0 1.0
outer loop
vertex 212.573994426985 -34.6139292150715 23.0000001281417
vertex 216.573994426985 -38.6139292150715 23.0000001281417
vertex 212.573994426985 -25.1139292150715 23.0000001281417
endloop
endfacet
facet normal 0.0 0.0 1.0
outer loop
vertex 212.573994426985 -25.1139292150715 23.0000001281417
vertex 206.323994426986 -21.1139292150715 23.0000001281417
vertex 206.323994426986 -25.1139292150715 23.0000001281417
endloop
endfacet
facet normal 0.0 0.0 1.0
outer loop
vertex 206.323994426986 -21.1139292150715 23.0000001281417
vertex 212.573994426985 -25.1139292150715 23.0000001281417
vertex 216.573994426985 -21.1139292150715 23.0000001281417
endloop
endfacet
facet normal 0.0 0.0 1.0
outer loop
vertex 216.573994426985 -21.1139292150715 23.0000001281417
vertex 212.573994426985 -25.1139292150715 23.0000001281417
vertex 216.573994426985 -38.6139292150715 23.0000001281417
endloop
endfacet
facet normal -1.0 -0.0 -0.0
outer loop
vertex 206.323994426986 -34.6139292150715 23.0000001281417
vertex 206.323994426986 -38.6139292150715 3.00000012814167
vertex 206.323994426986 -38.6139292150715 23.0000001281417
endloop
endfacet
facet normal -1.0 -0.0 -0.0
outer loop
vertex 206.323994426986 -38.6139292150715 3.00000012814167
vertex 206.323994426986 -34.6139292150715 23.0000001281417
vertex 206.323994426986 -34.6139292150715 3.00000012814167
endloop
endfacet
facet normal 0.0 -1.0 0.0
outer loop
vertex 212.573994426985 -25.1139292150715 23.0000001281417
vertex 206.323994426986 -25.1139292150715 3.00000012814167
vertex 212.573994426985 -25.1139292150715 3.00000012814167
endloop
endfacet
facet normal 0.0 -1.0 0.0
outer loop
vertex 206.323994426986 -25.1139292150715 3.00000012814167
vertex 212.573994426985 -25.1139292150715 23.0000001281417
vertex 206.323994426986 -25.1139292150715 23.0000001281417
endloop
endfacet
endsolid FoldaRapX
