solid FoldaRapX
facet normal 0.0 0.0 -1.0
outer loop
vertex 236.411169269152 -29.7900549987648 3.000000125062
vertex 226.161169269152 -33.8900549987648 3.000000125062
vertex 226.161169269152 -29.7900549987648 3.000000125062
endloop
endfacet
facet normal 0.0 0.0 -1.0
outer loop
vertex 226.161169269152 -33.8900549987648 3.000000125062
vertex 236.411169269152 -29.7900549987648 3.000000125062
vertex 232.411169269152 -33.8900549987648 3.000000125062
endloop
endfacet
facet normal 0.0 0.0 -1.0
outer loop
vertex 232.411169269152 -33.8900549987648 3.000000125062
vertex 236.411169269152 -29.7900549987648 3.000000125062
vertex 232.411169269152 -43.1900549987648 3.000000125062
endloop
endfacet
facet normal 0.0 0.0 -1.0
outer loop
vertex 232.411169269152 -43.1900549987648 3.000000125062
vertex 226.161169269152 -47.2900549987648 3.000000125062
vertex 226.161169269152 -43.1900549987648 3.000000125062
endloop
endfacet
facet normal 0.0 0.0 -1.0
outer loop
vertex 226.161169269152 -47.2900549987648 3.000000125062
vertex 232.411169269152 -43.1900549987648 3.000000125062
vertex 236.411169269152 -47.2900549987648 3.000000125062
endloop
endfacet
facet normal 0.0 0.0 -1.0
outer loop
vertex 236.411169269152 -47.2900549987648 3.000000125062
vertex 232.411169269152 -43.1900549987648 3.000000125062
vertex 236.411169269152 -29.7900549987648 3.000000125062
endloop
endfacet
facet normal 0.0 1.0 0.0
outer loop
vertex 226.161169269152 -43.1900549987648 10.000000125062
vertex 232.411169269152 -43.1900549987648 3.000000125062
vertex 226.161169269152 -43.1900549987648 3.000000125062
endloop
endfacet
facet normal 0.0 1.0 0.0
outer loop
vertex 232.411169269152 -43.1900549987648 3.000000125062
vertex 226.161169269152 -43.1900549987648 10.000000125062
vertex 232.411169269152 -43.1900549987648 10.000000125062
endloop
endfacet
facet normal 0.0 -1.0 0.0
outer loop
vertex 236.411169269152 -47.2900549987648 10.000000125062
vertex 226.161169269152 -47.2900549987648 3.000000125062
vertex 236.411169269152 -47.2900549987648 3.000000125062
endloop
endfacet
facet normal 0.0 -1.0 0.0
outer loop
vertex 226.161169269152 -47.2900549987648 3.000000125062
vertex 236.411169269152 -47.2900549987648 10.000000125062
vertex 226.161169269152 -47.2900549987648 10.000000125062
endloop
endfacet
facet normal -1.0 -0.0 -0.0
outer loop
vertex 232.411169269152 -33.8900549987648 10.000000125062
vertex 232.411169269152 -43.1900549987648 3.000000125062
vertex 232.411169269152 -43.1900549987648 10.000000125062
endloop
endfacet
facet normal -1.0 -0.0 -0.0
outer loop
vertex 232.411169269152 -43.1900549987648 3.000000125062
vertex 232.411169269152 -33.8900549987648 10.000000125062
vertex 232.411169269152 -33.8900549987648 3.000000125062
endloop
endfacet
facet normal 0.0 1.0 0.0
outer loop
vertex 226.161169269152 -29.7900549987648 10.000000125062
vertex 236.411169269152 -29.7900549987648 3.000000125062
vertex 226.161169269152 -29.7900549987648 3.000000125062
endloop
endfacet
facet normal 0.0 1.0 0.0
outer loop
vertex 236.411169269152 -29.7900549987648 3.000000125062
vertex 226.161169269152 -29.7900549987648 10.000000125062
vertex 236.411169269152 -29.7900549987648 10.000000125062
endloop
endfacet
facet normal -1.0 -0.0 -0.0
outer loop
vertex 226.161169269152 -29.7900549987648 10.000000125062
vertex 226.161169269152 -33.8900549987648 3.000000125062
vertex 226.161169269152 -33.8900549987648 10.000000125062
endloop
endfacet
facet normal -1.0 -0.0 -0.0
outer loop
vertex 226.161169269152 -33.8900549987648 3.000000125062
vertex 226.161169269152 -29.7900549987648 10.000000125062
vertex 226.161169269152 -29.7900549987648 3.000000125062
endloop
endfacet
facet normal 1.0 0.0 0.0
outer loop
vertex 236.411169269152 -29.7900549987648 3.000000125062
vertex 236.411169269152 -47.2900549987648 10.000000125062
vertex 236.411169269152 -47.2900549987648 3.000000125062
endloop
endfacet
facet normal 1.0 0.0 0.0
outer loop
vertex 236.411169269152 -47.2900549987648 10.000000125062
vertex 236.411169269152 -29.7900549987648 3.000000125062
vertex 236.411169269152 -29.7900549987648 10.000000125062
endloop
endfacet
facet normal 0.0 0.0 1.0
outer loop
vertex 236.411169269152 -47.2900549987648 10.000000125062
vertex 226.161169269152 -43.1900549987648 10.000000125062
vertex 226.161169269152 -47.2900549987648 10.000000125062
endloop
endfacet
facet normal 0.0 0.0 1.0
outer loop
vertex 226.161169269152 -43.1900549987648 10.000000125062
vertex 236.411169269152 -47.2900549987648 10.000000125062
vertex 232.411169269152 -43.1900549987648 10.000000125062
endloop
endfacet
facet normal 0.0 0.0 1.0
outer loop
vertex 232.411169269152 -43.1900549987648 10.000000125062
vertex 236.411169269152 -47.2900549987648 10.000000125062
vertex 232.411169269152 -33.8900549987648 10.000000125062
endloop
endfacet
facet normal 0.0 0.0 1.0
outer loop
vertex 232.411169269152 -33.8900549987648 10.000000125062
vertex 226.161169269152 -29.7900549987648 10.000000125062
vertex 226.161169269152 -33.8900549987648 10.000000125062
endloop
endfacet
facet normal 0.0 0.0 1.0
outer loop
vertex 226.161169269152 -29.7900549987648 10.000000125062
vertex 232.411169269152 -33.8900549987648 10.000000125062
vertex 236.411169269152 -29.7900549987648 10.000000125062
endloop
endfacet
facet normal 0.0 0.0 1.0
outer loop
vertex 236.411169269152 -29.7900549987648 10.000000125062
vertex 232.411169269152 -33.8900549987648 10.000000125062
vertex 236.411169269152 -47.2900549987648 10.000000125062
endloop
endfacet
facet normal -1.0 -0.0 -0.0
outer loop
vertex 226.161169269152 -43.1900549987648 10.000000125062
vertex 226.161169269152 -47.2900549987648 3.000000125062
vertex 226.161169269152 -47.2900549987648 10.000000125062
endloop
endfacet
facet normal -1.0 -0.0 -0.0
outer loop
vertex 226.161169269152 -47.2900549987648 3.000000125062
vertex 226.161169269152 -43.1900549987648 10.000000125062
vertex 226.161169269152 -43.1900549987648 3.000000125062
endloop
endfacet
facet normal 0.0 -1.0 0.0
outer loop
vertex 232.411169269152 -33.8900549987648 10.000000125062
vertex 226.161169269152 -33.8900549987648 3.000000125062
vertex 232.411169269152 -33.8900549987648 3.000000125062
endloop
endfacet
facet normal 0.0 -1.0 0.0
outer loop
vertex 226.161169269152 -33.8900549987648 3.000000125062
vertex 232.411169269152 -33.8900549987648 10.000000125062
vertex 226.161169269152 -33.8900549987648 10.000000125062
endloop
endfacet
endsolid FoldaRapX
