  0
SECTION
  2
HEADER
  9
$ACADVER
  1
AC1009
  9
$DWGCODEPAGE
  3
ansi_1252
  9
$INSBASE
 10
0.0
 20
0.0
 30
0.0
  9
$EXTMIN
 10
0.0
 20
0.0
 30
0.0
  9
$EXTMAX
 10
312.0
 20
469.9999999999999
 30
0.0
  9
$LIMMIN
 10
0.0
 20
0.0
  9
$LIMMAX
 10
12.0
 20
9.0
  9
$ORTHOMODE
 70
     0
  9
$REGENMODE
 70
     1
  9
$FILLMODE
 70
     1
  9
$QTEXTMODE
 70
     0
  9
$MIRRTEXT
 70
     1
  9
$DRAGMODE
 70
     2
  9
$LTSCALE
 40
1.0
  9
$OSMODE
 70
    37
  9
$ATTMODE
 70
     1
  9
$TEXTSIZE
 40
0.2
  9
$TRACEWID
 40
0.05
  9
$TEXTSTYLE
  7
STANDARD
  9
$CLAYER
  8
0
  9
$CELTYPE
  6
BYLAYER
  9
$CECOLOR
 62
   256
  9
$DIMSCALE
 40
1.0
  9
$DIMASZ
 40
0.18
  9
$DIMEXO
 40
0.0625
  9
$DIMDLI
 40
0.38
  9
$DIMRND
 40
0.0
  9
$DIMDLE
 40
0.0
  9
$DIMEXE
 40
0.18
  9
$DIMTP
 40
0.0
  9
$DIMTM
 40
0.0
  9
$DIMTXT
 40
0.18
  9
$DIMCEN
 40
0.09
  9
$DIMTSZ
 40
0.0
  9
$DIMTOL
 70
     0
  9
$DIMLIM
 70
     0
  9
$DIMTIH
 70
     1
  9
$DIMTOH
 70
     1
  9
$DIMSE1
 70
     0
  9
$DIMSE2
 70
     0
  9
$DIMTAD
 70
     0
  9
$DIMZIN
 70
     0
  9
$DIMBLK
  1

  9
$DIMASO
 70
     1
  9
$DIMSHO
 70
     1
  9
$DIMPOST
  1

  9
$DIMAPOST
  1

  9
$DIMALT
 70
     0
  9
$DIMALTD
 70
     2
  9
$DIMALTF
 40
25.4
  9
$DIMLFAC
 40
1.0
  9
$DIMTOFL
 70
     0
  9
$DIMTVP
 40
0.0
  9
$DIMTIX
 70
     0
  9
$DIMSOXD
 70
     0
  9
$DIMSAH
 70
     0
  9
$DIMBLK1
  1

  9
$DIMBLK2
  1

  9
$DIMSTYLE
  2
STANDARD
  9
$DIMCLRD
 70
     0
  9
$DIMCLRE
 70
     0
  9
$DIMCLRT
 70
     0
  9
$DIMTFAC
 40
1.0
  9
$DIMGAP
 40
0.09
  9
$LUNITS
 70
     2
  9
$LUPREC
 70
     4
  9
$SKETCHINC
 40
0.1
  9
$FILLETRAD
 40
0.5
  9
$AUNITS
 70
     0
  9
$AUPREC
 70
     0
  9
$MENU
  1
.
  9
$ELEVATION
 40
0.0
  9
$PELEVATION
 40
0.0
  9
$THICKNESS
 40
0.0
  9
$LIMCHECK
 70
     0
  9
$CHAMFERA
 40
0.0
  9
$CHAMFERB
 40
0.0
  9
$SKPOLY
 70
     0
  9
$TDCREATE
 40
2454910.5
  9
$TDUPDATE
 40
2458513.787322141
  9
$TDINDWG
 40
0.0000000116
  9
$TDUSRTIMER
 40
0.0000000116
  9
$USRTIMER
 70
     1
  9
$ANGBASE
 50
0.0
  9
$ANGDIR
 70
     0
  9
$PDMODE
 70
     0
  9
$PDSIZE
 40
0.0
  9
$PLINEWID
 40
0.0
  9
$COORDS
 70
     1
  9
$SPLFRAME
 70
     0
  9
$SPLINETYPE
 70
     6
  9
$SPLINESEGS
 70
     8
  9
$ATTDIA
 70
     0
  9
$ATTREQ
 70
     1
  9
$HANDLING
 70
     1
  9
$HANDSEED
  5
435
  9
$SURFTAB1
 70
     6
  9
$SURFTAB2
 70
     6
  9
$SURFTYPE
 70
     6
  9
$SURFU
 70
     6
  9
$SURFV
 70
     6
  9
$UCSNAME
  2

  9
$UCSORG
 10
0.0
 20
0.0
 30
0.0
  9
$UCSXDIR
 10
1.0
 20
0.0
 30
0.0
  9
$UCSYDIR
 10
0.0
 20
1.0
 30
0.0
  9
$PUCSNAME
  2

  9
$PUCSORG
 10
0.0
 20
0.0
 30
0.0
  9
$PUCSXDIR
 10
1.0
 20
0.0
 30
0.0
  9
$PUCSYDIR
 10
0.0
 20
1.0
 30
0.0
  9
$USERI1
 70
     0
  9
$USERI2
 70
     0
  9
$USERI3
 70
     0
  9
$USERI4
 70
     0
  9
$USERI5
 70
     0
  9
$USERR1
 40
0.0
  9
$USERR2
 40
0.0
  9
$USERR3
 40
0.0
  9
$USERR4
 40
0.0
  9
$USERR5
 40
0.0
  9
$WORLDVIEW
 70
     1
  9
$SHADEDGE
 70
     3
  9
$SHADEDIF
 70
    70
  9
$TILEMODE
 70
     1
  9
$MAXACTVP
 70
    64
  9
$PLIMCHECK
 70
     0
  9
$PEXTMIN
 10
1.000000000000000E+20
 20
1.000000000000000E+20
 30
1.000000000000000E+20
  9
$PEXTMAX
 10
-1.000000000000000E+20
 20
-1.000000000000000E+20
 30
-1.000000000000000E+20
  9
$PLIMMIN
 10
0.0
 20
0.0
  9
$PLIMMAX
 10
12.0
 20
9.0
  9
$UNITMODE
 70
     0
  9
$VISRETAIN
 70
     1
  9
$PLINEGEN
 70
     0
  9
$PSLTSCALE
 70
     1
  0
ENDSEC
  0
SECTION
  2
TABLES
  0
TABLE
  2
VPORT
 70
     1
  0
VPORT
  2
*ACTIVE
 70
     0
 10
0.0
 20
0.0
 11
1.0
 21
1.0
 12
10.42990654205607
 22
4.5
 13
0.0
 23
0.0
 14
0.5
 24
0.5
 15
0.5
 25
0.5
 16
0.0
 26
0.0
 36
1.0
 17
0.0
 27
0.0
 37
0.0
 40
9.0
 41
1.972972972850329
 42
50.0
 43
0.0
 44
0.0
 50
0.0
 51
0.0
 71
     0
 72
   100
 73
     1
 74
     3
 75
     0
 76
     0
 77
     0
 78
     0
  0
ENDTAB
  0
TABLE
  2
LTYPE
 70
     2
  0
LTYPE
  2
CONTINUOUS
 70
     0
  3
Solid line
 72
    65
 73
     0
 40
0.0
  0
LTYPE
  2
CONTINUOUS2
 70
     0
  3
Solid Line
 72
    65
 73
     0
 40
0.0
  0
ENDTAB
  0
TABLE
  2
LAYER
 70
     2
  0
LAYER
  2
0
 70
     0
 62
     7
  6
CONTINUOUS
  0
LAYER
  2
GROUP0
 70
     0
 62
    18
  6
CONTINUOUS
  0
ENDTAB
  0
TABLE
  2
STYLE
 70
     1
  0
STYLE
  2
STANDARD
 70
     0
 40
0.0
 41
1.0
 50
0.0
 71
     0
 42
0.2
  3
txt
  4

  0
ENDTAB
  0
TABLE
  2
VIEW
 70
     0
  0
ENDTAB
  0
TABLE
  2
UCS
 70
     0
  0
ENDTAB
  0
TABLE
  2
APPID
 70
     1
  0
APPID
  2
ACAD
 70
     0
  0
ENDTAB
  0
TABLE
  2
DIMSTYLE
 70
     1
  0
DIMSTYLE
  2
STANDARD
 70
     0
  3

  4

  5

  6

  7

 40
1.0
 41
0.18
 42
0.0625
 43
0.38
 44
0.18
 45
0.0
 46
0.0
 47
0.0
 48
0.0
140
0.18
141
0.09
142
0.0
143
25.4
144
1.0
145
0.0
146
1.0
147
0.09
 71
     0
 72
     0
 73
     1
 74
     1
 75
     0
 76
     0
 77
     0
 78
     0
170
     0
171
     2
172
     0
173
     0
174
     0
175
     0
176
     0
177
     0
178
     0
  0
ENDTAB
  0
ENDSEC
  0
SECTION
  2
BLOCKS
  0
BLOCK
  8
0
  2
$MODEL_SPACE
 70
     0
 10
0.0
 20
0.0
 30
0.0
  3
$MODEL_SPACE
  1

  0
ENDBLK
  5
21
  8
0
  0
BLOCK
 67
     1
  8
0
  2
$PAPER_SPACE
 70
     0
 10
0.0
 20
0.0
 30
0.0
  3
$PAPER_SPACE
  1

  0
ENDBLK
  5
1D
 67
     1
  8
0
  0
ENDSEC
  0
SECTION
  2
ENTITIES
  0
POLYLINE
  5
70
  8
GROUP0
 66
     1
 10
0.0
 20
0.0
 30
0.0
 70
     1
  0
VERTEX
  5
9E
  8
GROUP0
 10
299.950963898817
 20
465.7500082246769
 30
0.0
  0
VERTEX
  5
9F
  8
GROUP0
 10
300.189342047108
 20
465.439348217408
 30
0.0
  0
VERTEX
  5
A0
  8
GROUP0
 10
300.5000023833981
 20
465.2009704979059
 30
0.0
  0
VERTEX
  5
A1
  8
GROUP0
 10
300.86177391916
 20
465.051120113816
 30
0.0
  0
VERTEX
  5
A2
  8
GROUP0
 10
301.250002522087
 20
465.0000091211759
 30
0.0
  0
VERTEX
  5
A3
  8
GROUP0
 10
301.638231054467
 20
465.051120649669
 30
0.0
  0
VERTEX
  5
A4
  8
GROUP0
 10
302.0000023833981
 20
465.2009715330939
 30
0.0
  0
VERTEX
  5
A5
  8
GROUP0
 10
302.3106623906669
 20
465.439349681384
 30
0.0
  0
VERTEX
  5
A6
  8
GROUP0
 10
302.549040110169
 20
465.750010017674
 30
0.0
  0
VERTEX
  5
A7
  8
GROUP0
 10
302.698890494258
 20
466.1117815534359
 30
0.0
  0
VERTEX
  5
A8
  8
GROUP0
 10
302.750001486899
 20
466.5000101563629
 30
0.0
  0
VERTEX
  5
A9
  8
GROUP0
 10
302.698889958406
 20
466.8882386887429
 30
0.0
  0
VERTEX
  5
AA
  8
GROUP0
 10
302.549039074982
 20
467.2500100176729
 30
0.0
  0
VERTEX
  5
AB
  8
GROUP0
 10
302.310660926691
 20
467.5606700249419
 30
0.0
  0
VERTEX
  5
AC
  8
GROUP0
 10
302.0000005904
 20
467.7990477444449
 30
0.0
  0
VERTEX
  5
AD
  8
GROUP0
 10
301.6382290546391
 20
467.948898128534
 30
0.0
  0
VERTEX
  5
AE
  8
GROUP0
 10
301.250000451712
 20
468.0000091211739
 30
0.0
  0
VERTEX
  5
AF
  8
GROUP0
 10
300.861771919331
 20
467.948897592681
 30
0.0
  0
VERTEX
  5
B0
  8
GROUP0
 10
300.5000005904
 20
467.7990467092569
 30
0.0
  0
VERTEX
  5
B1
  8
GROUP0
 10
300.189340583131
 20
467.560668560966
 30
0.0
  0
VERTEX
  5
B2
  8
GROUP0
 10
299.950962863629
 20
467.250008224676
 30
0.0
  0
VERTEX
  5
B3
  8
GROUP0
 10
299.8011124795401
 20
466.8882366889139
 30
0.0
  0
VERTEX
  5
B4
  8
GROUP0
 10
299.750001486899
 20
466.5000080859879
 30
0.0
  0
VERTEX
  5
B5
  8
GROUP0
 10
299.801113015392
 20
466.111779553607
 30
0.0
  0
SEQEND
  5
40E
  8
GROUP0
  0
POLYLINE
  5
71
  8
GROUP0
 66
     1
 10
0.0
 20
0.0
 30
0.0
 70
     1
  0
VERTEX
  5
B6
  8
GROUP0
 10
299.950974250692
 20
450.7500082246879
 30
0.0
  0
VERTEX
  5
B7
  8
GROUP0
 10
300.189352398983
 20
450.4393482174189
 30
0.0
  0
VERTEX
  5
B8
  8
GROUP0
 10
300.500012735274
 20
450.2009704979159
 30
0.0
  0
VERTEX
  5
B9
  8
GROUP0
 10
300.861784271035
 20
450.051120113827
 30
0.0
  0
VERTEX
  5
BA
  8
GROUP0
 10
301.250012873962
 20
450.000009121187
 30
0.0
  0
VERTEX
  5
BB
  8
GROUP0
 10
301.638241406343
 20
450.051120649679
 30
0.0
  0
VERTEX
  5
BC
  8
GROUP0
 10
302.000012735273
 20
450.2009715331039
 30
0.0
  0
VERTEX
  5
BD
  8
GROUP0
 10
302.310672742542
 20
450.4393496813949
 30
0.0
  0
VERTEX
  5
BE
  8
GROUP0
 10
302.549050462045
 20
450.750010017685
 30
0.0
  0
VERTEX
  5
BF
  8
GROUP0
 10
302.6989008461341
 20
451.1117815534469
 30
0.0
  0
VERTEX
  5
C0
  8
GROUP0
 10
302.750011838774
 20
451.5000101563729
 30
0.0
  0
VERTEX
  5
C1
  8
GROUP0
 10
302.6989003102821
 20
451.888238688754
 30
0.0
  0
VERTEX
  5
C2
  8
GROUP0
 10
302.549049426857
 20
452.250010017684
 30
0.0
  0
VERTEX
  5
C3
  8
GROUP0
 10
302.310671278566
 20
452.560670024953
 30
0.0
  0
VERTEX
  5
C4
  8
GROUP0
 10
302.000010942276
 20
452.7990477444549
 30
0.0
  0
VERTEX
  5
C5
  8
GROUP0
 10
301.638239406514
 20
452.9488981285449
 30
0.0
  0
VERTEX
  5
C6
  8
GROUP0
 10
301.250010803587
 20
453.0000091211849
 30
0.0
  0
VERTEX
  5
C7
  8
GROUP0
 10
300.8617822712069
 20
452.948897592692
 30
0.0
  0
VERTEX
  5
C8
  8
GROUP0
 10
300.500010942276
 20
452.7990467092679
 30
0.0
  0
VERTEX
  5
C9
  8
GROUP0
 10
300.189350935007
 20
452.560668560977
 30
0.0
  0
VERTEX
  5
CA
  8
GROUP0
 10
299.950973215505
 20
452.2500082246869
 30
0.0
  0
VERTEX
  5
CB
  8
GROUP0
 10
299.801122831415
 20
451.888236688925
 30
0.0
  0
VERTEX
  5
CC
  8
GROUP0
 10
299.750011838775
 20
451.5000080859979
 30
0.0
  0
VERTEX
  5
CD
  8
GROUP0
 10
299.801123367268
 20
451.1117795536179
 30
0.0
  0
SEQEND
  5
40F
  8
GROUP0
  0
POLYLINE
  5
72
  8
GROUP0
 66
     1
 10
0.0
 20
0.0
 30
0.0
 70
     1
  0
VERTEX
  5
CE
  8
GROUP0
 10
289.9509638988191
 20
465.750001323426
 30
0.0
  0
VERTEX
  5
CF
  8
GROUP0
 10
290.18934204711
 20
465.439341316157
 30
0.0
  0
VERTEX
  5
D0
  8
GROUP0
 10
290.5000023834
 20
465.2009635966549
 30
0.0
  0
VERTEX
  5
D1
  8
GROUP0
 10
290.861773919162
 20
465.051113212566
 30
0.0
  0
VERTEX
  5
D2
  8
GROUP0
 10
291.2500025220889
 20
465.0000022199259
 30
0.0
  0
VERTEX
  5
D3
  8
GROUP0
 10
291.63823105447
 20
465.0511137484179
 30
0.0
  0
VERTEX
  5
D4
  8
GROUP0
 10
292.0000023834
 20
465.2009646318429
 30
0.0
  0
VERTEX
  5
D5
  8
GROUP0
 10
292.310662390669
 20
465.439342780134
 30
0.0
  0
VERTEX
  5
D6
  8
GROUP0
 10
292.549040110172
 20
465.750003116424
 30
0.0
  0
VERTEX
  5
D7
  8
GROUP0
 10
292.698890494261
 20
466.1117746521859
 30
0.0
  0
VERTEX
  5
D8
  8
GROUP0
 10
292.7500014869011
 20
466.5000032551119
 30
0.0
  0
VERTEX
  5
D9
  8
GROUP0
 10
292.698889958408
 20
466.8882317874929
 30
0.0
  0
VERTEX
  5
DA
  8
GROUP0
 10
292.549039074984
 20
467.2500031164229
 30
0.0
  0
VERTEX
  5
DB
  8
GROUP0
 10
292.310660926693
 20
467.5606631236919
 30
0.0
  0
VERTEX
  5
DC
  8
GROUP0
 10
292.000000590402
 20
467.7990408431939
 30
0.0
  0
VERTEX
  5
DD
  8
GROUP0
 10
291.638229054641
 20
467.948891227283
 30
0.0
  0
VERTEX
  5
DE
  8
GROUP0
 10
291.250000451714
 20
468.000002219924
 30
0.0
  0
VERTEX
  5
DF
  8
GROUP0
 10
290.861771919333
 20
467.948890691431
 30
0.0
  0
VERTEX
  5
E0
  8
GROUP0
 10
290.500000590403
 20
467.7990398080069
 30
0.0
  0
VERTEX
  5
E1
  8
GROUP0
 10
290.189340583134
 20
467.5606616597159
 30
0.0
  0
VERTEX
  5
E2
  8
GROUP0
 10
289.950962863631
 20
467.250001323425
 30
0.0
  0
VERTEX
  5
E3
  8
GROUP0
 10
289.801112479542
 20
466.8882297876639
 30
0.0
  0
VERTEX
  5
E4
  8
GROUP0
 10
289.750001486902
 20
466.5000011847369
 30
0.0
  0
VERTEX
  5
E5
  8
GROUP0
 10
289.801113015394
 20
466.111772652357
 30
0.0
  0
SEQEND
  5
410
  8
GROUP0
  0
POLYLINE
  5
73
  8
GROUP0
 66
     1
 10
0.0
 20
0.0
 30
0.0
 70
     1
  0
VERTEX
  5
E6
  8
GROUP0
 10
299.700926333527
 20
438.278205644186
 30
0.0
  0
VERTEX
  5
E7
  8
GROUP0
 10
299.9393042674239
 20
437.967545472406
 30
0.0
  0
VERTEX
  5
E8
  8
GROUP0
 10
300.2499644392039
 20
437.72916753851
 30
0.0
  0
VERTEX
  5
E9
  8
GROUP0
 10
300.277801199801
 20
437.7176371747379
 30
0.0
  0
VERTEX
  5
EA
  8
GROUP0
 10
300.61173587155
 20
437.5793169047529
 30
0.0
  0
VERTEX
  5
EB
  8
GROUP0
 10
300.9999644392039
 20
437.528205644186
 30
0.0
  0
VERTEX
  5
EC
  8
GROUP0
 10
301.388193006858
 20
437.5793169047529
 30
0.0
  0
VERTEX
  5
ED
  8
GROUP0
 10
301.7499644392039
 20
437.72916753851
 30
0.0
  0
VERTEX
  5
EE
  8
GROUP0
 10
302.060624610984
 20
437.967545472406
 30
0.0
  0
VERTEX
  5
EF
  8
GROUP0
 10
302.299002544881
 20
438.278205644186
 30
0.0
  0
VERTEX
  5
F0
  8
GROUP0
 10
302.448853178638
 20
438.639977076532
 30
0.0
  0
VERTEX
  5
F1
  8
GROUP0
 10
302.4999644392039
 20
439.028205644186
 30
0.0
  0
VERTEX
  5
F2
  8
GROUP0
 10
302.448853178638
 20
439.4164342118399
 30
0.0
  0
VERTEX
  5
F3
  8
GROUP0
 10
302.299002544881
 20
439.778205644186
 30
0.0
  0
VERTEX
  5
F4
  8
GROUP0
 10
302.060624610984
 20
440.088865815966
 30
0.0
  0
VERTEX
  5
F5
  8
GROUP0
 10
301.7499644392039
 20
440.327243749863
 30
0.0
  0
VERTEX
  5
F6
  8
GROUP0
 10
301.388193006858
 20
440.4770943836199
 30
0.0
  0
VERTEX
  5
F7
  8
GROUP0
 10
300.9999644392039
 20
440.528205644186
 30
0.0
  0
VERTEX
  5
F8
  8
GROUP0
 10
300.61173587155
 20
440.4770943836199
 30
0.0
  0
VERTEX
  5
F9
  8
GROUP0
 10
300.2499644392039
 20
440.327243749863
 30
0.0
  0
VERTEX
  5
FA
  8
GROUP0
 10
300.17992560378
 20
440.2735010612349
 30
0.0
  0
VERTEX
  5
FB
  8
GROUP0
 10
299.9393042674239
 20
440.088865815966
 30
0.0
  0
VERTEX
  5
FC
  8
GROUP0
 10
299.700926333527
 20
439.778205644186
 30
0.0
  0
VERTEX
  5
FD
  8
GROUP0
 10
299.55107569977
 20
439.4164342118399
 30
0.0
  0
VERTEX
  5
FE
  8
GROUP0
 10
299.4999644392039
 20
439.028205644186
 30
0.0
  0
VERTEX
  5
FF
  8
GROUP0
 10
299.55107569977
 20
438.639977076532
 30
0.0
  0
SEQEND
  5
411
  8
GROUP0
  0
POLYLINE
  5
74
  8
GROUP0
 66
     1
 10
0.0
 20
0.0
 30
0.0
 70
     1
  0
VERTEX
  5
100
  8
GROUP0
 10
289.950974250695
 20
450.7500013234369
 30
0.0
  0
VERTEX
  5
101
  8
GROUP0
 10
290.189352398986
 20
450.439341316168
 30
0.0
  0
VERTEX
  5
102
  8
GROUP0
 10
290.500012735276
 20
450.2009635966659
 30
0.0
  0
VERTEX
  5
103
  8
GROUP0
 10
290.861784271038
 20
450.051113212577
 30
0.0
  0
VERTEX
  5
104
  8
GROUP0
 10
291.250012873965
 20
450.000002219937
 30
0.0
  0
VERTEX
  5
105
  8
GROUP0
 10
291.6382414063449
 20
450.051113748429
 30
0.0
  0
VERTEX
  5
106
  8
GROUP0
 10
292.000012735276
 20
450.2009646318539
 30
0.0
  0
VERTEX
  5
107
  8
GROUP0
 10
292.310672742545
 20
450.4393427801449
 30
0.0
  0
VERTEX
  5
108
  8
GROUP0
 10
292.549050462047
 20
450.750003116435
 30
0.0
  0
VERTEX
  5
109
  8
GROUP0
 10
292.698900846137
 20
451.1117746521959
 30
0.0
  0
VERTEX
  5
10A
  8
GROUP0
 10
292.750011838777
 20
451.5000032551229
 30
0.0
  0
VERTEX
  5
10B
  8
GROUP0
 10
292.698900310284
 20
451.8882317875029
 30
0.0
  0
VERTEX
  5
10C
  8
GROUP0
 10
292.5490494268601
 20
452.250003116434
 30
0.0
  0
VERTEX
  5
10D
  8
GROUP0
 10
292.310671278569
 20
452.560663123703
 30
0.0
  0
VERTEX
  5
10E
  8
GROUP0
 10
292.000010942278
 20
452.7990408432049
 30
0.0
  0
VERTEX
  5
10F
  8
GROUP0
 10
291.638239406516
 20
452.948891227294
 30
0.0
  0
VERTEX
  5
110
  8
GROUP0
 10
291.250010803589
 20
453.0000022199349
 30
0.0
  0
VERTEX
  5
111
  8
GROUP0
 10
290.861782271209
 20
452.948890691442
 30
0.0
  0
VERTEX
  5
112
  8
GROUP0
 10
290.500010942279
 20
452.7990398080169
 30
0.0
  0
VERTEX
  5
113
  8
GROUP0
 10
290.189350935009
 20
452.560661659726
 30
0.0
  0
VERTEX
  5
114
  8
GROUP0
 10
289.950973215507
 20
452.250001323436
 30
0.0
  0
VERTEX
  5
115
  8
GROUP0
 10
289.801122831418
 20
451.888229787675
 30
0.0
  0
VERTEX
  5
116
  8
GROUP0
 10
289.750011838777
 20
451.5000011847479
 30
0.0
  0
VERTEX
  5
117
  8
GROUP0
 10
289.80112336727
 20
451.1117726523679
 30
0.0
  0
SEQEND
  5
412
  8
GROUP0
  0
POLYLINE
  5
75
  8
GROUP0
 66
     1
 10
0.0
 20
0.0
 30
0.0
 70
     1
  0
VERTEX
  5
118
  8
GROUP0
 10
276.767913725959
 20
435.499964533425
 30
0.0
  0
VERTEX
  5
119
  8
GROUP0
 10
277.085750971155
 20
435.085750971052
 30
0.0
  0
VERTEX
  5
11A
  8
GROUP0
 10
277.499964533528
 20
434.7679137258569
 30
0.0
  0
VERTEX
  5
11B
  8
GROUP0
 10
277.982326443323
 20
434.5681128808469
 30
0.0
  0
VERTEX
  5
11C
  8
GROUP0
 10
278.499964533528
 20
434.499964533425
 30
0.0
  0
VERTEX
  5
11D
  8
GROUP0
 10
279.017602623733
 20
434.5681128808469
 30
0.0
  0
VERTEX
  5
11E
  8
GROUP0
 10
279.499964533528
 20
434.7679137258569
 30
0.0
  0
VERTEX
  5
11F
  8
GROUP0
 10
279.914178095902
 20
435.085750971052
 30
0.0
  0
VERTEX
  5
120
  8
GROUP0
 10
280.2320153410971
 20
435.499964533425
 30
0.0
  0
VERTEX
  5
121
  8
GROUP0
 10
280.431816186107
 20
435.9823264432209
 30
0.0
  0
VERTEX
  5
122
  8
GROUP0
 10
280.499964533528
 20
436.499964533425
 30
0.0
  0
VERTEX
  5
123
  8
GROUP0
 10
280.431816186107
 20
437.01760262363
 30
0.0
  0
VERTEX
  5
124
  8
GROUP0
 10
280.2320153410971
 20
437.499964533425
 30
0.0
  0
VERTEX
  5
125
  8
GROUP0
 10
279.914178095902
 20
437.9141780957989
 30
0.0
  0
VERTEX
  5
126
  8
GROUP0
 10
279.499964533528
 20
438.2320153409939
 30
0.0
  0
VERTEX
  5
127
  8
GROUP0
 10
279.017602623733
 20
438.431816186004
 30
0.0
  0
VERTEX
  5
128
  8
GROUP0
 10
278.499964533528
 20
438.499964533425
 30
0.0
  0
VERTEX
  5
129
  8
GROUP0
 10
277.982326443323
 20
438.431816186004
 30
0.0
  0
VERTEX
  5
12A
  8
GROUP0
 10
277.499964533528
 20
438.2320153409939
 30
0.0
  0
VERTEX
  5
12B
  8
GROUP0
 10
277.085750971155
 20
437.9141780957989
 30
0.0
  0
VERTEX
  5
12C
  8
GROUP0
 10
276.767913725959
 20
437.499964533425
 30
0.0
  0
VERTEX
  5
12D
  8
GROUP0
 10
276.56811288095
 20
437.01760262363
 30
0.0
  0
VERTEX
  5
12E
  8
GROUP0
 10
276.499964533528
 20
436.499964533425
 30
0.0
  0
VERTEX
  5
12F
  8
GROUP0
 10
276.56811288095
 20
435.9823264432209
 30
0.0
  0
SEQEND
  5
413
  8
GROUP0
  0
POLYLINE
  5
76
  8
GROUP0
 66
     1
 10
0.0
 20
0.0
 30
0.0
 70
     1
  0
VERTEX
  5
130
  8
GROUP0
 10
255.172752312074
 20
458.249964439225
 30
0.0
  0
VERTEX
  5
131
  8
GROUP0
 10
255.411130245971
 20
457.939304267445
 30
0.0
  0
VERTEX
  5
132
  8
GROUP0
 10
255.721790417751
 20
457.700926333548
 30
0.0
  0
VERTEX
  5
133
  8
GROUP0
 10
256.083561850097
 20
457.551075699791
 30
0.0
  0
VERTEX
  5
134
  8
GROUP0
 10
256.471790417751
 20
457.499964439225
 30
0.0
  0
VERTEX
  5
135
  8
GROUP0
 10
256.8600189854041
 20
457.551075699791
 30
0.0
  0
VERTEX
  5
136
  8
GROUP0
 10
257.221790417751
 20
457.700926333548
 30
0.0
  0
VERTEX
  5
137
  8
GROUP0
 10
257.53245058953
 20
457.939304267445
 30
0.0
  0
VERTEX
  5
138
  8
GROUP0
 10
257.770828523427
 20
458.249964439225
 30
0.0
  0
VERTEX
  5
139
  8
GROUP0
 10
257.9206791571841
 20
458.6117358715709
 30
0.0
  0
VERTEX
  5
13A
  8
GROUP0
 10
257.971790417751
 20
458.999964439225
 30
0.0
  0
VERTEX
  5
13B
  8
GROUP0
 10
257.9206791571841
 20
459.3881930068779
 30
0.0
  0
VERTEX
  5
13C
  8
GROUP0
 10
257.770828523427
 20
459.749964439225
 30
0.0
  0
VERTEX
  5
13D
  8
GROUP0
 10
257.53245058953
 20
460.060624611005
 30
0.0
  0
VERTEX
  5
13E
  8
GROUP0
 10
257.221790417751
 20
460.299002544901
 30
0.0
  0
VERTEX
  5
13F
  8
GROUP0
 10
256.8600189854041
 20
460.4488531786579
 30
0.0
  0
VERTEX
  5
140
  8
GROUP0
 10
256.471790417751
 20
460.499964439225
 30
0.0
  0
VERTEX
  5
141
  8
GROUP0
 10
256.083561850097
 20
460.4488531786579
 30
0.0
  0
VERTEX
  5
142
  8
GROUP0
 10
255.721790417751
 20
460.299002544901
 30
0.0
  0
VERTEX
  5
143
  8
GROUP0
 10
255.411130245971
 20
460.060624611005
 30
0.0
  0
VERTEX
  5
144
  8
GROUP0
 10
255.172752312074
 20
459.749964439225
 30
0.0
  0
VERTEX
  5
145
  8
GROUP0
 10
255.022901678317
 20
459.3881930068779
 30
0.0
  0
VERTEX
  5
146
  8
GROUP0
 10
254.971790417751
 20
458.999964439225
 30
0.0
  0
VERTEX
  5
147
  8
GROUP0
 10
255.022901678317
 20
458.6117358715709
 30
0.0
  0
SEQEND
  5
414
  8
GROUP0
  0
POLYLINE
  5
77
  8
GROUP0
 66
     1
 10
0.0
 20
0.0
 30
0.0
 70
     1
  0
VERTEX
  5
148
  8
GROUP0
 10
296.4999644392479
 20
234.028205647109
 30
0.0
  0
VERTEX
  5
149
  8
GROUP0
 10
296.4999644392479
 20
434.0282056471109
 30
0.0
  0
VERTEX
  5
14A
  8
GROUP0
 10
305.4999644392039
 20
434.0282056471109
 30
0.0
  0
VERTEX
  5
14B
  8
GROUP0
 10
305.4999644392039
 20
234.028205647109
 30
0.0
  0
SEQEND
  5
415
  8
GROUP0
  0
POLYLINE
  5
78
  8
GROUP0
 66
     1
 10
0.0
 20
0.0
 30
0.0
 70
     1
  0
VERTEX
  5
14C
  8
GROUP0
 10
299.939304267456
 20
227.9675454995629
 30
0.0
  0
VERTEX
  5
14D
  8
GROUP0
 10
300.249964439236
 20
227.729167565666
 30
0.0
  0
VERTEX
  5
14E
  8
GROUP0
 10
300.611735871582
 20
227.5793169319099
 30
0.0
  0
VERTEX
  5
14F
  8
GROUP0
 10
300.999964439236
 20
227.5282056713429
 30
0.0
  0
VERTEX
  5
150
  8
GROUP0
 10
301.38819300689
 20
227.5793169319099
 30
0.0
  0
VERTEX
  5
151
  8
GROUP0
 10
301.749964439236
 20
227.729167565666
 30
0.0
  0
VERTEX
  5
152
  8
GROUP0
 10
302.060624611016
 20
227.9675454995629
 30
0.0
  0
VERTEX
  5
153
  8
GROUP0
 10
302.299002544913
 20
228.2782056713429
 30
0.0
  0
VERTEX
  5
154
  8
GROUP0
 10
302.44885317867
 20
228.6399771036889
 30
0.0
  0
VERTEX
  5
155
  8
GROUP0
 10
302.499964439236
 20
229.0282056713429
 30
0.0
  0
VERTEX
  5
156
  8
GROUP0
 10
302.44885317867
 20
229.416434238997
 30
0.0
  0
VERTEX
  5
157
  8
GROUP0
 10
302.299002544913
 20
229.7782056713429
 30
0.0
  0
VERTEX
  5
158
  8
GROUP0
 10
302.060624611016
 20
230.0888658431229
 30
0.0
  0
VERTEX
  5
159
  8
GROUP0
 10
301.749964439236
 20
230.3272437770199
 30
0.0
  0
VERTEX
  5
15A
  8
GROUP0
 10
301.38819300689
 20
230.477094410777
 30
0.0
  0
VERTEX
  5
15B
  8
GROUP0
 10
300.999964439236
 20
230.5282056713429
 30
0.0
  0
VERTEX
  5
15C
  8
GROUP0
 10
300.611735871582
 20
230.477094410777
 30
0.0
  0
VERTEX
  5
15D
  8
GROUP0
 10
300.249964439236
 20
230.3272437770199
 30
0.0
  0
VERTEX
  5
15E
  8
GROUP0
 10
299.939304267456
 20
230.0888658431229
 30
0.0
  0
VERTEX
  5
15F
  8
GROUP0
 10
299.700926333559
 20
229.7782056713429
 30
0.0
  0
VERTEX
  5
160
  8
GROUP0
 10
299.551075699802
 20
229.416434238997
 30
0.0
  0
VERTEX
  5
161
  8
GROUP0
 10
299.499964439236
 20
229.0282056713429
 30
0.0
  0
VERTEX
  5
162
  8
GROUP0
 10
299.551075699802
 20
228.6399771036889
 30
0.0
  0
VERTEX
  5
163
  8
GROUP0
 10
299.700926333559
 20
228.2782056713429
 30
0.0
  0
SEQEND
  5
416
  8
GROUP0
  0
POLYLINE
  5
79
  8
GROUP0
 66
     1
 10
0.0
 20
0.0
 30
0.0
 70
     1
  0
VERTEX
  5
164
  8
GROUP0
 10
159.864359353945
 20
387.6999999999999
 30
0.0
  0
VERTEX
  5
165
  8
GROUP0
 10
159.704518677937
 20
388.0858895278359
 30
0.0
  0
VERTEX
  5
166
  8
GROUP0
 10
159.65
 20
388.4999999999999
 30
0.0
  0
VERTEX
  5
167
  8
GROUP0
 10
159.704518677937
 20
388.914110472164
 30
0.0
  0
VERTEX
  5
168
  8
GROUP0
 10
159.864359353945
 20
389.3
 30
0.0
  0
VERTEX
  5
169
  8
GROUP0
 10
160.118629150101
 20
389.631370849899
 30
0.0
  0
VERTEX
  5
16A
  8
GROUP0
 10
160.45
 20
389.885640646055
 30
0.0
  0
VERTEX
  5
16B
  8
GROUP0
 10
160.835889527836
 20
390.045481322063
 30
0.0
  0
VERTEX
  5
16C
  8
GROUP0
 10
161.25
 20
390.0999999999999
 30
0.0
  0
VERTEX
  5
16D
  8
GROUP0
 10
161.664110472164
 20
390.045481322063
 30
0.0
  0
VERTEX
  5
16E
  8
GROUP0
 10
162.05
 20
389.885640646055
 30
0.0
  0
VERTEX
  5
16F
  8
GROUP0
 10
162.381370849898
 20
389.631370849899
 30
0.0
  0
VERTEX
  5
170
  8
GROUP0
 10
162.635640646055
 20
389.3
 30
0.0
  0
VERTEX
  5
171
  8
GROUP0
 10
162.795481322062
 20
388.914110472164
 30
0.0
  0
VERTEX
  5
172
  8
GROUP0
 10
162.85
 20
388.4999999999999
 30
0.0
  0
VERTEX
  5
173
  8
GROUP0
 10
162.795481322062
 20
388.0858895278359
 30
0.0
  0
VERTEX
  5
174
  8
GROUP0
 10
162.635640646055
 20
387.6999999999999
 30
0.0
  0
VERTEX
  5
175
  8
GROUP0
 10
162.381370849898
 20
387.3686291501019
 30
0.0
  0
VERTEX
  5
176
  8
GROUP0
 10
162.05
 20
387.1143593539449
 30
0.0
  0
VERTEX
  5
177
  8
GROUP0
 10
161.664110472164
 20
386.9545186779379
 30
0.0
  0
VERTEX
  5
178
  8
GROUP0
 10
161.25
 20
386.9
 30
0.0
  0
VERTEX
  5
179
  8
GROUP0
 10
160.835889527836
 20
386.9545186779379
 30
0.0
  0
VERTEX
  5
17A
  8
GROUP0
 10
160.45
 20
387.1143593539449
 30
0.0
  0
VERTEX
  5
17B
  8
GROUP0
 10
160.118629150101
 20
387.3686291501019
 30
0.0
  0
SEQEND
  5
417
  8
GROUP0
  0
POLYLINE
  5
7A
  8
GROUP0
 66
     1
 10
0.0
 20
0.0
 30
0.0
 70
     1
  0
VERTEX
  5
17C
  8
GROUP0
 10
307.750003116427
 20
192.950955954689
 30
0.0
  0
VERTEX
  5
17D
  8
GROUP0
 10
308.111774652188
 20
192.8011055705999
 30
0.0
  0
VERTEX
  5
17E
  8
GROUP0
 10
308.500003255115
 20
192.7499945779589
 30
0.0
  0
VERTEX
  5
17F
  8
GROUP0
 10
308.888231787495
 20
192.8011061064519
 30
0.0
  0
VERTEX
  5
180
  8
GROUP0
 10
309.250003116426
 20
192.950956989876
 30
0.0
  0
VERTEX
  5
181
  8
GROUP0
 10
309.560663123695
 20
193.189335138168
 30
0.0
  0
VERTEX
  5
182
  8
GROUP0
 10
309.799040843197
 20
193.4999954744579
 30
0.0
  0
VERTEX
  5
183
  8
GROUP0
 10
309.948891227286
 20
193.861767010219
 30
0.0
  0
VERTEX
  5
184
  8
GROUP0
 10
310.000002219927
 20
194.249995613146
 30
0.0
  0
VERTEX
  5
185
  8
GROUP0
 10
309.948890691434
 20
194.6382241455269
 30
0.0
  0
VERTEX
  5
186
  8
GROUP0
 10
309.79903980801
 20
194.9999954744569
 30
0.0
  0
VERTEX
  5
187
  8
GROUP0
 10
309.560661659719
 20
195.3106554817269
 30
0.0
  0
VERTEX
  5
188
  8
GROUP0
 10
309.250001323429
 20
195.5490332012289
 30
0.0
  0
VERTEX
  5
189
  8
GROUP0
 10
308.888229787667
 20
195.698883585319
 30
0.0
  0
VERTEX
  5
18A
  8
GROUP0
 10
308.50000118474
 20
195.7499945779589
 30
0.0
  0
VERTEX
  5
18B
  8
GROUP0
 10
308.1117726523599
 20
195.698883049466
 30
0.0
  0
VERTEX
  5
18C
  8
GROUP0
 10
307.75000132343
 20
195.5490321660419
 30
0.0
  0
VERTEX
  5
18D
  8
GROUP0
 10
307.4393413161609
 20
195.3106540177509
 30
0.0
  0
VERTEX
  5
18E
  8
GROUP0
 10
307.200963596658
 20
194.99999368146
 30
0.0
  0
VERTEX
  5
18F
  8
GROUP0
 10
307.051113212569
 20
194.6382221456989
 30
0.0
  0
VERTEX
  5
190
  8
GROUP0
 10
307.000002219929
 20
194.2499935427719
 30
0.0
  0
VERTEX
  5
191
  8
GROUP0
 10
307.051113748421
 20
193.861765010391
 30
0.0
  0
VERTEX
  5
192
  8
GROUP0
 10
307.200964631846
 20
193.49999368146
 30
0.0
  0
VERTEX
  5
193
  8
GROUP0
 10
307.4393427801371
 20
193.189333674192
 30
0.0
  0
SEQEND
  5
418
  8
GROUP0
  0
POLYLINE
  5
7B
  8
GROUP0
 66
     1
 10
0.0
 20
0.0
 30
0.0
 70
     1
  0
VERTEX
  5
194
  8
GROUP0
 10
307.750010017676
 20
182.9509559546909
 30
0.0
  0
VERTEX
  5
195
  8
GROUP0
 10
308.111781553437
 20
182.801105570602
 30
0.0
  0
VERTEX
  5
196
  8
GROUP0
 10
308.5000101563641
 20
182.749994577962
 30
0.0
  0
VERTEX
  5
197
  8
GROUP0
 10
308.888238688744
 20
182.801106106454
 30
0.0
  0
VERTEX
  5
198
  8
GROUP0
 10
309.250010017675
 20
182.9509569898789
 30
0.0
  0
VERTEX
  5
199
  8
GROUP0
 10
309.560670024944
 20
183.1893351381699
 30
0.0
  0
VERTEX
  5
19A
  8
GROUP0
 10
309.7990477444461
 20
183.49999547446
 30
0.0
  0
VERTEX
  5
19B
  8
GROUP0
 10
309.948898128535
 20
183.8617670102219
 30
0.0
  0
VERTEX
  5
19C
  8
GROUP0
 10
310.000009121175
 20
184.2499956131489
 30
0.0
  0
VERTEX
  5
19D
  8
GROUP0
 10
309.948897592683
 20
184.638224145529
 30
0.0
  0
VERTEX
  5
19E
  8
GROUP0
 10
309.799046709259
 20
184.99999547446
 30
0.0
  0
VERTEX
  5
19F
  8
GROUP0
 10
309.560668560968
 20
185.310655481729
 30
0.0
  0
VERTEX
  5
1A0
  8
GROUP0
 10
309.250008224677
 20
185.5490332012309
 30
0.0
  0
VERTEX
  5
1A1
  8
GROUP0
 10
308.888236688916
 20
185.6988835853209
 30
0.0
  0
VERTEX
  5
1A2
  8
GROUP0
 10
308.500008085989
 20
185.7499945779609
 30
0.0
  0
VERTEX
  5
1A3
  8
GROUP0
 10
308.111779553609
 20
185.6988830494689
 30
0.0
  0
VERTEX
  5
1A4
  8
GROUP0
 10
307.750008224679
 20
185.549032166044
 30
0.0
  0
VERTEX
  5
1A5
  8
GROUP0
 10
307.43934821741
 20
185.310654017753
 30
0.0
  0
VERTEX
  5
1A6
  8
GROUP0
 10
307.200970497907
 20
184.9999936814629
 30
0.0
  0
VERTEX
  5
1A7
  8
GROUP0
 10
307.051120113818
 20
184.638222145701
 30
0.0
  0
VERTEX
  5
1A8
  8
GROUP0
 10
307.000009121178
 20
184.249993542774
 30
0.0
  0
VERTEX
  5
1A9
  8
GROUP0
 10
307.05112064967
 20
183.8617650103929
 30
0.0
  0
VERTEX
  5
1AA
  8
GROUP0
 10
307.200971533095
 20
183.4999936814629
 30
0.0
  0
VERTEX
  5
1AB
  8
GROUP0
 10
307.439349681386
 20
183.1893336741939
 30
0.0
  0
SEQEND
  5
419
  8
GROUP0
  0
POLYLINE
  5
7C
  8
GROUP0
 66
     1
 10
0.0
 20
0.0
 30
0.0
 70
     1
  0
VERTEX
  5
1AC
  8
GROUP0
 10
292.4393427801469
 20
193.1893233223179
 30
0.0
  0
VERTEX
  5
1AD
  8
GROUP0
 10
292.7500031164381
 20
192.950945602816
 30
0.0
  0
VERTEX
  5
1AE
  8
GROUP0
 10
293.111774652199
 20
192.8010952187259
 30
0.0
  0
VERTEX
  5
1AF
  8
GROUP0
 10
293.500003255126
 20
192.749984226086
 30
0.0
  0
VERTEX
  5
1B0
  8
GROUP0
 10
293.888231787506
 20
192.8010957545789
 30
0.0
  0
VERTEX
  5
1B1
  8
GROUP0
 10
294.250003116436
 20
192.950946638003
 30
0.0
  0
VERTEX
  5
1B2
  8
GROUP0
 10
294.560663123706
 20
193.1893247862939
 30
0.0
  0
VERTEX
  5
1B3
  8
GROUP0
 10
294.799040843208
 20
193.4999851225839
 30
0.0
  0
VERTEX
  5
1B4
  8
GROUP0
 10
294.9488912272971
 20
193.8617566583459
 30
0.0
  0
VERTEX
  5
1B5
  8
GROUP0
 10
295.000002219937
 20
194.249985261273
 30
0.0
  0
VERTEX
  5
1B6
  8
GROUP0
 10
294.9488906914449
 20
194.6382137936539
 30
0.0
  0
VERTEX
  5
1B7
  8
GROUP0
 10
294.799039808021
 20
194.9999851225839
 30
0.0
  0
VERTEX
  5
1B8
  8
GROUP0
 10
294.560661659729
 20
195.3106451298529
 30
0.0
  0
VERTEX
  5
1B9
  8
GROUP0
 10
294.2500013234391
 20
195.549022849356
 30
0.0
  0
VERTEX
  5
1BA
  8
GROUP0
 10
293.888229787678
 20
195.6988732334449
 30
0.0
  0
VERTEX
  5
1BB
  8
GROUP0
 10
293.500001184751
 20
195.749984226085
 30
0.0
  0
VERTEX
  5
1BC
  8
GROUP0
 10
293.111772652371
 20
195.6988726975929
 30
0.0
  0
VERTEX
  5
1BD
  8
GROUP0
 10
292.75000132344
 20
195.549021814168
 30
0.0
  0
VERTEX
  5
1BE
  8
GROUP0
 10
292.439341316171
 20
195.3106436658769
 30
0.0
  0
VERTEX
  5
1BF
  8
GROUP0
 10
292.200963596669
 20
194.9999833295869
 30
0.0
  0
VERTEX
  5
1C0
  8
GROUP0
 10
292.05111321258
 20
194.6382117938259
 30
0.0
  0
VERTEX
  5
1C1
  8
GROUP0
 10
292.000002219939
 20
194.249983190898
 30
0.0
  0
VERTEX
  5
1C2
  8
GROUP0
 10
292.051113748432
 20
193.861754658518
 30
0.0
  0
VERTEX
  5
1C3
  8
GROUP0
 10
292.200964631856
 20
193.4999833295869
 30
0.0
  0
SEQEND
  5
41A
  8
GROUP0
  0
POLYLINE
  5
7D
  8
GROUP0
 66
     1
 10
0.0
 20
0.0
 30
0.0
 70
     1
  0
VERTEX
  5
1C4
  8
GROUP0
 10
292.750010017686
 20
182.9509456028179
 30
0.0
  0
VERTEX
  5
1C5
  8
GROUP0
 10
293.1117815534481
 20
182.801095218729
 30
0.0
  0
VERTEX
  5
1C6
  8
GROUP0
 10
293.500010156375
 20
182.7499842260889
 30
0.0
  0
VERTEX
  5
1C7
  8
GROUP0
 10
293.888238688755
 20
182.801095754581
 30
0.0
  0
VERTEX
  5
1C8
  8
GROUP0
 10
294.250010017685
 20
182.9509466380059
 30
0.0
  0
VERTEX
  5
1C9
  8
GROUP0
 10
294.560670024954
 20
183.189324786297
 30
0.0
  0
VERTEX
  5
1CA
  8
GROUP0
 10
294.799047744457
 20
183.499985122587
 30
0.0
  0
VERTEX
  5
1CB
  8
GROUP0
 10
294.948898128546
 20
183.8617566583489
 30
0.0
  0
VERTEX
  5
1CC
  8
GROUP0
 10
295.0000091211861
 20
184.2499852612759
 30
0.0
  0
VERTEX
  5
1CD
  8
GROUP0
 10
294.948897592694
 20
184.638213793656
 30
0.0
  0
VERTEX
  5
1CE
  8
GROUP0
 10
294.799046709269
 20
184.999985122587
 30
0.0
  0
VERTEX
  5
1CF
  8
GROUP0
 10
294.560668560978
 20
185.310645129856
 30
0.0
  0
VERTEX
  5
1D0
  8
GROUP0
 10
294.250008224688
 20
185.5490228493579
 30
0.0
  0
VERTEX
  5
1D1
  8
GROUP0
 10
293.888236688927
 20
185.6988732334479
 30
0.0
  0
VERTEX
  5
1D2
  8
GROUP0
 10
293.500008086
 20
185.7499842260879
 30
0.0
  0
VERTEX
  5
1D3
  8
GROUP0
 10
293.111779553619
 20
185.6988726975959
 30
0.0
  0
VERTEX
  5
1D4
  8
GROUP0
 10
292.7500082246891
 20
185.5490218141709
 30
0.0
  0
VERTEX
  5
1D5
  8
GROUP0
 10
292.43934821742
 20
185.31064366588
 30
0.0
  0
VERTEX
  5
1D6
  8
GROUP0
 10
292.200970497918
 20
184.999983329589
 30
0.0
  0
VERTEX
  5
1D7
  8
GROUP0
 10
292.051120113828
 20
184.638211793828
 30
0.0
  0
VERTEX
  5
1D8
  8
GROUP0
 10
292.000009121188
 20
184.2499831909009
 30
0.0
  0
VERTEX
  5
1D9
  8
GROUP0
 10
292.051120649681
 20
183.8617546585209
 30
0.0
  0
VERTEX
  5
1DA
  8
GROUP0
 10
292.200971533105
 20
183.4999833295899
 30
0.0
  0
VERTEX
  5
1DB
  8
GROUP0
 10
292.439349681396
 20
183.1893233223209
 30
0.0
  0
SEQEND
  5
41B
  8
GROUP0
  0
POLYLINE
  5
7E
  8
GROUP0
 66
     1
 10
0.0
 20
0.0
 30
0.0
 70
     1
  0
VERTEX
  5
1DC
  8
GROUP0
 10
246.118629150101
 20
215.3686291501019
 30
0.0
  0
VERTEX
  5
1DD
  8
GROUP0
 10
245.864359353945
 20
215.6999999999999
 30
0.0
  0
VERTEX
  5
1DE
  8
GROUP0
 10
245.704518677937
 20
216.0858895278359
 30
0.0
  0
VERTEX
  5
1DF
  8
GROUP0
 10
245.65
 20
216.4999999999999
 30
0.0
  0
VERTEX
  5
1E0
  8
GROUP0
 10
245.704518677937
 20
216.914110472164
 30
0.0
  0
VERTEX
  5
1E1
  8
GROUP0
 10
245.864359353945
 20
217.3
 30
0.0
  0
VERTEX
  5
1E2
  8
GROUP0
 10
246.118629150101
 20
217.631370849899
 30
0.0
  0
VERTEX
  5
1E3
  8
GROUP0
 10
246.45
 20
217.885640646055
 30
0.0
  0
VERTEX
  5
1E4
  8
GROUP0
 10
246.835889527836
 20
218.045481322062
 30
0.0
  0
VERTEX
  5
1E5
  8
GROUP0
 10
247.25
 20
218.0999999999999
 30
0.0
  0
VERTEX
  5
1E6
  8
GROUP0
 10
247.664110472164
 20
218.045481322062
 30
0.0
  0
VERTEX
  5
1E7
  8
GROUP0
 10
248.05
 20
217.885640646055
 30
0.0
  0
VERTEX
  5
1E8
  8
GROUP0
 10
248.381370849898
 20
217.631370849899
 30
0.0
  0
VERTEX
  5
1E9
  8
GROUP0
 10
248.635640646055
 20
217.3
 30
0.0
  0
VERTEX
  5
1EA
  8
GROUP0
 10
248.795481322063
 20
216.914110472164
 30
0.0
  0
VERTEX
  5
1EB
  8
GROUP0
 10
248.85
 20
216.4999999999999
 30
0.0
  0
VERTEX
  5
1EC
  8
GROUP0
 10
248.795481322063
 20
216.0858895278359
 30
0.0
  0
VERTEX
  5
1ED
  8
GROUP0
 10
248.635640646055
 20
215.6999999999999
 30
0.0
  0
VERTEX
  5
1EE
  8
GROUP0
 10
248.381370849898
 20
215.3686291501019
 30
0.0
  0
VERTEX
  5
1EF
  8
GROUP0
 10
248.05
 20
215.1143593539449
 30
0.0
  0
VERTEX
  5
1F0
  8
GROUP0
 10
247.664110472164
 20
214.9545186779379
 30
0.0
  0
VERTEX
  5
1F1
  8
GROUP0
 10
247.25
 20
214.9
 30
0.0
  0
VERTEX
  5
1F2
  8
GROUP0
 10
246.835889527836
 20
214.9545186779379
 30
0.0
  0
VERTEX
  5
1F3
  8
GROUP0
 10
246.45
 20
215.1143593539449
 30
0.0
  0
SEQEND
  5
41C
  8
GROUP0
  0
POLYLINE
  5
7F
  8
GROUP0
 66
     1
 10
0.0
 20
0.0
 30
0.0
 70
     1
  0
VERTEX
  5
1F4
  8
GROUP0
 10
51.47179041774996
 20
454.499964439239
 30
0.0
  0
VERTEX
  5
1F5
  8
GROUP0
 10
51.47179041774996
 20
463.4999644391619
 30
0.0
  0
VERTEX
  5
1F6
  8
GROUP0
 10
251.471790417753
 20
463.4999644391619
 30
0.0
  0
VERTEX
  5
1F7
  8
GROUP0
 10
251.471790417753
 20
454.499964439239
 30
0.0
  0
SEQEND
  5
41D
  8
GROUP0
  0
POLYLINE
  5
80
  8
GROUP0
 66
     1
 10
0.0
 20
0.0
 30
0.0
 70
     1
  0
VERTEX
  5
1F8
  8
GROUP0
 10
45.02290168197499
 20
458.6117358725299
 30
0.0
  0
VERTEX
  5
1F9
  8
GROUP0
 10
45.172752315362
 20
458.249964441078
 30
0.0
  0
VERTEX
  5
1FA
  8
GROUP0
 10
45.41113024867002
 20
457.9393042700659
 30
0.0
  0
VERTEX
  5
1FB
  8
GROUP0
 10
45.72179041968195
 20
457.7009263367579
 30
0.0
  0
VERTEX
  5
1FC
  8
GROUP0
 10
46.08356185113405
 20
457.551075703371
 30
0.0
  0
VERTEX
  5
1FD
  8
GROUP0
 10
46.47179041782897
 20
457.4999644429309
 30
0.0
  0
VERTEX
  5
1FE
  8
GROUP0
 10
46.86001898452298
 20
457.551075703371
 30
0.0
  0
VERTEX
  5
1FF
  8
GROUP0
 10
47.22179041597599
 20
457.7009263367579
 30
0.0
  0
VERTEX
  5
200
  8
GROUP0
 10
47.53245058698803
 20
457.9393042700659
 30
0.0
  0
VERTEX
  5
201
  8
GROUP0
 10
47.77082852029605
 20
458.249964441078
 30
0.0
  0
VERTEX
  5
202
  8
GROUP0
 10
47.92067915368204
 20
458.6117358725299
 30
0.0
  0
VERTEX
  5
203
  8
GROUP0
 10
47.97179041412198
 20
458.999964439225
 30
0.0
  0
VERTEX
  5
204
  8
GROUP0
 10
47.92067915368204
 20
459.388193005919
 30
0.0
  0
VERTEX
  5
205
  8
GROUP0
 10
47.77082852029605
 20
459.749964437371
 30
0.0
  0
VERTEX
  5
206
  8
GROUP0
 10
47.53245058698803
 20
460.0606246083839
 30
0.0
  0
VERTEX
  5
207
  8
GROUP0
 10
47.22179041597599
 20
460.2990025416919
 30
0.0
  0
VERTEX
  5
208
  8
GROUP0
 10
46.86001898452298
 20
460.4488531750779
 30
0.0
  0
VERTEX
  5
209
  8
GROUP0
 10
46.47179041782897
 20
460.499964435518
 30
0.0
  0
VERTEX
  5
20A
  8
GROUP0
 10
46.08356185113405
 20
460.4488531750779
 30
0.0
  0
VERTEX
  5
20B
  8
GROUP0
 10
45.72179041968195
 20
460.2990025416919
 30
0.0
  0
VERTEX
  5
20C
  8
GROUP0
 10
45.41113024867002
 20
460.0606246083839
 30
0.0
  0
VERTEX
  5
20D
  8
GROUP0
 10
45.172752315362
 20
459.749964437371
 30
0.0
  0
VERTEX
  5
20E
  8
GROUP0
 10
45.02290168197499
 20
459.388193005919
 30
0.0
  0
VERTEX
  5
20F
  8
GROUP0
 10
44.97179042153505
 20
458.999964439225
 30
0.0
  0
SEQEND
  5
41E
  8
GROUP0
  0
POLYLINE
  5
81
  8
GROUP0
 66
     1
 10
0.0
 20
0.0
 30
0.0
 70
     1
  0
VERTEX
  5
210
  8
GROUP0
 10
266.499999464089
 20
121.7679804388929
 30
0.0
  0
VERTEX
  5
211
  8
GROUP0
 10
266.982361373884
 20
121.568179593884
 30
0.0
  0
VERTEX
  5
212
  8
GROUP0
 10
267.499999464089
 20
121.500031246462
 30
0.0
  0
VERTEX
  5
213
  8
GROUP0
 10
268.017637554294
 20
121.568179593884
 30
0.0
  0
VERTEX
  5
214
  8
GROUP0
 10
268.499999464089
 20
121.7679804388929
 30
0.0
  0
VERTEX
  5
215
  8
GROUP0
 10
268.914213026462
 20
122.085817684089
 30
0.0
  0
VERTEX
  5
216
  8
GROUP0
 10
269.232050271658
 20
122.500031246462
 30
0.0
  0
VERTEX
  5
217
  8
GROUP0
 10
269.431851116667
 20
122.982393156257
 30
0.0
  0
VERTEX
  5
218
  8
GROUP0
 10
269.499999464089
 20
123.500031246462
 30
0.0
  0
VERTEX
  5
219
  8
GROUP0
 10
269.431851116667
 20
124.0176693366669
 30
0.0
  0
VERTEX
  5
21A
  8
GROUP0
 10
269.232050271658
 20
124.500031246462
 30
0.0
  0
VERTEX
  5
21B
  8
GROUP0
 10
268.914213026462
 20
124.914244808835
 30
0.0
  0
VERTEX
  5
21C
  8
GROUP0
 10
268.499999464089
 20
125.2320820540309
 30
0.0
  0
VERTEX
  5
21D
  8
GROUP0
 10
268.017637554294
 20
125.4318828990399
 30
0.0
  0
VERTEX
  5
21E
  8
GROUP0
 10
267.499999464089
 20
125.500031246462
 30
0.0
  0
VERTEX
  5
21F
  8
GROUP0
 10
266.982361373884
 20
125.4318828990399
 30
0.0
  0
VERTEX
  5
220
  8
GROUP0
 10
266.499999464089
 20
125.2320820540309
 30
0.0
  0
VERTEX
  5
221
  8
GROUP0
 10
266.085785901716
 20
124.914244808835
 30
0.0
  0
VERTEX
  5
222
  8
GROUP0
 10
265.76794865652
 20
124.500031246462
 30
0.0
  0
VERTEX
  5
223
  8
GROUP0
 10
265.568147811511
 20
124.0176693366669
 30
0.0
  0
VERTEX
  5
224
  8
GROUP0
 10
265.499999464089
 20
123.500031246462
 30
0.0
  0
VERTEX
  5
225
  8
GROUP0
 10
265.568147811511
 20
122.982393156257
 30
0.0
  0
VERTEX
  5
226
  8
GROUP0
 10
265.76794865652
 20
122.500031246462
 30
0.0
  0
VERTEX
  5
227
  8
GROUP0
 10
266.085785901716
 20
122.085817684089
 30
0.0
  0
SEQEND
  5
41F
  8
GROUP0
  0
POLYLINE
  5
82
  8
GROUP0
 66
     1
 10
0.0
 20
0.0
 30
0.0
 70
     1
  0
VERTEX
  5
228
  8
GROUP0
 10
31.56791364123103
 20
435.982361941572
 30
0.0
  0
VERTEX
  5
229
  8
GROUP0
 10
31.76771448624004
 20
435.5000000317769
 30
0.0
  0
VERTEX
  5
22A
  8
GROUP0
 10
32.085551731436
 20
435.085786469404
 30
0.0
  0
VERTEX
  5
22B
  8
GROUP0
 10
32.49976529380899
 20
434.767949224208
 30
0.0
  0
VERTEX
  5
22C
  8
GROUP0
 10
32.98212720360402
 20
434.568148379199
 30
0.0
  0
VERTEX
  5
22D
  8
GROUP0
 10
33.49976529380899
 20
434.5000000317769
 30
0.0
  0
VERTEX
  5
22E
  8
GROUP0
 10
34.01740338401396
 20
434.568148379199
 30
0.0
  0
VERTEX
  5
22F
  8
GROUP0
 10
34.49976529380899
 20
434.767949224208
 30
0.0
  0
VERTEX
  5
230
  8
GROUP0
 10
34.91397885618198
 20
435.085786469404
 30
0.0
  0
VERTEX
  5
231
  8
GROUP0
 10
35.23181610137794
 20
435.5000000317769
 30
0.0
  0
VERTEX
  5
232
  8
GROUP0
 10
35.43161694638695
 20
435.982361941572
 30
0.0
  0
VERTEX
  5
233
  8
GROUP0
 10
35.49976529380899
 20
436.5000000317769
 30
0.0
  0
VERTEX
  5
234
  8
GROUP0
 10
35.43161694638695
 20
437.0176381219819
 30
0.0
  0
VERTEX
  5
235
  8
GROUP0
 10
35.23181610137794
 20
437.5000000317769
 30
0.0
  0
VERTEX
  5
236
  8
GROUP0
 10
34.91397885618198
 20
437.9142135941499
 30
0.0
  0
VERTEX
  5
237
  8
GROUP0
 10
34.49976529380899
 20
438.2320508393459
 30
0.0
  0
VERTEX
  5
238
  8
GROUP0
 10
34.01740338401396
 20
438.4318516843549
 30
0.0
  0
VERTEX
  5
239
  8
GROUP0
 10
33.49976529380899
 20
438.5000000317769
 30
0.0
  0
VERTEX
  5
23A
  8
GROUP0
 10
32.98212720360402
 20
438.4318516843549
 30
0.0
  0
VERTEX
  5
23B
  8
GROUP0
 10
32.49976529380899
 20
438.2320508393459
 30
0.0
  0
VERTEX
  5
23C
  8
GROUP0
 10
32.085551731436
 20
437.9142135941499
 30
0.0
  0
VERTEX
  5
23D
  8
GROUP0
 10
31.76771448624004
 20
437.5000000317769
 30
0.0
  0
VERTEX
  5
23E
  8
GROUP0
 10
31.56791364123103
 20
437.0176381219819
 30
0.0
  0
VERTEX
  5
23F
  8
GROUP0
 10
31.49976529380899
 20
436.5000000317769
 30
0.0
  0
SEQEND
  5
420
  8
GROUP0
  0
POLYLINE
  5
83
  8
GROUP0
 66
     1
 10
0.0
 20
0.0
 30
0.0
 70
     1
  0
VERTEX
  5
240
  8
GROUP0
 10
281.591060938741
 20
90.18322187939998
 30
0.0
  0
VERTEX
  5
241
  8
GROUP0
 10
281.932596714242
 20
90.00397007652998
 30
0.0
  0
VERTEX
  5
242
  8
GROUP0
 10
282.307105845102
 20
89.91166186626992
 30
0.0
  0
VERTEX
  5
243
  8
GROUP0
 10
282.692823221919
 20
89.91166186626992
 30
0.0
  0
VERTEX
  5
244
  8
GROUP0
 10
283.067332352779
 20
90.00397007652998
 30
0.0
  0
VERTEX
  5
245
  8
GROUP0
 10
283.40886812828
 20
90.18322187939998
 30
0.0
  0
VERTEX
  5
246
  8
GROUP0
 10
283.697581730584
 20
90.43899981163997
 30
0.0
  0
VERTEX
  5
247
  8
GROUP0
 10
283.916694174556
 20
90.75643898955991
 30
0.0
  0
VERTEX
  5
248
  8
GROUP0
 10
284.053471441392
 20
91.11709100196992
 30
0.0
  0
VERTEX
  5
249
  8
GROUP0
 10
284.099964533511
 20
91.49999606482993
 30
0.0
  0
VERTEX
  5
24A
  8
GROUP0
 10
284.099964533511
 20
101.4999960648299
 30
0.0
  0
VERTEX
  5
24B
  8
GROUP0
 10
284.088298732067
 20
101.69285475324
 30
0.0
  0
VERTEX
  5
24C
  8
GROUP0
 10
284.053471441392
 20
101.8829011276899
 30
0.0
  0
VERTEX
  5
24D
  8
GROUP0
 10
283.916694174556
 20
102.2435531400999
 30
0.0
  0
VERTEX
  5
24E
  8
GROUP0
 10
283.697581730584
 20
102.56099231801
 30
0.0
  0
VERTEX
  5
24F
  8
GROUP0
 10
283.408868128281
 20
102.81677025026
 30
0.0
  0
VERTEX
  5
250
  8
GROUP0
 10
283.067332352779
 20
102.99602205312
 30
0.0
  0
VERTEX
  5
251
  8
GROUP0
 10
282.692823221919
 20
103.0883302633799
 30
0.0
  0
VERTEX
  5
252
  8
GROUP0
 10
282.307105845102
 20
103.0883302633799
 30
0.0
  0
VERTEX
  5
253
  8
GROUP0
 10
281.932596714243
 20
102.99602205312
 30
0.0
  0
VERTEX
  5
254
  8
GROUP0
 10
281.591060938741
 20
102.81677025026
 30
0.0
  0
VERTEX
  5
255
  8
GROUP0
 10
281.302347336437
 20
102.56099231801
 30
0.0
  0
VERTEX
  5
256
  8
GROUP0
 10
281.083234892466
 20
102.2435531400999
 30
0.0
  0
VERTEX
  5
257
  8
GROUP0
 10
280.946457625629
 20
101.8829011276899
 30
0.0
  0
VERTEX
  5
258
  8
GROUP0
 10
280.899964533511
 20
101.4999960648299
 30
0.0
  0
VERTEX
  5
259
  8
GROUP0
 10
280.899964533511
 20
91.49999606482993
 30
0.0
  0
VERTEX
  5
25A
  8
GROUP0
 10
280.946457625629
 20
91.11709100196992
 30
0.0
  0
VERTEX
  5
25B
  8
GROUP0
 10
281.083234892466
 20
90.75643898955991
 30
0.0
  0
VERTEX
  5
25C
  8
GROUP0
 10
281.302347336437
 20
90.43899981163997
 30
0.0
  0
SEQEND
  5
421
  8
GROUP0
  0
POLYLINE
  5
84
  8
GROUP0
 66
     1
 10
0.0
 20
0.0
 30
0.0
 70
     1
  0
VERTEX
  5
25D
  8
GROUP0
 10
295.591060938734
 20
76.18322187940998
 30
0.0
  0
VERTEX
  5
25E
  8
GROUP0
 10
295.932596714236
 20
76.00397007653987
 30
0.0
  0
VERTEX
  5
25F
  8
GROUP0
 10
296.307105845095
 20
75.91166186627993
 30
0.0
  0
VERTEX
  5
260
  8
GROUP0
 10
296.692823221912
 20
75.91166186627993
 30
0.0
  0
VERTEX
  5
261
  8
GROUP0
 10
297.067332352772
 20
76.00397007653987
 30
0.0
  0
VERTEX
  5
262
  8
GROUP0
 10
297.408868128274
 20
76.18322187940998
 30
0.0
  0
VERTEX
  5
263
  8
GROUP0
 10
297.697581730577
 20
76.43899981164986
 30
0.0
  0
VERTEX
  5
264
  8
GROUP0
 10
297.916694174548
 20
76.75643898956992
 30
0.0
  0
VERTEX
  5
265
  8
GROUP0
 10
298.053471441385
 20
77.11709100198004
 30
0.0
  0
VERTEX
  5
266
  8
GROUP0
 10
298.099964533503
 20
77.49999606483993
 30
0.0
  0
VERTEX
  5
267
  8
GROUP0
 10
298.099964533503
 20
87.49999606483993
 30
0.0
  0
VERTEX
  5
268
  8
GROUP0
 10
298.053471441384
 20
87.88290112769994
 30
0.0
  0
VERTEX
  5
269
  8
GROUP0
 10
297.916694174548
 20
88.24355314010995
 30
0.0
  0
VERTEX
  5
26A
  8
GROUP0
 10
297.697581730576
 20
88.56099231802
 30
0.0
  0
VERTEX
  5
26B
  8
GROUP0
 10
297.408868128272
 20
88.81677025027
 30
0.0
  0
VERTEX
  5
26C
  8
GROUP0
 10
297.06733235277
 20
88.99602205312999
 30
0.0
  0
VERTEX
  5
26D
  8
GROUP0
 10
296.69282322191
 20
89.08833026338993
 30
0.0
  0
VERTEX
  5
26E
  8
GROUP0
 10
296.307105845093
 20
89.08833026338993
 30
0.0
  0
VERTEX
  5
26F
  8
GROUP0
 10
295.932596714234
 20
88.99602205312999
 30
0.0
  0
VERTEX
  5
270
  8
GROUP0
 10
295.591060938732
 20
88.81677025027
 30
0.0
  0
VERTEX
  5
271
  8
GROUP0
 10
295.302347336429
 20
88.56099231802
 30
0.0
  0
VERTEX
  5
272
  8
GROUP0
 10
295.083234892457
 20
88.24355314010995
 30
0.0
  0
VERTEX
  5
273
  8
GROUP0
 10
294.946457625621
 20
87.88290112768993
 30
0.0
  0
VERTEX
  5
274
  8
GROUP0
 10
294.899964533503
 20
87.49999606482993
 30
0.0
  0
VERTEX
  5
275
  8
GROUP0
 10
294.899964533503
 20
77.49999606482993
 30
0.0
  0
VERTEX
  5
276
  8
GROUP0
 10
294.946457625622
 20
77.11709100197004
 30
0.0
  0
VERTEX
  5
277
  8
GROUP0
 10
295.083234892458
 20
76.75643898955991
 30
0.0
  0
VERTEX
  5
278
  8
GROUP0
 10
295.30234733643
 20
76.43899981164986
 30
0.0
  0
SEQEND
  5
422
  8
GROUP0
  0
POLYLINE
  5
85
  8
GROUP0
 66
     1
 10
0.0
 20
0.0
 30
0.0
 70
     1
  0
VERTEX
  5
279
  8
GROUP0
 10
17.05111825719905
 20
424.36178250962
 30
0.0
  0
VERTEX
  5
27A
  8
GROUP0
 10
17.20096914062299
 20
424.0000111806889
 30
0.0
  0
VERTEX
  5
27B
  8
GROUP0
 10
17.43934728891395
 20
423.6893511734199
 30
0.0
  0
VERTEX
  5
27C
  8
GROUP0
 10
17.75000762520403
 20
423.450973453918
 30
0.0
  0
VERTEX
  5
27D
  8
GROUP0
 10
18.11177916096597
 20
423.3011230698289
 30
0.0
  0
VERTEX
  5
27E
  8
GROUP0
 10
18.500007763893
 20
423.250012077188
 30
0.0
  0
VERTEX
  5
27F
  8
GROUP0
 10
18.88823629627302
 20
423.3011236056809
 30
0.0
  0
VERTEX
  5
280
  8
GROUP0
 10
19.25000762520301
 20
423.450974489105
 30
0.0
  0
VERTEX
  5
281
  8
GROUP0
 10
19.56066763247202
 20
423.6893526373959
 30
0.0
  0
VERTEX
  5
282
  8
GROUP0
 10
19.799045351975
 20
424.0000129736869
 30
0.0
  0
VERTEX
  5
283
  8
GROUP0
 10
19.94889573606395
 20
424.3617845094479
 30
0.0
  0
VERTEX
  5
284
  8
GROUP0
 10
20.00000672870397
 20
424.750013112375
 30
0.0
  0
VERTEX
  5
285
  8
GROUP0
 10
19.94889520021195
 20
425.1382416447559
 30
0.0
  0
VERTEX
  5
286
  8
GROUP0
 10
19.79904431678699
 20
425.5000129736859
 30
0.0
  0
VERTEX
  5
287
  8
GROUP0
 10
19.56066616849603
 20
425.8106729809549
 30
0.0
  0
VERTEX
  5
288
  8
GROUP0
 10
19.25000583220606
 20
426.049050700458
 30
0.0
  0
VERTEX
  5
289
  8
GROUP0
 10
18.88823429644503
 20
426.1989010845469
 30
0.0
  0
VERTEX
  5
28A
  8
GROUP0
 10
18.50000569351801
 20
426.250012077188
 30
0.0
  0
VERTEX
  5
28B
  8
GROUP0
 10
18.11177716113798
 20
426.198900548695
 30
0.0
  0
VERTEX
  5
28C
  8
GROUP0
 10
17.75000583220697
 20
426.04904966527
 30
0.0
  0
VERTEX
  5
28D
  8
GROUP0
 10
17.43934582493796
 20
425.8106715169789
 30
0.0
  0
VERTEX
  5
28E
  8
GROUP0
 10
17.200968105436
 20
425.5000111806889
 30
0.0
  0
VERTEX
  5
28F
  8
GROUP0
 10
17.05111772134603
 20
425.1382396449269
 30
0.0
  0
VERTEX
  5
290
  8
GROUP0
 10
17.00000672870601
 20
424.750011042
 30
0.0
  0
SEQEND
  5
423
  8
GROUP0
  0
POLYLINE
  5
86
  8
GROUP0
 66
     1
 10
0.0
 20
0.0
 30
0.0
 70
     1
  0
VERTEX
  5
291
  8
GROUP0
 10
17.05112515844803
 20
414.3617825096229
 30
0.0
  0
VERTEX
  5
292
  8
GROUP0
 10
17.20097604187197
 20
414.0000111806919
 30
0.0
  0
VERTEX
  5
293
  8
GROUP0
 10
17.43935419016304
 20
413.6893511734229
 30
0.0
  0
VERTEX
  5
294
  8
GROUP0
 10
17.75001452645301
 20
413.4509734539199
 30
0.0
  0
VERTEX
  5
295
  8
GROUP0
 10
18.11178606221495
 20
413.301123069831
 30
0.0
  0
VERTEX
  5
296
  8
GROUP0
 10
18.50001466514198
 20
413.2500120771909
 30
0.0
  0
VERTEX
  5
297
  8
GROUP0
 10
18.888243197522
 20
413.301123605683
 30
0.0
  0
VERTEX
  5
298
  8
GROUP0
 10
19.25001452645199
 20
413.4509744891079
 30
0.0
  0
VERTEX
  5
299
  8
GROUP0
 10
19.560674533721
 20
413.689352637399
 30
0.0
  0
VERTEX
  5
29A
  8
GROUP0
 10
19.79905225322398
 20
414.000012973689
 30
0.0
  0
VERTEX
  5
29B
  8
GROUP0
 10
19.94890263731304
 20
414.3617845094509
 30
0.0
  0
VERTEX
  5
29C
  8
GROUP0
 10
20.00001362995295
 20
414.7500131123779
 30
0.0
  0
VERTEX
  5
29D
  8
GROUP0
 10
19.94890210146002
 20
415.138241644758
 30
0.0
  0
VERTEX
  5
29E
  8
GROUP0
 10
19.79905121803597
 20
415.500012973689
 30
0.0
  0
VERTEX
  5
29F
  8
GROUP0
 10
19.56067306974501
 20
415.810672980958
 30
0.0
  0
VERTEX
  5
2A0
  8
GROUP0
 10
19.25001273345504
 20
416.0490507004599
 30
0.0
  0
VERTEX
  5
2A1
  8
GROUP0
 10
18.88824119769299
 20
416.1989010845499
 30
0.0
  0
VERTEX
  5
2A2
  8
GROUP0
 10
18.50001259476699
 20
416.2500120771899
 30
0.0
  0
VERTEX
  5
2A3
  8
GROUP0
 10
18.11178406238696
 20
416.1989005486979
 30
0.0
  0
VERTEX
  5
2A4
  8
GROUP0
 10
17.75001273345595
 20
416.0490496652729
 30
0.0
  0
VERTEX
  5
2A5
  8
GROUP0
 10
17.43935272618705
 20
415.810671516982
 30
0.0
  0
VERTEX
  5
2A6
  8
GROUP0
 10
17.20097500668498
 20
415.500011180691
 30
0.0
  0
VERTEX
  5
2A7
  8
GROUP0
 10
17.05112462259501
 20
415.13823964493
 30
0.0
  0
VERTEX
  5
2A8
  8
GROUP0
 10
17.00001362995499
 20
414.7500110420029
 30
0.0
  0
SEQEND
  5
424
  8
GROUP0
  0
POLYLINE
  5
87
  8
GROUP0
 66
     1
 10
0.0
 20
0.0
 30
0.0
 70
     1
  0
VERTEX
  5
2A9
  8
GROUP0
 10
2.051118257210021
 20
424.3617721577459
 30
0.0
  0
VERTEX
  5
2AA
  8
GROUP0
 10
2.200969140634015
 20
424.0000008288159
 30
0.0
  0
VERTEX
  5
2AB
  8
GROUP0
 10
2.439347288924978
 20
423.6893408215469
 30
0.0
  0
VERTEX
  5
2AC
  8
GROUP0
 10
2.750007625215005
 20
423.4509631020439
 30
0.0
  0
VERTEX
  5
2AD
  8
GROUP0
 10
3.111779160976994
 20
423.301112717955
 30
0.0
  0
VERTEX
  5
2AE
  8
GROUP0
 10
3.500007763903
 20
423.250001725315
 30
0.0
  0
VERTEX
  5
2AF
  8
GROUP0
 10
3.888236296283992
 20
423.301113253807
 30
0.0
  0
VERTEX
  5
2B0
  8
GROUP0
 10
4.250007625213982
 20
423.4509641372319
 30
0.0
  0
VERTEX
  5
2B1
  8
GROUP0
 10
4.560667632482989
 20
423.6893422855229
 30
0.0
  0
VERTEX
  5
2B2
  8
GROUP0
 10
4.799045351985001
 20
424.000002621813
 30
0.0
  0
VERTEX
  5
2B3
  8
GROUP0
 10
4.948895736074974
 20
424.3617741575749
 30
0.0
  0
VERTEX
  5
2B4
  8
GROUP0
 10
5.000006728714993
 20
424.750002760502
 30
0.0
  0
VERTEX
  5
2B5
  8
GROUP0
 10
4.948895200222012
 20
425.138231292882
 30
0.0
  0
VERTEX
  5
2B6
  8
GROUP0
 10
4.799044316798017
 20
425.500002621813
 30
0.0
  0
VERTEX
  5
2B7
  8
GROUP0
 10
4.560666168506998
 20
425.8106626290819
 30
0.0
  0
VERTEX
  5
2B8
  8
GROUP0
 10
4.250005832217028
 20
426.049040348585
 30
0.0
  0
VERTEX
  5
2B9
  8
GROUP0
 10
3.888234296454982
 20
426.1988907326739
 30
0.0
  0
VERTEX
  5
2BA
  8
GROUP0
 10
3.50000569352801
 20
426.250001725314
 30
0.0
  0
VERTEX
  5
2BB
  8
GROUP0
 10
3.111777161147984
 20
426.1988901968209
 30
0.0
  0
VERTEX
  5
2BC
  8
GROUP0
 10
2.750005832217994
 20
426.049039313397
 30
0.0
  0
VERTEX
  5
2BD
  8
GROUP0
 10
2.439345824948987
 20
425.8106611651059
 30
0.0
  0
VERTEX
  5
2BE
  8
GROUP0
 10
2.200968105446009
 20
425.5000008288159
 30
0.0
  0
VERTEX
  5
2BF
  8
GROUP0
 10
2.051117721357002
 20
425.138229293054
 30
0.0
  0
VERTEX
  5
2C0
  8
GROUP0
 10
2.000006728716983
 20
424.750000690127
 30
0.0
  0
SEQEND
  5
425
  8
GROUP0
  0
POLYLINE
  5
88
  8
GROUP0
 66
     1
 10
0.0
 20
0.0
 30
0.0
 70
     1
  0
VERTEX
  5
2C1
  8
GROUP0
 10
267.591060938733
 20
76.18322187938998
 30
0.0
  0
VERTEX
  5
2C2
  8
GROUP0
 10
267.932596714235
 20
76.00397007651986
 30
0.0
  0
VERTEX
  5
2C3
  8
GROUP0
 10
268.307105845094
 20
75.91166186625992
 30
0.0
  0
VERTEX
  5
2C4
  8
GROUP0
 10
268.692823221911
 20
75.91166186625992
 30
0.0
  0
VERTEX
  5
2C5
  8
GROUP0
 10
269.067332352771
 20
76.00397007651986
 30
0.0
  0
VERTEX
  5
2C6
  8
GROUP0
 10
269.408868128273
 20
76.18322187938998
 30
0.0
  0
VERTEX
  5
2C7
  8
GROUP0
 10
269.697581730576
 20
76.43899981162986
 30
0.0
  0
VERTEX
  5
2C8
  8
GROUP0
 10
269.916694174548
 20
76.7564389895499
 30
0.0
  0
VERTEX
  5
2C9
  8
GROUP0
 10
270.053471441385
 20
77.11709100196003
 30
0.0
  0
VERTEX
  5
2CA
  8
GROUP0
 10
270.099964533503
 20
77.49999606481992
 30
0.0
  0
VERTEX
  5
2CB
  8
GROUP0
 10
270.099964533503
 20
87.49999606481992
 30
0.0
  0
VERTEX
  5
2CC
  8
GROUP0
 10
270.053471441385
 20
87.88290112767993
 30
0.0
  0
VERTEX
  5
2CD
  8
GROUP0
 10
269.916694174548
 20
88.24355314008994
 30
0.0
  0
VERTEX
  5
2CE
  8
GROUP0
 10
269.697581730577
 20
88.56099231801
 30
0.0
  0
VERTEX
  5
2CF
  8
GROUP0
 10
269.408868128273
 20
88.81677025024999
 30
0.0
  0
VERTEX
  5
2D0
  8
GROUP0
 10
269.067332352771
 20
88.99602205311999
 30
0.0
  0
VERTEX
  5
2D1
  8
GROUP0
 10
268.692823221911
 20
89.08833026337993
 30
0.0
  0
VERTEX
  5
2D2
  8
GROUP0
 10
268.307105845094
 20
89.08833026337993
 30
0.0
  0
VERTEX
  5
2D3
  8
GROUP0
 10
267.932596714235
 20
88.99602205311999
 30
0.0
  0
VERTEX
  5
2D4
  8
GROUP0
 10
267.591060938733
 20
88.81677025024999
 30
0.0
  0
VERTEX
  5
2D5
  8
GROUP0
 10
267.302347336429
 20
88.56099231801
 30
0.0
  0
VERTEX
  5
2D6
  8
GROUP0
 10
267.083234892458
 20
88.24355314008994
 30
0.0
  0
VERTEX
  5
2D7
  8
GROUP0
 10
266.946457625621
 20
87.88290112767993
 30
0.0
  0
VERTEX
  5
2D8
  8
GROUP0
 10
266.899964533503
 20
87.49999606481992
 30
0.0
  0
VERTEX
  5
2D9
  8
GROUP0
 10
266.899964533503
 20
77.49999606481992
 30
0.0
  0
VERTEX
  5
2DA
  8
GROUP0
 10
266.946457625621
 20
77.11709100196003
 30
0.0
  0
VERTEX
  5
2DB
  8
GROUP0
 10
267.083234892458
 20
76.7564389895499
 30
0.0
  0
VERTEX
  5
2DC
  8
GROUP0
 10
267.302347336429
 20
76.43899981162986
 30
0.0
  0
SEQEND
  5
426
  8
GROUP0
  0
POLYLINE
  5
89
  8
GROUP0
 66
     1
 10
0.0
 20
0.0
 30
0.0
 70
     1
  0
VERTEX
  5
2DD
  8
GROUP0
 10
2.051125158459001
 20
414.361772157749
 30
0.0
  0
VERTEX
  5
2DE
  8
GROUP0
 10
2.200976041882996
 20
414.000000828818
 30
0.0
  0
VERTEX
  5
2DF
  8
GROUP0
 10
2.439354190174015
 20
413.689340821549
 30
0.0
  0
VERTEX
  5
2E0
  8
GROUP0
 10
2.750014526463985
 20
413.450963102046
 30
0.0
  0
VERTEX
  5
2E1
  8
GROUP0
 10
3.111786062225974
 20
413.3011127179569
 30
0.0
  0
VERTEX
  5
2E2
  8
GROUP0
 10
3.50001466515198
 20
413.2500017253169
 30
0.0
  0
VERTEX
  5
2E3
  8
GROUP0
 10
3.888243197532972
 20
413.3011132538089
 30
0.0
  0
VERTEX
  5
2E4
  8
GROUP0
 10
4.250014526463019
 20
413.450964137234
 30
0.0
  0
VERTEX
  5
2E5
  8
GROUP0
 10
4.560674533732026
 20
413.689342285525
 30
0.0
  0
VERTEX
  5
2E6
  8
GROUP0
 10
4.799052253233981
 20
414.0000026218149
 30
0.0
  0
VERTEX
  5
2E7
  8
GROUP0
 10
4.948902637324011
 20
414.361774157577
 30
0.0
  0
VERTEX
  5
2E8
  8
GROUP0
 10
5.000013629963973
 20
414.7500027605039
 30
0.0
  0
VERTEX
  5
2E9
  8
GROUP0
 10
4.948902101470992
 20
415.1382312928849
 30
0.0
  0
VERTEX
  5
2EA
  8
GROUP0
 10
4.799051218046998
 20
415.5000026218149
 30
0.0
  0
VERTEX
  5
2EB
  8
GROUP0
 10
4.560673069755978
 20
415.8106626290839
 30
0.0
  0
VERTEX
  5
2EC
  8
GROUP0
 10
4.250012733466008
 20
416.0490403485869
 30
0.0
  0
VERTEX
  5
2ED
  8
GROUP0
 10
3.888241197704019
 20
416.198890732676
 30
0.0
  0
VERTEX
  5
2EE
  8
GROUP0
 10
3.500012594778013
 20
416.2500017253169
 30
0.0
  0
VERTEX
  5
2EF
  8
GROUP0
 10
3.111784062397021
 20
416.198890196824
 30
0.0
  0
VERTEX
  5
2F0
  8
GROUP0
 10
2.750012733466974
 20
416.0490393133989
 30
0.0
  0
VERTEX
  5
2F1
  8
GROUP0
 10
2.439352726198024
 20
415.8106611651079
 30
0.0
  0
VERTEX
  5
2F2
  8
GROUP0
 10
2.200975006696012
 20
415.500000828818
 30
0.0
  0
VERTEX
  5
2F3
  8
GROUP0
 10
2.051124622605982
 20
415.1382292930559
 30
0.0
  0
VERTEX
  5
2F4
  8
GROUP0
 10
2.00001362996602
 20
414.7500006901289
 30
0.0
  0
SEQEND
  5
427
  8
GROUP0
  0
POLYLINE
  5
8A
  8
GROUP0
 66
     1
 10
0.0
 20
0.0
 30
0.0
 70
     1
  0
VERTEX
  5
2F5
  8
GROUP0
 10
281.591060938741
 20
62.18322187939998
 30
0.0
  0
VERTEX
  5
2F6
  8
GROUP0
 10
281.932596714242
 20
62.00397007652987
 30
0.0
  0
VERTEX
  5
2F7
  8
GROUP0
 10
282.307105845102
 20
61.91166186626992
 30
0.0
  0
VERTEX
  5
2F8
  8
GROUP0
 10
282.692823221919
 20
61.91166186626992
 30
0.0
  0
VERTEX
  5
2F9
  8
GROUP0
 10
283.067332352779
 20
62.00397007652987
 30
0.0
  0
VERTEX
  5
2FA
  8
GROUP0
 10
283.40886812828
 20
62.18322187939998
 30
0.0
  0
VERTEX
  5
2FB
  8
GROUP0
 10
283.697581730584
 20
62.43899981163986
 30
0.0
  0
VERTEX
  5
2FC
  8
GROUP0
 10
283.916694174556
 20
62.75643898955991
 30
0.0
  0
VERTEX
  5
2FD
  8
GROUP0
 10
284.053471441392
 20
63.11709100197004
 30
0.0
  0
VERTEX
  5
2FE
  8
GROUP0
 10
284.099964533511
 20
63.49999606482993
 30
0.0
  0
VERTEX
  5
2FF
  8
GROUP0
 10
284.099964533511
 20
73.49999606482993
 30
0.0
  0
VERTEX
  5
300
  8
GROUP0
 10
284.088298732067
 20
73.69285475324
 30
0.0
  0
VERTEX
  5
301
  8
GROUP0
 10
284.053471441392
 20
73.88290112769005
 30
0.0
  0
VERTEX
  5
302
  8
GROUP0
 10
283.916694174556
 20
74.24355314009995
 30
0.0
  0
VERTEX
  5
303
  8
GROUP0
 10
283.697581730584
 20
74.56099231801
 30
0.0
  0
VERTEX
  5
304
  8
GROUP0
 10
283.408868128281
 20
74.81677025025988
 30
0.0
  0
VERTEX
  5
305
  8
GROUP0
 10
283.067332352779
 20
74.99602205311999
 30
0.0
  0
VERTEX
  5
306
  8
GROUP0
 10
282.692823221919
 20
75.08833026337993
 30
0.0
  0
VERTEX
  5
307
  8
GROUP0
 10
282.307105845102
 20
75.08833026337993
 30
0.0
  0
VERTEX
  5
308
  8
GROUP0
 10
281.932596714243
 20
74.99602205311999
 30
0.0
  0
VERTEX
  5
309
  8
GROUP0
 10
281.591060938741
 20
74.81677025025988
 30
0.0
  0
VERTEX
  5
30A
  8
GROUP0
 10
281.302347336437
 20
74.56099231801
 30
0.0
  0
VERTEX
  5
30B
  8
GROUP0
 10
281.083234892466
 20
74.24355314009995
 30
0.0
  0
VERTEX
  5
30C
  8
GROUP0
 10
280.946457625629
 20
73.88290112769005
 30
0.0
  0
VERTEX
  5
30D
  8
GROUP0
 10
280.899964533511
 20
73.49999606482993
 30
0.0
  0
VERTEX
  5
30E
  8
GROUP0
 10
280.899964533511
 20
63.49999606482993
 30
0.0
  0
VERTEX
  5
30F
  8
GROUP0
 10
280.946457625629
 20
63.11709100197004
 30
0.0
  0
VERTEX
  5
310
  8
GROUP0
 10
281.083234892466
 20
62.75643898955991
 30
0.0
  0
VERTEX
  5
311
  8
GROUP0
 10
281.302347336437
 20
62.43899981163986
 30
0.0
  0
SEQEND
  5
428
  8
GROUP0
  0
POLYLINE
  5
8B
  8
GROUP0
 66
     1
 10
0.0
 20
0.0
 30
0.0
 70
     1
  0
VERTEX
  5
312
  8
GROUP0
 10
9.551146821333987
 20
379.583561850095
 30
0.0
  0
VERTEX
  5
313
  8
GROUP0
 10
9.700997455090999
 20
379.2217904177489
 30
0.0
  0
VERTEX
  5
314
  8
GROUP0
 10
9.939375388988026
 20
378.9111302459689
 30
0.0
  0
VERTEX
  5
315
  8
GROUP0
 10
10.25003556076803
 20
378.6727523120729
 30
0.0
  0
VERTEX
  5
316
  8
GROUP0
 10
10.61180699311399
 20
378.522901678316
 30
0.0
  0
VERTEX
  5
317
  8
GROUP0
 10
11.00003556076803
 20
378.4717904177489
 30
0.0
  0
VERTEX
  5
318
  8
GROUP0
 10
11.38826412842099
 20
378.522901678316
 30
0.0
  0
VERTEX
  5
319
  8
GROUP0
 10
11.75003556076803
 20
378.6727523120729
 30
0.0
  0
VERTEX
  5
31A
  8
GROUP0
 10
12.060695732547
 20
378.9111302459689
 30
0.0
  0
VERTEX
  5
31B
  8
GROUP0
 10
12.29907366644397
 20
379.2217904177489
 30
0.0
  0
VERTEX
  5
31C
  8
GROUP0
 10
12.44892430020099
 20
379.583561850095
 30
0.0
  0
VERTEX
  5
31D
  8
GROUP0
 10
12.50003556076803
 20
379.9717904177489
 30
0.0
  0
VERTEX
  5
31E
  8
GROUP0
 10
12.44892430020099
 20
380.3600189854029
 30
0.0
  0
VERTEX
  5
31F
  8
GROUP0
 10
12.29907366644397
 20
380.7217904177489
 30
0.0
  0
VERTEX
  5
320
  8
GROUP0
 10
12.060695732547
 20
381.0324505895289
 30
0.0
  0
VERTEX
  5
321
  8
GROUP0
 10
11.75003556076803
 20
381.270828523426
 30
0.0
  0
VERTEX
  5
322
  8
GROUP0
 10
11.38826412842099
 20
381.4206791571829
 30
0.0
  0
VERTEX
  5
323
  8
GROUP0
 10
11.00003556076803
 20
381.4717904177489
 30
0.0
  0
VERTEX
  5
324
  8
GROUP0
 10
10.61180699311399
 20
381.4206791571829
 30
0.0
  0
VERTEX
  5
325
  8
GROUP0
 10
10.25003556076803
 20
381.270828523426
 30
0.0
  0
VERTEX
  5
326
  8
GROUP0
 10
9.939375388988026
 20
381.0324505895289
 30
0.0
  0
VERTEX
  5
327
  8
GROUP0
 10
9.700997455090999
 20
380.7217904177489
 30
0.0
  0
VERTEX
  5
328
  8
GROUP0
 10
9.551146821333987
 20
380.3600189854029
 30
0.0
  0
VERTEX
  5
329
  8
GROUP0
 10
9.500035560768026
 20
379.9717904177489
 30
0.0
  0
SEQEND
  5
429
  8
GROUP0
  0
POLYLINE
  5
8C
  8
GROUP0
 66
     1
 10
0.0
 20
0.0
 30
0.0
 70
     1
  0
VERTEX
  5
32A
  8
GROUP0
 10
73.86435935394502
 20
215.6999999999999
 30
0.0
  0
VERTEX
  5
32B
  8
GROUP0
 10
73.70451867793702
 20
216.0858895278359
 30
0.0
  0
VERTEX
  5
32C
  8
GROUP0
 10
73.64999999999998
 20
216.4999999999999
 30
0.0
  0
VERTEX
  5
32D
  8
GROUP0
 10
73.70451867793702
 20
216.914110472164
 30
0.0
  0
VERTEX
  5
32E
  8
GROUP0
 10
73.86435935394502
 20
217.3
 30
0.0
  0
VERTEX
  5
32F
  8
GROUP0
 10
74.11862915010101
 20
217.631370849899
 30
0.0
  0
VERTEX
  5
330
  8
GROUP0
 10
74.45000000000005
 20
217.885640646055
 30
0.0
  0
VERTEX
  5
331
  8
GROUP0
 10
74.835889527836
 20
218.045481322062
 30
0.0
  0
VERTEX
  5
332
  8
GROUP0
 10
75.25
 20
218.0999999999999
 30
0.0
  0
VERTEX
  5
333
  8
GROUP0
 10
75.664110472164
 20
218.045481322062
 30
0.0
  0
VERTEX
  5
334
  8
GROUP0
 10
76.04999999999995
 20
217.885640646055
 30
0.0
  0
VERTEX
  5
335
  8
GROUP0
 10
76.38137084989796
 20
217.631370849899
 30
0.0
  0
VERTEX
  5
336
  8
GROUP0
 10
76.63564064605498
 20
217.3
 30
0.0
  0
VERTEX
  5
337
  8
GROUP0
 10
76.79548132206196
 20
216.914110472164
 30
0.0
  0
VERTEX
  5
338
  8
GROUP0
 10
76.85000000000002
 20
216.4999999999999
 30
0.0
  0
VERTEX
  5
339
  8
GROUP0
 10
76.79548132206196
 20
216.0858895278359
 30
0.0
  0
VERTEX
  5
33A
  8
GROUP0
 10
76.63564064605498
 20
215.6999999999999
 30
0.0
  0
VERTEX
  5
33B
  8
GROUP0
 10
76.38137084989796
 20
215.3686291501019
 30
0.0
  0
VERTEX
  5
33C
  8
GROUP0
 10
76.04999999999995
 20
215.1143593539449
 30
0.0
  0
VERTEX
  5
33D
  8
GROUP0
 10
75.664110472164
 20
214.9545186779379
 30
0.0
  0
VERTEX
  5
33E
  8
GROUP0
 10
75.25
 20
214.9
 30
0.0
  0
VERTEX
  5
33F
  8
GROUP0
 10
74.835889527836
 20
214.9545186779379
 30
0.0
  0
VERTEX
  5
340
  8
GROUP0
 10
74.45000000000005
 20
215.1143593539449
 30
0.0
  0
VERTEX
  5
341
  8
GROUP0
 10
74.11862915010101
 20
215.3686291501019
 30
0.0
  0
SEQEND
  5
42A
  8
GROUP0
  0
POLYLINE
  5
8D
  8
GROUP0
 66
     1
 10
0.0
 20
0.0
 30
0.0
 70
     1
  0
VERTEX
  5
342
  8
GROUP0
 10
60.52804257532398
 20
115.499996064954
 30
0.0
  0
VERTEX
  5
343
  8
GROUP0
 10
60.52804257532398
 20
124.4999960648649
 30
0.0
  0
VERTEX
  5
344
  8
GROUP0
 10
260.528042575328
 20
124.4999960648649
 30
0.0
  0
VERTEX
  5
345
  8
GROUP0
 10
260.528042575328
 20
115.499996064954
 30
0.0
  0
SEQEND
  5
42B
  8
GROUP0
  0
POLYLINE
  5
8E
  8
GROUP0
 66
     1
 10
0.0
 20
0.0
 30
0.0
 70
     1
  0
VERTEX
  5
346
  8
GROUP0
 10
54.46738240354705
 20
118.9393358931
 30
0.0
  0
VERTEX
  5
347
  8
GROUP0
 10
54.77804257532705
 20
118.7009579592029
 30
0.0
  0
VERTEX
  5
348
  8
GROUP0
 10
55.13981400767295
 20
118.551107325446
 30
0.0
  0
VERTEX
  5
349
  8
GROUP0
 10
55.52804257532705
 20
118.49999606488
 30
0.0
  0
VERTEX
  5
34A
  8
GROUP0
 10
55.91627114298103
 20
118.551107325446
 30
0.0
  0
VERTEX
  5
34B
  8
GROUP0
 10
56.27804257532705
 20
118.7009579592029
 30
0.0
  0
VERTEX
  5
34C
  8
GROUP0
 10
56.58870274710705
 20
118.9393358931
 30
0.0
  0
VERTEX
  5
34D
  8
GROUP0
 10
56.82708068100396
 20
119.24999606488
 30
0.0
  0
VERTEX
  5
34E
  8
GROUP0
 10
56.97693131476001
 20
119.611767497226
 30
0.0
  0
VERTEX
  5
34F
  8
GROUP0
 10
57.02804257532705
 20
119.99999606488
 30
0.0
  0
VERTEX
  5
350
  8
GROUP0
 10
56.97693131476001
 20
120.3882246325339
 30
0.0
  0
VERTEX
  5
351
  8
GROUP0
 10
56.82708068100396
 20
120.74999606488
 30
0.0
  0
VERTEX
  5
352
  8
GROUP0
 10
56.58870274710705
 20
121.0606562366589
 30
0.0
  0
VERTEX
  5
353
  8
GROUP0
 10
56.27804257532705
 20
121.299034170556
 30
0.0
  0
VERTEX
  5
354
  8
GROUP0
 10
55.91627114298103
 20
121.4488848043129
 30
0.0
  0
VERTEX
  5
355
  8
GROUP0
 10
55.52804257532705
 20
121.49999606488
 30
0.0
  0
VERTEX
  5
356
  8
GROUP0
 10
55.13981400767295
 20
121.4488848043129
 30
0.0
  0
VERTEX
  5
357
  8
GROUP0
 10
54.77804257532705
 20
121.299034170556
 30
0.0
  0
VERTEX
  5
358
  8
GROUP0
 10
54.46738240354705
 20
121.0606562366589
 30
0.0
  0
VERTEX
  5
359
  8
GROUP0
 10
54.22900446965002
 20
120.74999606488
 30
0.0
  0
VERTEX
  5
35A
  8
GROUP0
 10
54.07915383589295
 20
120.3882246325339
 30
0.0
  0
VERTEX
  5
35B
  8
GROUP0
 10
54.02804257532705
 20
119.99999606488
 30
0.0
  0
VERTEX
  5
35C
  8
GROUP0
 10
54.07915383589295
 20
119.611767497226
 30
0.0
  0
VERTEX
  5
35D
  8
GROUP0
 10
54.22900446965002
 20
119.24999606488
 30
0.0
  0
SEQEND
  5
42C
  8
GROUP0
  0
POLYLINE
  5
8F
  8
GROUP0
 66
     1
 10
0.0
 20
0.0
 30
0.0
 70
     1
  0
VERTEX
  5
35E
  8
GROUP0
 10
6.500035560802985
 20
174.97179041775
 30
0.0
  0
VERTEX
  5
35F
  8
GROUP0
 10
6.500035560802985
 20
374.971790417751
 30
0.0
  0
VERTEX
  5
360
  8
GROUP0
 10
15.50003556075296
 20
374.971790417751
 30
0.0
  0
VERTEX
  5
361
  8
GROUP0
 10
15.50003556075296
 20
174.97179041775
 30
0.0
  0
SEQEND
  5
42D
  8
GROUP0
  0
POLYLINE
  5
90
  8
GROUP0
 66
     1
 10
0.0
 20
0.0
 30
0.0
 70
     1
  0
VERTEX
  5
362
  8
GROUP0
 10
32.08582254066903
 20
141.0857818361519
 30
0.0
  0
VERTEX
  5
363
  8
GROUP0
 10
32.50003610304202
 20
140.7679445909559
 30
0.0
  0
VERTEX
  5
364
  8
GROUP0
 10
32.98239801283705
 20
140.5681437459469
 30
0.0
  0
VERTEX
  5
365
  8
GROUP0
 10
33.50003610304202
 20
140.4999953985249
 30
0.0
  0
VERTEX
  5
366
  8
GROUP0
 10
34.01767419324699
 20
140.5681437459469
 30
0.0
  0
VERTEX
  5
367
  8
GROUP0
 10
34.50003610304202
 20
140.7679445909559
 30
0.0
  0
VERTEX
  5
368
  8
GROUP0
 10
34.91424966541501
 20
141.0857818361519
 30
0.0
  0
VERTEX
  5
369
  8
GROUP0
 10
35.23208691061097
 20
141.4999953985249
 30
0.0
  0
VERTEX
  5
36A
  8
GROUP0
 10
35.43188775561998
 20
141.9823573083199
 30
0.0
  0
VERTEX
  5
36B
  8
GROUP0
 10
35.50003610304202
 20
142.4999953985249
 30
0.0
  0
VERTEX
  5
36C
  8
GROUP0
 10
35.43188775561998
 20
143.01763348873
 30
0.0
  0
VERTEX
  5
36D
  8
GROUP0
 10
35.23208691061097
 20
143.4999953985249
 30
0.0
  0
VERTEX
  5
36E
  8
GROUP0
 10
34.91424966541501
 20
143.9142089608979
 30
0.0
  0
VERTEX
  5
36F
  8
GROUP0
 10
34.50003610304202
 20
144.232046206094
 30
0.0
  0
VERTEX
  5
370
  8
GROUP0
 10
34.01767419324699
 20
144.431847051103
 30
0.0
  0
VERTEX
  5
371
  8
GROUP0
 10
33.50003610304202
 20
144.4999953985249
 30
0.0
  0
VERTEX
  5
372
  8
GROUP0
 10
32.98239801283705
 20
144.431847051103
 30
0.0
  0
VERTEX
  5
373
  8
GROUP0
 10
32.50003610304202
 20
144.232046206094
 30
0.0
  0
VERTEX
  5
374
  8
GROUP0
 10
32.08582254066903
 20
143.9142089608979
 30
0.0
  0
VERTEX
  5
375
  8
GROUP0
 10
31.76798529547295
 20
143.4999953985249
 30
0.0
  0
VERTEX
  5
376
  8
GROUP0
 10
31.56818445046395
 20
143.01763348873
 30
0.0
  0
VERTEX
  5
377
  8
GROUP0
 10
31.50003610304202
 20
142.4999953985249
 30
0.0
  0
VERTEX
  5
378
  8
GROUP0
 10
31.56818445046395
 20
141.9823573083199
 30
0.0
  0
VERTEX
  5
379
  8
GROUP0
 10
31.76798529547295
 20
141.4999953985249
 30
0.0
  0
SEQEND
  5
42E
  8
GROUP0
  0
POLYLINE
  5
91
  8
GROUP0
 66
     1
 10
0.0
 20
0.0
 30
0.0
 70
     1
  0
VERTEX
  5
37A
  8
GROUP0
 10
9.70099745512698
 20
169.22179042011
 30
0.0
  0
VERTEX
  5
37B
  8
GROUP0
 10
9.939375389022985
 20
168.91113024833
 30
0.0
  0
VERTEX
  5
37C
  8
GROUP0
 10
10.25003556080298
 20
168.672752314433
 30
0.0
  0
VERTEX
  5
37D
  8
GROUP0
 10
10.611806993149
 20
168.5229016806759
 30
0.0
  0
VERTEX
  5
37E
  8
GROUP0
 10
11.00003556080298
 20
168.47179042011
 30
0.0
  0
VERTEX
  5
37F
  8
GROUP0
 10
11.38826412845702
 20
168.5229016806759
 30
0.0
  0
VERTEX
  5
380
  8
GROUP0
 10
11.75003556080298
 20
168.672752314433
 30
0.0
  0
VERTEX
  5
381
  8
GROUP0
 10
12.06069573258299
 20
168.91113024833
 30
0.0
  0
VERTEX
  5
382
  8
GROUP0
 10
12.29907366648001
 20
169.22179042011
 30
0.0
  0
VERTEX
  5
383
  8
GROUP0
 10
12.44892430023702
 20
169.5835618524559
 30
0.0
  0
VERTEX
  5
384
  8
GROUP0
 10
12.50003556080298
 20
169.97179042011
 30
0.0
  0
VERTEX
  5
385
  8
GROUP0
 10
12.44892430023702
 20
170.360018987764
 30
0.0
  0
VERTEX
  5
386
  8
GROUP0
 10
12.29907366648001
 20
170.72179042011
 30
0.0
  0
VERTEX
  5
387
  8
GROUP0
 10
12.06069573258299
 20
171.03245059189
 30
0.0
  0
VERTEX
  5
388
  8
GROUP0
 10
11.75003556080298
 20
171.270828525786
 30
0.0
  0
VERTEX
  5
389
  8
GROUP0
 10
11.38826412845702
 20
171.4206791595429
 30
0.0
  0
VERTEX
  5
38A
  8
GROUP0
 10
11.00003556080298
 20
171.47179042011
 30
0.0
  0
VERTEX
  5
38B
  8
GROUP0
 10
10.611806993149
 20
171.4206791595429
 30
0.0
  0
VERTEX
  5
38C
  8
GROUP0
 10
10.25003556080298
 20
171.270828525786
 30
0.0
  0
VERTEX
  5
38D
  8
GROUP0
 10
9.939375389022985
 20
171.03245059189
 30
0.0
  0
VERTEX
  5
38E
  8
GROUP0
 10
9.70099745512698
 20
170.72179042011
 30
0.0
  0
VERTEX
  5
38F
  8
GROUP0
 10
9.551146821370025
 20
170.360018987764
 30
0.0
  0
VERTEX
  5
390
  8
GROUP0
 10
9.500035560802985
 20
169.97179042011
 30
0.0
  0
VERTEX
  5
391
  8
GROUP0
 10
9.551146821370025
 20
169.5835618524559
 30
0.0
  0
SEQEND
  5
42F
  8
GROUP0
  0
POLYLINE
  5
92
  8
GROUP0
 66
     1
 10
0.0
 20
0.0
 30
0.0
 70
     1
  0
VERTEX
  5
392
  8
GROUP0
 10
19.68916171450905
 20
126.4392973803989
 30
0.0
  0
VERTEX
  5
393
  8
GROUP0
 10
19.99982205079903
 20
126.2009196608969
 30
0.0
  0
VERTEX
  5
394
  8
GROUP0
 10
20.36159358656096
 20
126.051069276808
 30
0.0
  0
VERTEX
  5
395
  8
GROUP0
 10
20.74982218948799
 20
125.999958284168
 30
0.0
  0
VERTEX
  5
396
  8
GROUP0
 10
21.13805072186801
 20
126.05106981266
 30
0.0
  0
VERTEX
  5
397
  8
GROUP0
 10
21.49982205079903
 20
126.2009206960849
 30
0.0
  0
VERTEX
  5
398
  8
GROUP0
 10
21.81048205806803
 20
126.4392988443759
 30
0.0
  0
VERTEX
  5
399
  8
GROUP0
 10
22.04885977756999
 20
126.749959180666
 30
0.0
  0
VERTEX
  5
39A
  8
GROUP0
 10
22.19871016165905
 20
127.1117307164269
 30
0.0
  0
VERTEX
  5
39B
  8
GROUP0
 10
22.24982115429998
 20
127.4999593193539
 30
0.0
  0
VERTEX
  5
39C
  8
GROUP0
 10
22.19870962580706
 20
127.888187851734
 30
0.0
  0
VERTEX
  5
39D
  8
GROUP0
 10
22.048858742383
 20
128.249959180665
 30
0.0
  0
VERTEX
  5
39E
  8
GROUP0
 10
21.81048059409102
 20
128.560619187934
 30
0.0
  0
VERTEX
  5
39F
  8
GROUP0
 10
21.49982025780105
 20
128.7989969074359
 30
0.0
  0
VERTEX
  5
3A0
  8
GROUP0
 10
21.138048722039
 20
128.948847291525
 30
0.0
  0
VERTEX
  5
3A1
  8
GROUP0
 10
20.74982011911197
 20
128.9999582841649
 30
0.0
  0
VERTEX
  5
3A2
  8
GROUP0
 10
20.36159158673195
 20
128.9488467556729
 30
0.0
  0
VERTEX
  5
3A3
  8
GROUP0
 10
19.99982025780105
 20
128.7989958722479
 30
0.0
  0
VERTEX
  5
3A4
  8
GROUP0
 10
19.68916025053204
 20
128.560617723957
 30
0.0
  0
VERTEX
  5
3A5
  8
GROUP0
 10
19.45078253102997
 20
128.249957387667
 30
0.0
  0
VERTEX
  5
3A6
  8
GROUP0
 10
19.30093214694102
 20
127.888185851906
 30
0.0
  0
VERTEX
  5
3A7
  8
GROUP0
 10
19.24982115429998
 20
127.4999572489789
 30
0.0
  0
VERTEX
  5
3A8
  8
GROUP0
 10
19.30093268279302
 20
127.1117287165989
 30
0.0
  0
VERTEX
  5
3A9
  8
GROUP0
 10
19.45078356621798
 20
126.7499573876679
 30
0.0
  0
SEQEND
  5
430
  8
GROUP0
  0
POLYLINE
  5
93
  8
GROUP0
 66
     1
 10
0.0
 20
0.0
 30
0.0
 70
     1
  0
VERTEX
  5
3AA
  8
GROUP0
 10
9.689161714510988
 20
126.439290479148
 30
0.0
  0
VERTEX
  5
3AB
  8
GROUP0
 10
9.999822050801981
 20
126.2009127596459
 30
0.0
  0
VERTEX
  5
3AC
  8
GROUP0
 10
10.361593586563
 20
126.051062375557
 30
0.0
  0
VERTEX
  5
3AD
  8
GROUP0
 10
10.74982218948998
 20
125.9999513829169
 30
0.0
  0
VERTEX
  5
3AE
  8
GROUP0
 10
11.13805072187102
 20
126.051062911409
 30
0.0
  0
VERTEX
  5
3AF
  8
GROUP0
 10
11.49982205080101
 20
126.2009137948339
 30
0.0
  0
VERTEX
  5
3B0
  8
GROUP0
 10
11.81048205807002
 20
126.439291943125
 30
0.0
  0
VERTEX
  5
3B1
  8
GROUP0
 10
12.048859777573
 20
126.749952279415
 30
0.0
  0
VERTEX
  5
3B2
  8
GROUP0
 10
12.19871016166201
 20
127.1117238151769
 30
0.0
  0
VERTEX
  5
3B3
  8
GROUP0
 10
12.24982115430203
 20
127.4999524181029
 30
0.0
  0
VERTEX
  5
3B4
  8
GROUP0
 10
12.19870962581001
 20
127.888180950484
 30
0.0
  0
VERTEX
  5
3B5
  8
GROUP0
 10
12.04885874238499
 20
128.2499522794139
 30
0.0
  0
VERTEX
  5
3B6
  8
GROUP0
 10
11.81048059409397
 20
128.560612286683
 30
0.0
  0
VERTEX
  5
3B7
  8
GROUP0
 10
11.499820257804
 20
128.7989900061849
 30
0.0
  0
VERTEX
  5
3B8
  8
GROUP0
 10
11.13804872204202
 20
128.948840390274
 30
0.0
  0
VERTEX
  5
3B9
  8
GROUP0
 10
10.74982011911499
 20
128.9999513829149
 30
0.0
  0
VERTEX
  5
3BA
  8
GROUP0
 10
10.36159158673502
 20
128.948839854422
 30
0.0
  0
VERTEX
  5
3BB
  8
GROUP0
 10
9.999820257804004
 20
128.7989889709969
 30
0.0
  0
VERTEX
  5
3BC
  8
GROUP0
 10
9.689160250534997
 20
128.5606108227059
 30
0.0
  0
VERTEX
  5
3BD
  8
GROUP0
 10
9.450782531032019
 20
128.249950486416
 30
0.0
  0
VERTEX
  5
3BE
  8
GROUP0
 10
9.300932146943012
 20
127.8881789506549
 30
0.0
  0
VERTEX
  5
3BF
  8
GROUP0
 10
9.249821154302992
 20
127.4999503477279
 30
0.0
  0
VERTEX
  5
3C0
  8
GROUP0
 10
9.300932682795008
 20
127.1117218153479
 30
0.0
  0
VERTEX
  5
3C1
  8
GROUP0
 10
9.450783566220025
 20
126.749950486417
 30
0.0
  0
SEQEND
  5
431
  8
GROUP0
  0
POLYLINE
  5
94
  8
GROUP0
 66
     1
 10
0.0
 20
0.0
 30
0.0
 70
     1
  0
VERTEX
  5
3C2
  8
GROUP0
 10
19.68917206638503
 20
111.4392973804099
 30
0.0
  0
VERTEX
  5
3C3
  8
GROUP0
 10
19.99983240267602
 20
111.200919660908
 30
0.0
  0
VERTEX
  5
3C4
  8
GROUP0
 10
20.36160393843704
 20
111.0510692768189
 30
0.0
  0
VERTEX
  5
3C5
  8
GROUP0
 10
20.74983254136396
 20
110.999958284178
 30
0.0
  0
VERTEX
  5
3C6
  8
GROUP0
 10
21.13806107374501
 20
111.0510698126709
 30
0.0
  0
VERTEX
  5
3C7
  8
GROUP0
 10
21.499832402675
 20
111.200920696095
 30
0.0
  0
VERTEX
  5
3C8
  8
GROUP0
 10
21.81049240994503
 20
111.4392988443869
 30
0.0
  0
VERTEX
  5
3C9
  8
GROUP0
 10
22.04887012944698
 20
111.7499591806769
 30
0.0
  0
VERTEX
  5
3CA
  8
GROUP0
 10
22.19872051353605
 20
112.1117307164379
 30
0.0
  0
VERTEX
  5
3CB
  8
GROUP0
 10
22.24983150617595
 20
112.499959319365
 30
0.0
  0
VERTEX
  5
3CC
  8
GROUP0
 10
22.19871997768405
 20
112.888187851745
 30
0.0
  0
VERTEX
  5
3CD
  8
GROUP0
 10
22.04886909425898
 20
113.2499591806759
 30
0.0
  0
VERTEX
  5
3CE
  8
GROUP0
 10
21.81049094596801
 20
113.5606191879449
 30
0.0
  0
VERTEX
  5
3CF
  8
GROUP0
 10
21.49983060967702
 20
113.798996907447
 30
0.0
  0
VERTEX
  5
3D0
  8
GROUP0
 10
21.138059073916
 20
113.9488472915359
 30
0.0
  0
VERTEX
  5
3D1
  8
GROUP0
 10
20.74983047098897
 20
113.9999582841759
 30
0.0
  0
VERTEX
  5
3D2
  8
GROUP0
 10
20.36160193860803
 20
113.9488467556839
 30
0.0
  0
VERTEX
  5
3D3
  8
GROUP0
 10
19.99983060967804
 20
113.798995872259
 30
0.0
  0
VERTEX
  5
3D4
  8
GROUP0
 10
19.68917060240904
 20
113.560617723968
 30
0.0
  0
VERTEX
  5
3D5
  8
GROUP0
 10
19.45079288290697
 20
113.2499573876779
 30
0.0
  0
VERTEX
  5
3D6
  8
GROUP0
 10
19.30094249881699
 20
112.888185851916
 30
0.0
  0
VERTEX
  5
3D7
  8
GROUP0
 10
19.24983150617697
 20
112.49995724899
 30
0.0
  0
VERTEX
  5
3D8
  8
GROUP0
 10
19.30094303467001
 20
112.1117287166089
 30
0.0
  0
VERTEX
  5
3D9
  8
GROUP0
 10
19.45079391809395
 20
111.7499573876789
 30
0.0
  0
SEQEND
  5
432
  8
GROUP0
  0
POLYLINE
  5
95
  8
GROUP0
 66
     1
 10
0.0
 20
0.0
 30
0.0
 70
     1
  0
VERTEX
  5
3DA
  8
GROUP0
 10
9.689172066387982
 20
111.4392904791589
 30
0.0
  0
VERTEX
  5
3DB
  8
GROUP0
 10
9.99983240267801
 20
111.2009127596569
 30
0.0
  0
VERTEX
  5
3DC
  8
GROUP0
 10
10.36160393844
 20
111.051062375567
 30
0.0
  0
VERTEX
  5
3DD
  8
GROUP0
 10
10.74983254136703
 20
110.999951382927
 30
0.0
  0
VERTEX
  5
3DE
  8
GROUP0
 10
11.138061073747
 20
111.05106291142
 30
0.0
  0
VERTEX
  5
3DF
  8
GROUP0
 10
11.49983240267801
 20
111.2009137948439
 30
0.0
  0
VERTEX
  5
3E0
  8
GROUP0
 10
11.81049240994702
 20
111.4392919431349
 30
0.0
  0
VERTEX
  5
3E1
  8
GROUP0
 10
12.04887012944903
 20
111.749952279426
 30
0.0
  0
VERTEX
  5
3E2
  8
GROUP0
 10
12.198720513539
 20
112.1117238151869
 30
0.0
  0
VERTEX
  5
3E3
  8
GROUP0
 10
12.24983150617902
 20
112.4999524181139
 30
0.0
  0
VERTEX
  5
3E4
  8
GROUP0
 10
12.19871997768598
 20
112.888180950494
 30
0.0
  0
VERTEX
  5
3E5
  8
GROUP0
 10
12.04886909426102
 20
113.249952279425
 30
0.0
  0
VERTEX
  5
3E6
  8
GROUP0
 10
11.81049094597
 20
113.560612286693
 30
0.0
  0
VERTEX
  5
3E7
  8
GROUP0
 10
11.49983060967998
 20
113.7989900061959
 30
0.0
  0
VERTEX
  5
3E8
  8
GROUP0
 10
11.13805907391799
 20
113.9488403902849
 30
0.0
  0
VERTEX
  5
3E9
  8
GROUP0
 10
10.74983047099101
 20
113.9999513829249
 30
0.0
  0
VERTEX
  5
3EA
  8
GROUP0
 10
10.36160193861099
 20
113.948839854432
 30
0.0
  0
VERTEX
  5
3EB
  8
GROUP0
 10
9.999830609679975
 20
113.7989889710079
 30
0.0
  0
VERTEX
  5
3EC
  8
GROUP0
 10
9.689170602411025
 20
113.560610822717
 30
0.0
  0
VERTEX
  5
3ED
  8
GROUP0
 10
9.450792882909013
 20
113.249950486427
 30
0.0
  0
VERTEX
  5
3EE
  8
GROUP0
 10
9.300942498820007
 20
112.888178950665
 30
0.0
  0
VERTEX
  5
3EF
  8
GROUP0
 10
9.24983150617902
 20
112.4999503477389
 30
0.0
  0
VERTEX
  5
3F0
  8
GROUP0
 10
9.300943034672002
 20
112.1117218153579
 30
0.0
  0
VERTEX
  5
3F1
  8
GROUP0
 10
9.450793918095997
 20
111.7499504864279
 30
0.0
  0
SEQEND
  5
433
  8
GROUP0
  0
POLYLINE
  5
96
  8
GROUP0
 66
     1
 10
0.0
 20
0.0
 30
0.0
 70
     1
  0
VERTEX
  5
3F2
  8
GROUP0
 10
0.2928932188140152
 20
0.2928932188099225
 30
0.0
  0
VERTEX
  5
3F3
  8
GROUP0
 10
0.1339745962159782
 20
0.5
 30
0.0
  0
VERTEX
  5
3F4
  8
GROUP0
 10
0.0340741737110193
 20
0.7411809548998463
 30
0.0
  0
VERTEX
  5
3F5
  8
GROUP0
 10
0.0
 20
1.0
 30
0.0
  0
VERTEX
  5
3F6
  8
GROUP0
 10
0.0
 20
468.9999999999999
 30
0.0
  0
VERTEX
  5
3F7
  8
GROUP0
 10
0.0340741737110193
 20
469.258819045103
 30
0.0
  0
VERTEX
  5
3F8
  8
GROUP0
 10
0.1339745962159782
 20
469.4999999999999
 30
0.0
  0
VERTEX
  5
3F9
  8
GROUP0
 10
0.292893218812992
 20
469.7071067811869
 30
0.0
  0
VERTEX
  5
3FA
  8
GROUP0
 10
0.5
 20
469.866025403785
 30
0.0
  0
VERTEX
  5
3FB
  8
GROUP0
 10
0.7411809548970041
 20
469.965925826289
 30
0.0
  0
VERTEX
  5
3FC
  8
GROUP0
 10
1.0
 20
469.9999999999999
 30
0.0
  0
VERTEX
  5
3FD
  8
GROUP0
 10
311.0
 20
469.9999999999999
 30
0.0
  0
VERTEX
  5
3FE
  8
GROUP0
 10
311.258819045103
 20
469.965925826289
 30
0.0
  0
VERTEX
  5
3FF
  8
GROUP0
 10
311.5
 20
469.866025403785
 30
0.0
  0
VERTEX
  5
400
  8
GROUP0
 10
311.707106781186
 20
469.7071067811869
 30
0.0
  0
VERTEX
  5
401
  8
GROUP0
 10
311.866025403784
 20
469.4999999999999
 30
0.0
  0
VERTEX
  5
402
  8
GROUP0
 10
311.965925826289
 20
469.258819045103
 30
0.0
  0
VERTEX
  5
403
  8
GROUP0
 10
312.0
 20
468.9999999999999
 30
0.0
  0
VERTEX
  5
404
  8
GROUP0
 10
312.0
 20
1.0
 30
0.0
  0
VERTEX
  5
405
  8
GROUP0
 10
311.965925826289
 20
0.7411809548998463
 30
0.0
  0
VERTEX
  5
406
  8
GROUP0
 10
311.866025403784
 20
0.5
 30
0.0
  0
VERTEX
  5
407
  8
GROUP0
 10
311.707106781186
 20
0.2928932188099225
 30
0.0
  0
VERTEX
  5
408
  8
GROUP0
 10
311.5
 20
0.1339745962200141
 30
0.0
  0
VERTEX
  5
409
  8
GROUP0
 10
311.258819045102
 20
0.0340741737099961
 30
0.0
  0
VERTEX
  5
40A
  8
GROUP0
 10
311.0
 20
0.0
 30
0.0
  0
VERTEX
  5
40B
  8
GROUP0
 10
1.0
 20
0.0
 30
0.0
  0
VERTEX
  5
40C
  8
GROUP0
 10
0.7411809548980273
 20
0.0340741737099961
 30
0.0
  0
VERTEX
  5
40D
  8
GROUP0
 10
0.5
 20
0.1339745962200141
 30
0.0
  0
SEQEND
  5
434
  8
GROUP0
  0
ENDSEC
  0
EOF
