  0
SECTION
  2
HEADER
  9
$ACADVER
  1
AC1009
  9
$DWGCODEPAGE
  3
ansi_1252
  9
$INSBASE
 10
0.0
 20
0.0
 30
0.0
  9
$EXTMIN
 10
0.0
 20
0.0
 30
0.0
  9
$EXTMAX
 10
312.0000000000721
 20
361.0000039351399
 30
0.0
  9
$LIMMIN
 10
0.0
 20
0.0
  9
$LIMMAX
 10
12.0
 20
9.0
  9
$ORTHOMODE
 70
     0
  9
$REGENMODE
 70
     1
  9
$FILLMODE
 70
     1
  9
$QTEXTMODE
 70
     0
  9
$MIRRTEXT
 70
     1
  9
$DRAGMODE
 70
     2
  9
$LTSCALE
 40
1.0
  9
$OSMODE
 70
    37
  9
$ATTMODE
 70
     1
  9
$TEXTSIZE
 40
0.2
  9
$TRACEWID
 40
0.05
  9
$TEXTSTYLE
  7
STANDARD
  9
$CLAYER
  8
0
  9
$CELTYPE
  6
BYLAYER
  9
$CECOLOR
 62
   256
  9
$DIMSCALE
 40
1.0
  9
$DIMASZ
 40
0.18
  9
$DIMEXO
 40
0.0625
  9
$DIMDLI
 40
0.38
  9
$DIMRND
 40
0.0
  9
$DIMDLE
 40
0.0
  9
$DIMEXE
 40
0.18
  9
$DIMTP
 40
0.0
  9
$DIMTM
 40
0.0
  9
$DIMTXT
 40
0.18
  9
$DIMCEN
 40
0.09
  9
$DIMTSZ
 40
0.0
  9
$DIMTOL
 70
     0
  9
$DIMLIM
 70
     0
  9
$DIMTIH
 70
     1
  9
$DIMTOH
 70
     1
  9
$DIMSE1
 70
     0
  9
$DIMSE2
 70
     0
  9
$DIMTAD
 70
     0
  9
$DIMZIN
 70
     0
  9
$DIMBLK
  1

  9
$DIMASO
 70
     1
  9
$DIMSHO
 70
     1
  9
$DIMPOST
  1

  9
$DIMAPOST
  1

  9
$DIMALT
 70
     0
  9
$DIMALTD
 70
     2
  9
$DIMALTF
 40
25.4
  9
$DIMLFAC
 40
1.0
  9
$DIMTOFL
 70
     0
  9
$DIMTVP
 40
0.0
  9
$DIMTIX
 70
     0
  9
$DIMSOXD
 70
     0
  9
$DIMSAH
 70
     0
  9
$DIMBLK1
  1

  9
$DIMBLK2
  1

  9
$DIMSTYLE
  2
STANDARD
  9
$DIMCLRD
 70
     0
  9
$DIMCLRE
 70
     0
  9
$DIMCLRT
 70
     0
  9
$DIMTFAC
 40
1.0
  9
$DIMGAP
 40
0.09
  9
$LUNITS
 70
     2
  9
$LUPREC
 70
     4
  9
$SKETCHINC
 40
0.1
  9
$FILLETRAD
 40
0.5
  9
$AUNITS
 70
     0
  9
$AUPREC
 70
     0
  9
$MENU
  1
.
  9
$ELEVATION
 40
0.0
  9
$PELEVATION
 40
0.0
  9
$THICKNESS
 40
0.0
  9
$LIMCHECK
 70
     0
  9
$CHAMFERA
 40
0.0
  9
$CHAMFERB
 40
0.0
  9
$SKPOLY
 70
     0
  9
$TDCREATE
 40
2454910.5
  9
$TDUPDATE
 40
2458513.788142257
  9
$TDINDWG
 40
0.0000000116
  9
$TDUSRTIMER
 40
0.0000000116
  9
$USRTIMER
 70
     1
  9
$ANGBASE
 50
0.0
  9
$ANGDIR
 70
     0
  9
$PDMODE
 70
     0
  9
$PDSIZE
 40
0.0
  9
$PLINEWID
 40
0.0
  9
$COORDS
 70
     1
  9
$SPLFRAME
 70
     0
  9
$SPLINETYPE
 70
     6
  9
$SPLINESEGS
 70
     8
  9
$ATTDIA
 70
     0
  9
$ATTREQ
 70
     1
  9
$HANDLING
 70
     1
  9
$HANDSEED
  5
1F1
  9
$SURFTAB1
 70
     6
  9
$SURFTAB2
 70
     6
  9
$SURFTYPE
 70
     6
  9
$SURFU
 70
     6
  9
$SURFV
 70
     6
  9
$UCSNAME
  2

  9
$UCSORG
 10
0.0
 20
0.0
 30
0.0
  9
$UCSXDIR
 10
1.0
 20
0.0
 30
0.0
  9
$UCSYDIR
 10
0.0
 20
1.0
 30
0.0
  9
$PUCSNAME
  2

  9
$PUCSORG
 10
0.0
 20
0.0
 30
0.0
  9
$PUCSXDIR
 10
1.0
 20
0.0
 30
0.0
  9
$PUCSYDIR
 10
0.0
 20
1.0
 30
0.0
  9
$USERI1
 70
     0
  9
$USERI2
 70
     0
  9
$USERI3
 70
     0
  9
$USERI4
 70
     0
  9
$USERI5
 70
     0
  9
$USERR1
 40
0.0
  9
$USERR2
 40
0.0
  9
$USERR3
 40
0.0
  9
$USERR4
 40
0.0
  9
$USERR5
 40
0.0
  9
$WORLDVIEW
 70
     1
  9
$SHADEDGE
 70
     3
  9
$SHADEDIF
 70
    70
  9
$TILEMODE
 70
     1
  9
$MAXACTVP
 70
    64
  9
$PLIMCHECK
 70
     0
  9
$PEXTMIN
 10
1.000000000000000E+20
 20
1.000000000000000E+20
 30
1.000000000000000E+20
  9
$PEXTMAX
 10
-1.000000000000000E+20
 20
-1.000000000000000E+20
 30
-1.000000000000000E+20
  9
$PLIMMIN
 10
0.0
 20
0.0
  9
$PLIMMAX
 10
12.0
 20
9.0
  9
$UNITMODE
 70
     0
  9
$VISRETAIN
 70
     1
  9
$PLINEGEN
 70
     0
  9
$PSLTSCALE
 70
     1
  0
ENDSEC
  0
SECTION
  2
TABLES
  0
TABLE
  2
VPORT
 70
     1
  0
VPORT
  2
*ACTIVE
 70
     0
 10
0.0
 20
0.0
 11
1.0
 21
1.0
 12
10.42990654205607
 22
4.5
 13
0.0
 23
0.0
 14
0.5
 24
0.5
 15
0.5
 25
0.5
 16
0.0
 26
0.0
 36
1.0
 17
0.0
 27
0.0
 37
0.0
 40
9.0
 41
1.972972972850329
 42
50.0
 43
0.0
 44
0.0
 50
0.0
 51
0.0
 71
     0
 72
   100
 73
     1
 74
     3
 75
     0
 76
     0
 77
     0
 78
     0
  0
ENDTAB
  0
TABLE
  2
LTYPE
 70
     2
  0
LTYPE
  2
CONTINUOUS
 70
     0
  3
Solid line
 72
    65
 73
     0
 40
0.0
  0
LTYPE
  2
CONTINUOUS2
 70
     0
  3
Solid Line
 72
    65
 73
     0
 40
0.0
  0
ENDTAB
  0
TABLE
  2
LAYER
 70
     2
  0
LAYER
  2
0
 70
     0
 62
     7
  6
CONTINUOUS
  0
LAYER
  2
GROUP0
 70
     0
 62
    18
  6
CONTINUOUS
  0
ENDTAB
  0
TABLE
  2
STYLE
 70
     1
  0
STYLE
  2
STANDARD
 70
     0
 40
0.0
 41
1.0
 50
0.0
 71
     0
 42
0.2
  3
txt
  4

  0
ENDTAB
  0
TABLE
  2
VIEW
 70
     0
  0
ENDTAB
  0
TABLE
  2
UCS
 70
     0
  0
ENDTAB
  0
TABLE
  2
APPID
 70
     1
  0
APPID
  2
ACAD
 70
     0
  0
ENDTAB
  0
TABLE
  2
DIMSTYLE
 70
     1
  0
DIMSTYLE
  2
STANDARD
 70
     0
  3

  4

  5

  6

  7

 40
1.0
 41
0.18
 42
0.0625
 43
0.38
 44
0.18
 45
0.0
 46
0.0
 47
0.0
 48
0.0
140
0.18
141
0.09
142
0.0
143
25.4
144
1.0
145
0.0
146
1.0
147
0.09
 71
     0
 72
     0
 73
     1
 74
     1
 75
     0
 76
     0
 77
     0
 78
     0
170
     0
171
     2
172
     0
173
     0
174
     0
175
     0
176
     0
177
     0
178
     0
  0
ENDTAB
  0
ENDSEC
  0
SECTION
  2
BLOCKS
  0
BLOCK
  8
0
  2
$MODEL_SPACE
 70
     0
 10
0.0
 20
0.0
 30
0.0
  3
$MODEL_SPACE
  1

  0
ENDBLK
  5
21
  8
0
  0
BLOCK
 67
     1
  8
0
  2
$PAPER_SPACE
 70
     0
 10
0.0
 20
0.0
 30
0.0
  3
$PAPER_SPACE
  1

  0
ENDBLK
  5
1D
 67
     1
  8
0
  0
ENDSEC
  0
SECTION
  2
ENTITIES
  0
POLYLINE
  5
70
  8
GROUP0
 66
     1
 10
0.0
 20
0.0
 30
0.0
 70
     1
  0
VERTEX
  5
89
  8
GROUP0
 10
270.868629150302
 20
327.368633085241
 30
0.0
  0
VERTEX
  5
8A
  8
GROUP0
 10
271.200000000202
 20
327.114363289085
 30
0.0
  0
VERTEX
  5
8B
  8
GROUP0
 10
271.5858895280321
 20
326.954522613077
 30
0.0
  0
VERTEX
  5
8C
  8
GROUP0
 10
272.0000000002021
 20
326.9000039351399
 30
0.0
  0
VERTEX
  5
8D
  8
GROUP0
 10
272.4141104723622
 20
326.954522613077
 30
0.0
  0
VERTEX
  5
8E
  8
GROUP0
 10
272.8000000002021
 20
327.114363289085
 30
0.0
  0
VERTEX
  5
8F
  8
GROUP0
 10
273.131370850102
 20
327.368633085241
 30
0.0
  0
VERTEX
  5
90
  8
GROUP0
 10
273.3856406462521
 20
327.70000393514
 30
0.0
  0
VERTEX
  5
91
  8
GROUP0
 10
273.545481322262
 20
328.0858934629759
 30
0.0
  0
VERTEX
  5
92
  8
GROUP0
 10
273.600000000202
 20
328.5000039351399
 30
0.0
  0
VERTEX
  5
93
  8
GROUP0
 10
273.600000000202
 20
333.5000039351399
 30
0.0
  0
VERTEX
  5
94
  8
GROUP0
 10
273.545481322262
 20
333.9141144073039
 30
0.0
  0
VERTEX
  5
95
  8
GROUP0
 10
273.3856406462521
 20
334.3000039351399
 30
0.0
  0
VERTEX
  5
96
  8
GROUP0
 10
273.131370850102
 20
334.6313747850379
 30
0.0
  0
VERTEX
  5
97
  8
GROUP0
 10
272.8000000002021
 20
334.8856445811949
 30
0.0
  0
VERTEX
  5
98
  8
GROUP0
 10
272.4141104723622
 20
335.0454852572019
 30
0.0
  0
VERTEX
  5
99
  8
GROUP0
 10
272.0000000002021
 20
335.10000393514
 30
0.0
  0
VERTEX
  5
9A
  8
GROUP0
 10
271.5858895280321
 20
335.0454852572019
 30
0.0
  0
VERTEX
  5
9B
  8
GROUP0
 10
271.200000000202
 20
334.8856445811949
 30
0.0
  0
VERTEX
  5
9C
  8
GROUP0
 10
270.868629150302
 20
334.6313747850379
 30
0.0
  0
VERTEX
  5
9D
  8
GROUP0
 10
270.6143593541422
 20
334.3000039351399
 30
0.0
  0
VERTEX
  5
9E
  8
GROUP0
 10
270.454518678142
 20
333.9141144073039
 30
0.0
  0
VERTEX
  5
9F
  8
GROUP0
 10
270.400000000202
 20
333.5000039351399
 30
0.0
  0
VERTEX
  5
A0
  8
GROUP0
 10
270.400000000202
 20
328.5000039351399
 30
0.0
  0
VERTEX
  5
A1
  8
GROUP0
 10
270.454518678132
 20
328.0858934629759
 30
0.0
  0
VERTEX
  5
A2
  8
GROUP0
 10
270.6143593541422
 20
327.70000393514
 30
0.0
  0
SEQEND
  5
1DF
  8
GROUP0
  0
POLYLINE
  5
71
  8
GROUP0
 66
     1
 10
0.0
 20
0.0
 30
0.0
 70
     1
  0
VERTEX
  5
A3
  8
GROUP0
 10
296.4999644392021
 20
125.028373966397
 30
0.0
  0
VERTEX
  5
A4
  8
GROUP0
 10
305.499964439332
 20
125.028373966397
 30
0.0
  0
VERTEX
  5
A5
  8
GROUP0
 10
305.499964439332
 20
325.0283739663899
 30
0.0
  0
VERTEX
  5
A6
  8
GROUP0
 10
296.4999644392021
 20
325.0283739663899
 30
0.0
  0
SEQEND
  5
1E0
  8
GROUP0
  0
POLYLINE
  5
72
  8
GROUP0
 66
     1
 10
0.0
 20
0.0
 30
0.0
 70
     1
  0
VERTEX
  5
A7
  8
GROUP0
 10
286.650000000132
 20
58.02576078063998
 30
0.0
  0
VERTEX
  5
A8
  8
GROUP0
 10
287.0600076234521
 20
57.85593006237991
 30
0.0
  0
VERTEX
  5
A9
  8
GROUP0
 10
287.5000000001321
 20
57.79800396706992
 30
0.0
  0
VERTEX
  5
AA
  8
GROUP0
 10
287.9399923768021
 20
57.85593006237991
 30
0.0
  0
VERTEX
  5
AB
  8
GROUP0
 10
288.350000000132
 20
58.02576078063998
 30
0.0
  0
VERTEX
  5
AC
  8
GROUP0
 10
288.7020815281421
 20
58.29592243905995
 30
0.0
  0
VERTEX
  5
AD
  8
GROUP0
 10
288.9722431865621
 20
58.64800396707005
 30
0.0
  0
VERTEX
  5
AE
  8
GROUP0
 10
289.1420739048222
 20
59.05801159039993
 30
0.0
  0
VERTEX
  5
AF
  8
GROUP0
 10
289.2000000001321
 20
59.49800396706996
 30
0.0
  0
VERTEX
  5
B0
  8
GROUP0
 10
289.1420739048222
 20
59.93799634375
 30
0.0
  0
VERTEX
  5
B1
  8
GROUP0
 10
288.9722431865621
 20
60.34800396706987
 30
0.0
  0
VERTEX
  5
B2
  8
GROUP0
 10
288.7020815281421
 20
60.70008549508998
 30
0.0
  0
VERTEX
  5
B3
  8
GROUP0
 10
288.350000000132
 20
60.97024715350994
 30
0.0
  0
VERTEX
  5
B4
  8
GROUP0
 10
287.9399923768021
 20
61.14007787177002
 30
0.0
  0
VERTEX
  5
B5
  8
GROUP0
 10
287.5000000001321
 20
61.19800396707001
 30
0.0
  0
VERTEX
  5
B6
  8
GROUP0
 10
287.0600076234521
 20
61.14007787177002
 30
0.0
  0
VERTEX
  5
B7
  8
GROUP0
 10
286.650000000132
 20
60.97024715350994
 30
0.0
  0
VERTEX
  5
B8
  8
GROUP0
 10
286.2979184721121
 20
60.70008549508998
 30
0.0
  0
VERTEX
  5
B9
  8
GROUP0
 10
286.0277568136921
 20
60.34800396706987
 30
0.0
  0
VERTEX
  5
BA
  8
GROUP0
 10
285.8579260954421
 20
59.93799634375
 30
0.0
  0
VERTEX
  5
BB
  8
GROUP0
 10
285.8000000001321
 20
59.49800396706996
 30
0.0
  0
VERTEX
  5
BC
  8
GROUP0
 10
285.8579260954421
 20
59.05801159039993
 30
0.0
  0
VERTEX
  5
BD
  8
GROUP0
 10
286.0277568136921
 20
58.64800396707005
 30
0.0
  0
VERTEX
  5
BE
  8
GROUP0
 10
286.2979184721121
 20
58.29592243905995
 30
0.0
  0
SEQEND
  5
1E1
  8
GROUP0
  0
POLYLINE
  5
73
  8
GROUP0
 66
     1
 10
0.0
 20
0.0
 30
0.0
 70
     1
  0
VERTEX
  5
BF
  8
GROUP0
 10
261.5000000000221
 20
67.99800396737987
 30
0.0
  0
VERTEX
  5
C0
  8
GROUP0
 10
270.5000000001221
 20
67.99800396737987
 30
0.0
  0
VERTEX
  5
C1
  8
GROUP0
 10
270.5000000001221
 20
317.998003967375
 30
0.0
  0
VERTEX
  5
C2
  8
GROUP0
 10
261.5000000000221
 20
317.998003967375
 30
0.0
  0
SEQEND
  5
1E2
  8
GROUP0
  0
POLYLINE
  5
74
  8
GROUP0
 66
     1
 10
0.0
 20
0.0
 30
0.0
 70
     1
  0
VERTEX
  5
C3
  8
GROUP0
 10
28.6143593540811
 20
327.70000393514
 30
0.0
  0
VERTEX
  5
C4
  8
GROUP0
 10
28.86862915023801
 20
327.368633085241
 30
0.0
  0
VERTEX
  5
C5
  8
GROUP0
 10
29.20000000013704
 20
327.114363289085
 30
0.0
  0
VERTEX
  5
C6
  8
GROUP0
 10
29.58588952797209
 20
326.954522613077
 30
0.0
  0
VERTEX
  5
C7
  8
GROUP0
 10
30.00000000013608
 20
326.9000039351399
 30
0.0
  0
VERTEX
  5
C8
  8
GROUP0
 10
30.41411047230099
 20
326.954522613077
 30
0.0
  0
VERTEX
  5
C9
  8
GROUP0
 10
30.80000000013706
 20
327.114363289085
 30
0.0
  0
VERTEX
  5
CA
  8
GROUP0
 10
31.13137085003507
 20
327.368633085241
 30
0.0
  0
VERTEX
  5
CB
  8
GROUP0
 10
31.38564064619106
 20
327.70000393514
 30
0.0
  0
VERTEX
  5
CC
  8
GROUP0
 10
31.54548132219907
 20
328.0858934629759
 30
0.0
  0
VERTEX
  5
CD
  8
GROUP0
 10
31.60000000013702
 20
328.5000039351399
 30
0.0
  0
VERTEX
  5
CE
  8
GROUP0
 10
31.60000000013702
 20
333.5000039351399
 30
0.0
  0
VERTEX
  5
CF
  8
GROUP0
 10
31.54548132219907
 20
333.9141144073039
 30
0.0
  0
VERTEX
  5
D0
  8
GROUP0
 10
31.38564064619106
 20
334.3000039351399
 30
0.0
  0
VERTEX
  5
D1
  8
GROUP0
 10
31.13137085003507
 20
334.6313747850379
 30
0.0
  0
VERTEX
  5
D2
  8
GROUP0
 10
30.80000000013706
 20
334.8856445811949
 30
0.0
  0
VERTEX
  5
D3
  8
GROUP0
 10
30.41411047230099
 20
335.0454852572019
 30
0.0
  0
VERTEX
  5
D4
  8
GROUP0
 10
30.00000000013608
 20
335.10000393514
 30
0.0
  0
VERTEX
  5
D5
  8
GROUP0
 10
29.58588952797209
 20
335.0454852572019
 30
0.0
  0
VERTEX
  5
D6
  8
GROUP0
 10
29.20000000013704
 20
334.8856445811949
 30
0.0
  0
VERTEX
  5
D7
  8
GROUP0
 10
28.86862915023801
 20
334.6313747850379
 30
0.0
  0
VERTEX
  5
D8
  8
GROUP0
 10
28.6143593540811
 20
334.3000039351399
 30
0.0
  0
VERTEX
  5
D9
  8
GROUP0
 10
28.45451867807401
 20
333.9141144073039
 30
0.0
  0
VERTEX
  5
DA
  8
GROUP0
 10
28.40000000013708
 20
333.5000039351399
 30
0.0
  0
VERTEX
  5
DB
  8
GROUP0
 10
28.40000000013708
 20
328.5000039351399
 30
0.0
  0
VERTEX
  5
DC
  8
GROUP0
 10
28.45451867807401
 20
328.0858934629759
 30
0.0
  0
SEQEND
  5
1E3
  8
GROUP0
  0
POLYLINE
  5
75
  8
GROUP0
 66
     1
 10
0.0
 20
0.0
 30
0.0
 70
     1
  0
VERTEX
  5
DD
  8
GROUP0
 10
255.650000000132
 20
58.02576078063998
 30
0.0
  0
VERTEX
  5
DE
  8
GROUP0
 10
256.0600076234521
 20
57.85593006237991
 30
0.0
  0
VERTEX
  5
DF
  8
GROUP0
 10
256.5000000001321
 20
57.79800396706992
 30
0.0
  0
VERTEX
  5
E0
  8
GROUP0
 10
256.9399923768021
 20
57.85593006237991
 30
0.0
  0
VERTEX
  5
E1
  8
GROUP0
 10
257.350000000132
 20
58.02576078063998
 30
0.0
  0
VERTEX
  5
E2
  8
GROUP0
 10
257.7020815281421
 20
58.29592243905995
 30
0.0
  0
VERTEX
  5
E3
  8
GROUP0
 10
257.9722431865621
 20
58.64800396707005
 30
0.0
  0
VERTEX
  5
E4
  8
GROUP0
 10
258.1420739048222
 20
59.05801159039993
 30
0.0
  0
VERTEX
  5
E5
  8
GROUP0
 10
258.2000000001321
 20
59.49800396706996
 30
0.0
  0
VERTEX
  5
E6
  8
GROUP0
 10
258.1420739048222
 20
59.93799634375
 30
0.0
  0
VERTEX
  5
E7
  8
GROUP0
 10
257.9722431865621
 20
60.34800396706987
 30
0.0
  0
VERTEX
  5
E8
  8
GROUP0
 10
257.7020815281421
 20
60.70008549508998
 30
0.0
  0
VERTEX
  5
E9
  8
GROUP0
 10
257.350000000132
 20
60.97024715350994
 30
0.0
  0
VERTEX
  5
EA
  8
GROUP0
 10
256.9399923768021
 20
61.14007787177002
 30
0.0
  0
VERTEX
  5
EB
  8
GROUP0
 10
256.5000000001321
 20
61.19800396707001
 30
0.0
  0
VERTEX
  5
EC
  8
GROUP0
 10
256.0600076234521
 20
61.14007787177002
 30
0.0
  0
VERTEX
  5
ED
  8
GROUP0
 10
255.650000000132
 20
60.97024715350994
 30
0.0
  0
VERTEX
  5
EE
  8
GROUP0
 10
255.2979184721121
 20
60.70008549508998
 30
0.0
  0
VERTEX
  5
EF
  8
GROUP0
 10
255.0277568136921
 20
60.34800396706987
 30
0.0
  0
VERTEX
  5
F0
  8
GROUP0
 10
254.8579260954421
 20
59.93799634375
 30
0.0
  0
VERTEX
  5
F1
  8
GROUP0
 10
254.8000000001321
 20
59.49800396706996
 30
0.0
  0
VERTEX
  5
F2
  8
GROUP0
 10
254.8579260954421
 20
59.05801159039993
 30
0.0
  0
VERTEX
  5
F3
  8
GROUP0
 10
255.0277568136921
 20
58.64800396707005
 30
0.0
  0
VERTEX
  5
F4
  8
GROUP0
 10
255.2979184721121
 20
58.29592243905995
 30
0.0
  0
SEQEND
  5
1E4
  8
GROUP0
  0
POLYLINE
  5
76
  8
GROUP0
 66
     1
 10
0.0
 20
0.0
 30
0.0
 70
     1
  0
VERTEX
  5
F5
  8
GROUP0
 10
286.650000000122
 20
27.02576078062998
 30
0.0
  0
VERTEX
  5
F6
  8
GROUP0
 10
287.0600076234521
 20
26.85593006237991
 30
0.0
  0
VERTEX
  5
F7
  8
GROUP0
 10
287.5000000001221
 20
26.79800396706992
 30
0.0
  0
VERTEX
  5
F8
  8
GROUP0
 10
287.9399923768021
 20
26.85593006237991
 30
0.0
  0
VERTEX
  5
F9
  8
GROUP0
 10
288.350000000122
 20
27.02576078062998
 30
0.0
  0
VERTEX
  5
FA
  8
GROUP0
 10
288.7020815281421
 20
27.29592243904995
 30
0.0
  0
VERTEX
  5
FB
  8
GROUP0
 10
288.9722431865621
 20
27.64800396707005
 30
0.0
  0
VERTEX
  5
FC
  8
GROUP0
 10
289.1420739048222
 20
28.05801159039993
 30
0.0
  0
VERTEX
  5
FD
  8
GROUP0
 10
289.2000000001321
 20
28.49800396706996
 30
0.0
  0
VERTEX
  5
FE
  8
GROUP0
 10
289.1420739048222
 20
28.93799634375
 30
0.0
  0
VERTEX
  5
FF
  8
GROUP0
 10
288.9722431865621
 20
29.34800396707988
 30
0.0
  0
VERTEX
  5
100
  8
GROUP0
 10
288.7020815281421
 20
29.70008549509998
 30
0.0
  0
VERTEX
  5
101
  8
GROUP0
 10
288.350000000122
 20
29.97024715350994
 30
0.0
  0
VERTEX
  5
102
  8
GROUP0
 10
287.9399923768021
 20
30.14007787177002
 30
0.0
  0
VERTEX
  5
103
  8
GROUP0
 10
287.5000000001221
 20
30.19800396708001
 30
0.0
  0
VERTEX
  5
104
  8
GROUP0
 10
287.0600076234521
 20
30.14007787177002
 30
0.0
  0
VERTEX
  5
105
  8
GROUP0
 10
286.650000000122
 20
29.97024715350994
 30
0.0
  0
VERTEX
  5
106
  8
GROUP0
 10
286.2979184721021
 20
29.70008549509998
 30
0.0
  0
VERTEX
  5
107
  8
GROUP0
 10
286.0277568136821
 20
29.34800396707988
 30
0.0
  0
VERTEX
  5
108
  8
GROUP0
 10
285.857926095422
 20
28.93799634375
 30
0.0
  0
VERTEX
  5
109
  8
GROUP0
 10
285.800000000112
 20
28.49800396706996
 30
0.0
  0
VERTEX
  5
10A
  8
GROUP0
 10
285.857926095422
 20
28.05801159039993
 30
0.0
  0
VERTEX
  5
10B
  8
GROUP0
 10
286.0277568136821
 20
27.64800396707005
 30
0.0
  0
VERTEX
  5
10C
  8
GROUP0
 10
286.2979184721021
 20
27.29592243904995
 30
0.0
  0
SEQEND
  5
1E5
  8
GROUP0
  0
POLYLINE
  5
77
  8
GROUP0
 66
     1
 10
0.0
 20
0.0
 30
0.0
 70
     1
  0
VERTEX
  5
10D
  8
GROUP0
 10
265.5000000001321
 20
32.7396737178899
 30
0.0
  0
VERTEX
  5
10E
  8
GROUP0
 10
268.6353524138021
 20
31.44096822532993
 30
0.0
  0
VERTEX
  5
10F
  8
GROUP0
 10
272.0000000001321
 20
30.99800396708997
 30
0.0
  0
VERTEX
  5
110
  8
GROUP0
 10
275.3646475864721
 20
31.44096822532993
 30
0.0
  0
VERTEX
  5
111
  8
GROUP0
 10
278.5000000001321
 20
32.7396737178899
 30
0.0
  0
VERTEX
  5
112
  8
GROUP0
 10
281.192388155562
 20
34.80561581165989
 30
0.0
  0
VERTEX
  5
113
  8
GROUP0
 10
283.2583302493319
 20
37.49800396708997
 30
0.0
  0
VERTEX
  5
114
  8
GROUP0
 10
284.5570357418922
 20
40.63335638075
 30
0.0
  0
VERTEX
  5
115
  8
GROUP0
 10
285.0000000001421
 20
43.99800396707997
 30
0.0
  0
VERTEX
  5
116
  8
GROUP0
 10
284.5570357419022
 20
47.36265155341994
 30
0.0
  0
VERTEX
  5
117
  8
GROUP0
 10
283.258330249342
 20
50.49800396708997
 30
0.0
  0
VERTEX
  5
118
  8
GROUP0
 10
281.192388155562
 20
53.19039212251005
 30
0.0
  0
VERTEX
  5
119
  8
GROUP0
 10
278.5000000001421
 20
55.25633421628004
 30
0.0
  0
VERTEX
  5
11A
  8
GROUP0
 10
275.3646475864721
 20
56.55503970885002
 30
0.0
  0
VERTEX
  5
11B
  8
GROUP0
 10
272.0000000001421
 20
56.99800396708997
 30
0.0
  0
VERTEX
  5
11C
  8
GROUP0
 10
268.6353524138121
 20
56.55503970885002
 30
0.0
  0
VERTEX
  5
11D
  8
GROUP0
 10
265.5000000001421
 20
55.25633421629004
 30
0.0
  0
VERTEX
  5
11E
  8
GROUP0
 10
262.807611844712
 20
53.19039212251005
 30
0.0
  0
VERTEX
  5
11F
  8
GROUP0
 10
260.741669750942
 20
50.49800396708997
 30
0.0
  0
VERTEX
  5
120
  8
GROUP0
 10
259.4429642583821
 20
47.36265155341994
 30
0.0
  0
VERTEX
  5
121
  8
GROUP0
 10
259.0000000001421
 20
43.99800396708997
 30
0.0
  0
VERTEX
  5
122
  8
GROUP0
 10
259.4429642583821
 20
40.63335638076001
 30
0.0
  0
VERTEX
  5
123
  8
GROUP0
 10
260.741669750942
 20
37.49800396708997
 30
0.0
  0
VERTEX
  5
124
  8
GROUP0
 10
262.807611844712
 20
34.80561581165989
 30
0.0
  0
SEQEND
  5
1E6
  8
GROUP0
  0
POLYLINE
  5
78
  8
GROUP0
 66
     1
 10
0.0
 20
0.0
 30
0.0
 70
     1
  0
VERTEX
  5
125
  8
GROUP0
 10
255.650000000132
 20
27.02576078063998
 30
0.0
  0
VERTEX
  5
126
  8
GROUP0
 10
256.0600076234521
 20
26.85593006237991
 30
0.0
  0
VERTEX
  5
127
  8
GROUP0
 10
256.5000000001321
 20
26.79800396706992
 30
0.0
  0
VERTEX
  5
128
  8
GROUP0
 10
256.9399923768021
 20
26.85593006237991
 30
0.0
  0
VERTEX
  5
129
  8
GROUP0
 10
257.350000000132
 20
27.02576078063998
 30
0.0
  0
VERTEX
  5
12A
  8
GROUP0
 10
257.7020815281521
 20
27.29592243905995
 30
0.0
  0
VERTEX
  5
12B
  8
GROUP0
 10
257.9722431865621
 20
27.64800396707005
 30
0.0
  0
VERTEX
  5
12C
  8
GROUP0
 10
258.1420739048222
 20
28.05801159039993
 30
0.0
  0
VERTEX
  5
12D
  8
GROUP0
 10
258.2000000001321
 20
28.49800396706996
 30
0.0
  0
VERTEX
  5
12E
  8
GROUP0
 10
258.1420739048222
 20
28.93799634375
 30
0.0
  0
VERTEX
  5
12F
  8
GROUP0
 10
257.9722431865621
 20
29.34800396706987
 30
0.0
  0
VERTEX
  5
130
  8
GROUP0
 10
257.7020815281521
 20
29.70008549508998
 30
0.0
  0
VERTEX
  5
131
  8
GROUP0
 10
257.350000000132
 20
29.97024715350994
 30
0.0
  0
VERTEX
  5
132
  8
GROUP0
 10
256.9399923768021
 20
30.14007787177002
 30
0.0
  0
VERTEX
  5
133
  8
GROUP0
 10
256.5000000001321
 20
30.19800396707001
 30
0.0
  0
VERTEX
  5
134
  8
GROUP0
 10
256.0600076234521
 20
30.14007787177002
 30
0.0
  0
VERTEX
  5
135
  8
GROUP0
 10
255.650000000132
 20
29.97024715350994
 30
0.0
  0
VERTEX
  5
136
  8
GROUP0
 10
255.2979184721121
 20
29.70008549508998
 30
0.0
  0
VERTEX
  5
137
  8
GROUP0
 10
255.0277568136921
 20
29.34800396706987
 30
0.0
  0
VERTEX
  5
138
  8
GROUP0
 10
254.8579260954421
 20
28.93799634375
 30
0.0
  0
VERTEX
  5
139
  8
GROUP0
 10
254.8000000001321
 20
28.49800396706996
 30
0.0
  0
VERTEX
  5
13A
  8
GROUP0
 10
254.8579260954421
 20
28.05801159039993
 30
0.0
  0
VERTEX
  5
13B
  8
GROUP0
 10
255.0277568136921
 20
27.64800396707005
 30
0.0
  0
VERTEX
  5
13C
  8
GROUP0
 10
255.2979184721121
 20
27.29592243905995
 30
0.0
  0
SEQEND
  5
1E7
  8
GROUP0
  0
POLYLINE
  5
79
  8
GROUP0
 66
     1
 10
0.0
 20
0.0
 30
0.0
 70
     1
  0
VERTEX
  5
13D
  8
GROUP0
 10
45.99999999999909
 20
66.50000393513983
 30
0.0
  0
VERTEX
  5
13E
  8
GROUP0
 10
61.99999999999909
 20
50.50000393513983
 30
0.0
  0
VERTEX
  5
13F
  8
GROUP0
 10
240.000000000002
 20
50.50000393513983
 30
0.0
  0
VERTEX
  5
140
  8
GROUP0
 10
256.000000000002
 20
66.50000393513983
 30
0.0
  0
VERTEX
  5
141
  8
GROUP0
 10
256.0000000000721
 20
310.5000039351399
 30
0.0
  0
VERTEX
  5
142
  8
GROUP0
 10
46.00000000007208
 20
310.5000039351399
 30
0.0
  0
SEQEND
  5
1E8
  8
GROUP0
  0
POLYLINE
  5
7A
  8
GROUP0
 66
     1
 10
0.0
 20
0.0
 30
0.0
 70
     1
  0
VERTEX
  5
143
  8
GROUP0
 10
44.29789849343706
 20
58.29592243907996
 30
0.0
  0
VERTEX
  5
144
  8
GROUP0
 10
44.64998002144102
 20
58.02576078068
 30
0.0
  0
VERTEX
  5
145
  8
GROUP0
 10
45.05998764475009
 20
57.85593006243994
 30
0.0
  0
VERTEX
  5
146
  8
GROUP0
 10
45.49998002140603
 20
57.79800396712994
 30
0.0
  0
VERTEX
  5
147
  8
GROUP0
 10
45.93997239806004
 20
57.85593006243994
 30
0.0
  0
VERTEX
  5
148
  8
GROUP0
 10
46.34998002136706
 20
58.02576078070001
 30
0.0
  0
VERTEX
  5
149
  8
GROUP0
 10
46.70206154936602
 20
58.29592243910997
 30
0.0
  0
VERTEX
  5
14A
  8
GROUP0
 10
46.972223207767
 20
58.64800396710984
 30
0.0
  0
VERTEX
  5
14B
  8
GROUP0
 10
47.142053926014
 20
59.05801159041994
 30
0.0
  0
VERTEX
  5
14C
  8
GROUP0
 10
47.19998002131604
 20
59.49800396707997
 30
0.0
  0
VERTEX
  5
14D
  8
GROUP0
 10
47.14205392600604
 20
59.93799634372999
 30
0.0
  0
VERTEX
  5
14E
  8
GROUP0
 10
46.97222320775199
 20
60.34800396703986
 30
0.0
  0
VERTEX
  5
14F
  8
GROUP0
 10
46.70206154934408
 20
60.70008549503996
 30
0.0
  0
VERTEX
  5
150
  8
GROUP0
 10
46.34998002134
 20
60.97024715343991
 30
0.0
  0
VERTEX
  5
151
  8
GROUP0
 10
45.93997239803002
 20
61.14007787167998
 30
0.0
  0
VERTEX
  5
152
  8
GROUP0
 10
45.49998002137409
 20
61.19800396698997
 30
0.0
  0
VERTEX
  5
153
  8
GROUP0
 10
45.05998764472008
 20
61.14007787166997
 30
0.0
  0
VERTEX
  5
154
  8
GROUP0
 10
44.64998002141408
 20
60.9702471534199
 30
0.0
  0
VERTEX
  5
155
  8
GROUP0
 10
44.2978984934141
 20
60.70008549500994
 30
0.0
  0
VERTEX
  5
156
  8
GROUP0
 10
44.027736835013
 20
60.34800396700984
 30
0.0
  0
VERTEX
  5
157
  8
GROUP0
 10
43.857906116766
 20
59.93799634369998
 30
0.0
  0
VERTEX
  5
158
  8
GROUP0
 10
43.79998002146408
 20
59.49800396703995
 30
0.0
  0
VERTEX
  5
159
  8
GROUP0
 10
43.85790611677407
 20
59.05801159038992
 30
0.0
  0
VERTEX
  5
15A
  8
GROUP0
 10
44.02773683502903
 20
58.64800396707983
 30
0.0
  0
SEQEND
  5
1E9
  8
GROUP0
  0
POLYLINE
  5
7B
  8
GROUP0
 66
     1
 10
0.0
 20
0.0
 30
0.0
 70
     1
  0
VERTEX
  5
15B
  8
GROUP0
 10
31.500000000059
 20
67.99800396736987
 30
0.0
  0
VERTEX
  5
15C
  8
GROUP0
 10
31.500000000059
 20
317.9980039673779
 30
0.0
  0
VERTEX
  5
15D
  8
GROUP0
 10
40.49999999996305
 20
317.9980039673779
 30
0.0
  0
VERTEX
  5
15E
  8
GROUP0
 10
40.49999999996305
 20
67.99800396736987
 30
0.0
  0
SEQEND
  5
1EA
  8
GROUP0
  0
POLYLINE
  5
7C
  8
GROUP0
 66
     1
 10
0.0
 20
0.0
 30
0.0
 70
     1
  0
VERTEX
  5
15F
  8
GROUP0
 10
44.29791988725003
 20
27.29592243905995
 30
0.0
  0
VERTEX
  5
160
  8
GROUP0
 10
44.65000141526707
 20
27.02576078063998
 30
0.0
  0
VERTEX
  5
161
  8
GROUP0
 10
45.06000903859308
 20
26.85593006237991
 30
0.0
  0
VERTEX
  5
162
  8
GROUP0
 10
45.50000141526709
 20
26.79800396707992
 30
0.0
  0
VERTEX
  5
163
  8
GROUP0
 10
45.93999379194099
 20
26.85593006237991
 30
0.0
  0
VERTEX
  5
164
  8
GROUP0
 10
46.350001415267
 20
27.02576078063998
 30
0.0
  0
VERTEX
  5
165
  8
GROUP0
 10
46.70208294328404
 20
27.29592243905995
 30
0.0
  0
VERTEX
  5
166
  8
GROUP0
 10
46.97224460170105
 20
27.64800396707005
 30
0.0
  0
VERTEX
  5
167
  8
GROUP0
 10
47.14207531995908
 20
28.05801159039993
 30
0.0
  0
VERTEX
  5
168
  8
GROUP0
 10
47.20000141526805
 20
28.49800396706996
 30
0.0
  0
VERTEX
  5
169
  8
GROUP0
 10
47.14207531995908
 20
28.93799634375
 30
0.0
  0
VERTEX
  5
16A
  8
GROUP0
 10
46.97224460170207
 20
29.34800396706987
 30
0.0
  0
VERTEX
  5
16B
  8
GROUP0
 10
46.70208294328506
 20
29.70008549508998
 30
0.0
  0
VERTEX
  5
16C
  8
GROUP0
 10
46.35000141526905
 20
29.97024715350994
 30
0.0
  0
VERTEX
  5
16D
  8
GROUP0
 10
45.93999379194304
 20
30.14007787177002
 30
0.0
  0
VERTEX
  5
16E
  8
GROUP0
 10
45.50000141526903
 20
30.19800396707001
 30
0.0
  0
VERTEX
  5
16F
  8
GROUP0
 10
45.06000903859501
 20
30.14007787177002
 30
0.0
  0
VERTEX
  5
170
  8
GROUP0
 10
44.650001415269
 20
29.97024715350994
 30
0.0
  0
VERTEX
  5
171
  8
GROUP0
 10
44.29791988725208
 20
29.70008549508998
 30
0.0
  0
VERTEX
  5
172
  8
GROUP0
 10
44.02775822883507
 20
29.34800396707988
 30
0.0
  0
VERTEX
  5
173
  8
GROUP0
 10
43.85792751057704
 20
28.93799634375
 30
0.0
  0
VERTEX
  5
174
  8
GROUP0
 10
43.80000141526807
 20
28.49800396707997
 30
0.0
  0
VERTEX
  5
175
  8
GROUP0
 10
43.85792751057704
 20
28.05801159039993
 30
0.0
  0
VERTEX
  5
176
  8
GROUP0
 10
44.02775822883405
 20
27.64800396707983
 30
0.0
  0
SEQEND
  5
1EB
  8
GROUP0
  0
POLYLINE
  5
7D
  8
GROUP0
 66
     1
 10
0.0
 20
0.0
 30
0.0
 70
     1
  0
VERTEX
  5
177
  8
GROUP0
 10
6.500035560670995
 20
65.97162996875
 30
0.0
  0
VERTEX
  5
178
  8
GROUP0
 10
15.50003556079901
 20
65.97162996875
 30
0.0
  0
VERTEX
  5
179
  8
GROUP0
 10
15.50003556079901
 20
265.9716299687429
 30
0.0
  0
VERTEX
  5
17A
  8
GROUP0
 10
6.500035560670995
 20
265.9716299687429
 30
0.0
  0
SEQEND
  5
1EC
  8
GROUP0
  0
POLYLINE
  5
7E
  8
GROUP0
 66
     1
 10
0.0
 20
0.0
 30
0.0
 70
     1
  0
VERTEX
  5
17B
  8
GROUP0
 10
13.29791847212402
 20
58.29592243905995
 30
0.0
  0
VERTEX
  5
17C
  8
GROUP0
 10
13.65000000014106
 20
58.02576078063998
 30
0.0
  0
VERTEX
  5
17D
  8
GROUP0
 10
14.06000762346707
 20
57.85593006237991
 30
0.0
  0
VERTEX
  5
17E
  8
GROUP0
 10
14.50000000014109
 20
57.79800396706992
 30
0.0
  0
VERTEX
  5
17F
  8
GROUP0
 10
14.93999237681601
 20
57.85593006237991
 30
0.0
  0
VERTEX
  5
180
  8
GROUP0
 10
15.35000000014099
 20
58.02576078063998
 30
0.0
  0
VERTEX
  5
181
  8
GROUP0
 10
15.70208152815803
 20
58.29592243905995
 30
0.0
  0
VERTEX
  5
182
  8
GROUP0
 10
15.97224318657504
 20
58.64800396707005
 30
0.0
  0
VERTEX
  5
183
  8
GROUP0
 10
16.14207390483307
 20
59.05801159039993
 30
0.0
  0
VERTEX
  5
184
  8
GROUP0
 10
16.20000000014102
 20
59.49800396706996
 30
0.0
  0
VERTEX
  5
185
  8
GROUP0
 10
16.14207390483307
 20
59.93799634375
 30
0.0
  0
VERTEX
  5
186
  8
GROUP0
 10
15.97224318657504
 20
60.34800396706987
 30
0.0
  0
VERTEX
  5
187
  8
GROUP0
 10
15.70208152815803
 20
60.70008549508998
 30
0.0
  0
VERTEX
  5
188
  8
GROUP0
 10
15.35000000014099
 20
60.97024715350994
 30
0.0
  0
VERTEX
  5
189
  8
GROUP0
 10
14.93999237681601
 20
61.14007787177002
 30
0.0
  0
VERTEX
  5
18A
  8
GROUP0
 10
14.50000000014109
 20
61.19800396707001
 30
0.0
  0
VERTEX
  5
18B
  8
GROUP0
 10
14.06000762346707
 20
61.14007787177002
 30
0.0
  0
VERTEX
  5
18C
  8
GROUP0
 10
13.65000000014106
 20
60.97024715350994
 30
0.0
  0
VERTEX
  5
18D
  8
GROUP0
 10
13.29791847212402
 20
60.70008549508998
 30
0.0
  0
VERTEX
  5
18E
  8
GROUP0
 10
13.02775681370804
 20
60.34800396706987
 30
0.0
  0
VERTEX
  5
18F
  8
GROUP0
 10
12.85792609545001
 20
59.93799634375
 30
0.0
  0
VERTEX
  5
190
  8
GROUP0
 10
12.80000000014104
 20
59.49800396706996
 30
0.0
  0
VERTEX
  5
191
  8
GROUP0
 10
12.85792609545001
 20
59.05801159039993
 30
0.0
  0
VERTEX
  5
192
  8
GROUP0
 10
13.02775681370804
 20
58.64800396707005
 30
0.0
  0
SEQEND
  5
1ED
  8
GROUP0
  0
POLYLINE
  5
7F
  8
GROUP0
 66
     1
 10
0.0
 20
0.0
 30
0.0
 70
     1
  0
VERTEX
  5
193
  8
GROUP0
 10
20.80761184471203
 20
34.80561581165989
 30
0.0
  0
VERTEX
  5
194
  8
GROUP0
 10
23.50000000013699
 20
32.7396737178899
 30
0.0
  0
VERTEX
  5
195
  8
GROUP0
 10
26.63535241380407
 20
31.44096822532993
 30
0.0
  0
VERTEX
  5
196
  8
GROUP0
 10
30.00000000013608
 20
30.99800396708997
 30
0.0
  0
VERTEX
  5
197
  8
GROUP0
 10
33.364647586469
 20
31.44096822532993
 30
0.0
  0
VERTEX
  5
198
  8
GROUP0
 10
36.50000000013699
 20
32.7396737178899
 30
0.0
  0
VERTEX
  5
199
  8
GROUP0
 10
39.19238815556207
 20
34.80561581165989
 30
0.0
  0
VERTEX
  5
19A
  8
GROUP0
 10
41.25833024933604
 20
37.49800396708997
 30
0.0
  0
VERTEX
  5
19B
  8
GROUP0
 10
42.55703574189602
 20
40.63335638075
 30
0.0
  0
VERTEX
  5
19C
  8
GROUP0
 10
43.00000000013904
 20
43.99800396707997
 30
0.0
  0
VERTEX
  5
19D
  8
GROUP0
 10
42.55703574189806
 20
47.36265155341994
 30
0.0
  0
VERTEX
  5
19E
  8
GROUP0
 10
41.25833024933809
 20
50.49800396708997
 30
0.0
  0
VERTEX
  5
19F
  8
GROUP0
 10
39.19238815556605
 20
53.19039212251005
 30
0.0
  0
VERTEX
  5
1A0
  8
GROUP0
 10
36.50000000014199
 20
55.25633421628004
 30
0.0
  0
VERTEX
  5
1A1
  8
GROUP0
 10
33.36464758647503
 20
56.55503970885002
 30
0.0
  0
VERTEX
  5
1A2
  8
GROUP0
 10
30.00000000014199
 20
56.99800396708997
 30
0.0
  0
VERTEX
  5
1A3
  8
GROUP0
 10
26.63535241380907
 20
56.55503970885002
 30
0.0
  0
VERTEX
  5
1A4
  8
GROUP0
 10
23.50000000014199
 20
55.25633421629004
 30
0.0
  0
VERTEX
  5
1A5
  8
GROUP0
 10
20.80761184471601
 20
53.19039212251005
 30
0.0
  0
VERTEX
  5
1A6
  8
GROUP0
 10
18.74166975094306
 20
50.49800396708997
 30
0.0
  0
VERTEX
  5
1A7
  8
GROUP0
 10
17.44296425838206
 20
47.36265155341994
 30
0.0
  0
VERTEX
  5
1A8
  8
GROUP0
 10
17.00000000013904
 20
43.99800396708997
 30
0.0
  0
VERTEX
  5
1A9
  8
GROUP0
 10
17.44296425838104
 20
40.63335638076001
 30
0.0
  0
VERTEX
  5
1AA
  8
GROUP0
 10
18.74166975093999
 20
37.49800396708997
 30
0.0
  0
SEQEND
  5
1EE
  8
GROUP0
  0
POLYLINE
  5
80
  8
GROUP0
 66
     1
 10
0.0
 20
0.0
 30
0.0
 70
     1
  0
VERTEX
  5
1AB
  8
GROUP0
 10
13.29791847212402
 20
27.29592243905995
 30
0.0
  0
VERTEX
  5
1AC
  8
GROUP0
 10
13.65000000014106
 20
27.02576078063998
 30
0.0
  0
VERTEX
  5
1AD
  8
GROUP0
 10
14.06000762346707
 20
26.85593006237991
 30
0.0
  0
VERTEX
  5
1AE
  8
GROUP0
 10
14.50000000014109
 20
26.79800396706992
 30
0.0
  0
VERTEX
  5
1AF
  8
GROUP0
 10
14.93999237681601
 20
26.85593006237991
 30
0.0
  0
VERTEX
  5
1B0
  8
GROUP0
 10
15.35000000014099
 20
27.02576078063998
 30
0.0
  0
VERTEX
  5
1B1
  8
GROUP0
 10
15.70208152815803
 20
27.29592243905995
 30
0.0
  0
VERTEX
  5
1B2
  8
GROUP0
 10
15.97224318657504
 20
27.64800396707005
 30
0.0
  0
VERTEX
  5
1B3
  8
GROUP0
 10
16.14207390483307
 20
28.05801159039993
 30
0.0
  0
VERTEX
  5
1B4
  8
GROUP0
 10
16.20000000014102
 20
28.49800396706996
 30
0.0
  0
VERTEX
  5
1B5
  8
GROUP0
 10
16.14207390483307
 20
28.93799634375
 30
0.0
  0
VERTEX
  5
1B6
  8
GROUP0
 10
15.97224318657504
 20
29.34800396706987
 30
0.0
  0
VERTEX
  5
1B7
  8
GROUP0
 10
15.70208152815803
 20
29.70008549508998
 30
0.0
  0
VERTEX
  5
1B8
  8
GROUP0
 10
15.35000000014099
 20
29.97024715350994
 30
0.0
  0
VERTEX
  5
1B9
  8
GROUP0
 10
14.93999237681601
 20
30.14007787177002
 30
0.0
  0
VERTEX
  5
1BA
  8
GROUP0
 10
14.50000000014109
 20
30.19800396707001
 30
0.0
  0
VERTEX
  5
1BB
  8
GROUP0
 10
14.06000762346707
 20
30.14007787177002
 30
0.0
  0
VERTEX
  5
1BC
  8
GROUP0
 10
13.65000000014106
 20
29.97024715350994
 30
0.0
  0
VERTEX
  5
1BD
  8
GROUP0
 10
13.29791847212402
 20
29.70008549508998
 30
0.0
  0
VERTEX
  5
1BE
  8
GROUP0
 10
13.02775681370804
 20
29.34800396706987
 30
0.0
  0
VERTEX
  5
1BF
  8
GROUP0
 10
12.85792609545001
 20
28.93799634375
 30
0.0
  0
VERTEX
  5
1C0
  8
GROUP0
 10
12.80000000014104
 20
28.49800396706996
 30
0.0
  0
VERTEX
  5
1C1
  8
GROUP0
 10
12.85792609545001
 20
28.05801159039993
 30
0.0
  0
VERTEX
  5
1C2
  8
GROUP0
 10
13.02775681370804
 20
27.64800396707005
 30
0.0
  0
SEQEND
  5
1EF
  8
GROUP0
  0
POLYLINE
  5
81
  8
GROUP0
 66
     1
 10
0.0
 20
0.0
 30
0.0
 70
     1
  0
VERTEX
  5
1C3
  8
GROUP0
 10
1.171572875254014
 20
1.171572875249922
 30
0.0
  0
VERTEX
  5
1C4
  8
GROUP0
 10
0.5358983848620937
 20
2.0
 30
0.0
  0
VERTEX
  5
1C5
  8
GROUP0
 10
0.1362966948440771
 20
2.964723819589835
 30
0.0
  0
VERTEX
  5
1C6
  8
GROUP0
 10
0.0
 20
4.0
 30
0.0
  0
VERTEX
  5
1C7
  8
GROUP0
 10
0.0000000000710543
 20
357.0000039351399
 30
0.0
  0
VERTEX
  5
1C8
  8
GROUP0
 10
0.1362966949150177
 20
358.03528011555
 30
0.0
  0
VERTEX
  5
1C9
  8
GROUP0
 10
0.5358983849340575
 20
359.0000039351399
 30
0.0
  0
VERTEX
  5
1CA
  8
GROUP0
 10
1.171572875325069
 20
359.8284310598859
 30
0.0
  0
VERTEX
  5
1CB
  8
GROUP0
 10
2.000000000071054
 20
360.4641055502769
 30
0.0
  0
VERTEX
  5
1CC
  8
GROUP0
 10
2.964723819661003
 20
360.863707240296
 30
0.0
  0
VERTEX
  5
1CD
  8
GROUP0
 10
4.000000000071054
 20
361.0000039351399
 30
0.0
  0
VERTEX
  5
1CE
  8
GROUP0
 10
308.0000000000721
 20
361.0000039351399
 30
0.0
  0
VERTEX
  5
1CF
  8
GROUP0
 10
309.035276180482
 20
360.863707240296
 30
0.0
  0
VERTEX
  5
1D0
  8
GROUP0
 10
310.0000000000721
 20
360.4641055502769
 30
0.0
  0
VERTEX
  5
1D1
  8
GROUP0
 10
310.8284271248222
 20
359.8284310598859
 30
0.0
  0
VERTEX
  5
1D2
  8
GROUP0
 10
311.464101615212
 20
359.0000039351399
 30
0.0
  0
VERTEX
  5
1D3
  8
GROUP0
 10
311.8637033052321
 20
358.03528011555
 30
0.0
  0
VERTEX
  5
1D4
  8
GROUP0
 10
312.0000000000721
 20
357.0000039351399
 30
0.0
  0
VERTEX
  5
1D5
  8
GROUP0
 10
312.000000000002
 20
4.0
 30
0.0
  0
VERTEX
  5
1D6
  8
GROUP0
 10
311.8637033051521
 20
2.964723819589835
 30
0.0
  0
VERTEX
  5
1D7
  8
GROUP0
 10
311.464101615142
 20
2.0
 30
0.0
  0
VERTEX
  5
1D8
  8
GROUP0
 10
310.8284271247421
 20
1.171572875249922
 30
0.0
  0
VERTEX
  5
1D9
  8
GROUP0
 10
310.000000000002
 20
0.5358983848600474
 30
0.0
  0
VERTEX
  5
1DA
  8
GROUP0
 10
309.035276180412
 20
0.1362966948399844
 30
0.0
  0
VERTEX
  5
1DB
  8
GROUP0
 10
308.000000000002
 20
0.0
 30
0.0
  0
VERTEX
  5
1DC
  8
GROUP0
 10
4.0
 20
0.0
 30
0.0
  0
VERTEX
  5
1DD
  8
GROUP0
 10
2.964723819590063
 20
0.1362966948399844
 30
0.0
  0
VERTEX
  5
1DE
  8
GROUP0
 10
2.0
 20
0.5358983848600474
 30
0.0
  0
SEQEND
  5
1F0
  8
GROUP0
  0
ENDSEC
  0
EOF
