 0
SECTION
 2
ENTITIES
  0
LINE
 8
GROUP0
10
792.888231787506
20
-916.698900310281
30
1.13729736306856e-006
11
793.250003116436
21
-916.549049426857
31
7.76687172515667e-007
  0
LINE
 8
GROUP0
10
793.799039808021
20
-914.500010942276
30
2.02268662957694e-007
11
793.560661659729
21
-914.189350935007
31
4.33781284253643e-007
  0
LINE
 8
GROUP0
10
791.439341316171
20
-914.189352398983
30
2.53519996945006e-006
11
791.200963596669
21
-914.500012735273
31
2.77597013463304e-006
  0
LINE
 8
GROUP0
10
791.200963596669
20
-914.500012735273
30
2.77597013463304e-006
11
791.05111321258
21
-914.861784271034
31
2.9298053917437e-006
  0
LINE
 8
GROUP0
10
794.000002219937
20
-915.250010803587
30
1.43670489116676e-008
11
793.948890691445
21
-914.861782271206
31
5.92143633071362e-008
  0
LINE
 8
GROUP0
10
792.500001184751
20
-913.750011838775
30
1.47794396750389e-006
11
792.111772652371
21
-913.801123367267
31
1.86329219558634e-006
  0
LINE
 8
GROUP0
10
793.799040843208
20
-916.000010942276
30
2.24619474781251e-007
11
793.948891227297
21
-915.638239406514
31
7.07830953239341e-008
  0
LINE
 8
GROUP0
10
793.560661659729
20
-914.189350935007
30
4.33781284253643e-007
11
793.250001323439
21
-913.950973215504
31
7.37975061798624e-007
  0
LINE
 8
GROUP0
10
793.250001323439
20
-913.950973215504
30
7.37975061798624e-007
11
792.888229787678
21
-913.801122831415
31
1.09411960418915e-006
  0
LINE
 8
GROUP0
10
791.310660926693
20
-641.939332941168
30
1.36713976615632e-006
11
791.000000590402
21
-641.700955221666
31
1.12637000986848e-006
  0
LINE
 8
GROUP0
10
791.051113748432
20
-915.638241406342
30
2.94137483439205e-006
11
791.200964631856
21
-916.000012735273
31
2.79832090133714e-006
  0
LINE
 8
GROUP0
10
792.111772652371
20
-913.801123367267
30
1.86329219558634e-006
11
791.75000132344
21
-913.950974250692
31
2.22390248201809e-006
  0
LINE
 8
GROUP0
10
793.250003116436
20
-916.549049426857
30
7.76687172515667e-007
11
793.560663123706
21
-916.310671278566
31
4.65389589204834e-007
  0
LINE
 8
GROUP0
10
791.698890494261
20
-643.388221412674
30
2.8082204458435e-006
11
791.750001486901
21
-642.999992809748
31
2.42439613469814e-006
  0
LINE
 8
GROUP0
10
791.549040110172
20
-643.749992948436
30
3.16436540135911e-006
11
791.698890494261
21
-643.388221412674
31
2.8082204458435e-006
  0
LINE
 8
GROUP0
10
789.189340583134
20
-641.939334405144
30
1.33553218452653e-006
11
788.950962863631
21
-642.249994741435
31
1.63972518799071e-006
  0
LINE
 8
GROUP0
10
793.948891227297
20
-915.638239406514
30
7.07830953239341e-008
11
794.000002219937
21
-915.250010803587
31
1.43670489116676e-008
  0
LINE
 8
GROUP0
10
793.560663123706
20
-916.310671278566
30
4.65389589204834e-007
11
793.799040843208
21
-916.000010942276
31
2.24619474781251e-007
  0
LINE
 8
GROUP0
10
792.500003255126
20
-916.750011838774
30
1.52264488051945e-006
11
792.888231787506
21
-916.698900310281
31
1.13729736306856e-006
  0
LINE
 8
GROUP0
10
792.111774652199
20
-916.698900846134
30
1.90646995446575e-006
11
792.500003255126
21
-916.750011838774
31
1.52264488051945e-006
  0
LINE
 8
GROUP0
10
791.439342780147
20
-916.310672742542
30
2.56680791344555e-006
11
791.750003116438
21
-916.549050462044
31
2.26261459837507e-006
  0
LINE
 8
GROUP0
10
791.75000132344
20
-913.950974250692
30
2.22390248201809e-006
11
791.439341316171
21
-914.189352398983
31
2.53519996945006e-006
  0
LINE
 8
GROUP0
10
791.750003116438
20
-916.549050462044
30
2.26261459837507e-006
11
792.111774652199
21
-916.698900846134
31
1.90646995446575e-006
  0
LINE
 8
GROUP0
10
791.000002219939
20
-915.250012873962
30
2.9862218893506e-006
11
791.051113748432
21
-915.638241406342
31
2.94137483439205e-006
  0
LINE
 8
GROUP0
10
793.948890691445
20
-914.861782271206
30
5.92143633071362e-008
11
793.799039808021
21
-914.500010942276
31
2.02268662957694e-007
  0
LINE
 8
GROUP0
10
791.200964631856
20
-916.000012735273
30
2.79832090133714e-006
11
791.439342780147
21
-916.310672742542
31
2.56680791344555e-006
  0
LINE
 8
GROUP0
10
792.888229787678
20
-913.801122831415
30
1.09411960418915e-006
11
792.500001184751
21
-913.750011838775
31
1.47794396750389e-006
  0
LINE
 8
GROUP0
10
791.05111321258
20
-914.861784271034
30
2.9298053917437e-006
11
791.000002219939
21
-915.250012873962
31
2.9862218893506e-006
  0
LINE
 8
GROUP0
10
789.861771919333
20
-641.551105373429
30
9.60965308699491e-007
11
789.500000590403
21
-641.700956256853
31
1.10401919945491e-006
  0
LINE
 8
GROUP0
10
790.250000451714
20
-641.499993844936
30
9.16118568167201e-007
11
789.861771919333
21
-641.551105373429
31
9.60965308699491e-007
  0
LINE
 8
GROUP0
10
791.000000590402
20
-641.700955221666
30
1.12637000986848e-006
11
790.638229054641
21
-641.551104837577
31
9.72534714688278e-007
  0
LINE
 8
GROUP0
10
791.750001486901
20
-642.999992809748
30
2.42439613469814e-006
11
791.698889958408
21
-642.611764277367
31
2.0390474850307e-006
  0
LINE
 8
GROUP0
10
790.63823105447
20
-644.448882316442
30
3.84312609280069e-006
11
791.0000023834
21
-644.299031433017
31
3.70007174944065e-006
  0
LINE
 8
GROUP0
10
791.310671278569
20
-656.939332941157
30
1.62264147114122e-005
11
791.000010942278
21
-656.700955221655
31
1.59856445927586e-005
  0
LINE
 8
GROUP0
10
791.698889958408
20
-642.611764277367
30
2.0390474850307e-006
11
791.549039074984
21
-642.249992948437
31
1.67843797972966e-006
  0
LINE
 8
GROUP0
10
788.950963898819
20
-643.749994741434
30
3.12565261385012e-006
11
789.18934204711
21
-644.060654748703
31
3.43695122644871e-006
  0
LINE
 8
GROUP0
10
788.801112479542
20
-642.611766277196
30
1.99586973602117e-006
11
788.750001486902
21
-642.999994880123
31
2.37969522873249e-006
  0
LINE
 8
GROUP0
10
791.750011838777
20
-657.999992809737
30
1.72836699970869e-005
11
791.698900310284
21
-657.611764277357
31
1.6898322479636e-005
  0
LINE
 8
GROUP0
10
790.250002522089
20
-644.499993844934
30
3.88797274309405e-006
11
790.63823105447
21
-644.448882316442
31
3.84312609280069e-006
  0
LINE
 8
GROUP0
10
791.310672742545
20
-659.060653284715
30
1.83278330314229e-005
11
791.549050462047
21
-658.749992948425
31
1.80236397135325e-005
  0
LINE
 8
GROUP0
10
791.000012735276
20
-659.299031433006
30
1.85593460263644e-005
11
791.310672742545
21
-659.060653284715
31
1.83278330314229e-005
  0
LINE
 8
GROUP0
10
791.549039074984
20
-642.249992948437
30
1.67843797972966e-006
11
791.310660926693
21
-641.939332941168
31
1.36713976615632e-006
  0
LINE
 8
GROUP0
10
789.861773919162
20
-644.448882852294
30
3.83155664592239e-006
11
790.250002522089
21
-644.499993844934
31
3.88797274309405e-006
  0
LINE
 8
GROUP0
10
791.698900846137
20
-658.388221412664
30
1.76674950738531e-005
11
791.750011838777
21
-657.999992809737
31
1.72836699970869e-005
  0
LINE
 8
GROUP0
10
788.801113015394
20
-643.388223412503
30
2.76504233023833e-006
11
788.950963898819
21
-643.749994741434
31
3.12565261385012e-006
  0
LINE
 8
GROUP0
10
789.18934204711
20
-644.060654748703
30
3.43695122644871e-006
11
789.5000023834
21
-644.299032468205
31
3.67772129434285e-006
  0
LINE
 8
GROUP0
10
791.0000023834
20
-644.299031433017
30
3.70007174944065e-006
11
791.310662390669
21
-644.060653284726
31
3.46855885319797e-006
  0
LINE
 8
GROUP0
10
788.950962863631
20
-642.249994741435
30
1.63972518799071e-006
11
788.801112479542
21
-642.611766277196
31
1.99586973602117e-006
  0
LINE
 8
GROUP0
10
791.000010942278
20
-656.700955221655
30
1.59856445927586e-005
11
790.638239406516
21
-656.551104837566
31
1.58318082161213e-005
  0
LINE
 8
GROUP0
10
789.861782271209
20
-656.551105373418
30
1.58202394855145e-005
11
789.500010942279
21
-656.700956256843
31
1.59632937823451e-005
  0
LINE
 8
GROUP0
10
790.638239406516
20
-656.551104837566
30
1.58318082161213e-005
11
790.250010803589
21
-656.499993844925
31
1.57753921668891e-005
  0
LINE
 8
GROUP0
10
789.5000023834
20
-644.299032468205
30
3.67772129434285e-006
11
789.861773919162
21
-644.448882852294
31
3.83155664592239e-006
  0
LINE
 8
GROUP0
10
790.638229054641
20
-641.551104837577
30
9.72534714688278e-007
11
790.250000451714
21
-641.499993844936
31
9.16118568167201e-007
  0
LINE
 8
GROUP0
10
791.549050462047
20
-658.749992948425
30
1.80236397135325e-005
11
791.698900846137
21
-658.388221412664
31
1.76674950738531e-005
  0
LINE
 8
GROUP0
10
790.250010803589
20
-656.499993844925
30
1.57753921668891e-005
11
789.861782271209
21
-656.551105373418
31
1.58202394855145e-005
  0
LINE
 8
GROUP0
10
791.54904942686
20
-657.249992948426
30
1.6537712293313e-005
11
791.310671278569
21
-656.939332941157
31
1.62264147114122e-005
  0
LINE
 8
GROUP0
10
791.698900310284
20
-657.611764277357
30
1.6898322479636e-005
11
791.54904942686
21
-657.249992948426
31
1.6537712293313e-005
  0
LINE
 8
GROUP0
10
791.310662390669
20
-644.060653284726
30
3.46855885319797e-006
11
791.549040110172
21
-643.749992948436
31
3.16436540135911e-006
  0
LINE
 8
GROUP0
10
789.500000590403
20
-641.700956256853
30
1.10401919945491e-006
11
789.189340583134
21
-641.939334405144
31
1.33553218452653e-006
  0
LINE
 8
GROUP0
10
788.750001486902
20
-642.999994880123
30
2.37969522873249e-006
11
788.801113015394
21
-643.388223412503
31
2.76504233023833e-006
  0
LINE
 8
GROUP0
10
788.950974250695
20
-658.749994741423
30
1.79849276042254e-005
11
789.189352398986
21
-659.060654748692
31
1.82962250888374e-005
  0
LINE
 8
GROUP0
10
502.111779160977
20
-686.198883346905
30
2.14488093780441e-006
11
502.500007763903
21
-686.249994339545
31
2.52870642769576e-006
  0
LINE
 8
GROUP0
10
502.888236296284
20
-686.198882811053
30
2.91405389015731e-006
11
503.250007625214
21
-686.049031927628
31
3.27466381422337e-006
  0
LINE
 8
GROUP0
10
503.560666168507
20
-683.689333435778
30
3.61757005216123e-006
11
503.250005832217
21
-683.450955716275
31
3.31337596864989e-006
  0
LINE
 8
GROUP0
10
789.189352398986
20
-659.060654748692
30
1.82962250888374e-005
11
789.500012735276
21
-659.299032468194
31
1.85369952540204e-005
  0
LINE
 8
GROUP0
10
503.250007625214
20
-686.049031927628
30
3.27466381422337e-006
11
503.560667632483
21
-685.810653779337
31
3.58596175143999e-006
  0
LINE
 8
GROUP0
10
503.799044316798
20
-683.999993443047
30
3.84908295122388e-006
11
503.560666168507
21
-683.689333435778
31
3.61757005216123e-006
  0
LINE
 8
GROUP0
10
789.500010942279
20
-656.700956256843
30
1.59632937823451e-005
11
789.189350935009
21
-656.939334405134
31
1.6194806407871e-005
  0
LINE
 8
GROUP0
10
502.888234296455
20
-683.301105332186
30
2.95723164480677e-006
11
502.500005693528
21
-683.249994339546
31
2.5734073336614e-006
  0
LINE
 8
GROUP0
10
503.250005832217
20
-683.450955716275
30
3.31337596864989e-006
11
502.888234296455
21
-683.301105332186
31
2.95723164480677e-006
  0
LINE
 8
GROUP0
10
501.051117721357
20
-684.361766771806
30
1.1215455555158e-006
11
501.000006728717
21
-684.749995374733
31
1.06512904521905e-006
  0
LINE
 8
GROUP0
10
501.750007625215
20
-686.049032962816
30
1.78873639541388e-006
11
502.111779160977
21
-686.198883346905
31
2.14488093780441e-006
  0
LINE
 8
GROUP0
10
790.250012873965
20
-659.499993844923
30
1.87472470115579e-005
11
790.638241406345
21
-659.448882316431
31
1.87023999551894e-005
  0
LINE
 8
GROUP0
10
503.948895736075
20
-685.138221907285
30
3.98056784629563e-006
11
504.000006728715
21
-684.749993304358
31
4.03698358110161e-006
  0
LINE
 8
GROUP0
10
788.801122831418
20
-657.611766277185
30
1.68551447278065e-005
11
788.750011838777
21
-657.999994880112
31
1.72389690911212e-005
  0
LINE
 8
GROUP0
10
501.750005832218
20
-683.450956751463
30
1.8274485498404e-006
11
501.439345824949
21
-683.689334899754
31
1.51615132748528e-006
  0
LINE
 8
GROUP0
10
501.000006728717
20
-684.749995374733
30
1.06512904521905e-006
11
501.05111825721
21
-685.138223907114
31
1.10997651330269e-006
  0
LINE
 8
GROUP0
10
503.799045351985
20
-685.499993443047
30
3.82673249894605e-006
11
503.948895736075
21
-685.138221907285
31
3.98056784629563e-006
  0
LINE
 8
GROUP0
10
788.80112336727
20
-658.388223412492
30
1.76243173192037e-005
11
788.950974250695
21
-658.749994741423
31
1.79849276042254e-005
  0
LINE
 8
GROUP0
10
788.750011838777
20
-657.999994880112
30
1.72389690911212e-005
11
788.80112336727
21
-658.388223412492
31
1.76243173192037e-005
  0
LINE
 8
GROUP0
10
789.189350935009
20
-656.939334405134
30
1.6194806407871e-005
11
788.950973215507
21
-657.249994741424
31
1.6499000182596e-005
  0
LINE
 8
GROUP0
10
502.500007763903
20
-686.249994339545
30
2.52870642769576e-006
11
502.888236296284
21
-686.198882811053
31
2.91405389015731e-006
  0
LINE
 8
GROUP0
10
501.05111825721
20
-685.138223907114
30
1.10997651330269e-006
11
501.200969140634
21
-685.499995236044
31
1.25303039841818e-006
  0
LINE
 8
GROUP0
10
788.950973215507
20
-657.249994741424
30
1.6499000182596e-005
11
788.801122831418
21
-657.611766277185
31
1.68551447278065e-005
  0
LINE
 8
GROUP0
10
501.200969140634
20
-685.499995236044
30
1.25303039841818e-006
11
501.439347288925
21
-685.810655243313
31
1.48454302535406e-006
  0
LINE
 8
GROUP0
10
789.861784271038
20
-659.448882852283
30
1.86908305083111e-005
11
790.250012873965
21
-659.499993844923
31
1.87472470115579e-005
  0
LINE
 8
GROUP0
10
501.200968105446
20
-683.999995236044
30
1.27538085351597e-006
11
501.051117721357
21
-684.361766771806
31
1.1215455555158e-006
  0
LINE
 8
GROUP0
10
789.500012735276
20
-659.299032468194
30
1.85369952540204e-005
11
789.861784271038
21
-659.448882852283
31
1.86908305083111e-005
  0
LINE
 8
GROUP0
10
501.439347288925
20
-685.810655243313
30
1.48454302535406e-006
11
501.750007625215
21
-686.049032962816
31
1.78873639541388e-006
  0
LINE
 8
GROUP0
10
504.000006728715
20
-684.749993304358
30
4.03698358110161e-006
11
503.948895200222
21
-684.361764771978
31
3.99213693644818e-006
  0
LINE
 8
GROUP0
10
502.500005693528
20
-683.249994339546
30
2.5734073336614e-006
11
502.111777161148
21
-683.301105868039
31
2.18805905340957e-006
  0
LINE
 8
GROUP0
10
790.638241406345
20
-659.448882316431
30
1.87023999551894e-005
11
791.000012735276
21
-659.299031433006
31
1.85593460263644e-005
  0
LINE
 8
GROUP0
10
503.560667632483
20
-685.810653779337
30
3.58596175143999e-006
11
503.799045351985
21
-685.499993443047
31
3.82673249894605e-006
  0
LINE
 8
GROUP0
10
502.111784062397
20
-693.301105868036
30
2.03905533652238e-006
11
501.750012733467
21
-693.450956751461
31
1.67844583122134e-006
  0
LINE
 8
GROUP0
10
503.799051218047
20
-693.999993443045
30
3.70007960093233e-006
11
503.560673069756
21
-693.689333435776
31
3.46856670468965e-006
  0
LINE
 8
GROUP0
10
516.439345824938
20
-683.689324547881
30
1.63754255508297e-005
11
516.200968105436
21
-683.999984884171
31
1.61346554829356e-005
  0
LINE
 8
GROUP0
10
501.200975006696
20
-693.999995236042
30
1.12637786136016e-006
11
501.051124622606
21
-694.361766771804
31
9.72542566179957e-007
  0
LINE
 8
GROUP0
10
501.750012733467
20
-693.450956751461
30
1.67844583122134e-006
11
501.439352726198
21
-693.689334899752
31
1.367147617648e-006
  0
LINE
 8
GROUP0
10
501.051124622606
20
-694.361766771804
30
9.72542566179957e-007
11
501.000013629966
21
-694.749995374731
31
9.1612641965888e-007
  0
LINE
 8
GROUP0
10
516.000006728706
20
-684.74998502286
30
1.59244030048966e-005
11
516.051118257199
21
-685.13821355524
31
1.59692503756914e-005
  0
LINE
 8
GROUP0
10
503.948895200222
20
-684.361764771978
30
3.99213693644818e-006
11
503.799044316798
21
-683.999993443047
31
3.84908295122388e-006
  0
LINE
 8
GROUP0
10
501.439354190174
20
-695.810655243311
30
1.3355400374282e-006
11
501.750014526464
21
-696.049032962814
31
1.63973303948239e-006
  0
LINE
 8
GROUP0
10
501.051125158459
20
-695.138223907111
30
9.6097316019117e-007
11
501.200976041883
21
-695.499995236042
31
1.10402705094659e-006
  0
LINE
 8
GROUP0
10
501.000013629966
20
-694.749995374731
30
9.1612641965888e-007
11
501.051125158459
21
-695.138223907111
31
9.6097316019117e-007
  0
LINE
 8
GROUP0
10
502.500014665152
20
-696.249994339543
30
2.37970308022417e-006
11
502.888243197533
21
-696.198882811051
31
2.76505018173001e-006
  0
LINE
 8
GROUP0
10
501.200976041883
20
-695.499995236042
30
1.10402705094659e-006
11
501.439354190174
21
-695.810655243311
31
1.3355400374282e-006
  0
LINE
 8
GROUP0
10
502.888243197533
20
-696.198882811051
30
2.76505018173001e-006
11
503.250014526463
21
-696.049031927626
31
3.1256604653418e-006
  0
LINE
 8
GROUP0
10
501.439345824949
20
-683.689334899754
30
1.51615132748528e-006
11
501.200968105446
21
-683.999995236044
31
1.27538085351597e-006
  0
LINE
 8
GROUP0
10
503.560674533732
20
-695.810653779335
30
3.43695907794039e-006
11
503.799052253234
21
-695.499993443045
31
3.67772914583453e-006
  0
LINE
 8
GROUP0
10
502.111786062226
20
-696.198883346903
30
1.99587758751285e-006
11
502.500014665152
21
-696.249994339543
31
2.37970308022417e-006
  0
LINE
 8
GROUP0
10
502.111777161148
20
-683.301105868039
30
2.18805905340957e-006
11
501.750005832218
21
-683.450956751463
31
1.8274485498404e-006
  0
LINE
 8
GROUP0
10
503.250014526463
20
-696.049031927626
30
3.1256604653418e-006
11
503.560674533732
21
-695.810653779335
31
3.43695907794039e-006
  0
LINE
 8
GROUP0
10
501.750014526464
20
-696.049032962814
30
1.63973303948239e-006
11
502.111786062226
21
-696.198883346903
31
1.99587758751285e-006
  0
LINE
 8
GROUP0
10
503.560673069756
20
-693.689333435776
30
3.46856670468965e-006
11
503.250012733466
21
-693.450955716273
31
3.16437325285079e-006
  0
LINE
 8
GROUP0
10
504.000013629964
20
-694.749993304356
30
3.88798059458573e-006
11
503.948902101471
21
-694.361764771975
31
3.84313394429237e-006
  0
LINE
 8
GROUP0
10
501.439352726198
20
-693.689334899752
30
1.367147617648e-006
11
501.200975006696
21
-693.999995236042
31
1.12637786136016e-006
  0
LINE
 8
GROUP0
10
503.799052253234
20
-695.499993443045
30
3.67772914583453e-006
11
503.948902637324
21
-695.138221907283
31
3.83156449741406e-006
  0
LINE
 8
GROUP0
10
503.948902637324
20
-695.138221907283
30
3.83156449741406e-006
11
504.000013629964
21
-694.749993304356
31
3.88798059458573e-006
  0
LINE
 8
GROUP0
10
503.948902101471
20
-694.361764771975
30
3.84313394429237e-006
11
503.799051218047
21
-693.999993443045
31
3.70007960093233e-006
  0
LINE
 8
GROUP0
10
502.888241197704
20
-693.301105332184
30
2.80822829733518e-006
11
502.500012594778
21
-693.249994339543
31
2.42440398618982e-006
  0
LINE
 8
GROUP0
10
503.250012733466
20
-693.450955716273
30
3.16437325285079e-006
11
502.888241197704
21
-693.301105332184
31
2.80822829733518e-006
  0
LINE
 8
GROUP0
10
516.750007625204
20
-686.049022610942
30
1.66480110234235e-005
11
517.111779160966
21
-686.198872995031
31
1.7004155565814e-005
  0
LINE
 8
GROUP0
10
518.560667632472
20
-685.810643427464
30
1.8445235929665e-005
11
518.799045351975
21
-685.499983091173
31
1.86860064586236e-005
  0
LINE
 8
GROUP0
10
502.500012594778
20
-693.249994339543
30
2.42440398618982e-006
11
502.111784062397
21
-693.301105868036
31
2.03905533652238e-006
  0
LINE
 8
GROUP0
10
517.111786062215
20
-696.198872995029
30
1.68551525792981e-005
11
517.500014665142
21
-696.249983987669
31
1.72389769426129e-005
  0
LINE
 8
GROUP0
10
516.750014526453
20
-696.04902261094
30
1.64990080354976e-005
11
517.111786062215
21
-696.198872995029
31
1.68551525792981e-005
  0
LINE
 8
GROUP0
10
517.888243197522
20
-696.198872459177
30
1.76243251706953e-005
11
518.250014526452
21
-696.049021575752
31
1.79849354557171e-005
  0
LINE
 8
GROUP0
10
516.051124622595
20
-694.36175641993
30
1.5831816067613e-005
11
516.000013629955
21
-694.749985022857
31
1.57754000183807e-005
  0
LINE
 8
GROUP0
10
516.200969140623
20
-685.499984884171
30
1.61123049827183e-005
11
516.439347288914
21
-685.81064489144
31
1.63438176096542e-005
  0
LINE
 8
GROUP0
10
516.051118257199
20
-685.13821355524
30
1.59692503756914e-005
11
516.200969140623
21
-685.499984884171
31
1.61123049827183e-005
  0
LINE
 8
GROUP0
10
516.051117721346
20
-684.361756419933
30
1.59808197788602e-005
11
516.000006728706
21
-684.74998502286
31
1.59244030048966e-005
  0
LINE
 8
GROUP0
10
516.200975006685
20
-693.999984884169
30
1.59856524442503e-005
11
516.051124622595
21
-694.36175641993
31
1.5831816067613e-005
  0
LINE
 8
GROUP0
10
518.250005832206
20
-683.450945364402
30
1.81726505134705e-005
11
517.888234296445
21
-683.301094980313
31
1.78165062742264e-005
  0
LINE
 8
GROUP0
10
516.439352726187
20
-693.689324547878
30
1.62264225629039e-005
11
516.200975006685
21
-693.999984884169
31
1.59856524442503e-005
  0
LINE
 8
GROUP0
10
516.750012733456
20
-693.450946399587
30
1.65377201448047e-005
11
516.439352726187
21
-693.689324547878
31
1.62264225629039e-005
  0
LINE
 8
GROUP0
10
516.200968105436
20
-683.999984884171
30
1.61346554829356e-005
11
516.051117721346
21
-684.361756419933
31
1.59808197788602e-005
  0
LINE
 8
GROUP0
10
519.000006728704
20
-684.749982952485
30
1.88962578495655e-005
11
518.948895200212
21
-684.361754420104
31
1.88514107988369e-005
  0
LINE
 8
GROUP0
10
516.439354190163
20
-695.810644891437
30
1.61948142607726e-005
11
516.750014526453
21
-696.04902261094
31
1.64990080354976e-005
  0
LINE
 8
GROUP0
10
516.000013629955
20
-694.749985022857
30
1.57754000183807e-005
11
516.051125158448
21
-695.138213555237
31
1.58202473370062e-005
  0
LINE
 8
GROUP0
10
518.250007625203
20
-686.049021575755
30
1.8133938442233e-005
11
518.560667632472
21
-685.810643427464
31
1.8445235929665e-005
  0
LINE
 8
GROUP0
10
518.560666168496
20
-683.689323083905
30
1.84768442303862e-005
11
518.250005832206
21
-683.450945364402
31
1.81726505134705e-005
  0
LINE
 8
GROUP0
10
516.439347288914
20
-685.81064489144
30
1.63438176096542e-005
11
516.750007625204
21
-686.049022610942
31
1.66480110234235e-005
  0
LINE
 8
GROUP0
10
517.500007763893
20
-686.249983987672
30
1.73879802900845e-005
11
517.888236296273
21
-686.198872459179
31
1.77733285252168e-005
  0
LINE
 8
GROUP0
10
518.948895736064
20
-685.138211555412
30
1.88398417086844e-005
11
519.000006728704
21
-684.749982952485
31
1.88962578495655e-005
  0
LINE
 8
GROUP0
10
518.799045351975
20
-685.499983091173
30
1.86860064586236e-005
11
518.948895736064
21
-685.138211555412
31
1.88398417086844e-005
  0
LINE
 8
GROUP0
10
517.111779160966
20
-686.198872995031
30
1.7004155565814e-005
11
517.500007763893
21
-686.249983987672
31
1.73879802900845e-005
  0
LINE
 8
GROUP0
10
516.200976041872
20
-695.499984884168
30
1.59633016338367e-005
11
516.439354190163
21
-695.810644891437
31
1.61948142607726e-005
  0
LINE
 8
GROUP0
10
518.948895200212
20
-684.361754420104
30
1.88514107988369e-005
11
518.799044316787
21
-683.999983091174
31
1.87083569094915e-005
  0
LINE
 8
GROUP0
10
516.750005832207
20
-683.45094639959
30
1.66867234950963e-005
11
516.439345824938
21
-683.689324547881
31
1.63754255508297e-005
  0
LINE
 8
GROUP0
10
517.888236296273
20
-686.198872459179
30
1.77733285252168e-005
11
518.250007625203
21
-686.049021575755
31
1.8133938442233e-005
  0
LINE
 8
GROUP0
10
517.111777161138
20
-683.301095516165
30
1.70473336814192e-005
11
516.750005832207
21
-683.45094639959
31
1.66867234950963e-005
  0
LINE
 8
GROUP0
10
518.250014526452
20
-696.049021575752
30
1.79849354557171e-005
11
518.560674533721
21
-695.810643427461
31
1.82962329403291e-005
  0
LINE
 8
GROUP0
10
516.051125158448
20
-695.138213555237
30
1.58202473370062e-005
11
516.200976041872
21
-695.499984884168
31
1.59633016338367e-005
  0
LINE
 8
GROUP0
10
518.799044316787
20
-683.999983091174
30
1.87083569094915e-005
11
518.560666168496
21
-683.689323083905
31
1.84768442303862e-005
  0
LINE
 8
GROUP0
10
517.500005693518
20
-683.249983987672
30
1.74326811960501e-005
11
517.111777161138
21
-683.301095516165
31
1.70473336814192e-005
  0
LINE
 8
GROUP0
10
517.888234296445
20
-683.301094980313
30
1.78165062742264e-005
11
517.500005693518
21
-683.249983987672
31
1.74326811960501e-005
  0
LINE
 8
GROUP0
10
499.133974596216
20
-639.99999606486
30
2.19788757283013e-007
11
499.292893218813
21
-639.792889283673
31
2.19788757283013e-007
  0
LINE
 8
GROUP0
10
810.5
20
-639.633970661075
30
2.19788759397987e-007
11
810.707106781186
21
-639.792889283673
31
2.19788759397987e-007
  0
LINE
 8
GROUP0
10
517.111784062387
20
-693.301095516162
30
1.68983303325376e-005
11
516.750012733456
21
-693.450946399587
31
1.65377201448047e-005
  0
LINE
 8
GROUP0
10
517.500014665142
20
-696.249983987669
30
1.72389769426129e-005
11
517.888243197522
21
-696.198872459177
31
1.76243251706953e-005
  0
LINE
 8
GROUP0
10
518.94890210146
20
-694.361754420102
30
1.87024078066811e-005
11
518.799051218036
21
-693.999983091171
31
1.85593538778561e-005
  0
LINE
 8
GROUP0
10
499.741180954897
20
-639.534070238571
30
2.19788757283013e-007
11
500.0
21
-639.49999606486
31
2.19788757283013e-007
  0
LINE
 8
GROUP0
10
517.888241197693
20
-693.30109498031
30
1.76675029253448e-005
11
517.500012594767
21
-693.24998398767
31
1.72836778485785e-005
  0
LINE
 8
GROUP0
10
810.965925826289
20
-640.241177019757
30
2.19788759397987e-007
11
811.0
21
-640.49999606486
31
2.19788759397987e-007
  0
LINE
 8
GROUP0
10
518.799051218036
20
-693.999983091171
30
1.85593538778561e-005
11
518.560673069745
21
-693.689323083902
31
1.83278408829146e-005
  0
LINE
 8
GROUP0
10
499.292893218814
20
-1109.20710284605
30
1.13298575205034e-007
11
499.133974596216
21
-1108.99999606486
31
1.13298575205034e-007
  0
LINE
 8
GROUP0
10
810.965925826289
20
-1108.75881510996
30
1.13298578025001e-007
11
810.866025403784
21
-1108.99999606486
31
1.13298578025001e-007
  0
LINE
 8
GROUP0
10
811.0
20
-1108.49999606486
30
1.13298578025001e-007
11
810.965925826289
21
-1108.75881510996
31
1.13298578025001e-007
  0
LINE
 8
GROUP0
10
499.034074173711
20
-640.241177019757
30
2.19788757283013e-007
11
499.133974596216
21
-639.99999606486
31
2.19788757283013e-007
  0
LINE
 8
GROUP0
10
804.499964439204
20
-875.471790417751
30
0.000183852305394633
11
795.499964439248
21
-875.471790417751
31
0.000183852305394633
  0
LINE
 8
GROUP0
10
518.250012733455
20
-693.4509453644
30
1.80236475650242e-005
11
517.888241197693
21
-693.30109498031
31
1.76675029253448e-005
  0
LINE
 8
GROUP0
10
810.258819045103
20
-639.534070238571
30
2.19788759397987e-007
11
810.5
21
-639.633970661075
31
2.19788759397987e-007
  0
LINE
 8
GROUP0
10
499.292893218813
20
-639.792889283673
30
2.19788757283013e-007
11
499.5
21
-639.633970661075
31
2.19788757283013e-007
  0
LINE
 8
GROUP0
10
518.948902637313
20
-695.138211555409
30
1.86908383598028e-005
11
519.000013629953
21
-694.749982952482
31
1.87472548630496e-005
  0
LINE
 8
GROUP0
10
804.499964439204
20
-675.471790417749
30
0.000183852723267136
11
804.499964439204
21
-875.471790417751
31
0.000183852305394633
  0
LINE
 8
GROUP0
10
517.500012594767
20
-693.24998398767
30
1.72836778485785e-005
11
517.111784062387
21
-693.301095516162
31
1.68983303325376e-005
  0
LINE
 8
GROUP0
10
499.034074173711
20
-1108.75881510996
30
1.13298575205034e-007
11
499.0
21
-1108.49999606486
31
1.13298575205034e-007
  0
LINE
 8
GROUP0
10
500.0
20
-1109.49999606486
30
1.13298575205034e-007
11
499.741180954898
21
-1109.46592189115
31
1.13298575205034e-007
  0
LINE
 8
GROUP0
10
499.5
20
-1109.36602146864
30
1.13298575205034e-007
11
499.292893218814
21
-1109.20710284605
31
1.13298575205034e-007
  0
LINE
 8
GROUP0
10
518.560673069745
20
-693.689323083902
30
1.83278408829146e-005
11
518.250012733455
21
-693.4509453644
31
1.80236475650242e-005
  0
LINE
 8
GROUP0
10
499.0
20
-640.49999606486
30
2.19788757283013e-007
11
499.034074173711
21
-640.241177019757
31
2.19788757283013e-007
  0
LINE
 8
GROUP0
10
810.258819045102
20
-1109.46592189115
30
1.13298578025001e-007
11
810.0
21
-1109.49999606486
31
1.13298578025001e-007
  0
LINE
 8
GROUP0
10
519.000013629953
20
-694.749982952482
30
1.87472548630496e-005
11
518.94890210146
21
-694.361754420102
31
1.87024078066811e-005
  0
LINE
 8
GROUP0
10
518.799052253224
20
-695.499983091171
30
1.85370031055121e-005
11
518.948902637313
21
-695.138211555409
31
1.86908383598028e-005
  0
LINE
 8
GROUP0
10
810.866025403784
20
-1108.99999606486
30
1.13298578025001e-007
11
810.707106781186
21
-1109.20710284605
31
1.13298578025001e-007
  0
LINE
 8
GROUP0
10
499.133974596216
20
-1108.99999606486
30
1.13298575205034e-007
11
499.034074173711
21
-1108.75881510996
31
1.13298575205034e-007
  0
LINE
 8
GROUP0
10
518.560674533721
20
-695.810643427461
30
1.82962329403291e-005
11
518.799052253224
21
-695.499983091171
31
1.85370031055121e-005
  0
LINE
 8
GROUP0
10
810.0
20
-639.49999606486
30
2.19788759397987e-007
11
810.258819045103
21
-639.534070238571
31
2.19788759397987e-007
  0
LINE
 8
GROUP0
10
658.864359353945
20
-721.79999606486
30
2.19788760807971e-007
11
658.704518677937
21
-721.414106537024
31
2.19788760807971e-007
  0
LINE
 8
GROUP0
10
572.864359353945
20
-893.79999606486
30
2.19788760807971e-007
11
572.704518677937
21
-893.414106537024
31
2.19788760807971e-007
  0
LINE
 8
GROUP0
10
575.381370849898
20
-891.868625214961
30
2.19788760807971e-007
11
575.635640646055
21
-892.19999606486
31
2.19788760807971e-007
  0
LINE
 8
GROUP0
10
575.05
20
-891.614355418805
30
2.19788760807971e-007
11
575.381370849898
21
-891.868625214961
31
2.19788760807971e-007
  0
LINE
 8
GROUP0
10
795.499964439248
20
-875.471790417751
30
0.000183852305394633
11
795.499964439248
21
-675.471790417749
31
0.000183852305394633
  0
LINE
 8
GROUP0
10
575.795481322062
20
-892.585885592696
30
2.19788760807971e-007
11
575.85
21
-892.99999606486
31
2.19788760807971e-007
  0
LINE
 8
GROUP0
10
658.704518677937
20
-721.414106537024
30
2.19788760807971e-007
11
658.65
21
-720.99999606486
31
2.19788760807971e-007
  0
LINE
 8
GROUP0
10
575.85
20
-892.99999606486
30
2.19788760807971e-007
11
575.795481322062
21
-893.414106537024
31
2.19788760807971e-007
  0
LINE
 8
GROUP0
10
573.835889527836
20
-891.454514742798
30
2.19788760807971e-007
11
574.25
21
-891.39999606486
31
2.19788760807971e-007
  0
LINE
 8
GROUP0
10
499.741180954898
20
-1109.46592189115
30
1.13298575205034e-007
11
499.5
21
-1109.36602146864
31
1.13298575205034e-007
  0
LINE
 8
GROUP0
10
575.381370849898
20
-894.131366914758
30
2.19788760807971e-007
11
575.05
21
-894.385636710915
31
2.19788760807971e-007
  0
LINE
 8
GROUP0
10
810.866025403784
20
-639.99999606486
30
2.19788759397987e-007
11
810.965925826289
21
-640.241177019757
31
2.19788759397987e-007
  0
LINE
 8
GROUP0
10
574.25
20
-891.39999606486
30
2.19788760807971e-007
11
574.664110472164
21
-891.454514742798
31
2.19788760807971e-007
  0
LINE
 8
GROUP0
10
659.835889527836
20
-722.545477386922
30
2.19788760807971e-007
11
659.45
21
-722.385636710915
31
2.19788760807971e-007
  0
LINE
 8
GROUP0
10
499.5
20
-639.633970661075
30
2.19788757283013e-007
11
499.741180954897
21
-639.534070238571
31
2.19788757283013e-007
  0
LINE
 8
GROUP0
10
573.118629150101
20
-894.131366914758
30
2.19788760807971e-007
11
572.864359353945
21
-893.79999606486
31
2.19788760807971e-007
  0
LINE
 8
GROUP0
10
573.118629150101
20
-891.868625214961
30
2.19788760807971e-007
11
573.45
21
-891.614355418805
31
2.19788760807971e-007
  0
LINE
 8
GROUP0
10
574.664110472164
20
-891.454514742798
30
2.19788760807971e-007
11
575.05
21
-891.614355418805
31
2.19788760807971e-007
  0
LINE
 8
GROUP0
10
810.707106781186
20
-639.792889283673
30
2.19788759397987e-007
11
810.866025403784
21
-639.99999606486
31
2.19788759397987e-007
  0
LINE
 8
GROUP0
10
575.635640646055
20
-892.19999606486
30
2.19788760807971e-007
11
575.795481322062
21
-892.585885592696
31
2.19788760807971e-007
  0
LINE
 8
GROUP0
10
795.499964439248
20
-675.471790417749
30
0.000183852305394633
11
804.499964439204
21
-675.471790417749
31
0.000183852723267136
  0
LINE
 8
GROUP0
10
575.05
20
-894.385636710915
30
2.19788760807971e-007
11
574.664110472164
21
-894.545477386922
31
2.19788760807971e-007
  0
LINE
 8
GROUP0
10
658.65
20
-720.99999606486
30
2.19788760807971e-007
11
658.704518677937
21
-720.585885592696
31
2.19788760807971e-007
  0
LINE
 8
GROUP0
10
659.45
20
-722.385636710915
30
2.19788760807971e-007
11
659.118629150101
21
-722.131366914758
31
2.19788760807971e-007
  0
LINE
 8
GROUP0
10
572.65
20
-892.99999606486
30
2.19788760807971e-007
11
572.704518677937
21
-892.585885592696
31
2.19788760807971e-007
  0
LINE
 8
GROUP0
10
810.5
20
-1109.36602146864
30
1.13298578025001e-007
11
810.258819045102
21
-1109.46592189115
31
1.13298578025001e-007
  0
LINE
 8
GROUP0
10
573.45
20
-891.614355418805
30
2.19788760807971e-007
11
573.835889527836
21
-891.454514742798
31
2.19788760807971e-007
  0
LINE
 8
GROUP0
10
810.707106781186
20
-1109.20710284605
30
1.13298578025001e-007
11
810.5
21
-1109.36602146864
31
1.13298578025001e-007
  0
LINE
 8
GROUP0
10
573.835889527836
20
-894.545477386922
30
2.19788760807971e-007
11
573.45
21
-894.385636710915
31
2.19788760807971e-007
  0
LINE
 8
GROUP0
10
573.45
20
-894.385636710915
30
2.19788760807971e-007
11
573.118629150101
21
-894.131366914758
31
2.19788760807971e-007
  0
LINE
 8
GROUP0
10
575.795481322062
20
-893.414106537024
30
2.19788760807971e-007
11
575.635640646055
21
-893.79999606486
31
2.19788760807971e-007
  0
LINE
 8
GROUP0
10
575.635640646055
20
-893.79999606486
30
2.19788760807971e-007
11
575.381370849898
21
-894.131366914758
31
2.19788760807971e-007
  0
LINE
 8
GROUP0
10
746.664110472164
20
-891.454514742798
30
2.19788760807971e-007
11
747.05
21
-891.614355418805
31
2.19788760807971e-007
  0
LINE
 8
GROUP0
10
746.25
20
-894.59999606486
30
2.19788760807971e-007
11
745.835889527836
21
-894.545477386922
31
2.19788760807971e-007
  0
LINE
 8
GROUP0
10
658.704518677937
20
-720.585885592696
30
2.19788760807971e-007
11
658.864359353945
21
-720.19999606486
31
2.19788760807971e-007
  0
LINE
 8
GROUP0
10
660.25
20
-719.39999606486
30
2.19788760807971e-007
11
660.664110472164
21
-719.454514742797
31
2.19788760807971e-007
  0
LINE
 8
GROUP0
10
661.05
20
-722.385636710915
30
2.19788760807971e-007
11
660.664110472164
21
-722.545477386922
31
2.19788760807971e-007
  0
LINE
 8
GROUP0
10
745.118629150101
20
-894.131366914758
30
2.19788760807971e-007
11
744.864359353945
21
-893.79999606486
31
2.19788760807971e-007
  0
LINE
 8
GROUP0
10
660.664110472164
20
-722.545477386922
30
2.19788760807971e-007
11
660.25
21
-722.59999606486
31
2.19788760807971e-007
  0
LINE
 8
GROUP0
10
574.25
20
-894.59999606486
30
2.19788760807971e-007
11
573.835889527836
21
-894.545477386922
31
2.19788760807971e-007
  0
LINE
 8
GROUP0
10
661.85
20
-720.99999606486
30
2.19788760807971e-007
11
661.795481322062
21
-721.414106537024
31
2.19788760807971e-007
  0
LINE
 8
GROUP0
10
744.864359353945
20
-893.79999606486
30
2.19788760807971e-007
11
744.704518677937
21
-893.414106537024
31
2.19788760807971e-007
  0
LINE
 8
GROUP0
10
661.795481322062
20
-721.414106537024
30
2.19788760807971e-007
11
661.635640646055
21
-721.79999606486
31
2.19788760807971e-007
  0
LINE
 8
GROUP0
10
661.381370849898
20
-719.868625214961
30
2.19788760807971e-007
11
661.635640646055
21
-720.19999606486
31
2.19788760807971e-007
  0
LINE
 8
GROUP0
10
659.835889527836
20
-719.454514742797
30
2.19788760807971e-007
11
660.25
21
-719.39999606486
31
2.19788760807971e-007
  0
LINE
 8
GROUP0
10
745.835889527836
20
-894.545477386922
30
2.19788760807971e-007
11
745.45
21
-894.385636710915
31
2.19788760807971e-007
  0
LINE
 8
GROUP0
10
659.45
20
-719.614355418805
30
2.19788760807971e-007
11
659.835889527836
21
-719.454514742797
31
2.19788760807971e-007
  0
LINE
 8
GROUP0
10
660.25
20
-722.59999606486
30
2.19788760807971e-007
11
659.835889527836
21
-722.545477386922
31
2.19788760807971e-007
  0
LINE
 8
GROUP0
10
744.864359353945
20
-892.19999606486
30
2.19788760807971e-007
11
745.118629150101
21
-891.868625214961
31
2.19788760807971e-007
  0
LINE
 8
GROUP0
10
658.864359353945
20
-720.19999606486
30
2.19788760807971e-007
11
659.118629150101
21
-719.868625214961
31
2.19788760807971e-007
  0
LINE
 8
GROUP0
10
661.635640646055
20
-721.79999606486
30
2.19788760807971e-007
11
661.381370849898
21
-722.131366914758
31
2.19788760807971e-007
  0
LINE
 8
GROUP0
10
745.118629150101
20
-891.868625214961
30
2.19788760807971e-007
11
745.45
21
-891.614355418805
31
2.19788760807971e-007
  0
LINE
 8
GROUP0
10
572.704518677937
20
-893.414106537024
30
2.19788760807971e-007
11
572.65
21
-892.99999606486
31
2.19788760807971e-007
  0
LINE
 8
GROUP0
10
744.704518677937
20
-893.414106537024
30
2.19788760807971e-007
11
744.65
21
-892.99999606486
31
2.19788760807971e-007
  0
LINE
 8
GROUP0
10
744.704518677937
20
-892.585885592696
30
2.19788760807971e-007
11
744.864359353945
21
-892.19999606486
31
2.19788760807971e-007
  0
LINE
 8
GROUP0
10
661.05
20
-719.614355418805
30
2.19788760807971e-007
11
661.381370849898
21
-719.868625214961
31
2.19788760807971e-007
  0
LINE
 8
GROUP0
10
661.381370849898
20
-722.131366914758
30
2.19788760807971e-007
11
661.05
21
-722.385636710915
31
2.19788760807971e-007
  0
LINE
 8
GROUP0
10
572.864359353945
20
-892.19999606486
30
2.19788760807971e-007
11
573.118629150101
21
-891.868625214961
31
2.19788760807971e-007
  0
LINE
 8
GROUP0
10
659.118629150101
20
-722.131366914758
30
2.19788760807971e-007
11
658.864359353945
21
-721.79999606486
31
2.19788760807971e-007
  0
LINE
 8
GROUP0
10
572.704518677937
20
-892.585885592696
30
2.19788760807971e-007
11
572.864359353945
21
-892.19999606486
31
2.19788760807971e-007
  0
LINE
 8
GROUP0
10
660.664110472164
20
-719.454514742797
30
2.19788760807971e-007
11
661.05
21
-719.614355418805
31
2.19788760807971e-007
  0
LINE
 8
GROUP0
10
745.45
20
-894.385636710915
30
2.19788760807971e-007
11
745.118629150101
21
-894.131366914758
31
2.19788760807971e-007
  0
LINE
 8
GROUP0
10
746.25
20
-891.39999606486
30
2.19788760807971e-007
11
746.664110472164
21
-891.454514742798
31
2.19788760807971e-007
  0
LINE
 8
GROUP0
10
574.664110472164
20
-894.545477386922
30
2.19788760807971e-007
11
574.25
21
-894.59999606486
31
2.19788760807971e-007
  0
LINE
 8
GROUP0
10
769.099964533503
20
-1022.00000000004
30
2.1979182752152e-007
11
769.053471441385
21
-1021.61709493718
31
2.19791749972442e-007
  0
LINE
 8
GROUP0
10
747.381370849898
20
-891.868625214961
30
2.19788760807971e-007
11
747.635640646055
21
-892.19999606486
31
2.19788760807971e-007
  0
LINE
 8
GROUP0
10
747.635640646055
20
-892.19999606486
30
2.19788760807971e-007
11
747.795481322063
21
-892.585885592696
31
2.19788760807971e-007
  0
LINE
 8
GROUP0
10
769.099964533503
20
-1032.00000000004
30
2.19791823996562e-007
11
769.099964533503
21
-1022.00000000004
31
2.1979182752152e-007
  0
LINE
 8
GROUP0
10
768.067332352771
20
-1020.50397401174
30
2.19792526873208e-007
11
767.692823221911
21
-1020.41166580148
31
2.1979293647334e-007
  0
LINE
 8
GROUP0
10
768.916694174548
20
-1032.74355707531
30
2.1979229704594e-007
11
769.053471441385
21
-1032.3829050629
31
2.19792010819342e-007
  0
LINE
 8
GROUP0
10
766.302347336429
20
-1033.06099625323
30
2.19795493477948e-007
11
766.591060938733
21
-1033.31677418547
31
2.19795241090948e-007
  0
LINE
 8
GROUP0
10
747.05
20
-894.385636710915
30
2.19788760807971e-007
11
746.664110472164
21
-894.545477386922
31
2.19788760807971e-007
  0
LINE
 8
GROUP0
10
768.067332352771
20
-1033.49602598834
30
2.19793560390924e-007
11
768.408868128273
21
-1033.31677418547
31
2.19793095096454e-007
  0
LINE
 8
GROUP0
10
747.05
20
-891.614355418805
30
2.19788760807971e-007
11
747.381370849898
21
-891.868625214961
31
2.19788760807971e-007
  0
LINE
 8
GROUP0
10
768.697581730576
20
-1033.06099625323
30
2.19792665051566e-007
11
768.916694174548
21
-1032.74355707531
31
2.1979229704594e-007
  0
LINE
 8
GROUP0
10
765.946457625621
20
-1032.3829050629
30
2.19795679595736e-007
11
766.083234892458
21
-1032.74355707531
31
2.19795642936171e-007
  0
LINE
 8
GROUP0
10
659.118629150101
20
-719.868625214961
30
2.19788760807971e-007
11
659.45
21
-719.614355418805
31
2.19788760807971e-007
  0
LINE
 8
GROUP0
10
746.664110472164
20
-894.545477386922
30
2.19788760807971e-007
11
746.25
21
-894.59999606486
31
2.19788760807971e-007
  0
LINE
 8
GROUP0
10
767.692823221911
20
-1033.5883341986
30
2.19794034145293e-007
11
768.067332352771
21
-1033.49602598834
31
2.19793560390924e-007
  0
LINE
 8
GROUP0
10
745.835889527836
20
-891.454514742798
30
2.19788760807971e-007
11
746.25
21
-891.39999606486
31
2.19788760807971e-007
  0
LINE
 8
GROUP0
10
765.899964533503
20
-1032.00000000004
30
2.19795601341666e-007
11
765.946457625621
21
-1032.3829050629
31
2.19795679595736e-007
  0
LINE
 8
GROUP0
10
766.591060938733
20
-1020.68322581461
30
2.19794328126799e-007
11
766.302347336429
21
-1020.93900374685
31
2.19794757466696e-007
  0
LINE
 8
GROUP0
10
661.795481322062
20
-720.585885592696
30
2.19788760807971e-007
11
661.85
21
-720.99999606486
31
2.19788760807971e-007
  0
LINE
 8
GROUP0
10
747.381370849898
20
-894.131366914758
30
2.19788760807971e-007
11
747.05
21
-894.385636710915
31
2.19788760807971e-007
  0
LINE
 8
GROUP0
10
745.45
20
-891.614355418805
30
2.19788760807971e-007
11
745.835889527836
21
-891.454514742798
31
2.19788760807971e-007
  0
LINE
 8
GROUP0
10
744.65
20
-892.99999606486
30
2.19788760807971e-007
11
744.704518677937
21
-892.585885592696
31
2.19788760807971e-007
  0
LINE
 8
GROUP0
10
766.591060938733
20
-1033.31677418547
30
2.19795241090948e-007
11
766.932596714235
21
-1033.49602598834
31
2.19794899875003e-007
  0
LINE
 8
GROUP0
10
766.083234892458
20
-1021.25644292477
30
2.1979512476733e-007
11
765.946457625621
21
-1021.61709493718
31
2.19795410288937e-007
  0
LINE
 8
GROUP0
10
766.932596714235
20
-1020.50397401174
30
2.19793863537321e-007
11
766.591060938733
21
-1020.68322581461
31
2.19794328126799e-007
  0
LINE
 8
GROUP0
10
767.307105845094
20
-1020.41166580148
30
2.19793390487943e-007
11
766.932596714235
21
-1020.50397401174
31
2.19793863537321e-007
  0
LINE
 8
GROUP0
10
747.635640646055
20
-893.79999606486
30
2.19788760807971e-007
11
747.381370849898
21
-894.131366914758
31
2.19788760807971e-007
  0
LINE
 8
GROUP0
10
661.635640646055
20
-720.19999606486
30
2.19788760807971e-007
11
661.795481322062
21
-720.585885592696
31
2.19788760807971e-007
  0
LINE
 8
GROUP0
10
747.795481322063
20
-893.414106537024
30
2.19788760807971e-007
11
747.635640646055
21
-893.79999606486
31
2.19788760807971e-007
  0
LINE
 8
GROUP0
10
747.795481322063
20
-892.585885592696
30
2.19788760807971e-007
11
747.85
21
-892.99999606486
31
2.19788760807971e-007
  0
LINE
 8
GROUP0
10
769.053471441385
20
-1032.3829050629
30
2.19792010819342e-007
11
769.099964533503
21
-1032.00000000004
31
2.19791823996562e-007
  0
LINE
 8
GROUP0
10
766.302347336429
20
-1020.93900374685
30
2.19794757466696e-007
11
766.083234892458
21
-1021.25644292477
31
2.1979512476733e-007
  0
LINE
 8
GROUP0
10
794.083234892457
20
-1021.25644292475
30
2.19762192493755e-007
11
793.946457625621
21
-1021.61709493717
31
2.19762479425345e-007
  0
LINE
 8
GROUP0
10
794.591060938732
20
-1020.68322581459
30
2.19761390213291e-007
11
794.302347336429
21
-1020.93900374684
31
2.19761822373155e-007
  0
LINE
 8
GROUP0
10
768.408868128273
20
-1033.31677418547
30
2.19793095096454e-007
11
768.697581730576
21
-1033.06099625323
31
2.19792665051566e-007
  0
LINE
 8
GROUP0
10
795.69282322191
20
-1020.41166580147
30
2.19759985869983e-007
11
795.307105845093
21
-1020.41166580147
31
2.19760444114536e-007
  0
LINE
 8
GROUP0
10
794.932596714234
20
-1020.50397401173
30
2.19760921393863e-007
11
794.591060938732
21
-1020.68322581459
31
2.19761390213291e-007
  0
LINE
 8
GROUP0
10
796.916694174548
20
-1021.25644292475
30
2.19758821223826e-007
11
796.697581730576
21
-1020.93900374684
31
2.19758972797024e-007
  0
LINE
 8
GROUP0
10
797.099964533503
20
-1022.00000000002
30
2.19758860703356e-007
11
797.053471441384
21
-1021.61709493716
31
2.1975878385927e-007
  0
LINE
 8
GROUP0
10
796.916694174548
20
-1032.74355707529
30
2.19759337982683e-007
11
797.053471441385
21
-1032.38290506288
31
2.19759051051094e-007
  0
LINE
 8
GROUP0
10
796.06733235277
20
-1020.50397401173
30
2.19759572039901e-007
11
795.69282322191
21
-1020.41166580147
31
2.19759985869983e-007
  0
LINE
 8
GROUP0
10
795.307105845093
20
-1020.41166580147
30
2.19760444114536e-007
11
794.932596714234
21
-1020.50397401173
31
2.19760921393863e-007
  0
LINE
 8
GROUP0
10
793.899964533503
20
-1032.00000000003
30
2.19762665543133e-007
11
793.899964533503
21
-1022.00000000003
31
2.19762667658108e-007
  0
LINE
 8
GROUP0
10
797.053471441385
20
-1032.38290506288
30
2.19759051051094e-007
11
797.099964533503
21
-1032.00000000002
31
2.19758862818331e-007
  0
LINE
 8
GROUP0
10
796.697581730577
20
-1033.06099625321
30
2.19759708103284e-007
11
796.916694174548
21
-1032.74355707529
31
2.19759337982683e-007
  0
LINE
 8
GROUP0
10
767.307105845094
20
-1033.5883341986
30
2.1979448956988e-007
11
767.692823221911
21
-1033.5883341986
31
2.19794034145293e-007
  0
LINE
 8
GROUP0
10
768.916694174548
20
-1021.25644292477
30
2.19791785927015e-007
11
768.697581730577
21
-1020.93900374685
31
2.19791934680247e-007
  0
LINE
 8
GROUP0
10
766.932596714235
20
-1033.49602598834
30
2.19794899875003e-007
11
767.307105845094
21
-1033.5883341986
31
2.1979448956988e-007
  0
LINE
 8
GROUP0
10
794.302347336429
20
-1020.93900374684
30
2.19761822373155e-007
11
794.083234892457
21
-1021.25644292475
31
2.19762192493755e-007
  0
LINE
 8
GROUP0
10
768.697581730577
20
-1020.93900374685
30
2.19791934680247e-007
11
768.408868128273
21
-1020.68322581461
31
2.19792186362255e-007
  0
LINE
 8
GROUP0
10
747.85
20
-892.99999606486
30
2.19788760807971e-007
11
747.795481322063
21
-893.414106537024
31
2.19788760807971e-007
  0
LINE
 8
GROUP0
10
794.591060938734
20
-1033.31677418545
30
2.19762299652482e-007
11
794.932596714236
21
-1033.49602598832
31
2.19761955616571e-007
  0
LINE
 8
GROUP0
10
765.946457625621
20
-1021.61709493718
30
2.19795410288937e-007
11
765.899964533503
21
-1022.00000000004
31
2.19795597816708e-007
  0
LINE
 8
GROUP0
10
794.932596714236
20
-1033.49602598832
30
2.19761955616571e-007
11
795.307105845095
21
-1033.58833419858
31
2.19761542491481e-007
  0
LINE
 8
GROUP0
10
797.099964533503
20
-1022.00000000002
30
2.19758860703356e-007
11
797.099964533503
21
-1032.00000000002
31
2.19758862818331e-007
  0
LINE
 8
GROUP0
10
766.083234892458
20
-1032.74355707531
30
2.19795642936171e-007
11
766.302347336429
21
-1033.06099625323
31
2.19795493477948e-007
  0
LINE
 8
GROUP0
10
796.408868128272
20
-1020.68322581459
30
2.19759227298999e-007
11
796.06733235277
21
-1020.50397401173
31
2.19759572039901e-007
  0
LINE
 8
GROUP0
10
767.692823221911
20
-1020.41166580148
30
2.1979293647334e-007
11
767.307105845094
21
-1020.41166580148
31
2.19793390487943e-007
  0
LINE
 8
GROUP0
10
796.067332352772
20
-1033.49602598832
30
2.19760607672592e-007
11
796.408868128274
21
-1033.31677418545
31
2.19760139558156e-007
  0
LINE
 8
GROUP0
10
795.692823221912
20
-1033.58833419858
30
2.19761084246928e-007
11
796.067332352772
21
-1033.49602598832
31
2.19760607672592e-007
  0
LINE
 8
GROUP0
10
796.408868128274
20
-1033.31677418545
30
2.19760139558156e-007
11
796.697581730577
21
-1033.06099625321
31
2.19759708103284e-007
  0
LINE
 8
GROUP0
10
797.053471441384
20
-1021.61709493716
30
2.1975878385927e-007
11
796.916694174548
21
-1021.25644292475
31
2.19758821223826e-007
  0
LINE
 8
GROUP0
10
793.946457625622
20
-1032.38290506289
30
2.19762742387219e-007
11
794.083234892458
21
-1032.7435570753
31
2.19762705022664e-007
  0
LINE
 8
GROUP0
10
765.899964533503
20
-1022.00000000004
30
2.19795597816708e-007
11
765.899964533503
21
-1032.00000000004
31
2.19795601341666e-007
  0
LINE
 8
GROUP0
10
794.083234892458
20
-1032.7435570753
30
2.19762705022664e-007
11
794.30234733643
21
-1033.06099625321
31
2.19762553449465e-007
  0
LINE
 8
GROUP0
10
768.408868128273
20
-1020.68322581461
30
2.19792186362255e-007
11
768.067332352771
21
-1020.50397401174
31
2.19792526873208e-007
  0
LINE
 8
GROUP0
10
793.946457625621
20
-1021.61709493717
30
2.19762479425345e-007
11
793.899964533503
21
-1022.00000000003
31
2.19762667658108e-007
  0
LINE
 8
GROUP0
10
796.697581730576
20
-1020.93900374684
30
2.19758972797024e-007
11
796.408868128272
21
-1020.68322581459
31
2.19759227298999e-007
  0
LINE
 8
GROUP0
10
781.692823221919
20
-1019.58833419859
30
2.19782421523318e-007
11
782.067332352779
21
-1019.49602598833
31
2.19781947768949e-007
  0
LINE
 8
GROUP0
10
795.307105845095
20
-1033.58833419858
30
2.19761542491481e-007
11
795.692823221912
21
-1033.58833419858
31
2.19761084246928e-007
  0
LINE
 8
GROUP0
10
782.697581730584
20
-1034.93900374685
30
2.19780322058272e-007
11
782.408868128281
21
-1034.6832258146
31
2.1978057374028e-007
  0
LINE
 8
GROUP0
10
769.053471441385
20
-1021.61709493718
30
2.19791749972442e-007
11
768.916694174548
21
-1021.25644292477
31
2.19791785927015e-007
  0
LINE
 8
GROUP0
10
780.932596714242
20
-1047.49602598833
30
2.19783287253028e-007
11
781.307105845102
21
-1047.58833419859
31
2.19782876947905e-007
  0
LINE
 8
GROUP0
10
783.099964533511
20
-1036.00000000003
30
2.19780214899545e-007
11
783.088298732067
21
-1035.80714131162
31
2.19780166255124e-007
  0
LINE
 8
GROUP0
10
782.40886812828
20
-1047.31677418546
30
2.19781482474479e-007
11
782.697581730584
21
-1047.06099625322
31
2.19781052429591e-007
  0
LINE
 8
GROUP0
10
780.932596714243
20
-1034.50397401174
30
2.19782250915346e-007
11
780.591060938741
21
-1034.6832258146
31
2.19782715504824e-007
  0
LINE
 8
GROUP0
10
783.088298732067
20
-1035.80714131162
30
2.19780166255124e-007
11
783.053471441392
21
-1035.61709493717
31
2.19780137350467e-007
  0
LINE
 8
GROUP0
10
782.067332352779
20
-1019.49602598833
30
2.19781947768949e-007
11
782.40886812828
21
-1019.31677418546
31
2.19781482474479e-007
  0
LINE
 8
GROUP0
10
782.067332352779
20
-1047.49602598833
30
2.19781947768949e-007
11
782.40886812828
21
-1047.31677418546
31
2.19781482474479e-007
  0
LINE
 8
GROUP0
10
794.30234733643
20
-1033.06099625321
30
2.19762553449465e-007
11
794.591060938734
21
-1033.31677418545
31
2.19762299652482e-007
  0
LINE
 8
GROUP0
10
779.899964533511
20
-1036.00000000003
30
2.19783985194733e-007
11
779.899964533511
21
-1046.00000000003
31
2.19783988719691e-007
  0
LINE
 8
GROUP0
10
782.916694174556
20
-1035.25644292476
30
2.1978017330504e-007
11
782.697581730584
21
-1034.93900374685
31
2.19780322058272e-007
  0
LINE
 8
GROUP0
10
782.916694174556
20
-1046.7435570753
30
2.19780684423965e-007
11
783.053471441392
21
-1046.38290506289
31
2.19780398197367e-007
  0
LINE
 8
GROUP0
10
783.053471441392
20
-1035.61709493717
30
2.19780137350467e-007
11
782.916694174556
21
-1035.25644292476
31
2.1978017330504e-007
  0
LINE
 8
GROUP0
10
779.946457625629
20
-1035.61709493717
30
2.19783797666961e-007
11
779.899964533511
21
-1036.00000000003
31
2.19783985194733e-007
  0
LINE
 8
GROUP0
10
782.697581730584
20
-1047.06099625322
30
2.19781052429591e-007
11
782.916694174556
21
-1046.7435570753
31
2.19780684423965e-007
  0
LINE
 8
GROUP0
10
781.307105845102
20
-1034.41166580148
30
2.19781777865968e-007
11
780.932596714243
21
-1034.50397401174
31
2.19782250915346e-007
  0
LINE
 8
GROUP0
10
782.40886812828
20
-1019.31677418546
30
2.19781482474479e-007
11
782.697581730584
21
-1019.06099625322
31
2.19781052429591e-007
  0
LINE
 8
GROUP0
10
781.692823221919
20
-1047.58833419859
30
2.19782421523318e-007
11
782.067332352779
21
-1047.49602598833
31
2.19781947768949e-007
  0
LINE
 8
GROUP0
10
779.946457625629
20
-1046.38290506289
30
2.19784066973761e-007
11
780.083234892466
21
-1046.7435570753
31
2.19784030314196e-007
  0
LINE
 8
GROUP0
10
780.302347336437
20
-1034.93900374685
30
2.19783144844721e-007
11
780.083234892466
21
-1035.25644292476
31
2.19783512145355e-007
  0
LINE
 8
GROUP0
10
783.053471441392
20
-1046.38290506289
30
2.19780398197367e-007
11
783.099964533511
21
-1046.00000000003
31
2.19780211374587e-007
  0
LINE
 8
GROUP0
10
782.067332352779
20
-1034.50397401174
30
2.19780914251233e-007
11
781.692823221919
21
-1034.41166580148
31
2.19781323851365e-007
  0
LINE
 8
GROUP0
10
780.302347336437
20
-1047.06099625322
30
2.19783880855973e-007
11
780.591060938741
21
-1047.31677418546
31
2.19783628468972e-007
  0
LINE
 8
GROUP0
10
793.899964533503
20
-1032.00000000003
30
2.19762665543133e-007
11
793.946457625622
21
-1032.38290506289
31
2.19762742387219e-007
  0
LINE
 8
GROUP0
10
781.307105845102
20
-1047.58833419859
30
2.19782876947905e-007
11
781.692823221919
21
-1047.58833419859
31
2.19782421523318e-007
  0
LINE
 8
GROUP0
10
531.982127203604
20
-671.068144380505
30
2.19788763627937e-007
11
531.499765293809
21
-671.267945225514
31
2.19788763627937e-007
  0
LINE
 8
GROUP0
10
530.76771448624
20
-673.999996033083
30
2.19788763627937e-007
11
531.085551731436
21
-674.414209595456
31
2.19788763627937e-007
  0
LINE
 8
GROUP0
10
768.431851116667
20
-986.517602908603
30
2.19788763627937e-007
11
768.499999464089
21
-985.999964818398
31
2.19788763627937e-007
  0
LINE
 8
GROUP0
10
530.567913641231
20
-673.517634123288
30
2.19788763627937e-007
11
530.76771448624
21
-673.999996033083
31
2.19788763627937e-007
  0
LINE
 8
GROUP0
10
531.085551731436
20
-671.58578247071
30
2.19788763627937e-007
11
530.76771448624
21
-671.999996033083
31
2.19788763627937e-007
  0
LINE
 8
GROUP0
10
775.56811288095
20
-673.517669621639
30
2.19788763627937e-007
11
775.767913725959
21
-674.000031531435
31
2.19788763627937e-007
  0
LINE
 8
GROUP0
10
776.499964533528
20
-671.267980723866
30
2.19788763627937e-007
11
776.085750971155
21
-671.585817969061
31
2.19788763627937e-007
  0
LINE
 8
GROUP0
10
531.085551731436
20
-674.414209595456
30
2.19788763627937e-007
11
531.499765293809
21
-674.732046840652
31
2.19788763627937e-007
  0
LINE
 8
GROUP0
10
531.499765293809
20
-674.732046840652
30
2.19788763627937e-007
11
531.982127203604
21
-674.931847685661
31
2.19788763627937e-007
  0
LINE
 8
GROUP0
10
775.767913725959
20
-674.000031531435
30
2.19788763627937e-007
11
776.085750971155
21
-674.414245093808
31
2.19788763627937e-007
  0
LINE
 8
GROUP0
10
531.982127203604
20
-674.931847685661
30
2.19788763627937e-007
11
532.499765293809
21
-674.999996033083
31
2.19788763627937e-007
  0
LINE
 8
GROUP0
10
764.568147811511
20
-985.482326728193
30
2.19788763627937e-007
11
764.499999464089
21
-985.999964818398
31
2.19788763627937e-007
  0
LINE
 8
GROUP0
10
779.232015341097
20
-672.000031531435
30
2.19788763627937e-007
11
778.914178095902
21
-671.585817969061
31
2.19788763627937e-007
  0
LINE
 8
GROUP0
10
775.499964533528
20
-673.000031531435
30
2.19788763627937e-007
11
775.56811288095
21
-673.517669621639
31
2.19788763627937e-007
  0
LINE
 8
GROUP0
10
532.499765293809
20
-670.999996033083
30
2.19788763627937e-007
11
531.982127203604
21
-671.068144380505
31
2.19788763627937e-007
  0
LINE
 8
GROUP0
10
777.499964533528
20
-671.000031531435
30
2.19788763627937e-007
11
776.982326443323
21
-671.068179878856
31
2.19788763627937e-007
  0
LINE
 8
GROUP0
10
530.567913641231
20
-672.482357942878
30
2.19788763627937e-007
11
530.499765293809
21
-672.999996033083
31
2.19788763627937e-007
  0
LINE
 8
GROUP0
10
776.982326443323
20
-671.068179878856
30
2.19788763627937e-007
11
776.499964533528
21
-671.267980723866
31
2.19788763627937e-007
  0
LINE
 8
GROUP0
10
776.085750971155
20
-671.585817969061
30
2.19788763627937e-007
11
775.767913725959
21
-672.000031531435
31
2.19788763627937e-007
  0
LINE
 8
GROUP0
10
775.56811288095
20
-672.48239344123
30
2.19788763627937e-007
11
775.499964533528
21
-673.000031531435
31
2.19788763627937e-007
  0
LINE
 8
GROUP0
10
530.499765293809
20
-672.999996033083
30
2.19788763627937e-007
11
530.567913641231
21
-673.517634123288
31
2.19788763627937e-007
  0
LINE
 8
GROUP0
10
765.085785901716
20
-987.414178380771
30
2.19788763627937e-007
11
765.499999464089
21
-987.732015625967
31
2.19788763627937e-007
  0
LINE
 8
GROUP0
10
778.017602623733
20
-674.931883184013
30
2.19788763627937e-007
11
778.499964533528
21
-674.732082339003
31
2.19788763627937e-007
  0
LINE
 8
GROUP0
10
764.76794865652
20
-984.999964818398
30
2.19788763627937e-007
11
764.568147811511
21
-985.482326728193
31
2.19788763627937e-007
  0
LINE
 8
GROUP0
10
768.232050271658
20
-984.999964818398
30
2.19788763627937e-007
11
767.914213026462
21
-984.585751256025
31
2.19788763627937e-007
  0
LINE
 8
GROUP0
10
768.431851116667
20
-985.482326728193
30
2.19788763627937e-007
11
768.232050271658
21
-984.999964818398
31
2.19788763627937e-007
  0
LINE
 8
GROUP0
10
767.017637554294
20
-987.931816470976
30
2.19788763627937e-007
11
767.499999464089
21
-987.732015625967
31
2.19788763627937e-007
  0
LINE
 8
GROUP0
10
778.914178095902
20
-671.585817969061
30
2.19788763627937e-007
11
778.499964533528
21
-671.267980723866
31
2.19788763627937e-007
  0
LINE
 8
GROUP0
10
778.017602623733
20
-671.068179878856
30
2.19788763627937e-007
11
777.499964533528
21
-671.000031531435
31
2.19788763627937e-007
  0
LINE
 8
GROUP0
10
766.499999464089
20
-987.999964818398
30
2.19788763627937e-007
11
767.017637554294
21
-987.931816470976
31
2.19788763627937e-007
  0
LINE
 8
GROUP0
10
531.499765293809
20
-671.267945225514
30
2.19788763627937e-007
11
531.085551731436
21
-671.58578247071
31
2.19788763627937e-007
  0
LINE
 8
GROUP0
10
778.499964533528
20
-671.267980723866
30
2.19788763627937e-007
11
778.017602623733
21
-671.068179878856
31
2.19788763627937e-007
  0
LINE
 8
GROUP0
10
776.982326443323
20
-674.931883184013
30
2.19788763627937e-007
11
777.499964533528
21
-675.000031531435
31
2.19788763627937e-007
  0
LINE
 8
GROUP0
10
532.499765293809
20
-674.999996033083
30
2.19788763627937e-007
11
533.017403384014
21
-674.931847685661
31
2.19788763627937e-007
  0
LINE
 8
GROUP0
10
533.017403384014
20
-674.931847685661
30
2.19788763627937e-007
11
533.499765293809
21
-674.732046840652
31
2.19788763627937e-007
  0
LINE
 8
GROUP0
10
779.431816186107
20
-672.48239344123
30
2.19788763627937e-007
11
779.232015341097
21
-672.000031531435
31
2.19788763627937e-007
  0
LINE
 8
GROUP0
10
776.085750971155
20
-674.414245093808
30
2.19788763627937e-007
11
776.499964533528
21
-674.732082339003
31
2.19788763627937e-007
  0
LINE
 8
GROUP0
10
530.76771448624
20
-671.999996033083
30
2.19788763627937e-007
11
530.567913641231
21
-672.482357942878
31
2.19788763627937e-007
  0
LINE
 8
GROUP0
10
533.499765293809
20
-671.267945225514
30
2.19788763627937e-007
11
533.017403384014
21
-671.068144380505
31
2.19788763627937e-007
  0
LINE
 8
GROUP0
10
775.767913725959
20
-672.000031531435
30
2.19788763627937e-007
11
775.56811288095
21
-672.48239344123
31
2.19788763627937e-007
  0
LINE
 8
GROUP0
10
533.499765293809
20
-674.732046840652
30
2.19788763627937e-007
11
533.913978856182
21
-674.414209595456
31
2.19788763627937e-007
  0
LINE
 8
GROUP0
10
776.499964533528
20
-674.732082339003
30
2.19788763627937e-007
11
776.982326443323
21
-674.931883184013
31
2.19788763627937e-007
  0
LINE
 8
GROUP0
10
756.971790417751
20
-650.500031625635
30
0.0001838522968029
11
756.920679157184
21
-650.111803057982
31
0.0001838522968029
  0
LINE
 8
GROUP0
10
756.53245058953
20
-651.560691797415
30
0.0001838522968029
11
756.770828523427
21
-651.250031625635
31
0.0001838522968029
  0
LINE
 8
GROUP0
10
534.431616946387
20
-672.482357942878
30
2.19788763627937e-007
11
534.231816101378
21
-671.999996033083
31
2.19788763627937e-007
  0
LINE
 8
GROUP0
10
533.913978856182
20
-671.58578247071
30
2.19788763627937e-007
11
533.499765293809
21
-671.267945225514
31
2.19788763627937e-007
  0
LINE
 8
GROUP0
10
754.172752312074
20
-651.250031625635
30
0.0001838522968029
11
754.411130245971
21
-651.560691797415
31
0.0001838522968029
  0
LINE
 8
GROUP0
10
754.411130245971
20
-651.560691797415
30
0.0001838522968029
11
754.721790417751
21
-651.799069731312
31
0.0001838522968029
  0
LINE
 8
GROUP0
10
754.172752312074
20
-649.750031625635
30
0.0001838522968029
11
754.022901678317
21
-650.111803057982
31
0.0001838522968029
  0
LINE
 8
GROUP0
10
545.471790417829
20
-649.000031629342
30
9.32782720364345e-005
11
545.083561851134
21
-649.051142889782
31
9.32782720364345e-005
  0
LINE
 8
GROUP0
10
534.431616946387
20
-673.517634123288
30
2.19788763627937e-007
11
534.499765293809
21
-672.999996033083
31
2.19788763627937e-007
  0
LINE
 8
GROUP0
10
545.083561851134
20
-649.051142889782
30
9.32782720364345e-005
11
544.721790419682
21
-649.200993523168
31
9.32782720364345e-005
  0
LINE
 8
GROUP0
10
534.499765293809
20
-672.999996033083
30
2.19788763627937e-007
11
534.431616946387
21
-672.482357942878
31
2.19788763627937e-007
  0
LINE
 8
GROUP0
10
546.971790414122
20
-650.500031625635
30
9.32782720364345e-005
11
546.920679153682
21
-650.111803058941
31
9.32782720364345e-005
  0
LINE
 8
GROUP0
10
756.221790417751
20
-651.799069731312
30
0.0001838522968029
11
756.53245058953
21
-651.560691797415
31
0.0001838522968029
  0
LINE
 8
GROUP0
10
533.913978856182
20
-674.414209595456
30
2.19788763627937e-007
11
534.231816101378
21
-673.999996033083
31
2.19788763627937e-007
  0
LINE
 8
GROUP0
10
753.971790417751
20
-650.500031625635
30
0.0001838522968029
11
754.022901678317
21
-650.888260193289
31
0.0001838522968029
  0
LINE
 8
GROUP0
10
754.022901678317
20
-650.888260193289
30
0.0001838522968029
11
754.172752312074
21
-651.250031625635
31
0.0001838522968029
  0
LINE
 8
GROUP0
10
534.231816101378
20
-671.999996033083
30
2.19788763627937e-007
11
533.913978856182
21
-671.58578247071
31
2.19788763627937e-007
  0
LINE
 8
GROUP0
10
756.53245058953
20
-649.439371453855
30
0.0001838522968029
11
756.221790417751
21
-649.200993519959
31
0.0001838522968029
  0
LINE
 8
GROUP0
10
754.721790417751
20
-649.200993519959
30
0.0001838522968029
11
754.411130245971
21
-649.439371453855
31
0.0001838522968029
  0
LINE
 8
GROUP0
10
756.221790417751
20
-649.200993519959
30
0.0001838522968029
11
755.860018985404
21
-649.051142886202
31
0.0001838522968029
  0
LINE
 8
GROUP0
10
755.471790417751
20
-652.000031625635
30
0.0001838522968029
11
755.860018985404
21
-651.948920365069
31
0.0001838522968029
  0
LINE
 8
GROUP0
10
754.721790417751
20
-651.799069731312
30
0.0001838522968029
11
755.083561850097
21
-651.948920365069
31
0.0001838522968029
  0
LINE
 8
GROUP0
10
755.471790417751
20
-649.000031625635
30
0.0001838522968029
11
755.083561850097
21
-649.051142886202
31
0.0001838522968029
  0
LINE
 8
GROUP0
10
754.411130245971
20
-649.439371453855
30
0.0001838522968029
11
754.172752312074
21
-649.750031625635
31
0.0001838522968029
  0
LINE
 8
GROUP0
10
756.920679157184
20
-650.888260193289
30
0.0001838522968029
11
756.971790417751
21
-650.500031625635
31
0.0001838522968029
  0
LINE
 8
GROUP0
10
755.860018985404
20
-651.948920365069
30
0.0001838522968029
11
756.221790417751
21
-651.799069731312
31
0.0001838522968029
  0
LINE
 8
GROUP0
10
755.860018985404
20
-649.051142886202
30
0.0001838522968029
11
755.471790417751
21
-649.000031625635
31
0.0001838522968029
  0
LINE
 8
GROUP0
10
533.017403384014
20
-671.068144380505
30
2.19788763627937e-007
11
532.499765293809
21
-670.999996033083
31
2.19788763627937e-007
  0
LINE
 8
GROUP0
10
755.083561850097
20
-651.948920365069
30
0.0001838522968029
11
755.471790417751
21
-652.000031625635
31
0.0001838522968029
  0
LINE
 8
GROUP0
10
756.920679157184
20
-650.111803057982
30
0.0001838522968029
11
756.770828523427
21
-649.750031625635
31
0.0001838522968029
  0
LINE
 8
GROUP0
10
534.231816101378
20
-673.999996033083
30
2.19788763627937e-007
11
534.431616946387
21
-673.517634123288
31
2.19788763627937e-007
  0
LINE
 8
GROUP0
10
756.770828523427
20
-649.750031625635
30
0.0001838522968029
11
756.53245058953
21
-649.439371453855
31
0.0001838522968029
  0
LINE
 8
GROUP0
10
755.083561850097
20
-649.051142886202
30
0.0001838522968029
11
754.721790417751
21
-649.200993519959
31
0.0001838522968029
  0
LINE
 8
GROUP0
10
756.770828523427
20
-651.250031625635
30
0.0001838522968029
11
756.920679157184
21
-650.888260193289
31
0.0001838522968029
  0
LINE
 8
GROUP0
10
544.721790419682
20
-649.200993523168
30
9.32782720364345e-005
11
544.41113024867
21
-649.439371456476
31
9.32782720364345e-005
  0
LINE
 8
GROUP0
10
754.022901678317
20
-650.111803057982
30
0.0001838522968029
11
753.971790417751
21
-650.500031625635
31
0.0001838522968029
  0
LINE
 8
GROUP0
10
544.022901681975
20
-650.88826019233
30
9.32782720364345e-005
11
544.172752315362
21
-651.250031623782
31
9.32782720364345e-005
  0
LINE
 8
GROUP0
10
546.532450586988
20
-649.439371456476
30
9.32782720364345e-005
11
546.221790415976
21
-649.200993523168
31
9.32782720364345e-005
  0
LINE
 8
GROUP0
10
543.971790421535
20
-650.500031625635
30
9.32782720364345e-005
11
544.022901681975
21
-650.88826019233
31
9.32782720364345e-005
  0
LINE
 8
GROUP0
10
510.388264128421
20
-730.977094386544
30
0.0001838522968029
11
510.750035560768
21
-730.827243752787
31
0.0001838522968029
  0
LINE
 8
GROUP0
10
545.083561851134
20
-651.948920361489
30
9.32782720364345e-005
11
545.471790417829
21
-652.000031621929
31
9.32782720364345e-005
  0
LINE
 8
GROUP0
10
544.721790419682
20
-651.799069728102
30
9.32782720364345e-005
11
545.083561851134
21
-651.948920361489
31
9.32782720364345e-005
  0
LINE
 8
GROUP0
10
545.860018984523
20
-649.051142889782
30
9.32782720364345e-005
11
545.471790417829
21
-649.000031629342
31
9.32782720364345e-005
  0
LINE
 8
GROUP0
10
510.000035560768
20
-731.028205647111
30
0.0001838522968029
11
510.388264128421
21
-730.977094386544
31
0.0001838522968029
  0
LINE
 8
GROUP0
10
545.860018984523
20
-651.948920361489
30
9.32782720364345e-005
11
546.221790415976
21
-651.799069728102
31
9.32782720364345e-005
  0
LINE
 8
GROUP0
10
510.750035560768
20
-730.827243752787
30
0.0001838522968029
11
511.060695732547
21
-730.588865818891
31
0.0001838522968029
  0
LINE
 8
GROUP0
10
546.770828520296
20
-649.750031627489
30
9.32782720364345e-005
11
546.532450586988
21
-649.439371456476
31
9.32782720364345e-005
  0
LINE
 8
GROUP0
10
511.060695732547
20
-730.588865818891
30
0.0001838522968029
11
511.299073666444
21
-730.278205647111
31
0.0001838522968029
  0
LINE
 8
GROUP0
10
511.299073666444
20
-730.278205647111
30
0.0001838522968029
11
511.448924300201
21
-729.916434214765
31
0.0001838522968029
  0
LINE
 8
GROUP0
10
511.448924300201
20
-729.916434214765
30
0.0001838522968029
11
511.500035560768
21
-729.528205647111
31
0.0001838522968029
  0
LINE
 8
GROUP0
10
544.41113024867
20
-649.439371456476
30
9.32782720364345e-005
11
544.172752315362
21
-649.750031627489
31
9.32782720364345e-005
  0
LINE
 8
GROUP0
10
544.022901681975
20
-650.111803058941
30
9.32782720364345e-005
11
543.971790421535
21
-650.500031625635
31
9.32782720364345e-005
  0
LINE
 8
GROUP0
10
544.41113024867
20
-651.560691794794
30
9.32782720364345e-005
11
544.721790419682
21
-651.799069728102
31
9.32782720364345e-005
  0
LINE
 8
GROUP0
10
546.221790415976
20
-649.200993523168
30
9.32782720364345e-005
11
545.860018984523
21
-649.051142889782
31
9.32782720364345e-005
  0
LINE
 8
GROUP0
10
545.471790417829
20
-652.000031621929
30
9.32782720364345e-005
11
545.860018984523
21
-651.948920361489
31
9.32782720364345e-005
  0
LINE
 8
GROUP0
10
546.221790415976
20
-651.799069728102
30
9.32782720364345e-005
11
546.532450586988
21
-651.560691794794
31
9.32782720364345e-005
  0
LINE
 8
GROUP0
10
544.172752315362
20
-651.250031623782
30
9.32782720364345e-005
11
544.41113024867
21
-651.560691794794
31
9.32782720364345e-005
  0
LINE
 8
GROUP0
10
546.920679153682
20
-650.111803058941
30
9.32782720364345e-005
11
546.770828520296
21
-649.750031627489
31
9.32782720364345e-005
  0
LINE
 8
GROUP0
10
546.532450586988
20
-651.560691794794
30
9.32782720364345e-005
11
546.770828520296
21
-651.250031623782
31
9.32782720364345e-005
  0
LINE
 8
GROUP0
10
546.770828520296
20
-651.250031623782
30
9.32782720364345e-005
11
546.920679153682
21
-650.88826019233
31
9.32782720364345e-005
  0
LINE
 8
GROUP0
10
546.920679153682
20
-650.88826019233
30
9.32782720364345e-005
11
546.971790414122
21
-650.500031625635
31
9.32782720364345e-005
  0
LINE
 8
GROUP0
10
511.500035560768
20
-729.528205647111
30
0.0001838522968029
11
511.448924300201
21
-729.139977079457
31
0.0001838522968029
  0
LINE
 8
GROUP0
10
544.172752315362
20
-649.750031627489
30
9.32782720364345e-005
11
544.022901681975
21
-650.111803058941
31
9.32782720364345e-005
  0
LINE
 8
GROUP0
10
508.551146821334
20
-729.139977079457
30
0.0001838522968029
11
508.500035560768
21
-729.528205647111
31
0.0001838522968029
  0
LINE
 8
GROUP0
10
510.000035560803
20
-938.02820564475
30
3.02581474236285e-005
11
509.611806993149
21
-938.079316905317
31
3.02581474236285e-005
  0
LINE
 8
GROUP0
10
508.500035560803
20
-939.52820564475
30
3.02581474236285e-005
11
508.55114682137
21
-939.916434212404
31
3.02581474236285e-005
  0
LINE
 8
GROUP0
10
508.551146821334
20
-729.916434214765
30
0.0001838522968029
11
508.700997455091
21
-730.278205647111
31
0.0001838522968029
  0
LINE
 8
GROUP0
10
508.939375388988
20
-728.467545475331
30
0.0001838522968029
11
508.700997455091
21
-728.778205647111
31
0.0001838522968029
  0
LINE
 8
GROUP0
10
510.388264128457
20
-940.977094384184
30
3.02581474236285e-005
11
510.750035560803
21
-940.827243750427
31
3.02581474236285e-005
  0
LINE
 8
GROUP0
10
553.079153835893
20
-989.888228567634
30
2.1431745267364e-012
11
553.22900446965
21
-990.24999999998
31
2.1431745267364e-012
  0
LINE
 8
GROUP0
10
508.700997455091
20
-728.778205647111
30
0.0001838522968029
11
508.551146821334
21
-729.139977079457
31
0.0001838522968029
  0
LINE
 8
GROUP0
10
508.55114682137
20
-939.139977077096
30
3.02581474236285e-005
11
508.500035560803
21
-939.52820564475
31
3.02581474236285e-005
  0
LINE
 8
GROUP0
10
509.250035560803
20
-938.229167539074
30
3.02581474236285e-005
11
508.939375389023
21
-938.46754547297
31
3.02581474236285e-005
  0
LINE
 8
GROUP0
10
554.916271142981
20
-990.948888739414
30
2.1431745267364e-012
11
555.278042575327
21
-990.799038105657
31
2.1431745267364e-012
  0
LINE
 8
GROUP0
10
509.611806993114
20
-730.977094386544
30
0.0001838522968029
11
510.000035560768
21
-731.028205647111
31
0.0001838522968029
  0
LINE
 8
GROUP0
10
510.000035560803
20
-941.02820564475
30
3.02581474236285e-005
11
510.388264128457
21
-940.977094384184
31
3.02581474236285e-005
  0
LINE
 8
GROUP0
10
508.500035560768
20
-729.528205647111
30
0.0001838522968029
11
508.551146821334
21
-729.916434214765
31
0.0001838522968029
  0
LINE
 8
GROUP0
10
508.55114682137
20
-939.916434212404
30
3.02581474236285e-005
11
508.700997455127
21
-940.27820564475
31
3.02581474236285e-005
  0
LINE
 8
GROUP0
10
509.250035560768
20
-728.229167541434
30
0.0001838522968029
11
508.939375388988
21
-728.467545475331
31
0.0001838522968029
  0
LINE
 8
GROUP0
10
508.939375388988
20
-730.588865818891
30
0.0001838522968029
11
509.250035560768
21
-730.827243752787
31
0.0001838522968029
  0
LINE
 8
GROUP0
10
510.750035560768
20
-728.229167541434
30
0.0001838522968029
11
510.388264128421
21
-728.079316907677
31
0.0001838522968029
  0
LINE
 8
GROUP0
10
510.000035560768
20
-728.028205647111
30
0.0001838522968029
11
509.611806993114
21
-728.079316907677
31
0.0001838522968029
  0
LINE
 8
GROUP0
10
508.939375389023
20
-938.46754547297
30
3.02581474236285e-005
11
508.700997455127
21
-938.77820564475
31
3.02581474236285e-005
  0
LINE
 8
GROUP0
10
509.250035560803
20
-940.827243750427
30
3.02581474236285e-005
11
509.611806993149
21
-940.977094384184
31
3.02581474236285e-005
  0
LINE
 8
GROUP0
10
509.611806993149
20
-940.977094384184
30
3.02581474236285e-005
11
510.000035560803
21
-941.02820564475
31
3.02581474236285e-005
  0
LINE
 8
GROUP0
10
511.448924300201
20
-729.139977079457
30
0.0001838522968029
11
511.299073666444
21
-728.778205647111
31
0.0001838522968029
  0
LINE
 8
GROUP0
10
511.299073666444
20
-728.778205647111
30
0.0001838522968029
11
511.060695732547
21
-728.467545475331
31
0.0001838522968029
  0
LINE
 8
GROUP0
10
511.060695732547
20
-728.467545475331
30
0.0001838522968029
11
510.750035560768
21
-728.229167541434
31
0.0001838522968029
  0
LINE
 8
GROUP0
10
508.700997455127
20
-940.27820564475
30
3.02581474236285e-005
11
508.939375389023
21
-940.58886581653
31
3.02581474236285e-005
  0
LINE
 8
GROUP0
10
509.611806993149
20
-938.079316905317
30
3.02581474236285e-005
11
509.250035560803
21
-938.229167539074
31
3.02581474236285e-005
  0
LINE
 8
GROUP0
10
508.939375389023
20
-940.58886581653
30
3.02581474236285e-005
11
509.250035560803
21
-940.827243750427
31
3.02581474236285e-005
  0
LINE
 8
GROUP0
10
509.611806993114
20
-728.079316907677
30
0.0001838522968029
11
509.250035560768
21
-728.229167541434
31
0.0001838522968029
  0
LINE
 8
GROUP0
10
510.388264128421
20
-728.079316907677
30
0.0001838522968029
11
510.000035560768
21
-728.028205647111
31
0.0001838522968029
  0
LINE
 8
GROUP0
10
510.750035560803
20
-940.827243750427
30
3.02581474236285e-005
11
511.060695732583
21
-940.58886581653
31
3.02581474236285e-005
  0
LINE
 8
GROUP0
10
508.700997455091
20
-730.278205647111
30
0.0001838522968029
11
508.939375388988
21
-730.588865818891
31
0.0001838522968029
  0
LINE
 8
GROUP0
10
508.700997455127
20
-938.77820564475
30
3.02581474236285e-005
11
508.55114682137
21
-939.139977077096
31
3.02581474236285e-005
  0
LINE
 8
GROUP0
10
509.250035560768
20
-730.827243752787
30
0.0001838522968029
11
509.611806993114
21
-730.977094386544
31
0.0001838522968029
  0
LINE
 8
GROUP0
10
555.278042575327
20
-990.799038105657
30
2.1431745267364e-012
11
555.588702747107
21
-990.56066017176
31
2.1431745267364e-012
  0
LINE
 8
GROUP0
10
554.528042575327
20
-990.99999999998
30
2.1431745267364e-012
11
554.916271142981
21
-990.948888739414
31
2.1431745267364e-012
  0
LINE
 8
GROUP0
10
555.278042575327
20
-988.200961894304
30
2.1431745267364e-012
11
554.916271142981
21
-988.051111260547
31
2.1431745267364e-012
  0
LINE
 8
GROUP0
10
511.500035560803
20
-939.52820564475
30
3.02581474236285e-005
11
511.448924300237
21
-939.139977077096
31
3.02581474236285e-005
  0
LINE
 8
GROUP0
10
555.588702747107
20
-988.439339828201
30
2.1431745267364e-012
11
555.278042575327
21
-988.200961894304
31
2.1431745267364e-012
  0
LINE
 8
GROUP0
10
511.060695732583
20
-940.58886581653
30
3.02581474236285e-005
11
511.29907366648
21
-940.27820564475
31
3.02581474236285e-005
  0
LINE
 8
GROUP0
10
553.22900446965
20
-990.24999999998
30
2.1431745267364e-012
11
553.467382403547
21
-990.56066017176
31
2.1431745267364e-012
  0
LINE
 8
GROUP0
10
511.448924300237
20
-939.139977077096
30
3.02581474236285e-005
11
511.29907366648
21
-938.77820564475
31
3.02581474236285e-005
  0
LINE
 8
GROUP0
10
553.778042575327
20
-988.200961894304
30
2.1431745267364e-012
11
553.467382403547
21
-988.439339828201
31
2.1431745267364e-012
  0
LINE
 8
GROUP0
10
555.588702747107
20
-990.56066017176
30
2.1431745267364e-012
11
555.827080681004
21
-990.24999999998
31
2.1431745267364e-012
  0
LINE
 8
GROUP0
10
554.916271142981
20
-988.051111260547
30
2.1431745267364e-012
11
554.528042575327
21
-987.99999999998
31
2.1431745267364e-012
  0
LINE
 8
GROUP0
10
554.139814007673
20
-988.051111260547
30
2.1431745267364e-012
11
553.778042575327
21
-988.200961894304
31
2.1431745267364e-012
  0
LINE
 8
GROUP0
10
553.079153835893
20
-989.111771432326
30
2.1431745267364e-012
11
553.028042575327
21
-989.49999999998
31
2.1431745267364e-012
  0
LINE
 8
GROUP0
10
511.29907366648
20
-938.77820564475
30
3.02581474236285e-005
11
511.060695732583
21
-938.46754547297
31
3.02581474236285e-005
  0
LINE
 8
GROUP0
10
553.028042575327
20
-989.49999999998
30
2.1431745267364e-012
11
553.079153835893
21
-989.888228567634
31
2.1431745267364e-012
  0
LINE
 8
GROUP0
10
511.448924300237
20
-939.916434212404
30
3.02581474236285e-005
11
511.500035560803
21
-939.52820564475
31
3.02581474236285e-005
  0
LINE
 8
GROUP0
10
555.827080681004
20
-988.74999999998
30
2.1431745267364e-012
11
555.588702747107
21
-988.439339828201
31
2.1431745267364e-012
  0
LINE
 8
GROUP0
10
553.778042575327
20
-990.799038105657
30
2.1431745267364e-012
11
554.139814007673
21
-990.948888739414
31
2.1431745267364e-012
  0
LINE
 8
GROUP0
10
553.467382403547
20
-990.56066017176
30
2.1431745267364e-012
11
553.778042575327
21
-990.799038105657
31
2.1431745267364e-012
  0
LINE
 8
GROUP0
10
800.388193006858
20
-671.920679160107
30
1.28766393782065e-005
11
800.749964439204
21
-671.77082852635
31
1.28766393782065e-005
  0
LINE
 8
GROUP0
10
511.29907366648
20
-940.27820564475
30
3.02581474236285e-005
11
511.448924300237
21
-939.916434212404
31
3.02581474236285e-005
  0
LINE
 8
GROUP0
10
510.750035560803
20
-938.229167539074
30
3.02581474236285e-005
11
510.388264128457
21
-938.079316905317
31
3.02581474236285e-005
  0
LINE
 8
GROUP0
10
510.388264128457
20
-938.079316905317
30
3.02581474236285e-005
11
510.000035560803
21
-938.02820564475
31
3.02581474236285e-005
  0
LINE
 8
GROUP0
10
553.467382403547
20
-988.439339828201
30
2.1431745267364e-012
11
553.22900446965
21
-988.74999999998
31
2.1431745267364e-012
  0
LINE
 8
GROUP0
10
554.139814007673
20
-990.948888739414
30
2.1431745267364e-012
11
554.528042575327
21
-990.99999999998
31
2.1431745267364e-012
  0
LINE
 8
GROUP0
10
553.22900446965
20
-988.74999999998
30
2.1431745267364e-012
11
553.079153835893
21
-989.111771432326
31
2.1431745267364e-012
  0
LINE
 8
GROUP0
10
554.528042575327
20
-987.99999999998
30
2.1431745267364e-012
11
554.139814007673
21
-988.051111260547
31
2.1431745267364e-012
  0
LINE
 8
GROUP0
10
801.299002544913
20
-879.721790393517
30
-0.000308525453656827
11
801.060624611016
21
-879.411130221737
31
-0.000308525453656827
  0
LINE
 8
GROUP0
10
555.97693131476
20
-989.111771432326
30
2.1431745267364e-012
11
555.827080681004
21
-988.74999999998
31
2.1431745267364e-012
  0
LINE
 8
GROUP0
10
556.028042575327
20
-989.49999999998
30
2.1431745267364e-012
11
555.97693131476
21
-989.111771432326
31
2.1431745267364e-012
  0
LINE
 8
GROUP0
10
511.060695732583
20
-938.46754547297
30
3.02581474236285e-005
11
510.750035560803
21
-938.229167539074
31
3.02581474236285e-005
  0
LINE
 8
GROUP0
10
555.827080681004
20
-990.24999999998
30
2.1431745267364e-012
11
555.97693131476
21
-989.888228567634
31
2.1431745267364e-012
  0
LINE
 8
GROUP0
10
555.97693131476
20
-989.888228567634
30
2.1431745267364e-012
11
556.028042575327
21
-989.49999999998
31
2.1431745267364e-012
  0
LINE
 8
GROUP0
10
800.38819300689
20
-881.92067913295
30
-0.000308525453656827
11
800.749964439236
21
-881.770828499194
31
-0.000308525453656827
  0
LINE
 8
GROUP0
10
799.999964439236
20
-881.971790393517
30
-0.000308525453656827
11
800.38819300689
21
-881.92067913295
31
-0.000308525453656827
  0
LINE
 8
GROUP0
10
801.060624610984
20
-669.411130248894
30
1.28766393782065e-005
11
800.749964439204
21
-669.172752314997
31
1.28766393782065e-005
  0
LINE
 8
GROUP0
10
798.700926333559
20
-881.221790393517
30
-0.000308525453656827
11
798.939304267456
21
-881.532450565297
31
-0.000308525453656827
  0
LINE
 8
GROUP0
10
799.611735871582
20
-879.022901654083
30
-0.000308525453656827
11
799.249964439236
21
-879.17275228784
31
-0.000308525453656827
  0
LINE
 8
GROUP0
10
801.060624610984
20
-671.532450592454
30
1.28766393782065e-005
11
801.299002544881
21
-671.221790420674
31
1.28766393782065e-005
  0
LINE
 8
GROUP0
10
801.060624611016
20
-881.532450565297
30
-0.000308525453656827
11
801.299002544913
21
-881.221790393517
31
-0.000308525453656827
  0
LINE
 8
GROUP0
10
798.551075699802
20
-880.860018961171
30
-0.000308525453656827
11
798.700926333559
21
-881.221790393517
31
-0.000308525453656827
  0
LINE
 8
GROUP0
10
798.939304267456
20
-881.532450565297
30
-0.000308525453656827
11
799.249964439236
21
-881.770828499194
31
-0.000308525453656827
  0
LINE
 8
GROUP0
10
801.499964439236
20
-880.471790393517
30
-0.000308525453656827
11
801.44885317867
21
-880.083561825863
31
-0.000308525453656827
  0
LINE
 8
GROUP0
10
800.749964439236
20
-879.17275228784
30
-0.000308525453656827
11
800.38819300689
21
-879.022901654083
31
-0.000308525453656827
  0
LINE
 8
GROUP0
10
799.249964439236
20
-879.17275228784
30
-0.000308525453656827
11
798.939304267456
21
-879.411130221737
31
-0.000308525453656827
  0
LINE
 8
GROUP0
10
801.44885317867
20
-880.083561825863
30
-0.000308525453656827
11
801.299002544913
21
-879.721790393517
31
-0.000308525453656827
  0
LINE
 8
GROUP0
10
801.448853178638
20
-670.860018988328
30
1.28766393782065e-005
11
801.499964439204
21
-670.471790420674
31
1.28766393782065e-005
  0
LINE
 8
GROUP0
10
798.551075699802
20
-880.083561825863
30
-0.000308525453656827
11
798.499964439236
21
-880.471790393517
31
-0.000308525453656827
  0
LINE
 8
GROUP0
10
798.499964439236
20
-880.471790393517
30
-0.000308525453656827
11
798.551075699802
21
-880.860018961171
31
-0.000308525453656827
  0
LINE
 8
GROUP0
10
799.611735871582
20
-881.92067913295
30
-0.000308525453656827
11
799.999964439236
21
-881.971790393517
31
-0.000308525453656827
  0
LINE
 8
GROUP0
10
801.299002544913
20
-881.221790393517
30
-0.000308525453656827
11
801.44885317867
21
-880.860018961171
31
-0.000308525453656827
  0
LINE
 8
GROUP0
10
800.749964439204
20
-671.77082852635
30
1.28766393782065e-005
11
801.060624610984
21
-671.532450592454
31
1.28766393782065e-005
  0
LINE
 8
GROUP0
10
798.939304267456
20
-879.411130221737
30
-0.000308525453656827
11
798.700926333559
21
-879.721790393517
31
-0.000308525453656827
  0
LINE
 8
GROUP0
10
801.060624611016
20
-879.411130221737
30
-0.000308525453656827
11
800.749964439236
21
-879.17275228784
31
-0.000308525453656827
  0
LINE
 8
GROUP0
10
798.939304267424
20
-669.411130248894
30
1.28766393782065e-005
11
798.700926333527
21
-669.721790420674
31
1.28766393782065e-005
  0
LINE
 8
GROUP0
10
801.299002544881
20
-671.221790420674
30
1.28766393782065e-005
11
801.448853178638
21
-670.860018988328
31
1.28766393782065e-005
  0
LINE
 8
GROUP0
10
801.499964439204
20
-670.471790420674
30
1.28766393782065e-005
11
801.448853178638
21
-670.08356185302
31
1.28766393782065e-005
  0
LINE
 8
GROUP0
10
800.749964439236
20
-881.770828499194
30
-0.000308525453656827
11
801.060624611016
21
-881.532450565297
31
-0.000308525453656827
  0
LINE
 8
GROUP0
10
798.700926333559
20
-879.721790393517
30
-0.000308525453656827
11
798.551075699802
21
-880.083561825863
31
-0.000308525453656827
  0
LINE
 8
GROUP0
10
799.249964439236
20
-881.770828499194
30
-0.000308525453656827
11
799.611735871582
21
-881.92067913295
31
-0.000308525453656827
  0
LINE
 8
GROUP0
10
801.44885317867
20
-880.860018961171
30
-0.000308525453656827
11
801.499964439236
21
-880.471790393517
31
-0.000308525453656827
  0
LINE
 8
GROUP0
10
800.38819300689
20
-879.022901654083
30
-0.000308525453656827
11
799.999964439236
21
-878.971790393517
31
-0.000308525453656827
  0
LINE
 8
GROUP0
10
799.999964439204
20
-671.971790420674
30
1.28766393782065e-005
11
800.388193006858
21
-671.920679160107
31
1.28766393782065e-005
  0
LINE
 8
GROUP0
10
799.999964439236
20
-878.971790393517
30
-0.000308525453656827
11
799.611735871582
21
-879.022901654083
31
-0.000308525453656827
  0
LINE
 8
GROUP0
10
799.249964439204
20
-671.77082852635
30
1.28766393782065e-005
11
799.277801199801
21
-671.782358890122
31
1.42765619533691e-005
  0
LINE
 8
GROUP0
10
508.689172066388
20
-998.060705585701
30
1.74402515920602e-006
11
508.999832402678
21
-998.299083305203
31
1.50325468382673e-006
  0
LINE
 8
GROUP0
10
799.61173587155
20
-671.920679160107
30
1.28766393782065e-005
11
799.999964439204
21
-671.971790420674
31
1.28766393782065e-005
  0
LINE
 8
GROUP0
10
798.939304267424
20
-671.532450592454
30
1.28766393782065e-005
11
799.249964439204
21
-671.77082852635
31
1.28766393782065e-005
  0
LINE
 8
GROUP0
10
801.448853178638
20
-670.08356185302
30
1.28766393782065e-005
11
801.299002544881
21
-669.721790420674
31
1.28766393782065e-005
  0
LINE
 8
GROUP0
10
508.249831506179
20
-997.000045717121
30
2.80128116538214e-006
11
508.300943034672
21
-997.388274249502
31
2.41593288372033e-006
  0
LINE
 8
GROUP0
10
799.999964439204
20
-668.971790420674
30
1.28766393782065e-005
11
799.61173587155
21
-669.02290168124
31
1.28766393782065e-005
  0
LINE
 8
GROUP0
10
799.61173587155
20
-669.02290168124
30
1.28766393782065e-005
11
799.249964439204
21
-669.172752314997
31
1.28766393782065e-005
  0
LINE
 8
GROUP0
10
798.55107569977
20
-670.08356185302
30
1.28766393782065e-005
11
798.499964439204
21
-670.471790420674
31
1.28766393782065e-005
  0
LINE
 8
GROUP0
10
500.0
20
-1109.49999606486
30
1.13298575205034e-007
11
810.0
21
-1109.49999606486
31
1.13298578025001e-007
  0
LINE
 8
GROUP0
10
810.0
20
-639.49999606486
30
2.19788759397987e-007
11
500.0
21
-639.49999606486
31
2.19788757283013e-007
  0
LINE
 8
GROUP0
10
799.249964439204
20
-669.172752314997
30
1.28766393782065e-005
11
799.17992560378
21
-669.226495003625
31
1.44352549016624e-005
  0
LINE
 8
GROUP0
10
799.277801199801
20
-671.782358890122
30
1.42765619533691e-005
11
799.61173587155
21
-671.920679160107
31
1.28766393782065e-005
  0
LINE
 8
GROUP0
10
508.30094249882
20
-996.611817114195
30
3.18510547652751e-006
11
508.249831506179
21
-997.000045717121
31
2.80128116538214e-006
  0
LINE
 8
GROUP0
10
798.55107569977
20
-670.860018988328
30
1.28766393782065e-005
11
798.700926333527
21
-671.221790420674
31
1.28766393782065e-005
  0
LINE
 8
GROUP0
10
800.749964439204
20
-669.172752314997
30
1.28766393782065e-005
11
800.388193006858
21
-669.02290168124
31
1.28766393782065e-005
  0
LINE
 8
GROUP0
10
801.299002544881
20
-669.721790420674
30
1.28766393782065e-005
11
801.060624610984
21
-669.411130248894
31
1.28766393782065e-005
  0
LINE
 8
GROUP0
10
499.0
20
-640.49999606486
30
2.19788757283013e-007
11
499.0
21
-1108.49999606486
31
1.13298575205034e-007
  0
LINE
 8
GROUP0
10
798.700926333527
20
-669.721790420674
30
1.28766393782065e-005
11
798.55107569977
21
-670.08356185302
31
1.28766393782065e-005
  0
LINE
 8
GROUP0
10
510.810492409947
20
-998.060704121725
30
1.71241685707479e-006
11
511.048870129449
21
-997.750043785434
31
2.01661022572464e-006
  0
LINE
 8
GROUP0
10
509.36160393844
20
-998.448933689293
30
1.34941938723654e-006
11
509.749832541367
21
-998.500044681933
31
1.29300287693979e-006
  0
LINE
 8
GROUP0
10
508.999832402678
20
-998.299083305203
30
1.50325468382673e-006
11
509.36160393844
21
-998.448933689293
31
1.34941938723654e-006
  0
LINE
 8
GROUP0
10
799.17992560378
20
-669.226495003625
30
1.44352549016624e-005
11
798.939304267424
21
-669.411130248894
31
1.28766393782065e-005
  0
LINE
 8
GROUP0
10
510.499832402678
20
-998.299082270016
30
1.48090423013891e-006
11
510.810492409947
21
-998.060704121725
31
1.71241685707479e-006
  0
LINE
 8
GROUP0
10
510.138061073747
20
-998.44893315344
30
1.33785034361344e-006
11
510.499832402678
21
-998.299082270016
31
1.48090423013891e-006
  0
LINE
 8
GROUP0
10
811.0
20
-1108.49999606486
30
1.13298578025001e-007
11
811.0
21
-640.49999606486
31
2.19788759397987e-007
  0
LINE
 8
GROUP0
10
800.388193006858
20
-669.02290168124
30
1.28766393782065e-005
11
799.999964439204
21
-668.971790420674
31
1.28766393782065e-005
  0
LINE
 8
GROUP0
10
509.749832541367
20
-998.500044681933
30
1.29300287693979e-006
11
510.138061073747
21
-998.44893315344
31
1.33785034361344e-006
  0
LINE
 8
GROUP0
10
508.300943034672
20
-997.388274249502
30
2.41593288372033e-006
11
508.450793918096
21
-997.750045578432
31
2.05532238156114e-006
  0
LINE
 8
GROUP0
10
798.700926333527
20
-671.221790420674
30
1.28766393782065e-005
11
798.939304267424
21
-671.532450592454
31
1.28766393782065e-005
  0
LINE
 8
GROUP0
10
798.499964439204
20
-670.471790420674
30
1.28766393782065e-005
11
798.55107569977
21
-670.860018988328
31
1.28766393782065e-005
  0
LINE
 8
GROUP0
10
508.450793918096
20
-997.750045578432
30
2.05532238156114e-006
11
508.689172066388
21
-998.060705585701
31
1.74402515920602e-006
  0
LINE
 8
GROUP0
10
521.249831506176
20
-997.000036745495
30
2.60757691053493e-006
11
521.198719977684
21
-996.611808213115
31
2.99292401345075e-006
  0
LINE
 8
GROUP0
10
520.810492409945
20
-998.060697220473
30
1.56341386632897e-006
11
521.048870129447
21
-997.750036884183
31
1.86760687261311e-006
  0
LINE
 8
GROUP0
10
511.048870129449
20
-997.750043785434
30
2.01661022572464e-006
11
511.198720513539
21
-997.388272249673
31
2.37275476952514e-006
  0
LINE
 8
GROUP0
10
510.81049094597
20
-995.939383778167
30
3.81383558316073e-006
11
510.49983060968
21
-995.701006058664
31
4.0546063292568e-006
  0
LINE
 8
GROUP0
10
508.450792882909
20
-996.250045578433
30
3.54124980178061e-006
11
508.30094249882
21
-996.611817114195
31
3.18510547652751e-006
  0
LINE
 8
GROUP0
10
518.689172066385
20
-998.06069868445
30
1.59502144936874e-006
11
518.999832402676
21
-998.299076403952
31
1.3542516930809e-006
  0
LINE
 8
GROUP0
10
510.49983060968
20
-995.701006058664
30
4.0546063292568e-006
11
510.138059073918
21
-995.551155674575
31
4.20844167801637e-006
  0
LINE
 8
GROUP0
10
519.749832541364
20
-998.500037780682
30
1.14400024996963e-006
11
520.138061073745
21
-998.448926252189
31
1.18884699191191e-006
  0
LINE
 8
GROUP0
10
509.749830470991
20
-995.500044681935
30
4.26485741282234e-006
11
509.361601938611
21
-995.551156210428
31
4.22001076675893e-006
  0
LINE
 8
GROUP0
10
520.810490945968
20
-995.939376876915
30
3.66483290825115e-006
11
520.499830609677
21
-995.700999157413
31
3.90560297755527e-006
  0
LINE
 8
GROUP0
10
518.450793918094
20
-997.750038677181
30
1.9063196615321e-006
11
518.689172066385
21
-998.06069868445
31
1.59502144936874e-006
  0
LINE
 8
GROUP0
10
508.689170602411
20
-995.939385242143
30
3.84544388529195e-006
11
508.450792882909
21
-996.250045578433
31
3.54124980178061e-006
  0
LINE
 8
GROUP0
10
521.198720513536
20
-997.388265348422
30
2.2237514178236e-006
11
521.249831506176
21
-997.000036745495
31
2.60757691053493e-006
  0
LINE
 8
GROUP0
10
509.361601938611
20
-995.551156210428
30
4.22001076675893e-006
11
508.99983060968
21
-995.701007093852
31
4.07695678294462e-006
  0
LINE
 8
GROUP0
10
519.749830470989
20
-995.500037780684
30
4.11585442489648e-006
11
519.361601938608
21
-995.551149309176
31
4.0710077760131e-006
  0
LINE
 8
GROUP0
10
518.999830609678
20
-995.701000192601
30
3.92795343124308e-006
11
518.689170602409
21
-995.939378340892
31
3.69644053641038e-006
  0
LINE
 8
GROUP0
10
518.999832402676
20
-998.299076403952
30
1.3542516930809e-006
11
519.361603938437
21
-998.448926788041
31
1.20041639649071e-006
  0
LINE
 8
GROUP0
10
518.249831506177
20
-997.00003881587
30
2.65227781650057e-006
11
518.30094303467
21
-997.388267348251
31
2.2669291696531e-006
  0
LINE
 8
GROUP0
10
521.048870129447
20
-997.750036884183
30
1.86760687261311e-006
11
521.198720513536
21
-997.388265348422
31
2.2237514178236e-006
  0
LINE
 8
GROUP0
10
510.138059073918
20
-995.551155674575
30
4.20844167801637e-006
11
509.749830470991
21
-995.500044681935
31
4.26485741282234e-006
  0
LINE
 8
GROUP0
10
508.99983060968
20
-995.701007093852
30
4.07695678294462e-006
11
508.689170602411
21
-995.939385242143
31
3.84544388529195e-006
  0
LINE
 8
GROUP0
10
511.249831506179
20
-997.000043646746
30
2.7565802594165e-006
11
511.198719977686
21
-996.611815114366
31
3.14192772328803e-006
  0
LINE
 8
GROUP0
10
520.499830609677
20
-995.700999157413
30
3.90560297755527e-006
11
520.138059073916
21
-995.551148773324
31
4.0594383291348e-006
  0
LINE
 8
GROUP0
10
511.048869094261
20
-996.250043785435
30
3.5025376459441e-006
11
510.81049094597
21
-995.939383778167
31
3.81383558316073e-006
  0
LINE
 8
GROUP0
10
518.30094303467
20
-997.388267348251
30
2.2669291696531e-006
11
518.450793918094
21
-997.750038677181
31
1.9063196615321e-006
  0
LINE
 8
GROUP0
10
520.499832402675
20
-998.299075368765
30
1.33190088125734e-006
11
520.810492409945
21
-998.060697220473
31
1.56341386632897e-006
  0
LINE
 8
GROUP0
10
511.198719977686
20
-996.611815114366
30
3.14192772328803e-006
11
511.048869094261
21
-996.250043785435
31
3.5025376459441e-006
  0
LINE
 8
GROUP0
10
519.361601938608
20
-995.551149309176
30
4.0710077760131e-006
11
518.999830609678
21
-995.701000192601
31
3.92795343124308e-006
  0
LINE
 8
GROUP0
10
520.138061073745
20
-998.448926252189
30
1.18884699191191e-006
11
520.499832402675
21
-998.299075368765
31
1.33190088125734e-006
  0
LINE
 8
GROUP0
10
511.198720513539
20
-997.388272249673
30
2.37275476952514e-006
11
511.249831506179
21
-997.000043646746
31
2.7565802594165e-006
  0
LINE
 8
GROUP0
10
519.361603938437
20
-998.448926788041
30
1.20041639649071e-006
11
519.749832541364
21
-998.500037780682
31
1.14400024996963e-006
  0
LINE
 8
GROUP0
10
521.048869094259
20
-996.250036884184
30
3.35353429706253e-006
11
520.810490945968
21
-995.939376876915
31
3.66483290825115e-006
  0
LINE
 8
GROUP0
10
520.499822050799
20
-983.299075368775
30
1.61911754655575e-005
11
520.810482058068
21
-983.060697220484
31
1.64226880896734e-005
  0
LINE
 8
GROUP0
10
519.749822189488
20
-983.500037780692
30
1.60032738486915e-005
11
520.138050721868
21
-983.4489262522
31
1.60481211701369e-005
  0
LINE
 8
GROUP0
10
518.300932146941
20
-981.611810212954
30
1.78953767570655e-005
11
518.2498211543
21
-982.000038815881
31
1.75115516788893e-005
  0
LINE
 8
GROUP0
10
518.2498211543
20
-982.000038815881
30
1.75115516788893e-005
11
518.300932682793
21
-982.388267348261
31
1.71262041614384e-005
  0
LINE
 8
GROUP0
10
518.689170602409
20
-995.939378340892
30
3.69644053641038e-006
11
518.450792882907
21
-996.250038677182
31
3.39224708457153e-006
  0
LINE
 8
GROUP0
10
518.689161714509
20
-983.060698684461
30
1.64542963946246e-005
11
518.999822050799
21
-983.299076403963
31
1.6213526277381e-005
  0
LINE
 8
GROUP0
10
518.300942498817
20
-996.611810212944
30
3.03610212764593e-006
11
518.249831506177
21
-997.00003881587
31
2.65227781650057e-006
  0
LINE
 8
GROUP0
10
518.999822050799
20
-983.299076403963
30
1.6213526277381e-005
11
519.361593586561
21
-983.448926788052
31
1.60596898979237e-005
  0
LINE
 8
GROUP0
10
520.138050721868
20
-983.4489262522
30
1.60481211701369e-005
11
520.499822050799
21
-983.299075368775
31
1.61911754655575e-005
  0
LINE
 8
GROUP0
10
519.361593586561
20
-983.448926788052
30
1.60596898979237e-005
11
519.749822189488
21
-983.500037780692
31
1.60032738486915e-005
  0
LINE
 8
GROUP0
10
518.450792882907
20
-996.250038677182
30
3.39224708457153e-006
11
518.300942498817
21
-996.611810212944
31
3.03610212764593e-006
  0
LINE
 8
GROUP0
10
519.749820119112
20
-980.500037780695
30
1.89751286933604e-005
11
519.361591586732
21
-980.551149309187
31
1.89302816384018e-005
  0
LINE
 8
GROUP0
10
521.048858742383
20
-981.250036884195
30
1.82128092874378e-005
11
520.810480594091
21
-980.939376876926
31
1.85241067706399e-005
  0
LINE
 8
GROUP0
10
520.810480594091
20
-980.939376876926
30
1.85241067706399e-005
11
520.499820257801
21
-980.700999157424
31
1.87648769372328e-005
  0
LINE
 8
GROUP0
10
521.04885977757
20
-982.750036884194
30
1.67268818643984e-005
11
521.198710161659
21
-982.388265348433
31
1.70830264096089e-005
  0
LINE
 8
GROUP0
10
520.138048722039
20
-980.551148773335
30
1.89187121915235e-005
11
519.749820119112
21
-980.500037780695
31
1.89751286933604e-005
  0
LINE
 8
GROUP0
10
519.361591586732
20
-980.551149309187
30
1.89302816384018e-005
11
518.999820257801
21
-980.701000192612
31
1.87872277081669e-005
  0
LINE
 8
GROUP0
10
521.198710161659
20
-982.388265348433
30
1.70830264096089e-005
11
521.2498211543
21
-982.000036745506
31
1.74668507729236e-005
  0
LINE
 8
GROUP0
10
520.810482058068
20
-983.060697220484
30
1.64226880896734e-005
11
521.04885977757
21
-982.750036884194
31
1.67268818643984e-005
  0
LINE
 8
GROUP0
10
518.999820257801
20
-980.701000192612
30
1.87872277081669e-005
11
518.689160250532
21
-980.939378340903
31
1.85557147146353e-005
  0
LINE
 8
GROUP0
10
520.499820257801
20
-980.700999157424
30
1.87648769372328e-005
11
520.138048722039
21
-980.551148773335
31
1.89187121915235e-005
  0
LINE
 8
GROUP0
10
510.81048205807
20
-983.060704121735
30
1.65716914413749e-005
11
511.048859777573
21
-982.750043785445
31
1.68758848551442e-005
  0
LINE
 8
GROUP0
10
508.999820257804
20
-980.701007093863
30
1.89362307412122e-005
11
508.689160250535
21
-980.939385242154
31
1.87047180635169e-005
  0
LINE
 8
GROUP0
10
521.2498211543
20
-982.000036745506
30
1.74668507729236e-005
11
521.198709625807
21
-981.611808213126
31
1.78521990024161e-005
  0
LINE
 8
GROUP0
10
520.138059073916
20
-995.551148773324
30
4.0594383291348e-006
11
519.749830470989
21
-995.500037780684
31
4.11585442489648e-006
  0
LINE
 8
GROUP0
10
518.45078253103
20
-981.250038677193
30
1.82515213967449e-005
11
518.300932146941
21
-981.611810212954
31
1.78953767570655e-005
  0
LINE
 8
GROUP0
10
518.450783566218
20
-982.750038677192
30
1.67655939751155e-005
11
518.689161714509
21
-983.060698684461
31
1.64542963946246e-005
  0
LINE
 8
GROUP0
10
518.300932682793
20
-982.388267348261
30
1.71262041614384e-005
11
518.450783566218
21
-982.750038677192
31
1.67655939751155e-005
  0
LINE
 8
GROUP0
10
521.198719977684
20
-996.611808213115
30
2.99292401345075e-006
11
521.048869094259
21
-996.250036884184
31
3.35353429706253e-006
  0
LINE
 8
GROUP0
10
518.689160250532
20
-980.939378340903
30
1.85557147146353e-005
11
518.45078253103
21
-981.250038677193
31
1.82515213967449e-005
  0
LINE
 8
GROUP0
10
521.198709625807
20
-981.611808213126
30
1.78521990024161e-005
11
521.048858742383
21
-981.250036884195
31
1.82128092874378e-005
  0
LINE
 8
GROUP0
10
510.810480594094
20
-980.939383778177
30
1.86731097613857e-005
11
510.499820257804
21
-980.701006058675
31
1.89138802889344e-005
  0
LINE
 8
GROUP0
10
508.689161714511
20
-983.060705585712
30
1.66032993825505e-005
11
508.999822050802
21
-983.299083305214
31
1.63625293132463e-005
  0
LINE
 8
GROUP0
10
511.249821154302
20
-982.000043646757
30
1.76158541218052e-005
11
511.19870962581
21
-981.611815114376
31
1.80012023541176e-005
  0
LINE
 8
GROUP0
10
791.750008224689
20
-923.950974250689
30
2.37290547276392e-006
11
791.43934821742
21
-924.18935239898
31
2.68420296019589e-006
  0
LINE
 8
GROUP0
10
509.74982218949
20
-983.500044681943
30
1.61522768366174e-005
11
510.138050721871
21
-983.448933153451
31
1.61971242060022e-005
  0
LINE
 8
GROUP0
10
508.45078356622
20
-982.750045578443
30
1.6914597326817e-005
11
508.689161714511
21
-983.060705585712
31
1.66032993825505e-005
  0
LINE
 8
GROUP0
10
508.249821154303
20
-982.000045717132
30
1.76605550277709e-005
11
508.300932682795
21
-982.388274249512
31
1.72752075131399e-005
  0
LINE
 8
GROUP0
10
510.499822050801
20
-983.299082270026
30
1.63401788144391e-005
11
510.81048205807
21
-983.060704121735
31
1.65716914413749e-005
  0
LINE
 8
GROUP0
10
510.138048722042
20
-980.551155674586
30
1.90677155404051e-005
11
509.749820119115
21
-980.500044681945
31
1.91241316812862e-005
  0
LINE
 8
GROUP0
10
791.200970497918
20
-924.500012735271
30
2.92497348633458e-006
11
791.051120113828
21
-924.861784271032
31
3.07880873780531e-006
  0
LINE
 8
GROUP0
10
792.111781553448
20
-926.698900846131
30
2.05547330616729e-006
11
792.500010156375
21
-926.750011838771
31
1.67164822094112e-006
  0
LINE
 8
GROUP0
10
793.560670024954
20
-926.310671278563
30
6.14392579950662e-007
11
793.799047744457
21
-926.000010942273
31
3.73622510646543e-007
  0
LINE
 8
GROUP0
10
508.300932146943
20
-981.611817114205
30
1.80443801059471e-005
11
508.249821154303
21
-982.000045717132
31
1.76605550277709e-005
  0
LINE
 8
GROUP0
10
791.200971533105
20
-926.00001273527
30
2.94732393720243e-006
11
791.439349681396
21
-926.310672742539
31
2.71581125950715e-006
  0
LINE
 8
GROUP0
10
794.000009121186
20
-925.250010803584
30
1.63370034017563e-007
11
793.948897592694
21
-924.861782271204
31
2.08217399172428e-007
  0
LINE
 8
GROUP0
10
791.43934821742
20
-924.18935239898
30
2.68420296019589e-006
11
791.200970497918
21
-924.500012735271
31
2.92497348633458e-006
  0
LINE
 8
GROUP0
10
792.888236688927
20
-923.801122831412
30
1.24312259493498e-006
11
792.500008086
21
-923.750011838772
31
1.62694731920543e-006
  0
LINE
 8
GROUP0
10
508.300932682795
20
-982.388274249512
30
1.72752075131399e-005
11
508.45078356622
21
-982.750045578443
31
1.6914597326817e-005
  0
LINE
 8
GROUP0
10
793.560668560978
20
-924.189350935004
30
5.8278463595518e-007
11
793.250008224688
21
-923.950973215502
31
8.86978052544451e-007
  0
LINE
 8
GROUP0
10
793.799046709269
20
-924.500010942273
30
3.51272009019299e-007
11
793.560668560978
21
-924.189350935004
31
5.8278463595518e-007
  0
LINE
 8
GROUP0
10
793.250008224688
20
-923.950973215502
30
8.86978052544451e-007
11
792.888236688927
21
-923.801122831412
31
1.24312259493498e-006
  0
LINE
 8
GROUP0
10
511.048859777573
20
-982.750043785445
30
1.68758848551442e-005
11
511.198710161662
21
-982.388272249683
31
1.72320293975348e-005
  0
LINE
 8
GROUP0
10
511.198710161662
20
-982.388272249683
30
1.72320293975348e-005
11
511.249821154302
21
-982.000043646757
31
1.76158541218052e-005
  0
LINE
 8
GROUP0
10
508.999822050802
20
-983.299083305214
30
1.63625293132463e-005
11
509.361593586563
21
-983.448933689303
31
1.6208693610581e-005
  0
LINE
 8
GROUP0
10
509.749820119115
20
-980.500044681945
30
1.91241316812862e-005
11
509.361591586735
21
-980.551156210438
31
1.90792846291477e-005
  0
LINE
 8
GROUP0
10
509.361593586563
20
-983.448933689303
30
1.6208693610581e-005
11
509.74982218949
21
-983.500044681943
31
1.61522768366174e-005
  0
LINE
 8
GROUP0
10
508.450782531032
20
-981.250045578444
30
1.84005243423713e-005
11
508.300932146943
21
-981.611817114205
31
1.80443801059471e-005
  0
LINE
 8
GROUP0
10
511.19870962581
20
-981.611815114376
30
1.80012023541176e-005
11
511.048858742385
21
-981.250043785446
31
1.83618122753637e-005
  0
LINE
 8
GROUP0
10
509.361591586735
20
-980.551156210438
30
1.90792846291477e-005
11
508.999820257804
21
-980.701007093863
31
1.89362307412122e-005
  0
LINE
 8
GROUP0
10
511.048858742385
20
-981.250043785446
30
1.83618122753637e-005
11
510.810480594094
21
-980.939383778177
31
1.86731097613857e-005
  0
LINE
 8
GROUP0
10
508.689160250535
20
-980.939385242154
30
1.87047180635169e-005
11
508.450782531032
21
-981.250045578444
31
1.84005243423713e-005
  0
LINE
 8
GROUP0
10
510.499820257804
20
-980.701006058675
30
1.89138802889344e-005
11
510.138048722042
21
-980.551155674586
31
1.90677155404051e-005
  0
LINE
 8
GROUP0
10
510.138050721871
20
-983.448933153451
30
1.61971242060022e-005
11
510.499822050801
21
-983.299082270026
31
1.63401788144391e-005
  0
LINE
 8
GROUP0
10
807.888236688916
20
-923.801112479539
30
-1.36161520358946e-005
11
807.500008085989
21
-923.750001486899
31
-1.32323265445933e-005
  0
LINE
 8
GROUP0
10
809.000009121175
20
-925.250000451711
30
-1.469590392566e-005
11
808.948897592683
21
-924.861771919331
31
-1.46510564589863e-005
  0
LINE
 8
GROUP0
10
806.051120113818
20
-924.861773919159
30
-1.17804651203535e-005
11
806.000009121178
21
-925.250002522086
31
-1.17240493897774e-005
  0
LINE
 8
GROUP0
10
806.750008224679
20
-923.950963898816
30
-1.24863691580657e-005
11
806.43934821741
21
-924.189342047107
31
-1.21750712194391e-005
  0
LINE
 8
GROUP0
10
793.799047744457
20
-926.000010942273
30
3.73622510646543e-007
11
793.948898128546
21
-925.638239406511
31
2.19786807981182e-007
  0
LINE
 8
GROUP0
10
808.799047744446
20
-926.0000005904
30
-1.4485652120183e-005
11
808.948898128535
21
-925.638229054638
31
-1.46394874167732e-005
  0
LINE
 8
GROUP0
10
791.051120649681
20
-925.638241406339
30
3.09037782513788e-006
11
791.200971533105
21
-926.00001273527
31
2.94732393720243e-006
  0
LINE
 8
GROUP0
10
806.000009121178
20
-925.250002522086
30
-1.17240493897774e-005
11
806.05112064967
21
-925.638231054467
31
-1.17688960386608e-005
  0
LINE
 8
GROUP0
10
791.439349681396
20
-926.310672742539
30
2.71581125950715e-006
11
791.750010017686
21
-926.549050462042
31
2.41161754400143e-006
  0
LINE
 8
GROUP0
10
807.111779553609
20
-923.801113015391
30
-1.28469790835417e-005
11
806.750008224679
21
-923.950963898816
31
-1.24863691580657e-005
  0
LINE
 8
GROUP0
10
807.500008085989
20
-923.750001486899
30
-1.32323265445933e-005
11
807.111779553609
21
-923.801113015391
31
-1.28469790835417e-005
  0
LINE
 8
GROUP0
10
808.250008224677
20
-923.950962863629
30
-1.39722965782851e-005
11
807.888236688916
21
-923.801112479539
31
-1.36161520358946e-005
  0
LINE
 8
GROUP0
10
792.888238688755
20
-926.698900310279
30
1.28630071477009e-006
11
793.250010017685
21
-926.549049426854
31
9.25690524217204e-007
  0
LINE
 8
GROUP0
10
808.948898128535
20
-925.638229054638
30
-1.46394874167732e-005
11
809.000009121175
21
-925.250000451711
31
-1.469590392566e-005
  0
LINE
 8
GROUP0
10
806.200971533095
20
-926.000002383397
30
-1.19119500168352e-005
11
806.439349681386
21
-926.310662390666
31
-1.21434629144879e-005
  0
LINE
 8
GROUP0
10
792.500008086
20
-923.750011838772
30
1.62694731920543e-006
11
792.111779553619
21
-923.801123367264
31
2.01229554728788e-006
  0
LINE
 8
GROUP0
10
793.948898128546
20
-925.638239406511
30
2.19786807981182e-007
11
794.000009121186
21
-925.250010803584
31
1.63370034017563e-007
  0
LINE
 8
GROUP0
10
791.750010017686
20
-926.549050462042
30
2.41161754400143e-006
11
792.111781553448
21
-926.698900846131
31
2.05547330616729e-006
  0
LINE
 8
GROUP0
10
792.500010156375
20
-926.750011838771
30
1.67164822094112e-006
11
792.888238688755
21
-926.698900310279
31
1.28630071477009e-006
  0
LINE
 8
GROUP0
10
808.948897592683
20
-924.861771919331
30
-1.46510564589863e-005
11
808.799046709259
21
-924.5000005904
31
-1.45080025766908e-005
  0
LINE
 8
GROUP0
10
793.948897592694
20
-924.861782271204
30
2.08217399172428e-007
11
793.799046709269
21
-924.500010942273
31
3.51272009019299e-007
  0
LINE
 8
GROUP0
10
793.250010017685
20
-926.549049426854
30
9.25690524217204e-007
11
793.560670024954
21
-926.310671278563
31
6.14392579950662e-007
  0
LINE
 8
GROUP0
10
791.051120113828
20
-924.861784271032
30
3.07880873780531e-006
11
791.000009121188
21
-925.250012873959
31
3.13522488009643e-006
  0
LINE
 8
GROUP0
10
807.500010156364
20
-926.750001486898
30
-1.31876256372176e-005
11
807.888238688744
21
-926.698889958406
31
-1.35729739160595e-005
  0
LINE
 8
GROUP0
10
808.799046709259
20
-924.5000005904
30
-1.45080025766908e-005
11
808.560668560968
21
-924.189340583131
31
-1.42764899497549e-005
  0
LINE
 8
GROUP0
10
808.560668560968
20
-924.189340583131
30
-1.42764899497549e-005
11
808.250008224677
21
-923.950962863629
31
-1.39722965782851e-005
  0
LINE
 8
GROUP0
10
792.111779553619
20
-923.801123367264
30
2.01229554728788e-006
11
791.750008224689
21
-923.950974250689
31
2.37290547276392e-006
  0
LINE
 8
GROUP0
10
791.000009121188
20
-925.250012873959
30
3.13522488009643e-006
11
791.051120649681
21
-925.638241406339
31
3.09037782513788e-006
  0
LINE
 8
GROUP0
10
808.560670024944
20
-926.31066092669
30
-1.42448816448038e-005
11
808.799047744446
21
-926.0000005904
31
-1.4485652120183e-005
  0
LINE
 8
GROUP0
10
808.250010017675
20
-926.549039074981
30
-1.39335844168087e-005
11
808.560670024944
21
-926.31066092669
31
-1.42448816448038e-005
  0
LINE
 8
GROUP0
10
806.750010017676
20
-926.549040110169
30
-1.24476570022292e-005
11
807.111781553437
21
-926.698890494258
31
-1.28038013246623e-005
  0
LINE
 8
GROUP0
10
807.888238688744
20
-926.698889958406
30
-1.35729739160595e-005
11
808.250010017675
21
-926.549039074981
31
-1.39335844168087e-005
  0
LINE
 8
GROUP0
10
808.948891227286
20
-915.638229054641
30
-1.47884904075191e-005
11
809.000002219927
21
-915.250000451714
31
-1.48449065554501e-005
  0
LINE
 8
GROUP0
10
808.250001323429
20
-913.950962863631
30
-1.41212999299867e-005
11
807.888229787667
21
-913.801112479541
31
-1.37651553875961e-005
  0
LINE
 8
GROUP0
10
806.051113212569
20
-914.861773919161
30
-1.1929468472055e-005
11
806.000002219929
21
-915.250002522088
31
-1.18730523805233e-005
  0
LINE
 8
GROUP0
10
808.250003116426
20
-916.549039074984
30
-1.40825871368377e-005
11
808.560663123695
21
-916.310660926692
31
-1.4393885357461e-005
  0
LINE
 8
GROUP0
10
808.560663123695
20
-916.310660926692
30
-1.4393885357461e-005
11
808.799040843197
21
-916.000000590402
31
-1.46346551109289e-005
  0
LINE
 8
GROUP0
10
807.11177265236
20
-913.801113015394
30
-1.29959827849191e-005
11
806.75000132343
21
-913.950963898818
31
-1.26353725097672e-005
  0
LINE
 8
GROUP0
10
806.200970497907
20
-924.500002383397
30
-1.1934300473343e-005
11
806.051120113818
21
-924.861773919159
31
-1.17804651203535e-005
  0
LINE
 8
GROUP0
10
806.43934821741
20
-924.189342047107
30
-1.21750712194391e-005
11
806.200970497907
21
-924.500002383397
31
-1.1934300473343e-005
  0
LINE
 8
GROUP0
10
807.50000118474
20
-913.750001486901
30
-1.33813298962948e-005
11
807.11177265236
21
-913.801113015394
31
-1.29959827849191e-005
  0
LINE
 8
GROUP0
10
809.000002219927
20
-915.250000451714
30
-1.48449065554501e-005
11
808.948890691434
21
-914.861771919333
31
-1.48000598106879e-005
  0
LINE
 8
GROUP0
10
806.05112064967
20
-925.638231054467
30
-1.17688960386608e-005
11
806.200971533095
21
-926.000002383397
31
-1.19119500168352e-005
  0
LINE
 8
GROUP0
10
806.439349681386
20
-926.310662390666
30
-1.21434629144879e-005
11
806.750010017676
21
-926.549040110169
31
-1.24476570022292e-005
  0
LINE
 8
GROUP0
10
807.111781553437
20
-926.698890494258
30
-1.28038013246623e-005
11
807.500010156364
21
-926.750001486898
31
-1.31876256372176e-005
  0
LINE
 8
GROUP0
10
807.500003255115
20
-916.750001486901
30
-1.33366289832793e-005
11
807.888231787495
21
-916.698889958408
31
-1.37219776343567e-005
  0
LINE
 8
GROUP0
10
806.200964631846
20
-916.0000023834
30
-1.20609533685367e-005
11
806.439342780137
21
-916.310662390668
31
-1.22924662661894e-005
  0
LINE
 8
GROUP0
10
806.439342780137
20
-916.310662390668
30
-1.22924662661894e-005
11
806.750003116427
21
-916.549040110171
31
-1.25966597166183e-005
  0
LINE
 8
GROUP0
10
808.560661659719
20
-914.189340583133
30
-1.44254929405008e-005
11
808.250001323429
21
-913.950962863631
31
-1.41212999299867e-005
  0
LINE
 8
GROUP0
10
808.948890691434
20
-914.861771919333
30
-1.48000598106879e-005
11
808.79903980801
21
-914.500000590403
31
-1.46570059171125e-005
  0
LINE
 8
GROUP0
10
808.799040843197
20
-916.000000590402
30
-1.46346551109289e-005
11
808.948891227286
21
-915.638229054641
31
-1.47884904075191e-005
  0
LINE
 8
GROUP0
10
806.439341316161
20
-914.189342047109
30
-1.23240738943486e-005
11
806.200963596658
21
-914.5000023834
31
-1.20833038250445e-005
  0
LINE
 8
GROUP0
10
807.111774652188
20
-916.69889049426
30
-1.29528046763638e-005
11
807.500003255115
21
-916.750001486901
31
-1.33366289832793e-005
  0
LINE
 8
GROUP0
10
806.750003116427
20
-916.549040110171
30
-1.25966597166183e-005
11
807.111774652188
21
-916.69889049426
31
-1.29528046763638e-005
  0
LINE
 8
GROUP0
10
808.79903980801
20
-914.500000590403
30
-1.46570059171125e-005
11
808.560661659719
21
-914.189340583133
31
-1.44254929405008e-005
  0
LINE
 8
GROUP0
10
806.051113748421
20
-915.638231054469
30
-1.19178990294067e-005
11
806.200964631846
21
-916.0000023834
31
-1.20609533685367e-005
  0
LINE
 8
GROUP0
10
806.75000132343
20
-913.950963898818
30
-1.26353725097672e-005
11
806.439341316161
21
-914.189342047109
31
-1.23240738943486e-005
  0
LINE
 8
GROUP0
10
806.200963596658
20
-914.5000023834
30
-1.20833038250445e-005
11
806.051113212569
21
-914.861773919161
31
-1.1929468472055e-005
  0
LINE
 8
GROUP0
10
807.888229787667
20
-913.801112479541
30
-1.37651553875961e-005
11
807.50000118474
21
-913.750001486901
31
-1.33813298962948e-005
  0
LINE
 8
GROUP0
10
806.000002219929
20
-915.250002522088
30
-1.18730523805233e-005
11
806.051113748421
21
-915.638231054469
31
-1.19178990294067e-005
  0
LINE
 8
GROUP0
10
807.888231787495
20
-916.698889958408
30
-1.37219776343567e-005
11
808.250003116426
21
-916.549039074984
31
-1.40825871368377e-005
  0
LINE
 8
GROUP0
10
559.528042575324
20
-984.999999999995
30
1.07363173906805e-011
11
759.528042575328
21
-984.999999999995
31
1.07363173906805e-011
  0
LINE
 8
GROUP0
10
781.307105845102
20
-1019.58833419859
30
2.19782876947905e-007
11
781.692823221919
21
-1019.58833419859
31
2.19782421523318e-007
  0
LINE
 8
GROUP0
10
783.053471441392
20
-1018.38290506289
30
2.19780398197367e-007
11
783.099964533511
21
-1018.00000000003
31
2.19780211374587e-007
  0
LINE
 8
GROUP0
10
782.697581730584
20
-1019.06099625322
30
2.19781052429591e-007
11
782.916694174556
21
-1018.7435570753
31
2.19780684423965e-007
  0
LINE
 8
GROUP0
10
759.528042575328
20
-984.999999999995
30
1.07363173906805e-011
11
759.528042575328
21
-993.999999999906
31
4.28608820657317e-010
  0
LINE
 8
GROUP0
10
782.408868128281
20
-1006.6832258146
30
2.1978057374028e-007
11
782.067332352779
21
-1006.50397401174
31
2.19780914251233e-007
  0
LINE
 8
GROUP0
10
779.899964533511
20
-1046.00000000003
30
2.19783988719691e-007
11
779.946457625629
21
-1046.38290506289
31
2.19784066973761e-007
  0
LINE
 8
GROUP0
10
779.899964533511
20
-1008.00000000003
30
2.19783985194733e-007
11
779.899964533511
21
-1018.00000000003
31
2.19783988719691e-007
  0
LINE
 8
GROUP0
10
780.591060938741
20
-1034.6832258146
30
2.19782715504824e-007
11
780.302347336437
21
-1034.93900374685
31
2.19783144844721e-007
  0
LINE
 8
GROUP0
10
783.088298732067
20
-1007.80714131162
30
2.19780166255124e-007
11
783.053471441392
21
-1007.61709493717
31
2.19780137350467e-007
  0
LINE
 8
GROUP0
10
780.083234892466
20
-1035.25644292476
30
2.19783512145355e-007
11
779.946457625629
21
-1035.61709493717
31
2.19783797666961e-007
  0
LINE
 8
GROUP0
10
782.916694174556
20
-1007.25644292476
30
2.1978017330504e-007
11
782.697581730584
21
-1006.93900374685
31
2.19780322058272e-007
  0
LINE
 8
GROUP0
10
783.053471441392
20
-1007.61709493717
30
2.19780137350467e-007
11
782.916694174556
21
-1007.25644292476
31
2.1978017330504e-007
  0
LINE
 8
GROUP0
10
783.099964533511
20
-1046.00000000003
30
2.19780211374587e-007
11
783.099964533511
21
-1036.00000000003
31
2.19780214899545e-007
  0
LINE
 8
GROUP0
10
783.099964533511
20
-1008.00000000003
30
2.19780214899545e-007
11
783.088298732067
21
-1007.80714131162
31
2.19780166255124e-007
  0
LINE
 8
GROUP0
10
780.591060938741
20
-1047.31677418546
30
2.19783628468972e-007
11
780.932596714242
21
-1047.49602598833
31
2.19783287253028e-007
  0
LINE
 8
GROUP0
10
780.302347336437
20
-1006.93900374685
30
2.19783144844721e-007
11
780.083234892466
21
-1007.25644292476
31
2.19783512145355e-007
  0
LINE
 8
GROUP0
10
780.083234892466
20
-1007.25644292476
30
2.19783512145355e-007
11
779.946457625629
21
-1007.61709493717
31
2.19783797666961e-007
  0
LINE
 8
GROUP0
10
782.916694174556
20
-1018.7435570753
30
2.19780684423965e-007
11
783.053471441392
21
-1018.38290506289
31
2.19780398197367e-007
  0
LINE
 8
GROUP0
10
559.528042575324
20
-993.999999999906
30
-2.03178796565062e-009
11
559.528042575324
21
-984.999999999995
31
1.07363173906805e-011
  0
LINE
 8
GROUP0
10
781.307105845102
20
-1006.41166580148
30
2.19781777865968e-007
11
780.932596714243
21
-1006.50397401174
31
2.19782250915346e-007
  0
LINE
 8
GROUP0
10
781.692823221919
20
-1006.41166580148
30
2.19781323851365e-007
11
781.307105845102
21
-1006.41166580148
31
2.19781777865968e-007
  0
LINE
 8
GROUP0
10
781.692823221919
20
-1034.41166580148
30
2.19781323851365e-007
11
781.307105845102
21
-1034.41166580148
31
2.19781777865968e-007
  0
LINE
 8
GROUP0
10
779.946457625629
20
-1007.61709493717
30
2.19783797666961e-007
11
779.899964533511
21
-1008.00000000003
31
2.19783985194733e-007
  0
LINE
 8
GROUP0
10
780.083234892466
20
-1018.7435570753
30
2.19784030314196e-007
11
780.302347336437
21
-1019.06099625322
31
2.19783880855973e-007
  0
LINE
 8
GROUP0
10
782.697581730584
20
-1006.93900374685
30
2.19780322058272e-007
11
782.408868128281
21
-1006.6832258146
31
2.1978057374028e-007
  0
LINE
 8
GROUP0
10
780.932596714242
20
-1019.49602598833
30
2.19783287253028e-007
11
781.307105845102
21
-1019.58833419859
31
2.19782876947905e-007
  0
LINE
 8
GROUP0
10
780.083234892466
20
-1046.7435570753
30
2.19784030314196e-007
11
780.302347336437
21
-1047.06099625322
31
2.19783880855973e-007
  0
LINE
 8
GROUP0
10
780.302347336437
20
-1019.06099625322
30
2.19783880855973e-007
11
780.591060938741
21
-1019.31677418546
31
2.19783628468972e-007
  0
LINE
 8
GROUP0
10
779.899964533511
20
-1018.00000000003
30
2.19783988719691e-007
11
779.946457625629
21
-1018.38290506289
31
2.19784066973761e-007
  0
LINE
 8
GROUP0
10
780.932596714243
20
-1006.50397401174
30
2.19782250915346e-007
11
780.591060938741
21
-1006.6832258146
31
2.19782715504824e-007
  0
LINE
 8
GROUP0
10
782.408868128281
20
-1034.6832258146
30
2.1978057374028e-007
11
782.067332352779
21
-1034.50397401174
31
2.19780914251233e-007
  0
LINE
 8
GROUP0
10
779.946457625629
20
-1018.38290506289
30
2.19784066973761e-007
11
780.083234892466
21
-1018.7435570753
31
2.19784030314196e-007
  0
LINE
 8
GROUP0
10
750.471790417753
20
-655.000031625621
30
0.000183852305394633
11
550.47179041775
21
-655.000031625621
31
0.000183852305394633
  0
LINE
 8
GROUP0
10
759.528042575328
20
-993.999999999906
30
4.28608820657317e-010
11
559.528042575324
21
-993.999999999906
31
-2.03178796565062e-009
  0
LINE
 8
GROUP0
10
505.500035560803
20
-734.528205647109
30
0.000183852305394633
11
514.500035560753
21
-734.528205647109
31
0.000183852305394633
  0
LINE
 8
GROUP0
10
750.471790417753
20
-646.000031625698
30
0.000183854347918916
11
750.471790417753
21
-655.000031625621
31
0.000183852305394633
  0
LINE
 8
GROUP0
10
782.067332352779
20
-1006.50397401174
30
2.19780914251233e-007
11
781.692823221919
21
-1006.41166580148
31
2.19781323851365e-007
  0
LINE
 8
GROUP0
10
799.189342047108
20
-644.060647847452
30
3.58595389994831e-006
11
799.500002383398
21
-644.299025566954
31
3.82672464745437e-006
  0
LINE
 8
GROUP0
10
801.310660926691
20
-641.939326039918
30
1.5161434759936e-006
11
801.0000005904
21
-641.700948320415
31
1.27537300202429e-006
  0
LINE
 8
GROUP0
10
801.549039074982
20
-642.249986047187
30
1.82744069834873e-006
11
801.310660926691
21
-641.939326039918
31
1.5161434759936e-006
  0
LINE
 8
GROUP0
10
801.0000005904
20
-641.700948320415
30
1.27537300202429e-006
11
800.638229054639
21
-641.551097936326
31
1.12153770402412e-006
  0
LINE
 8
GROUP0
10
798.750001486899
20
-642.999987978872
30
2.52869857620408e-006
11
798.801113015392
21
-643.388216511253
31
2.91404603866563e-006
  0
LINE
 8
GROUP0
10
780.591060938741
20
-1019.31677418546
30
2.19783628468972e-007
11
780.932596714242
21
-1019.49602598833
31
2.19783287253028e-007
  0
LINE
 8
GROUP0
10
801.698890494258
20
-643.388214511424
30
2.95722379331509e-006
11
801.750001486899
21
-642.999985908497
31
2.57339948216972e-006
  0
LINE
 8
GROUP0
10
799.5000005904
20
-641.700949355603
30
1.2530225469265e-006
11
799.189340583131
21
-641.939327503894
31
1.48453517386238e-006
  0
LINE
 8
GROUP0
10
798.950963898817
20
-643.749987840183
30
3.27465596273169e-006
11
799.189342047108
21
-644.060647847452
31
3.58595389994831e-006
  0
LINE
 8
GROUP0
10
799.500002383398
20
-644.299025566954
30
3.82672464745437e-006
11
799.86177391916
21
-644.448875951044
31
3.98055999480396e-006
  0
LINE
 8
GROUP0
10
799.86177391916
20
-644.448875951044
30
3.98055999480396e-006
11
800.250002522087
21
-644.499986943684
31
4.03697572960993e-006
  0
LINE
 8
GROUP0
10
798.80111247954
20
-642.611759375946
30
2.14487308631273e-006
11
798.750001486899
21
-642.999987978872
31
2.52869857620408e-006
  0
LINE
 8
GROUP0
10
780.591060938741
20
-1006.6832258146
30
2.19782715504824e-007
11
780.302347336437
21
-1006.93900374685
31
2.19783144844721e-007
  0
LINE
 8
GROUP0
10
550.47179041775
20
-655.000031625621
30
0.000183852305394633
11
550.47179041775
21
-646.000031625698
31
0.000183852723267136
  0
LINE
 8
GROUP0
10
514.500035560753
20
-934.52820564711
30
0.000183852305394633
11
505.500035560803
21
-934.52820564711
31
0.000183852723267136
  0
LINE
 8
GROUP0
10
798.950962863629
20
-642.249987840184
30
1.7887285439222e-006
11
798.80111247954
21
-642.611759375946
31
2.14487308631273e-006
  0
LINE
 8
GROUP0
10
514.500035560753
20
-734.528205647109
30
0.000183852305394633
11
514.500035560753
21
-934.52820564711
31
0.000183852305394633
  0
LINE
 8
GROUP0
10
550.47179041775
20
-646.000031625698
30
0.000183852723267136
11
750.471790417753
21
-646.000031625698
31
0.000183854347918916
  0
LINE
 8
GROUP0
10
800.638231054467
20
-644.448875415191
30
3.9921290849565e-006
11
801.000002383398
21
-644.299024531766
31
3.8490750997322e-006
  0
LINE
 8
GROUP0
10
783.099964533511
20
-1018.00000000003
30
2.19780211374587e-007
11
783.099964533511
21
-1008.00000000003
31
2.19780214899545e-007
  0
LINE
 8
GROUP0
10
799.861771919331
20
-641.551098472179
30
1.10996866181101e-006
11
799.5000005904
21
-641.700949355603
31
1.2530225469265e-006
  0
LINE
 8
GROUP0
10
800.250000451712
20
-641.499986943686
30
1.06512119372737e-006
11
799.861771919331
21
-641.551098472179
31
1.10996866181101e-006
  0
LINE
 8
GROUP0
10
505.500035560803
20
-934.52820564711
30
0.000183852723267136
11
505.500035560803
21
-734.528205647109
31
0.000183852305394633
  0
LINE
 8
GROUP0
10
801.000002383398
20
-644.299024531766
30
3.8490750997322e-006
11
801.310662390667
21
-644.060646383476
31
3.61756220066956e-006
  0
LINE
 8
GROUP0
10
801.549040110169
20
-643.749986047186
30
3.31336811715821e-006
11
801.698890494258
21
-643.388214511424
31
2.95722379331509e-006
  0
LINE
 8
GROUP0
10
800.250002522087
20
-644.499986943684
30
4.03697572960993e-006
11
800.638231054467
21
-644.448875415191
31
3.9921290849565e-006
  0
LINE
 8
GROUP0
10
799.500012735274
20
-659.299025566944
30
1.86859986071319e-005
11
799.861784271035
21
-659.448875951033
31
1.88398338571927e-005
  0
LINE
 8
GROUP0
10
800.250010803587
20
-656.499986943675
30
1.59243951534049e-005
11
799.861782271207
21
-656.551098472168
31
1.59692425241997e-005
  0
LINE
 8
GROUP0
10
800.638239406514
20
-656.551097936315
30
1.59808119273686e-005
11
800.250010803587
21
-656.499986943675
31
1.59243951534049e-005
  0
LINE
 8
GROUP0
10
800.638241406343
20
-659.448875415181
30
1.88514029473452e-005
11
801.000012735273
21
-659.299024531756
31
1.87083490579998e-005
  0
LINE
 8
GROUP0
10
801.549049426857
20
-657.249986047176
30
1.66867156436046e-005
11
801.310671278566
21
-656.939326039907
31
1.6375417699338e-005
  0
LINE
 8
GROUP0
10
799.189352398983
20
-659.060647847441
30
1.84452280781733e-005
11
799.500012735274
21
-659.299025566944
31
1.86859986071319e-005
  0
LINE
 8
GROUP0
10
801.000010942276
20
-656.700948320405
30
1.61346476314439e-005
11
800.638239406514
21
-656.551097936315
31
1.59808119273686e-005
  0
LINE
 8
GROUP0
10
798.801123367268
20
-658.388216511242
30
1.77733206723152e-005
11
798.950974250692
21
-658.749987840172
31
1.81339305907413e-005
  0
LINE
 8
GROUP0
10
799.189350935007
20
-656.939327503883
30
1.63438097581625e-005
11
798.950973215505
21
-657.249987840173
31
1.66480031719318e-005
  0
LINE
 8
GROUP0
10
800.638229054639
20
-641.551097936326
30
1.12153770402412e-006
11
800.250000451712
21
-641.499986943686
31
1.06512119372737e-006
  0
LINE
 8
GROUP0
10
798.801113015392
20
-643.388216511253
30
2.91404603866563e-006
11
798.950963898817
21
-643.749987840183
31
3.27465596273169e-006
  0
LINE
 8
GROUP0
10
801.310672742542
20
-659.060646383465
30
1.84768363788945e-005
11
801.549050462045
21
-658.749986047175
31
1.81726426605688e-005
  0
LINE
 8
GROUP0
10
801.750011838774
20
-657.999985908487
30
1.74326733445584e-005
11
801.698900310282
21
-657.611757376106
31
1.70473258299275e-005
  0
LINE
 8
GROUP0
10
800.250012873962
20
-659.499986943673
30
1.88962499980738e-005
11
800.638241406343
21
-659.448875415181
31
1.88514029473452e-005
  0
LINE
 8
GROUP0
10
799.500010942276
20
-656.700949355592
30
1.61122971312266e-005
11
799.189350935007
21
-656.939327503883
31
1.63438097581625e-005
  0
LINE
 8
GROUP0
10
801.750001486899
20
-642.999985908497
30
2.57339948216972e-006
11
801.698889958406
21
-642.611757376117
31
2.1880512019179e-006
  0
LINE
 8
GROUP0
10
798.750011838775
20
-657.999987978862
30
1.73879724385928e-005
11
798.801123367268
21
-658.388216511242
31
1.77733206723152e-005
  0
LINE
 8
GROUP0
10
801.310662390667
20
-644.060646383476
30
3.61756220066956e-006
11
801.549040110169
21
-643.749986047186
31
3.31336811715821e-006
  0
LINE
 8
GROUP0
10
798.950973215505
20
-657.249987840173
30
1.66480031719318e-005
11
798.801122831415
21
-657.611759375935
31
1.70041477143223e-005
  0
LINE
 8
GROUP0
10
799.861782271207
20
-656.551098472168
30
1.59692425241997e-005
11
799.500010942276
21
-656.700949355592
31
1.61122971312266e-005
  0
LINE
 8
GROUP0
10
801.698900846134
20
-658.388214511413
30
1.78164984227347e-005
11
801.750011838774
21
-657.999985908487
31
1.74326733445584e-005
  0
LINE
 8
GROUP0
10
801.549050462045
20
-658.749986047175
30
1.81726426605688e-005
11
801.698900846134
21
-658.388214511413
31
1.78164984227347e-005
  0
LINE
 8
GROUP0
10
799.861784271035
20
-659.448875951033
30
1.88398338571927e-005
11
800.250012873962
21
-659.499986943673
31
1.88962499980738e-005
  0
LINE
 8
GROUP0
10
799.189340583131
20
-641.939327503894
30
1.48453517386238e-006
11
798.950962863629
21
-642.249987840184
31
1.7887285439222e-006
  0
LINE
 8
GROUP0
10
801.000012735273
20
-659.299024531756
30
1.87083490579998e-005
11
801.310672742542
21
-659.060646383465
31
1.84768363788945e-005
  0
LINE
 8
GROUP0
10
801.698900310282
20
-657.611757376106
30
1.70473258299275e-005
11
801.549049426857
21
-657.249986047176
31
1.66867156436046e-005
  0
LINE
 8
GROUP0
10
801.698889958406
20
-642.611757376117
30
2.1880512019179e-006
11
801.549039074982
21
-642.249986047187
31
1.82744069834873e-006
  0
LINE
 8
GROUP0
10
801.310671278566
20
-656.939326039907
30
1.6375417699338e-005
11
801.000010942276
21
-656.700948320405
31
1.61346476314439e-005
  0
LINE
 8
GROUP0
10
798.950974250692
20
-658.749987840172
30
1.81339305907413e-005
11
799.189352398983
21
-659.060647847441
31
1.84452280781733e-005
  0
LINE
 8
GROUP0
10
798.801122831415
20
-657.611759375935
30
1.70041477143223e-005
11
798.750011838775
21
-657.999987978862
31
1.73879724385928e-005
  0
LINE
 8
GROUP0
10
765.499999464089
20
-984.267914010829
30
2.19788763627937e-007
11
765.085785901716
21
-984.585751256025
31
2.19788763627937e-007
  0
LINE
 8
GROUP0
10
768.499999464089
20
-985.999964818398
30
2.19788763627937e-007
11
768.431851116667
21
-985.482326728193
31
2.19788763627937e-007
  0
LINE
 8
GROUP0
10
765.085785901716
20
-984.585751256025
30
2.19788763627937e-007
11
764.76794865652
21
-984.999964818398
31
2.19788763627937e-007
  0
LINE
 8
GROUP0
10
778.499964533528
20
-674.732082339003
30
2.19788763627937e-007
11
778.914178095902
21
-674.414245093808
31
2.19788763627937e-007
  0
LINE
 8
GROUP0
10
533.017674193247
20
-968.931852318913
30
2.19788760807971e-007
11
533.500036103042
21
-968.732051473904
31
2.19788760807971e-007
  0
LINE
 8
GROUP0
10
533.914249665415
20
-965.585787103962
30
2.19788760807971e-007
11
533.500036103042
21
-965.267949858766
31
2.19788760807971e-007
  0
LINE
 8
GROUP0
10
530.767985295473
20
-968.000000666335
30
2.19788760807971e-007
11
531.085822540669
21
-968.414214228708
31
2.19788760807971e-007
  0
LINE
 8
GROUP0
10
534.232086910611
20
-966.000000666335
30
2.19788760807971e-007
11
533.914249665415
21
-965.585787103962
31
2.19788760807971e-007
  0
LINE
 8
GROUP0
10
531.085822540669
20
-968.414214228708
30
2.19788760807971e-007
11
531.500036103042
21
-968.732051473904
31
2.19788760807971e-007
  0
LINE
 8
GROUP0
10
534.43188775562
20
-966.48236257613
30
2.19788760807971e-007
11
534.232086910611
21
-966.000000666335
31
2.19788760807971e-007
  0
LINE
 8
GROUP0
10
531.500036103042
20
-965.267949858766
30
2.19788760807971e-007
11
531.085822540669
21
-965.585787103962
31
2.19788760807971e-007
  0
LINE
 8
GROUP0
10
531.085822540669
20
-965.585787103962
30
2.19788760807971e-007
11
530.767985295473
21
-966.000000666335
31
2.19788760807971e-007
  0
LINE
 8
GROUP0
10
530.500036103042
20
-967.000000666335
30
2.19788760807971e-007
11
530.568184450464
21
-967.51763875654
31
2.19788760807971e-007
  0
LINE
 8
GROUP0
10
532.500036103042
20
-965.000000666335
30
2.19788760807971e-007
11
531.982398012837
21
-965.068149013757
31
2.19788760807971e-007
  0
LINE
 8
GROUP0
10
765.982361373884
20
-984.06811316582
30
2.19788763627937e-007
11
765.499999464089
21
-984.267914010829
31
2.19788763627937e-007
  0
LINE
 8
GROUP0
10
531.500036103042
20
-968.732051473904
30
2.19788760807971e-007
11
531.982398012837
21
-968.931852318913
31
2.19788760807971e-007
  0
LINE
 8
GROUP0
10
534.43188775562
20
-967.51763875654
30
2.19788760807971e-007
11
534.500036103042
21
-967.000000666335
31
2.19788760807971e-007
  0
LINE
 8
GROUP0
10
778.914178095902
20
-674.414245093808
30
2.19788763627937e-007
11
779.232015341097
21
-674.000031531435
31
2.19788763627937e-007
  0
LINE
 8
GROUP0
10
764.568147811511
20
-986.517602908603
30
2.19788763627937e-007
11
764.76794865652
21
-986.999964818398
31
2.19788763627937e-007
  0
LINE
 8
GROUP0
10
777.499964533528
20
-675.000031531435
30
2.19788763627937e-007
11
778.017602623733
21
-674.931883184013
31
2.19788763627937e-007
  0
LINE
 8
GROUP0
10
767.499999464089
20
-984.267914010829
30
2.19788763627937e-007
11
767.017637554294
21
-984.06811316582
31
2.19788763627937e-007
  0
LINE
 8
GROUP0
10
779.431816186107
20
-673.517669621639
30
2.19788763627937e-007
11
779.499964533528
21
-673.000031531435
31
2.19788763627937e-007
  0
LINE
 8
GROUP0
10
767.017637554294
20
-984.06811316582
30
2.19788763627937e-007
11
766.499999464089
21
-983.999964818398
31
2.19788763627937e-007
  0
LINE
 8
GROUP0
10
765.499999464089
20
-987.732015625967
30
2.19788763627937e-007
11
765.982361373884
21
-987.931816470976
31
2.19788763627937e-007
  0
LINE
 8
GROUP0
10
533.017674193247
20
-965.068149013757
30
2.19788760807971e-007
11
532.500036103042
21
-965.000000666335
31
2.19788760807971e-007
  0
LINE
 8
GROUP0
10
530.767985295473
20
-966.000000666335
30
2.19788760807971e-007
11
530.568184450464
21
-966.48236257613
31
2.19788760807971e-007
  0
LINE
 8
GROUP0
10
533.500036103042
20
-965.267949858766
30
2.19788760807971e-007
11
533.017674193247
21
-965.068149013757
31
2.19788760807971e-007
  0
LINE
 8
GROUP0
10
768.232050271658
20
-986.999964818398
30
2.19788763627937e-007
11
768.431851116667
21
-986.517602908603
31
2.19788763627937e-007
  0
LINE
 8
GROUP0
10
779.499964533528
20
-673.000031531435
30
2.19788763627937e-007
11
779.431816186107
21
-672.48239344123
31
2.19788763627937e-007
  0
LINE
 8
GROUP0
10
534.500036103042
20
-967.000000666335
30
2.19788760807971e-007
11
534.43188775562
21
-966.48236257613
31
2.19788760807971e-007
  0
LINE
 8
GROUP0
10
767.499999464089
20
-987.732015625967
30
2.19788763627937e-007
11
767.914213026462
21
-987.414178380771
31
2.19788763627937e-007
  0
LINE
 8
GROUP0
10
530.568184450464
20
-967.51763875654
30
2.19788760807971e-007
11
530.767985295473
21
-968.000000666335
31
2.19788760807971e-007
  0
LINE
 8
GROUP0
10
766.499999464089
20
-983.999964818398
30
2.19788763627937e-007
11
765.982361373884
21
-984.06811316582
31
2.19788763627937e-007
  0
LINE
 8
GROUP0
10
530.568184450464
20
-966.48236257613
30
2.19788760807971e-007
11
530.500036103042
21
-967.000000666335
31
2.19788760807971e-007
  0
LINE
 8
GROUP0
10
765.982361373884
20
-987.931816470976
30
2.19788763627937e-007
11
766.499999464089
21
-987.999964818398
31
2.19788763627937e-007
  0
LINE
 8
GROUP0
10
531.982398012837
20
-965.068149013757
30
2.19788760807971e-007
11
531.500036103042
21
-965.267949858766
31
2.19788760807971e-007
  0
LINE
 8
GROUP0
10
532.500036103042
20
-969.000000666335
30
2.19788760807971e-007
11
533.017674193247
21
-968.931852318913
31
2.19788760807971e-007
  0
LINE
 8
GROUP0
10
533.500036103042
20
-968.732051473904
30
2.19788760807971e-007
11
533.914249665415
21
-968.414214228708
31
2.19788760807971e-007
  0
LINE
 8
GROUP0
10
531.982398012837
20
-968.931852318913
30
2.19788760807971e-007
11
532.500036103042
21
-969.000000666335
31
2.19788760807971e-007
  0
LINE
 8
GROUP0
10
764.76794865652
20
-986.999964818398
30
2.19788763627937e-007
11
765.085785901716
21
-987.414178380771
31
2.19788763627937e-007
  0
LINE
 8
GROUP0
10
779.232015341097
20
-674.000031531435
30
2.19788763627937e-007
11
779.431816186107
21
-673.517669621639
31
2.19788763627937e-007
  0
LINE
 8
GROUP0
10
764.499999464089
20
-985.999964818398
30
2.19788763627937e-007
11
764.568147811511
21
-986.517602908603
31
2.19788763627937e-007
  0
LINE
 8
GROUP0
10
767.914213026462
20
-987.414178380771
30
2.19788763627937e-007
11
768.232050271658
21
-986.999964818398
31
2.19788763627937e-007
  0
LINE
 8
GROUP0
10
533.914249665415
20
-968.414214228708
30
2.19788760807971e-007
11
534.232086910611
21
-968.000000666335
31
2.19788760807971e-007
  0
LINE
 8
GROUP0
10
767.914213026462
20
-984.585751256025
30
2.19788763627937e-007
11
767.499999464089
21
-984.267914010829
31
2.19788763627937e-007
  0
LINE
 8
GROUP0
10
534.232086910611
20
-968.000000666335
30
2.19788760807971e-007
11
534.43188775562
21
-967.51763875654
31
2.19788760807971e-007
 0
ENDSEC
 0
EOF
