<?xml version="1.0" encoding="UTF-8"?>
<!-- Created by Vectric (http://www.vectric.com/) -->
<svg width="350.00000000mm" height="400.00000000mm" viewBox="0.00000000 0.00000000 350.00000000 400.00000000" id="svg2" version="1.1" xmlns="http://www.w3.org/2000/svg" xmlns:xlink="http://www.w3.org/1999/xlink" xmlns:inkscape="http://www.inkscape.org/namespaces/inkscape">
    <g inkscape:groupmode="layer" id="9ab32f5a-1939-44b5-b221-775f3c34be46" inkscape:label="GROUP0" style="stroke:#000000;">
        <path style="fill:none;stroke-width:0.280000;stroke-linecap:round;stroke-linejoin:round;stroke-opacity:1;stroke:#000000;" d="M 270.868629,72.631367 L 271.200000,72.885637 L 271.585890,73.045477 L 272.000000,73.099996 L 272.414110,73.045477 L 272.800000,72.885637 L 273.131371,72.631367 L 273.385641,72.299996 L 273.545481,71.914107 L 273.600000,71.499996 L 273.600000,66.499996 L 273.545481,66.085886 L 273.385641,65.699996 L 273.131371,65.368625 L 272.800000,65.114355 L 272.414110,64.954515 L 272.000000,64.899996 L 271.585890,64.954515 L 271.200000,65.114355 L 270.868629,65.368625 L 270.614359,65.699996 L 270.454519,66.085886 L 270.400000,66.499996 L 270.400000,71.499996 L 270.454519,71.914107 L 270.614359,72.299996 L 270.868629,72.631367 "/>
        <path style="fill:none;stroke-width:0.280000;stroke-linecap:round;stroke-linejoin:round;stroke-opacity:1;stroke:#000000;" d="M 296.499964,274.971626 L 305.499964,274.971626 L 305.499964,74.971626 L 296.499964,74.971626 L 296.499964,274.971626 "/>
        <path style="fill:none;stroke-width:0.280000;stroke-linecap:round;stroke-linejoin:round;stroke-opacity:1;stroke:#000000;" d="M 286.650000,341.974239 L 287.060008,342.144070 L 287.500000,342.201996 L 287.939992,342.144070 L 288.350000,341.974239 L 288.702082,341.704078 L 288.972243,341.351996 L 289.142074,340.941988 L 289.200000,340.501996 L 289.142074,340.062004 L 288.972243,339.651996 L 288.702082,339.299915 L 288.350000,339.029753 L 287.939992,338.859922 L 287.500000,338.801996 L 287.060008,338.859922 L 286.650000,339.029753 L 286.297918,339.299915 L 286.027757,339.651996 L 285.857926,340.062004 L 285.800000,340.501996 L 285.857926,340.941988 L 286.027757,341.351996 L 286.297918,341.704078 L 286.650000,341.974239 "/>
        <path style="fill:none;stroke-width:0.280000;stroke-linecap:round;stroke-linejoin:round;stroke-opacity:1;stroke:#000000;" d="M 261.500000,332.001996 L 270.500000,332.001996 L 270.500000,82.001996 L 261.500000,82.001996 L 261.500000,332.001996 "/>
        <path style="fill:none;stroke-width:0.280000;stroke-linecap:round;stroke-linejoin:round;stroke-opacity:1;stroke:#000000;" d="M 28.614359,72.299996 L 28.868629,72.631367 L 29.200000,72.885637 L 29.585890,73.045477 L 30.000000,73.099996 L 30.414110,73.045477 L 30.800000,72.885637 L 31.131371,72.631367 L 31.385641,72.299996 L 31.545481,71.914107 L 31.600000,71.499996 L 31.600000,66.499996 L 31.545481,66.085886 L 31.385641,65.699996 L 31.131371,65.368625 L 30.800000,65.114355 L 30.414110,64.954515 L 30.000000,64.899996 L 29.585890,64.954515 L 29.200000,65.114355 L 28.868629,65.368625 L 28.614359,65.699996 L 28.454519,66.085886 L 28.400000,66.499996 L 28.400000,71.499996 L 28.454519,71.914107 L 28.614359,72.299996 "/>
        <path style="fill:none;stroke-width:0.280000;stroke-linecap:round;stroke-linejoin:round;stroke-opacity:1;stroke:#000000;" d="M 255.650000,341.974239 L 256.060008,342.144070 L 256.500000,342.201996 L 256.939992,342.144070 L 257.350000,341.974239 L 257.702082,341.704078 L 257.972243,341.351996 L 258.142074,340.941988 L 258.200000,340.501996 L 258.142074,340.062004 L 257.972243,339.651996 L 257.702082,339.299915 L 257.350000,339.029753 L 256.939992,338.859922 L 256.500000,338.801996 L 256.060008,338.859922 L 255.650000,339.029753 L 255.297918,339.299915 L 255.027757,339.651996 L 254.857926,340.062004 L 254.800000,340.501996 L 254.857926,340.941988 L 255.027757,341.351996 L 255.297918,341.704078 L 255.650000,341.974239 "/>
        <path style="fill:none;stroke-width:0.280000;stroke-linecap:round;stroke-linejoin:round;stroke-opacity:1;stroke:#000000;" d="M 286.650000,372.974239 L 287.060008,373.144070 L 287.500000,373.201996 L 287.939992,373.144070 L 288.350000,372.974239 L 288.702082,372.704078 L 288.972243,372.351996 L 289.142074,371.941988 L 289.200000,371.501996 L 289.142074,371.062004 L 288.972243,370.651996 L 288.702082,370.299915 L 288.350000,370.029753 L 287.939992,369.859922 L 287.500000,369.801996 L 287.060008,369.859922 L 286.650000,370.029753 L 286.297918,370.299915 L 286.027757,370.651996 L 285.857926,371.062004 L 285.800000,371.501996 L 285.857926,371.941988 L 286.027757,372.351996 L 286.297918,372.704078 L 286.650000,372.974239 "/>
        <path style="fill:none;stroke-width:0.280000;stroke-linecap:round;stroke-linejoin:round;stroke-opacity:1;stroke:#000000;" d="M 265.500000,367.260326 L 268.635352,368.559032 L 272.000000,369.001996 L 275.364648,368.559032 L 278.500000,367.260326 L 281.192388,365.194384 L 283.258330,362.501996 L 284.557036,359.366644 L 285.000000,356.001996 L 284.557036,352.637348 L 283.258330,349.501996 L 281.192388,346.809608 L 278.500000,344.743666 L 275.364648,343.444960 L 272.000000,343.001996 L 268.635352,343.444960 L 265.500000,344.743666 L 262.807612,346.809608 L 260.741670,349.501996 L 259.442964,352.637348 L 259.000000,356.001996 L 259.442964,359.366644 L 260.741670,362.501996 L 262.807612,365.194384 L 265.500000,367.260326 "/>
        <path style="fill:none;stroke-width:0.280000;stroke-linecap:round;stroke-linejoin:round;stroke-opacity:1;stroke:#000000;" d="M 255.650000,372.974239 L 256.060008,373.144070 L 256.500000,373.201996 L 256.939992,373.144070 L 257.350000,372.974239 L 257.702082,372.704078 L 257.972243,372.351996 L 258.142074,371.941988 L 258.200000,371.501996 L 258.142074,371.062004 L 257.972243,370.651996 L 257.702082,370.299915 L 257.350000,370.029753 L 256.939992,369.859922 L 256.500000,369.801996 L 256.060008,369.859922 L 255.650000,370.029753 L 255.297918,370.299915 L 255.027757,370.651996 L 254.857926,371.062004 L 254.800000,371.501996 L 254.857926,371.941988 L 255.027757,372.351996 L 255.297918,372.704078 L 255.650000,372.974239 "/>
        <path style="fill:none;stroke-width:0.280000;stroke-linecap:round;stroke-linejoin:round;stroke-opacity:1;stroke:#000000;" d="M 46.000000,333.499996 L 62.000000,349.499996 L 240.000000,349.499996 L 256.000000,333.499996 L 256.000000,89.499996 L 46.000000,89.499996 L 46.000000,333.499996 "/>
        <path style="fill:none;stroke-width:0.280000;stroke-linecap:round;stroke-linejoin:round;stroke-opacity:1;stroke:#000000;" d="M 44.297898,341.704078 L 44.649980,341.974239 L 45.059988,342.144070 L 45.499980,342.201996 L 45.939972,342.144070 L 46.349980,341.974239 L 46.702062,341.704078 L 46.972223,341.351996 L 47.142054,340.941988 L 47.199980,340.501996 L 47.142054,340.062004 L 46.972223,339.651996 L 46.702062,339.299915 L 46.349980,339.029753 L 45.939972,338.859922 L 45.499980,338.801996 L 45.059988,338.859922 L 44.649980,339.029753 L 44.297898,339.299915 L 44.027737,339.651996 L 43.857906,340.062004 L 43.799980,340.501996 L 43.857906,340.941988 L 44.027737,341.351996 L 44.297898,341.704078 "/>
        <path style="fill:none;stroke-width:0.280000;stroke-linecap:round;stroke-linejoin:round;stroke-opacity:1;stroke:#000000;" d="M 31.500000,332.001996 L 31.500000,82.001996 L 40.500000,82.001996 L 40.500000,332.001996 L 31.500000,332.001996 "/>
        <path style="fill:none;stroke-width:0.280000;stroke-linecap:round;stroke-linejoin:round;stroke-opacity:1;stroke:#000000;" d="M 44.297920,372.704078 L 44.650001,372.974239 L 45.060009,373.144070 L 45.500001,373.201996 L 45.939994,373.144070 L 46.350001,372.974239 L 46.702083,372.704078 L 46.972245,372.351996 L 47.142075,371.941988 L 47.200001,371.501996 L 47.142075,371.062004 L 46.972245,370.651996 L 46.702083,370.299915 L 46.350001,370.029753 L 45.939994,369.859922 L 45.500001,369.801996 L 45.060009,369.859922 L 44.650001,370.029753 L 44.297920,370.299915 L 44.027758,370.651996 L 43.857928,371.062004 L 43.800001,371.501996 L 43.857928,371.941988 L 44.027758,372.351996 L 44.297920,372.704078 "/>
        <path style="fill:none;stroke-width:0.280000;stroke-linecap:round;stroke-linejoin:round;stroke-opacity:1;stroke:#000000;" d="M 6.500036,334.028370 L 15.500036,334.028370 L 15.500036,134.028370 L 6.500036,134.028370 L 6.500036,334.028370 "/>
        <path style="fill:none;stroke-width:0.280000;stroke-linecap:round;stroke-linejoin:round;stroke-opacity:1;stroke:#000000;" d="M 13.297918,341.704078 L 13.650000,341.974239 L 14.060008,342.144070 L 14.500000,342.201996 L 14.939992,342.144070 L 15.350000,341.974239 L 15.702082,341.704078 L 15.972243,341.351996 L 16.142074,340.941988 L 16.200000,340.501996 L 16.142074,340.062004 L 15.972243,339.651996 L 15.702082,339.299915 L 15.350000,339.029753 L 14.939992,338.859922 L 14.500000,338.801996 L 14.060008,338.859922 L 13.650000,339.029753 L 13.297918,339.299915 L 13.027757,339.651996 L 12.857926,340.062004 L 12.800000,340.501996 L 12.857926,340.941988 L 13.027757,341.351996 L 13.297918,341.704078 "/>
        <path style="fill:none;stroke-width:0.280000;stroke-linecap:round;stroke-linejoin:round;stroke-opacity:1;stroke:#000000;" d="M 20.807612,365.194384 L 23.500000,367.260326 L 26.635352,368.559032 L 30.000000,369.001996 L 33.364648,368.559032 L 36.500000,367.260326 L 39.192388,365.194384 L 41.258330,362.501996 L 42.557036,359.366644 L 43.000000,356.001996 L 42.557036,352.637348 L 41.258330,349.501996 L 39.192388,346.809608 L 36.500000,344.743666 L 33.364648,343.444960 L 30.000000,343.001996 L 26.635352,343.444960 L 23.500000,344.743666 L 20.807612,346.809608 L 18.741670,349.501996 L 17.442964,352.637348 L 17.000000,356.001996 L 17.442964,359.366644 L 18.741670,362.501996 L 20.807612,365.194384 "/>
        <path style="fill:none;stroke-width:0.280000;stroke-linecap:round;stroke-linejoin:round;stroke-opacity:1;stroke:#000000;" d="M 13.297918,372.704078 L 13.650000,372.974239 L 14.060008,373.144070 L 14.500000,373.201996 L 14.939992,373.144070 L 15.350000,372.974239 L 15.702082,372.704078 L 15.972243,372.351996 L 16.142074,371.941988 L 16.200000,371.501996 L 16.142074,371.062004 L 15.972243,370.651996 L 15.702082,370.299915 L 15.350000,370.029753 L 14.939992,369.859922 L 14.500000,369.801996 L 14.060008,369.859922 L 13.650000,370.029753 L 13.297918,370.299915 L 13.027757,370.651996 L 12.857926,371.062004 L 12.800000,371.501996 L 12.857926,371.941988 L 13.027757,372.351996 L 13.297918,372.704078 "/>
        <path style="fill:none;stroke-width:0.280000;stroke-linecap:round;stroke-linejoin:round;stroke-opacity:1;stroke:#000000;" d="M 1.171573,398.828427 L 0.535898,398.000000 L 0.136297,397.035276 L 0.000000,396.000000 L 0.000000,42.999996 L 0.136297,41.964720 L 0.535898,40.999996 L 1.171573,40.171569 L 2.000000,39.535894 L 2.964724,39.136293 L 4.000000,38.999996 L 308.000000,38.999996 L 309.035276,39.136293 L 310.000000,39.535894 L 310.828427,40.171569 L 311.464102,40.999996 L 311.863703,41.964720 L 312.000000,42.999996 L 312.000000,396.000000 L 311.863703,397.035276 L 311.464102,398.000000 L 310.828427,398.828427 L 310.000000,399.464102 L 309.035276,399.863703 L 308.000000,400.000000 L 4.000000,400.000000 L 2.964724,399.863703 L 2.000000,399.464102 L 1.171573,398.828427 "/>
    </g>
</svg>
