<?xml version="1.0" encoding="UTF-8"?>
<!-- Created by Vectric (http://www.vectric.com/) -->
<svg width="350.00000000mm" height="500.00000000mm" viewBox="0.00000000 0.00000000 350.00000000 500.00000000" id="svg2" version="1.1" xmlns="http://www.w3.org/2000/svg" xmlns:xlink="http://www.w3.org/1999/xlink" xmlns:inkscape="http://www.inkscape.org/namespaces/inkscape">
    <g inkscape:groupmode="layer" id="7bd2ae7f-7f09-4ca8-a49f-32254c91be52" inkscape:label="GROUP0" style="stroke:#000000;">
        <path style="fill:none;stroke-width:0.280000;stroke-linecap:round;stroke-linejoin:round;stroke-opacity:1;stroke:#000000;" d="M 299.950964,34.249992 L 300.189342,34.560652 L 300.500002,34.799030 L 300.861774,34.948880 L 301.250003,34.999991 L 301.638231,34.948879 L 302.000002,34.799028 L 302.310662,34.560650 L 302.549040,34.249990 L 302.698890,33.888218 L 302.750001,33.499990 L 302.698890,33.111761 L 302.549039,32.749990 L 302.310661,32.439330 L 302.000001,32.200952 L 301.638229,32.051102 L 301.250000,31.999991 L 300.861772,32.051102 L 300.500001,32.200953 L 300.189341,32.439331 L 299.950963,32.749992 L 299.801112,33.111763 L 299.750001,33.499992 L 299.801113,33.888220 L 299.950964,34.249992 "/>
        <path style="fill:none;stroke-width:0.280000;stroke-linecap:round;stroke-linejoin:round;stroke-opacity:1;stroke:#000000;" d="M 299.950974,49.249992 L 300.189352,49.560652 L 300.500013,49.799030 L 300.861784,49.948880 L 301.250013,49.999991 L 301.638241,49.948879 L 302.000013,49.799028 L 302.310673,49.560650 L 302.549050,49.249990 L 302.698901,48.888218 L 302.750012,48.499990 L 302.698900,48.111761 L 302.549049,47.749990 L 302.310671,47.439330 L 302.000011,47.200952 L 301.638239,47.051102 L 301.250011,46.999991 L 300.861782,47.051102 L 300.500011,47.200953 L 300.189351,47.439331 L 299.950973,47.749992 L 299.801123,48.111763 L 299.750012,48.499992 L 299.801123,48.888220 L 299.950974,49.249992 "/>
        <path style="fill:none;stroke-width:0.280000;stroke-linecap:round;stroke-linejoin:round;stroke-opacity:1;stroke:#000000;" d="M 289.950964,34.249999 L 290.189342,34.560659 L 290.500002,34.799036 L 290.861774,34.948887 L 291.250003,34.999998 L 291.638231,34.948886 L 292.000002,34.799035 L 292.310662,34.560657 L 292.549040,34.249997 L 292.698890,33.888225 L 292.750001,33.499997 L 292.698890,33.111768 L 292.549039,32.749997 L 292.310661,32.439337 L 292.000001,32.200959 L 291.638229,32.051109 L 291.250000,31.999998 L 290.861772,32.051109 L 290.500001,32.200960 L 290.189341,32.439338 L 289.950963,32.749999 L 289.801112,33.111770 L 289.750001,33.499999 L 289.801113,33.888227 L 289.950964,34.249999 "/>
        <path style="fill:none;stroke-width:0.280000;stroke-linecap:round;stroke-linejoin:round;stroke-opacity:1;stroke:#000000;" d="M 299.700926,61.721794 L 299.939304,62.032455 L 300.249964,62.270832 L 300.277801,62.282363 L 300.611736,62.420683 L 300.999964,62.471794 L 301.388193,62.420683 L 301.749964,62.270832 L 302.060625,62.032455 L 302.299003,61.721794 L 302.448853,61.360023 L 302.499964,60.971794 L 302.448853,60.583566 L 302.299003,60.221794 L 302.060625,59.911134 L 301.749964,59.672756 L 301.388193,59.522906 L 300.999964,59.471794 L 300.611736,59.522906 L 300.249964,59.672756 L 300.179926,59.726499 L 299.939304,59.911134 L 299.700926,60.221794 L 299.551076,60.583566 L 299.499964,60.971794 L 299.551076,61.360023 L 299.700926,61.721794 "/>
        <path style="fill:none;stroke-width:0.280000;stroke-linecap:round;stroke-linejoin:round;stroke-opacity:1;stroke:#000000;" d="M 289.950974,49.249999 L 290.189352,49.560659 L 290.500013,49.799036 L 290.861784,49.948887 L 291.250013,49.999998 L 291.638241,49.948886 L 292.000013,49.799035 L 292.310673,49.560657 L 292.549050,49.249997 L 292.698901,48.888225 L 292.750012,48.499997 L 292.698900,48.111768 L 292.549049,47.749997 L 292.310671,47.439337 L 292.000011,47.200959 L 291.638239,47.051109 L 291.250011,46.999998 L 290.861782,47.051109 L 290.500011,47.200960 L 290.189351,47.439338 L 289.950973,47.749999 L 289.801123,48.111770 L 289.750012,48.499999 L 289.801123,48.888227 L 289.950974,49.249999 "/>
        <path style="fill:none;stroke-width:0.280000;stroke-linecap:round;stroke-linejoin:round;stroke-opacity:1;stroke:#000000;" d="M 276.767914,64.500035 L 277.085751,64.914249 L 277.499965,65.232086 L 277.982326,65.431887 L 278.499965,65.500035 L 279.017603,65.431887 L 279.499965,65.232086 L 279.914178,64.914249 L 280.232015,64.500035 L 280.431816,64.017674 L 280.499965,63.500035 L 280.431816,62.982397 L 280.232015,62.500035 L 279.914178,62.085822 L 279.499965,61.767985 L 279.017603,61.568184 L 278.499965,61.500035 L 277.982326,61.568184 L 277.499965,61.767985 L 277.085751,62.085822 L 276.767914,62.500035 L 276.568113,62.982397 L 276.499965,63.500035 L 276.568113,64.017674 L 276.767914,64.500035 "/>
        <path style="fill:none;stroke-width:0.280000;stroke-linecap:round;stroke-linejoin:round;stroke-opacity:1;stroke:#000000;" d="M 255.172752,41.750036 L 255.411130,42.060696 L 255.721790,42.299074 L 256.083562,42.448924 L 256.471790,42.500036 L 256.860019,42.448924 L 257.221790,42.299074 L 257.532451,42.060696 L 257.770829,41.750036 L 257.920679,41.388264 L 257.971790,41.000036 L 257.920679,40.611807 L 257.770829,40.250036 L 257.532451,39.939375 L 257.221790,39.700997 L 256.860019,39.551147 L 256.471790,39.500036 L 256.083562,39.551147 L 255.721790,39.700997 L 255.411130,39.939375 L 255.172752,40.250036 L 255.022902,40.611807 L 254.971790,41.000036 L 255.022902,41.388264 L 255.172752,41.750036 "/>
        <path style="fill:none;stroke-width:0.280000;stroke-linecap:round;stroke-linejoin:round;stroke-opacity:1;stroke:#000000;" d="M 296.499964,265.971794 L 296.499964,65.971794 L 305.499964,65.971794 L 305.499964,265.971794 L 296.499964,265.971794 "/>
        <path style="fill:none;stroke-width:0.280000;stroke-linecap:round;stroke-linejoin:round;stroke-opacity:1;stroke:#000000;" d="M 299.939304,272.032455 L 300.249964,272.270832 L 300.611736,272.420683 L 300.999964,272.471794 L 301.388193,272.420683 L 301.749964,272.270832 L 302.060625,272.032455 L 302.299003,271.721794 L 302.448853,271.360023 L 302.499964,270.971794 L 302.448853,270.583566 L 302.299003,270.221794 L 302.060625,269.911134 L 301.749964,269.672756 L 301.388193,269.522906 L 300.999964,269.471794 L 300.611736,269.522906 L 300.249964,269.672756 L 299.939304,269.911134 L 299.700926,270.221794 L 299.551076,270.583566 L 299.499964,270.971794 L 299.551076,271.360023 L 299.700926,271.721794 L 299.939304,272.032455 "/>
        <path style="fill:none;stroke-width:0.280000;stroke-linecap:round;stroke-linejoin:round;stroke-opacity:1;stroke:#000000;" d="M 159.864359,112.300000 L 159.704519,111.914110 L 159.650000,111.500000 L 159.704519,111.085890 L 159.864359,110.700000 L 160.118629,110.368629 L 160.450000,110.114359 L 160.835890,109.954519 L 161.250000,109.900000 L 161.664110,109.954519 L 162.050000,110.114359 L 162.381371,110.368629 L 162.635641,110.700000 L 162.795481,111.085890 L 162.850000,111.500000 L 162.795481,111.914110 L 162.635641,112.300000 L 162.381371,112.631371 L 162.050000,112.885641 L 161.664110,113.045481 L 161.250000,113.100000 L 160.835890,113.045481 L 160.450000,112.885641 L 160.118629,112.631371 L 159.864359,112.300000 "/>
        <path style="fill:none;stroke-width:0.280000;stroke-linecap:round;stroke-linejoin:round;stroke-opacity:1;stroke:#000000;" d="M 307.750003,307.049044 L 308.111775,307.198894 L 308.500003,307.250005 L 308.888232,307.198894 L 309.250003,307.049043 L 309.560663,306.810665 L 309.799041,306.500005 L 309.948891,306.138233 L 310.000002,305.750004 L 309.948891,305.361776 L 309.799040,305.000005 L 309.560662,304.689345 L 309.250001,304.450967 L 308.888230,304.301116 L 308.500001,304.250005 L 308.111773,304.301117 L 307.750001,304.450968 L 307.439341,304.689346 L 307.200964,305.000006 L 307.051113,305.361778 L 307.000002,305.750006 L 307.051114,306.138235 L 307.200965,306.500006 L 307.439343,306.810666 L 307.750003,307.049044 "/>
        <path style="fill:none;stroke-width:0.280000;stroke-linecap:round;stroke-linejoin:round;stroke-opacity:1;stroke:#000000;" d="M 307.750010,317.049044 L 308.111782,317.198894 L 308.500010,317.250005 L 308.888239,317.198894 L 309.250010,317.049043 L 309.560670,316.810665 L 309.799048,316.500005 L 309.948898,316.138233 L 310.000009,315.750004 L 309.948898,315.361776 L 309.799047,315.000005 L 309.560669,314.689345 L 309.250008,314.450967 L 308.888237,314.301116 L 308.500008,314.250005 L 308.111780,314.301117 L 307.750008,314.450968 L 307.439348,314.689346 L 307.200970,315.000006 L 307.051120,315.361778 L 307.000009,315.750006 L 307.051121,316.138235 L 307.200972,316.500006 L 307.439350,316.810666 L 307.750010,317.049044 "/>
        <path style="fill:none;stroke-width:0.280000;stroke-linecap:round;stroke-linejoin:round;stroke-opacity:1;stroke:#000000;" d="M 292.439343,306.810677 L 292.750003,307.049054 L 293.111775,307.198905 L 293.500003,307.250016 L 293.888232,307.198904 L 294.250003,307.049053 L 294.560663,306.810675 L 294.799041,306.500015 L 294.948891,306.138243 L 295.000002,305.750015 L 294.948891,305.361786 L 294.799040,305.000015 L 294.560662,304.689355 L 294.250001,304.450977 L 293.888230,304.301127 L 293.500001,304.250016 L 293.111773,304.301127 L 292.750001,304.450978 L 292.439341,304.689356 L 292.200964,305.000017 L 292.051113,305.361788 L 292.000002,305.750017 L 292.051114,306.138245 L 292.200965,306.500017 L 292.439343,306.810677 "/>
        <path style="fill:none;stroke-width:0.280000;stroke-linecap:round;stroke-linejoin:round;stroke-opacity:1;stroke:#000000;" d="M 292.750010,317.049054 L 293.111782,317.198905 L 293.500010,317.250016 L 293.888239,317.198904 L 294.250010,317.049053 L 294.560670,316.810675 L 294.799048,316.500015 L 294.948898,316.138243 L 295.000009,315.750015 L 294.948898,315.361786 L 294.799047,315.000015 L 294.560669,314.689355 L 294.250008,314.450977 L 293.888237,314.301127 L 293.500008,314.250016 L 293.111780,314.301127 L 292.750008,314.450978 L 292.439348,314.689356 L 292.200970,315.000017 L 292.051120,315.361788 L 292.000009,315.750017 L 292.051121,316.138245 L 292.200972,316.500017 L 292.439350,316.810677 L 292.750010,317.049054 "/>
        <path style="fill:none;stroke-width:0.280000;stroke-linecap:round;stroke-linejoin:round;stroke-opacity:1;stroke:#000000;" d="M 246.118629,284.631371 L 245.864359,284.300000 L 245.704519,283.914110 L 245.650000,283.500000 L 245.704519,283.085890 L 245.864359,282.700000 L 246.118629,282.368629 L 246.450000,282.114359 L 246.835890,281.954519 L 247.250000,281.900000 L 247.664110,281.954519 L 248.050000,282.114359 L 248.381371,282.368629 L 248.635641,282.700000 L 248.795481,283.085890 L 248.850000,283.500000 L 248.795481,283.914110 L 248.635641,284.300000 L 248.381371,284.631371 L 248.050000,284.885641 L 247.664110,285.045481 L 247.250000,285.100000 L 246.835890,285.045481 L 246.450000,284.885641 L 246.118629,284.631371 "/>
        <path style="fill:none;stroke-width:0.280000;stroke-linecap:round;stroke-linejoin:round;stroke-opacity:1;stroke:#000000;" d="M 51.471790,45.500036 L 51.471790,36.500036 L 251.471790,36.500036 L 251.471790,45.500036 L 51.471790,45.500036 "/>
        <path style="fill:none;stroke-width:0.280000;stroke-linecap:round;stroke-linejoin:round;stroke-opacity:1;stroke:#000000;" d="M 45.022902,41.388264 L 45.172752,41.750036 L 45.411130,42.060696 L 45.721790,42.299074 L 46.083562,42.448924 L 46.471790,42.500036 L 46.860019,42.448924 L 47.221790,42.299074 L 47.532451,42.060696 L 47.770829,41.750036 L 47.920679,41.388264 L 47.971790,41.000036 L 47.920679,40.611807 L 47.770829,40.250036 L 47.532451,39.939375 L 47.221790,39.700997 L 46.860019,39.551147 L 46.471790,39.500036 L 46.083562,39.551147 L 45.721790,39.700997 L 45.411130,39.939375 L 45.172752,40.250036 L 45.022902,40.611807 L 44.971790,41.000036 L 45.022902,41.388264 "/>
        <path style="fill:none;stroke-width:0.280000;stroke-linecap:round;stroke-linejoin:round;stroke-opacity:1;stroke:#000000;" d="M 266.499999,378.232020 L 266.982361,378.431820 L 267.499999,378.499969 L 268.017638,378.431820 L 268.499999,378.232020 L 268.914213,377.914182 L 269.232050,377.499969 L 269.431851,377.017607 L 269.499999,376.499969 L 269.431851,375.982331 L 269.232050,375.499969 L 268.914213,375.085755 L 268.499999,374.767918 L 268.017638,374.568117 L 267.499999,374.499969 L 266.982361,374.568117 L 266.499999,374.767918 L 266.085786,375.085755 L 265.767949,375.499969 L 265.568148,375.982331 L 265.499999,376.499969 L 265.568148,377.017607 L 265.767949,377.499969 L 266.085786,377.914182 L 266.499999,378.232020 "/>
        <path style="fill:none;stroke-width:0.280000;stroke-linecap:round;stroke-linejoin:round;stroke-opacity:1;stroke:#000000;" d="M 31.567914,64.017638 L 31.767714,64.500000 L 32.085552,64.914214 L 32.499765,65.232051 L 32.982127,65.431852 L 33.499765,65.500000 L 34.017403,65.431852 L 34.499765,65.232051 L 34.913979,64.914214 L 35.231816,64.500000 L 35.431617,64.017638 L 35.499765,63.500000 L 35.431617,62.982362 L 35.231816,62.500000 L 34.913979,62.085786 L 34.499765,61.767949 L 34.017403,61.568148 L 33.499765,61.500000 L 32.982127,61.568148 L 32.499765,61.767949 L 32.085552,62.085786 L 31.767714,62.500000 L 31.567914,62.982362 L 31.499765,63.500000 L 31.567914,64.017638 "/>
        <path style="fill:none;stroke-width:0.280000;stroke-linecap:round;stroke-linejoin:round;stroke-opacity:1;stroke:#000000;" d="M 281.591061,409.816778 L 281.932597,409.996030 L 282.307106,410.088338 L 282.692823,410.088338 L 283.067332,409.996030 L 283.408868,409.816778 L 283.697582,409.561000 L 283.916694,409.243561 L 284.053471,408.882909 L 284.099965,408.500004 L 284.099965,398.500004 L 284.088299,398.307145 L 284.053471,398.117099 L 283.916694,397.756447 L 283.697582,397.439008 L 283.408868,397.183230 L 283.067332,397.003978 L 282.692823,396.911670 L 282.307106,396.911670 L 281.932597,397.003978 L 281.591061,397.183230 L 281.302347,397.439008 L 281.083235,397.756447 L 280.946458,398.117099 L 280.899965,398.500004 L 280.899965,408.500004 L 280.946458,408.882909 L 281.083235,409.243561 L 281.302347,409.561000 L 281.591061,409.816778 "/>
        <path style="fill:none;stroke-width:0.280000;stroke-linecap:round;stroke-linejoin:round;stroke-opacity:1;stroke:#000000;" d="M 295.591061,423.816778 L 295.932597,423.996030 L 296.307106,424.088338 L 296.692823,424.088338 L 297.067332,423.996030 L 297.408868,423.816778 L 297.697582,423.561000 L 297.916694,423.243561 L 298.053471,422.882909 L 298.099965,422.500004 L 298.099965,412.500004 L 298.053471,412.117099 L 297.916694,411.756447 L 297.697582,411.439008 L 297.408868,411.183230 L 297.067332,411.003978 L 296.692823,410.911670 L 296.307106,410.911670 L 295.932597,411.003978 L 295.591061,411.183230 L 295.302347,411.439008 L 295.083235,411.756447 L 294.946458,412.117099 L 294.899965,412.500004 L 294.899965,422.500004 L 294.946458,422.882909 L 295.083235,423.243561 L 295.302347,423.561000 L 295.591061,423.816778 "/>
        <path style="fill:none;stroke-width:0.280000;stroke-linecap:round;stroke-linejoin:round;stroke-opacity:1;stroke:#000000;" d="M 17.051118,75.638217 L 17.200969,75.999989 L 17.439347,76.310649 L 17.750008,76.549027 L 18.111779,76.698877 L 18.500008,76.749988 L 18.888236,76.698876 L 19.250008,76.549026 L 19.560668,76.310647 L 19.799045,75.999987 L 19.948896,75.638215 L 20.000007,75.249987 L 19.948895,74.861758 L 19.799044,74.499987 L 19.560666,74.189327 L 19.250006,73.950949 L 18.888234,73.801099 L 18.500006,73.749988 L 18.111777,73.801099 L 17.750006,73.950950 L 17.439346,74.189328 L 17.200968,74.499989 L 17.051118,74.861760 L 17.000007,75.249989 L 17.051118,75.638217 "/>
        <path style="fill:none;stroke-width:0.280000;stroke-linecap:round;stroke-linejoin:round;stroke-opacity:1;stroke:#000000;" d="M 17.051125,85.638217 L 17.200976,85.999989 L 17.439354,86.310649 L 17.750015,86.549027 L 18.111786,86.698877 L 18.500015,86.749988 L 18.888243,86.698876 L 19.250015,86.549026 L 19.560675,86.310647 L 19.799052,85.999987 L 19.948903,85.638215 L 20.000014,85.249987 L 19.948902,84.861758 L 19.799051,84.499987 L 19.560673,84.189327 L 19.250013,83.950949 L 18.888241,83.801099 L 18.500013,83.749988 L 18.111784,83.801099 L 17.750013,83.950950 L 17.439353,84.189328 L 17.200975,84.499989 L 17.051125,84.861760 L 17.000014,85.249989 L 17.051125,85.638217 "/>
        <path style="fill:none;stroke-width:0.280000;stroke-linecap:round;stroke-linejoin:round;stroke-opacity:1;stroke:#000000;" d="M 2.051118,75.638228 L 2.200969,75.999999 L 2.439347,76.310659 L 2.750008,76.549037 L 3.111779,76.698887 L 3.500008,76.749998 L 3.888236,76.698887 L 4.250008,76.549036 L 4.560668,76.310658 L 4.799045,75.999997 L 4.948896,75.638226 L 5.000007,75.249997 L 4.948895,74.861769 L 4.799044,74.499997 L 4.560666,74.189337 L 4.250006,73.950960 L 3.888234,73.801109 L 3.500006,73.749998 L 3.111777,73.801110 L 2.750006,73.950961 L 2.439346,74.189339 L 2.200968,74.499999 L 2.051118,74.861771 L 2.000007,75.249999 L 2.051118,75.638228 "/>
        <path style="fill:none;stroke-width:0.280000;stroke-linecap:round;stroke-linejoin:round;stroke-opacity:1;stroke:#000000;" d="M 267.591061,423.816778 L 267.932597,423.996030 L 268.307106,424.088338 L 268.692823,424.088338 L 269.067332,423.996030 L 269.408868,423.816778 L 269.697582,423.561000 L 269.916694,423.243561 L 270.053471,422.882909 L 270.099965,422.500004 L 270.099965,412.500004 L 270.053471,412.117099 L 269.916694,411.756447 L 269.697582,411.439008 L 269.408868,411.183230 L 269.067332,411.003978 L 268.692823,410.911670 L 268.307106,410.911670 L 267.932597,411.003978 L 267.591061,411.183230 L 267.302347,411.439008 L 267.083235,411.756447 L 266.946458,412.117099 L 266.899965,412.500004 L 266.899965,422.500004 L 266.946458,422.882909 L 267.083235,423.243561 L 267.302347,423.561000 L 267.591061,423.816778 "/>
        <path style="fill:none;stroke-width:0.280000;stroke-linecap:round;stroke-linejoin:round;stroke-opacity:1;stroke:#000000;" d="M 2.051125,85.638228 L 2.200976,85.999999 L 2.439354,86.310659 L 2.750015,86.549037 L 3.111786,86.698887 L 3.500015,86.749998 L 3.888243,86.698887 L 4.250015,86.549036 L 4.560675,86.310658 L 4.799052,85.999997 L 4.948903,85.638226 L 5.000014,85.249997 L 4.948902,84.861769 L 4.799051,84.499997 L 4.560673,84.189337 L 4.250013,83.950960 L 3.888241,83.801109 L 3.500013,83.749998 L 3.111784,83.801110 L 2.750013,83.950961 L 2.439353,84.189339 L 2.200975,84.499999 L 2.051125,84.861771 L 2.000014,85.249999 L 2.051125,85.638228 "/>
        <path style="fill:none;stroke-width:0.280000;stroke-linecap:round;stroke-linejoin:round;stroke-opacity:1;stroke:#000000;" d="M 281.591061,437.816778 L 281.932597,437.996030 L 282.307106,438.088338 L 282.692823,438.088338 L 283.067332,437.996030 L 283.408868,437.816778 L 283.697582,437.561000 L 283.916694,437.243561 L 284.053471,436.882909 L 284.099965,436.500004 L 284.099965,426.500004 L 284.088299,426.307145 L 284.053471,426.117099 L 283.916694,425.756447 L 283.697582,425.439008 L 283.408868,425.183230 L 283.067332,425.003978 L 282.692823,424.911670 L 282.307106,424.911670 L 281.932597,425.003978 L 281.591061,425.183230 L 281.302347,425.439008 L 281.083235,425.756447 L 280.946458,426.117099 L 280.899965,426.500004 L 280.899965,436.500004 L 280.946458,436.882909 L 281.083235,437.243561 L 281.302347,437.561000 L 281.591061,437.816778 "/>
        <path style="fill:none;stroke-width:0.280000;stroke-linecap:round;stroke-linejoin:round;stroke-opacity:1;stroke:#000000;" d="M 9.551147,120.416438 L 9.700997,120.778210 L 9.939375,121.088870 L 10.250036,121.327248 L 10.611807,121.477098 L 11.000036,121.528210 L 11.388264,121.477098 L 11.750036,121.327248 L 12.060696,121.088870 L 12.299074,120.778210 L 12.448924,120.416438 L 12.500036,120.028210 L 12.448924,119.639981 L 12.299074,119.278210 L 12.060696,118.967549 L 11.750036,118.729171 L 11.388264,118.579321 L 11.000036,118.528210 L 10.611807,118.579321 L 10.250036,118.729171 L 9.939375,118.967549 L 9.700997,119.278210 L 9.551147,119.639981 L 9.500036,120.028210 L 9.551147,120.416438 "/>
        <path style="fill:none;stroke-width:0.280000;stroke-linecap:round;stroke-linejoin:round;stroke-opacity:1;stroke:#000000;" d="M 73.864359,284.300000 L 73.704519,283.914110 L 73.650000,283.500000 L 73.704519,283.085890 L 73.864359,282.700000 L 74.118629,282.368629 L 74.450000,282.114359 L 74.835890,281.954519 L 75.250000,281.900000 L 75.664110,281.954519 L 76.050000,282.114359 L 76.381371,282.368629 L 76.635641,282.700000 L 76.795481,283.085890 L 76.850000,283.500000 L 76.795481,283.914110 L 76.635641,284.300000 L 76.381371,284.631371 L 76.050000,284.885641 L 75.664110,285.045481 L 75.250000,285.100000 L 74.835890,285.045481 L 74.450000,284.885641 L 74.118629,284.631371 L 73.864359,284.300000 "/>
        <path style="fill:none;stroke-width:0.280000;stroke-linecap:round;stroke-linejoin:round;stroke-opacity:1;stroke:#000000;" d="M 60.528043,384.500004 L 60.528043,375.500004 L 260.528043,375.500004 L 260.528043,384.500004 L 60.528043,384.500004 "/>
        <path style="fill:none;stroke-width:0.280000;stroke-linecap:round;stroke-linejoin:round;stroke-opacity:1;stroke:#000000;" d="M 54.467382,381.060664 L 54.778043,381.299042 L 55.139814,381.448893 L 55.528043,381.500004 L 55.916271,381.448893 L 56.278043,381.299042 L 56.588703,381.060664 L 56.827081,380.750004 L 56.976931,380.388233 L 57.028043,380.000004 L 56.976931,379.611775 L 56.827081,379.250004 L 56.588703,378.939344 L 56.278043,378.700966 L 55.916271,378.551115 L 55.528043,378.500004 L 55.139814,378.551115 L 54.778043,378.700966 L 54.467382,378.939344 L 54.229004,379.250004 L 54.079154,379.611775 L 54.028043,380.000004 L 54.079154,380.388233 L 54.229004,380.750004 L 54.467382,381.060664 "/>
        <path style="fill:none;stroke-width:0.280000;stroke-linecap:round;stroke-linejoin:round;stroke-opacity:1;stroke:#000000;" d="M 6.500036,325.028210 L 6.500036,125.028210 L 15.500036,125.028210 L 15.500036,325.028210 L 6.500036,325.028210 "/>
        <path style="fill:none;stroke-width:0.280000;stroke-linecap:round;stroke-linejoin:round;stroke-opacity:1;stroke:#000000;" d="M 32.085823,358.914218 L 32.500036,359.232055 L 32.982398,359.431856 L 33.500036,359.500005 L 34.017674,359.431856 L 34.500036,359.232055 L 34.914250,358.914218 L 35.232087,358.500005 L 35.431888,358.017643 L 35.500036,357.500005 L 35.431888,356.982367 L 35.232087,356.500005 L 34.914250,356.085791 L 34.500036,355.767954 L 34.017674,355.568153 L 33.500036,355.500005 L 32.982398,355.568153 L 32.500036,355.767954 L 32.085823,356.085791 L 31.767985,356.500005 L 31.568184,356.982367 L 31.500036,357.500005 L 31.568184,358.017643 L 31.767985,358.500005 L 32.085823,358.914218 "/>
        <path style="fill:none;stroke-width:0.280000;stroke-linecap:round;stroke-linejoin:round;stroke-opacity:1;stroke:#000000;" d="M 9.700997,330.778210 L 9.939375,331.088870 L 10.250036,331.327248 L 10.611807,331.477098 L 11.000036,331.528210 L 11.388264,331.477098 L 11.750036,331.327248 L 12.060696,331.088870 L 12.299074,330.778210 L 12.448924,330.416438 L 12.500036,330.028210 L 12.448924,329.639981 L 12.299074,329.278210 L 12.060696,328.967549 L 11.750036,328.729171 L 11.388264,328.579321 L 11.000036,328.528210 L 10.611807,328.579321 L 10.250036,328.729171 L 9.939375,328.967549 L 9.700997,329.278210 L 9.551147,329.639981 L 9.500036,330.028210 L 9.551147,330.416438 L 9.700997,330.778210 "/>
        <path style="fill:none;stroke-width:0.280000;stroke-linecap:round;stroke-linejoin:round;stroke-opacity:1;stroke:#000000;" d="M 19.689162,373.560703 L 19.999822,373.799080 L 20.361594,373.948931 L 20.749822,374.000042 L 21.138051,373.948930 L 21.499822,373.799079 L 21.810482,373.560701 L 22.048860,373.250041 L 22.198710,372.888269 L 22.249821,372.500041 L 22.198710,372.111812 L 22.048859,371.750041 L 21.810481,371.439381 L 21.499820,371.201003 L 21.138049,371.051153 L 20.749820,371.000042 L 20.361592,371.051153 L 19.999820,371.201004 L 19.689160,371.439382 L 19.450783,371.750043 L 19.300932,372.111814 L 19.249821,372.500043 L 19.300933,372.888271 L 19.450784,373.250043 L 19.689162,373.560703 "/>
        <path style="fill:none;stroke-width:0.280000;stroke-linecap:round;stroke-linejoin:round;stroke-opacity:1;stroke:#000000;" d="M 9.689162,373.560710 L 9.999822,373.799087 L 10.361594,373.948938 L 10.749822,374.000049 L 11.138051,373.948937 L 11.499822,373.799086 L 11.810482,373.560708 L 12.048860,373.250048 L 12.198710,372.888276 L 12.249821,372.500048 L 12.198710,372.111819 L 12.048859,371.750048 L 11.810481,371.439388 L 11.499820,371.201010 L 11.138049,371.051160 L 10.749820,371.000049 L 10.361592,371.051160 L 9.999820,371.201011 L 9.689160,371.439389 L 9.450783,371.750050 L 9.300932,372.111821 L 9.249821,372.500050 L 9.300933,372.888278 L 9.450784,373.250050 L 9.689162,373.560710 "/>
        <path style="fill:none;stroke-width:0.280000;stroke-linecap:round;stroke-linejoin:round;stroke-opacity:1;stroke:#000000;" d="M 19.689172,388.560703 L 19.999832,388.799080 L 20.361604,388.948931 L 20.749833,389.000042 L 21.138061,388.948930 L 21.499832,388.799079 L 21.810492,388.560701 L 22.048870,388.250041 L 22.198721,387.888269 L 22.249832,387.500041 L 22.198720,387.111812 L 22.048869,386.750041 L 21.810491,386.439381 L 21.499831,386.201003 L 21.138059,386.051153 L 20.749830,386.000042 L 20.361602,386.051153 L 19.999831,386.201004 L 19.689171,386.439382 L 19.450793,386.750043 L 19.300942,387.111814 L 19.249832,387.500043 L 19.300943,387.888271 L 19.450794,388.250043 L 19.689172,388.560703 "/>
        <path style="fill:none;stroke-width:0.280000;stroke-linecap:round;stroke-linejoin:round;stroke-opacity:1;stroke:#000000;" d="M 9.689172,388.560710 L 9.999832,388.799087 L 10.361604,388.948938 L 10.749833,389.000049 L 11.138061,388.948937 L 11.499832,388.799086 L 11.810492,388.560708 L 12.048870,388.250048 L 12.198721,387.888276 L 12.249832,387.500048 L 12.198720,387.111819 L 12.048869,386.750048 L 11.810491,386.439388 L 11.499831,386.201010 L 11.138059,386.051160 L 10.749830,386.000049 L 10.361602,386.051160 L 9.999831,386.201011 L 9.689171,386.439389 L 9.450793,386.750050 L 9.300942,387.111821 L 9.249832,387.500050 L 9.300943,387.888278 L 9.450794,388.250050 L 9.689172,388.560710 "/>
        <path style="fill:none;stroke-width:0.280000;stroke-linecap:round;stroke-linejoin:round;stroke-opacity:1;stroke:#000000;" d="M 0.292893,499.707107 L 0.133975,499.500000 L 0.034074,499.258819 L 0.000000,499.000000 L 0.000000,31.000000 L 0.034074,30.741181 L 0.133975,30.500000 L 0.292893,30.292893 L 0.500000,30.133975 L 0.741181,30.034074 L 1.000000,30.000000 L 311.000000,30.000000 L 311.258819,30.034074 L 311.500000,30.133975 L 311.707107,30.292893 L 311.866025,30.500000 L 311.965926,30.741181 L 312.000000,31.000000 L 312.000000,499.000000 L 311.965926,499.258819 L 311.866025,499.500000 L 311.707107,499.707107 L 311.500000,499.866025 L 311.258819,499.965926 L 311.000000,500.000000 L 1.000000,500.000000 L 0.741181,499.965926 L 0.500000,499.866025 L 0.292893,499.707107 "/>
    </g>
</svg>
