 0
SECTION
 2
ENTITIES
  0
LINE
 8
GROUP0
10
850.50000000014
20
-1054.74366184858
30
6.45301987933777e-007
11
847.364647586473
21
-1053.44495635601
31
6.45301987933777e-007
  0
LINE
 8
GROUP0
10
860.00000000007
20
-799.49999212972
30
3.50727973330578e-007
11
859.999999999997
21
-1043.49999212972
31
3.50727973330578e-007
  0
LINE
 8
GROUP0
10
847.364647586473
20
-1053.44495635601
30
6.45301987933777e-007
11
844.00000000014
21
-1053.00199209777
31
6.45301987933777e-007
  0
LINE
 8
GROUP0
10
837.500000000135
20
-1077.26032234697
30
6.45301987933777e-007
11
840.635352413802
21
-1078.55902783953
31
6.45301987933777e-007
  0
LINE
 8
GROUP0
10
844.000000000134
20
-1079.00199209777
30
6.45301987933777e-007
11
847.364647586467
21
-1078.55902783953
31
6.45301987933777e-007
  0
LINE
 8
GROUP0
10
831.442964258379
20
-1069.3666396841
30
6.45301987933777e-007
11
832.741669750938
21
-1072.50199209777
31
6.45301987933777e-007
  0
LINE
 8
GROUP0
10
832.741669750938
20
-1072.50199209777
30
6.45301987933777e-007
11
834.80761184471
21
-1075.1943802532
31
6.45301987933777e-007
  0
LINE
 8
GROUP0
10
831.44296425838
20
-1062.63734451144
30
6.45301987933777e-007
11
831.000000000137
21
-1066.00199209777
31
6.45301987933777e-007
  0
LINE
 8
GROUP0
10
834.807611844714
20
-1056.80960394235
30
6.45301987933777e-007
11
832.741669750941
21
-1059.50199209777
31
6.45301987933777e-007
  0
LINE
 8
GROUP0
10
840.635352413807
20
-1053.44495635601
30
6.45301987933777e-007
11
837.50000000014
21
-1054.74366184857
31
6.45301987933777e-007
  0
LINE
 8
GROUP0
10
847.364647586467
20
-1078.55902783953
30
6.45301987933777e-007
11
850.500000000135
21
-1077.26032234697
31
6.45301987933777e-007
  0
LINE
 8
GROUP0
10
1054.0
20
-1059.49999212972
30
3.50727973330578e-007
11
1070.0
21
-1043.49999212972
31
3.50727973330578e-007
  0
LINE
 8
GROUP0
10
1070.00000000007
20
-799.49999212972
30
3.50727973330578e-007
11
860.00000000007
21
-799.49999212972
31
3.50727973330578e-007
  0
LINE
 8
GROUP0
10
855.258330249336
20
-1059.50199209777
30
6.45301987933777e-007
11
853.192388155564
21
-1056.80960394235
31
6.45301987933777e-007
  0
LINE
 8
GROUP0
10
853.19238815556
20
-1075.1943802532
30
6.45301987933777e-007
11
855.258330249334
21
-1072.50199209777
31
6.45301987933777e-007
  0
LINE
 8
GROUP0
10
856.557035741894
20
-1069.36663968411
30
6.45301987933777e-007
11
857.000000000137
21
-1066.00199209778
31
6.45301987933777e-007
  0
LINE
 8
GROUP0
10
859.999999999997
20
-1043.49999212972
30
3.50727973330578e-007
11
875.999999999997
21
-1059.49999212972
31
3.50727973330578e-007
  0
LINE
 8
GROUP0
10
1070.0
20
-1043.49999212972
30
3.50727973330578e-007
11
1070.00000000007
21
-799.49999212972
31
3.50727973330578e-007
  0
LINE
 8
GROUP0
10
857.000000000137
20
-1066.00199209778
30
6.45301987933777e-007
11
856.557035741896
21
-1062.63734451144
31
6.45301987933777e-007
  0
LINE
 8
GROUP0
10
834.80761184471
20
-1075.1943802532
30
6.45301987933777e-007
11
837.500000000135
21
-1077.26032234697
31
6.45301987933777e-007
  0
LINE
 8
GROUP0
10
844.00000000014
20
-1053.00199209777
30
6.45301987933777e-007
11
840.635352413807
21
-1053.44495635601
31
6.45301987933777e-007
  0
LINE
 8
GROUP0
10
831.000000000137
20
-1066.00199209777
30
6.45301987933777e-007
11
831.442964258379
21
-1069.3666396841
31
6.45301987933777e-007
  0
LINE
 8
GROUP0
10
850.500000000135
20
-1077.26032234697
30
6.45301987933777e-007
11
853.19238815556
21
-1075.1943802532
31
6.45301987933777e-007
  0
LINE
 8
GROUP0
10
853.192388155564
20
-1056.80960394235
30
6.45301987933777e-007
11
850.50000000014
21
-1054.74366184858
31
6.45301987933777e-007
  0
LINE
 8
GROUP0
10
1099.00000000014
20
-1066.00199209778
30
6.45301987933777e-007
11
1098.5570357419
21
-1062.63734451144
31
6.45301987933777e-007
  0
LINE
 8
GROUP0
10
1089.36464758647
20
-1078.55902783953
30
6.45301987933777e-007
11
1092.50000000013
21
-1077.26032234697
31
6.45301987933777e-007
  0
LINE
 8
GROUP0
10
856.557035741896
20
-1062.63734451144
30
6.45301987933777e-007
11
855.258330249336
21
-1059.50199209777
31
6.45301987933777e-007
  0
LINE
 8
GROUP0
10
1098.55703574189
20
-1069.36663968411
30
6.45301987933777e-007
11
1099.00000000014
21
-1066.00199209778
31
6.45301987933777e-007
  0
LINE
 8
GROUP0
10
1073.44296425838
20
-1069.3666396841
30
6.45301987933777e-007
11
1074.74166975094
21
-1072.50199209777
31
6.45301987933777e-007
  0
LINE
 8
GROUP0
10
1101.50000000013
20
-1048.80199209779
30
3.53363536564899e-007
11
1101.06000762345
21
-1048.85991819309
31
3.53363536564899e-007
  0
LINE
 8
GROUP0
10
1074.74166975094
20
-1072.50199209777
30
6.45301987933777e-007
11
1076.80761184471
21
-1075.1943802532
31
6.45301987933777e-007
  0
LINE
 8
GROUP0
10
1101.06000762345
20
-1048.85991819309
30
3.53363536564899e-007
11
1100.65000000013
21
-1049.02974891135
31
3.53363536564899e-007
  0
LINE
 8
GROUP0
10
1097.25833024933
20
-1072.50199209777
30
6.45301987933777e-007
11
1098.55703574189
21
-1069.36663968411
31
6.45301987933777e-007
  0
LINE
 8
GROUP0
10
1074.74166975094
20
-1059.50199209777
30
6.45301987933777e-007
11
1073.44296425838
21
-1062.63734451144
31
6.45301987933777e-007
  0
LINE
 8
GROUP0
10
832.741669750941
20
-1059.50199209777
30
6.45301987933777e-007
11
831.44296425838
21
-1062.63734451144
31
6.45301987933777e-007
  0
LINE
 8
GROUP0
10
1073.00000000014
20
-1066.00199209777
30
6.45301987933777e-007
11
1073.44296425838
21
-1069.3666396841
31
6.45301987933777e-007
  0
LINE
 8
GROUP0
10
840.635352413802
20
-1078.55902783953
30
6.45301987933777e-007
11
844.000000000134
21
-1079.00199209777
31
6.45301987933777e-007
  0
LINE
 8
GROUP0
10
1079.50000000013
20
-1077.26032234697
30
6.45301987933777e-007
11
1082.6353524138
21
-1078.55902783953
31
6.45301987933777e-007
  0
LINE
 8
GROUP0
10
1082.6353524138
20
-1078.55902783953
30
6.45301987933777e-007
11
1086.00000000013
21
-1079.00199209777
31
6.45301987933777e-007
  0
LINE
 8
GROUP0
10
855.258330249334
20
-1072.50199209777
30
6.45301987933777e-007
11
856.557035741894
21
-1069.36663968411
31
6.45301987933777e-007
  0
LINE
 8
GROUP0
10
1101.9399923768
20
-1048.85991819309
30
3.53363536564899e-007
11
1101.50000000013
21
-1048.80199209779
31
3.53363536564899e-007
  0
LINE
 8
GROUP0
10
1092.50000000013
20
-1077.26032234697
30
6.45301987933777e-007
11
1095.19238815556
21
-1075.1943802532
31
6.45301987933777e-007
  0
LINE
 8
GROUP0
10
1095.19238815556
20
-1056.80960394235
30
6.45301987933777e-007
11
1092.50000000014
21
-1054.74366184858
31
6.45301987933777e-007
  0
LINE
 8
GROUP0
10
1097.25833024934
20
-1059.50199209777
30
6.45301987933777e-007
11
1095.19238815556
21
-1056.80960394235
31
6.45301987933777e-007
  0
LINE
 8
GROUP0
10
875.999999999997
20
-1059.49999212972
30
3.50727973330578e-007
11
1054.0
21
-1059.49999212972
31
3.50727973330578e-007
  0
LINE
 8
GROUP0
10
837.50000000014
20
-1054.74366184857
30
6.45301987933777e-007
11
834.807611844714
21
-1056.80960394235
31
6.45301987933777e-007
  0
LINE
 8
GROUP0
10
1102.70208152814
20
-1049.29991056977
30
3.53363536564899e-007
11
1102.35000000013
21
-1049.02974891135
31
3.53363536564899e-007
  0
LINE
 8
GROUP0
10
1098.5570357419
20
-1062.63734451144
30
6.45301987933777e-007
11
1097.25833024934
21
-1059.50199209777
31
6.45301987933777e-007
  0
LINE
 8
GROUP0
10
1095.19238815556
20
-1075.1943802532
30
6.45301987933777e-007
11
1097.25833024933
21
-1072.50199209777
31
6.45301987933777e-007
  0
LINE
 8
GROUP0
10
1092.50000000014
20
-1054.74366184858
30
6.45301987933777e-007
11
1089.36464758647
21
-1053.44495635601
31
6.45301987933777e-007
  0
LINE
 8
GROUP0
10
1082.63535241381
20
-1053.44495635601
30
6.45301987933777e-007
11
1079.50000000014
21
-1054.74366184857
31
6.45301987933777e-007
  0
LINE
 8
GROUP0
10
1086.00000000014
20
-1053.00199209777
30
6.45301987933777e-007
11
1082.63535241381
21
-1053.44495635601
31
6.45301987933777e-007
  0
LINE
 8
GROUP0
10
1076.80761184471
20
-1056.80960394235
30
6.45301987933777e-007
11
1074.74166975094
21
-1059.50199209777
31
6.45301987933777e-007
  0
LINE
 8
GROUP0
10
1103.14207390482
20
-1050.06199972111
30
3.53363536564899e-007
11
1102.97224318656
21
-1049.65199209779
31
3.53363536564899e-007
  0
LINE
 8
GROUP0
10
1079.50000000014
20
-1054.74366184857
30
6.45301987933777e-007
11
1076.80761184471
21
-1056.80960394235
31
6.45301987933777e-007
  0
LINE
 8
GROUP0
10
1102.97224318656
20
-1049.65199209779
30
3.53363536564899e-007
11
1102.70208152814
21
-1049.29991056977
31
3.53363536564899e-007
  0
LINE
 8
GROUP0
10
1100.2979184721
20
-1082.70407362581
30
6.23768904350896e-007
11
1100.65000000012
21
-1082.97423528423
31
6.23768904350896e-007
  0
LINE
 8
GROUP0
10
1099.85792609542
20
-1081.06199972111
30
6.23768904350896e-007
11
1099.80000000011
21
-1081.50199209779
31
6.23768904350896e-007
  0
LINE
 8
GROUP0
10
1100.2979184721
20
-1080.29991056976
30
6.23768904350896e-007
11
1100.02775681368
21
-1080.65199209778
31
6.23768904350896e-007
  0
LINE
 8
GROUP0
10
1099.85792609544
20
-1050.06199972111
30
3.53363536564899e-007
11
1099.80000000013
21
-1050.50199209779
31
3.53363536564899e-007
  0
LINE
 8
GROUP0
10
1101.06000762345
20
-1079.85991819309
30
6.23768904350896e-007
11
1100.65000000012
21
-1080.02974891135
31
6.23768904350896e-007
  0
LINE
 8
GROUP0
10
1099.80000000013
20
-1050.50199209779
30
3.53363536564899e-007
11
1099.85792609544
21
-1050.94198447446
31
3.53363536564899e-007
  0
LINE
 8
GROUP0
10
1100.02775681369
20
-1049.65199209779
30
3.53363536564899e-007
11
1099.85792609544
21
-1050.06199972111
31
3.53363536564899e-007
  0
LINE
 8
GROUP0
10
1103.20000000013
20
-1081.50199209779
30
6.23768904350896e-007
11
1103.14207390482
21
-1081.06199972111
31
6.23768904350896e-007
  0
LINE
 8
GROUP0
10
1101.9399923768
20
-1079.85991819309
30
6.23768904350896e-007
11
1101.50000000012
21
-1079.80199209778
31
6.23768904350896e-007
  0
LINE
 8
GROUP0
10
1102.35000000012
20
-1080.02974891135
30
6.23768904350896e-007
11
1101.9399923768
21
-1079.85991819309
31
6.23768904350896e-007
  0
LINE
 8
GROUP0
10
1100.65000000013
20
-1051.97423528422
30
3.53363536564899e-007
11
1101.06000762345
21
-1052.14406600248
31
3.53363536564899e-007
  0
LINE
 8
GROUP0
10
1101.06000762345
20
-1052.14406600248
30
3.53363536564899e-007
11
1101.50000000013
21
-1052.20199209779
31
3.53363536564899e-007
  0
LINE
 8
GROUP0
10
1102.35000000013
20
-1049.02974891135
30
3.53363536564899e-007
11
1101.9399923768
21
-1048.85991819309
31
3.53363536564899e-007
  0
LINE
 8
GROUP0
10
1076.80761184471
20
-1075.1943802532
30
6.45301987933777e-007
11
1079.50000000013
21
-1077.26032234697
31
6.45301987933777e-007
  0
LINE
 8
GROUP0
10
1103.20000000013
20
-1050.50199209779
30
3.53363536564899e-007
11
1103.14207390482
21
-1050.06199972111
31
3.53363536564899e-007
  0
LINE
 8
GROUP0
10
1101.50000000012
20
-1079.80199209778
30
6.23768904350896e-007
11
1101.06000762345
21
-1079.85991819309
31
6.23768904350896e-007
  0
LINE
 8
GROUP0
10
1100.02775681369
20
-1051.35199209779
30
3.53363536564899e-007
11
1100.29791847211
21
-1051.7040736258
31
3.53363536564899e-007
  0
LINE
 8
GROUP0
10
1100.02775681368
20
-1082.35199209779
30
6.23768904350896e-007
11
1100.2979184721
21
-1082.70407362581
31
6.23768904350896e-007
  0
LINE
 8
GROUP0
10
1100.29791847211
20
-1049.29991056977
30
3.53363536564899e-007
11
1100.02775681369
21
-1049.65199209779
31
3.53363536564899e-007
  0
LINE
 8
GROUP0
10
1089.36464758647
20
-1053.44495635601
30
6.45301987933777e-007
11
1086.00000000014
21
-1053.00199209777
31
6.45301987933777e-007
  0
LINE
 8
GROUP0
10
1100.02775681368
20
-1080.65199209778
30
6.23768904350896e-007
11
1099.85792609542
21
-1081.06199972111
31
6.23768904350896e-007
  0
LINE
 8
GROUP0
10
1102.70208152814
20
-1080.29991056976
30
6.23768904350896e-007
11
1102.35000000012
21
-1080.02974891135
31
6.23768904350896e-007
  0
LINE
 8
GROUP0
10
1099.85792609542
20
-1081.94198447446
30
6.23768904350896e-007
11
1100.02775681368
21
-1082.35199209779
31
6.23768904350896e-007
  0
LINE
 8
GROUP0
10
1101.9399923768
20
-1052.14406600248
30
3.53363536564899e-007
11
1102.35000000013
21
-1051.97423528422
31
3.53363536564899e-007
  0
LINE
 8
GROUP0
10
1103.14207390482
20
-1081.06199972111
30
6.23768904350896e-007
11
1102.97224318656
21
-1080.65199209778
31
6.23768904350896e-007
  0
LINE
 8
GROUP0
10
1099.80000000011
20
-1081.50199209779
30
6.23768904350896e-007
11
1099.85792609542
21
-1081.94198447446
31
6.23768904350896e-007
  0
LINE
 8
GROUP0
10
1073.44296425838
20
-1062.63734451144
30
6.45301987933777e-007
11
1073.00000000014
21
-1066.00199209777
31
6.45301987933777e-007
  0
LINE
 8
GROUP0
10
1100.65000000012
20
-1080.02974891135
30
6.23768904350896e-007
11
1100.2979184721
21
-1080.29991056976
31
6.23768904350896e-007
  0
LINE
 8
GROUP0
10
1086.00000000013
20
-1079.00199209777
30
6.45301987933777e-007
11
1089.36464758647
21
-1078.55902783953
31
6.45301987933777e-007
  0
LINE
 8
GROUP0
10
1102.70208152814
20
-1051.7040736258
30
3.53363536564899e-007
11
1102.97224318656
21
-1051.35199209779
31
3.53363536564899e-007
  0
LINE
 8
GROUP0
10
1102.35000000013
20
-1051.97423528422
30
3.53363536564899e-007
11
1102.70208152814
21
-1051.7040736258
31
3.53363536564899e-007
  0
LINE
 8
GROUP0
10
1102.97224318656
20
-1080.65199209778
30
6.23768904350896e-007
11
1102.70208152814
21
-1080.29991056976
31
6.23768904350896e-007
  0
LINE
 8
GROUP0
10
1071.97224318656
20
-1082.35199209779
30
8.94182799715537e-007
11
1072.14207390482
21
-1081.94198447446
31
8.94182799715537e-007
  0
LINE
 8
GROUP0
10
1071.70208152815
20
-1082.7040736258
30
8.94182799715537e-007
11
1071.97224318656
21
-1082.35199209779
31
8.94182799715537e-007
  0
LINE
 8
GROUP0
10
1068.80000000013
20
-1081.50199209779
30
8.94182799715537e-007
11
1068.85792609544
21
-1081.94198447446
31
8.94182799715537e-007
  0
LINE
 8
GROUP0
10
1102.97224318656
20
-1082.35199209779
30
6.23768904350896e-007
11
1103.14207390482
21
-1081.94198447446
31
6.23768904350896e-007
  0
LINE
 8
GROUP0
10
1100.29791847211
20
-1051.7040736258
30
3.53363536564899e-007
11
1100.65000000013
21
-1051.97423528422
31
3.53363536564899e-007
  0
LINE
 8
GROUP0
10
1070.9399923768
20
-1079.85991819309
30
8.94182799715537e-007
11
1070.50000000013
21
-1079.80199209779
31
8.94182799715537e-007
  0
LINE
 8
GROUP0
10
1101.9399923768
20
-1083.14406600248
30
6.23768904350896e-007
11
1102.35000000012
21
-1082.97423528423
31
6.23768904350896e-007
  0
LINE
 8
GROUP0
10
1070.50000000013
20
-1083.20199209779
30
8.94182799715537e-007
11
1070.9399923768
21
-1083.14406600248
31
8.94182799715537e-007
  0
LINE
 8
GROUP0
10
1103.14207390482
20
-1050.94198447446
30
3.53363536564899e-007
11
1103.20000000013
21
-1050.50199209779
31
3.53363536564899e-007
  0
LINE
 8
GROUP0
10
1069.65000000013
20
-1082.97423528422
30
8.94182799715537e-007
11
1070.06000762345
21
-1083.14406600248
31
8.94182799715537e-007
  0
LINE
 8
GROUP0
10
1102.97224318656
20
-1051.35199209779
30
3.53363536564899e-007
11
1103.14207390482
21
-1050.94198447446
31
3.53363536564899e-007
  0
LINE
 8
GROUP0
10
1101.50000000013
20
-1052.20199209779
30
3.53363536564899e-007
11
1101.9399923768
21
-1052.14406600248
31
3.53363536564899e-007
  0
LINE
 8
GROUP0
10
1069.65000000013
20
-1080.02974891135
30
8.94182799715537e-007
11
1069.29791847211
21
-1080.29991056977
31
8.94182799715537e-007
  0
LINE
 8
GROUP0
10
1100.65000000012
20
-1082.97423528423
30
6.23768904350896e-007
11
1101.06000762345
21
-1083.14406600248
31
6.23768904350896e-007
  0
LINE
 8
GROUP0
10
1070.9399923768
20
-1083.14406600248
30
8.94182799715537e-007
11
1071.35000000013
21
-1082.97423528422
31
8.94182799715537e-007
  0
LINE
 8
GROUP0
10
1071.35000000013
20
-1082.97423528422
30
8.94182799715537e-007
11
1071.70208152815
21
-1082.7040736258
31
8.94182799715537e-007
  0
LINE
 8
GROUP0
10
1072.14207390482
20
-1081.06199972111
30
8.94182799715537e-007
11
1071.97224318656
21
-1080.65199209779
31
8.94182799715537e-007
  0
LINE
 8
GROUP0
10
1072.14207390482
20
-1081.94198447446
30
8.94182799715537e-007
11
1072.20000000013
21
-1081.50199209779
31
8.94182799715537e-007
  0
LINE
 8
GROUP0
10
1102.35000000012
20
-1082.97423528423
30
6.23768904350896e-007
11
1102.70208152814
21
-1082.70407362581
31
6.23768904350896e-007
  0
LINE
 8
GROUP0
10
1101.50000000012
20
-1083.20199209779
30
6.23768904350896e-007
11
1101.9399923768
21
-1083.14406600248
31
6.23768904350896e-007
  0
LINE
 8
GROUP0
10
1070.50000000013
20
-1079.80199209779
30
8.94182799715537e-007
11
1070.06000762345
21
-1079.85991819309
31
8.94182799715537e-007
  0
LINE
 8
GROUP0
10
1068.85792609544
20
-1081.06199972111
30
8.94182799715537e-007
11
1068.80000000013
21
-1081.50199209779
31
8.94182799715537e-007
  0
LINE
 8
GROUP0
10
1069.02775681369
20
-1080.65199209779
30
8.94182799715537e-007
11
1068.85792609544
21
-1081.06199972111
31
8.94182799715537e-007
  0
LINE
 8
GROUP0
10
1099.85792609544
20
-1050.94198447446
30
3.53363536564899e-007
11
1100.02775681369
21
-1051.35199209779
31
3.53363536564899e-007
  0
LINE
 8
GROUP0
10
1101.06000762345
20
-1083.14406600248
30
6.23768904350896e-007
11
1101.50000000012
21
-1083.20199209779
31
6.23768904350896e-007
  0
LINE
 8
GROUP0
10
1103.14207390482
20
-1081.94198447446
30
6.23768904350896e-007
11
1103.20000000013
21
-1081.50199209779
31
6.23768904350896e-007
  0
LINE
 8
GROUP0
10
1069.29791847211
20
-1080.29991056977
30
8.94182799715537e-007
11
1069.02775681369
21
-1080.65199209779
31
8.94182799715537e-007
  0
LINE
 8
GROUP0
10
1071.35000000013
20
-1080.02974891135
30
8.94182799715537e-007
11
1070.9399923768
21
-1079.85991819309
31
8.94182799715537e-007
  0
LINE
 8
GROUP0
10
1100.65000000013
20
-1049.02974891135
30
3.53363536564899e-007
11
1100.29791847211
21
-1049.29991056977
31
3.53363536564899e-007
  0
LINE
 8
GROUP0
10
1069.02775681369
20
-1082.35199209779
30
8.94182799715537e-007
11
1069.29791847211
21
-1082.7040736258
31
8.94182799715537e-007
  0
LINE
 8
GROUP0
10
1068.85792609544
20
-1081.94198447446
30
8.94182799715537e-007
11
1069.02775681369
21
-1082.35199209779
31
8.94182799715537e-007
  0
LINE
 8
GROUP0
10
1070.06000762345
20
-1079.85991819309
30
8.94182799715537e-007
11
1069.65000000013
21
-1080.02974891135
31
8.94182799715537e-007
  0
LINE
 8
GROUP0
10
1072.20000000013
20
-1050.50199209779
30
3.53363536564899e-007
11
1072.14207390482
21
-1050.06199972111
31
3.53363536564899e-007
  0
LINE
 8
GROUP0
10
1071.70208152815
20
-1080.29991056977
30
8.94182799715537e-007
11
1071.35000000013
21
-1080.02974891135
31
8.94182799715537e-007
  0
LINE
 8
GROUP0
10
861.200001415266
20
-1081.50199209779
30
-1.21475233694213e-007
11
861.142075319957
21
-1081.06199972111
31
-1.21475233694213e-007
  0
LINE
 8
GROUP0
10
1070.06000762345
20
-1083.14406600248
30
8.94182799715537e-007
11
1070.50000000013
21
-1083.20199209779
31
8.94182799715537e-007
  0
LINE
 8
GROUP0
10
1071.70208152814
20
-1051.7040736258
30
3.53363536564899e-007
11
1071.97224318656
21
-1051.35199209779
31
3.53363536564899e-007
  0
LINE
 8
GROUP0
10
1071.35000000013
20
-1049.02974891135
30
3.53363536564899e-007
11
1070.9399923768
21
-1048.85991819309
31
3.53363536564899e-007
  0
LINE
 8
GROUP0
10
1070.9399923768
20
-1052.14406600248
30
3.53363536564899e-007
11
1071.35000000013
21
-1051.97423528422
31
3.53363536564899e-007
  0
LINE
 8
GROUP0
10
1102.70208152814
20
-1082.70407362581
30
6.23768904350896e-007
11
1102.97224318656
21
-1082.35199209779
31
6.23768904350896e-007
  0
LINE
 8
GROUP0
10
1071.97224318656
20
-1051.35199209779
30
3.53363536564899e-007
11
1072.14207390482
21
-1050.94198447446
31
3.53363536564899e-007
  0
LINE
 8
GROUP0
10
1071.35000000013
20
-1051.97423528422
30
3.53363536564899e-007
11
1071.70208152814
21
-1051.7040736258
31
3.53363536564899e-007
  0
LINE
 8
GROUP0
10
860.9722446017
20
-1080.65199209779
30
-1.21475233694213e-007
11
860.702082943283
21
-1080.29991056977
31
-1.21475233694213e-007
  0
LINE
 8
GROUP0
10
1071.97224318656
20
-1080.65199209779
30
8.94182799715537e-007
11
1071.70208152815
21
-1080.29991056977
31
8.94182799715537e-007
  0
LINE
 8
GROUP0
10
1069.02775681369
20
-1049.65199209779
30
3.53363536564899e-007
11
1068.85792609544
21
-1050.06199972111
31
3.53363536564899e-007
  0
LINE
 8
GROUP0
10
860.702082943283
20
-1080.29991056977
30
-1.21475233694213e-007
11
860.350001415267
21
-1080.02974891135
31
-1.21475233694213e-007
  0
LINE
 8
GROUP0
10
859.060009038593
20
-1079.85991819309
30
-1.21475233694213e-007
11
858.650001415267
21
-1080.02974891135
31
-1.21475233694213e-007
  0
LINE
 8
GROUP0
10
1072.14207390482
20
-1050.06199972111
30
3.53363536564899e-007
11
1071.97224318656
21
-1049.65199209779
31
3.53363536564899e-007
  0
LINE
 8
GROUP0
10
859.939993791941
20
-1079.85991819309
30
-1.21475233694213e-007
11
859.500001415267
21
-1079.80199209779
31
-1.21475233694213e-007
  0
LINE
 8
GROUP0
10
1070.06000762345
20
-1048.85991819309
30
3.53363536564899e-007
11
1069.65000000013
21
-1049.02974891135
31
3.53363536564899e-007
  0
LINE
 8
GROUP0
10
859.500001415267
20
-1079.80199209779
30
-1.21475233694213e-007
11
859.060009038593
21
-1079.85991819309
31
-1.21475233694213e-007
  0
LINE
 8
GROUP0
10
1069.29791847211
20
-1049.29991056977
30
3.53363536564899e-007
11
1069.02775681369
21
-1049.65199209779
31
3.53363536564899e-007
  0
LINE
 8
GROUP0
10
1069.29791847211
20
-1051.7040736258
30
3.53363536564899e-007
11
1069.65000000013
21
-1051.97423528422
31
3.53363536564899e-007
  0
LINE
 8
GROUP0
10
1072.14207390482
20
-1050.94198447446
30
3.53363536564899e-007
11
1072.20000000013
21
-1050.50199209779
31
3.53363536564899e-007
  0
LINE
 8
GROUP0
10
1072.20000000013
20
-1081.50199209779
30
8.94182799715537e-007
11
1072.14207390482
21
-1081.06199972111
31
8.94182799715537e-007
  0
LINE
 8
GROUP0
10
860.350001415267
20
-1080.02974891135
30
-1.21475233694213e-007
11
859.939993791941
21
-1079.85991819309
31
-1.21475233694213e-007
  0
LINE
 8
GROUP0
10
1069.29791847211
20
-1082.7040736258
30
8.94182799715537e-007
11
1069.65000000013
21
-1082.97423528422
31
8.94182799715537e-007
  0
LINE
 8
GROUP0
10
1068.80000000013
20
-1050.50199209779
30
3.53363536564899e-007
11
1068.85792609544
21
-1050.94198447446
31
3.53363536564899e-007
  0
LINE
 8
GROUP0
10
1071.70208152814
20
-1049.29991056977
30
3.53363536564899e-007
11
1071.35000000013
21
-1049.02974891135
31
3.53363536564899e-007
  0
LINE
 8
GROUP0
10
1069.02775681369
20
-1051.35199209779
30
3.53363536564899e-007
11
1069.29791847211
21
-1051.7040736258
31
3.53363536564899e-007
  0
LINE
 8
GROUP0
10
861.142075319957
20
-1081.06199972111
30
-1.21475233694213e-007
11
860.9722446017
21
-1080.65199209779
31
-1.21475233694213e-007
  0
LINE
 8
GROUP0
10
1070.50000000013
20
-1052.20199209779
30
3.53363536564899e-007
11
1070.9399923768
21
-1052.14406600248
31
3.53363536564899e-007
  0
LINE
 8
GROUP0
10
1070.06000762345
20
-1052.14406600248
30
3.53363536564899e-007
11
1070.50000000013
21
-1052.20199209779
31
3.53363536564899e-007
  0
LINE
 8
GROUP0
10
1070.9399923768
20
-1048.85991819309
30
3.53363536564899e-007
11
1070.50000000013
21
-1048.80199209779
31
3.53363536564899e-007
  0
LINE
 8
GROUP0
10
828.500000000139
20
-1079.80199209779
30
8.94182799715537e-007
11
828.060007623465
21
-1079.85991819309
31
8.94182799715537e-007
  0
LINE
 8
GROUP0
10
830.142073904831
20
-1081.06199972111
30
8.94182799715537e-007
11
829.972243186573
21
-1080.65199209779
31
8.94182799715537e-007
  0
LINE
 8
GROUP0
10
1068.85792609544
20
-1050.06199972111
30
3.53363536564899e-007
11
1068.80000000013
21
-1050.50199209779
31
3.53363536564899e-007
  0
LINE
 8
GROUP0
10
830.200000000139
20
-1081.50199209779
30
8.94182799715537e-007
11
830.142073904831
21
-1081.06199972111
31
8.94182799715537e-007
  0
LINE
 8
GROUP0
10
858.29791988725
20
-1080.29991056977
30
-1.21475233694213e-007
11
858.027758228833
21
-1080.65199209778
31
-1.21475233694213e-007
  0
LINE
 8
GROUP0
10
857.800001415266
20
-1081.50199209778
30
-1.21475233694213e-007
11
857.857927510575
21
-1081.94198447446
31
-1.21475233694213e-007
  0
LINE
 8
GROUP0
10
859.500001415265
20
-1083.20199209778
30
-1.21475233694213e-007
11
859.939993791939
21
-1083.14406600248
31
-1.21475233694213e-007
  0
LINE
 8
GROUP0
10
829.972243186573
20
-1080.65199209779
30
8.94182799715537e-007
11
829.702081528156
21
-1080.29991056977
31
8.94182799715537e-007
  0
LINE
 8
GROUP0
10
1070.50000000013
20
-1048.80199209779
30
3.53363536564899e-007
11
1070.06000762345
21
-1048.85991819309
31
3.53363536564899e-007
  0
LINE
 8
GROUP0
10
860.702082943282
20
-1082.7040736258
30
-1.21475233694213e-007
11
860.972244601699
21
-1082.35199209779
31
-1.21475233694213e-007
  0
LINE
 8
GROUP0
10
859.060009038591
20
-1083.14406600248
30
-1.21475233694213e-007
11
859.500001415265
21
-1083.20199209778
31
-1.21475233694213e-007
  0
LINE
 8
GROUP0
10
857.857927510575
20
-1081.06199972111
30
-1.21475233694213e-007
11
857.800001415266
21
-1081.50199209778
31
-1.21475233694213e-007
  0
LINE
 8
GROUP0
10
827.297918472122
20
-1080.29991056977
30
8.94182799715537e-007
11
827.027756813706
21
-1080.65199209779
31
8.94182799715537e-007
  0
LINE
 8
GROUP0
10
1069.65000000013
20
-1049.02974891135
30
3.53363536564899e-007
11
1069.29791847211
21
-1049.29991056977
31
3.53363536564899e-007
  0
LINE
 8
GROUP0
10
858.650001415265
20
-1082.97423528422
30
-1.21475233694213e-007
11
859.060009038591
21
-1083.14406600248
31
-1.21475233694213e-007
  0
LINE
 8
GROUP0
10
858.027758228832
20
-1082.35199209778
30
-1.21475233694213e-007
11
858.297919887248
21
-1082.7040736258
31
-1.21475233694213e-007
  0
LINE
 8
GROUP0
10
857.857927510575
20
-1081.94198447446
30
-1.21475233694213e-007
11
858.027758228832
21
-1082.35199209778
31
-1.21475233694213e-007
  0
LINE
 8
GROUP0
10
1069.65000000013
20
-1051.97423528422
30
3.53363536564899e-007
11
1070.06000762345
21
-1052.14406600248
31
3.53363536564899e-007
  0
LINE
 8
GROUP0
10
828.939992376814
20
-1079.85991819309
30
8.94182799715537e-007
11
828.500000000139
21
-1079.80199209779
31
8.94182799715537e-007
  0
LINE
 8
GROUP0
10
829.702081528156
20
-1080.29991056977
30
8.94182799715537e-007
11
829.350000000139
21
-1080.02974891135
31
8.94182799715537e-007
  0
LINE
 8
GROUP0
10
858.297919887248
20
-1082.7040736258
30
-1.21475233694213e-007
11
858.650001415265
21
-1082.97423528422
31
-1.21475233694213e-007
  0
LINE
 8
GROUP0
10
827.027756813706
20
-1080.65199209779
30
8.94182799715537e-007
11
826.857926095448
21
-1081.06199972111
31
8.94182799715537e-007
  0
LINE
 8
GROUP0
10
826.800000000139
20
-1081.50199209779
30
8.94182799715537e-007
11
826.857926095448
21
-1081.94198447446
31
8.94182799715537e-007
  0
LINE
 8
GROUP0
10
860.972244601699
20
-1082.35199209779
30
-1.21475233694213e-007
11
861.142075319957
21
-1081.94198447446
31
-1.21475233694213e-007
  0
LINE
 8
GROUP0
10
860.350001415265
20
-1082.97423528422
30
-1.21475233694213e-007
11
860.702082943282
21
-1082.7040736258
31
-1.21475233694213e-007
  0
LINE
 8
GROUP0
10
828.060007623465
20
-1079.85991819309
30
8.94182799715537e-007
11
827.650000000139
21
-1080.02974891135
31
8.94182799715537e-007
  0
LINE
 8
GROUP0
10
1071.97224318656
20
-1049.65199209779
30
3.53363536564899e-007
11
1071.70208152814
21
-1049.29991056977
31
3.53363536564899e-007
  0
LINE
 8
GROUP0
10
858.650001415267
20
-1080.02974891135
30
-1.21475233694213e-007
11
858.29791988725
21
-1080.29991056977
31
-1.21475233694213e-007
  0
LINE
 8
GROUP0
10
859.939993791939
20
-1083.14406600248
30
-1.21475233694213e-007
11
860.350001415265
21
-1082.97423528422
31
-1.21475233694213e-007
  0
LINE
 8
GROUP0
10
826.857926095448
20
-1081.06199972111
30
8.94182799715537e-007
11
826.800000000139
21
-1081.50199209779
31
8.94182799715537e-007
  0
LINE
 8
GROUP0
10
1068.85792609544
20
-1050.94198447446
30
3.53363536564899e-007
11
1069.02775681369
21
-1051.35199209779
31
3.53363536564899e-007
  0
LINE
 8
GROUP0
10
827.650000000139
20
-1080.02974891135
30
8.94182799715537e-007
11
827.297918472122
21
-1080.29991056977
31
8.94182799715537e-007
  0
LINE
 8
GROUP0
10
826.857926095448
20
-1081.94198447446
30
8.94182799715537e-007
11
827.027756813706
21
-1082.35199209779
31
8.94182799715537e-007
  0
LINE
 8
GROUP0
10
861.142075319957
20
-1081.94198447446
30
-1.21475233694213e-007
11
861.200001415266
21
-1081.50199209779
31
-1.21475233694213e-007
  0
LINE
 8
GROUP0
10
827.650000000139
20
-1049.02974891135
30
3.53372109263006e-007
11
827.297918472122
21
-1049.29991056977
31
3.53372109263006e-007
  0
LINE
 8
GROUP0
10
827.297918472122
20
-1051.7040736258
30
3.53372109263006e-007
11
827.650000000139
21
-1051.97423528422
31
3.53372109263006e-007
  0
LINE
 8
GROUP0
10
829.972243186573
20
-1049.65199209779
30
3.53372109263006e-007
11
829.702081528156
21
-1049.29991056977
31
3.53372109263006e-007
  0
LINE
 8
GROUP0
10
829.350000000139
20
-1051.97423528422
30
3.53372109263006e-007
11
829.702081528156
21
-1051.7040736258
31
3.53372109263006e-007
  0
LINE
 8
GROUP0
10
828.939992376814
20
-1048.85991819309
30
3.53372109263006e-007
11
828.500000000139
21
-1048.80199209779
31
3.53372109263006e-007
  0
LINE
 8
GROUP0
10
827.027756813706
20
-1049.65199209779
30
3.53372109263006e-007
11
826.857926095448
21
-1050.06199972111
31
3.53372109263006e-007
  0
LINE
 8
GROUP0
10
826.857926095448
20
-1050.06199972111
30
3.53372109263006e-007
11
826.800000000139
21
-1050.50199209779
31
3.53372109263006e-007
  0
LINE
 8
GROUP0
10
826.857926095448
20
-1050.94198447446
30
3.53372109263006e-007
11
827.027756813706
21
-1051.35199209779
31
3.53372109263006e-007
  0
LINE
 8
GROUP0
10
829.972243186573
20
-1051.35199209779
30
3.53372109263006e-007
11
830.142073904831
21
-1050.94198447446
31
3.53372109263006e-007
  0
LINE
 8
GROUP0
10
858.027758228833
20
-1080.65199209778
30
-1.21475233694213e-007
11
857.857927510575
21
-1081.06199972111
31
-1.21475233694213e-007
  0
LINE
 8
GROUP0
10
828.060007623465
20
-1052.14406600248
30
3.53372109263006e-007
11
828.500000000139
21
-1052.20199209779
31
3.53372109263006e-007
  0
LINE
 8
GROUP0
10
828.939992376814
20
-1052.14406600248
30
3.53372109263006e-007
11
829.350000000139
21
-1051.97423528422
31
3.53372109263006e-007
  0
LINE
 8
GROUP0
10
828.060007623465
20
-1048.85991819309
30
3.53372109263006e-007
11
827.650000000139
21
-1049.02974891135
31
3.53372109263006e-007
  0
LINE
 8
GROUP0
10
829.702081528156
20
-1049.29991056977
30
3.53372109263006e-007
11
829.350000000139
21
-1049.02974891135
31
3.53372109263006e-007
  0
LINE
 8
GROUP0
10
828.500000000139
20
-1083.20199209779
30
8.94182799715537e-007
11
828.939992376814
21
-1083.14406600248
31
8.94182799715537e-007
  0
LINE
 8
GROUP0
10
829.350000000139
20
-1082.97423528422
30
8.94182799715537e-007
11
829.702081528156
21
-1082.7040736258
31
8.94182799715537e-007
  0
LINE
 8
GROUP0
10
830.200000000139
20
-1050.50199209779
30
3.53372109263006e-007
11
830.142073904831
21
-1050.06199972111
31
3.53372109263006e-007
  0
LINE
 8
GROUP0
10
827.027756813706
20
-1051.35199209779
30
3.53372109263006e-007
11
827.297918472122
21
-1051.7040736258
31
3.53372109263006e-007
  0
LINE
 8
GROUP0
10
828.060007623465
20
-1083.14406600248
30
8.94182799715537e-007
11
828.500000000139
21
-1083.20199209779
31
8.94182799715537e-007
  0
LINE
 8
GROUP0
10
829.702081528156
20
-1051.7040736258
30
3.53372109263006e-007
11
829.972243186573
21
-1051.35199209779
31
3.53372109263006e-007
  0
LINE
 8
GROUP0
10
829.972243186573
20
-1082.35199209779
30
8.94182799715537e-007
11
830.142073904831
21
-1081.94198447446
31
8.94182799715537e-007
  0
LINE
 8
GROUP0
10
827.650000000139
20
-1082.97423528422
30
8.94182799715537e-007
11
828.060007623465
21
-1083.14406600248
31
8.94182799715537e-007
  0
LINE
 8
GROUP0
10
827.297918472122
20
-1049.29991056977
30
3.53372109263006e-007
11
827.027756813706
21
-1049.65199209779
31
3.53372109263006e-007
  0
LINE
 8
GROUP0
10
828.939992376814
20
-1083.14406600248
30
8.94182799715537e-007
11
829.350000000139
21
-1082.97423528422
31
8.94182799715537e-007
  0
LINE
 8
GROUP0
10
827.297918472122
20
-1082.7040736258
30
8.94182799715537e-007
11
827.650000000139
21
-1082.97423528422
31
8.94182799715537e-007
  0
LINE
 8
GROUP0
10
827.650000000139
20
-1051.97423528422
30
3.53372109263006e-007
11
828.060007623465
21
-1052.14406600248
31
3.53372109263006e-007
  0
LINE
 8
GROUP0
10
829.350000000139
20
-1080.02974891135
30
8.94182799715537e-007
11
828.939992376814
21
-1079.85991819309
31
8.94182799715537e-007
  0
LINE
 8
GROUP0
10
829.702081528156
20
-1082.7040736258
30
8.94182799715537e-007
11
829.972243186573
21
-1082.35199209779
31
8.94182799715537e-007
  0
LINE
 8
GROUP0
10
830.142073904831
20
-1050.94198447446
30
3.53372109263006e-007
11
830.200000000139
21
-1050.50199209779
31
3.53372109263006e-007
  0
LINE
 8
GROUP0
10
827.027756813706
20
-1082.35199209779
30
8.94182799715537e-007
11
827.297918472122
21
-1082.7040736258
31
8.94182799715537e-007
  0
LINE
 8
GROUP0
10
859.939972398028
20
-1048.85991819318
30
1.49627031167832e-005
11
859.499980021372
21
-1048.80199209787
31
1.49627031167832e-005
  0
LINE
 8
GROUP0
10
858.297898493435
20
-1051.70407362578
30
1.49627031167832e-005
11
858.649980021439
21
-1051.97423528418
31
1.49627031167832e-005
  0
LINE
 8
GROUP0
10
842.400000000135
20
-776.49999212972
30
3.50727973330578e-007
11
842.400000000135
21
-781.49999212972
31
3.50727973330578e-007
  0
LINE
 8
GROUP0
10
861.142053926012
20
-1050.94198447444
30
1.49627031167832e-005
11
861.199980021314
21
-1050.50199209778
31
1.49627031167832e-005
  0
LINE
 8
GROUP0
10
858.027736835011
20
-1049.65199209785
30
1.49627031167832e-005
11
857.857906116764
21
-1050.06199972116
31
1.49627031167832e-005
  0
LINE
 8
GROUP0
10
857.799980021462
20
-1050.50199209782
30
1.49627031167832e-005
11
857.857906116772
21
-1050.94198447447
31
1.49627031167832e-005
  0
LINE
 8
GROUP0
10
860.349980021338
20
-1049.02974891142
30
1.49627031167832e-005
11
859.939972398028
21
-1048.85991819318
31
1.49627031167832e-005
  0
LINE
 8
GROUP0
10
858.649980021412
20
-1049.02974891144
30
1.49627031167832e-005
11
858.297898493412
21
-1049.29991056985
31
1.49627031167832e-005
  0
LINE
 8
GROUP0
10
842.400000000135
20
-781.49999212972
30
3.50727973330578e-007
11
842.454518678072
21
-781.914102601884
31
3.50727973330578e-007
  0
LINE
 8
GROUP0
10
843.58588952797
20
-783.045473451783
30
3.50727973330578e-007
11
844.000000000134
21
-783.09999212972
31
3.50727973330578e-007
  0
LINE
 8
GROUP0
10
859.499980021372
20
-1048.80199209787
30
1.49627031167832e-005
11
859.059987644718
21
-1048.85991819319
31
1.49627031167832e-005
  0
LINE
 8
GROUP0
10
842.454518678072
20
-781.914102601884
30
3.50727973330578e-007
11
842.614359354079
21
-782.29999212972
31
3.50727973330578e-007
  0
LINE
 8
GROUP0
10
830.142073904831
20
-1081.94198447446
30
8.94182799715537e-007
11
830.200000000139
21
-1081.50199209779
31
8.94182799715537e-007
  0
LINE
 8
GROUP0
10
842.868629150236
20
-782.631362979619
30
3.50727973330578e-007
11
843.200000000135
21
-782.885632775775
31
3.50727973330578e-007
  0
LINE
 8
GROUP0
10
843.200000000135
20
-782.885632775775
30
3.50727973330578e-007
11
843.58588952797
21
-783.045473451783
31
3.50727973330578e-007
  0
LINE
 8
GROUP0
10
829.350000000139
20
-1049.02974891135
30
3.53372109263006e-007
11
828.939992376814
21
-1048.85991819309
31
3.53372109263006e-007
  0
LINE
 8
GROUP0
10
858.297898493412
20
-1049.29991056985
30
1.49627031167832e-005
11
858.027736835011
21
-1049.65199209785
31
1.49627031167832e-005
  0
LINE
 8
GROUP0
10
842.614359354079
20
-782.29999212972
30
3.50727973330578e-007
11
842.868629150236
21
-782.631362979619
31
3.50727973330578e-007
  0
LINE
 8
GROUP0
10
828.500000000139
20
-1052.20199209779
30
3.53372109263006e-007
11
828.939992376814
21
-1052.14406600248
31
3.53372109263006e-007
  0
LINE
 8
GROUP0
10
830.142073904831
20
-1050.06199972111
30
3.53372109263006e-007
11
829.972243186573
21
-1049.65199209779
31
3.53372109263006e-007
  0
LINE
 8
GROUP0
10
826.800000000139
20
-1050.50199209779
30
3.53372109263006e-007
11
826.857926095448
21
-1050.94198447446
31
3.53372109263006e-007
  0
LINE
 8
GROUP0
10
861.142053926004
20
-1050.06199972113
30
1.49627031167832e-005
11
860.97222320775
21
-1049.65199209782
31
1.49627031167832e-005
  0
LINE
 8
GROUP0
10
857.857906116772
20
-1050.94198447447
30
1.49627031167832e-005
11
858.027736835027
21
-1051.35199209778
31
1.49627031167832e-005
  0
LINE
 8
GROUP0
10
859.059987644748
20
-1052.14406600242
30
1.49627031167832e-005
11
859.499980021404
21
-1052.20199209773
31
1.49627031167832e-005
  0
LINE
 8
GROUP0
10
859.059987644718
20
-1048.85991819319
30
1.49627031167832e-005
11
858.649980021412
21
-1049.02974891144
31
1.49627031167832e-005
  0
LINE
 8
GROUP0
10
857.857906116764
20
-1050.06199972116
30
1.49627031167832e-005
11
857.799980021462
21
-1050.50199209782
31
1.49627031167832e-005
  0
LINE
 8
GROUP0
10
860.702061549364
20
-1051.70407362575
30
1.49627031167832e-005
11
860.972223207765
21
-1051.35199209775
31
1.49627031167832e-005
  0
LINE
 8
GROUP0
10
860.972223207765
20
-1051.35199209775
30
1.49627031167832e-005
11
861.142053926012
21
-1050.94198447444
31
1.49627031167832e-005
  0
LINE
 8
GROUP0
10
860.702061549342
20
-1049.29991056982
30
1.49627031167832e-005
11
860.349980021338
21
-1049.02974891142
31
1.49627031167832e-005
  0
LINE
 8
GROUP0
10
860.97222320775
20
-1049.65199209782
30
1.49627031167832e-005
11
860.702061549342
21
-1049.29991056982
31
1.49627031167832e-005
  0
LINE
 8
GROUP0
10
828.500000000139
20
-1048.80199209779
30
3.53372109263006e-007
11
828.060007623465
21
-1048.85991819309
31
3.53372109263006e-007
  0
LINE
 8
GROUP0
10
859.939972398058
20
-1052.14406600242
30
1.49627031167832e-005
11
860.349980021365
21
-1051.97423528416
31
1.49627031167832e-005
  0
LINE
 8
GROUP0
10
845.385640646189
20
-782.29999212972
30
3.50727973330578e-007
11
845.545481322197
21
-781.914102601884
31
3.50727973330578e-007
  0
LINE
 8
GROUP0
10
842.454518678072
20
-776.085881657556
30
3.50727973330578e-007
11
842.400000000135
21
-776.49999212972
31
3.50727973330578e-007
  0
LINE
 8
GROUP0
10
845.131370850033
20
-775.368621279822
30
3.50727973330578e-007
11
844.800000000135
21
-775.114351483665
31
3.50727973330578e-007
  0
LINE
 8
GROUP0
10
1087.54548132226
20
-781.914102601884
30
3.50727973330578e-007
11
1087.6000000002
21
-781.49999212972
31
3.50727973330578e-007
  0
LINE
 8
GROUP0
10
842.614359354079
20
-775.69999212972
30
3.50727973330578e-007
11
842.454518678072
21
-776.085881657556
31
3.50727973330578e-007
  0
LINE
 8
GROUP0
10
845.545481322197
20
-781.914102601884
30
3.50727973330578e-007
11
845.600000000135
21
-781.49999212972
31
3.50727973330578e-007
  0
LINE
 8
GROUP0
10
1084.4000000002
20
-781.49999212972
30
3.50727973330578e-007
11
1084.45451867813
21
-781.914102601884
31
3.50727973330578e-007
  0
LINE
 8
GROUP0
10
1086.8000000002
20
-782.885632775775
30
3.50727973330578e-007
11
1087.1313708501
21
-782.631362979619
31
3.50727973330578e-007
  0
LINE
 8
GROUP0
10
844.414110472299
20
-774.954510807658
30
3.50727973330578e-007
11
844.000000000134
21
-774.89999212972
31
3.50727973330578e-007
  0
LINE
 8
GROUP0
10
1085.2000000002
20
-782.885632775775
30
3.50727973330578e-007
11
1085.58588952803
21
-783.045473451783
31
3.50727973330578e-007
  0
LINE
 8
GROUP0
10
1084.45451867814
20
-776.085881657556
30
3.50727973330578e-007
11
1084.4000000002
21
-776.49999212972
31
3.50727973330578e-007
  0
LINE
 8
GROUP0
10
1084.4000000002
20
-776.49999212972
30
3.50727973330578e-007
11
1084.4000000002
21
-781.49999212972
31
3.50727973330578e-007
  0
LINE
 8
GROUP0
10
844.800000000135
20
-782.885632775775
30
3.50727973330578e-007
11
845.131370850033
21
-782.631362979619
31
3.50727973330578e-007
  0
LINE
 8
GROUP0
10
845.545481322197
20
-776.085881657556
30
3.50727973330578e-007
11
845.385640646189
21
-775.69999212972
31
3.50727973330578e-007
  0
LINE
 8
GROUP0
10
843.200000000135
20
-775.114351483665
30
3.50727973330578e-007
11
842.868629150236
21
-775.368621279822
31
3.50727973330578e-007
  0
LINE
 8
GROUP0
10
861.199980021314
20
-1050.50199209778
30
1.49627031167832e-005
11
861.142053926004
21
-1050.06199972113
31
1.49627031167832e-005
  0
LINE
 8
GROUP0
10
845.131370850033
20
-782.631362979619
30
3.50727973330578e-007
11
845.385640646189
21
-782.29999212972
31
3.50727973330578e-007
  0
LINE
 8
GROUP0
10
1087.38564064625
20
-782.29999212972
30
3.50727973330578e-007
11
1087.54548132226
21
-781.914102601884
31
3.50727973330578e-007
  0
LINE
 8
GROUP0
10
1084.45451867813
20
-781.914102601884
30
3.50727973330578e-007
11
1084.61435935414
21
-782.29999212972
31
3.50727973330578e-007
  0
LINE
 8
GROUP0
10
858.027736835027
20
-1051.35199209778
30
1.49627031167832e-005
11
858.297898493435
21
-1051.70407362578
31
1.49627031167832e-005
  0
LINE
 8
GROUP0
10
845.385640646189
20
-775.69999212972
30
3.50727973330578e-007
11
845.131370850033
21
-775.368621279822
31
3.50727973330578e-007
  0
LINE
 8
GROUP0
10
842.868629150236
20
-775.368621279822
30
3.50727973330578e-007
11
842.614359354079
21
-775.69999212972
31
3.50727973330578e-007
  0
LINE
 8
GROUP0
10
1084.61435935414
20
-782.29999212972
30
3.50727973330578e-007
11
1084.8686291503
21
-782.631362979619
31
3.50727973330578e-007
  0
LINE
 8
GROUP0
10
843.58588952797
20
-774.954510807658
30
3.50727973330578e-007
11
843.200000000135
21
-775.114351483665
31
3.50727973330578e-007
  0
LINE
 8
GROUP0
10
1085.58588952803
20
-783.045473451783
30
3.50727973330578e-007
11
1086.0000000002
21
-783.09999212972
31
3.50727973330578e-007
  0
LINE
 8
GROUP0
10
844.414110472299
20
-783.045473451783
30
3.50727973330578e-007
11
844.800000000135
21
-782.885632775775
31
3.50727973330578e-007
  0
LINE
 8
GROUP0
10
858.649980021439
20
-1051.97423528418
30
1.49627031167832e-005
11
859.059987644748
21
-1052.14406600242
31
1.49627031167832e-005
  0
LINE
 8
GROUP0
10
1084.8686291503
20
-782.631362979619
30
3.50727973330578e-007
11
1085.2000000002
21
-782.885632775775
31
3.50727973330578e-007
  0
LINE
 8
GROUP0
10
860.349980021365
20
-1051.97423528416
30
1.49627031167832e-005
11
860.702061549364
21
-1051.70407362575
31
1.49627031167832e-005
  0
LINE
 8
GROUP0
10
859.499980021404
20
-1052.20199209773
30
1.49627031167832e-005
11
859.939972398058
21
-1052.14406600242
31
1.49627031167832e-005
  0
LINE
 8
GROUP0
10
1087.1313708501
20
-782.631362979619
30
3.50727973330578e-007
11
1087.38564064625
21
-782.29999212972
31
3.50727973330578e-007
  0
LINE
 8
GROUP0
10
845.600000000135
20
-776.49999212972
30
3.50727973330578e-007
11
845.600000000135
21
-781.49999212972
31
3.50727973330578e-007
  0
LINE
 8
GROUP0
10
1085.2000000002
20
-775.114351483665
30
3.50727973330578e-007
11
1084.8686291503
21
-775.368621279822
31
3.50727973330578e-007
  0
LINE
 8
GROUP0
10
1087.6000000002
20
-776.49999212972
30
3.50727973330578e-007
11
1087.6000000002
21
-781.49999212972
31
3.50727973330578e-007
  0
LINE
 8
GROUP0
10
814.000000000069
20
-752.99999212972
30
3.50727973330578e-007
11
813.999999999998
21
-1105.99999606486
31
3.50727973330578e-007
  0
LINE
 8
GROUP0
10
1122.00000000007
20
-748.99999212972
30
3.50727973330578e-007
11
818.000000000069
21
-748.99999212972
31
3.50727973330578e-007
  0
LINE
 8
GROUP0
10
1084.61435935414
20
-775.69999212972
30
3.50727973330578e-007
11
1084.45451867814
21
-776.085881657556
31
3.50727973330578e-007
  0
LINE
 8
GROUP0
10
1085.58588952803
20
-774.954510807658
30
3.50727973330578e-007
11
1085.2000000002
21
-775.114351483665
31
3.50727973330578e-007
  0
LINE
 8
GROUP0
10
845.600000000135
20
-776.49999212972
30
3.50727973330578e-007
11
845.545481322197
21
-776.085881657556
31
3.50727973330578e-007
  0
LINE
 8
GROUP0
10
1086.8000000002
20
-775.114351483665
30
3.50727973330578e-007
11
1086.41411047236
21
-774.954510807658
31
3.50727973330578e-007
  0
LINE
 8
GROUP0
10
1086.41411047236
20
-774.954510807658
30
3.50727973330578e-007
11
1086.0000000002
21
-774.89999212972
31
3.50727973330578e-007
  0
LINE
 8
GROUP0
10
1125.86370330523
20
-751.96471594931
30
3.50727973330578e-007
11
1126.00000000007
21
-752.99999212972
31
3.50727973330578e-007
  0
LINE
 8
GROUP0
10
1086.41411047236
20
-783.045473451783
30
3.50727973330578e-007
11
1086.8000000002
21
-782.885632775775
31
3.50727973330578e-007
  0
LINE
 8
GROUP0
10
815.999999999998
20
-1109.46409768
30
3.50727973330578e-007
11
815.171572875252
21
-1108.82842318961
31
3.50727973330578e-007
  0
LINE
 8
GROUP0
10
1086.0000000002
20
-783.09999212972
30
3.50727973330578e-007
11
1086.41411047236
21
-783.045473451783
31
3.50727973330578e-007
  0
LINE
 8
GROUP0
10
1125.46410161521
20
-750.99999212972
30
3.50727973330578e-007
11
1125.86370330523
21
-751.96471594931
31
3.50727973330578e-007
  0
LINE
 8
GROUP0
10
814.53589838486
20
-1107.99999606486
30
3.50727973330578e-007
11
814.136296694842
21
-1107.03527224527
31
3.50727973330578e-007
  0
LINE
 8
GROUP0
10
814.136296694842
20
-1107.03527224527
30
3.50727973330578e-007
11
813.999999999998
21
-1105.99999606486
31
3.50727973330578e-007
  0
LINE
 8
GROUP0
10
1087.1313708501
20
-775.368621279822
30
3.50727973330578e-007
11
1086.8000000002
21
-775.114351483665
31
3.50727973330578e-007
  0
LINE
 8
GROUP0
10
1087.54548132226
20
-776.085881657556
30
3.50727973330578e-007
11
1087.38564064625
21
-775.69999212972
31
3.50727973330578e-007
  0
LINE
 8
GROUP0
10
1084.8686291503
20
-775.368621279822
30
3.50727973330578e-007
11
1084.61435935414
21
-775.69999212972
31
3.50727973330578e-007
  0
LINE
 8
GROUP0
10
814.000000000069
20
-752.99999212972
30
3.50727973330578e-007
11
814.136296694913
21
-751.96471594931
31
3.50727973330578e-007
  0
LINE
 8
GROUP0
10
1087.38564064625
20
-775.69999212972
30
3.50727973330578e-007
11
1087.1313708501
21
-775.368621279822
31
3.50727973330578e-007
  0
LINE
 8
GROUP0
10
1126.0
20
-1105.99999606486
30
3.50727973330578e-007
11
1126.00000000007
21
-752.99999212972
31
3.50727973330578e-007
  0
LINE
 8
GROUP0
10
844.800000000135
20
-775.114351483665
30
3.50727973330578e-007
11
844.414110472299
21
-774.954510807658
31
3.50727973330578e-007
  0
LINE
 8
GROUP0
10
816.964723819588
20
-1109.86369937002
30
3.50727973330578e-007
11
815.999999999998
21
-1109.46409768
31
3.50727973330578e-007
  0
LINE
 8
GROUP0
10
814.535898384932
20
-750.99999212972
30
3.50727973330578e-007
11
815.171572875323
21
-750.171565004974
31
3.50727973330578e-007
  0
LINE
 8
GROUP0
10
817.999999999998
20
-1109.99999606486
30
3.50727973330578e-007
11
816.964723819588
21
-1109.86369937002
31
3.50727973330578e-007
  0
LINE
 8
GROUP0
10
844.000000000134
20
-783.09999212972
30
3.50727973330578e-007
11
844.414110472299
21
-783.045473451783
31
3.50727973330578e-007
  0
LINE
 8
GROUP0
10
844.000000000134
20
-774.89999212972
30
3.50727973330578e-007
11
843.58588952797
21
-774.954510807658
31
3.50727973330578e-007
  0
LINE
 8
GROUP0
10
817.999999999998
20
-1109.99999606486
30
3.50727973330578e-007
11
1122.0
21
-1109.99999606486
31
3.50727973330578e-007
  0
LINE
 8
GROUP0
10
1087.6000000002
20
-776.49999212972
30
3.50727973330578e-007
11
1087.54548132226
21
-776.085881657556
31
3.50727973330578e-007
  0
LINE
 8
GROUP0
10
814.136296694913
20
-751.96471594931
30
3.50727973330578e-007
11
814.535898384932
21
-750.99999212972
31
3.50727973330578e-007
  0
LINE
 8
GROUP0
10
1086.0000000002
20
-774.89999212972
30
3.50727973330578e-007
11
1085.58588952803
21
-774.954510807658
31
3.50727973330578e-007
  0
LINE
 8
GROUP0
10
1123.03527618048
20
-749.136288824564
30
3.50727973330578e-007
11
1124.00000000007
21
-749.535890514583
31
3.50727973330578e-007
  0
LINE
 8
GROUP0
10
829.500035560797
20
-1044.02836609611
30
0.000183659132244518
11
829.500035560797
21
-844.028366096117
31
0.000183659551449455
  0
LINE
 8
GROUP0
10
1084.50000000012
20
-792.001992097485
30
3.50587290842697e-007
11
1075.50000000002
21
-792.001992097485
31
3.50587290842697e-007
  0
LINE
 8
GROUP0
10
1123.03527618041
20
-1109.86369937002
30
3.50727973330578e-007
11
1122.0
21
-1109.99999606486
31
3.50727973330578e-007
  0
LINE
 8
GROUP0
10
1124.82842712474
20
-1108.82842318961
30
3.50727973330578e-007
11
1124.0
21
-1109.46409768
31
3.50727973330578e-007
  0
LINE
 8
GROUP0
10
816.964723819659
20
-749.136288824564
30
3.50727973330578e-007
11
818.000000000069
21
-748.99999212972
31
3.50727973330578e-007
  0
LINE
 8
GROUP0
10
1110.4999644392
20
-984.971622098463
30
3.51147178268008e-007
11
1119.49996443933
21
-984.971622098463
31
3.50727973330578e-007
  0
LINE
 8
GROUP0
10
1084.50000000012
20
-1042.00199209748
30
3.50587290842697e-007
11
1084.50000000012
21
-792.001992097485
31
3.50587290842697e-007
  0
LINE
 8
GROUP0
10
1126.0
20
-1105.99999606486
30
3.50727973330578e-007
11
1125.86370330515
21
-1107.03527224527
31
3.50727973330578e-007
  0
LINE
 8
GROUP0
10
1075.50000000002
20
-792.001992097485
30
3.50587290842697e-007
11
1075.50000000002
21
-1042.00199209748
31
3.50727973330578e-007
  0
LINE
 8
GROUP0
10
1125.46410161514
20
-1107.99999606486
30
3.50727973330578e-007
11
1124.82842712474
21
-1108.82842318961
31
3.50727973330578e-007
  0
LINE
 8
GROUP0
10
815.171572875323
20
-750.171565004974
30
3.50727973330578e-007
11
816.000000000069
21
-749.535890514583
31
3.50727973330578e-007
  0
LINE
 8
GROUP0
10
816.000000000069
20
-749.535890514583
30
3.50727973330578e-007
11
816.964723819659
21
-749.136288824564
31
3.50727973330578e-007
  0
LINE
 8
GROUP0
10
815.171572875252
20
-1108.82842318961
30
3.50727973330578e-007
11
814.53589838486
21
-1107.99999606486
31
3.50727973330578e-007
  0
LINE
 8
GROUP0
10
1110.4999644392
20
-784.97162209847
30
3.50727973330578e-007
11
1110.4999644392
21
-984.971622098463
31
3.51147178268008e-007
  0
LINE
 8
GROUP0
10
1125.86370330515
20
-1107.03527224527
30
3.50727973330578e-007
11
1125.46410161514
21
-1107.99999606486
31
3.50727973330578e-007
  0
LINE
 8
GROUP0
10
854.499999999961
20
-792.001992097482
30
-1.92884410221694e-007
11
854.499999999961
21
-1042.00199209749
31
-1.92781447605483e-007
  0
LINE
 8
GROUP0
10
854.499999999961
20
-1042.00199209749
30
-1.92781447605483e-007
11
845.500000000057
21
-1042.00199209749
31
-1.92884410221694e-007
  0
LINE
 8
GROUP0
10
1119.49996443933
20
-784.97162209847
30
3.50727973330578e-007
11
1110.4999644392
21
-784.97162209847
31
3.50727973330578e-007
  0
LINE
 8
GROUP0
10
829.500035560797
20
-844.028366096117
30
0.000183659551449455
11
820.500035560669
21
-844.028366096117
31
0.000183659132244518
  0
LINE
 8
GROUP0
10
1124.82842712482
20
-750.171565004974
30
3.50727973330578e-007
11
1125.46410161521
21
-750.99999212972
31
3.50727973330578e-007
  0
LINE
 8
GROUP0
10
820.500035560669
20
-844.028366096117
30
0.000183659132244518
11
820.500035560669
21
-1044.02836609611
31
0.000183659132244518
  0
LINE
 8
GROUP0
10
1122.00000000007
20
-748.99999212972
30
3.50727973330578e-007
11
1123.03527618048
21
-749.136288824564
31
3.50727973330578e-007
  0
LINE
 8
GROUP0
10
845.500000000057
20
-1042.00199209749
30
-1.92884410221694e-007
11
845.500000000057
21
-792.001992097482
31
-1.92884410221694e-007
  0
LINE
 8
GROUP0
10
1119.49996443933
20
-984.971622098463
30
3.50727973330578e-007
11
1119.49996443933
21
-784.97162209847
31
3.50727973330578e-007
  0
LINE
 8
GROUP0
10
1124.0
20
-1109.46409768
30
3.50727973330578e-007
11
1123.03527618041
21
-1109.86369937002
31
3.50727973330578e-007
  0
LINE
 8
GROUP0
10
820.500035560669
20
-1044.02836609611
30
0.000183659132244518
11
829.500035560797
21
-1044.02836609611
31
0.000183659132244518
  0
LINE
 8
GROUP0
10
1075.50000000002
20
-1042.00199209748
30
3.50727973330578e-007
11
1084.50000000012
21
-1042.00199209748
31
3.50587290842697e-007
  0
LINE
 8
GROUP0
10
845.500000000057
20
-792.001992097482
30
-1.92884410221694e-007
11
854.499999999961
21
-792.001992097482
31
-1.92884410221694e-007
  0
LINE
 8
GROUP0
10
1124.00000000007
20
-749.535890514583
30
3.50727973330578e-007
11
1124.82842712482
21
-750.171565004974
31
3.50727973330578e-007
 0
ENDSEC
 0
EOF
