<?xml version="1.0" encoding="UTF-8"?>
<!-- Created by Vectric (http://www.vectric.com/) -->
<svg width="200.00000000mm" height="200.00000000mm" viewBox="0.00000000 0.00000000 200.00000000 200.00000000" id="svg2" version="1.1" xmlns="http://www.w3.org/2000/svg" xmlns:xlink="http://www.w3.org/1999/xlink" xmlns:inkscape="http://www.inkscape.org/namespaces/inkscape">
    <g inkscape:groupmode="layer" id="ef7b6602-cb7c-4acf-8753-40d2bcd888b8" inkscape:label="GROUP1" style="stroke:#000000;">
        <path style="fill:none;stroke-width:0.280000;stroke-linecap:round;stroke-linejoin:round;stroke-opacity:1;stroke:#000000;" d="M 93.614359,19.800000 L 93.454519,19.414110 L 93.400000,19.000000 L 93.454519,18.585890 L 93.614359,18.200000 L 93.868629,17.868629 L 94.200000,17.614359 L 94.585890,17.454519 L 95.000000,17.400000 L 95.414110,17.454519 L 95.800000,17.614359 L 96.131371,17.868629 L 96.385641,18.200000 L 96.545481,18.585890 L 96.600000,19.000000 L 96.545481,19.414110 L 96.385641,19.800000 L 96.131371,20.131371 L 95.800000,20.385641 L 95.414110,20.545481 L 95.000000,20.600000 L 94.585890,20.545481 L 94.200000,20.385641 L 93.868629,20.131371 L 93.614359,19.800000 "/>
        <path style="fill:none;stroke-width:0.280000;stroke-linecap:round;stroke-linejoin:round;stroke-opacity:1;stroke:#000000;" d="M 180.200000,192.385641 L 179.868629,192.131371 L 179.614359,191.800000 L 179.454519,191.414110 L 179.400000,191.000000 L 179.454519,190.585890 L 179.614359,190.200000 L 179.868629,189.868629 L 180.200000,189.614359 L 180.585890,189.454519 L 181.000000,189.400000 L 181.414110,189.454519 L 181.800000,189.614359 L 182.131371,189.868629 L 182.385641,190.200000 L 182.545481,190.585890 L 182.600000,191.000000 L 182.545481,191.414110 L 182.385641,191.800000 L 182.131371,192.131371 L 181.800000,192.385641 L 181.414110,192.545481 L 181.000000,192.600000 L 180.585890,192.545481 L 180.200000,192.385641 "/>
        <path style="fill:none;stroke-width:0.280000;stroke-linecap:round;stroke-linejoin:round;stroke-opacity:1;stroke:#000000;" d="M 7.868629,192.131371 L 7.614359,191.800000 L 7.454519,191.414110 L 7.400000,191.000000 L 7.454519,190.585890 L 7.614359,190.200000 L 7.868629,189.868629 L 8.200000,189.614359 L 8.585890,189.454519 L 9.000000,189.400000 L 9.414110,189.454519 L 9.800000,189.614359 L 10.131371,189.868629 L 10.385641,190.200000 L 10.545481,190.585890 L 10.600000,191.000000 L 10.545481,191.414110 L 10.385641,191.800000 L 10.131371,192.131371 L 9.800000,192.385641 L 9.414110,192.545481 L 9.000000,192.600000 L 8.585890,192.545481 L 8.200000,192.385641 L 7.868629,192.131371 "/>
        <path style="fill:none;stroke-width:0.280000;stroke-linecap:round;stroke-linejoin:round;stroke-opacity:1;stroke:#000000;" d="M 2.636039,197.363961 L 1.205771,195.500000 L 0.306668,193.329371 L 0.000000,191.000000 L 0.000000,19.000000 L 0.306668,16.670629 L 1.205771,14.500000 L 2.636039,12.636039 L 4.500000,11.205771 L 6.670629,10.306668 L 9.000000,10.000000 L 181.000000,10.000000 L 183.329371,10.306668 L 185.500000,11.205771 L 187.363961,12.636039 L 188.794229,14.500000 L 189.693332,16.670629 L 190.000000,19.000000 L 190.000000,191.000000 L 189.693332,193.329371 L 188.794229,195.500000 L 187.363961,197.363961 L 185.500000,198.794229 L 183.329371,199.693332 L 181.000000,200.000000 L 9.000000,200.000000 L 6.670629,199.693332 L 4.500000,198.794229 L 2.636039,197.363961 "/>
    </g>
</svg>
