 0
SECTION
 2
ENTITIES
  0
LINE
 8
GROUP1
10
1314.58588952784
20
-1098.9545147428
30
3.5072798743041e-007
11
1315.00000000001
21
-1098.89999606486
31
3.5072798743041e-007
  0
LINE
 8
GROUP1
10
1142.58588952784
20
-1102.04547738692
30
3.5072798743041e-007
11
1142.20000000001
21
-1101.88563671092
31
3.5072798743041e-007
  0
LINE
 8
GROUP1
10
1316.54548132207
20
-1100.0858855927
30
3.5072798743041e-007
11
1316.60000000001
21
-1100.49999606486
31
3.5072798743041e-007
  0
LINE
 8
GROUP1
10
1144.1313708499
20
-1101.63136691476
30
3.5072798743041e-007
11
1143.80000000001
21
-1101.88563671092
31
3.5072798743041e-007
  0
LINE
 8
GROUP1
10
1143.41411047217
20
-1102.04547738692
30
3.5072798743041e-007
11
1143.00000000001
21
-1102.09999606486
31
3.5072798743041e-007
  0
LINE
 8
GROUP1
10
1313.61435935395
20
-1099.69999606486
30
3.5072798743041e-007
11
1313.86862915011
21
-1099.36862521496
31
3.5072798743041e-007
  0
LINE
 8
GROUP1
10
1313.40000000001
20
-1100.49999606486
30
3.5072798743041e-007
11
1313.45451867794
21
-1100.0858855927
31
3.5072798743041e-007
  0
LINE
 8
GROUP1
10
1313.86862915011
20
-1099.36862521496
30
3.5072798743041e-007
11
1314.20000000001
21
-1099.11435541881
31
3.5072798743041e-007
  0
LINE
 8
GROUP1
10
1313.45451867794
20
-1100.0858855927
30
3.5072798743041e-007
11
1313.61435935395
21
-1099.69999606486
31
3.5072798743041e-007
  0
LINE
 8
GROUP1
10
1315.00000000001
20
-1098.89999606486
30
3.5072798743041e-007
11
1315.41411047217
21
-1098.9545147428
31
3.5072798743041e-007
  0
LINE
 8
GROUP1
10
1141.40000000001
20
-1100.49999606486
30
3.5072798743041e-007
11
1141.45451867794
21
-1100.0858855927
31
3.5072798743041e-007
  0
LINE
 8
GROUP1
10
1313.45451867794
20
-1100.91410653702
30
3.5072798743041e-007
11
1313.40000000001
21
-1100.49999606486
31
3.5072798743041e-007
  0
LINE
 8
GROUP1
10
1316.1313708499
20
-1099.36862521496
30
3.5072798743041e-007
11
1316.38564064606
21
-1099.69999606486
31
3.5072798743041e-007
  0
LINE
 8
GROUP1
10
1143.00000000001
20
-1102.09999606486
30
3.5072798743041e-007
11
1142.58588952784
21
-1102.04547738692
31
3.5072798743041e-007
  0
LINE
 8
GROUP1
10
1144.60000000001
20
-1100.49999606486
30
3.5072798743041e-007
11
1144.54548132207
21
-1100.91410653702
31
3.5072798743041e-007
  0
LINE
 8
GROUP1
10
1314.20000000001
20
-1099.11435541881
30
3.5072798743041e-007
11
1314.58588952784
21
-1098.9545147428
31
3.5072798743041e-007
  0
LINE
 8
GROUP1
10
1141.45451867794
20
-1100.0858855927
30
3.5072798743041e-007
11
1141.61435935395
21
-1099.69999606486
31
3.5072798743041e-007
  0
LINE
 8
GROUP1
10
1141.61435935395
20
-1099.69999606486
30
3.5072798743041e-007
11
1141.86862915011
21
-1099.36862521496
31
3.5072798743041e-007
  0
LINE
 8
GROUP1
10
1144.38564064606
20
-1101.29999606486
30
3.5072798743041e-007
11
1144.1313708499
21
-1101.63136691476
31
3.5072798743041e-007
  0
LINE
 8
GROUP1
10
1230.38564064606
20
-927.69999606486
30
3.5072798743041e-007
11
1230.54548132207
21
-928.085885592696
31
3.5072798743041e-007
  0
LINE
 8
GROUP1
10
1228.58588952784
20
-930.045477386922
30
3.5072798743041e-007
11
1228.20000000001
21
-929.885636710915
31
3.5072798743041e-007
  0
LINE
 8
GROUP1
10
1144.54548132207
20
-1100.91410653702
30
3.5072798743041e-007
11
1144.38564064606
21
-1101.29999606486
31
3.5072798743041e-007
  0
LINE
 8
GROUP1
10
1315.80000000001
20
-1099.11435541881
30
3.5072798743041e-007
11
1316.1313708499
21
-1099.36862521496
31
3.5072798743041e-007
  0
LINE
 8
GROUP1
10
1316.38564064606
20
-1101.29999606486
30
3.5072798743041e-007
11
1316.1313708499
21
-1101.63136691476
31
3.5072798743041e-007
  0
LINE
 8
GROUP1
10
1229.00000000001
20
-926.89999606486
30
3.5072798743041e-007
11
1229.41411047217
21
-926.954514742798
31
3.5072798743041e-007
  0
LINE
 8
GROUP1
10
1315.00000000001
20
-1102.09999606486
30
3.5072798743041e-007
11
1314.58588952784
21
-1102.04547738692
31
3.5072798743041e-007
  0
LINE
 8
GROUP1
10
1144.38564064606
20
-1099.69999606486
30
3.5072798743041e-007
11
1144.54548132207
21
-1100.0858855927
31
3.5072798743041e-007
  0
LINE
 8
GROUP1
10
1228.20000000001
20
-927.114355418805
30
3.5072798743041e-007
11
1228.58588952784
21
-926.954514742798
31
3.5072798743041e-007
  0
LINE
 8
GROUP1
10
1142.20000000001
20
-1099.11435541881
30
3.5072798743041e-007
11
1142.58588952784
21
-1098.9545147428
31
3.5072798743041e-007
  0
LINE
 8
GROUP1
10
1227.40000000001
20
-928.49999606486
30
3.5072798743041e-007
11
1227.45451867794
21
-928.085885592696
31
3.5072798743041e-007
  0
LINE
 8
GROUP1
10
1143.80000000001
20
-1101.88563671092
30
3.5072798743041e-007
11
1143.41411047217
21
-1102.04547738692
31
3.5072798743041e-007
  0
LINE
 8
GROUP1
10
1141.86862915011
20
-1101.63136691476
30
3.5072798743041e-007
11
1141.61435935395
21
-1101.29999606486
31
3.5072798743041e-007
  0
LINE
 8
GROUP1
10
1315.80000000001
20
-1101.88563671092
30
3.5072798743041e-007
11
1315.41411047217
21
-1102.04547738692
31
3.5072798743041e-007
  0
LINE
 8
GROUP1
10
1314.58588952784
20
-1102.04547738692
30
3.5072798743041e-007
11
1314.20000000001
21
-1101.88563671092
31
3.5072798743041e-007
  0
LINE
 8
GROUP1
10
1141.61435935395
20
-1101.29999606486
30
3.5072798743041e-007
11
1141.45451867794
21
-1100.91410653702
31
3.5072798743041e-007
  0
LINE
 8
GROUP1
10
1141.45451867794
20
-1100.91410653702
30
3.5072798743041e-007
11
1141.40000000001
21
-1100.49999606486
31
3.5072798743041e-007
  0
LINE
 8
GROUP1
10
1142.20000000001
20
-1101.88563671092
30
3.5072798743041e-007
11
1141.86862915011
21
-1101.63136691476
31
3.5072798743041e-007
  0
LINE
 8
GROUP1
10
1316.1313708499
20
-1101.63136691476
30
3.5072798743041e-007
11
1315.80000000001
21
-1101.88563671092
31
3.5072798743041e-007
  0
LINE
 8
GROUP1
10
1316.60000000001
20
-1100.49999606486
30
3.5072798743041e-007
11
1316.54548132207
21
-1100.91410653702
31
3.5072798743041e-007
  0
LINE
 8
GROUP1
10
1314.20000000001
20
-1101.88563671092
30
3.5072798743041e-007
11
1313.86862915011
21
-1101.63136691476
31
3.5072798743041e-007
  0
LINE
 8
GROUP1
10
1315.41411047217
20
-1102.04547738692
30
3.5072798743041e-007
11
1315.00000000001
21
-1102.09999606486
31
3.5072798743041e-007
  0
LINE
 8
GROUP1
10
1229.41411047217
20
-926.954514742798
30
3.5072798743041e-007
11
1229.80000000001
21
-927.114355418805
31
3.5072798743041e-007
  0
LINE
 8
GROUP1
10
1316.38564064606
20
-1099.69999606486
30
3.5072798743041e-007
11
1316.54548132207
21
-1100.0858855927
31
3.5072798743041e-007
  0
LINE
 8
GROUP1
10
1229.80000000001
20
-927.114355418805
30
3.5072798743041e-007
11
1230.1313708499
21
-927.368625214962
31
3.5072798743041e-007
  0
LINE
 8
GROUP1
10
1313.61435935395
20
-1101.29999606486
30
3.5072798743041e-007
11
1313.45451867794
21
-1100.91410653702
31
3.5072798743041e-007
  0
LINE
 8
GROUP1
10
1316.54548132207
20
-1100.91410653702
30
3.5072798743041e-007
11
1316.38564064606
21
-1101.29999606486
31
3.5072798743041e-007
  0
LINE
 8
GROUP1
10
1227.86862915011
20
-929.631366914758
30
3.5072798743041e-007
11
1227.61435935395
21
-929.29999606486
31
3.5072798743041e-007
  0
LINE
 8
GROUP1
10
1229.80000000001
20
-929.885636710915
30
3.5072798743041e-007
11
1229.41411047217
21
-930.045477386922
31
3.5072798743041e-007
  0
LINE
 8
GROUP1
10
1315.41411047217
20
-1098.9545147428
30
3.5072798743041e-007
11
1315.80000000001
21
-1099.11435541881
31
3.5072798743041e-007
  0
LINE
 8
GROUP1
10
1313.86862915011
20
-1101.63136691476
30
3.5072798743041e-007
11
1313.61435935395
21
-1101.29999606486
31
3.5072798743041e-007
  0
LINE
 8
GROUP1
10
1144.54548132207
20
-1100.0858855927
30
3.5072798743041e-007
11
1144.60000000001
21
-1100.49999606486
31
3.5072798743041e-007
  0
LINE
 8
GROUP1
10
1230.1313708499
20
-929.631366914758
30
3.5072798743041e-007
11
1229.80000000001
21
-929.885636710915
31
3.5072798743041e-007
  0
LINE
 8
GROUP1
10
1228.20000000001
20
-929.885636710915
30
3.5072798743041e-007
11
1227.86862915011
21
-929.631366914758
31
3.5072798743041e-007
  0
LINE
 8
GROUP1
10
1144.1313708499
20
-1099.36862521496
30
3.5072798743041e-007
11
1144.38564064606
21
-1099.69999606486
31
3.5072798743041e-007
  0
LINE
 8
GROUP1
10
1229.41411047217
20
-930.045477386922
30
3.5072798743041e-007
11
1229.00000000001
21
-930.09999606486
31
3.5072798743041e-007
  0
LINE
 8
GROUP1
10
1227.45451867794
20
-928.085885592696
30
3.5072798743041e-007
11
1227.61435935395
21
-927.69999606486
31
3.5072798743041e-007
  0
LINE
 8
GROUP1
10
1143.80000000001
20
-1099.11435541881
30
3.5072798743041e-007
11
1144.1313708499
21
-1099.36862521496
31
3.5072798743041e-007
  0
LINE
 8
GROUP1
10
1230.60000000001
20
-928.49999606486
30
3.5072798743041e-007
11
1230.54548132207
21
-928.914106537024
31
3.5072798743041e-007
  0
LINE
 8
GROUP1
10
1227.45451867794
20
-928.914106537024
30
3.5072798743041e-007
11
1227.40000000001
21
-928.49999606486
31
3.5072798743041e-007
  0
LINE
 8
GROUP1
10
1143.41411047217
20
-1098.9545147428
30
3.5072798743041e-007
11
1143.80000000001
21
-1099.11435541881
31
3.5072798743041e-007
  0
LINE
 8
GROUP1
10
1227.61435935395
20
-929.29999606486
30
3.5072798743041e-007
11
1227.45451867794
21
-928.914106537024
31
3.5072798743041e-007
  0
LINE
 8
GROUP1
10
1228.58588952784
20
-926.954514742798
30
3.5072798743041e-007
11
1229.00000000001
21
-926.89999606486
31
3.5072798743041e-007
  0
LINE
 8
GROUP1
10
1136.63603896933
20
-922.136035034181
30
3.5072798743041e-007
11
1138.50000000001
21
-920.7057674308
31
3.5072798743041e-007
  0
LINE
 8
GROUP1
10
1319.50000000001
20
-920.7057674308
30
3.5072798743041e-007
11
1321.36396103068
21
-922.136035034181
31
3.5072798743041e-007
  0
LINE
 8
GROUP1
10
1227.86862915011
20
-927.368625214962
30
3.5072798743041e-007
11
1228.20000000001
21
-927.114355418805
31
3.5072798743041e-007
  0
LINE
 8
GROUP1
10
1229.00000000001
20
-930.09999606486
30
3.5072798743041e-007
11
1228.58588952784
21
-930.045477386922
31
3.5072798743041e-007
  0
LINE
 8
GROUP1
10
1134.00000000001
20
-928.49999606486
30
3.5072798743041e-007
11
1134.3066675634
21
-926.170624658938
31
3.5072798743041e-007
  0
LINE
 8
GROUP1
10
1142.58588952784
20
-1098.9545147428
30
3.5072798743041e-007
11
1143.00000000001
21
-1098.89999606486
31
3.5072798743041e-007
  0
LINE
 8
GROUP1
10
1230.38564064606
20
-929.29999606486
30
3.5072798743041e-007
11
1230.1313708499
21
-929.631366914758
31
3.5072798743041e-007
  0
LINE
 8
GROUP1
10
1141.86862915011
20
-1099.36862521496
30
3.5072798743041e-007
11
1142.20000000001
21
-1099.11435541881
31
3.5072798743041e-007
  0
LINE
 8
GROUP1
10
1227.61435935395
20
-927.69999606486
30
3.5072798743041e-007
11
1227.86862915011
21
-927.368625214962
31
3.5072798743041e-007
  0
LINE
 8
GROUP1
10
1317.32937140593
20
-919.806663628258
30
3.5072798743041e-007
11
1319.50000000001
21
-920.7057674308
31
3.5072798743041e-007
  0
LINE
 8
GROUP1
10
1322.79422863407
20
-1104.99999606486
30
3.5072798743041e-007
11
1321.36396103068
21
-1106.86395709554
31
3.5072798743041e-007
  0
LINE
 8
GROUP1
10
1138.50000000001
20
-1108.29422469892
30
3.5072798743041e-007
11
1136.63603896933
21
-1106.86395709554
31
3.5072798743041e-007
  0
LINE
 8
GROUP1
10
1143.00000000001
20
-1098.89999606486
30
3.5072798743041e-007
11
1143.41411047217
21
-1098.9545147428
31
3.5072798743041e-007
  0
LINE
 8
GROUP1
10
1136.63603896933
20
-1106.86395709554
30
3.5072798743041e-007
11
1135.20577136595
21
-1104.99999606486
31
3.5072798743041e-007
  0
LINE
 8
GROUP1
10
1135.20577136595
20
-923.99999606486
30
3.5072798743041e-007
11
1136.63603896933
21
-922.136035034181
31
3.5072798743041e-007
  0
LINE
 8
GROUP1
10
1230.54548132207
20
-928.914106537024
30
3.5072798743041e-007
11
1230.38564064606
21
-929.29999606486
31
3.5072798743041e-007
  0
LINE
 8
GROUP1
10
1134.3066675634
20
-1102.82936747078
30
3.5072798743041e-007
11
1134.00000000001
21
-1100.49999606486
31
3.5072798743041e-007
  0
LINE
 8
GROUP1
10
1322.79422863407
20
-923.99999606486
30
3.5072798743041e-007
11
1323.69333243661
21
-926.170624658938
31
3.5072798743041e-007
  0
LINE
 8
GROUP1
10
1135.20577136595
20
-1104.99999606486
30
3.5072798743041e-007
11
1134.3066675634
21
-1102.82936747078
31
3.5072798743041e-007
  0
LINE
 8
GROUP1
10
1230.1313708499
20
-927.368625214962
30
3.5072798743041e-007
11
1230.38564064606
21
-927.69999606486
31
3.5072798743041e-007
  0
LINE
 8
GROUP1
10
1323.69333243661
20
-1102.82936747078
30
3.5072798743041e-007
11
1322.79422863407
21
-1104.99999606486
31
3.5072798743041e-007
  0
LINE
 8
GROUP1
10
1315.00000000001
20
-919.49999606486
30
3.5072798743041e-007
11
1143.00000000001
21
-919.49999606486
31
3.5072798743041e-007
  0
LINE
 8
GROUP1
10
1230.54548132207
20
-928.085885592696
30
3.5072798743041e-007
11
1230.60000000001
21
-928.49999606486
31
3.5072798743041e-007
  0
LINE
 8
GROUP1
10
1138.50000000001
20
-920.7057674308
30
3.5072798743041e-007
11
1140.67062859408
21
-919.806663628259
31
3.5072798743041e-007
  0
LINE
 8
GROUP1
10
1143.00000000001
20
-1109.49999606486
30
3.5072798743041e-007
11
1140.67062859408
21
-1109.19332850146
31
3.5072798743041e-007
  0
LINE
 8
GROUP1
10
1321.36396103068
20
-1106.86395709554
30
3.5072798743041e-007
11
1319.50000000001
21
-1108.29422469892
31
3.5072798743041e-007
  0
LINE
 8
GROUP1
10
1321.36396103068
20
-922.136035034181
30
3.5072798743041e-007
11
1322.79422863407
21
-923.99999606486
31
3.5072798743041e-007
  0
LINE
 8
GROUP1
10
1323.69333243661
20
-926.170624658938
30
3.5072798743041e-007
11
1324.00000000001
21
-928.49999606486
31
3.5072798743041e-007
  0
LINE
 8
GROUP1
10
1324.00000000001
20
-1100.49999606486
30
3.5072798743041e-007
11
1324.00000000001
21
-928.49999606486
31
3.5072798743041e-007
  0
LINE
 8
GROUP1
10
1324.00000000001
20
-1100.49999606486
30
3.5072798743041e-007
11
1323.69333243661
21
-1102.82936747078
31
3.5072798743041e-007
  0
LINE
 8
GROUP1
10
1140.67062859408
20
-1109.19332850146
30
3.5072798743041e-007
11
1138.50000000001
21
-1108.29422469892
31
3.5072798743041e-007
  0
LINE
 8
GROUP1
10
1134.00000000001
20
-928.49999606486
30
3.5072798743041e-007
11
1134.00000000001
21
-1100.49999606486
31
3.5072798743041e-007
  0
LINE
 8
GROUP1
10
1319.50000000001
20
-1108.29422469892
30
3.5072798743041e-007
11
1317.32937140593
21
-1109.19332850146
31
3.5072798743041e-007
  0
LINE
 8
GROUP1
10
1140.67062859408
20
-919.806663628259
30
3.5072798743041e-007
11
1143.00000000001
21
-919.49999606486
31
3.5072798743041e-007
  0
LINE
 8
GROUP1
10
1134.3066675634
20
-926.170624658938
30
3.5072798743041e-007
11
1135.20577136595
21
-923.99999606486
31
3.5072798743041e-007
  0
LINE
 8
GROUP1
10
1315.00000000001
20
-919.49999606486
30
3.5072798743041e-007
11
1317.32937140593
21
-919.806663628258
31
3.5072798743041e-007
  0
LINE
 8
GROUP1
10
1317.32937140593
20
-1109.19332850146
30
3.5072798743041e-007
11
1315.00000000001
21
-1109.49999606486
31
3.5072798743041e-007
  0
LINE
 8
GROUP1
10
1143.00000000001
20
-1109.49999606486
30
3.5072798743041e-007
11
1315.00000000001
21
-1109.49999606486
31
3.5072798743041e-007
 0
ENDSEC
 0
EOF
