solid FoldaRapX
facet normal -1.0 0.0 0.0
outer loop
vertex 588.117376420508 -327.773039787067 10.0000000000012
vertex 588.117376420508 -326.023039787069 0.500000000000944
vertex 588.117376420508 -327.773039787069 0.500000000001192
endloop
endfacet
facet normal -1.0 0.0 0.0
outer loop
vertex 588.117376420508 -326.023039787069 0.500000000000944
vertex 588.117376420508 -327.773039787067 10.0000000000012
vertex 588.117376420508 -326.023039787067 10.0000000000009
endloop
endfacet
facet normal -0.707106781186524 0.707106781186571 -1.05785662241818e-013
outer loop
vertex 589.117376420508 -319.77303978974 9.99999999999998
vertex 588.117376420508 -320.773039789741 0.50000000000016
vertex 588.117376420508 -320.77303978974 10.0000000000001
endloop
endfacet
facet normal -0.707106781186524 0.707106781186571 -1.05785662241818e-013
outer loop
vertex 588.117376420508 -320.773039789741 0.50000000000016
vertex 589.117376420508 -319.77303978974 9.99999999999998
vertex 589.117376420508 -319.773039789742 0.499999999999999
endloop
endfacet
facet normal 5.28107192425262e-028 1.0 -1.42482517012947e-013
outer loop
vertex 604.867376420508 -325.773039787067 10.0000000000009
vertex 593.367376420508 -325.773039787069 0.500000000000905
vertex 593.367376420508 -325.773039787067 10.0000000000009
endloop
endfacet
facet normal 5.28107192425262e-028 1.0 -1.42482517012947e-013
outer loop
vertex 593.367376420508 -325.773039787069 0.500000000000905
vertex 604.867376420508 -325.773039787067 10.0000000000009
vertex 604.867376420508 -325.773039787069 0.500000000000948
endloop
endfacet
facet normal -5.40766169184113e-028 -1.0 1.47231934246712e-013
outer loop
vertex 604.867376420508 -322.773039789741 0.500000000000517
vertex 593.367376420508 -322.77303978974 10.0000000000005
vertex 593.367376420508 -322.773039789741 0.500000000000475
endloop
endfacet
facet normal -5.40766169184113e-028 -1.0 1.47231934246712e-013
outer loop
vertex 593.367376420508 -322.77303978974 10.0000000000005
vertex 604.867376420508 -322.773039789741 0.500000000000517
vertex 604.867376420508 -322.77303978974 10.0000000000005
endloop
endfacet
facet normal -0.447213595499926 -0.894427190999932 1.31688179872006e-013
outer loop
vertex 589.117376420508 -323.023039789742 0.500000000000511
vertex 588.117376420508 -322.52303978974 10.0000000000004
vertex 588.117376420508 -322.523039789742 0.500000000000439
endloop
endfacet
facet normal -0.447213595499926 -0.894427190999932 1.31688179872006e-013
outer loop
vertex 588.117376420508 -322.52303978974 10.0000000000004
vertex 589.117376420508 -323.023039789742 0.500000000000511
vertex 589.117376420508 -323.02303978974 10.0000000000005
endloop
endfacet
facet normal 0.707106781186611 -0.707106781186484 1.07467061506963e-013
outer loop
vertex 593.367376420508 -322.77303978974 10.0000000000005
vertex 593.117376420508 -323.023039789742 0.500000000000511
vertex 593.367376420508 -322.773039789741 0.500000000000475
endloop
endfacet
facet normal 0.707106781186611 -0.707106781186484 1.07467061506963e-013
outer loop
vertex 593.117376420508 -323.023039789742 0.500000000000511
vertex 593.367376420508 -322.77303978974 10.0000000000005
vertex 593.117376420508 -323.02303978974 10.0000000000005
endloop
endfacet
facet normal -8.10916249549531e-032 1.0 -1.47231934246712e-013
outer loop
vertex 593.117376420508 -325.523039787067 10.0000000000009
vertex 589.117376420508 -325.523039787069 0.50000000000087
vertex 589.117376420508 -325.523039787067 10.0000000000009
endloop
endfacet
facet normal -8.10916249549531e-032 1.0 -1.47231934246712e-013
outer loop
vertex 589.117376420508 -325.523039787069 0.50000000000087
vertex 593.117376420508 -325.523039787067 10.0000000000009
vertex 593.117376420508 -325.523039787069 0.50000000000087
endloop
endfacet
facet normal 0.707106781186516 0.707106781186579 -9.57126118853632e-014
outer loop
vertex 593.367376420508 -325.773039787067 10.0000000000009
vertex 593.117376420508 -325.523039787069 0.50000000000087
vertex 593.117376420508 -325.523039787067 10.0000000000009
endloop
endfacet
facet normal 0.707106781186516 0.707106781186579 -9.57126118853632e-014
outer loop
vertex 593.117376420508 -325.523039787069 0.50000000000087
vertex 593.367376420508 -325.773039787067 10.0000000000009
vertex 593.367376420508 -325.773039787069 0.500000000000905
endloop
endfacet
facet normal 8.10916249533374e-032 -1.0 1.47231934246712e-013
outer loop
vertex 593.117376420508 -323.023039789742 0.500000000000511
vertex 589.117376420508 -323.02303978974 10.0000000000005
vertex 589.117376420508 -323.023039789742 0.500000000000511
endloop
endfacet
facet normal 8.10916249533374e-032 -1.0 1.47231934246712e-013
outer loop
vertex 589.117376420508 -323.02303978974 10.0000000000005
vertex 593.117376420508 -323.023039789742 0.500000000000511
vertex 593.117376420508 -323.02303978974 10.0000000000005
endloop
endfacet
facet normal -0.447213595499926 0.894427190999932 -1.31685406963879e-013
outer loop
vertex 589.117376420508 -325.523039787067 10.0000000000009
vertex 588.117376420508 -326.023039787069 0.500000000000944
vertex 588.117376420508 -326.023039787067 10.0000000000009
endloop
endfacet
facet normal -0.447213595499926 0.894427190999932 -1.31685406963879e-013
outer loop
vertex 588.117376420508 -326.023039787069 0.500000000000944
vertex 589.117376420508 -325.523039787067 10.0000000000009
vertex 589.117376420508 -325.523039787069 0.50000000000087
endloop
endfacet
facet normal -7.56897061806876e-015 1.51675609159086e-013 1.0
outer loop
vertex 589.117376420508 -323.02303978974 10.0000000000005
vertex 593.367376420508 -322.77303978974 10.0000000000005
vertex 588.117376420508 -322.52303978974 10.0000000000004
endloop
endfacet
facet normal -7.56897061806876e-015 1.51675609159086e-013 1.0
outer loop
vertex 593.367376420508 -322.77303978974 10.0000000000005
vertex 589.117376420508 -323.02303978974 10.0000000000005
vertex 593.117376420508 -323.02303978974 10.0000000000005
endloop
endfacet
facet normal -7.56897061806876e-015 1.51675609159086e-013 1.0
outer loop
vertex 588.117376420508 -326.023039787067 10.0000000000009
vertex 593.117376420508 -325.523039787067 10.0000000000009
vertex 589.117376420508 -325.523039787067 10.0000000000009
endloop
endfacet
facet normal -7.56897061806876e-015 1.51675609159086e-013 1.0
outer loop
vertex 593.117376420508 -325.523039787067 10.0000000000009
vertex 588.117376420508 -326.023039787067 10.0000000000009
vertex 593.367376420508 -325.773039787067 10.0000000000009
endloop
endfacet
facet normal -7.56897061806876e-015 1.51675609159086e-013 1.0
outer loop
vertex 593.367376420508 -325.773039787067 10.0000000000009
vertex 588.117376420508 -326.023039787067 10.0000000000009
vertex 604.867376420508 -325.773039787067 10.0000000000009
endloop
endfacet
facet normal -7.56897061806876e-015 1.51675609159086e-013 1.0
outer loop
vertex 588.117376420508 -320.77303978974 10.0000000000001
vertex 610.117376420508 -319.77303978974 10.0000000000002
vertex 589.117376420508 -319.77303978974 9.99999999999998
endloop
endfacet
facet normal -7.56897061806876e-015 1.51675609159086e-013 1.0
outer loop
vertex 610.117376420508 -319.77303978974 10.0000000000002
vertex 588.117376420508 -320.77303978974 10.0000000000001
vertex 610.635014510713 -319.841188137162 10.0000000000002
endloop
endfacet
facet normal -7.56897061806876e-015 1.51675609159086e-013 1.0
outer loop
vertex 610.635014510713 -319.841188137162 10.0000000000002
vertex 588.117376420508 -320.77303978974 10.0000000000001
vertex 611.117376420508 -320.040988982171 10.0000000000002
endloop
endfacet
facet normal -7.56897061806876e-015 1.51675609159086e-013 1.0
outer loop
vertex 611.117376420508 -320.040988982171 10.0000000000002
vertex 588.117376420508 -320.77303978974 10.0000000000001
vertex 611.531589982881 -320.358826227367 10.0000000000003
endloop
endfacet
facet normal -7.56897061806876e-015 1.51675609159086e-013 1.0
outer loop
vertex 611.531589982881 -320.358826227367 10.0000000000003
vertex 588.117376420508 -320.77303978974 10.0000000000001
vertex 611.849427228077 -320.77303978974 10.0000000000003
endloop
endfacet
facet normal -7.56897061806876e-015 1.51675609159086e-013 1.0
outer loop
vertex 611.849427228077 -320.77303978974 10.0000000000003
vertex 588.117376420508 -320.77303978974 10.0000000000001
vertex 588.117376420508 -322.52303978974 10.0000000000004
endloop
endfacet
facet normal -7.56897061806876e-015 1.51675609159086e-013 1.0
outer loop
vertex 611.849427228077 -320.77303978974 10.0000000000003
vertex 588.117376420508 -322.52303978974 10.0000000000004
vertex 612.049228073086 -321.255401699535 10.0000000000004
endloop
endfacet
facet normal -7.56897061806876e-015 1.51675609159086e-013 1.0
outer loop
vertex 612.049228073086 -321.255401699535 10.0000000000004
vertex 588.117376420508 -322.52303978974 10.0000000000004
vertex 612.117376420508 -321.77303978974 10.0000000000005
endloop
endfacet
facet normal -7.56897061806876e-015 1.51675609159086e-013 1.0
outer loop
vertex 612.117376420508 -321.77303978974 10.0000000000005
vertex 588.117376420508 -322.52303978974 10.0000000000004
vertex 604.867376420508 -322.77303978974 10.0000000000005
endloop
endfacet
facet normal -7.56897061806876e-015 1.51675609159086e-013 1.0
outer loop
vertex 612.117376420508 -321.77303978974 10.0000000000005
vertex 604.867376420508 -322.77303978974 10.0000000000005
vertex 605.255604986016 -322.824151049779 10.0000000000005
endloop
endfacet
facet normal -7.56897061806876e-015 1.51675609159086e-013 1.0
outer loop
vertex 612.117376420508 -321.77303978974 10.0000000000005
vertex 605.255604986016 -322.824151049779 10.0000000000005
vertex 605.617376416613 -322.974001682022 10.0000000000005
endloop
endfacet
facet normal -7.56897061806876e-015 1.51675609159086e-013 1.0
outer loop
vertex 612.117376420508 -321.77303978974 10.0000000000005
vertex 605.617376416613 -322.974001682022 10.0000000000005
vertex 612.117376420508 -326.773039787067 10.0000000000013
endloop
endfacet
facet normal -7.56897061806876e-015 1.51675609159086e-013 1.0
outer loop
vertex 604.867376420508 -322.77303978974 10.0000000000005
vertex 588.117376420508 -322.52303978974 10.0000000000004
vertex 593.367376420508 -322.77303978974 10.0000000000005
endloop
endfacet
facet normal -7.56897061806876e-015 1.51675609159086e-013 1.0
outer loop
vertex 612.117376420508 -326.773039787067 10.0000000000013
vertex 605.617376416613 -322.974001682022 10.0000000000005
vertex 605.928036587391 -323.212379613618 10.0000000000006
endloop
endfacet
facet normal -7.56897061806876e-015 1.51675609159086e-013 1.0
outer loop
vertex 612.117376420508 -326.773039787067 10.0000000000013
vertex 605.928036587391 -323.212379613618 10.0000000000006
vertex 606.166414521302 -323.523039782619 10.0000000000006
endloop
endfacet
facet normal -7.56897061806876e-015 1.51675609159086e-013 1.0
outer loop
vertex 612.117376420508 -326.773039787067 10.0000000000013
vertex 606.166414521302 -323.523039782619 10.0000000000006
vertex 606.31626515624 -323.8848112121 10.0000000000007
endloop
endfacet
facet normal -7.56897061806876e-015 1.51675609159086e-013 1.0
outer loop
vertex 612.117376420508 -326.773039787067 10.0000000000013
vertex 606.31626515624 -323.8848112121 10.0000000000007
vertex 606.367376419171 -324.273039777228 10.0000000000007
endloop
endfacet
facet normal -7.56897061806876e-015 1.51675609159086e-013 1.0
outer loop
vertex 612.117376420508 -326.773039787067 10.0000000000013
vertex 606.367376419171 -324.273039777228 10.0000000000007
vertex 606.316265162025 -324.661268343117 10.0000000000008
endloop
endfacet
facet normal -7.56897061806876e-015 1.51675609159086e-013 1.0
outer loop
vertex 612.117376420508 -326.773039787067 10.0000000000013
vertex 606.316265162025 -324.661268343117 10.0000000000008
vertex 606.166414532477 -325.023039774831 10.0000000000008
endloop
endfacet
facet normal -7.56897061806876e-015 1.51675609159086e-013 1.0
outer loop
vertex 612.117376420508 -326.773039787067 10.0000000000013
vertex 606.166414532477 -325.023039774831 10.0000000000008
vertex 605.928036603196 -325.333699947385 10.0000000000009
endloop
endfacet
facet normal -7.56897061806876e-015 1.51675609159086e-013 1.0
outer loop
vertex 612.117376420508 -326.773039787067 10.0000000000013
vertex 605.928036603196 -325.333699947385 10.0000000000009
vertex 605.617376435971 -325.57207788361 10.0000000000009
endloop
endfacet
facet normal -7.56897061806876e-015 1.51675609159086e-013 1.0
outer loop
vertex 612.117376420508 -326.773039787067 10.0000000000013
vertex 605.617376435971 -325.57207788361 10.0000000000009
vertex 605.255605007607 -325.721928521243 10.0000000000009
endloop
endfacet
facet normal -7.56897061806876e-015 1.51675609159086e-013 1.0
outer loop
vertex 612.117376420508 -326.773039787067 10.0000000000013
vertex 605.255605007607 -325.721928521243 10.0000000000009
vertex 604.867376420508 -325.773039787067 10.0000000000009
endloop
endfacet
facet normal -7.56897061806876e-015 1.51675609159086e-013 1.0
outer loop
vertex 612.117376420508 -326.773039787067 10.0000000000013
vertex 604.867376420508 -325.773039787067 10.0000000000009
vertex 588.117376420508 -326.023039787067 10.0000000000009
endloop
endfacet
facet normal -7.56897061806876e-015 1.51675609159086e-013 1.0
outer loop
vertex 612.117376420508 -326.773039787067 10.0000000000013
vertex 588.117376420508 -326.023039787067 10.0000000000009
vertex 588.117376420508 -327.773039787067 10.0000000000012
endloop
endfacet
facet normal -7.56897061806876e-015 1.51675609159086e-013 1.0
outer loop
vertex 612.117376420508 -326.773039787067 10.0000000000013
vertex 588.117376420508 -327.773039787067 10.0000000000012
vertex 612.049228073086 -327.290677877272 10.0000000000013
endloop
endfacet
facet normal -7.56897061806876e-015 1.51675609159086e-013 1.0
outer loop
vertex 612.049228073086 -327.290677877272 10.0000000000013
vertex 588.117376420508 -327.773039787067 10.0000000000012
vertex 611.849427228077 -327.773039787067 10.0000000000014
endloop
endfacet
facet normal -7.56897061806876e-015 1.51675609159086e-013 1.0
outer loop
vertex 611.849427228077 -327.773039787067 10.0000000000014
vertex 588.117376420508 -327.773039787067 10.0000000000012
vertex 589.117376420508 -328.773039787067 10.0000000000013
endloop
endfacet
facet normal -7.56897061806876e-015 1.51675609159086e-013 1.0
outer loop
vertex 611.849427228077 -327.773039787067 10.0000000000014
vertex 589.117376420508 -328.773039787067 10.0000000000013
vertex 611.531589982881 -328.18725334944 10.0000000000014
endloop
endfacet
facet normal -7.56897061806876e-015 1.51675609159086e-013 1.0
outer loop
vertex 611.531589982881 -328.18725334944 10.0000000000014
vertex 589.117376420508 -328.773039787067 10.0000000000013
vertex 611.117376420508 -328.505090594636 10.0000000000015
endloop
endfacet
facet normal -7.56897061806876e-015 1.51675609159086e-013 1.0
outer loop
vertex 611.117376420508 -328.505090594636 10.0000000000015
vertex 589.117376420508 -328.773039787067 10.0000000000013
vertex 610.635014510713 -328.704891439645 10.0000000000015
endloop
endfacet
facet normal -7.56897061806876e-015 1.51675609159086e-013 1.0
outer loop
vertex 610.635014510713 -328.704891439645 10.0000000000015
vertex 589.117376420508 -328.773039787067 10.0000000000013
vertex 610.117376420508 -328.773039787067 10.0000000000015
endloop
endfacet
facet normal 0.991444861373818 -0.130526192219993 2.0457961056781e-014
outer loop
vertex 612.117376420508 -326.773039787067 10.0000000000013
vertex 612.049228073086 -327.290677877274 0.500000000001342
vertex 612.117376420508 -326.773039787069 0.500000000001268
endloop
endfacet
facet normal 0.965925826289066 -0.25881904510253 4.0106993849404e-014
outer loop
vertex 612.049228073086 -327.290677877274 0.500000000001342
vertex 612.117376420508 -326.773039787067 10.0000000000013
vertex 612.049228073086 -327.290677877272 10.0000000000013
endloop
endfacet
facet normal 0.965925826289066 -0.258819045102528 4.01069938494037e-014
outer loop
vertex 612.049228073086 -327.290677877272 10.0000000000013
vertex 611.849427228077 -327.773039787069 0.500000000001412
vertex 612.049228073086 -327.290677877274 0.500000000001342
endloop
endfacet
facet normal 0.866025403784439 -0.499999999999999 7.79069256730277e-014
outer loop
vertex 611.849427228077 -327.773039787069 0.500000000001412
vertex 612.049228073086 -327.290677877272 10.0000000000013
vertex 611.849427228077 -327.773039787067 10.0000000000014
endloop
endfacet
facet normal 0.86602540378444 -0.499999999999997 7.79069256730274e-014
outer loop
vertex 611.849427228077 -327.773039787067 10.0000000000014
vertex 611.531589982881 -328.187253349442 0.500000000001471
vertex 611.849427228077 -327.773039787069 0.500000000001412
endloop
endfacet
facet normal 0.707106781186597 -0.707106781186498 1.13741531325372e-013
outer loop
vertex 611.531589982881 -328.187253349442 0.500000000001471
vertex 611.849427228077 -327.773039787067 10.0000000000014
vertex 611.531589982881 -328.18725334944 10.0000000000014
endloop
endfacet
facet normal 0.500000000000036 -0.866025403784418 1.393761332025e-013
outer loop
vertex 611.117376420508 -328.505090594638 0.500000000001517
vertex 611.531589982881 -328.18725334944 10.0000000000014
vertex 611.117376420508 -328.505090594636 10.0000000000015
endloop
endfacet
facet normal 0.707106781186599 -0.707106781186496 1.13741531325372e-013
outer loop
vertex 611.531589982881 -328.18725334944 10.0000000000014
vertex 611.117376420508 -328.505090594638 0.500000000001517
vertex 611.531589982881 -328.187253349442 0.500000000001471
endloop
endfacet
facet normal 0.500000000000036 -0.866025403784418 1.393761332025e-013
outer loop
vertex 611.117376420508 -328.505090594638 0.500000000001517
vertex 610.635014510713 -328.704891439645 10.0000000000015
vertex 610.635014510713 -328.704891439647 0.50000000000154
endloop
endfacet
facet normal 0.258819045102538 -0.965925826289064 1.52117155065499e-013
outer loop
vertex 610.635014510713 -328.704891439645 10.0000000000015
vertex 611.117376420508 -328.505090594638 0.500000000001517
vertex 611.117376420508 -328.505090594636 10.0000000000015
endloop
endfacet
facet normal 0.258819045102536 -0.965925826289064 1.52117155065499e-013
outer loop
vertex 610.635014510713 -328.704891439647 0.50000000000154
vertex 610.117376420508 -328.773039787067 10.0000000000015
vertex 610.117376420508 -328.773039787069 0.500000000001547
endloop
endfacet
facet normal 0.130526192220066 -0.991444861373809 1.55389897433694e-013
outer loop
vertex 610.117376420508 -328.773039787067 10.0000000000015
vertex 610.635014510713 -328.704891439647 0.50000000000154
vertex 610.635014510713 -328.704891439645 10.0000000000015
endloop
endfacet
facet normal 0.258819045102592 0.965925826289049 -1.21076991487893e-013
outer loop
vertex 610.635014510713 -319.841188137162 10.0000000000002
vertex 610.117376420508 -319.773039789741 0.500000000000207
vertex 610.117376420508 -319.77303978974 10.0000000000002
endloop
endfacet
facet normal 0.130526192220089 0.991444861373806 -1.28126581655975e-013
outer loop
vertex 610.117376420508 -319.773039789741 0.500000000000207
vertex 610.635014510713 -319.841188137162 10.0000000000002
vertex 610.635014510713 -319.841188137163 0.500000000000222
endloop
endfacet
facet normal 0.500000000000057 0.866025403784406 -1.0376955538866e-013
outer loop
vertex 611.117376420508 -320.040988982171 10.0000000000002
vertex 610.635014510713 -319.841188137163 0.500000000000222
vertex 610.635014510713 -319.841188137162 10.0000000000002
endloop
endfacet
facet normal 0.258819045102593 0.965925826289049 -1.21076991487893e-013
outer loop
vertex 610.635014510713 -319.841188137163 0.500000000000222
vertex 611.117376420508 -320.040988982171 10.0000000000002
vertex 611.117376420508 -320.040988982173 0.500000000000257
endloop
endfacet
facet normal 0.707106781186479 0.707106781186616 -7.81925571588823e-014
outer loop
vertex 611.531589982881 -320.358826227367 10.0000000000003
vertex 611.117376420508 -320.040988982173 0.500000000000257
vertex 611.117376420508 -320.040988982171 10.0000000000002
endloop
endfacet
facet normal 0.50000000000006 0.866025403784405 -1.0376955538866e-013
outer loop
vertex 611.117376420508 -320.040988982173 0.500000000000257
vertex 611.531589982881 -320.358826227367 10.0000000000003
vertex 611.531589982881 -320.358826227368 0.500000000000308
endloop
endfacet
facet normal 0.707106781186479 0.707106781186616 -7.81925571588823e-014
outer loop
vertex 611.531589982881 -320.358826227367 10.0000000000003
vertex 611.849427228077 -320.773039789741 0.500000000000373
vertex 611.531589982881 -320.358826227368 0.500000000000308
endloop
endfacet
facet normal 0.866025403784414 0.500000000000043 -4.28134543537502e-014
outer loop
vertex 611.849427228077 -320.773039789741 0.500000000000373
vertex 611.531589982881 -320.358826227367 10.0000000000003
vertex 611.849427228077 -320.77303978974 10.0000000000003
endloop
endfacet
facet normal 0.866025403784414 0.500000000000043 -4.28134543537502e-014
outer loop
vertex 611.849427228077 -320.77303978974 10.0000000000003
vertex 612.049228073086 -321.255401699536 0.500000000000448
vertex 611.849427228077 -320.773039789741 0.500000000000373
endloop
endfacet
facet normal 0.965925826289068 0.258819045102522 -6.27900218995106e-015
outer loop
vertex 612.049228073086 -321.255401699536 0.500000000000448
vertex 611.849427228077 -320.77303978974 10.0000000000003
vertex 612.049228073086 -321.255401699535 10.0000000000004
endloop
endfacet
facet normal 0.965925826289069 0.25881904510252 -6.27900218995075e-015
outer loop
vertex 612.049228073086 -321.255401699535 10.0000000000004
vertex 612.117376420508 -321.773039789741 0.500000000000525
vertex 612.049228073086 -321.255401699536 0.500000000000448
endloop
endfacet
facet normal 0.991444861373795 0.130526192220168 1.12044162238019e-014
outer loop
vertex 612.117376420508 -321.773039789741 0.500000000000525
vertex 612.049228073086 -321.255401699535 10.0000000000004
vertex 612.117376420508 -321.77303978974 10.0000000000005
endloop
endfacet
facet normal -0.258819054698107 0.965925823717939 -1.38130276738753e-013
outer loop
vertex 605.255605007607 -325.721928521243 10.0000000000009
vertex 604.867376420508 -325.773039787069 0.500000000000948
vertex 604.867376420508 -325.773039787067 10.0000000000009
endloop
endfacet
facet normal -0.130526198991331 0.991444860482355 -1.41883873701436e-013
outer loop
vertex 604.867376420508 -325.773039787069 0.500000000000948
vertex 605.255605007607 -325.721928521243 10.0000000000009
vertex 605.255605007607 -325.721928521245 0.500000000000943
endloop
endfacet
facet normal -0.500000010754 0.866025397575614 -1.23075698551416e-013
outer loop
vertex 605.617376435971 -325.57207788361 10.0000000000009
vertex 605.255605007607 -325.721928521245 0.500000000000943
vertex 605.255605007607 -325.721928521243 10.0000000000009
endloop
endfacet
facet normal -0.258819054698106 0.965925823717939 -1.38130276738753e-013
outer loop
vertex 605.255605007607 -325.721928521245 0.500000000000943
vertex 605.617376435971 -325.57207788361 10.0000000000009
vertex 605.61737643597 -325.572077883611 0.500000000000922
endloop
endfacet
facet normal -0.500000010754 0.866025397575614 -1.23075698551416e-013
outer loop
vertex 605.617376435971 -325.57207788361 10.0000000000009
vertex 605.928036603196 -325.333699947386 0.500000000000885
vertex 605.61737643597 -325.572077883611 0.500000000000922
endloop
endfacet
facet normal -0.707106789089378 0.707106773283717 -1.00242389672357e-013
outer loop
vertex 605.928036603196 -325.333699947386 0.500000000000885
vertex 605.617376435971 -325.57207788361 10.0000000000009
vertex 605.928036603196 -325.333699947385 10.0000000000009
endloop
endfacet
facet normal -0.707106789089377 0.707106773283718 -1.00242389672357e-013
outer loop
vertex 605.928036603196 -325.333699947385 10.0000000000009
vertex 606.166414532477 -325.023039774832 0.50000000000084
vertex 605.928036603196 -325.333699947386 0.500000000000885
endloop
endfacet
facet normal -0.866025408751685 0.499999991396476 -7.12407930453244e-014
outer loop
vertex 606.166414532477 -325.023039774832 0.50000000000084
vertex 605.928036603196 -325.333699947385 10.0000000000009
vertex 606.166414532477 -325.023039774831 10.0000000000008
endloop
endfacet
facet normal -0.866025408751685 0.499999991396476 -7.12407930453244e-014
outer loop
vertex 606.166414532477 -325.023039774831 10.0000000000008
vertex 606.316265162025 -324.661268343119 0.500000000000791
vertex 606.166414532477 -325.023039774832 0.50000000000084
endloop
endfacet
facet normal -0.965925828538805 0.258819036706388 -3.68771440713335e-014
outer loop
vertex 606.316265162025 -324.661268343119 0.500000000000791
vertex 606.166414532477 -325.023039774831 10.0000000000008
vertex 606.316265162025 -324.661268343117 10.0000000000008
endloop
endfacet
facet normal -0.965925828538805 0.258819036706388 -3.68771440713335e-014
outer loop
vertex 606.316265162025 -324.661268343119 0.500000000000791
vertex 606.367376419171 -324.273039777228 10.0000000000007
vertex 606.367376419171 -324.273039777229 0.500000000000732
endloop
endfacet
facet normal -1.0 -7.45054858734555e-009 -1.61766945437098e-019
outer loop
vertex 606.367376419171 -324.273039777228 10.0000000000007
vertex 606.316265162025 -324.661268343119 0.500000000000791
vertex 606.316265162025 -324.661268343117 10.0000000000008
endloop
endfacet
facet normal -1.0 -7.45054858734555e-009 -1.61766945437098e-019
outer loop
vertex 606.367376419171 -324.273039777228 10.0000000000007
vertex 606.31626515624 -323.884811212101 0.500000000000677
vertex 606.367376419171 -324.273039777229 0.500000000000732
endloop
endfacet
facet normal -0.965925824682197 -0.258819051099446 3.73352023520917e-014
outer loop
vertex 606.31626515624 -323.884811212101 0.500000000000677
vertex 606.367376419171 -324.273039777228 10.0000000000007
vertex 606.31626515624 -323.8848112121 10.0000000000007
endloop
endfacet
facet normal -0.965925824682197 -0.258819051099446 3.73352023520917e-014
outer loop
vertex 606.31626515624 -323.8848112121 10.0000000000007
vertex 606.166414521302 -323.523039782621 0.500000000000625
vertex 606.31626515624 -323.884811212101 0.500000000000677
endloop
endfacet
facet normal -0.866025401301071 -0.50000000430132 7.19864998477647e-014
outer loop
vertex 606.166414521302 -323.523039782621 0.500000000000625
vertex 606.31626515624 -323.8848112121 10.0000000000007
vertex 606.166414521302 -323.523039782619 10.0000000000006
endloop
endfacet
facet normal -0.86602540130107 -0.500000004301321 7.19864998477648e-014
outer loop
vertex 606.166414521302 -323.523039782619 10.0000000000006
vertex 605.928036587391 -323.212379613619 0.50000000000058
vertex 606.166414521302 -323.523039782621 0.500000000000625
endloop
endfacet
facet normal -0.707106778552385 -0.70710678382071 1.02495034940228e-013
outer loop
vertex 605.928036587391 -323.212379613619 0.50000000000058
vertex 606.166414521302 -323.523039782619 10.0000000000006
vertex 605.928036587391 -323.212379613618 10.0000000000006
endloop
endfacet
facet normal -0.707106778552385 -0.70710678382071 1.02495034940228e-013
outer loop
vertex 605.928036587391 -323.212379613619 0.50000000000058
vertex 605.617376416613 -322.974001682022 10.0000000000005
vertex 605.617376416613 -322.974001682023 0.500000000000546
endloop
endfacet
facet normal -0.499999997849235 -0.866025405026183 1.24661180174321e-013
outer loop
vertex 605.617376416613 -322.974001682022 10.0000000000005
vertex 605.928036587391 -323.212379613619 0.50000000000058
vertex 605.928036587391 -323.212379613618 10.0000000000006
endloop
endfacet
facet normal -0.258819043903049 -0.965925826610466 1.40125199601216e-013
outer loop
vertex 605.255604986016 -322.82415104978 0.500000000000524
vertex 605.617376416613 -322.974001682022 10.0000000000005
vertex 605.255604986016 -322.824151049779 10.0000000000005
endloop
endfacet
facet normal -0.499999997849235 -0.866025405026183 1.24661180174321e-013
outer loop
vertex 605.617376416613 -322.974001682022 10.0000000000005
vertex 605.255604986016 -322.82415104978 0.500000000000524
vertex 605.617376416613 -322.974001682023 0.500000000000546
endloop
endfacet
facet normal -0.258819043903049 -0.965925826610466 1.40125199601216e-013
outer loop
vertex 605.255604986016 -322.82415104978 0.500000000000524
vertex 604.867376420508 -322.77303978974 10.0000000000005
vertex 604.867376420508 -322.773039789741 0.500000000000517
endloop
endfacet
facet normal -0.130526191604477 -0.991444861454853 1.46592443281435e-013
outer loop
vertex 604.867376420508 -322.77303978974 10.0000000000005
vertex 605.255604986016 -322.82415104978 0.500000000000524
vertex 605.255604986016 -322.824151049779 10.0000000000005
endloop
endfacet
facet normal -0.707106781186532 -0.707106781186563 1.04104262976658e-013
outer loop
vertex 589.117376420508 -328.773039787069 0.500000000001344
vertex 588.117376420508 -327.773039787067 10.0000000000012
vertex 588.117376420508 -327.773039787069 0.500000000001192
endloop
endfacet
facet normal -0.707106781186532 -0.707106781186563 1.04104262976658e-013
outer loop
vertex 588.117376420508 -327.773039787067 10.0000000000012
vertex 589.117376420508 -328.773039787069 0.500000000001344
vertex 589.117376420508 -328.773039787067 10.0000000000013
endloop
endfacet
facet normal -1.0 0.0 0.0
outer loop
vertex 588.117376420508 -322.523039789742 0.500000000000439
vertex 588.117376420508 -320.77303978974 10.0000000000001
vertex 588.117376420508 -320.773039789741 0.50000000000016
endloop
endfacet
facet normal -1.0 0.0 0.0
outer loop
vertex 588.117376420508 -320.77303978974 10.0000000000001
vertex 588.117376420508 -322.523039789742 0.500000000000439
vertex 588.117376420508 -322.52303978974 10.0000000000004
endloop
endfacet
facet normal -4.29709178293157e-015 -1.0 1.51981351480476e-013
outer loop
vertex 610.117376420508 -328.773039787069 0.500000000001547
vertex 589.117376420508 -328.773039787067 10.0000000000013
vertex 589.117376420508 -328.773039787069 0.500000000001344
endloop
endfacet
facet normal -4.29709178293157e-015 -1.0 1.51981351480476e-013
outer loop
vertex 589.117376420508 -328.773039787067 10.0000000000013
vertex 610.117376420508 -328.773039787069 0.500000000001547
vertex 610.117376420508 -328.773039787067 10.0000000000015
endloop
endfacet
facet normal 1.0 -3.60955709959057e-014 1.89976689350647e-014
outer loop
vertex 612.117376420508 -321.77303978974 10.0000000000005
vertex 612.117376420508 -326.773039787069 0.500000000001268
vertex 612.117376420508 -321.773039789741 0.500000000000525
endloop
endfacet
facet normal 1.0 -3.60955709959057e-014 1.89976689350647e-014
outer loop
vertex 612.117376420508 -326.773039787069 0.500000000001268
vertex 612.117376420508 -321.77303978974 10.0000000000005
vertex 612.117376420508 -326.773039787067 10.0000000000013
endloop
endfacet
facet normal -2.14854589146378e-015 1.0 -1.42482517012947e-013
outer loop
vertex 610.117376420508 -319.77303978974 10.0000000000002
vertex 589.117376420508 -319.773039789742 0.499999999999999
vertex 589.117376420508 -319.77303978974 9.99999999999998
endloop
endfacet
facet normal -2.14854589146378e-015 1.0 -1.42482517012947e-013
outer loop
vertex 589.117376420508 -319.773039789742 0.499999999999999
vertex 610.117376420508 -319.77303978974 10.0000000000002
vertex 610.117376420508 -319.773039789741 0.500000000000207
endloop
endfacet
facet normal 8.12723818759415e-015 -1.47852826161214e-013 -1.0
outer loop
vertex 610.504488318493 -320.328318518247 2.9330833054292e-013
vertex 589.324483201694 -320.273039789742 7.74019737193139e-014
vertex 610.084604689101 -320.273039789741 2.82554535324649e-013
endloop
endfacet
facet normal 8.12723818759415e-015 -1.47852826161214e-013 -1.0
outer loop
vertex 589.324483201694 -320.273039789742 7.74019737193139e-014
vertex 610.504488318493 -320.328318518247 2.9330833054292e-013
vertex 588.617376420508 -320.980146570928 1.95808623912781e-013
endloop
endfacet
facet normal 8.12723818759415e-015 -1.47852826161214e-013 -1.0
outer loop
vertex 588.617376420508 -320.980146570928 1.95808623912781e-013
vertex 610.504488318493 -320.328318518247 2.9330833054292e-013
vertex 610.865219180363 -320.4777381336 3.20393576560908e-013
endloop
endfacet
facet normal 8.12723818759415e-015 -1.47852826161214e-013 -1.0
outer loop
vertex 588.617376420508 -320.980146570928 1.95808623912781e-013
vertex 610.865219180363 -320.4777381336 3.20393576560908e-013
vertex 611.174985794018 -320.715430416232 3.57328109589866e-013
endloop
endfacet
facet normal 8.12723818759415e-015 -1.47852826161214e-013 -1.0
outer loop
vertex 588.617376420508 -320.980146570928 1.95808623912781e-013
vertex 611.174985794018 -320.715430416232 3.57328109589866e-013
vertex 611.412678076649 -321.025197029886 4.07427011261631e-013
endloop
endfacet
facet normal 8.12723818759415e-015 -1.47852826161214e-013 -1.0
outer loop
vertex 588.617376420508 -320.980146570928 1.95808623912781e-013
vertex 611.412678076649 -321.025197029886 4.07427011261631e-013
vertex 588.617376420508 -322.214022795367 3.95459307580781e-013
endloop
endfacet
facet normal 8.12723818759415e-015 -1.47852826161214e-013 -1.0
outer loop
vertex 588.617376420508 -322.214022795367 3.95459307580781e-013
vertex 611.412678076649 -321.025197029886 4.07427011261631e-013
vertex 611.562097692002 -321.385927891757 4.6484050984839e-013
endloop
endfacet
facet normal 8.12723818759415e-015 -1.47852826161214e-013 -1.0
outer loop
vertex 588.617376420508 -322.214022795367 3.95459307580781e-013
vertex 611.562097692002 -321.385927891757 4.6484050984839e-013
vertex 611.617376420508 -321.805811521149 5.25103922097436e-013
endloop
endfacet
facet normal 8.12723818759415e-015 -1.47852826161214e-013 -1.0
outer loop
vertex 588.617376420508 -322.214022795367 3.95459307580781e-013
vertex 611.617376420508 -321.805811521149 5.25103922097436e-013
vertex 604.900148151759 -322.273039789742 4.43409198247489e-013
endloop
endfacet
facet normal 8.12723818759415e-015 -1.47852826161214e-013 -1.0
outer loop
vertex 604.900148151759 -322.273039789742 4.43409198247489e-013
vertex 611.617376420508 -321.805811521149 5.25103922097436e-013
vertex 605.386131177621 -322.337020668574 4.55411961598615e-013
endloop
endfacet
facet normal 8.12723818759415e-015 -1.47852826161214e-013 -1.0
outer loop
vertex 605.386131177621 -322.337020668574 4.55411961598615e-013
vertex 611.617376420508 -321.805811521149 5.25103922097436e-013
vertex 605.869533655653 -322.537252530005 4.84150055599191e-013
endloop
endfacet
facet normal 8.12723818759415e-015 -1.47852826161214e-013 -1.0
outer loop
vertex 605.869533655653 -322.537252530005 4.84150055599191e-013
vertex 611.617376420508 -321.805811521149 5.25103922097436e-013
vertex 611.617376420508 -326.740268055661 1.25869696229934e-012
endloop
endfacet
facet normal 8.12723818759415e-015 -1.47852826161214e-013 -1.0
outer loop
vertex 605.869533655653 -322.537252530005 4.84150055599191e-013
vertex 611.617376420508 -326.740268055661 1.25869696229934e-012
vertex 606.284640774897 -322.855775423456 5.32685727803678e-013
endloop
endfacet
facet normal 8.12723818759415e-015 -1.47852826161214e-013 -1.0
outer loop
vertex 606.284640774897 -322.855775423456 5.32685727803678e-013
vertex 611.617376420508 -326.740268055661 1.25869696229934e-012
vertex 606.603163671441 -323.270882540327 5.92263595480208e-013
endloop
endfacet
facet normal 8.12723818759415e-015 -1.47852826161214e-013 -1.0
outer loop
vertex 606.603163671441 -323.270882540327 5.92263595480208e-013
vertex 611.617376420508 -326.740268055661 1.25869696229934e-012
vertex 606.803395536473 -323.754285016868 6.61643491924608e-013
endloop
endfacet
facet normal 8.12723818759415e-015 -1.47852826161214e-013 -1.0
outer loop
vertex 606.803395536473 -323.754285016868 6.61643491924608e-013
vertex 611.617376420508 -326.740268055661 1.25869696229934e-012
vertex 606.87169089942 -324.273039773472 7.38917258376818e-013
endloop
endfacet
facet normal 8.12723818759415e-015 -1.47852826161214e-013 -1.0
outer loop
vertex 606.87169089942 -324.273039773472 7.38917258376818e-013
vertex 611.617376420508 -326.740268055661 1.25869696229934e-012
vertex 606.803395544203 -324.791794531094 8.16191024975261e-013
endloop
endfacet
facet normal 8.12723818759415e-015 -1.47852826161214e-013 -1.0
outer loop
vertex 606.803395544203 -324.791794531094 8.16191024975261e-013
vertex 611.617376420508 -326.740268055661 1.25869696229934e-012
vertex 606.603163686374 -325.275197010618 8.82750955365219e-013
endloop
endfacet
facet normal 8.12723818759415e-015 -1.47852826161214e-013 -1.0
outer loop
vertex 606.603163686374 -325.275197010618 8.82750955365219e-013
vertex 611.617376420508 -326.740268055661 1.25869696229934e-012
vertex 606.284640796016 -325.690304132235 9.42328823722992e-013
endloop
endfacet
facet normal 8.12723818759415e-015 -1.47852826161214e-013 -1.0
outer loop
vertex 606.284640796016 -325.690304132235 9.42328823722992e-013
vertex 611.617376420508 -326.740268055661 1.25869696229934e-012
vertex 605.869533681518 -326.008827031872 9.90864496815294e-013
endloop
endfacet
facet normal 8.12723818759415e-015 -1.47852826161214e-013 -1.0
outer loop
vertex 605.869533681518 -326.008827031872 9.90864496815294e-013
vertex 611.617376420508 -326.740268055661 1.25869696229934e-012
vertex 605.386131204719 -326.209058901231 1.01678262547123e-012
endloop
endfacet
facet normal 8.12723818759415e-015 -1.47852826161214e-013 -1.0
outer loop
vertex 605.386131204719 -326.209058901231 1.01678262547123e-012
vertex 611.617376420508 -326.740268055661 1.25869696229934e-012
vertex 604.90014815363 -326.273039787069 1.02314545686262e-012
endloop
endfacet
facet normal 8.12723818759415e-015 -1.47852826161214e-013 -1.0
outer loop
vertex 604.90014815363 -326.273039787069 1.02314545686262e-012
vertex 611.617376420508 -326.740268055661 1.25869696229934e-012
vertex 593.160269639321 -326.273039787069 9.78025993141857e-013
endloop
endfacet
facet normal 8.12723818759415e-015 -1.47852826161214e-013 -1.0
outer loop
vertex 593.160269639321 -326.273039787069 9.78025993141857e-013
vertex 611.617376420508 -326.740268055661 1.25869696229934e-012
vertex 588.617376420508 -326.332056781444 9.92136286018017e-013
endloop
endfacet
facet normal 8.12723818759415e-015 -1.47852826161214e-013 -1.0
outer loop
vertex 588.617376420508 -326.332056781444 9.92136286018017e-013
vertex 611.617376420508 -326.740268055661 1.25869696229934e-012
vertex 588.617376420508 -327.565933005882 1.16640727134307e-012
endloop
endfacet
facet normal 8.12723818759415e-015 -1.47852826161214e-013 -1.0
outer loop
vertex 588.617376420508 -327.565933005882 1.16640727134307e-012
vertex 611.617376420508 -326.740268055661 1.25869696229934e-012
vertex 611.562097692002 -327.160151685054 1.31896037454838e-012
endloop
endfacet
facet normal 8.12723818759415e-015 -1.47852826161214e-013 -1.0
outer loop
vertex 588.617376420508 -327.565933005882 1.16640727134307e-012
vertex 611.562097692002 -327.160151685054 1.31896037454838e-012
vertex 611.412678076649 -327.520882546924 1.37073394016999e-012
endloop
endfacet
facet normal 8.12723818759415e-015 -1.47852826161214e-013 -1.0
outer loop
vertex 588.617376420508 -327.565933005882 1.16640727134307e-012
vertex 611.412678076649 -327.520882546924 1.37073394016999e-012
vertex 611.174985794017 -327.830649160578 1.41519290887673e-012
endloop
endfacet
facet normal 8.12723818759415e-015 -1.47852826161214e-013 -1.0
outer loop
vertex 588.617376420508 -327.565933005882 1.16640727134307e-012
vertex 611.174985794017 -327.830649160578 1.41519290887673e-012
vertex 589.324483201694 -328.273039787069 1.27353405560636e-012
endloop
endfacet
facet normal 8.12723818759415e-015 -1.47852826161214e-013 -1.0
outer loop
vertex 589.324483201694 -328.273039787069 1.27353405560636e-012
vertex 611.174985794017 -327.830649160578 1.41519290887673e-012
vertex 610.865219180363 -328.06834144321 1.4493074754231e-012
endloop
endfacet
facet normal 8.12723818759415e-015 -1.47852826161214e-013 -1.0
outer loop
vertex 589.324483201694 -328.273039787069 1.27353405560636e-012
vertex 610.865219180363 -328.06834144321 1.4493074754231e-012
vertex 610.504488318493 -328.217761058563 1.46793282199345e-012
endloop
endfacet
facet normal 8.12723818759415e-015 -1.47852826161214e-013 -1.0
outer loop
vertex 589.324483201694 -328.273039787069 1.27353405560636e-012
vertex 610.504488318493 -328.217761058563 1.46793282199345e-012
vertex 610.0846046891 -328.273039787069 1.47304668424663e-012
endloop
endfacet
facet normal 8.12723818759415e-015 -1.47852826161214e-013 -1.0
outer loop
vertex 593.160269639321 -326.273039787069 9.78025993141857e-013
vertex 589.235410409258 -326.023039787069 9.44964939247302e-013
vertex 592.910269639321 -326.023039787069 9.42144972764754e-013
endloop
endfacet
facet normal 8.12723818759415e-015 -1.47852826161214e-013 -1.0
outer loop
vertex 589.235410409258 -326.023039787069 9.44964939247302e-013
vertex 593.160269639321 -326.273039787069 9.78025993141857e-013
vertex 588.617376420508 -326.332056781444 9.92136286018017e-013
endloop
endfacet
facet normal 8.12723818759415e-015 -1.47852826161214e-013 -1.0
outer loop
vertex 588.617376420508 -322.214022795367 3.95459307580781e-013
vertex 593.160269639321 -322.273039789742 4.0110970100927e-013
vertex 589.235410409258 -322.523039789742 4.39810687868938e-013
endloop
endfacet
facet normal 8.12723818759415e-015 -1.47852826161214e-013 -1.0
outer loop
vertex 593.160269639321 -322.273039789742 4.0110970100927e-013
vertex 588.617376420508 -322.214022795367 3.95459307580781e-013
vertex 604.900148151759 -322.273039789742 4.43409198247489e-013
endloop
endfacet
facet normal 8.12723818759415e-015 -1.47852826161214e-013 -1.0
outer loop
vertex 589.235410409258 -322.523039789742 4.39810687868938e-013
vertex 593.160269639321 -322.273039789742 4.0110970100927e-013
vertex 592.910269639321 -322.523039789742 4.3699072138639e-013
endloop
endfacet
facet normal 0.430459334576899 -0.560985526797001 -0.70710678118648
outer loop
vertex 611.531589982881 -328.187253349442 0.500000000001471
vertex 610.865219180363 -328.06834144321 1.4493074754231e-012
vertex 611.174985794017 -327.830649160578 1.41519290887673e-012
endloop
endfacet
facet normal 0.430459334576899 -0.560985526797001 -0.70710678118648
outer loop
vertex 610.865219180363 -328.06834144321 1.4493074754231e-012
vertex 611.531589982881 -328.187253349442 0.500000000001471
vertex 611.117376420508 -328.505090594638 0.500000000001517
endloop
endfacet
facet normal -0.270598048856266 -0.653281482942355 -0.70710678118642
outer loop
vertex 605.869533655653 -322.537252530005 4.84150055599191e-013
vertex 605.255604986016 -322.82415104978 0.500000000000524
vertex 605.386131177621 -322.337020668574 4.55411961598615e-013
endloop
endfacet
facet normal -0.270598048856266 -0.653281482942355 -0.70710678118642
outer loop
vertex 605.255604986016 -322.82415104978 0.500000000000524
vertex 605.869533655653 -322.537252530005 4.84150055599191e-013
vertex 605.617376416613 -322.974001682023 0.500000000000546
endloop
endfacet
facet normal 0.0922959556412671 -0.701057384650067 -0.707106781186458
outer loop
vertex 610.635014510713 -328.704891439647 0.50000000000154
vertex 610.0846046891 -328.273039787069 1.47304668424663e-012
vertex 610.504488318493 -328.217761058563 1.46793282199345e-012
endloop
endfacet
facet normal 0.0922959556412671 -0.701057384650067 -0.707106781186458
outer loop
vertex 610.0846046891 -328.273039787069 1.47304668424663e-012
vertex 610.635014510713 -328.704891439647 0.50000000000154
vertex 610.117376420508 -328.773039787069 0.500000000001547
endloop
endfacet
facet normal 2.41195841645975e-015 0.707106781186446 -0.707106781186649
outer loop
vertex 610.117376420508 -319.773039789741 0.500000000000207
vertex 589.324483201694 -320.273039789742 7.74019737193139e-014
vertex 589.117376420508 -319.773039789742 0.499999999999999
endloop
endfacet
facet normal 2.41195841645975e-015 0.707106781186446 -0.707106781186649
outer loop
vertex 589.324483201694 -320.273039789742 7.74019737193139e-014
vertex 610.117376420508 -319.773039789741 0.500000000000207
vertex 610.084604689101 -320.273039789741 2.82554535324649e-013
endloop
endfacet
facet normal 0.653281482438176 0.270598050072788 -0.707106781186677
outer loop
vertex 612.049228073086 -321.255401699536 0.500000000000448
vertex 611.412678076649 -321.025197029886 4.07427011261631e-013
vertex 611.849427228077 -320.773039789741 0.500000000000373
endloop
endfacet
facet normal 0.653281482438176 0.270598050072788 -0.707106781186677
outer loop
vertex 611.412678076649 -321.025197029886 4.07427011261631e-013
vertex 612.049228073086 -321.255401699536 0.500000000000448
vertex 611.562097692002 -321.385927891757 4.6484050984839e-013
endloop
endfacet
facet normal -0.499999999999981 0.499999999999896 -0.707106781186634
outer loop
vertex 589.324483201694 -320.273039789742 7.74019737193139e-014
vertex 588.117376420508 -320.773039789741 0.50000000000016
vertex 589.117376420508 -319.773039789742 0.499999999999999
endloop
endfacet
facet normal -0.499999999999981 0.499999999999896 -0.707106781186634
outer loop
vertex 588.117376420508 -320.773039789741 0.50000000000016
vertex 589.324483201694 -320.273039789742 7.74019737193139e-014
vertex 588.617376420508 -320.980146570928 1.95808623912781e-013
endloop
endfacet
facet normal 2.22078146316817e-015 -0.707106781186679 -0.707106781186416
outer loop
vertex 589.324483201694 -328.273039787069 1.27353405560636e-012
vertex 610.117376420508 -328.773039787069 0.500000000001547
vertex 589.117376420508 -328.773039787069 0.500000000001344
endloop
endfacet
facet normal 2.22078146316817e-015 -0.707106781186679 -0.707106781186416
outer loop
vertex 610.117376420508 -328.773039787069 0.500000000001547
vertex 589.324483201694 -328.273039787069 1.27353405560636e-012
vertex 610.0846046891 -328.273039787069 1.47304668424663e-012
endloop
endfacet
facet normal 2.65170115649317e-015 0.707106781186448 -0.707106781186647
outer loop
vertex 593.367376420508 -325.773039787069 0.500000000000905
vertex 604.90014815363 -326.273039787069 1.02314545686262e-012
vertex 593.160269639321 -326.273039787069 9.78025993141857e-013
endloop
endfacet
facet normal 2.65170115649317e-015 0.707106781186448 -0.707106781186647
outer loop
vertex 604.90014815363 -326.273039787069 1.02314545686262e-012
vertex 593.367376420508 -325.773039787069 0.500000000000905
vertex 604.867376420508 -325.773039787069 0.500000000000948
endloop
endfacet
facet normal -0.70105738539496 0.092295949982664 -0.707106781186533
outer loop
vertex 606.803395544203 -324.791794531094 8.16191024975261e-013
vertex 606.367376419171 -324.273039777229 0.500000000000732
vertex 606.87169089942 -324.273039773472 7.38917258376818e-013
endloop
endfacet
facet normal -0.70105738539496 0.092295949982664 -0.707106781186533
outer loop
vertex 606.367376419171 -324.273039777229 0.500000000000732
vertex 606.803395544203 -324.791794531094 8.16191024975261e-013
vertex 606.316265162025 -324.661268343119 0.500000000000791
endloop
endfacet
facet normal -0.0922959604292477 0.7010573840195 -0.707106781186674
outer loop
vertex 605.386131204719 -326.209058901231 1.01678262547123e-012
vertex 604.867376420508 -325.773039787069 0.500000000000948
vertex 605.255605007607 -325.721928521245 0.500000000000943
endloop
endfacet
facet normal -0.0922959604292477 0.7010573840195 -0.707106781186674
outer loop
vertex 604.867376420508 -325.773039787069 0.500000000000948
vertex 605.386131204719 -326.209058901231 1.01678262547123e-012
vertex 604.90014815363 -326.273039787069 1.02314545686262e-012
endloop
endfacet
facet normal -0.653281480926316 -0.270598053723259 -0.70710678118648
outer loop
vertex 606.803395536473 -323.754285016868 6.61643491924608e-013
vertex 606.166414521302 -323.523039782621 0.500000000000625
vertex 606.603163671441 -323.270882540327 5.92263595480208e-013
endloop
endfacet
facet normal -0.653281480926316 -0.270598053723259 -0.70710678118648
outer loop
vertex 606.166414521302 -323.523039782621 0.500000000000625
vertex 606.803395536473 -323.754285016868 6.61643491924608e-013
vertex 606.31626515624 -323.884811212101 0.500000000000677
endloop
endfacet
facet normal -2.78437155650345e-016 0.707106781186448 -0.707106781186647
outer loop
vertex 593.117376420508 -325.523039787069 0.50000000000087
vertex 589.235410409258 -326.023039787069 9.44964939247302e-013
vertex 589.117376420508 -325.523039787069 0.50000000000087
endloop
endfacet
facet normal -2.78437155650345e-016 0.707106781186448 -0.707106781186647
outer loop
vertex 589.235410409258 -326.023039787069 9.44964939247302e-013
vertex 593.117376420508 -325.523039787069 0.50000000000087
vertex 592.910269639321 -326.023039787069 9.42144972764754e-013
endloop
endfacet
facet normal 0.560985526797008 -0.430459334576959 -0.707106781186438
outer loop
vertex 611.849427228077 -327.773039787069 0.500000000001412
vertex 611.174985794017 -327.830649160578 1.41519290887673e-012
vertex 611.412678076649 -327.520882546924 1.37073394016999e-012
endloop
endfacet
facet normal 0.560985526797008 -0.430459334576959 -0.707106781186438
outer loop
vertex 611.174985794017 -327.830649160578 1.41519290887673e-012
vertex 611.849427228077 -327.773039787069 0.500000000001412
vertex 611.531589982881 -328.187253349442 0.500000000001471
endloop
endfacet
facet normal -0.316227766016826 0.632455532033586 -0.707106781186633
outer loop
vertex 589.235410409258 -326.023039787069 9.44964939247302e-013
vertex 588.117376420508 -326.023039787069 0.500000000000944
vertex 589.117376420508 -325.523039787069 0.50000000000087
endloop
endfacet
facet normal -0.316227766016826 0.632455532033586 -0.707106781186633
outer loop
vertex 588.117376420508 -326.023039787069 0.500000000000944
vertex 589.235410409258 -326.023039787069 9.44964939247302e-013
vertex 588.617376420508 -326.332056781444 9.92136286018017e-013
endloop
endfacet
facet normal -0.430459332835434 -0.560985528133312 -0.70710678118645
outer loop
vertex 606.284640774897 -322.855775423456 5.32685727803678e-013
vertex 605.617376416613 -322.974001682023 0.500000000000546
vertex 605.869533655653 -322.537252530005 4.84150055599191e-013
endloop
endfacet
facet normal -0.430459332835434 -0.560985528133312 -0.70710678118645
outer loop
vertex 605.617376416613 -322.974001682023 0.500000000000546
vertex 606.284640774897 -322.855775423456 5.32685727803678e-013
vertex 605.928036587391 -323.212379613619 0.50000000000058
endloop
endfacet
facet normal 0.270598050073104 -0.65328148243828 -0.70710678118646
outer loop
vertex 611.117376420508 -328.505090594638 0.500000000001517
vertex 610.504488318493 -328.217761058563 1.46793282199345e-012
vertex 610.865219180363 -328.06834144321 1.4493074754231e-012
endloop
endfacet
facet normal 0.270598050073104 -0.65328148243828 -0.70710678118646
outer loop
vertex 610.504488318493 -328.217761058563 1.46793282199345e-012
vertex 611.117376420508 -328.505090594638 0.500000000001517
vertex 610.635014510713 -328.704891439647 0.50000000000154
endloop
endfacet
facet normal 2.63517237548167e-015 -0.70710678118668 -0.707106781186415
outer loop
vertex 604.900148151759 -322.273039789742 4.43409198247489e-013
vertex 593.367376420508 -322.773039789741 0.500000000000475
vertex 593.160269639321 -322.273039789742 4.0110970100927e-013
endloop
endfacet
facet normal 2.63517237548167e-015 -0.70710678118668 -0.707106781186415
outer loop
vertex 593.367376420508 -322.773039789741 0.500000000000475
vertex 604.900148151759 -322.273039789742 4.43409198247489e-013
vertex 604.867376420508 -322.773039789741 0.500000000000517
endloop
endfacet
facet normal -0.092295955205929 -0.701057384707397 -0.707106781186441
outer loop
vertex 605.386131177621 -322.337020668574 4.55411961598615e-013
vertex 604.867376420508 -322.773039789741 0.500000000000517
vertex 604.900148151759 -322.273039789742 4.43409198247489e-013
endloop
endfacet
facet normal -0.092295955205929 -0.701057384707397 -0.707106781186441
outer loop
vertex 604.867376420508 -322.773039789741 0.500000000000517
vertex 605.386131177621 -322.337020668574 4.55411961598615e-013
vertex 605.255604986016 -322.82415104978 0.500000000000524
endloop
endfacet
facet normal 0.270598050073094 0.653281482438058 -0.70710678118667
outer loop
vertex 611.117376420508 -320.040988982173 0.500000000000257
vertex 610.504488318493 -320.328318518247 2.9330833054292e-013
vertex 610.635014510713 -319.841188137163 0.500000000000222
endloop
endfacet
facet normal 0.270598050073094 0.653281482438058 -0.70710678118667
outer loop
vertex 610.504488318493 -320.328318518247 2.9330833054292e-013
vertex 611.117376420508 -320.040988982173 0.500000000000257
vertex 610.865219180363 -320.4777381336 3.20393576560908e-013
endloop
endfacet
facet normal 0.707106781186631 -1.56486722913375e-013 -0.707106781186464
outer loop
vertex 612.117376420508 -321.773039789741 0.500000000000525
vertex 611.617376420508 -326.740268055661 1.25869696229934e-012
vertex 611.617376420508 -321.805811521149 5.25103922097436e-013
endloop
endfacet
facet normal 0.707106781186631 -1.56486722913375e-013 -0.707106781186464
outer loop
vertex 611.617376420508 -326.740268055661 1.25869696229934e-012
vertex 612.117376420508 -321.773039789741 0.500000000000525
vertex 612.117376420508 -326.773039787069 0.500000000001268
endloop
endfacet
facet normal -0.430459341194705 0.560985521718779 -0.707106781186639
outer loop
vertex 606.284640796016 -325.690304132235 9.42328823722992e-013
vertex 605.61737643597 -325.572077883611 0.500000000000922
vertex 605.928036603196 -325.333699947386 0.500000000000885
endloop
endfacet
facet normal -0.430459341194705 0.560985521718779 -0.707106781186639
outer loop
vertex 605.61737643597 -325.572077883611 0.500000000000922
vertex 606.284640796016 -325.690304132235 9.42328823722992e-013
vertex 605.869533681518 -326.008827031872 9.90864496815294e-013
endloop
endfacet
facet normal -0.707106781186561 -1.00240536611141e-013 -0.707106781186534
outer loop
vertex 588.117376420508 -327.773039787069 0.500000000001192
vertex 588.617376420508 -326.332056781444 9.92136286018017e-013
vertex 588.617376420508 -327.565933005882 1.16640727134307e-012
endloop
endfacet
facet normal -0.707106781186561 -1.00240536611141e-013 -0.707106781186534
outer loop
vertex 588.617376420508 -326.332056781444 9.92136286018017e-013
vertex 588.117376420508 -327.773039787069 0.500000000001192
vertex 588.117376420508 -326.023039787069 0.500000000000944
endloop
endfacet
facet normal 0.560985526796831 0.430459334576938 -0.707106781186591
outer loop
vertex 611.849427228077 -320.773039789741 0.500000000000373
vertex 611.174985794018 -320.715430416232 3.57328109589866e-013
vertex 611.531589982881 -320.358826227368 0.500000000000308
endloop
endfacet
facet normal 0.560985526796831 0.430459334576938 -0.707106781186591
outer loop
vertex 611.174985794018 -320.715430416232 3.57328109589866e-013
vertex 611.849427228077 -320.773039789741 0.500000000000373
vertex 611.412678076649 -321.025197029886 4.07427011261631e-013
endloop
endfacet
facet normal -0.653281484958334 0.270598043988809 -0.707106781186593
outer loop
vertex 606.803395544203 -324.791794531094 8.16191024975261e-013
vertex 606.166414532477 -325.023039774832 0.50000000000084
vertex 606.316265162025 -324.661268343119 0.500000000000791
endloop
endfacet
facet normal -0.653281484958334 0.270598043988809 -0.707106781186593
outer loop
vertex 606.166414532477 -325.023039774832 0.50000000000084
vertex 606.803395544203 -324.791794531094 8.16191024975261e-013
vertex 606.603163686374 -325.275197010618 8.82750955365219e-013
endloop
endfacet
facet normal -0.316227766016836 -0.632455532033814 -0.707106781186426
outer loop
vertex 589.235410409258 -322.523039789742 4.39810687868938e-013
vertex 588.117376420508 -322.523039789742 0.500000000000439
vertex 588.617376420508 -322.214022795367 3.95459307580781e-013
endloop
endfacet
facet normal -0.316227766016836 -0.632455532033814 -0.707106781186426
outer loop
vertex 588.117376420508 -322.523039789742 0.500000000000439
vertex 589.235410409258 -322.523039789742 4.39810687868938e-013
vertex 589.117376420508 -323.023039789742 0.500000000000511
endloop
endfacet
facet normal 0.500000000000062 -0.500000000000073 -0.707106781186452
outer loop
vertex 593.367376420508 -322.773039789741 0.500000000000475
vertex 592.910269639321 -322.523039789742 4.3699072138639e-013
vertex 593.160269639321 -322.273039789742 4.0110970100927e-013
endloop
endfacet
facet normal 0.500000000000062 -0.500000000000073 -0.707106781186452
outer loop
vertex 592.910269639321 -322.523039789742 4.3699072138639e-013
vertex 593.367376420508 -322.773039789741 0.500000000000475
vertex 593.117376420508 -323.023039789742 0.500000000000511
endloop
endfacet
facet normal -0.701057384019596 -0.0922959604293891 -0.70710678118656
outer loop
vertex 606.87169089942 -324.273039773472 7.38917258376818e-013
vertex 606.31626515624 -323.884811212101 0.500000000000677
vertex 606.803395536473 -323.754285016868 6.61643491924608e-013
endloop
endfacet
facet normal -0.701057384019596 -0.0922959604293891 -0.70710678118656
outer loop
vertex 606.31626515624 -323.884811212101 0.500000000000677
vertex 606.87169089942 -324.273039773472 7.38917258376818e-013
vertex 606.367376419171 -324.273039777229 0.500000000000732
endloop
endfacet
facet normal -2.13877758252052e-016 -0.70710678118668 -0.707106781186416
outer loop
vertex 589.235410409258 -322.523039789742 4.39810687868938e-013
vertex 593.117376420508 -323.023039789742 0.500000000000511
vertex 589.117376420508 -323.023039789742 0.500000000000511
endloop
endfacet
facet normal -2.13877758252052e-016 -0.70710678118668 -0.707106781186416
outer loop
vertex 593.117376420508 -323.023039789742 0.500000000000511
vertex 589.235410409258 -322.523039789742 4.39810687868938e-013
vertex 592.910269639321 -322.523039789742 4.3699072138639e-013
endloop
endfacet
facet normal 0.701057384649922 0.0922959556414688 -0.707106781186575
outer loop
vertex 612.117376420508 -321.773039789741 0.500000000000525
vertex 611.562097692002 -321.385927891757 4.6484050984839e-013
vertex 612.049228073086 -321.255401699536 0.500000000000448
endloop
endfacet
facet normal 0.701057384649922 0.0922959556414688 -0.707106781186575
outer loop
vertex 611.562097692002 -321.385927891757 4.6484050984839e-013
vertex 612.117376420508 -321.773039789741 0.500000000000525
vertex 611.617376420508 -321.805811521149 5.25103922097436e-013
endloop
endfacet
facet normal 0.653281482438235 -0.270598050073311 -0.707106781186423
outer loop
vertex 612.049228073086 -327.290677877274 0.500000000001342
vertex 611.412678076649 -327.520882546924 1.37073394016999e-012
vertex 611.562097692002 -327.160151685054 1.31896037454838e-012
endloop
endfacet
facet normal 0.653281482438235 -0.270598050073311 -0.707106781186423
outer loop
vertex 611.412678076649 -327.520882546924 1.37073394016999e-012
vertex 612.049228073086 -327.290677877274 0.500000000001342
vertex 611.849427228077 -327.773039787069 0.500000000001412
endloop
endfacet
facet normal 0.0922959556413202 0.701057384649851 -0.707106781186665
outer loop
vertex 610.635014510713 -319.841188137163 0.500000000000222
vertex 610.084604689101 -320.273039789741 2.82554535324649e-013
vertex 610.117376420508 -319.773039789741 0.500000000000207
endloop
endfacet
facet normal 0.0922959556413202 0.701057384649851 -0.707106781186665
outer loop
vertex 610.084604689101 -320.273039789741 2.82554535324649e-013
vertex 610.635014510713 -319.841188137163 0.500000000000222
vertex 610.504488318493 -320.328318518247 2.9330833054292e-013
endloop
endfacet
facet normal -0.560985524926057 -0.430459337015171 -0.707106781186474
outer loop
vertex 606.603163671441 -323.270882540327 5.92263595480208e-013
vertex 605.928036587391 -323.212379613619 0.50000000000058
vertex 606.284640774897 -322.855775423456 5.32685727803678e-013
endloop
endfacet
facet normal -0.560985524926057 -0.430459337015171 -0.707106781186474
outer loop
vertex 605.928036587391 -323.212379613619 0.50000000000058
vertex 606.603163671441 -323.270882540327 5.92263595480208e-013
vertex 606.166414521302 -323.523039782621 0.500000000000625
endloop
endfacet
facet normal -0.707106781186561 -1.13319009172689e-013 -0.707106781186534
outer loop
vertex 588.617376420508 -322.214022795367 3.95459307580781e-013
vertex 588.117376420508 -320.773039789741 0.50000000000016
vertex 588.617376420508 -320.980146570928 1.95808623912781e-013
endloop
endfacet
facet normal -0.707106781186561 -1.13319009172689e-013 -0.707106781186534
outer loop
vertex 588.117376420508 -320.773039789741 0.50000000000016
vertex 588.617376420508 -322.214022795367 3.95459307580781e-013
vertex 588.117376420508 -322.523039789742 0.500000000000439
endloop
endfacet
facet normal -0.499999999999973 -0.500000000000106 -0.707106781186492
outer loop
vertex 589.324483201694 -328.273039787069 1.27353405560636e-012
vertex 588.117376420508 -327.773039787069 0.500000000001192
vertex 588.617376420508 -327.565933005882 1.16640727134307e-012
endloop
endfacet
facet normal -0.499999999999973 -0.500000000000106 -0.707106781186492
outer loop
vertex 588.117376420508 -327.773039787069 0.500000000001192
vertex 589.324483201694 -328.273039787069 1.27353405560636e-012
vertex 589.117376420508 -328.773039787069 0.500000000001344
endloop
endfacet
facet normal -0.270598058590922 0.653281478909874 -0.707106781186655
outer loop
vertex 605.869533681518 -326.008827031872 9.90864496815294e-013
vertex 605.255605007607 -325.721928521245 0.500000000000943
vertex 605.61737643597 -325.572077883611 0.500000000000922
endloop
endfacet
facet normal -0.270598058590922 0.653281478909874 -0.707106781186655
outer loop
vertex 605.255605007607 -325.721928521245 0.500000000000943
vertex 605.869533681518 -326.008827031872 9.90864496815294e-013
vertex 605.386131204719 -326.209058901231 1.01678262547123e-012
endloop
endfacet
facet normal 0.499999999999953 0.499999999999943 -0.707106781186621
outer loop
vertex 593.367376420508 -325.773039787069 0.500000000000905
vertex 592.910269639321 -326.023039787069 9.42144972764754e-013
vertex 593.117376420508 -325.523039787069 0.50000000000087
endloop
endfacet
facet normal 0.499999999999953 0.499999999999943 -0.707106781186621
outer loop
vertex 592.910269639321 -326.023039787069 9.42144972764754e-013
vertex 593.367376420508 -325.773039787069 0.500000000000905
vertex 593.160269639321 -326.273039787069 9.78025993141857e-013
endloop
endfacet
facet normal 0.430459334576967 0.560985526796781 -0.707106781186613
outer loop
vertex 611.531589982881 -320.358826227368 0.500000000000308
vertex 610.865219180363 -320.4777381336 3.20393576560908e-013
vertex 611.117376420508 -320.040988982173 0.500000000000257
endloop
endfacet
facet normal 0.430459334576967 0.560985526796781 -0.707106781186613
outer loop
vertex 610.865219180363 -320.4777381336 3.20393576560908e-013
vertex 611.531589982881 -320.358826227368 0.500000000000308
vertex 611.174985794018 -320.715430416232 3.57328109589866e-013
endloop
endfacet
facet normal -0.560985531340747 0.430459328655148 -0.707106781186618
outer loop
vertex 606.603163686374 -325.275197010618 8.82750955365219e-013
vertex 605.928036603196 -325.333699947386 0.500000000000885
vertex 606.166414532477 -325.023039774832 0.50000000000084
endloop
endfacet
facet normal -0.560985531340747 0.430459328655148 -0.707106781186618
outer loop
vertex 605.928036603196 -325.333699947386 0.500000000000885
vertex 606.603163686374 -325.275197010618 8.82750955365219e-013
vertex 606.284640796016 -325.690304132235 9.42328823722992e-013
endloop
endfacet
facet normal 0.701057384650058 -0.0922959556413044 -0.707106781186462
outer loop
vertex 612.117376420508 -326.773039787069 0.500000000001268
vertex 611.562097692002 -327.160151685054 1.31896037454838e-012
vertex 611.617376420508 -326.740268055661 1.25869696229934e-012
endloop
endfacet
facet normal 0.701057384650058 -0.0922959556413044 -0.707106781186462
outer loop
vertex 611.562097692002 -327.160151685054 1.31896037454838e-012
vertex 612.117376420508 -326.773039787069 0.500000000001268
vertex 612.049228073086 -327.290677877274 0.500000000001342
endloop
endfacet
endsolid FoldaRapX
